# vtk DataFile Version 3.0
SHAPE_sfm_50k_v20200323
ASCII
DATASET POLYDATA
POINTS 565 float
0.29649 0.01381 -0.08054
0.2955 0.01359 -0.08235
0.29686 0.01545 -0.08084
0.29569 0.01523 -0.08256
0.29468 0.01503 -0.08434
0.29567 0.0169 -0.08266
0.29681 0.01712 -0.08092
0.29449 0.0167 -0.08437
0.2937 0.01644 -0.08625
0.29733 0.01734 -0.07889
0.29647 0.01876 -0.08087
0.297 0.01897 -0.07885
0.29549 0.01855 -0.0827
0.29453 0.01836 -0.08452
0.29368 0.01809 -0.08636
0.29279 0.01783 -0.08817
0.29284 0.01618 -0.08809
0.29201 0.01755 -0.09009
0.29662 0.02066 -0.07896
0.29613 0.02045 -0.08101
0.29566 0.02027 -0.08306
0.29508 0.02005 -0.08502
0.29383 0.01982 -0.0867
0.29259 0.01955 -0.08836
0.29186 0.01926 -0.09029
0.29088 0.01729 -0.09181
0.29095 0.01906 -0.09209
0.28992 0.01872 -0.09377
0.29689 0.02252 -0.07702
0.29625 0.0223 -0.07905
0.29593 0.02215 -0.08119
0.29612 0.022 -0.08347
0.29552 0.02178 -0.08547
0.29384 0.02152 -0.08699
0.29249 0.02126 -0.08861
0.29177 0.02105 -0.09048
0.29096 0.02084 -0.09234
0.28976 0.02051 -0.09389
0.28843 0.02017 -0.09534
0.28845 0.01852 -0.09539
0.28703 0.01998 -0.097
0.29665 0.0242 -0.07713
0.29591 0.02396 -0.07915
0.29563 0.02384 -0.08127
0.29601 0.02379 -0.08368
0.29543 0.02355 -0.08569
0.29403 0.02328 -0.08734
0.29267 0.02305 -0.08891
0.29165 0.02285 -0.09057
0.29083 0.02261 -0.09251
0.28966 0.02228 -0.09408
0.28828 0.02195 -0.09548
0.28704 0.02163 -0.09699
0.28582 0.02145 -0.0988
0.28577 0.01981 -0.09877
0.28444 0.02127 -0.10043
0.28438 0.01962 -0.10038
0.28303 0.02109 -0.10202
0.29671 0.02603 -0.0752
0.29618 0.02584 -0.07717
0.29547 0.02565 -0.07918
0.29517 0.02551 -0.08129
0.29527 0.02542 -0.08359
0.29517 0.02531 -0.08584
0.29449 0.02513 -0.08775
0.29285 0.02486 -0.08921
0.29146 0.02457 -0.09069
0.29059 0.02438 -0.09258
0.28959 0.02409 -0.09429
0.28824 0.02374 -0.0957
0.28688 0.02339 -0.09713
0.28572 0.02307 -0.09871
0.28436 0.02291 -0.10036
0.28299 0.02274 -0.10199
0.28162 0.02257 -0.10366
0.28161 0.02091 -0.10366
0.28031 0.0224 -0.10539
0.29619 0.02764 -0.07524
0.29557 0.02745 -0.07719
0.29502 0.02734 -0.07931
0.29485 0.02722 -0.08144
0.29472 0.02706 -0.08364
0.29478 0.02709 -0.0858
0.29434 0.02696 -0.08782
0.29264 0.02667 -0.08925
0.29124 0.02638 -0.09073
0.2902 0.02616 -0.09252
0.28934 0.02591 -0.09434
0.28819 0.02558 -0.09592
0.28664 0.02519 -0.09716
0.28534 0.02487 -0.09861
0.28413 0.02456 -0.10012
0.28291 0.02442 -0.10189
0.28166 0.02428 -0.10368
0.28025 0.02409 -0.10533
0.27841 0.02386 -0.10667
0.27869 0.02222 -0.10692
0.27658 0.02361 -0.10794
0.27691 0.022 -0.10825
0.27501 0.02343 -0.10948
0.29577 0.02927 -0.07529
0.29512 0.02908 -0.07725
0.29486 0.02901 -0.07942
0.29495 0.02895 -0.08169
0.29461 0.02891 -0.08371
0.29414 0.02885 -0.08567
0.29363 0.02873 -0.08764
0.29215 0.02841 -0.08912
0.29073 0.02809 -0.09058
0.28961 0.02788 -0.09229
0.28876 0.02765 -0.09411
0.28775 0.02736 -0.0958
0.28629 0.027 -0.09709
0.28497 0.02667 -0.09851
0.2837 0.02634 -0.09998
0.2827 0.02607 -0.10168
0.28151 0.02595 -0.10354
0.28002 0.02574 -0.10512
0.27815 0.02549 -0.10641
0.27624 0.02521 -0.1076
0.27465 0.02501 -0.10919
0.27305 0.0248 -0.11077
0.27343 0.02323 -0.11108
0.27128 0.02458 -0.11218
0.27164 0.02299 -0.11244
0.29604 0.03106 -0.07338
0.2954 0.03092 -0.07543
0.29487 0.03075 -0.07739
0.29514 0.03079 -0.07974
0.29542 0.03085 -0.08195
0.29474 0.03075 -0.08382
0.2939 0.03061 -0.0857
0.29302 0.03046 -0.08753
0.29148 0.03008 -0.08891
0.29002 0.02974 -0.09033
0.28883 0.02953 -0.09198
0.28788 0.02927 -0.09367
0.28696 0.02906 -0.09539
0.28585 0.02876 -0.09693
0.28464 0.02847 -0.09845
0.2833 0.02811 -0.09985
0.28209 0.02778 -0.10136
0.28105 0.02751 -0.10307
0.27955 0.02731 -0.10463
0.27776 0.02707 -0.10597
0.27597 0.0268 -0.10737
0.27439 0.02664 -0.10904
0.27274 0.02641 -0.11057
0.27096 0.02619 -0.11197
0.29562 0.03265 -0.07342
0.2949 0.03248 -0.07544
0.29478 0.03244 -0.07756
0.29587 0.03272 -0.07999
0.29586 0.03277 -0.08221
0.29485 0.03263 -0.08405
0.29411 0.03253 -0.086
0.29261 0.03221 -0.08748
0.29075 0.03173 -0.08865
0.28925 0.0314 -0.09003
0.28801 0.03117 -0.09163
0.28705 0.03094 -0.09327
0.28619 0.03075 -0.095
0.28528 0.03053 -0.09672
0.28418 0.03023 -0.09827
0.28276 0.02984 -0.0996
0.28131 0.02944 -0.1009
0.28024 0.02916 -0.10255
0.27904 0.02885 -0.10409
0.27733 0.02861 -0.10559
0.27573 0.02841 -0.10717
0.27418 0.02827 -0.10891
0.27252 0.02807 -0.1105
0.29517 0.03427 -0.0735
0.29435 0.03406 -0.07547
0.29459 0.03426 -0.07746
0.29588 0.03474 -0.08008
0.2956 0.03472 -0.0822
0.29497 0.03466 -0.08419
0.29402 0.0345 -0.08609
0.29187 0.03402 -0.08717
0.28997 0.03343 -0.08831
0.28857 0.03309 -0.08971
0.28734 0.03287 -0.09136
0.2864 0.03269 -0.09308
0.28553 0.03249 -0.0948
0.28461 0.03227 -0.09651
0.28348 0.03197 -0.09803
0.282 0.03157 -0.09932
0.28058 0.03118 -0.10063
0.2794 0.03085 -0.10217
0.2783 0.03059 -0.10377
0.27703 0.03022 -0.10526
0.27541 0.03002 -0.10682
0.27378 0.02983 -0.10845
0.27222 0.02971 -0.11015
0.29468 0.03588 -0.07358
0.29384 0.03581 -0.07535
0.29396 0.03598 -0.07726
0.29502 0.03641 -0.07979
0.295 0.03656 -0.08203
0.29447 0.03651 -0.08407
0.2931 0.03618 -0.08568
0.29113 0.03566 -0.08684
0.28935 0.0352 -0.08811
0.28795 0.03485 -0.08953
0.28678 0.0346 -0.09119
0.28585 0.03443 -0.09292
0.2849 0.03425 -0.09463
0.28388 0.034 -0.09624
0.28277 0.03371 -0.09779
0.28147 0.03336 -0.09922
0.2801 0.03299 -0.10059
0.27884 0.03266 -0.10202
0.27766 0.03237 -0.10355
0.27641 0.03201 -0.10504
0.27502 0.03159 -0.10638
0.27334 0.03139 -0.10787
0.27172 0.03123 -0.10946
0.29631 0.03632 -0.07163
0.29411 0.03756 -0.07334
0.29555 0.03782 -0.07159
0.29335 0.03747 -0.0751
0.29318 0.03758 -0.07694
0.29375 0.03789 -0.07936
0.2939 0.03813 -0.0816
0.29327 0.03809 -0.08358
0.2922 0.03787 -0.08537
0.29057 0.03736 -0.08666
0.28881 0.03697 -0.08796
0.28743 0.03661 -0.08939
0.28628 0.03637 -0.09104
0.28533 0.0362 -0.09278
0.28429 0.03597 -0.09443
0.28317 0.03571 -0.096
0.28212 0.03546 -0.09759
0.28103 0.03521 -0.09924
0.27996 0.03493 -0.10085
0.27858 0.03458 -0.10219
0.27708 0.03416 -0.10341
0.27571 0.03374 -0.10474
0.27435 0.03336 -0.10607
0.27307 0.03303 -0.10757
0.27134 0.03282 -0.10899
0.29355 0.03923 -0.0731
0.29467 0.03944 -0.07134
0.29284 0.03916 -0.07483
0.29248 0.0392 -0.07663
0.2926 0.03941 -0.07886
0.29273 0.03964 -0.08113
0.29237 0.03976 -0.08324
0.29136 0.03958 -0.08508
0.28975 0.03912 -0.08642
0.28821 0.03871 -0.08777
0.28694 0.0384 -0.08929
0.28583 0.03815 -0.09095
0.28479 0.03794 -0.09262
0.28372 0.03771 -0.09426
0.2826 0.03746 -0.09583
0.28152 0.03722 -0.09743
0.2806 0.03703 -0.09921
0.27969 0.03684 -0.10101
0.27823 0.03646 -0.10229
0.27653 0.03597 -0.1033
0.27503 0.03552 -0.10444
0.27374 0.03516 -0.10583
0.2726 0.03491 -0.10752
0.27119 0.03454 -0.10885
0.29327 0.04099 -0.07292
0.29406 0.0411 -0.07109
0.29251 0.04089 -0.07466
0.29202 0.0409 -0.07646
0.29188 0.04097 -0.07863
0.29204 0.0413 -0.08088
0.29184 0.04152 -0.08306
0.29072 0.04128 -0.08481
0.28916 0.04081 -0.08619
0.28778 0.04049 -0.08765
0.28661 0.04026 -0.08931
0.28541 0.03996 -0.09091
0.28424 0.03971 -0.09248
0.28315 0.03945 -0.09413
0.28213 0.03925 -0.09579
0.28109 0.03905 -0.0974
0.28007 0.03886 -0.09913
0.27913 0.03867 -0.10087
0.2778 0.03833 -0.10226
0.27612 0.03784 -0.1033
0.27452 0.03735 -0.10433
0.27316 0.03696 -0.10565
0.27198 0.03671 -0.10731
0.27058 0.0363 -0.10871
0.29478 0.04115 -0.06925
0.29356 0.04278 -0.07087
0.29416 0.0428 -0.06898
0.29302 0.04279 -0.07277
0.29227 0.0427 -0.07453
0.29165 0.04266 -0.07632
0.29134 0.04271 -0.07841
0.2913 0.04295 -0.08062
0.29105 0.0432 -0.08274
0.29029 0.04312 -0.08466
0.28894 0.04272 -0.08621
0.28748 0.04233 -0.08764
0.28629 0.04207 -0.08929
0.28495 0.04176 -0.09083
0.28376 0.04148 -0.09241
0.28265 0.04123 -0.09406
0.28165 0.04105 -0.0957
0.28075 0.04091 -0.09742
0.27971 0.04072 -0.09913
0.27867 0.04054 -0.10084
0.27732 0.04017 -0.1022
0.27559 0.03966 -0.10317
0.27399 0.03917 -0.10419
0.27259 0.03877 -0.10547
0.27125 0.03839 -0.10697
0.29284 0.04439 -0.07058
0.29338 0.04439 -0.06868
0.29237 0.04446 -0.07247
0.29175 0.04447 -0.0743
0.29114 0.04442 -0.07612
0.29074 0.04445 -0.07821
0.2905 0.04464 -0.08028
0.29018 0.04482 -0.08235
0.2895 0.04478 -0.08432
0.28847 0.04457 -0.08608
0.28714 0.0442 -0.08765
0.28577 0.04385 -0.08916
0.28448 0.04356 -0.09075
0.28338 0.04331 -0.0924
0.28225 0.04308 -0.09399
0.28115 0.04289 -0.09558
0.28034 0.04277 -0.09741
0.27947 0.04263 -0.09925
0.27817 0.04236 -0.10072
0.27664 0.04193 -0.10192
0.27499 0.04144 -0.10295
0.27352 0.04102 -0.10417
0.2721 0.04058 -0.10548
0.27062 0.04013 -0.10678
0.29192 0.04593 -0.07022
0.29248 0.04591 -0.06835
0.29136 0.04595 -0.07208
0.29091 0.04603 -0.07398
0.29044 0.04609 -0.07587
0.29001 0.04617 -0.07788
0.28959 0.04626 -0.0799
0.28911 0.04633 -0.08191
0.28856 0.04636 -0.0839
0.28776 0.04626 -0.0858
0.28667 0.04602 -0.08756
0.2853 0.04567 -0.08909
0.2841 0.04538 -0.09073
0.28304 0.04517 -0.09237
0.28188 0.04494 -0.09395
0.28074 0.04472 -0.09552
0.27981 0.04458 -0.09728
0.27886 0.04444 -0.09905
0.27741 0.04408 -0.10035
0.2759 0.04365 -0.10154
0.27444 0.04324 -0.10279
0.27306 0.04284 -0.1042
0.27162 0.04242 -0.10553
0.29289 0.04582 -0.06647
0.29167 0.04714 -0.06772
0.29211 0.04706 -0.06584
0.29118 0.0472 -0.0696
0.29062 0.04722 -0.07146
0.29015 0.0473 -0.07335
0.28979 0.04744 -0.07523
0.28933 0.04758 -0.07729
0.28884 0.04764 -0.07927
0.28838 0.04771 -0.08128
0.28798 0.04783 -0.08331
0.28722 0.04777 -0.08524
0.2862 0.04757 -0.08702
0.28518 0.04735 -0.08877
0.284 0.04708 -0.09042
0.28289 0.04678 -0.09196
0.28175 0.04655 -0.09355
0.28059 0.04632 -0.09511
0.27947 0.04609 -0.09673
0.27836 0.04586 -0.09833
0.27701 0.04554 -0.09971
0.27562 0.04516 -0.10103
0.27429 0.04481 -0.10249
0.27286 0.04439 -0.10385
0.27139 0.04394 -0.10514
0.29089 0.04839 -0.0671
0.29131 0.0483 -0.06521
0.29055 0.04855 -0.069
0.29006 0.04861 -0.07087
0.28949 0.04864 -0.07271
0.2891 0.04877 -0.07458
0.28876 0.04899 -0.07666
0.28823 0.0491 -0.07869
0.28773 0.04916 -0.08067
0.28733 0.04927 -0.08268
0.28656 0.04921 -0.08461
0.28558 0.04906 -0.08642
0.28477 0.04894 -0.08827
0.28375 0.04872 -0.09001
0.28258 0.04841 -0.09151
0.2815 0.04813 -0.09307
0.28036 0.04788 -0.09467
0.27915 0.0476 -0.0962
0.27795 0.04734 -0.09771
0.27666 0.04702 -0.09914
0.27536 0.04669 -0.10062
0.27411 0.04637 -0.10216
0.27261 0.04591 -0.10343
0.27104 0.04538 -0.10454
0.29025 0.04973 -0.06651
0.2905 0.04952 -0.06461
0.28997 0.04992 -0.06841
0.2895 0.05 -0.07027
0.28896 0.05006 -0.07212
0.28857 0.05018 -0.07398
0.28832 0.05044 -0.07607
0.28787 0.05061 -0.07812
0.28719 0.05065 -0.08009
0.28666 0.05069 -0.08206
0.28591 0.05063 -0.08398
0.28498 0.0505 -0.08581
0.28414 0.0504 -0.08765
0.28332 0.05028 -0.08949
0.28229 0.05004 -0.09111
0.28119 0.04975 -0.09264
0.2801 0.04945 -0.09416
0.27879 0.0491 -0.09564
0.27753 0.04879 -0.09708
0.27632 0.04852 -0.09864
0.2752 0.04832 -0.10036
0.27393 0.04799 -0.10191
0.27232 0.04744 -0.10301
0.27059 0.04678 -0.10386
0.28953 0.05101 -0.0659
0.2897 0.05068 -0.06396
0.28922 0.05119 -0.06778
0.28886 0.05134 -0.06964
0.28869 0.05161 -0.07156
0.2884 0.05179 -0.07346
0.28793 0.05195 -0.07549
0.28738 0.05206 -0.07751
0.28685 0.05217 -0.07953
0.28627 0.05226 -0.08154
0.28544 0.05216 -0.08342
0.28448 0.05199 -0.08524
0.28364 0.0519 -0.08708
0.28284 0.05181 -0.08894
0.28202 0.05167 -0.09069
0.28101 0.05143 -0.0923
0.27979 0.05106 -0.09375
0.27841 0.05058 -0.09506
0.27705 0.05018 -0.09643
0.27586 0.04991 -0.098
0.27484 0.04982 -0.09987
0.27374 0.04962 -0.10165
0.27203 0.04898 -0.10259
0.27011 0.04815 -0.10312
0.28841 0.05245 -0.06715
0.28806 0.0526 -0.06902
0.28814 0.05302 -0.07095
0.2883 0.05347 -0.0729
0.28759 0.05351 -0.07493
0.28684 0.05351 -0.0769
0.28644 0.05371 -0.07897
0.28588 0.05382 -0.08097
0.28504 0.05371 -0.08285
0.28414 0.05357 -0.08471
0.28329 0.05345 -0.08654
0.28236 0.05329 -0.08836
0.28159 0.05319 -0.09015
0.28077 0.05308 -0.09193
0.27949 0.05268 -0.09333
0.27788 0.05202 -0.09446
0.27654 0.05151 -0.09573
0.27538 0.05128 -0.09732
0.27427 0.05114 -0.09909
0.27313 0.05093 -0.10079
0.27153 0.05037 -0.10188
0.26971 0.04958 -0.10256
0.28698 0.0549 -0.07428
0.28632 0.05497 -0.0763
0.28588 0.05516 -0.07832
0.28534 0.05529 -0.08034
0.28463 0.05525 -0.08229
0.28382 0.05516 -0.08419
0.28293 0.05502 -0.08604
0.28186 0.05476 -0.08777
0.28097 0.0546 -0.08947
0.28009 0.05445 -0.09119
0.27884 0.05405 -0.09263
0.27727 0.05339 -0.09379
0.27588 0.05283 -0.09499
0.27481 0.05256 -0.09653
0.27374 0.05244 -0.09831
0.27254 0.0522 -0.09993
0.27106 0.05175 -0.1012
0.26943 0.05113 -0.1022
0.28512 0.05648 -0.07763
0.28463 0.05666 -0.07964
0.2841 0.05674 -0.08166
0.28341 0.05671 -0.08362
0.28261 0.05664 -0.08552
0.28146 0.05631 -0.08724
0.28028 0.05596 -0.08876
0.27922 0.05567 -0.09031
0.27801 0.05524 -0.09173
0.2766 0.05471 -0.09304
0.27529 0.05421 -0.09432
0.2742 0.05391 -0.09585
0.27318 0.05367 -0.0975
0.27206 0.05354 -0.09921
0.27068 0.05322 -0.10067
0.26907 0.05263 -0.10185
0.28288 0.05819 -0.08298
0.28218 0.05819 -0.08495
0.2811 0.05792 -0.08674
0.27967 0.05737 -0.08807
0.27849 0.05701 -0.08956
0.27729 0.05659 -0.091
0.27599 0.05607 -0.09234
0.27481 0.05569 -0.09379
0.27366 0.05535 -0.09527
0.27256 0.05505 -0.09679
0.27143 0.0547 -0.09825
0.27003 0.05436 -0.09978
0.26846 0.05381 -0.10099
0.28036 0.05921 -0.08594
0.27903 0.05874 -0.08734
0.27791 0.05843 -0.0889
0.27667 0.05799 -0.09032
0.27535 0.05745 -0.09165
0.27427 0.05718 -0.09321
0.27318 0.05689 -0.09476
0.27195 0.05643 -0.09612
0.27073 0.05602 -0.09742
0.26941 0.05548 -0.09874
0.26782 0.05491 -0.09988
0.27719 0.0597 -0.08811
0.276 0.05932 -0.08958
0.2747 0.05881 -0.09094
0.27351 0.05842 -0.09237
0.27249 0.05821 -0.09401
0.27134 0.05787 -0.09542
0.27016 0.05748 -0.09678
0.2688 0.05691 -0.09802
0.26742 0.0563 -0.0992
0.27394 0.06003 -0.09011
0.27276 0.05966 -0.09156
0.27171 0.05945 -0.0931
0.27073 0.05935 -0.09475
0.26964 0.05904 -0.09623
0.26826 0.05848 -0.09749
0.26696 0.05797 -0.09881
0.27205 0.06096 -0.09074
0.27109 0.06085 -0.09237
0.27019 0.06081 -0.09411
0.26909 0.06055 -0.09563
0.26776 0.06005 -0.09696
0.26643 0.05955 -0.09829
0.26846 0.06201 -0.09496
0.26718 0.06157 -0.09636
0.26581 0.06102 -0.09765
POLYGONS 1032 4128
3 0 1 2
3 2 1 3
3 1 4 3
3 2 5 6
3 2 3 5
3 3 7 5
3 3 4 7
3 4 8 7
3 9 10 11
3 9 6 10
3 6 12 10
3 6 5 12
3 5 13 12
3 5 7 13
3 7 14 13
3 7 8 14
3 8 15 14
3 8 16 15
3 16 17 15
3 11 10 18
3 18 10 19
3 10 12 19
3 19 12 20
3 12 13 20
3 20 13 21
3 13 14 21
3 21 14 22
3 14 15 22
3 22 15 23
3 15 17 23
3 23 17 24
3 17 25 24
3 24 25 26
3 25 27 26
3 28 18 29
3 18 19 29
3 29 19 30
3 19 20 30
3 30 20 31
3 20 21 31
3 31 21 32
3 21 22 32
3 32 22 33
3 22 23 33
3 33 23 34
3 23 24 34
3 34 24 35
3 24 26 35
3 35 26 36
3 26 37 36
3 26 27 37
3 27 38 37
3 27 39 38
3 39 40 38
3 28 29 41
3 41 29 42
3 29 30 42
3 42 30 43
3 30 31 43
3 43 31 44
3 31 32 44
3 44 32 45
3 32 33 45
3 45 33 46
3 33 34 46
3 46 34 47
3 34 35 47
3 47 35 48
3 35 49 48
3 35 36 49
3 36 50 49
3 36 37 50
3 37 51 50
3 37 38 51
3 38 52 51
3 38 40 52
3 40 53 52
3 40 54 53
3 54 55 53
3 54 56 55
3 56 57 55
3 58 41 59
3 41 60 59
3 41 42 60
3 42 43 60
3 60 43 61
3 43 44 61
3 61 44 62
3 44 45 62
3 62 45 63
3 45 46 63
3 63 46 64
3 46 47 64
3 64 47 65
3 47 48 65
3 65 48 66
3 48 67 66
3 48 49 67
3 49 68 67
3 49 50 68
3 50 69 68
3 50 51 69
3 51 70 69
3 51 52 70
3 52 71 70
3 52 53 71
3 53 72 71
3 53 55 72
3 55 73 72
3 55 57 73
3 57 74 73
3 57 75 74
3 75 76 74
3 58 59 77
3 77 59 78
3 59 60 78
3 78 60 79
3 60 61 79
3 79 61 80
3 61 62 80
3 80 62 81
3 62 63 81
3 81 63 82
3 63 83 82
3 63 64 83
3 64 84 83
3 64 65 84
3 65 85 84
3 65 66 85
3 66 86 85
3 66 67 86
3 67 87 86
3 67 68 87
3 68 88 87
3 68 69 88
3 69 89 88
3 69 70 89
3 70 90 89
3 70 71 90
3 71 91 90
3 71 72 91
3 72 92 91
3 72 73 92
3 73 93 92
3 73 74 93
3 74 94 93
3 74 76 94
3 76 95 94
3 76 96 95
3 96 97 95
3 96 98 97
3 98 99 97
3 77 78 100
3 100 78 101
3 78 79 101
3 101 79 102
3 79 80 102
3 102 80 103
3 80 81 103
3 103 81 104
3 81 82 104
3 104 82 105
3 82 106 105
3 82 83 106
3 83 107 106
3 83 84 107
3 84 108 107
3 84 85 108
3 85 109 108
3 85 86 109
3 86 110 109
3 86 87 110
3 87 111 110
3 87 88 111
3 88 112 111
3 88 89 112
3 89 113 112
3 89 90 113
3 90 114 113
3 90 91 114
3 91 115 114
3 91 92 115
3 92 116 115
3 92 93 116
3 93 117 116
3 93 94 117
3 94 118 117
3 94 95 118
3 95 119 118
3 95 97 119
3 97 120 119
3 97 99 120
3 99 121 120
3 99 122 121
3 122 123 121
3 122 124 123
3 125 100 126
3 100 101 126
3 126 101 127
3 101 102 127
3 127 102 128
3 102 103 128
3 128 103 129
3 103 104 129
3 129 104 130
3 104 105 130
3 130 105 131
3 105 132 131
3 105 106 132
3 106 133 132
3 106 107 133
3 107 134 133
3 107 108 134
3 108 135 134
3 108 109 135
3 109 136 135
3 109 110 136
3 110 137 136
3 110 111 137
3 111 138 137
3 111 112 138
3 112 139 138
3 112 113 139
3 113 140 139
3 113 114 140
3 114 141 140
3 114 115 141
3 115 142 141
3 115 116 142
3 116 143 142
3 116 117 143
3 117 144 143
3 117 118 144
3 118 145 144
3 118 119 145
3 119 146 145
3 119 120 146
3 120 147 146
3 120 121 147
3 121 148 147
3 121 123 148
3 125 126 149
3 149 126 150
3 126 127 150
3 150 127 151
3 127 128 151
3 151 128 152
3 128 129 152
3 152 129 153
3 129 130 153
3 153 130 154
3 130 131 154
3 154 131 155
3 131 156 155
3 131 132 156
3 132 157 156
3 132 133 157
3 133 158 157
3 133 134 158
3 134 159 158
3 134 135 159
3 135 160 159
3 135 136 160
3 136 161 160
3 136 137 161
3 137 162 161
3 137 138 162
3 138 163 162
3 138 139 163
3 139 164 163
3 139 140 164
3 140 165 164
3 140 141 165
3 141 166 165
3 141 142 166
3 142 167 166
3 142 143 167
3 143 168 167
3 143 144 168
3 144 169 168
3 144 145 169
3 145 170 169
3 145 146 170
3 146 171 170
3 146 147 171
3 149 150 172
3 172 150 173
3 150 151 173
3 173 151 174
3 151 152 174
3 174 152 175
3 152 153 175
3 175 153 176
3 153 154 176
3 176 154 177
3 154 155 177
3 177 155 178
3 155 179 178
3 155 156 179
3 156 180 179
3 156 157 180
3 157 181 180
3 157 158 181
3 158 182 181
3 158 159 182
3 159 183 182
3 159 160 183
3 160 184 183
3 160 161 184
3 161 185 184
3 161 162 185
3 162 186 185
3 162 163 186
3 163 187 186
3 163 164 187
3 164 188 187
3 164 165 188
3 165 189 188
3 165 166 189
3 166 190 189
3 166 167 190
3 167 191 190
3 167 168 191
3 168 192 191
3 168 169 192
3 169 193 192
3 169 170 193
3 170 194 193
3 170 171 194
3 172 173 195
3 195 173 196
3 173 174 196
3 196 174 197
3 174 175 197
3 197 175 198
3 175 199 198
3 175 176 199
3 176 200 199
3 176 177 200
3 177 201 200
3 177 178 201
3 178 202 201
3 178 179 202
3 179 203 202
3 179 180 203
3 180 204 203
3 180 181 204
3 181 205 204
3 181 182 205
3 182 206 205
3 182 183 206
3 183 207 206
3 183 184 207
3 184 208 207
3 184 185 208
3 185 209 208
3 185 186 209
3 186 210 209
3 186 187 210
3 187 211 210
3 187 188 211
3 188 212 211
3 188 189 212
3 189 213 212
3 189 190 213
3 190 214 213
3 190 191 214
3 191 215 214
3 191 192 215
3 192 216 215
3 192 193 216
3 193 217 216
3 193 194 217
3 218 219 220
3 218 195 219
3 195 221 219
3 195 196 221
3 196 222 221
3 196 197 222
3 197 198 222
3 222 198 223
3 198 224 223
3 198 199 224
3 199 225 224
3 199 200 225
3 200 226 225
3 200 201 226
3 201 227 226
3 201 202 227
3 202 228 227
3 202 203 228
3 203 229 228
3 203 204 229
3 204 230 229
3 204 205 230
3 205 231 230
3 205 206 231
3 206 232 231
3 206 207 232
3 207 233 232
3 207 208 233
3 208 234 233
3 208 209 234
3 209 235 234
3 209 210 235
3 210 236 235
3 210 211 236
3 211 237 236
3 211 212 237
3 212 238 237
3 212 213 238
3 213 239 238
3 213 214 239
3 214 240 239
3 214 215 240
3 215 241 240
3 215 216 241
3 216 242 241
3 216 217 242
3 220 243 244
3 220 219 243
3 219 245 243
3 219 221 245
3 221 246 245
3 221 222 246
3 222 247 246
3 222 223 247
3 223 248 247
3 223 224 248
3 224 249 248
3 224 225 249
3 225 250 249
3 225 226 250
3 226 251 250
3 226 227 251
3 227 252 251
3 227 228 252
3 228 253 252
3 228 229 253
3 229 254 253
3 229 230 254
3 230 255 254
3 230 231 255
3 231 256 255
3 231 232 256
3 232 257 256
3 232 233 257
3 233 258 257
3 233 234 258
3 234 259 258
3 234 235 259
3 235 260 259
3 235 236 260
3 236 261 260
3 236 237 261
3 237 262 261
3 237 238 262
3 238 263 262
3 238 239 263
3 239 264 263
3 239 240 264
3 240 265 264
3 240 241 265
3 241 266 265
3 241 242 266
3 244 267 268
3 244 243 267
3 243 269 267
3 243 245 269
3 245 270 269
3 245 246 270
3 246 247 270
3 270 247 271
3 247 248 271
3 271 248 272
3 248 249 272
3 272 249 273
3 249 274 273
3 249 250 274
3 250 275 274
3 250 251 275
3 251 276 275
3 251 252 276
3 252 277 276
3 252 253 277
3 253 278 277
3 253 254 278
3 254 279 278
3 254 255 279
3 255 280 279
3 255 256 280
3 256 281 280
3 256 257 281
3 257 282 281
3 257 258 282
3 258 283 282
3 258 259 283
3 259 284 283
3 259 260 284
3 260 285 284
3 260 261 285
3 261 286 285
3 261 262 286
3 262 287 286
3 262 263 287
3 263 288 287
3 263 264 288
3 264 289 288
3 264 265 289
3 265 290 289
3 265 266 290
3 291 292 293
3 291 268 292
3 268 294 292
3 268 267 294
3 267 295 294
3 267 269 295
3 269 296 295
3 269 270 296
3 270 297 296
3 270 271 297
3 271 272 297
3 297 272 298
3 272 273 298
3 298 273 299
3 273 300 299
3 273 274 300
3 274 301 300
3 274 275 301
3 275 302 301
3 275 276 302
3 276 303 302
3 276 277 303
3 277 304 303
3 277 278 304
3 278 305 304
3 278 279 305
3 279 306 305
3 279 280 306
3 280 307 306
3 280 281 307
3 281 308 307
3 281 282 308
3 282 309 308
3 282 283 309
3 283 310 309
3 283 284 310
3 284 311 310
3 284 285 311
3 285 312 311
3 285 286 312
3 286 313 312
3 286 287 313
3 287 314 313
3 287 288 314
3 288 315 314
3 288 289 315
3 293 316 317
3 293 292 316
3 292 318 316
3 292 294 318
3 294 319 318
3 294 295 319
3 295 320 319
3 295 296 320
3 296 321 320
3 296 297 321
3 297 298 321
3 321 298 322
3 298 299 322
3 322 299 323
3 299 324 323
3 299 300 324
3 300 325 324
3 300 301 325
3 301 326 325
3 301 302 326
3 302 327 326
3 302 303 327
3 303 328 327
3 303 304 328
3 304 329 328
3 304 305 329
3 305 330 329
3 305 306 330
3 306 331 330
3 306 307 331
3 307 332 331
3 307 308 332
3 308 309 332
3 332 309 333
3 309 334 333
3 309 310 334
3 310 335 334
3 310 311 335
3 311 336 335
3 311 312 336
3 312 337 336
3 312 313 337
3 313 338 337
3 313 314 338
3 314 339 338
3 314 315 339
3 317 340 341
3 317 316 340
3 316 342 340
3 316 318 342
3 318 343 342
3 318 319 343
3 319 344 343
3 319 320 344
3 320 345 344
3 320 321 345
3 321 346 345
3 321 322 346
3 322 347 346
3 322 323 347
3 323 348 347
3 323 324 348
3 324 349 348
3 324 325 349
3 325 350 349
3 325 326 350
3 326 351 350
3 326 327 351
3 327 352 351
3 327 328 352
3 328 353 352
3 328 329 353
3 329 354 353
3 329 330 354
3 330 355 354
3 330 331 355
3 331 356 355
3 331 332 356
3 332 357 356
3 332 333 357
3 333 358 357
3 333 334 358
3 334 359 358
3 334 335 359
3 335 360 359
3 335 336 360
3 336 361 360
3 336 337 361
3 337 362 361
3 337 338 362
3 363 364 365
3 363 341 364
3 341 366 364
3 341 340 366
3 340 367 366
3 340 342 367
3 342 368 367
3 342 343 368
3 343 369 368
3 343 344 369
3 344 370 369
3 344 345 370
3 345 371 370
3 345 346 371
3 346 372 371
3 346 347 372
3 347 373 372
3 347 348 373
3 348 374 373
3 348 349 374
3 349 375 374
3 349 350 375
3 350 376 375
3 350 351 376
3 351 377 376
3 351 352 377
3 352 378 377
3 352 353 378
3 353 379 378
3 353 354 379
3 354 380 379
3 354 355 380
3 355 381 380
3 355 356 381
3 356 382 381
3 356 357 382
3 357 383 382
3 357 358 383
3 358 384 383
3 358 359 384
3 359 385 384
3 359 360 385
3 360 386 385
3 360 361 386
3 361 387 386
3 361 362 387
3 365 388 389
3 365 364 388
3 364 390 388
3 364 366 390
3 366 391 390
3 366 367 391
3 367 392 391
3 367 368 392
3 368 393 392
3 368 369 393
3 369 394 393
3 369 370 394
3 370 395 394
3 370 371 395
3 371 396 395
3 371 372 396
3 372 397 396
3 372 373 397
3 373 398 397
3 373 374 398
3 374 399 398
3 374 375 399
3 375 400 399
3 375 376 400
3 376 401 400
3 376 377 401
3 377 402 401
3 377 378 402
3 378 403 402
3 378 379 403
3 379 404 403
3 379 380 404
3 380 405 404
3 380 381 405
3 381 406 405
3 381 382 406
3 382 407 406
3 382 383 407
3 383 408 407
3 383 384 408
3 384 409 408
3 384 385 409
3 385 410 409
3 385 386 410
3 386 411 410
3 386 387 411
3 389 412 413
3 389 388 412
3 388 414 412
3 388 390 414
3 390 415 414
3 390 391 415
3 391 416 415
3 391 392 416
3 392 417 416
3 392 393 417
3 393 418 417
3 393 394 418
3 394 419 418
3 394 395 419
3 395 420 419
3 395 396 420
3 396 421 420
3 396 397 421
3 397 422 421
3 397 398 422
3 398 423 422
3 398 399 423
3 399 424 423
3 399 400 424
3 400 425 424
3 400 401 425
3 401 426 425
3 401 402 426
3 402 427 426
3 402 403 427
3 403 428 427
3 403 404 428
3 404 429 428
3 404 405 429
3 405 430 429
3 405 406 430
3 406 431 430
3 406 407 431
3 407 432 431
3 407 408 432
3 408 433 432
3 408 409 433
3 409 434 433
3 409 410 434
3 410 435 434
3 410 411 435
3 413 436 437
3 413 412 436
3 412 438 436
3 412 414 438
3 414 439 438
3 414 415 439
3 415 440 439
3 415 416 440
3 416 441 440
3 416 417 441
3 417 442 441
3 417 418 442
3 418 443 442
3 418 419 443
3 419 444 443
3 419 420 444
3 420 445 444
3 420 421 445
3 421 446 445
3 421 422 446
3 422 447 446
3 422 423 447
3 423 448 447
3 423 424 448
3 424 449 448
3 424 425 449
3 425 450 449
3 425 426 450
3 426 451 450
3 426 427 451
3 427 452 451
3 427 428 452
3 428 453 452
3 428 429 453
3 429 454 453
3 429 430 454
3 430 455 454
3 430 431 455
3 431 456 455
3 431 432 456
3 432 457 456
3 432 433 457
3 433 458 457
3 433 434 458
3 434 459 458
3 434 435 459
3 436 438 460
3 438 461 460
3 438 439 461
3 439 462 461
3 439 440 462
3 440 463 462
3 440 441 463
3 441 464 463
3 441 442 464
3 442 465 464
3 442 443 465
3 443 466 465
3 443 444 466
3 444 467 466
3 444 445 467
3 445 468 467
3 445 446 468
3 446 469 468
3 446 447 469
3 447 470 469
3 447 448 470
3 448 471 470
3 448 449 471
3 449 472 471
3 449 450 472
3 450 473 472
3 450 451 473
3 451 474 473
3 451 452 474
3 452 475 474
3 452 453 475
3 453 476 475
3 453 454 476
3 454 477 476
3 454 455 477
3 455 478 477
3 455 456 478
3 456 479 478
3 456 457 479
3 457 480 479
3 457 458 480
3 458 481 480
3 458 459 481
3 463 464 482
3 464 483 482
3 464 465 483
3 465 484 483
3 465 466 484
3 466 485 484
3 466 467 485
3 467 486 485
3 467 468 486
3 468 487 486
3 468 469 487
3 469 488 487
3 469 470 488
3 470 489 488
3 470 471 489
3 471 490 489
3 471 472 490
3 472 491 490
3 472 473 491
3 473 492 491
3 473 474 492
3 474 493 492
3 474 475 493
3 475 494 493
3 475 476 494
3 476 495 494
3 476 477 495
3 477 496 495
3 477 478 496
3 478 497 496
3 478 479 497
3 479 498 497
3 479 480 498
3 480 499 498
3 480 481 499
3 483 484 500
3 484 501 500
3 484 485 501
3 485 502 501
3 485 486 502
3 486 503 502
3 486 487 503
3 487 504 503
3 487 488 504
3 488 505 504
3 488 489 505
3 489 506 505
3 489 490 506
3 490 507 506
3 490 491 507
3 491 508 507
3 491 492 508
3 492 509 508
3 492 493 509
3 493 510 509
3 493 494 510
3 494 511 510
3 494 495 511
3 495 512 511
3 495 496 512
3 496 513 512
3 496 497 513
3 497 514 513
3 497 498 514
3 498 515 514
3 498 499 515
3 502 503 516
3 503 517 516
3 503 504 517
3 504 518 517
3 504 505 518
3 505 519 518
3 505 506 519
3 506 520 519
3 506 507 520
3 507 521 520
3 507 508 521
3 508 522 521
3 508 509 522
3 509 523 522
3 509 510 523
3 510 524 523
3 510 511 524
3 511 525 524
3 511 512 525
3 512 526 525
3 512 513 526
3 513 527 526
3 513 514 527
3 514 528 527
3 514 515 528
3 517 518 529
3 518 530 529
3 518 519 530
3 519 531 530
3 519 520 531
3 520 532 531
3 520 521 532
3 521 533 532
3 521 522 533
3 522 534 533
3 522 523 534
3 523 535 534
3 523 524 535
3 524 536 535
3 524 525 536
3 525 537 536
3 525 526 537
3 526 538 537
3 526 527 538
3 527 539 538
3 527 528 539
3 530 531 540
3 531 541 540
3 531 532 541
3 532 542 541
3 532 533 542
3 533 543 542
3 533 534 543
3 534 544 543
3 534 535 544
3 535 545 544
3 535 536 545
3 536 546 545
3 536 537 546
3 537 547 546
3 537 538 547
3 538 548 547
3 538 539 548
3 541 542 549
3 542 550 549
3 542 543 550
3 543 551 550
3 543 544 551
3 544 552 551
3 544 545 552
3 545 553 552
3 545 546 553
3 546 554 553
3 546 547 554
3 547 555 554
3 547 548 555
3 549 550 556
3 550 557 556
3 550 551 557
3 551 558 557
3 551 552 558
3 552 559 558
3 552 553 559
3 553 560 559
3 553 554 560
3 554 561 560
3 554 555 561
3 558 559 562
3 559 563 562
3 559 560 563
3 560 564 563
3 560 561 564

CELL_DATA 1032
SCALARS longitude float 1
LOOKUP_TABLE default
2.759999990463257
2.853879928588867
2.8337900638580322
3.1838300228118896
3.066279888153076
3.1550800800323486
3.037869930267334
3.122999906539917
3.537569999694824
3.4197499752044678
3.5045299530029297
3.3880999088287354
3.4767301082611084
3.361259937286377
3.4457900524139404
3.3247199058532715
3.4044299125671387
3.283639907836914
3.3621699810028076
3.753230094909668
3.851840019226074
3.7211899757385254
3.821660041809082
3.6939198970794678
3.79229998588562
3.6599600315093994
3.757240056991577
3.6230900287628174
3.722330093383789
3.582390069961548
3.6792900562286377
3.53902006149292
3.641940116882324
3.6146700382232666
4.208970069885254
4.079850196838379
4.178609848022461
4.051030158996582
4.150609970092773
4.019589900970459
4.117300033569336
3.9874000549316406
4.0878801345825195
3.9570000171661377
4.056429862976074
3.918610095977783
4.019899845123291
3.883510112762451
3.9906198978424072
3.9644699096679688
3.830319881439209
3.914330005645752
3.789289951324463
3.885119915008545
4.435490131378174
4.532619953155518
4.404819965362549
4.506710052490234
4.379899978637695
4.484720230102539
4.353089809417725
4.455999851226807
4.3207502365112305
4.424749851226807
4.291289806365967
4.3961100578308105
4.2625298500061035
4.369999885559082
4.350490093231201
4.222819805145264
4.313429832458496
4.181230068206787
4.2669901847839355
4.134250164031982
4.2211198806762695
4.097040176391602
4.19428014755249
4.079639911651611
4.177840232849121
4.0627899169921875
4.16146993637085
4.887819766998291
4.870279788970947
4.751309871673584
4.733650207519531
4.837090015411377
4.71481990814209
4.818140029907227
4.690959930419922
4.79302978515625
4.662049770355225
4.768740177154541
4.636250019073486
4.744619846343994
4.611979961395264
4.717090129852295
4.697969913482666
4.5735602378845215
4.665359973907471
4.53292989730835
4.620570182800293
4.4868597984313965
4.5744500160217285
4.441440105438232
4.528800010681152
4.405700206756592
4.5046000480651855
4.391369819641113
4.492159843444824
4.377270221710205
4.479129791259766
4.363239765167236
4.465700149536133
5.110340118408203
5.207749843597412
5.084479808807373
5.187320232391357
5.0651397705078125
5.16949987411499
5.044769763946533
5.146900177001953
5.022389888763428
5.13247013092041
5.128230094909668
5.003859996795654
5.105860233306885
4.978789806365967
5.07820987701416
4.948649883270264
5.048270225524902
4.921639919281006
5.021140098571777
4.8892598152160645
4.9814300537109375
4.845210075378418
4.934189796447754
4.79709005355835
4.888060092926025
4.752699851989746
4.845749855041504
4.720729827880859
4.826459884643555
4.711100101470947
4.818019866943359
4.700940132141113
4.807199954986572
4.687849998474121
4.7932000160217285
4.6750102043151855
4.778429985046387
4.6598100662231445
4.7635297775268555
5.4296698570251465
5.528409957885742
5.4093499183654785
5.513740062713623
5.396049976348877
5.499800205230713
5.375490188598633
5.485459804534912
5.3670501708984375
5.485589981079102
5.480070114135742
5.357250213623047
5.458330154418945
5.3313798904418945
5.426529884338379
5.300320148468018
5.39749002456665
5.274899959564209
5.37293004989624
5.2457098960876465
5.339200019836426
5.206789970397949
5.296929836273193
5.160530090332031
5.251989841461182
5.116529941558838
5.210579872131348
5.075119972229004
5.170979976654053
5.047329902648926
5.156129837036133
5.04217004776001
5.148349761962891
5.030439853668213
5.133419990539551
5.015530109405518
5.1160101890563965
4.997039794921875
5.098639965057373
4.983719825744629
5.087220191955566
4.971549987792969
5.074059963226318
4.956719875335693
5.872250080108643
5.751619815826416
5.852220058441162
5.733349800109863
5.842820167541504
5.726940155029297
5.841189861297607
5.724180221557617
5.840909957885742
5.720930099487305
5.834720134735107
5.8273701667785645
5.708079814910889
5.804699897766113
5.67786979675293
5.766749858856201
5.642350196838379
5.736820220947266
5.6180901527404785
5.71373987197876
5.591050148010254
5.685629844665527
5.560959815979004
5.6528401374816895
5.521259784698486
5.614699840545654
5.481840133666992
5.574810028076172
5.439000129699707
5.53154993057251
5.398930072784424
5.494289875030518
5.375100135803223
5.478700160980225
5.365869998931885
5.465710163116455
5.351180076599121
5.449429988861084
5.33213996887207
5.435259819030762
5.320720195770264
5.426179885864258
5.307620048522949
5.413519859313965
5.295670032501221
6.089179992675781
6.187749862670898
6.0713701248168945
6.172929763793945
6.063069820404053
6.182250022888184
6.0762200355529785
6.197740077972412
6.079649925231934
6.197400093078613
6.072569847106934
6.191070079803467
6.179679870605469
6.053969860076904
6.147960186004639
6.017970085144043
6.104919910430908
5.980510234832764
6.075469970703125
5.956150054931641
6.055200099945068
5.9314398765563965
6.029789924621582
5.906660079956055
6.007619857788086
5.878530025482178
5.975039958953857
5.842850208282471
5.935800075531006
5.800600051879883
5.888150215148926
5.754809856414795
5.8461198806762695
5.718130111694336
5.810959815979004
5.690730094909668
5.790520191192627
5.678369998931885
5.779409885406494
5.665040016174316
5.771860122680664
5.65939998626709
5.7707600593566895
5.652100086212158
6.403450012207031
6.502749919891357
6.388490200042725
6.504660129547119
6.407949924468994
6.546860218048096
6.442619800567627
6.57204008102417
6.44497013092041
6.572120189666748
6.442969799041748
6.568739891052246
6.550559997558594
6.413549900054932
6.501880168914795
6.361790180206299
6.448390007019043
6.32144021987915
6.420720100402832
6.299170017242432
6.404550075531006
6.279890060424805
6.384850025177002
6.258530139923096
6.364130020141602
6.236380100250244
6.336949825286865
6.2047200202941895
6.2977800369262695
6.161019802093506
6.250679969787598
6.112939834594727
6.205160140991211
6.071599960327148
6.170979976654053
6.0383501052856445
6.1333699226379395
6.005859851837158
6.111820220947266
5.997560024261475
6.106969833374023
5.995639801025391
6.110919952392578
5.998479843139648
6.721749782562256
6.8303399085998535
6.727350234985352
6.853219985961914
6.769219875335693
6.903200149536133
6.932139873504639
6.819990158081055
6.9436798095703125
6.8226799964904785
6.9352498054504395
6.810060024261475
6.903860092163086
6.7743401527404785
6.855589866638184
6.720029830932617
6.804190158843994
6.672659873962402
6.773670196533203
6.648709774017334
6.757609844207764
6.634990215301514
6.744699954986572
6.619229793548584
6.725249767303467
6.596459865570068
6.698669910430908
6.566919803619385
6.66372013092041
6.526860237121582
6.621150016784668
6.481790065765381
6.579410076141357
6.4405598640441895
6.543389797210693
6.407410144805908
6.509069919586182
6.367710113525391
6.461009979248047
6.332670211791992
6.4411702156066895
6.3297200202941895
6.441619873046875
6.33411979675293
7.185739994049072
7.069079875946045
7.166100025177002
7.0563201904296875
7.177159786224365
7.076819896697998
7.105830192565918
7.2296600341796875
7.258959770202637
7.163949966430664
7.2853899002075195
7.177259922027588
7.28380012512207
7.162769794464111
7.249050140380859
7.115340232849121
7.201230049133301
7.0710601806640625
7.162899971008301
7.031620025634766
7.133039951324463
7.0066399574279785
7.116549968719482
6.9924798011779785
7.103010177612305
6.977839946746826
7.084310054779053
6.957180023193359
7.060150146484375
6.9304399490356445
7.034299850463867
6.899409770965576
7.003950119018555
6.862669944763184
6.9682297706604
6.824399948120117
6.928040027618408
6.785880088806152
6.884669780731201
6.743810176849365
6.838240146636963
6.6967902183532715
6.793819904327393
6.66657018661499
6.781290054321289
6.667809963226318
7.508890151977539
7.39369010925293
7.501920223236084
7.390970230102539
7.509669780731201
7.405550003051758
7.536220073699951
7.441569805145264
7.577310085296631
7.484379768371582
7.615779876708984
7.511929988861084
7.626520156860352
7.506619930267334
7.602940082550049
7.466469764709473
7.554840087890625
7.4233598709106445
7.521999835968018
7.391679763793945
7.494269847869873
7.366909980773926
7.476799964904785
7.352829933166504
7.46304988861084
7.337299823760986
7.444049835205078
7.316229820251465
7.423019886016846
7.294079780578613
7.404160022735596
7.2741498947143555
7.387380123138428
7.252150058746338
7.360209941864014
7.217609882354736
7.317359924316406
7.171529769897461
7.265900135040283
7.121099948883057
7.218050003051758
7.0760498046875
7.183010101318359
7.042270183563232
7.150740146636963
7.01708984375
7.845330238342285
7.730500221252441
7.8420000076293945
7.72868013381958
7.849050045013428
7.74098014831543
7.759099960327148
7.877910137176514
7.790840148925781
7.916979789733887
7.835050106048584
7.963520050048828
7.974090099334717
7.853710174560547
7.9500298500061035
7.819250106811523
7.910170078277588
7.782350063323975
7.884640216827393
7.755849838256836
7.862659931182861
7.73144006729126
7.841660022735596
7.714369773864746
7.8241400718688965
7.696770191192627
7.807380199432373
7.6804399490356445
7.7931599617004395
7.663589954376221
7.779789924621582
7.649310111999512
7.767970085144043
7.636040210723877
7.748720169067383
7.608160018920898
7.708040237426758
7.559820175170898
7.653890132904053
7.505760192871094
7.603899955749512
7.460999965667725
7.570310115814209
7.434340000152588
7.541600227355957
7.398739814758301
8.17199993133545
8.064729690551758
8.185199737548828
8.073690414428711
8.192179679870605
8.075369834899902
8.197090148925781
8.084050178527832
8.2114896774292
8.100959777832031
8.126440048217773
8.258819580078125
8.177849769592285
8.308950424194336
8.329350471496582
8.209030151367188
8.313409805297852
8.174880027770996
8.273139953613281
8.139289855957031
8.248120307922363
8.121339797973633
8.230879783630371
8.100990295410156
8.207850456237793
8.079719543457031
8.189410209655762
8.06110954284668
8.174209594726562
8.047880172729492
8.167519569396973
8.039790153503418
8.160699844360352
8.03030014038086
8.152970314025879
8.021129608154297
8.135290145874023
7.994870185852051
8.095430374145508
7.949190139770508
8.042550086975098
7.895440101623535
7.992599964141846
7.84915018081665
7.951729774475098
7.81574010848999
8.500399589538574
8.39618968963623
8.518939971923828
8.415180206298828
8.54028034210205
8.428770065307617
8.550999641418457
8.436030387878418
8.562870025634766
8.45125961303711
8.473210334777832
8.605179786682129
8.521940231323242
8.6528902053833
8.671680450439453
8.561260223388672
8.674690246582031
8.547229766845703
8.647879600524902
8.51233959197998
8.616809844970703
8.486359596252441
8.596110343933105
8.46737003326416
8.577309608459473
8.447660446166992
8.561209678649902
8.431099891662598
8.550140380859375
8.421540260314941
8.546649932861328
8.418959617614746
8.416099548339844
8.543580055236816
8.537960052490234
8.405969619750977
8.517860412597656
8.378979682922363
8.476510047912598
8.333370208740234
8.429089546203613
8.284509658813477
8.38224983215332
8.237460136413574
8.337089538574219
8.19480037689209
8.821829795837402
8.721400260925293
8.840840339660645
8.74252986907959
8.866430282592773
8.76791000366211
8.891429901123047
8.785989761352539
8.912360191345215
8.804129600524902
8.937800407409668
8.834589958190918
8.971850395202637
8.873279571533203
9.003609657287598
8.899820327758789
9.0172700881958
8.902600288391113
9.011659622192383
8.884469985961914
8.988309860229492
8.856200218200684
8.964329719543457
8.83467960357666
8.949239730834961
8.820630073547363
8.938220024108887
8.808489799499512
8.928919792175293
8.800680160522461
8.925470352172852
8.799989700317383
8.926959991455078
8.800470352172852
8.918510437011719
8.786430358886719
8.892180442810059
8.75549030303955
8.853899955749512
8.713789939880371
8.813050270080566
8.671520233154297
8.773730278015137
8.629059791564941
9.074520111083984
8.997480392456055
9.102860450744629
9.023090362548828
9.125749588012695
9.043990135192871
9.149789810180664
9.070599555969238
9.182250022888184
9.101670265197754
9.217459678649902
9.13364028930664
9.249870300292969
9.162280082702637
9.278400421142578
9.1912202835083
9.309269905090332
9.220330238342285
9.333189964294434
9.23406982421875
9.337340354919434
9.229729652404785
9.327890396118164
9.213809967041016
9.31132984161377
9.194069862365723
9.292460441589355
9.177350044250488
9.279399871826172
9.168959617614746
9.271160125732422
9.160920143127441
9.263079643249512
9.155890464782715
9.257439613342285
9.154020309448242
9.248459815979004
9.139559745788574
9.22305965423584
9.107879638671875
9.191069602966309
9.073960304260254
9.157279968261719
9.036629676818848
9.117639541625977
8.996379852294922
9.336770057678223
9.258990287780762
9.37045955657959
9.291390419006348
9.402310371398926
9.316479682922363
9.426549911499023
9.34164047241211
9.457189559936523
9.37697982788086
9.500329971313477
9.421420097351074
9.544879913330078
9.457169532775879
9.576169967651367
9.484990119934082
9.606450080871582
9.517930030822754
9.634610176086426
9.538849830627441
9.644729614257812
9.542340278625488
9.645219802856445
9.538379669189453
9.640279769897461
9.527339935302734
9.62537956237793
9.507710456848145
9.60431957244873
9.491089820861816
9.591679573059082
9.482170104980469
9.580619812011719
9.47173023223877
9.56902027130127
9.46187973022461
9.555439949035645
9.445460319519043
9.534819602966309
9.42136001586914
9.509949684143066
9.394880294799805
9.479640007019043
9.359149932861328
9.434670448303223
9.313770294189453
9.6033296585083
9.526949882507324
9.644929885864258
9.56624984741211
9.684309959411621
9.599479675292969
9.713529586791992
9.626460075378418
9.743499755859375
9.659139633178711
9.787639617919922
9.709070205688477
9.84097957611084
9.755780220031738
9.880149841308594
9.78827953338623
9.90839958190918
9.817760467529297
9.933199882507324
9.83860969543457
9.94480037689209
9.846710205078125
9.95145034790039
9.852339744567871
9.957539558410645
9.852350234985352
9.952560424804688
9.838540077209473
9.935409545898438
9.818860054016113
9.915809631347656
9.801870346069336
9.89717960357666
9.785429954528809
9.878510475158691
9.770959854125977
9.865079879760742
9.756710052490234
9.854299545288086
9.742440223693848
9.839529991149902
9.720529556274414
9.806730270385742
9.680890083312988
9.749870300292969
9.62405014038086
9.86277961730957
9.795940399169922
9.916970252990723
9.842329978942871
9.960909843444824
9.881569862365723
10.004199981689453
9.921039581298828
10.048199653625488
9.957839965820312
10.090900421142578
10.00510025024414
10.13949966430664
10.053999900817871
10.18220043182373
10.093600273132324
10.218400001525879
10.125100135803223
10.243000030517578
10.141799926757812
10.251299858093262
10.14900016784668
10.258099555969238
10.158599853515625
10.269100189208984
10.167200088500977
10.275099754333496
10.165800094604492
10.268500328063965
10.152199745178223
10.248900413513184
10.12909984588623
10.216899871826172
10.098899841308594
10.183699607849121
10.074999809265137
10.163900375366211
10.061599731445312
10.162799835205078
10.063899993896484
10.168899536132812
10.056400299072266
10.139200210571289
10.008500099182129
10.065400123596191
9.932499885559082
10.111900329589844
10.230600357055664
10.15429973602295
10.284099578857422
10.213299751281738
10.356399536132812
10.274499893188477
10.409199714660645
10.315999984741211
10.44480037689209
10.354100227355957
10.48490047454834
10.398599624633789
10.529800415039062
10.438300132751465
10.559399604797363
10.45740032196045
10.56779956817627
10.463000297546387
10.572699546813965
10.470100402832031
10.580400466918945
10.478899955749512
10.58810043334961
10.486200332641602
10.59469985961914
10.486300468444824
10.583600044250488
10.462499618530273
10.539799690246582
10.413999557495117
10.483599662780762
10.371299743652344
10.4552001953125
10.356499671936035
10.455100059509277
10.363699913024902
10.466099739074707
10.370200157165527
10.44849967956543
10.329999923706055
10.377300262451172
10.243399620056152
10.625499725341797
10.745800018310547
10.65820026397705
10.785200119018555
10.70259952545166
10.835599899291992
10.749199867248535
10.87090015411377
10.772500038146973
10.884699821472168
10.781999588012695
10.893099784851074
10.788599967956543
10.894499778747559
10.788800239562988
10.892900466918945
10.793600082397461
10.898099899291992
10.80090045928955
10.89210033416748
10.783100128173828
10.847700119018555
10.7253999710083
10.780900001525879
10.664899826049805
10.739700317382812
10.64229965209961
10.740099906921387
10.65149974822998
10.749600410461426
10.655500411987305
10.737700462341309
10.62660026550293
10.6875
10.55679988861084
10.997699737548828
11.127900123596191
11.048299789428711
11.172900199890137
11.08180046081543
11.198200225830078
11.099499702453613
11.215399742126465
11.111800193786621
11.216899871826172
11.104100227355957
11.19950008392334
11.093999862670898
11.187700271606445
11.090999603271484
11.17140007019043
11.069600105285645
11.131999969482422
11.019100189208984
11.075699806213379
10.959799766540527
11.03439998626709
10.93019962310791
11.021699905395508
10.928899765014648
11.030799865722656
10.9399995803833
11.032899856567383
10.924699783325195
10.999600410461426
10.873600006103516
11.411100387573242
11.53030014038086
11.433300018310547
11.542400360107422
11.42959976196289
11.51609992980957
11.398799896240234
11.484100341796875
11.378399848937988
11.459600448608398
11.349300384521484
11.418700218200684
11.303299903869629
11.375800132751465
11.261300086975098
11.343199729919434
11.2322998046875
11.32509994506836
11.218700408935547
11.309000015258789
11.213800430297852
11.302900314331055
11.212699890136719
11.27970027923584
11.174799919128418
11.739800453186035
11.818499565124512
11.707599639892578
11.784500122070312
11.678199768066406
11.760000228881836
11.647100448608398
11.719099998474121
11.601099967956543
11.681699752807617
11.571800231933594
11.66510009765625
11.55109977722168
11.64009952545166
11.524999618530273
11.61050033569336
11.500900268554688
11.57349967956543
11.470600128173828
11.534799575805664
11.434100151062012
11.971799850463867
12.052399635314941
11.946800231933594
12.017000198364258
11.902199745178223
11.975199699401855
11.872599601745605
11.963700294494629
11.866000175476074
11.95359992980957
11.841699600219727
11.924200057983398
11.807999610900879
11.885199546813965
11.760199546813965
11.826199531555176
11.703800201416016
12.191100120544434
12.26039981842041
12.159299850463867
12.24530029296875
12.152099609375
12.254799842834473
12.154000282287598
12.251399993896484
12.133500099182129
12.21969985961914
12.087599754333496
12.16759967803955
12.031299591064453
12.442500114440918
12.539400100708008
12.443400382995605
12.558699607849121
12.463299751281738
12.576499938964844
12.465399742126465
12.55720043182373
12.429400444030762
12.512299537658691
12.382699966430664
12.790300369262695
12.887999534606934
12.765999794006348
12.848600387573242
12.722599983215332
SCALARS latitude float 1
LOOKUP_TABLE default
-15.317099571228027
-15.45009994506836
-15.69629955291748
-15.344799995422363
-15.463000297546387
-15.712599754333496
-15.831600189208984
-16.08530044555664
-14.968000411987305
-15.096799850463867
-15.353500366210938
-15.475700378417969
-15.727800369262695
-15.846500396728516
-16.10059928894043
-16.220399856567383
-16.476200103759766
-16.596399307250977
-16.854799270629883
-14.98009967803955
-15.121999740600586
-15.366600036621094
-15.509400367736816
-15.748299598693848
-15.89229965209961
-16.125699996948242
-16.266399383544922
-16.497100830078125
-16.634199142456055
-16.87179946899414
-17.013500213623047
-17.25320053100586
-17.390399932861328
-17.63479995727539
-14.758500099182129
-15.012499809265137
-15.155599594116211
-15.407699584960938
-15.553099632263184
-15.798500061035156
-15.94279956817627
-16.177099227905273
-16.314199447631836
-16.540700912475586
-16.676700592041016
-16.91200065612793
-17.05139923095703
-17.290000915527344
-17.426799774169922
-17.66830062866211
-17.77589988708496
-18.016300201416016
-18.133699417114258
-18.381099700927734
-14.643899917602539
-14.785599708557129
-15.043299674987793
-15.184499740600586
-15.44219970703125
-15.587599754333496
-15.842499732971191
-15.984399795532227
-16.221599578857422
-16.356800079345703
-16.585399627685547
-16.718599319458008
-16.949499130249023
-17.07939910888672
-17.32830047607422
-17.44930076599121
-17.701499938964844
-17.806900024414062
-18.043699264526367
-18.145599365234375
-18.381999969482422
-18.500099182128906
-18.75670051574707
-18.891199111938477
-19.146699905395508
-19.273399353027344
-19.52239990234375
-14.416299819946289
-14.675600051879883
-14.801400184631348
-15.066800117492676
-15.205100059509277
-15.468400001525879
-15.610799789428711
-15.871700286865234
-16.012500762939453
-16.260000228881836
-16.3966007232666
-16.626399993896484
-16.75629997253418
-16.978599548339844
-17.104400634765625
-17.347400665283203
-17.470399856567383
-17.728599548339844
-17.83880043029785
-18.07659912109375
-18.17609977722168
-18.410600662231445
-18.51449966430664
-18.756399154663086
-18.880399703979492
-19.133899688720703
-19.26580047607422
-19.51289939880371
-19.642799377441406
-19.893400192260742
-20.025699615478516
-20.283599853515625
-14.304900169372559
-14.440400123596191
-14.691699981689453
-14.836700439453125
-15.092399597167969
-15.235899925231934
-15.49120044708252
-15.63700008392334
-15.897199630737305
-16.034799575805664
-16.290300369262695
-16.414199829101562
-16.65920066833496
-16.7716007232666
-17.005399703979492
-17.115999221801758
-17.359800338745117
-17.485300064086914
-17.740299224853516
-17.860599517822266
-18.1033992767334
-18.209299087524414
-18.436100006103516
-18.537900924682617
-18.76740074157715
-18.881999969482422
-19.11440086364746
-19.242300033569336
-19.488100051879883
-19.626800537109375
-19.87969970703125
-20.016300201416016
-20.27239990234375
-20.407400131225586
-20.65570068359375
-20.788999557495117
-21.023500442504883
-21.15570068359375
-21.391599655151367
-14.328499794006348
-14.464099884033203
-14.720999717712402
-14.8641996383667
-15.12339973449707
-15.264900207519531
-15.523200035095215
-15.660300254821777
-15.911700248718262
-16.03969955444336
-16.291000366210938
-16.41860008239746
-16.66010093688965
-16.776899337768555
-17.00429916381836
-17.12019920349121
-17.355100631713867
-17.483999252319336
-17.729799270629883
-17.860599517822266
-18.100799560546875
-18.22330093383789
-18.444900512695312
-18.55190086364746
-18.768699645996094
-18.88249969482422
-19.108699798583984
-19.22599983215332
-19.46190071105957
-19.59600067138672
-19.85300064086914
-19.99799919128418
-20.250600814819336
-20.388599395751953
-20.626800537109375
-20.75909996032715
-20.983200073242188
-21.11440086364746
-21.34980010986328
-21.494600296020508
-21.74489974975586
-21.89080047607422
-22.13990020751953
-22.278099060058594
-14.104399681091309
-14.355199813842773
-14.493499755859375
-14.745599746704102
-14.892499923706055
-15.15250015258789
-15.292099952697754
-15.541500091552734
-15.66919994354248
-15.916199684143066
-16.044099807739258
-16.295299530029297
-16.418899536132812
-16.6564998626709
-16.77039909362793
-16.993999481201172
-17.11090087890625
-17.34079933166504
-17.468900680541992
-17.70490074157715
-17.83690071105957
-18.070600509643555
-18.203800201416016
-18.42690086364746
-18.545499801635742
-18.763700485229492
-18.879899978637695
-19.103599548339844
-19.218599319458008
-19.44659996032715
-19.572500228881836
-19.81089973449707
-19.957199096679688
-20.19890022277832
-20.34749984741211
-20.573200225830078
-20.71470069885254
-20.938499450683594
-21.074800491333008
-21.316600799560547
-21.46030044555664
-21.71809959411621
-21.857799530029297
-22.110599517822266
-22.24679946899414
-13.988300323486328
-14.127699851989746
-14.382200241088867
-14.517800331115723
-14.776100158691406
-14.913299560546875
-15.168999671936035
-15.301600456237793
-15.552200317382812
-15.683799743652344
-15.92870044708252
-16.066099166870117
-16.30970001220703
-16.423799514770508
-16.652999877929688
-16.762500762939453
-16.97800064086914
-17.095600128173828
-17.320199966430664
-17.448400497436523
-17.677900314331055
-17.80620002746582
-18.035200119018555
-18.167499542236328
-18.398300170898438
-18.52440071105957
-18.74970054626465
-18.87030029296875
-19.090700149536133
-19.207799911499023
-19.421600341796875
-19.545400619506836
-19.769699096679688
-19.90920066833496
-20.136199951171875
-20.279699325561523
-20.510099411010742
-20.65519905090332
-20.891000747680664
-21.032800674438477
-21.288700103759766
-21.436199188232422
-21.70210075378418
-21.840299606323242
-14.008899688720703
-14.149700164794922
-14.40429973602295
-14.527999877929688
-14.778900146484375
-14.908699989318848
-15.175399780273438
-15.308099746704102
-15.565699577331543
-15.69480037689209
-15.950400352478027
-16.082300186157227
-16.314199447631836
-16.42609977722168
-16.635099411010742
-16.74810028076172
-16.952600479125977
-17.072900772094727
-17.295900344848633
-17.425500869750977
-17.659400939941406
-17.783599853515625
-18.01849937438965
-18.141799926757812
-18.38089942932129
-18.50510025024414
-18.738000869750977
-18.85650062561035
-19.076799392700195
-19.190399169921875
-19.404699325561523
-19.518800735473633
-19.742000579833984
-19.868999481201172
-20.103599548339844
-20.231199264526367
-20.461999893188477
-20.597400665283203
-20.840099334716797
-20.98859977722168
-21.23889923095703
-21.397199630737305
-21.65530014038086
-21.812700271606445
-14.03439998626709
-14.163800239562988
-14.402999877929688
-14.513699531555176
-14.768899917602539
-14.898099899291992
-15.166099548339844
-15.304100036621094
-15.561699867248535
-15.69480037689209
-15.941100120544434
-16.07309913635254
-16.295000076293945
-16.409799575805664
-16.611299514770508
-16.724700927734375
-16.935100555419922
-17.04990005493164
-17.27910041809082
-17.404699325561523
-17.64590072631836
-17.77090072631836
-18.01110076904297
-18.13450050354004
-18.3705997467041
-18.49370002746582
-18.725400924682617
-18.845600128173828
-19.069700241088867
-19.18239974975586
-19.40399932861328
-19.512699127197266
-19.73940086364746
-19.85449981689453
-20.090299606323242
-20.212299346923828
-20.447799682617188
-20.569900512695312
-20.79800033569336
-20.93269920349121
-21.171199798583984
-21.32900047302246
-21.57110023498535
-21.739099502563477
-13.631799697875977
-13.768699645996094
-14.020999908447266
-14.150300025939941
-14.373600006103516
-14.49779987335205
-14.746299743652344
-14.872300148010254
-15.139800071716309
-15.282299995422363
-15.534199714660645
-15.675700187683105
-15.919300079345703
-16.051700592041016
-16.271499633789062
-16.38290023803711
-16.59320068359375
-16.70669937133789
-16.924400329589844
-17.039199829101562
-17.26930046081543
-17.39430046081543
-17.63599967956543
-17.76180076599121
-18.001300811767578
-18.125499725341797
-18.36009979248047
-18.481800079345703
-18.712400436401367
-18.83289909362793
-19.068300247192383
-19.184900283813477
-19.4242000579834
-19.530500411987305
-19.767200469970703
-19.86750030517578
-20.09939956665039
-20.20709991455078
-20.437000274658203
-20.555700302124023
-20.779199600219727
-20.89929962158203
-21.12540054321289
-21.26259994506836
-21.502399444580078
-21.653200149536133
-13.622699737548828
-13.755900382995605
-13.990400314331055
-14.118300437927246
-14.339599609375
-14.465499877929688
-14.700900077819824
-14.848600387573242
-15.104000091552734
-15.250499725341797
-15.501899719238281
-15.64330005645752
-15.890999794006348
-16.025699615478516
-16.2539005279541
-16.36750030517578
-16.579700469970703
-16.694000244140625
-16.91510009765625
-17.03179931640625
-17.2637996673584
-17.38640022277832
-17.627399444580078
-17.75189971923828
-17.991600036621094
-18.11520004272461
-18.34910011291504
-18.469900131225586
-18.702699661254883
-18.82349967956543
-19.06559944152832
-19.189899444580078
-19.44230079650879
-19.559999465942383
-19.799299240112305
-19.90019989013672
-20.11910057067871
-20.218000411987305
-20.42930030822754
-20.540599822998047
-20.758899688720703
-20.878700256347656
-21.114299774169922
-21.240800857543945
-21.47879981994629
-21.603300094604492
-13.597299575805664
-13.73069953918457
-13.961600303649902
-14.088000297546387
-14.31190013885498
-14.435600280761719
-14.683099746704102
-14.809800148010254
-15.083399772644043
-15.210100173950195
-15.4822998046875
-15.608699798583984
-15.866800308227539
-16.000699996948242
-16.230300903320312
-16.34910011291504
-16.564300537109375
-16.681400299072266
-16.909099578857422
-17.028400421142578
-17.265899658203125
-17.384700775146484
-17.624399185180664
-17.74449920654297
-17.98419952392578
-18.10689926147461
-18.346599578857422
-18.465299606323242
-18.703399658203125
-18.820100784301758
-19.066600799560547
-19.191299438476562
-19.443899154663086
-19.57069969177246
-19.809799194335938
-19.920799255371094
-20.133100509643555
-20.23040008544922
-20.43269920349121
-20.532699584960938
-20.747499465942383
-20.862300872802734
-21.101900100708008
-21.233999252319336
-21.478200912475586
-21.596399307250977
-13.199299812316895
-13.332599639892578
-13.568900108337402
-13.701499938964844
-13.933899879455566
-14.060500144958496
-14.288100242614746
-14.413200378417969
-14.654999732971191
-14.79520034790039
-15.061400413513184
-15.186400413513184
-15.461299896240234
-15.585100173950195
-15.844499588012695
-15.97920036315918
-16.215200424194336
-16.332500457763672
-16.55699920654297
-16.67009925842285
-16.905099868774414
-17.027000427246094
-17.26740074157715
-17.386999130249023
-17.624300003051758
-17.742900848388672
-17.982500076293945
-18.103700637817383
-18.344999313354492
-18.465200424194336
-18.707399368286133
-18.826900482177734
-19.073299407958984
-19.196300506591797
-19.449399948120117
-19.572399139404297
-19.811500549316406
-19.922300338745117
-20.13450050354004
-20.23430061340332
-20.432300567626953
-20.53339958190918
-20.740999221801758
-20.855100631713867
-21.08639907836914
-21.218399047851562
-13.166799545288086
-13.301199913024902
-13.536100387573242
-13.67039966583252
-13.902199745178223
-14.032999992370605
-14.261500358581543
-14.390000343322754
-14.633299827575684
-14.773099899291992
-15.03849983215332
-15.160499572753906
-15.43220043182373
-15.550299644470215
-15.810199737548828
-15.951700210571289
-16.193300247192383
-16.322099685668945
-16.554399490356445
-16.671899795532227
-16.903600692749023
-17.023700714111328
-17.26300048828125
-17.38479995727539
-17.623699188232422
-17.743499755859375
-17.9822998046875
-18.102699279785156
-18.341100692749023
-18.462200164794922
-18.705900192260742
-18.830900192260742
-19.07819938659668
-19.20949935913086
-19.4552001953125
-19.57430076599121
-19.803699493408203
-19.918100357055664
-20.122100830078125
-20.227800369262695
-20.42799949645996
-20.53260040283203
-20.747900009155273
-20.855100631713867
-21.085899353027344
-21.20319938659668
-13.133000373840332
-13.267499923706055
-13.500800132751465
-13.634900093078613
-13.86709976196289
-14.000100135803223
-14.232600212097168
-14.363200187683105
-14.603799819946289
-14.745400428771973
-14.99489974975586
-15.13640022277832
-15.38230037689209
-15.524399757385254
-15.770999908447266
-15.913900375366211
-16.159500122070312
-16.297300338745117
-16.538799285888672
-16.66699981689453
-16.902299880981445
-17.021299362182617
-17.259599685668945
-17.381200790405273
-17.622400283813477
-17.743099212646484
-17.98200035095215
-18.101499557495117
-18.337299346923828
-18.456499099731445
-18.69930076599121
-18.827499389648438
-19.07859992980957
-19.210500717163086
-19.444400787353516
-19.5664005279541
-19.776899337768555
-19.895299911499023
-20.098100662231445
-20.210599899291992
-20.424400329589844
-20.535999298095703
-20.76460075378418
-20.87179946899414
-12.697500228881836
-12.848999977111816
-13.061800003051758
-13.214200019836426
-13.428299903869629
-13.580400466918945
-13.794699668884277
-13.94729995727539
-14.159700393676758
-14.312100410461426
-14.53439998626709
-14.695599555969238
-14.923800468444824
-15.081700325012207
-15.310600280761719
-15.46969985961914
-15.698800086975098
-15.857999801635742
-16.087499618530273
-16.246200561523438
-16.472299575805664
-16.627099990844727
-16.84939956665039
-16.996200561523438
-17.214599609375
-17.358999252319336
-17.574100494384766
-17.715900421142578
-17.927600860595703
-18.07309913635254
-18.282800674438477
-18.427600860595703
-18.63990020751953
-18.792400360107422
-19.00670051574707
-19.16469955444336
-19.366300582885742
-19.51420021057129
-19.700000762939453
-19.84079933166504
-20.03510093688965
-20.173999786376953
-20.37820053100586
-20.516000747680664
-20.72439956665039
-20.861400604248047
-12.605799674987793
-12.758000373840332
-12.970499992370605
-13.12279987335205
-13.335700035095215
-13.488800048828125
-13.700699806213379
-13.854599952697754
-14.064599990844727
-14.21720027923584
-14.43649959564209
-14.601400375366211
-14.832599639892578
-14.993900299072266
-15.221199989318848
-15.380000114440918
-15.607600212097168
-15.767200469970703
-15.995599746704102
-16.15679931640625
-16.383100509643555
-16.54010009765625
-16.763399124145508
-16.917800903320312
-17.13960075378418
-17.289499282836914
-17.500200271606445
-17.640399932861328
-17.844900131225586
-17.990100860595703
-18.199600219726562
-18.34670066833496
-18.55500030517578
-18.703399658203125
-18.91069984436035
-19.061599731445312
-19.26219940185547
-19.409000396728516
-19.607900619506836
-19.750999450683594
-19.95870018005371
-20.101900100708008
-20.31060028076172
-20.447900772094727
-20.642799377441406
-20.781400680541992
-12.51550006866455
-12.666399955749512
-12.878399848937988
-13.03030014038086
-13.241100311279297
-13.39430046081543
-13.605299949645996
-13.758700370788574
-13.967700004577637
-14.11970043182373
-14.338700294494629
-14.502799987792969
-14.73330020904541
-14.898300170898438
-15.128000259399414
-15.28969955444336
-15.51609992980957
-15.675200462341309
-15.902600288391113
-16.063499450683594
-16.290199279785156
-16.448699951171875
-16.672199249267578
-16.82979965209961
-17.052799224853516
-17.208099365234375
-17.422399520874023
-17.564599990844727
-17.768800735473633
-17.908899307250977
-18.11370086669922
-18.25909996032715
-18.464799880981445
-18.61370086669922
-18.813499450683594
-18.962099075317383
-19.1648006439209
-19.31399917602539
-19.52869987487793
-19.67569923400879
-19.898399353027344
-20.03820037841797
-20.246700286865234
-20.375900268554688
-20.55590057373047
-20.68560028076172
-12.423500061035156
-12.576000213623047
-12.785400390625
-12.936800003051758
-13.145400047302246
-13.297800064086914
-13.505900382995605
-13.660200119018555
-13.867799758911133
-14.021900177001953
-14.239100456237793
-14.403900146484375
-14.633099555969238
-14.798600196838379
-15.028400421142578
-15.192899703979492
-15.422699928283691
-15.584199905395508
-15.811699867248535
-15.971099853515625
-16.197900772094727
-16.356199264526367
-16.58049964904785
-16.737899780273438
-16.962200164794922
-17.119400024414062
-17.338499069213867
-17.486099243164062
-17.695899963378906
-17.83639907836914
-18.0408992767334
-18.1781005859375
-18.37649917602539
-18.517799377441406
-18.714099884033203
-18.86090087890625
-19.061199188232422
-19.21649932861328
-19.438100814819336
-19.60110092163086
-19.834400177001953
-19.984699249267578
-20.18630027770996
-20.3085994720459
-20.466299057006836
-20.58449935913086
-12.843799591064453
-13.053199768066406
-13.203499794006348
-13.409799575805664
-13.559700012207031
-13.762800216674805
-13.916399955749512
-14.134499549865723
-14.303099632263184
-14.533100128173828
-14.69849967956543
-14.929800033569336
-15.094200134277344
-15.32450008392334
-15.48840045928955
-15.716099739074707
-15.877900123596191
-16.103099822998047
-16.263700485229492
-16.486900329589844
-16.645299911499023
-16.868600845336914
-17.027999877929688
-17.247600555419922
-17.400800704956055
-17.61639976501465
-17.763900756835938
-17.968799591064453
-18.105300903320312
-18.295400619506836
-18.429399490356445
-18.613000869750977
-18.75629997253418
-18.952800750732422
-19.11090087890625
-19.32670021057129
-19.498600006103516
-19.72209930419922
-19.894899368286133
-20.08650016784668
-20.227800369262695
-20.372499465942383
-20.48870086669922
-14.197600364685059
-14.43220043182373
-14.599100112915039
-14.828800201416016
-14.994099617004395
-15.223099708557129
-15.389100074768066
-15.616800308227539
-15.779899597167969
-16.006799697875977
-16.16819953918457
-16.394800186157227
-16.552900314331055
-16.775699615478516
-16.933000564575195
-17.149499893188477
-17.30470085144043
-17.514799118041992
-17.67340087890625
-17.873199462890625
-18.02120018005371
-18.201200485229492
-18.339000701904297
-18.51129913330078
-18.65130043029785
-18.837600708007812
-18.995899200439453
-19.207399368286133
-19.380199432373047
-19.595500946044922
-19.765600204467773
-19.960800170898438
-20.109100341796875
-20.275699615478516
-20.39780044555664
-14.891900062561035
-15.118300437927246
-15.28439998626709
-15.512800216674805
-15.679300308227539
-15.907299995422363
-16.071699142456055
-16.298900604248047
-16.460500717163086
-16.684099197387695
-16.841299057006836
-17.051700592041016
-17.202699661254883
-17.403099060058594
-17.560100555419922
-17.75149917602539
-17.906099319458008
-18.085500717163086
-18.23270034790039
-18.405500411987305
-18.546300888061523
-18.732099533081055
-18.883399963378906
-19.089099884033203
-19.25480079650879
-19.472200393676758
-19.640199661254883
-19.846599578857422
-19.997299194335938
-20.188800811767578
-20.318899154663086
-15.969300270080566
-16.19809913635254
-16.363300323486328
-16.58989906311035
-16.74920082092285
-16.95509910583496
-17.10059928894043
-17.29450035095215
-17.44610023498535
-17.636899948120117
-17.785400390625
-17.970300674438477
-18.115800857543945
-18.3031005859375
-18.445600509643555
-18.638599395751953
-18.784400939941406
-18.98819923400879
-19.141599655151367
-19.34320068359375
-19.508100509643555
-19.711999893188477
-19.882600784301758
-20.069000244140625
-20.22450065612793
-16.64620018005371
-16.846799850463867
-16.99650001525879
-17.185300827026367
-17.337799072265625
-17.529499053955078
-17.677099227905273
-17.86370086669922
-18.008399963378906
-18.200700759887695
-18.34980010986328
-18.55109977722168
-18.697399139404297
-18.895700454711914
-19.040800094604492
-19.230899810791016
-19.3799991607666
-19.564699172973633
-19.73189926147461
-19.909400939941406
-20.075899124145508
-17.224700927734375
-17.416500091552734
-17.56879997253418
-17.7539005279541
-17.901199340820312
-18.087099075317383
-18.241899490356445
-18.440799713134766
-18.600900650024414
-18.793399810791016
-18.9419002532959
-19.12619972229004
-19.270099639892578
-19.451499938964844
-19.59709930419922
-19.776899337768555
-19.922000885009766
-17.78510093688965
-17.968700408935547
-18.123300552368164
-18.312999725341797
-18.475799560546875
-18.674699783325195
-18.832199096679688
-19.024200439453125
-19.169599533081055
-19.35930061340332
-19.497299194335938
-19.68910026550293
-19.822999954223633
-17.999000549316406
-18.1914005279541
-18.350799560546875
-18.55500030517578
-18.71619987487793
-18.921199798583984
-19.071699142456055
-19.267200469970703
-19.409400939941406
-19.60300064086914
-19.744600296020508
-18.968799591064453
-19.167299270629883
-19.315200805664062
-19.50790023803711
-19.653499603271484
