# vtk DataFile Version 3.0
SHAPE_sfm_50k_v20200323
ASCII
DATASET POLYDATA
POINTS 701 float
0.10827088 0.081769764 0.17540935
0.10827088 0.08201909 0.17526951
0.10777134 0.08201909 0.17540935
0.10323089 0.08440989 0.17540935
0.10323089 0.08537912 0.17497393
0.10179645 0.08537912 0.17540935
0.09987092 0.08696717 0.17540935
0.09987092 0.08705914 0.17536667
0.09977603 0.08705914 0.17540935
0.0981909 0.088686585 0.17540935
0.0981909 0.0887391 0.17538264
0.098132014 0.0887391 0.17540935
0.09987092 0.0887391 0.17461023
0.10155088 0.08555639 0.17540935
0.10155088 0.08705914 0.17473325
0.10323089 0.08705914 0.17418495
0.10155088 0.0887391 0.17394921
0.10214496 0.0887391 0.17372933
0.10323089 0.087984085 0.17372933
0.10491091 0.0835678 0.17540935
0.10491091 0.08369911 0.17534938
0.10463673 0.08369911 0.17540935
0.10659087 0.08369911 0.17492357
0.10659087 0.08265555 0.17540935
0.10491091 0.08537912 0.1745539
0.10659087 0.08537912 0.17414394
0.10827088 0.08369911 0.17456701
0.1099509 0.08201909 0.17482725
0.1099509 0.08369911 0.17416605
0.10827088 0.08537912 0.17394045
0.10926068 0.08537912 0.17372933
0.1099509 0.084893405 0.17372933
0.104887664 0.08705914 0.17372933
0.10491091 0.08704686 0.17372933
0.10659087 0.086152315 0.17372933
0.10827088 0.08575714 0.17372933
0.08139092 0.09854025 0.17540935
0.08139092 0.09881914 0.17487463
0.08034092 0.09881914 0.17540935
0.083070874 0.09881914 0.17422566
0.083070874 0.09828377 0.17540935
0.080827236 0.10049909 0.17372933
0.08139092 0.10015184 0.17372933
0.083070874 0.099544585 0.17372933
0.090087235 0.0954591 0.17372933
0.0914709 0.0954591 0.17224512
0.08979088 0.096232116 0.17204937
0.08979088 0.09565008 0.17372933
0.0921976 0.0954591 0.17204937
0.0914709 0.0956229 0.17204937
0.0981909 0.09103167 0.17372933
0.09651089 0.09209913 0.17356297
0.09651089 0.09193343 0.17372933
0.09987092 0.09021491 0.17372933
0.09987092 0.09041911 0.17358896
0.09948087 0.09041911 0.17372933
0.0981909 0.09209913 0.17285869
0.09987092 0.09209913 0.17225978
0.10155088 0.09041911 0.17304334
0.10155088 0.08916336 0.17372933
0.10323089 0.0887391 0.1733326
0.10092974 0.09209913 0.17204937
0.10155088 0.091946304 0.17204937
0.10323089 0.09041911 0.17239782
0.0981909 0.093034685 0.17204937
0.09651089 0.093735754 0.17204937
0.09987092 0.09232944 0.17204937
0.08475089 0.10217911 0.17254099
0.08475089 0.10294646 0.17204937
0.083070874 0.10303891 0.17204937
0.083070874 0.10217911 0.1725575
0.0855726 0.10217911 0.17204937
0.09651089 0.08091557 0.18044934
0.09483087 0.08201909 0.18035719
0.09483087 0.08188999 0.18044934
0.09466064 0.08201909 0.18044934
0.08979088 0.086978555 0.18044934
0.08979088 0.08705914 0.18039843
0.089722216 0.08705914 0.18044934
0.09651089 0.08201909 0.17967048
0.088585675 0.0887391 0.18044934
0.08979088 0.0887391 0.1795092
0.0914709 0.08509487 0.18044934
0.0914709 0.08537912 0.18024424
0.091211975 0.08537912 0.18044934
0.09315091 0.08332163 0.18044934
0.09315091 0.08369911 0.18016127
0.09277308 0.08369911 0.18044934
0.09315091 0.08537912 0.17904356
0.09483087 0.08369911 0.17926428
0.096247315 0.08369911 0.17876932
0.09651089 0.08355242 0.17876932
0.09373999 0.08537912 0.17876932
0.09483087 0.084580064 0.17876932
0.0914709 0.08705914 0.17916742
0.09315091 0.08586317 0.17876932
0.09206116 0.08705914 0.17876932
0.09077674 0.0887391 0.17876932
0.0914709 0.08774501 0.17876932
0.10155088 0.07792482 0.18044934
0.10155088 0.07865912 0.17989674
0.10052693 0.07865912 0.18044934
0.10323089 0.07690564 0.18044934
0.10323089 0.0769791 0.18038908
0.10309607 0.0769791 0.18044934
0.10323089 0.07865912 0.17906561
0.0981909 0.08013314 0.18044934
0.0981909 0.080339134 0.18028906
0.09774411 0.080339134 0.18044934
0.09987092 0.080339134 0.17954955
0.09987092 0.079128206 0.18044934
0.0981909 0.08201909 0.17915687
0.09915644 0.08201909 0.17876932
0.09987092 0.08149046 0.17876932
0.10155088 0.080156386 0.17876932
0.10130185 0.080339134 0.17876932
0.10323089 0.07904577 0.17876932
0.10491091 0.0769791 0.17971084
0.10391414 0.07865912 0.17876932
0.10491091 0.07814193 0.17876932
0.0981909 0.082657754 0.17876932
0.088110864 0.081626296 0.18548933
0.088110864 0.08201909 0.18514237
0.08764541 0.08201909 0.18548933
0.08979088 0.08029556 0.18548933
0.08979088 0.080339134 0.1854473
0.08973527 0.080339134 0.18548933
0.08979088 0.08201909 0.18400922
0.09315091 0.077721655 0.18548933
0.09315091 0.07865912 0.18447039
0.09188563 0.07865912 0.18548933
0.09483087 0.07647607 0.18548933
0.09651089 0.0769791 0.18396989
0.09483087 0.0769791 0.18505529
0.09419364 0.0769791 0.18548933
0.09606469 0.075299114 0.18548933
0.09651089 0.075299114 0.18518272
0.09411049 0.07865912 0.18380937
0.09483087 0.07822597 0.18380937
0.09651089 0.077165276 0.18380937
0.0914709 0.078973114 0.18548933
0.0914709 0.080339134 0.18415329
0.09189463 0.080339134 0.18380937
0.09315091 0.0792976 0.18380937
0.09008294 0.08201909 0.18380937
0.0914709 0.080742 0.18380937
0.08643091 0.08314645 0.18548933
0.08643091 0.08369911 0.1850293
0.085894406 0.08369911 0.18548933
0.08487272 0.08537912 0.18548933
0.08643091 0.08532345 0.18380937
0.08638704 0.08537912 0.18380937
0.088110864 0.08369911 0.18382248
0.08979088 0.08228588 0.18380937
0.08813131 0.08369911 0.18380937
0.088110864 0.083715975 0.18380937
0.08475089 0.08564502 0.18548933
0.085538805 0.08705914 0.18380937
0.08475089 0.08705914 0.1847091
0.08402294 0.08705914 0.18548933
0.083070874 0.088101625 0.18548933
0.08475089 0.0887391 0.18401846
0.083070874 0.0887391 0.18503866
0.08501607 0.0887391 0.18380937
0.0981909 0.075299114 0.18413052
0.0981909 0.07578084 0.18380937
0.09676629 0.0769791 0.18380937
0.098816335 0.075299114 0.18380937
0.09483087 0.08808249 0.17708936
0.09483087 0.0887391 0.17674515
0.09384167 0.0887391 0.17708936
0.09651089 0.086878 0.17708936
0.09651089 0.08705914 0.17699811
0.09628099 0.08705914 0.17708936
0.09651089 0.0887391 0.17611304
0.10323089 0.08129853 0.17708936
0.10323089 0.08201909 0.17661569
0.10214186 0.08201909 0.17708936
0.10659087 0.07987094 0.17708936
0.10659087 0.080339134 0.17677829
0.10533202 0.080339134 0.17708936
0.10491091 0.08201909 0.1761525
0.10491091 0.080504894 0.17708936
0.10827088 0.080339134 0.17631784
0.10659087 0.08201909 0.17574868
0.0981909 0.085374236 0.17708936
0.0981909 0.08537912 0.17708632
0.098184645 0.08537912 0.17708936
0.09987092 0.08403629 0.17708936
0.09987092 0.08537912 0.17623928
0.10155088 0.08249241 0.17708936
0.10155088 0.08369911 0.17636564
0.100241184 0.08369911 0.17708936
0.10323089 0.08369911 0.17574349
0.10155088 0.08537912 0.17549887
0.0981909 0.08705914 0.17616698
0.07635087 0.09603298 0.18044934
0.078030884 0.09565425 0.18044934
0.078030884 0.09713912 0.1787968
0.0797109 0.095889926 0.18044934
0.0797109 0.09732473 0.17876932
0.0797109 0.09713912 0.17902729
0.08132541 0.09713912 0.18044934
0.08139092 0.097920716 0.17876932
0.078030884 0.09716421 0.17876932
0.083070874 0.09822279 0.17876932
0.083070874 0.097966194 0.18044934
0.08139092 0.097206175 0.18044934
0.0797109 0.087056994 0.18716934
0.0797109 0.08705914 0.18716773
0.07970339 0.08705914 0.18716934
0.078030884 0.08779347 0.18716934
0.078030884 0.0887391 0.18668339
0.07694483 0.0887391 0.18716934
0.0797109 0.0887391 0.18607739
0.08139092 0.0865702 0.18716934
0.083070874 0.085775316 0.18716934
0.083070874 0.08705914 0.18619356
0.08139092 0.08705914 0.18680725
0.08139092 0.0887391 0.18574402
0.08212596 0.0887391 0.18548933
0.07635087 0.086565614 0.18884936
0.07635087 0.08705914 0.18850574
0.07584602 0.08705914 0.18884936
0.078030884 0.08536863 0.18884936
0.078030884 0.08537912 0.18884173
0.07801312 0.08537912 0.18884936
0.0797109 0.08474678 0.18884936
0.07635087 0.0887391 0.18750504
0.074732125 0.0887391 0.18884936
0.08139092 0.08413255 0.18884936
0.0797109 0.08537912 0.1884158
0.08139092 0.08537912 0.18804684
0.083070874 0.08271307 0.18884936
0.083070874 0.08369911 0.18823388
0.08198595 0.08369911 0.18884936
0.083070874 0.08537912 0.18743303
0.078030884 0.08705914 0.18762782
0.0914709 0.0887391 0.178283
0.0914709 0.09041911 0.17757514
0.0901435 0.09041911 0.17876932
0.09212279 0.09041911 0.17708936
0.09017193 0.09209913 0.17876932
0.0914709 0.09158653 0.17708936
0.09129983 0.09209913 0.17708936
0.09315091 0.08924776 0.17708936
0.09315091 0.0887391 0.17735472
0.09109169 0.09377909 0.17708936
0.09081173 0.0954591 0.17708936
0.090504885 0.0954591 0.17876932
0.09044021 0.09377909 0.17876932
0.08643091 0.0974707 0.17876932
0.08475089 0.09801102 0.17708936
0.08475089 0.097970605 0.17876932
0.08643091 0.097562015 0.17708936
0.083070874 0.09820986 0.17708936
0.08979088 0.09656674 0.17876932
0.08979088 0.096542 0.17708936
0.088110864 0.09713912 0.17861858
0.088110864 0.09710318 0.17708936
0.0879845 0.09713912 0.17708936
0.088169575 0.09713912 0.17876932
0.088110864 0.09715086 0.17876932
0.09315091 0.093578935 0.17372933
0.09315091 0.09377909 0.17353758
0.09271914 0.09377909 0.17372933
0.0961988 0.09209913 0.17372933
0.09315091 0.095265746 0.17204937
0.0914709 0.09448266 0.17372933
0.09483087 0.09286845 0.17372933
0.09483087 0.09377909 0.1729491
0.09644216 0.09377909 0.17204937
0.08643091 0.09713912 0.17295083
0.08643091 0.09881914 0.17211917
0.08496851 0.09881914 0.17372933
0.08643091 0.096713364 0.17372933
0.08564407 0.09713912 0.17372933
0.09483087 0.09470838 0.17204937
0.088110864 0.09632558 0.17372933
0.088110864 0.09686744 0.17204937
0.08758962 0.09713912 0.17204937
0.0864799 0.09881914 0.17204937
0.08643091 0.09922391 0.17204937
0.08628541 0.10049909 0.17204937
0.08475089 0.10049909 0.17340782
0.08475089 0.099298 0.17372933
0.083070874 0.10049909 0.17341068
0.083070874 0.08201909 0.1892201
0.08374125 0.08201909 0.18884936
0.072990894 0.0887391 0.190281
0.072990894 0.09041911 0.19018307
0.07251167 0.0887391 0.19052932
0.07467091 0.0887391 0.18891045
0.07467091 0.089443445 0.18884936
0.07460934 0.09041911 0.18884936
0.0742296 0.09209913 0.18884936
0.088110864 0.09966123 0.17036936
0.088110864 0.10049909 0.17001602
0.08741063 0.10049909 0.17036936
0.08979088 0.09836483 0.17036936
0.08979088 0.09881914 0.17007974
0.08905268 0.09881914 0.17036936
0.088110864 0.10217911 0.1692228
0.08651984 0.10217911 0.17036936
0.08979088 0.10049909 0.16921952
0.08904266 0.10217911 0.16868934
0.08979088 0.10148215 0.16868934
0.0914709 0.09765911 0.17036936
0.09282392 0.09713912 0.17036936
0.0914709 0.09881914 0.16946736
0.09315091 0.09702605 0.17036936
0.09315091 0.09713912 0.17026803
0.09483087 0.09713912 0.16981134
0.09483087 0.09651047 0.17036936
0.09315091 0.09881914 0.16890755
0.09651089 0.09593195 0.17036936
0.09068245 0.10049909 0.16868934
0.0914709 0.09986329 0.16868934
0.08643091 0.10236704 0.17036936
0.08643091 0.10385913 0.16912237
0.08572227 0.10385913 0.17036936
0.088110864 0.10277629 0.16868934
0.0867216 0.10385913 0.16868934
0.08643091 0.10416907 0.16868934
0.08808291 0.09041911 0.18044934
0.088110864 0.09041911 0.18042687
0.088110864 0.091410816 0.18044934
0.08840543 0.09209913 0.18044934
0.08979088 0.09209913 0.17922297
0.08979088 0.09041911 0.1790823
0.088110864 0.09017843 0.18044934
0.08979088 0.09377909 0.17969158
0.08904654 0.09377909 0.18044934
0.08979088 0.0954591 0.17963931
0.088909626 0.0954591 0.18044934
0.08475089 0.097743034 0.18044934
0.08643091 0.097251 0.18044934
0.088110864 0.0964843 0.18044934
0.086778164 0.09713912 0.18044934
0.088110864 0.09713912 0.17883822
0.08643091 0.09041911 0.18188676
0.08643091 0.09209913 0.1816437
0.086170495 0.09041911 0.18212935
0.08643091 0.08949685 0.18212935
0.088110864 0.0887391 0.1808354
0.08559239 0.09209913 0.18212935
0.088110864 0.09209913 0.18065014
0.08475089 0.09296906 0.18212935
0.083070874 0.09377909 0.18190268
0.083070874 0.0933305 0.18212935
0.08475089 0.09377909 0.18185863
0.086670816 0.0887391 0.18212935
0.083070874 0.0954591 0.18150201
0.08643091 0.09377909 0.18164209
0.08643091 0.0954591 0.18201616
0.08475089 0.0954591 0.1818575
0.088110864 0.09377909 0.18104842
0.088110864 0.0954591 0.18105122
0.08475089 0.09713912 0.18139467
0.08643091 0.09713912 0.18082789
0.083070874 0.09713912 0.18121323
0.083070874 0.07915419 0.19052932
0.083070874 0.080339134 0.18999097
0.08169544 0.080339134 0.19052932
0.08139092 0.080663264 0.19052932
0.08139092 0.08201909 0.18996629
0.08011782 0.08201909 0.19052932
0.072990894 0.088223875 0.19052932
0.07467091 0.085828066 0.19052932
0.07467091 0.08705914 0.1897563
0.073842704 0.08705914 0.19052932
0.07635087 0.08537912 0.18971029
0.07635087 0.084257305 0.19052932
0.07508463 0.08537912 0.19052932
0.078030884 0.083223045 0.19052932
0.078030884 0.08369911 0.19014183
0.077195585 0.08369911 0.19052932
0.0797109 0.08369911 0.18958744
0.0797109 0.08230871 0.19052932
0.08139092 0.08369911 0.18910941
0.09315091 0.09041911 0.17644921
0.09315091 0.091756344 0.17540935
0.09273857 0.09209913 0.17540935
0.09483087 0.09041911 0.17586175
0.0914709 0.09209913 0.17685392
0.09483087 0.091132104 0.17540935
0.0914709 0.09377909 0.17568657
0.09595436 0.09041911 0.17540935
0.09651089 0.08998865 0.17540935
0.0914709 0.09394425 0.17540935
0.09055823 0.0954591 0.17540935
0.08475089 0.09791577 0.17540935
0.0915457 0.09377909 0.17540935
0.08979088 0.09611833 0.17540935
0.088110864 0.0968349 0.17540935
0.08643091 0.09734249 0.17540935
0.087124646 0.09713912 0.17540935
0.07635087 0.0898146 0.18716934
0.07635087 0.09041911 0.18692902
0.075982094 0.09041911 0.18716934
0.07467091 0.09206021 0.18716934
0.07467091 0.09209913 0.18693206
0.07462549 0.09209913 0.18716934
0.07635087 0.09156418 0.18548933
0.07518059 0.09209913 0.18548933
0.078030884 0.09041911 0.18567452
0.07467091 0.09234244 0.18548933
0.07833505 0.09041911 0.18548933
0.078030884 0.090599775 0.18548933
0.08139092 0.089148164 0.18548933
0.0797109 0.08962464 0.18548933
0.0797109 0.098207235 0.17708936
0.08139092 0.098279595 0.17708936
0.0981909 0.09041911 0.17423025
0.09651089 0.09041911 0.17512205
0.08668637 0.07193911 0.19388935
0.08643091 0.07193911 0.1942114
0.088110864 0.07068223 0.19388935
0.088110864 0.070259124 0.19421616
0.08862609 0.070259124 0.19388935
0.08643091 0.072197616 0.19388935
0.07635087 0.09264529 0.18380937
0.07467091 0.09377909 0.18374166
0.07467091 0.093711615 0.18380937
0.07635087 0.09377909 0.18271008
0.07459146 0.09377909 0.18380937
0.0797109 0.09209913 0.18362334
0.078030884 0.09209913 0.18371776
0.0797109 0.0918833 0.18380937
0.08139092 0.09209913 0.18345007
0.078030884 0.09199321 0.18380937
0.07769042 0.09209913 0.18380937
0.07842052 0.09377909 0.18212935
0.0797109 0.0936054 0.18212935
0.078030884 0.09377909 0.18219891
0.083070874 0.09209913 0.18309006
0.083070874 0.09118211 0.18380937
0.08139092 0.09173328 0.18380937
0.08139092 0.093483984 0.18212935
0.078030884 0.093853176 0.18212935
0.07635087 0.094358325 0.18212935
0.08475089 0.089325786 0.18380937
0.08643091 0.0887391 0.18238792
0.08475089 0.09209913 0.18262258
0.08475089 0.09041911 0.18338796
0.08403242 0.09041911 0.18380937
0.09651089 0.080339134 0.18092653
0.09483087 0.080339134 0.18171838
0.09651089 0.079030335 0.18212935
0.09483087 0.07989663 0.18212935
0.094154954 0.080339134 0.18212935
0.09315091 0.08117926 0.18212935
0.09315091 0.08201909 0.18147138
0.09234244 0.08201909 0.18212935
0.088110864 0.086217225 0.18212935
0.088110864 0.08705914 0.18161765
0.08741009 0.08705914 0.18212935
0.08979088 0.08460921 0.18212935
0.08979088 0.08537912 0.18155208
0.08896583 0.08537912 0.18212935
0.0914709 0.08369911 0.18153945
0.0914709 0.082954824 0.18212935
0.09073442 0.08369911 0.18212935
0.0981909 0.0780887 0.18212935
0.09981388 0.0769791 0.18212935
0.09987092 0.07865912 0.18080387
0.0981909 0.07865912 0.18166861
0.097224474 0.07865912 0.18212935
0.09987092 0.076940954 0.18212935
0.09987092 0.0769791 0.1820989
0.10155088 0.0769791 0.18121311
0.10323089 0.075299114 0.18181846
0.10258883 0.075299114 0.18212935
0.10155088 0.075921625 0.18212935
0.10155088 0.07372379 0.18380937
0.10172975 0.07361913 0.18380937
0.10155088 0.075299114 0.18263546
0.09987092 0.07461029 0.18380937
0.09987092 0.075299114 0.18332687
0.07635087 0.0954591 0.18100467
0.078030884 0.0954591 0.1806421
0.0797109 0.0954591 0.18077847
0.0797109 0.09377909 0.18198648
0.08139092 0.09377909 0.18193093
0.08139092 0.0954591 0.1810889
0.08139092 0.09713912 0.18049654
0.09651089 0.07481933 0.18548933
0.09782845 0.07361913 0.18548933
0.0981909 0.07361913 0.18528971
0.09987092 0.07361913 0.18456647
0.0981909 0.07336271 0.18548933
0.09987092 0.07246795 0.18548933
0.10155088 0.07361913 0.18389001
0.0797109 0.09881914 0.17579982
0.0797109 0.09905118 0.17540935
0.09315091 0.09209913 0.17510274
0.09483087 0.09209913 0.1745049
0.08643091 0.09713912 0.17536792
0.08475089 0.09881914 0.17386809
0.09315091 0.08705914 0.17818889
0.09483087 0.08705914 0.17760333
0.09651089 0.08537912 0.17781511
0.09483087 0.08537912 0.178381
0.09651089 0.08369911 0.17868641
0.10155088 0.08201909 0.1774126
0.09987092 0.08201909 0.17842469
0.10323089 0.080339134 0.17780933
0.10155088 0.080339134 0.1786305
0.10491091 0.07865912 0.17839351
0.10659087 0.07865912 0.17791912
0.10491091 0.080339134 0.17720607
0.09987092 0.08369911 0.1773164
0.0981909 0.08369911 0.17812338
0.07635087 0.09209913 0.18458584
0.0797109 0.09041911 0.18490115
0.08139092 0.09041911 0.18471566
0.083070874 0.09041911 0.18421713
0.09483087 0.07361913 0.18764791
0.09483087 0.07193911 0.188692
0.09651089 0.07242048 0.18716934
0.095350325 0.07361913 0.18716934
0.09315091 0.07517192 0.18884936
0.09413695 0.075299114 0.18716934
0.09315091 0.075299114 0.18880448
0.09651089 0.07193911 0.18755266
0.09353405 0.07361913 0.18884936
0.09483087 0.07429844 0.18716934
0.09483087 0.07172522 0.18884936
0.09460664 0.07193911 0.18884936
0.09310472 0.075299114 0.18884936
0.09651089 0.07047045 0.18884936
0.0968048 0.070259124 0.18884936
0.0981909 0.070259124 0.18790296
0.09712732 0.07193911 0.18716934
0.0981909 0.07116565 0.18716934
0.08643091 0.07968861 0.18884936
0.087708294 0.080339134 0.18716934
0.08643091 0.080339134 0.18823454
0.08567506 0.080339134 0.18884936
0.08643091 0.081361175 0.18716934
0.087768316 0.07865912 0.18884936
0.088110864 0.080035985 0.18716934
0.088110864 0.07865912 0.18860951
0.08979088 0.07865912 0.18726888
0.08979088 0.07874906 0.18716934
0.088110864 0.078407586 0.18884936
0.08979088 0.07722309 0.18884936
0.08475089 0.08112985 0.18884936
0.08475089 0.08201909 0.18806055
0.085718095 0.08201909 0.18716934
0.0914709 0.0769791 0.18824562
0.09269625 0.0769791 0.18716934
0.0914709 0.07772493 0.18716934
0.09028286 0.0769791 0.18884936
0.0899207 0.07865912 0.18716934
0.09315091 0.07657644 0.18716934
0.08475089 0.08304793 0.18716934
0.08428657 0.08369911 0.18716934
0.0914709 0.076428175 0.18884936
0.08352661 0.08537912 0.18716934
0.09315091 0.06621465 0.19388935
0.09315091 0.06689912 0.1935583
0.09247631 0.06689912 0.19388935
0.0914709 0.06788868 0.19388935
0.09315091 0.06857911 0.19287357
0.0914709 0.06857911 0.19353887
0.09069955 0.06857911 0.19388935
0.094239235 0.06857911 0.19220933
0.09483087 0.06689912 0.19279799
0.09483087 0.068020135 0.19220933
0.088110864 0.07193911 0.19300553
0.08979088 0.06929749 0.19388935
0.08979088 0.070259124 0.19322452
0.08733332 0.07361913 0.19220933
0.08643091 0.07361913 0.19252625
0.088110864 0.0733082 0.19220933
0.08979088 0.07193911 0.19234267
0.08979088 0.07236543 0.19220933
0.08643091 0.07407352 0.19220933
0.08487928 0.07361913 0.19388935
0.08475089 0.07373351 0.19388935
0.08448756 0.075299114 0.19220933
0.083070874 0.075299114 0.19326368
0.083070874 0.074980974 0.19388935
0.08475089 0.07511291 0.19220933
0.09315091 0.069682986 0.19220933
0.0914709 0.070259124 0.19252756
0.0922609 0.070259124 0.19220933
0.0914709 0.07067269 0.19220933
0.09005129 0.07193911 0.19220933
0.083070874 0.07624617 0.19220933
0.09483087 0.070259124 0.1901032
0.09315091 0.07193911 0.18986884
0.094089985 0.070259124 0.19052932
0.09315091 0.070977926 0.19052932
0.09483087 0.06981352 0.19052932
0.09651089 0.06915656 0.19052932
0.09651089 0.070259124 0.18910381
0.09315091 0.07361913 0.18916413
0.09153801 0.07361913 0.19052932
0.09230673 0.07193911 0.19052932
0.0914709 0.075299114 0.18977657
0.0914709 0.07376599 0.19052932
0.08999097 0.075299114 0.19052932
0.088110864 0.0769791 0.18990836
0.088110864 0.07605058 0.19052932
0.08979088 0.07539314 0.19052932
0.08979088 0.0769791 0.1890808
0.08643091 0.07694465 0.19052932
0.08643091 0.07865912 0.18954578
0.08643091 0.0769791 0.19050905
0.08475089 0.07795492 0.19052932
0.08475089 0.07865912 0.19018486
0.0837335 0.07865912 0.19052932
0.08637029 0.0769791 0.19052932
0.08475089 0.080339134 0.18939409
0.08139092 0.07775414 0.19220933
0.08216864 0.0769791 0.19220933
0.08139092 0.07865912 0.19166407
0.08067244 0.07865912 0.19220933
0.083070874 0.0769791 0.1917443
0.06963089 0.086904526 0.19220933
0.06963089 0.08705914 0.19211021
0.06925538 0.08705914 0.19220933
0.083070874 0.07865912 0.19077829
0.0797109 0.07981694 0.19220933
0.08139092 0.080339134 0.19068632
0.0797109 0.08201909 0.19072667
0.0797109 0.080339134 0.191861
0.078030884 0.08112019 0.19220933
0.078030884 0.08201909 0.1914936
0.0769425 0.08201909 0.19220933
0.07915765 0.080339134 0.19220933
0.07131088 0.08617997 0.19220933
0.07467091 0.08537912 0.19082853
0.07467091 0.08369911 0.1920205
0.07635087 0.08369911 0.19101992
0.07251084 0.08537912 0.19220933
0.072990894 0.08537912 0.1919817
0.072990894 0.08705914 0.19129065
0.07131088 0.08705914 0.19173005
0.07467091 0.083490014 0.19220933
0.074343085 0.08369911 0.19220933
0.072990894 0.08491331 0.19220933
0.07635087 0.082517505 0.19220933
0.07131088 0.0887391 0.19095978
0.08139092 0.0769791 0.19269261
0.0797109 0.07865912 0.1928772
0.078030884 0.080339134 0.1928244
0.07635087 0.08201909 0.19277856
0.07131088 0.08537912 0.19267926
0.07467091 0.09041911 0.1887475
0.08643091 0.075299114 0.19154176
0.08475089 0.075299114 0.19211218
0.08979088 0.07361913 0.19176611
0.088110864 0.07361913 0.19204429
0.09651089 0.06857911 0.19104668
0.09483087 0.06857911 0.19178191
0.09315091 0.070259124 0.19149336
0.088110864 0.075299114 0.19104818
0.08979088 0.075299114 0.19060734
0.0914709 0.07193911 0.19126251
0.0914709 0.07361913 0.19059256
0.08475089 0.0769791 0.19110253
0.09483087 0.075299114 0.18645242
0.09651089 0.07361913 0.18628475
0.0981909 0.07193911 0.18659505
0.09987092 0.07193911 0.18588665
0.0914709 0.07865912 0.18586484
0.09315091 0.0769791 0.18658373
0.088110864 0.080339134 0.1868355
0.08643091 0.08201909 0.18651906
0.08475089 0.08369911 0.18664345
0.08475089 0.08537912 0.18567833
0.09315091 0.0954591 0.17186752
0.088110864 0.09881914 0.17080972
0.08979088 0.09713912 0.17124519
0.088110864 0.09713912 0.17181578
0.08643091 0.10049909 0.17176041
0.08643091 0.10217911 0.17051616
0.09651089 0.0954591 0.17074743
0.09651089 0.09377909 0.17201504
0.09483087 0.0954591 0.1713399
0.0914709 0.09713912 0.17079523
0.09748316 0.0954591 0.17036936
0.0981909 0.09377909 0.17138651
0.10155088 0.09209913 0.17189297
0.08475089 0.10385913 0.17128214
0.10491091 0.0887391 0.17280576
0.10491091 0.08705914 0.17372277
0.10659087 0.08705914 0.17320362
0.08139092 0.10049909 0.17356351
0.09483087 0.07865912 0.18336788
0.09651089 0.07865912 0.1824818
0.09315091 0.080339134 0.18282643
0.0914709 0.08201909 0.18283203
0.08979088 0.08369911 0.18280163
0.088110864 0.08537912 0.18267098
0.08643091 0.08537912 0.18377271
0.08643091 0.08705914 0.18294331
0.0981909 0.0769791 0.18298796
POLYGONS 1293 5172
3 0 1 2
3 3 4 5
3 6 7 8
3 9 10 11
3 9 12 10
3 9 8 12
3 8 7 12
3 13 7 6
3 14 7 13
3 13 5 14
3 5 4 14
3 4 15 14
3 12 14 16
3 7 14 12
3 17 14 18
3 14 15 18
3 17 16 14
3 19 20 21
3 22 20 19
3 19 23 22
3 3 24 4
3 3 21 24
3 21 20 24
3 20 22 25
3 25 24 20
3 23 26 22
3 23 2 26
3 2 1 26
3 1 27 28
3 28 26 1
3 22 26 29
3 29 25 22
3 30 28 31
3 30 26 28
3 30 29 26
3 32 24 33
3 32 15 24
3 15 4 24
3 33 24 25
3 25 34 33
3 15 32 18
3 34 25 29
3 29 35 34
3 29 30 35
3 36 37 38
3 39 37 36
3 36 40 39
3 38 37 41
3 37 42 41
3 42 37 39
3 39 43 42
3 44 45 46
3 47 44 46
3 45 48 49
3 45 49 46
3 50 51 52
3 53 54 55
3 50 55 56
3 56 51 50
3 55 54 57
3 55 57 56
3 58 54 59
3 59 54 53
3 17 60 58
3 59 17 58
3 61 58 62
3 60 63 58
3 61 57 54
3 61 54 58
3 62 58 63
3 56 64 65
3 65 51 56
3 57 66 64
3 64 56 57
3 57 61 66
3 67 68 69
3 69 70 67
3 67 71 68
3 72 73 74
3 74 73 75
3 76 77 78
3 79 73 72
3 80 78 77
3 77 81 80
3 82 83 84
3 85 86 87
3 82 87 88
3 82 88 83
3 85 89 86
3 87 86 88
3 75 73 89
3 85 75 89
3 90 89 79
3 90 79 91
3 92 89 93
3 89 73 79
3 92 88 86
3 92 86 89
3 76 94 77
3 89 90 93
3 84 83 94
3 76 84 94
3 83 88 95
3 96 83 95
3 97 81 98
3 96 94 83
3 81 77 94
3 81 94 98
3 88 92 95
3 94 96 98
3 99 100 101
3 102 103 104
3 99 104 105
3 99 105 100
3 106 107 108
3 104 103 105
3 109 107 110
3 110 107 106
3 108 111 79
3 72 108 79
3 112 109 113
3 108 107 111
3 111 107 109
3 112 111 109
3 101 100 109
3 110 101 109
3 114 115 109
3 100 114 109
3 105 116 114
3 114 100 105
3 117 103 102
3 109 115 113
3 118 117 119
3 118 105 103
3 118 103 117
3 105 118 116
3 111 120 91
3 91 79 111
3 111 112 120
3 121 122 123
3 124 125 126
3 121 126 127
3 121 127 122
3 128 129 130
3 126 125 127
3 131 132 133
3 131 133 134
3 135 136 132
3 131 135 132
3 128 134 137
3 128 137 129
3 133 138 137
3 134 133 137
3 132 139 138
3 138 133 132
3 124 140 141
3 141 125 124
3 130 142 141
3 140 130 141
3 129 143 142
3 130 129 142
3 144 125 141
3 144 141 145
3 141 142 145
3 144 127 125
3 146 147 148
3 129 137 143
3 149 147 150
3 149 150 151
3 146 123 147
3 149 148 147
3 122 152 147
3 123 122 147
3 152 122 153
3 154 152 153
3 150 147 152
3 122 127 153
3 152 154 155
3 152 155 150
3 156 157 158
3 156 158 159
3 156 149 151
3 156 151 157
3 160 158 161
3 160 161 162
3 158 157 163
3 160 159 158
3 127 144 153
3 163 161 158
3 136 164 165
3 166 136 165
3 164 167 165
3 166 132 136
3 132 166 139
3 168 169 170
3 171 172 173
3 168 173 174
3 168 174 169
3 175 176 177
3 173 172 174
3 178 179 180
3 181 176 182
3 182 176 175
3 180 179 181
3 182 180 181
3 183 179 178
3 179 184 181
3 2 184 183
3 2 183 0
3 184 179 183
3 185 186 187
3 185 188 189
3 189 186 185
3 190 177 191
3 190 191 192
3 176 193 191
3 177 176 191
3 192 191 189
3 188 192 189
3 5 191 3
3 191 194 189
3 5 194 191
3 191 193 3
3 171 187 195
3 171 195 172
3 8 189 6
3 187 186 195
3 195 186 189
3 8 195 189
3 11 174 195
3 11 195 9
3 195 8 9
3 174 172 195
3 194 13 6
3 6 189 194
3 21 181 19
3 194 5 13
3 193 176 181
3 21 193 181
3 184 23 19
3 19 181 184
3 184 2 23
3 193 21 3
3 196 197 198
3 199 198 197
3 200 198 201
3 201 198 199
3 202 203 201
3 203 200 201
3 204 198 200
3 202 201 199
3 205 203 206
3 202 207 203
3 206 203 207
3 208 209 210
3 211 212 213
3 210 209 214
3 215 209 208
3 211 214 212
3 211 210 214
3 215 216 217
3 209 218 219
3 218 209 215
3 217 218 215
3 220 218 217
3 220 219 218
3 219 214 209
3 220 217 160
3 221 222 223
3 224 225 226
3 227 225 224
3 222 228 229
3 229 223 222
3 230 231 227
3 232 231 230
3 231 225 227
3 233 234 235
3 234 236 232
3 221 237 222
3 230 235 232
3 235 234 232
3 210 231 208
3 210 237 231
3 221 226 237
3 226 225 237
3 222 237 211
3 213 228 222
3 237 225 231
3 213 222 211
3 232 215 208
3 215 232 236
3 237 210 211
3 208 231 232
3 236 216 215
3 238 239 240
3 240 97 238
3 241 239 238
3 242 243 244
3 241 238 245
3 238 246 245
3 239 241 243
3 246 170 245
3 242 239 243
3 242 240 239
3 247 248 249
3 249 250 247
3 242 247 250
3 244 247 242
3 251 252 253
3 254 252 251
3 253 255 205
3 252 255 253
3 256 257 258
3 257 259 258
3 258 259 260
3 261 256 258
3 251 262 258
3 261 258 262
3 251 260 254
3 251 258 260
3 248 257 256
3 256 249 248
3 263 264 265
3 52 51 266
3 265 267 48
3 268 265 48
3 268 48 45
3 268 45 44
3 269 266 270
3 270 264 269
3 269 264 263
3 265 264 267
3 267 264 270
3 51 65 271
3 266 51 271
3 266 271 270
3 272 273 274
3 275 272 276
3 270 271 277
3 270 277 267
3 278 279 280
3 278 280 272
3 275 278 272
3 274 276 272
3 281 273 272
3 272 280 281
3 46 279 47
3 47 279 278
3 282 283 284
3 285 282 284
3 284 286 285
3 285 286 43
3 286 284 70
3 70 284 67
3 274 273 282
3 285 274 282
3 273 281 282
3 71 67 284
3 284 283 71
3 287 288 233
3 289 290 291
3 289 292 293
3 290 289 293
3 294 290 293
3 290 294 295
3 292 229 293
3 296 297 298
3 299 300 301
3 297 302 303
3 301 300 304
3 296 301 304
3 296 304 297
3 305 302 297
3 305 297 304
3 305 304 306
3 303 298 297
3 307 308 309
3 299 307 309
3 309 300 299
3 310 311 308
3 312 311 313
3 313 311 310
3 308 311 314
3 308 314 309
3 315 312 313
3 316 309 317
3 317 309 314
3 304 300 309
3 316 304 309
3 304 316 306
3 318 319 320
3 318 302 319
3 302 305 321
3 318 303 302
3 321 322 319
3 302 321 319
3 319 322 323
3 324 325 326
3 327 326 328
3 326 329 328
3 326 325 329
3 330 325 324
3 330 329 325
3 330 81 329
3 330 80 81
3 81 97 240
3 240 329 81
3 328 240 242
3 329 240 328
3 327 331 332
3 328 331 327
3 332 333 334
3 331 333 332
3 253 205 206
3 206 335 253
3 251 253 335
3 335 336 251
3 331 242 250
3 328 242 331
3 331 250 249
3 249 333 331
3 337 334 333
3 336 338 251
3 338 339 251
3 339 262 251
3 337 339 338
3 337 256 339
3 256 261 339
3 337 333 256
3 339 261 262
3 333 249 256
3 340 341 342
3 343 330 340
3 330 324 340
3 343 344 330
3 343 340 342
3 342 341 345
3 340 324 326
3 346 326 327
3 347 348 349
3 350 348 347
3 343 351 344
3 344 80 330
3 346 341 326
3 341 340 326
3 348 350 352
3 350 353 354
3 354 355 350
3 341 346 356
3 347 353 350
3 347 345 353
3 345 341 353
3 352 350 355
3 353 356 354
3 356 332 334
3 334 357 356
3 352 355 358
3 356 353 341
3 356 327 332
3 346 327 356
3 354 356 357
3 358 335 206
3 335 358 359
3 359 336 335
3 338 359 337
3 358 360 352
3 358 354 359
3 355 354 358
3 206 360 358
3 359 357 337
3 359 354 357
3 357 334 337
3 359 338 336
3 361 362 363
3 364 365 366
3 367 289 291
3 368 369 370
3 368 371 369
3 371 223 369
3 364 362 365
3 362 287 365
3 364 363 362
3 372 371 373
3 367 370 369
3 369 223 229
3 229 292 369
3 374 375 376
3 371 221 223
3 368 373 371
3 367 292 289
3 367 369 292
3 375 226 371
3 375 224 226
3 224 375 377
3 377 227 224
3 378 375 374
3 377 375 378
3 372 376 371
3 376 375 371
3 365 287 233
3 235 379 365
3 227 377 379
3 379 230 227
3 378 366 377
3 366 365 377
3 365 379 377
3 235 365 233
3 379 235 230
3 371 226 221
3 243 241 380
3 380 381 382
3 170 383 380
3 245 170 380
3 243 384 244
3 245 380 241
3 243 380 382
3 243 382 384
3 383 385 381
3 381 380 383
3 384 386 247
3 383 387 385
3 387 174 388
3 170 169 383
3 383 169 174
3 387 383 174
3 248 247 386
3 386 389 390
3 391 40 255
3 386 392 389
3 384 382 392
3 247 244 384
3 248 386 390
3 392 386 384
3 393 394 259
3 260 259 394
3 260 395 254
3 259 257 393
3 395 391 252
3 255 252 391
3 394 396 260
3 252 254 395
3 248 393 257
3 396 395 260
3 174 11 388
3 390 393 248
3 397 398 399
3 400 399 401
3 400 401 402
3 403 404 401
3 399 403 401
3 399 398 403
3 397 405 398
3 401 404 406
3 397 213 212
3 397 212 405
3 405 407 408
3 405 408 403
3 219 409 410
3 410 214 219
3 212 214 410
3 407 212 410
3 403 398 405
3 407 405 212
3 219 220 409
3 204 200 411
3 205 412 203
3 255 412 205
3 203 411 200
3 412 411 203
3 388 11 413
3 11 10 413
3 44 47 390
3 388 413 414
3 390 47 393
3 53 12 16
3 16 59 53
3 413 50 52
3 413 55 50
3 413 10 12
3 52 414 413
3 55 12 53
3 55 413 12
3 16 17 59
3 415 416 417
3 418 419 417
3 416 415 420
3 421 422 423
3 424 422 421
3 423 422 425
3 426 427 428
3 429 426 428
3 430 427 431
3 428 427 430
3 432 426 433
3 432 427 426
3 431 434 424
3 431 427 434
3 435 429 436
3 421 431 424
3 428 437 429
3 436 429 437
3 438 429 435
3 435 349 438
3 433 426 429
3 429 438 433
3 434 439 440
3 434 432 439
3 432 434 427
3 440 424 434
3 441 163 442
3 436 443 435
3 343 342 444
3 441 442 343
3 441 444 445
3 441 343 444
3 442 351 343
3 444 342 345
3 345 443 444
3 436 445 443
3 445 444 443
3 446 447 448
3 448 447 449
3 449 447 450
3 451 452 453
3 454 455 456
3 457 458 459
3 446 72 74
3 74 447 446
3 447 74 75
3 447 75 452
3 450 447 452
3 451 450 452
3 80 344 455
3 455 78 80
3 351 456 455
3 455 344 351
3 454 459 458
3 76 78 455
3 458 76 455
3 454 458 455
3 82 84 458
3 460 82 458
3 457 460 458
3 461 453 452
3 452 85 87
3 461 452 87
3 461 87 460
3 461 460 462
3 463 464 465
3 463 465 466
3 463 466 467
3 468 469 464
3 458 84 76
3 452 75 85
3 460 87 82
3 457 462 460
3 101 470 99
3 471 102 104
3 472 471 104
3 472 104 470
3 473 472 470
3 468 473 470
3 470 469 468
3 464 469 465
3 106 466 465
3 466 106 108
3 467 466 108
3 467 108 446
3 448 467 446
3 470 104 99
3 465 469 470
3 101 465 470
3 465 101 110
3 446 108 72
3 465 110 106
3 474 475 476
3 477 474 476
3 476 478 477
3 477 478 167
3 439 479 440
3 480 479 439
3 439 432 480
3 432 481 480
3 432 482 481
3 438 482 433
3 483 482 438
3 349 483 438
3 433 482 432
3 348 483 349
3 481 483 484
3 482 483 481
3 484 348 352
3 483 348 484
3 196 479 480
3 480 197 196
3 199 480 481
3 197 480 199
3 485 202 484
3 202 199 484
3 199 481 484
3 485 352 360
3 484 352 485
3 207 202 485
3 206 485 360
3 207 485 206
3 160 162 220
3 486 136 135
3 486 164 136
3 486 487 164
3 487 488 164
3 167 489 477
3 167 488 489
3 167 164 488
3 490 488 487
3 489 488 490
3 490 491 489
3 477 489 492
3 492 474 477
3 492 475 474
3 412 255 40
3 411 412 38
3 411 38 493
3 40 36 412
3 412 36 38
3 493 38 494
3 382 495 265
3 392 382 265
3 389 44 390
3 495 263 265
3 265 268 389
3 268 44 389
3 263 495 496
3 389 392 265
3 388 414 387
3 381 495 382
3 381 385 496
3 496 495 381
3 387 266 496
3 385 387 496
3 414 52 266
3 387 414 266
3 396 275 497
3 395 497 276
3 396 394 278
3 396 278 275
3 47 278 393
3 393 278 394
3 43 39 498
3 396 497 395
3 496 266 269
3 496 269 263
3 391 39 40
3 497 275 276
3 391 276 498
3 498 39 391
3 391 395 276
3 276 274 498
3 498 274 285
3 498 285 43
3 98 96 499
3 499 246 238
3 92 500 499
3 95 92 499
3 173 501 171
3 92 502 500
3 500 502 501
3 173 500 501
3 93 502 92
3 91 503 90
3 93 90 501
3 93 501 502
3 95 499 96
3 90 503 501
3 98 499 238
3 98 238 97
3 113 115 504
3 113 504 505
3 177 506 175
3 115 507 504
3 177 504 507
3 177 507 506
3 119 508 118
3 499 500 168
3 170 499 168
3 500 173 168
3 170 246 499
3 114 507 115
3 113 505 112
3 506 507 116
3 116 507 114
3 118 508 506
3 116 118 506
3 180 509 178
3 508 510 506
3 180 510 508
3 180 508 509
3 112 511 512
3 120 112 512
3 187 512 185
3 112 505 511
3 501 503 512
3 187 501 512
3 511 188 185
3 185 512 511
3 510 182 175
3 175 506 510
3 510 180 182
3 91 120 512
3 512 503 91
3 505 504 190
3 192 505 190
3 504 177 190
3 192 511 505
3 501 187 171
3 511 192 188
3 443 347 349
3 349 435 443
3 443 345 347
3 406 423 425
3 404 421 423
3 406 404 423
3 403 513 404
3 409 514 410
3 514 428 430
3 409 220 515
3 515 514 409
3 220 162 516
3 220 516 515
3 515 437 428
3 428 514 515
3 404 513 421
3 403 431 513
3 410 514 407
3 408 430 431
3 403 408 431
3 407 514 430
3 408 407 430
3 162 161 441
3 445 162 441
3 161 163 441
3 445 516 162
3 516 445 436
3 516 436 437
3 437 515 516
3 513 431 421
3 517 518 519
3 520 517 519
3 521 522 523
3 518 524 519
3 525 526 522
3 521 525 522
3 517 520 526
3 525 517 526
3 524 518 527
3 527 518 528
3 521 523 529
3 527 530 524
3 525 528 518
3 518 517 525
3 531 532 533
3 530 531 533
3 532 534 533
3 524 533 519
3 530 533 524
3 535 536 537
3 538 537 539
3 540 541 536
3 535 540 536
3 541 542 543
3 540 542 541
3 537 536 539
3 543 544 541
3 543 542 545
3 545 542 540
3 535 537 538
3 545 546 543
3 547 538 548
3 547 548 288
3 538 539 549
3 538 549 548
3 550 551 552
3 553 550 552
3 543 554 544
3 523 522 555
3 548 556 234
3 233 548 234
3 233 288 548
3 556 557 234
3 558 551 550
3 558 550 553
3 558 529 555
3 558 555 551
3 546 553 543
3 529 523 555
3 553 552 554
3 553 554 543
3 234 557 559
3 548 549 556
3 236 559 216
3 559 236 234
3 560 561 562
3 563 564 565
3 563 565 566
3 567 564 568
3 567 568 569
3 564 561 568
3 417 570 415
3 571 572 419
3 419 572 570
3 417 419 570
3 562 561 564
3 563 562 564
3 560 568 561
3 420 570 573
3 420 573 574
3 420 415 570
3 570 575 573
3 576 577 575
3 575 570 576
3 571 566 572
3 574 573 578
3 420 574 579
3 572 576 570
3 580 581 582
3 583 580 582
3 580 579 584
3 580 584 581
3 579 574 578
3 579 578 584
3 564 567 585
3 586 587 588
3 576 589 577
3 566 565 586
3 566 586 572
3 587 565 564
3 587 564 585
3 589 572 588
3 587 586 565
3 589 576 572
3 572 586 588
3 582 581 590
3 591 527 592
3 593 591 592
3 594 593 592
3 595 596 597
3 592 598 599
3 597 530 527
3 527 591 597
3 527 528 592
3 597 591 595
3 595 591 593
3 594 592 600
3 598 525 521
3 598 521 601
3 602 598 601
3 602 601 603
3 599 600 592
3 525 598 592
3 592 528 525
3 602 599 598
3 521 529 601
3 596 531 597
3 540 604 545
3 605 606 607
3 607 604 605
3 608 605 604
3 607 546 545
3 545 604 607
3 609 610 604
3 540 609 604
3 611 612 613
3 608 610 614
3 597 531 530
3 604 610 608
3 614 610 609
3 611 614 609
3 611 609 612
3 606 603 607
3 609 540 535
3 615 538 547
3 288 287 362
3 601 529 558
3 601 558 553
3 603 601 553
3 603 553 607
3 538 609 535
3 613 612 615
3 613 615 362
3 361 613 362
3 362 615 547
3 288 362 547
3 538 615 612
3 538 612 609
3 607 553 546
3 616 617 618
3 616 618 619
3 590 620 617
3 621 622 623
3 618 624 361
3 363 618 361
3 625 619 618
3 625 618 626
3 366 627 628
3 628 626 364
3 366 628 364
3 363 626 618
3 629 630 631
3 625 628 632
3 620 624 618
3 617 620 618
3 625 626 628
3 632 628 627
3 632 627 630
3 629 632 630
3 633 622 621
3 373 634 635
3 635 636 372
3 373 635 372
3 637 638 639
3 633 637 639
3 633 639 640
3 640 622 633
3 636 635 641
3 641 635 642
3 643 638 637
3 626 363 364
3 642 635 634
3 643 642 634
3 643 634 638
3 641 644 636
3 644 631 376
3 644 376 636
3 639 370 367
3 634 373 368
3 627 378 374
3 374 630 627
3 630 374 376
3 631 630 376
3 645 640 367
3 291 645 367
3 622 640 645
3 638 634 368
3 639 638 368
3 370 639 368
3 640 639 367
3 627 366 378
3 636 376 372
3 646 617 616
3 647 625 632
3 647 632 648
3 616 619 647
3 648 632 629
3 649 648 629
3 631 649 629
3 647 619 625
3 649 631 644
3 649 644 641
3 650 637 633
3 650 633 621
3 651 399 400
3 295 294 651
3 295 651 400
3 293 399 651
3 293 651 294
3 295 400 402
3 293 229 228
3 293 228 397
3 293 397 399
3 228 213 397
3 584 578 652
3 652 653 584
3 584 653 581
3 578 573 652
3 654 655 577
3 577 655 575
3 575 655 573
3 569 656 657
3 569 657 567
3 567 593 658
3 585 567 658
3 587 658 594
3 587 594 600
3 656 596 595
3 595 657 656
3 567 657 595
3 567 595 593
3 655 654 659
3 659 654 660
3 573 655 659
3 573 659 652
3 587 600 661
3 588 587 661
3 588 661 589
3 585 658 587
3 662 599 602
3 603 660 654
3 577 589 661
3 661 662 654
3 577 661 654
3 658 593 594
3 654 662 602
3 603 654 602
3 599 662 661
3 661 600 599
3 663 653 652
3 614 663 652
3 614 652 608
3 581 653 663
3 663 614 611
3 613 624 620
3 620 663 611
3 613 620 611
3 590 581 663
3 590 663 620
3 660 606 605
3 605 659 660
3 659 605 608
3 608 652 659
3 660 603 606
3 624 613 361
3 526 664 522
3 526 665 664
3 665 486 664
3 486 135 664
3 519 665 520
3 526 520 665
3 534 666 533
3 534 667 666
3 665 487 486
3 666 487 665
3 666 490 487
3 490 666 667
3 667 491 490
3 519 533 665
3 533 666 665
3 552 668 554
3 552 130 668
3 552 128 130
3 552 669 128
3 539 670 121
3 539 536 670
3 670 126 121
3 555 669 551
3 544 126 670
3 544 124 126
3 539 123 671
3 539 121 123
3 539 671 549
3 541 670 536
3 541 544 670
3 556 148 672
3 556 549 148
3 549 146 148
3 549 671 146
3 554 668 124
3 668 140 124
3 668 130 140
3 556 672 557
3 664 131 134
3 664 135 131
3 669 134 128
3 544 554 124
3 552 551 669
3 555 522 669
3 522 664 669
3 664 134 669
3 559 673 156
3 673 149 156
3 217 159 160
3 671 123 146
3 216 559 217
3 559 159 217
3 559 156 159
3 672 673 559
3 559 557 672
3 672 148 149
3 149 673 672
3 267 674 48
3 301 675 676
3 675 677 676
3 282 678 283
3 283 679 71
3 279 46 676
3 677 675 281
3 281 280 677
3 301 676 299
3 277 271 680
3 271 681 680
3 279 677 280
3 676 677 279
3 65 681 271
3 682 674 267
3 267 277 682
3 277 680 682
3 48 674 308
3 674 310 308
3 299 676 683
3 683 307 299
3 49 676 46
3 683 676 49
3 49 48 683
3 48 308 683
3 282 281 675
3 675 301 296
3 678 298 303
3 303 679 678
3 678 679 283
3 282 298 678
3 282 296 298
3 282 675 296
3 684 680 685
3 680 681 685
3 685 681 65
3 65 64 685
3 680 315 313
3 62 686 61
3 683 308 307
3 310 674 682
3 682 313 310
3 313 682 680
3 680 684 315
3 69 68 687
3 679 303 318
3 68 71 687
3 71 320 687
3 71 318 320
3 71 679 318
3 18 688 60
3 18 32 688
3 32 689 688
3 33 689 32
3 690 689 33
3 33 34 690
3 18 60 17
3 42 691 41
3 43 691 42
3 689 690 688
3 691 286 70
3 286 691 43
3 139 692 138
3 693 692 139
3 143 694 142
3 145 695 144
3 138 692 137
3 153 696 154
3 697 698 150
3 150 155 697
3 155 696 697
3 449 692 693
3 693 448 449
3 694 450 451
3 150 698 151
3 143 137 694
3 137 450 694
3 137 449 450
3 137 692 449
3 145 142 695
3 142 694 695
3 694 451 695
3 451 453 695
3 351 442 699
3 153 144 696
3 144 695 696
3 695 462 696
3 699 697 454
3 699 698 697
3 697 459 454
3 699 456 351
3 157 151 698
3 699 442 163
3 163 157 699
3 456 699 454
3 696 459 697
3 696 457 459
3 155 154 696
3 698 699 157
3 700 464 463
3 468 478 476
3 476 473 468
3 476 472 473
3 139 166 693
3 166 467 693
3 166 700 467
3 700 463 467
3 165 167 700
3 167 478 700
3 478 468 700
3 468 464 700
3 695 461 462
3 695 453 461
3 696 462 457
3 165 700 166
3 693 467 448

CELL_DATA 1293
SCALARS longitude float 1
LOOKUP_TABLE default
37.159698486328125
39.61709976196289
41.07820129394531
42.105499267578125
41.93769836425781
41.60559844970703
41.270198822021484
40.74700164794922
40.5994987487793
40.23680114746094
40.062198638916016
40.113800048828125
41.1254997253418
41.102500915527344
40.67679977416992
40.395999908447266
40.913299560546875
38.59299850463867
38.420101165771484
38.15639877319336
39.33440017700195
39.022701263427734
38.79399871826172
38.472999572753906
38.805999755859375
37.87889862060547
37.590301513671875
37.3755989074707
37.04909896850586
37.37730026245117
38.03499984741211
38.364601135253906
37.6526985168457
37.66389846801758
37.990501403808594
39.50640106201172
39.65829849243164
39.62480163574219
39.172298431396484
39.10770034790039
40.09159851074219
38.63249969482422
38.52790069580078
38.214599609375
50.61859893798828
50.304500579833984
50.06159973144531
50.86880111694336
50.872798919677734
50.45719909667969
50.33409881591797
46.620601654052734
46.81719970703125
46.162899017333984
46.49140167236328
43.36650085449219
42.17210006713867
42.75600051879883
43.21929931640625
42.369598388671875
42.705501556396484
41.706600189208984
41.84339904785156
41.115699768066406
41.31650161743164
42.07419967651367
41.192901611328125
42.406898498535156
42.073001861572266
41.684600830078125
43.595001220703125
43.66350173950195
42.96260070800781
43.10049819946289
42.604801177978516
50.661800384521484
50.77920150756836
50.30609893798828
40.547401428222656
40.85860061645508
44.11349868774414
40.39680099487305
44.43439865112305
44.60960006713867
43.02239990234375
41.9364013671875
42.498600006103516
42.82099914550781
41.72719955444336
42.1693000793457
41.06650161743164
41.38370132446289
40.93410110473633
40.75230026245117
41.830101013183594
40.88249969482422
42.25960159301758
41.900299072265625
43.928199768066406
41.390499114990234
43.24100112915039
43.59379959106445
42.7333984375
43.032100677490234
44.27320098876953
43.33829879760742
44.120601654052734
44.0182991027832
42.50120162963867
43.597999572753906
37.76750183105469
36.7150993347168
37.18479919433594
37.52190017700195
39.30839920043945
36.92300033569336
38.83060073852539
38.964900970458984
39.883201599121094
39.91809844970703
39.20840072631836
39.5276985168457
39.325199127197266
39.4276008605957
38.205501556396484
38.41600036621094
38.50429916381836
38.28620147705078
37.67689895629883
37.78350067138672
36.5546989440918
38.814300537109375
36.69160079956055
37.048500061035156
36.70209884643555
37.29079818725586
40.28160095214844
40.37139892578125
39.852901458740234
42.95399856567383
41.820899963378906
42.35309982299805
42.72269821166992
40.194400787353516
42.02389907836914
38.84199905395508
39.069698333740234
38.210899353027344
38.5172004699707
39.66279983520508
39.96950149536133
39.492801666259766
39.405799865722656
38.91239929199219
39.05390167236328
41.30070114135742
41.63800048828125
41.0077018737793
40.88909912109375
40.58250045776367
40.63560104370117
41.81019973754883
41.681800842285156
41.29650115966797
42.18370056152344
44.07630157470703
40.15810012817383
44.62710189819336
44.82059860229492
43.69060134887695
44.503299713134766
43.51940155029297
43.376800537109375
42.993499755859375
43.18429946899414
44.07979965209961
42.61949920654297
43.52880096435547
43.89799880981445
45.52560043334961
45.6963005065918
45.04389953613281
45.15660095214844
46.25640106201172
46.62889862060547
45.834999084472656
46.15620040893555
42.40999984741211
46.105899810791016
37.70069885253906
38.04140090942383
37.48360061645508
38.348201751708984
38.574501037597656
43.128299713134766
42.05540084838867
42.53499984741211
42.86050033569336
38.48429870605469
42.25790023803711
37.06100082397461
37.995399475097656
38.0629997253418
37.45240020751953
37.618499755859375
36.80820083618164
37.533599853515625
37.141998291015625
36.97079849243164
37.05289840698242
41.0077018737793
40.536800384521484
40.84579849243164
39.11650085449219
39.481300354003906
38.999298095703125
38.90919876098633
39.96120071411133
40.15639877319336
39.584999084472656
40.025901794433594
39.847198486328125
39.26689910888672
41.52109909057617
41.86790084838867
40.89509963989258
41.19380187988281
41.03179931640625
41.064701080322266
42.09370040893555
41.92509841918945
41.585201263427734
42.07040023803711
40.405799865722656
40.54359817504883
38.40549850463867
40.05229949951172
38.50680160522461
38.569698333740234
37.96879959106445
38.04460144042969
37.54690170288086
38.987300872802734
51.177101135253906
50.76089859008789
50.84400177001953
50.70560073852539
50.31869888305664
50.524600982666016
51.045501708984375
50.31809997558594
49.91490173339844
50.13059997558594
50.0093994140625
47.52360153198242
48.704898834228516
47.7067985534668
47.26940155029297
48.36940002441406
47.987300872802734
46.34159851074219
47.307701110839844
47.07099914550781
46.6776008605957
46.829200744628906
47.206600189208984
47.68790054321289
46.748199462890625
48.758201599121094
47.57569885253906
47.29890060424805
49.3129997253418
49.19540023803711
46.55569839477539
46.42789840698242
47.0973014831543
45.22809982299805
45.79029846191406
48.48780059814453
45.97129821777344
45.72639846801758
47.33940124511719
47.54090118408203
48.0994987487793
47.76340103149414
48.41510009765625
49.03850173950195
47.55720138549805
48.72999954223633
46.88600158691406
46.30649948120117
48.00740051269531
46.95289993286133
46.155601501464844
44.629600524902344
44.52349853515625
44.42279815673828
45.29679870605469
44.12369918823242
43.83769989013672
44.72370147705078
43.59450149536133
45.10380172729492
45.12110137939453
46.26369857788086
46.13330078125
45.82640075683594
45.56340026855469
48.906898498535156
48.68149948120117
49.56209945678711
49.352901458740234
47.314998626708984
47.547401428222656
47.80030059814453
47.547000885009766
48.005401611328125
47.78499984741211
48.242000579833984
48.018001556396484
46.862300872802734
46.67940139770508
45.216400146484375
43.67369842529297
45.65549850463867
45.750099182128906
46.04880142211914
46.26919937133789
44.278099060058594
44.757301330566406
44.907501220703125
45.38779830932617
45.17179870605469
44.008399963378906
43.87120056152344
44.210601806640625
48.82509994506836
48.38330078125
44.61320114135742
45.09510040283203
47.7400016784668
47.94879913330078
48.03329849243164
48.74959945678711
48.65909957885742
48.36980056762695
47.167198181152344
47.356201171875
49.38399887084961
49.439701080322266
49.93349838256836
50.03200149536133
50.39070129394531
50.3583984375
49.02510070800781
49.256099700927734
48.85919952392578
50.0806999206543
49.75550079345703
44.63869857788086
50.799800872802734
50.207401275634766
50.5974006652832
50.56719970703125
50.897499084472656
49.98740005493164
48.75419998168945
47.775001525878906
49.24359893798828
47.979801177978516
48.238800048828125
48.49879837036133
48.972599029541016
48.63639831542969
48.55009841918945
49.162601470947266
46.795799255371094
47.230899810791016
47.51940155029297
46.22309875488281
45.79669952392578
45.95610046386719
46.39870071411133
46.734901428222656
45.33919906616211
47.5546989440918
47.13750076293945
47.724300384521484
47.79090118408203
48.219398498535156
50.174800872802734
49.76210021972656
49.18370056152344
49.59809875488281
49.92129898071289
49.61819839477539
50.229400634765625
45.84830093383789
45.9833984375
45.659698486328125
45.66379928588867
45.71839904785156
45.53390121459961
45.17539978027344
45.12540054321289
44.70069885253906
44.98429870605469
45.4744987487793
45.3390998840332
46.30039978027344
46.048301696777344
46.75740051269531
46.49409866333008
49.538700103759766
49.3036003112793
48.88100051879883
48.625301361083984
45.96390151977539
45.860198974609375
46.27050018310547
46.50859832763672
47.12779998779297
48.34360122680664
48.149200439453125
48.005401611328125
47.87009811401367
47.48899841308594
47.547000885009766
47.14350128173828
47.78499984741211
46.78730010986328
46.49729919433594
45.98400115966797
45.9010009765625
45.62160110473633
46.223201751708984
46.765499114990234
46.030799865722656
46.16450119018555
48.14619827270508
48.00170135498047
45.625099182128906
45.30659866333008
46.37889862060547
46.38750076293945
48.44329833984375
47.690399169921875
48.04560089111328
46.62369918823242
47.624900817871094
47.359798431396484
47.08430099487305
48.42179870605469
47.32059860229492
46.7681999206543
47.03799819946289
48.75529861450195
46.979400634765625
46.48080062866211
46.409400939941406
47.306400299072266
49.223201751708984
48.76810073852539
48.593101501464844
48.05270004272461
49.10969924926758
48.3588981628418
48.379600524902344
49.35380172729492
47.74259948730469
47.82419967651367
47.30820083618164
48.31129837036133
44.059600830078125
45.211700439453125
50.56869888305664
49.35129928588867
48.85060119628906
48.83810043334961
44.6682014465332
44.63249969482422
44.433998107910156
48.22800064086914
49.82440185546875
49.40589904785156
49.73400115966797
47.055198669433594
48.574501037597656
48.61320114135742
50.29199981689453
49.89929962158203
47.59469985961914
47.387901306152344
46.9922981262207
46.90760040283203
46.589500427246094
46.44089889526367
47.776798248291016
47.50619888305664
44.909400939941406
45.53900146484375
46.316898345947266
46.16709899902344
45.99729919433594
45.76369857788086
45.80649948120117
45.22959899902344
45.78070068359375
48.12080001831055
44.54930114746094
44.506500244140625
43.727699279785156
43.774200439453125
45.160701751708984
44.12900161743164
44.661800384521484
45.010799407958984
44.02080154418945
44.116600036621094
45.58190155029297
43.59809875488281
42.9651985168457
43.37879943847656
43.11090087890625
43.1776008605957
45.99290084838867
45.99639892578125
49.56269836425781
45.722900390625
45.22990036010742
45.42720031738281
46.218299865722656
45.53450012207031
47.47589874267578
47.77050018310547
48.22949981689453
47.26729965209961
48.889198303222656
49.347599029541016
47.88059997558594
48.66910171508789
46.81779861450195
48.112701416015625
42.571998596191406
46.62910079956055
49.80440139770508
50.62710189819336
50.96770095825195
50.63869857788086
50.367401123046875
49.98630142211914
49.55229949951172
50.926998138427734
49.125701904296875
49.170501708984375
49.188201904296875
49.548099517822266
47.80849838256836
47.9630012512207
48.36309814453125
48.706600189208984
49.73440170288086
48.993099212646484
47.43119812011719
50.94900131225586
50.137001037597656
49.97269821166992
50.62710189819336
50.52299880981445
42.58649826049805
42.29050064086914
46.65890121459961
42.922698974609375
46.75600051879883
41.62049865722656
41.50740051269531
43.02690124511719
42.580101013183594
42.12260055541992
43.127201080322266
41.99489974975586
42.176998138427734
41.138099670410156
39.398101806640625
38.5703010559082
39.7775993347168
51.1431999206543
50.94219970703125
51.47489929199219
49.30179977416992
48.90340042114258
49.75740051269531
49.49190139770508
49.60200119018555
49.649600982666016
50.312599182128906
49.93939971923828
48.04840087890625
50.402801513671875
48.66830062866211
48.204498291015625
48.47909927368164
48.41130065917969
49.07979965209961
49.02360153198242
50.50510025024414
50.19770050048828
50.021400451660156
50.70159912109375
46.161800384521484
47.664100646972656
46.409400939941406
46.08530044555664
46.81880187988281
46.451698303222656
45.80979919433594
46.77669906616211
47.110801696777344
47.38029861450195
47.11069869995117
39.78580093383789
39.89870071411133
40.2859992980957
41.3489990234375
44.63959884643555
43.55889892578125
40.18730163574219
40.28559875488281
40.664398193359375
40.847198486328125
40.70249938964844
40.96969985961914
44.97079849243164
44.614498138427734
45.072601318359375
45.1786994934082
43.9182014465332
44.292701721191406
44.10049819946289
44.19660186767578
43.19810104370117
42.98270034790039
43.10459899902344
41.726200103759766
41.744998931884766
41.874900817871094
42.239898681640625
42.45159912109375
38.11940002441406
38.47119903564453
38.721900939941406
37.62519836425781
43.584800720214844
41.36069869995117
42.48270034790039
42.815399169921875
37.56890106201172
36.51470184326172
36.37900161743164
36.730098724365234
36.741600036621094
37.18470001220703
37.4651985168457
37.8307991027832
38.71269989013672
39.111900329589844
39.03089904785156
39.389801025390625
39.35490036010742
37.136600494384766
37.6703987121582
37.80970001220703
38.21860122680664
39.722801208496094
38.609901428222656
36.14350128173828
36.432098388671875
36.777198791503906
37.02799987792969
50.875701904296875
50.780799865722656
50.365299224853516
50.32360076904297
49.95690155029297
49.39070129394531
49.211299896240234
48.7755012512207
49.771400451660156
48.611900329589844
49.57709884643555
49.606300354003906
48.99440002441406
49.01969909667969
51.19779968261719
51.01369857788086
50.37810134887695
50.59700012207031
49.885501861572266
49.95840072631836
49.982200622558594
49.491600036621094
49.51969909667969
50.05509948730469
49.735198974609375
49.933998107910156
46.92959976196289
37.94559860229492
37.7421989440918
37.40999984741211
37.10350036621094
36.821998596191406
36.85490036010742
37.21839904785156
36.86280059814453
36.67279815673828
36.3744010925293
36.3650016784668
36.22589874267578
35.93709945678711
49.97850036621094
50.730499267578125
50.97760009765625
50.20209884643555
50.56740188598633
51.05739974975586
44.935001373291016
45.27320098876953
46.3109016418457
45.0447998046875
45.67219924926758
46.116798400878906
44.65599822998047
45.592899322509766
43.14310073852539
44.681400299072266
44.1963005065918
44.467498779296875
43.73849868774414
43.77429962158203
43.49909973144531
43.39590072631836
48.22079849243164
48.444801330566406
47.78710174560547
47.95759963989258
47.10219955444336
47.399200439453125
49.827701568603516
48.28229904174805
44.10499954223633
44.56460189819336
49.62120056152344
48.38330078125
49.03499984741211
49.483699798583984
48.7056999206543
49.097900390625
49.403900146484375
49.684600830078125
43.42369842529297
43.601898193359375
42.64860153198242
42.687400817871094
41.87139892578125
42.29349899291992
42.01620101928711
42.05720138549805
42.01810073852539
40.94269943237305
41.41279983520508
41.74100112915039
43.04439926147461
41.14849853515625
43.66780090332031
44.096900939941406
38.85200119018555
39.17720031738281
38.292701721191406
38.56489944458008
38.68069839477539
38.33489990234375
36.88840103149414
42.83420181274414
43.116798400878906
42.519901275634766
43.35879898071289
38.34989929199219
39.40119934082031
37.89339828491211
38.024200439453125
37.29240036010742
37.48649978637695
36.86800003051758
37.39889907836914
37.2140998840332
36.873600006103516
40.00239944458008
40.0443000793457
40.82109832763672
39.653099060058594
40.958499908447266
40.98379898071289
40.349700927734375
40.471900939941406
37.721500396728516
37.85179901123047
37.42639923095703
40.4723014831543
40.752899169921875
39.135398864746094
39.44779968261719
38.92610168457031
39.74140167236328
41.49980163574219
39.96849822998047
47.78459930419922
47.88570022583008
47.374698638916016
51.33190155029297
50.9114990234375
51.089900970458984
50.430599212646484
48.184898376464844
49.11790084838867
47.61040115356445
48.070899963378906
47.17789840698242
47.550201416015625
48.494598388671875
48.55550003051758
50.54069900512695
50.122100830078125
48.682098388671875
49.60350036621094
49.76319885253906
49.13090133666992
49.35200119018555
46.56959915161133
46.830501556396484
46.350101470947266
47.13800048828125
47.395599365234375
47.835899353027344
47.95029830932617
50.232398986816406
37.29669952392578
37.45869827270508
38.83620071411133
36.922000885009766
38.31380081176758
38.58919906616211
37.85749816894531
38.035099029541016
36.99449920654297
37.17850112915039
38.93939971923828
36.64569854736328
37.546600341796875
37.73780059814453
36.02790069580078
36.212398529052734
36.01490020751953
36.7036018371582
36.455299377441406
42.69049835205078
43.11240005493164
42.20330047607422
42.344200134277344
41.74150085449219
41.95880126953125
42.88850021362305
41.57310104370117
41.54560089111328
41.76279830932617
42.91419982910156
41.19300079345703
43.65719985961914
44.071800231933594
43.38909912109375
43.65330123901367
40.04819869995117
40.296600341796875
41.21630096435547
39.00979995727539
44.564998626708984
44.71760177612305
44.446800231933594
44.81050109863281
39.88990020751953
40.13800048828125
39.42169952392578
39.66939926147461
40.79029846191406
39.11320114135742
40.66189956665039
40.95100021362305
45.21540069580078
44.07229995727539
45.777000427246094
45.5443000793457
35.65800094604492
36.60029983520508
36.84519958496094
35.868499755859375
35.6327018737793
35.74879837036133
39.21799850463867
38.03559875488281
38.55939865112305
38.79180145263672
35.97760009765625
36.27560043334961
35.43009948730469
39.74440002441406
40.142601013183594
39.59600067138672
39.70759963989258
39.1083984375
39.22999954223633
37.59880065917969
40.383201599121094
40.410400390625
38.65760040283203
41.64070129394531
41.76060104370117
41.1708984375
41.42839813232422
40.65129852294922
41.027400970458984
36.401100158691406
37.50270080566406
38.72930145263672
37.161800384521484
37.554901123046875
36.837501525878906
36.817100524902344
38.11759948730469
37.22740173339844
38.45589828491211
37.752498626708984
42.14820098876953
37.104400634765625
36.98720169067383
37.244998931884766
36.012001037597656
38.26860046386719
36.4297981262207
36.56290054321289
37.342201232910156
36.31520080566406
36.54779815673828
37.63850021362305
38.477298736572266
38.894500732421875
38.888099670410156
39.42190170288086
38.138999938964844
38.06930160522461
37.71149826049805
38.669498443603516
39.1083984375
35.8838005065918
41.55929946899414
40.47420120239258
40.8484992980957
41.204898834228516
40.988800048828125
41.137699127197266
41.712100982666016
41.77149963378906
42.89419937133789
41.69200134277344
36.05400085449219
41.50170135498047
41.9026985168457
42.20719909667969
42.59159851074219
40.18320083618164
42.28219985961914
43.45909881591797
44.36180114746094
39.434600830078125
39.93149948120117
39.945098876953125
40.32789993286133
42.71390151977539
43.18239974975586
43.57429885864258
43.624000549316406
43.75270080566406
44.06549835205078
43.165401458740234
42.7765998840332
40.585201263427734
43.61579895019531
43.996498107910156
42.833099365234375
51.38050079345703
43.69089889526367
44.0531005859375
44.44499969482422
44.562198638916016
45.57279968261719
44.86370086669922
45.213199615478516
44.391300201416016
46.45610046386719
45.22909927368164
43.42649841308594
43.325199127197266
44.96220016479492
45.49020004272461
45.890201568603516
45.988399505615234
51.011600494384766
48.58829879760742
47.902000427246094
48.2504997253418
49.71969985961914
50.02519989013672
50.36410140991211
50.80550003051758
48.02629852294922
48.28070068359375
49.4833984375
44.63019943237305
48.49409866333008
48.84450149536133
49.20479965209961
47.680301666259766
47.12300109863281
47.38909912109375
50.03929901123047
48.82500076293945
46.19279861450195
46.36249923706055
46.86289978027344
46.858001708984375
50.763301849365234
50.785499572753906
51.0797004699707
49.090999603271484
49.490699768066406
49.565101623535156
50.365699768066406
45.80270004272461
47.587100982666016
43.40919876098633
45.02830123901367
45.29330062866211
44.194801330566406
45.790199279785156
46.332000732421875
46.66299819946289
44.64469909667969
47.03390121459961
47.487701416015625
50.06079864501953
50.60689926147461
50.4546012878418
50.68579864501953
50.84629821777344
50.18330001831055
50.35540008544922
51.02299880981445
49.7765007019043
49.688201904296875
49.91059875488281
49.33219909667969
41.06909942626953
41.40959930419922
41.62630081176758
40.597198486328125
39.36399841308594
39.5010986328125
39.923099517822266
35.63949966430664
35.85609817504883
36.6068000793457
36.622798919677734
37.20719909667969
37.50979995727539
35.792598724365234
35.875999450683594
36.093101501464844
36.38529968261719
39.91469955444336
39.94929885864258
40.176700592041016
40.570098876953125
37.8026008605957
37.722198486328125
38.16450119018555
37.037899017333984
38.8400993347168
39.75199890136719
38.55580139160156
38.786598205566406
38.79890060424805
37.026798248291016
39.01900100708008
39.38420104980469
38.608001708984375
38.30849838256836
41.643699645996094
41.673500061035156
41.48429870605469
41.86069869995117
42.1879997253418
43.15719985961914
42.55830001831055
42.87969970703125
42.16809844970703
42.53770065307617
40.265499114990234
40.431800842285156
40.99679946899414
41.08530044555664
39.97420120239258
43.4213981628418
38.39509963989258
37.954498291015625
37.85660171508789
38.10770034790039
37.29719924926758
37.69449996948242
36.22890090942383
35.975101470947266
37.36090087890625
36.84230041503906
36.652801513671875
36.25239944458008
36.164398193359375
36.91619873046875
36.696800231933594
40.74150085449219
40.53839874267578
40.25299835205078
39.920799255371094
42.812599182128906
42.70500183105469
42.335601806640625
39.56669998168945
41.81570053100586
41.63249969482422
43.28950119018555
43.059898376464844
43.50189971923828
42.36600112915039
41.952999114990234
44.439300537109375
44.138301849365234
43.96260070800781
43.70930099487305
41.22529983520508
41.10089874267578
40.68830108642578
44.620201110839844
38.86479949951172
38.475101470947266
39.555599212646484
41.412601470947266
39.876800537109375
39.21649932861328
38.8922004699707
39.09260177612305
45.379600524902344
45.22760009765625
46.347801208496094
43.49679946899414
45.96390151977539
45.99689865112305
45.649200439453125
45.16130065917969
45.024200439453125
44.69110107421875
45.009300231933594
45.779701232910156
47.835601806640625
47.773399353027344
49.19969940185547
49.72719955444336
47.3140983581543
48.292999267578125
48.186798095703125
47.612701416015625
44.61539840698242
44.354801177978516
47.819801330566406
47.582801818847656
44.179901123046875
45.510101318359375
45.264198303222656
44.9453010559082
46.000099182128906
46.057498931884766
47.19340133666992
47.06760025024414
46.83489990234375
46.747798919677734
46.3302001953125
46.34000015258789
48.67580032348633
48.25809860229492
49.34479904174805
49.6078987121582
49.47710037231445
49.076900482177734
48.814998626708984
48.57929992675781
44.25640106201172
44.18230056762695
44.00740051269531
43.76689910888672
45.00490188598633
42.24810028076172
46.63169860839844
45.68579864501953
45.61949920654297
45.1254997253418
44.637298583984375
50.81449890136719
49.78049850463867
50.45949935913086
50.43550109863281
50.11539840698242
49.8838996887207
40.44940185546875
40.119998931884766
39.86989974975586
39.6879997253418
39.53609848022461
39.28950119018555
40.70199966430664
51.029598236083984
50.68339920043945
39.71780014038086
50.76969909667969
50.52450180053711
39.278499603271484
39.166099548339844
40.78150177001953
41.87779998779297
39.69430160522461
43.00429916381836
44.45800018310547
44.08769989013672
43.54050064086914
39.65610122680664
39.535400390625
40.77349853515625
44.64789962768555
40.35810089111328
40.38029861450195
40.1598014831543
39.89339828491211
41.49359893798828
41.27330017089844
41.242698669433594
41.52090072631836
45.54710006713867
42.604000091552734
42.395999908447266
42.52050018310547
44.560699462890625
44.6515007019043
44.0989990234375
45.25680160522461
44.940101623535156
45.73030090332031
45.647098541259766
44.82270050048828
43.63629913330078
43.37009811401367
43.347599029541016
45.121299743652344
38.07600021362305
37.06050109863281
36.982601165771484
36.53879928588867
38.77690124511719
38.88710021972656
38.52470016479492
38.52170181274414
37.68830108642578
37.472599029541016
37.57339859008789
37.78120040893555
42.259498596191406
41.89939880371094
42.99250030517578
38.08570098876953
39.15610122680664
SCALARS latitude float 1
LOOKUP_TABLE default
52.27730178833008
52.726200103759766
52.94260025024414
52.96910095214844
52.83769989013672
52.83470153808594
52.819801330566406
52.91780090332031
52.790000915527344
52.76620101928711
52.662498474121094
52.447898864746094
52.45370101928711
52.691898345947266
52.2239990234375
52.26639938354492
52.289100646972656
52.59709930419922
52.46659851074219
52.42369842529297
52.51559829711914
52.536598205566406
52.474300384521484
52.23270034790039
52.231201171875
52.19300079345703
52.225101470947266
52.15330123901367
51.8927001953125
51.900699615478516
51.91120147705078
51.907798767089844
51.444000244140625
51.62739944458008
51.63529968261719
51.99660110473633
52.108699798583984
52.33530044555664
52.00149917602539
51.83580017089844
52.03879928588867
51.7406005859375
51.61370086669922
51.505001068115234
53.91120147705078
53.72610092163086
53.7067985534668
53.74129867553711
53.53300094604492
53.55030059814453
53.37480163574219
52.66859817504883
52.81850051879883
52.427101135253906
52.50400161743164
52.44559860229492
52.229400634765625
52.24509811401367
52.30699920654297
52.06399917602539
52.031898498535156
52.04970169067383
52.18149948120117
51.92839813232422
52.01689910888672
51.61970138549805
51.72600173950195
51.82310104370117
51.857398986816406
51.598201751708984
51.96369934082031
52.173099517822266
51.74589920043945
51.8843994140625
51.652000427246094
52.35969924926758
52.50239944458008
52.29520034790039
55.16960144042969
55.21839904785156
55.27980041503906
55.03390121459961
55.25360107421875
55.119300842285156
55.279300689697266
55.26350021362305
55.131099700927734
55.1078987121582
55.09510040283203
55.09519958496094
55.074798583984375
55.108299255371094
54.702598571777344
54.594398498535156
54.68130111694336
54.936500549316406
54.879600524902344
54.88199996948242
55.12620162963867
54.62739944458008
55.119598388671875
55.13850021362305
54.898799896240234
54.86050033569336
54.72269821166992
54.909400939941406
54.99209976196289
54.79050064086914
54.7057991027832
54.71950149536133
54.61600112915039
54.49509811401367
54.40919876098633
54.39609909057617
54.91569900512695
54.35210037231445
54.70640182495117
54.85300064086914
54.75090026855469
54.95719909667969
54.313201904296875
54.766300201416016
54.605098724365234
54.400699615478516
54.559600830078125
54.65959930419922
54.236698150634766
54.35329818725586
54.04899978637695
54.2156982421875
54.35609817504883
54.270301818847656
53.93550109863281
54.150901794433594
54.15999984741211
53.98160171508789
54.42150115966797
54.586700439453125
54.34830093383789
57.0453987121582
56.99720001220703
56.87350082397461
56.86159896850586
56.74869918823242
56.84400177001953
56.471900939941406
56.673500061035156
56.442100524902344
56.49879837036133
56.614498138427734
56.54629898071289
56.36220169067383
56.53459930419922
56.1510009765625
56.312801361083984
56.81679916381836
56.84040069580078
56.612998962402344
56.780399322509766
56.43629837036133
56.6156005859375
56.66210174560547
56.474098205566406
56.45650100708008
56.66419982910156
57.06520080566406
56.39310073852539
56.84339904785156
56.70220184326172
57.058101654052734
57.03300094604492
56.82279968261719
57.00979995727539
56.657798767089844
56.51020050048828
56.68170166015625
56.660099029541016
56.52750015258789
56.53519821166992
56.691200256347656
56.8474006652832
56.85150146484375
56.65169906616211
56.610801696777344
56.622100830078125
56.438201904296875
56.804298400878906
56.49150085449219
56.40060043334961
56.207401275634766
56.19860076904297
56.01089859008789
56.247798919677734
56.09880065917969
53.80870056152344
53.738800048828125
53.64419937133789
53.621299743652344
53.397300720214844
53.60100173950195
53.06629943847656
53.14039993286133
53.3114013671875
53.020198822021484
53.12139892578125
52.864601135253906
52.811100006103516
52.5005989074707
52.4015007019043
52.70610046386719
53.693199157714844
53.53260040283203
53.56019973754883
53.44129943847656
53.46969985961914
53.14459991455078
53.34669876098633
53.38719940185547
53.49919891357422
52.96260070800781
53.15959930419922
53.01390075683594
52.97719955444336
53.58720016479492
53.591800689697266
53.064701080322266
53.56809997558594
53.43539810180664
53.1880989074707
53.20930099487305
53.088199615478516
53.0806999206543
53.45429992675781
52.9119987487793
53.051998138427734
52.71110153198242
52.88130187988281
53.02479934692383
52.8135986328125
52.53810119628906
52.694801330566406
52.44820022583008
52.76169967651367
55.51430130004883
55.369998931884766
54.976600646972656
55.14030075073242
54.801300048828125
54.779998779296875
55.03810119628906
55.072898864746094
54.45280075073242
54.792598724365234
54.668399810791016
57.76279830932617
57.81610107421875
57.621700286865234
57.7056999206543
57.631900787353516
57.66429901123047
57.394100189208984
57.42390060424805
57.60559844970703
57.39360046386719
57.16419982910156
57.13719940185547
57.38240051269531
56.964298248291016
58.520999908447266
58.514801025390625
58.464599609375
58.29999923706055
58.478599548339844
58.25920104980469
58.10459899902344
58.36069869995117
58.09640121459961
57.799598693847656
58.35960006713867
58.097900390625
58.007198333740234
57.910499572753906
58.014400482177734
58.38610076904297
58.367801666259766
58.13399887084961
58.11750030517578
58.26409912109375
58.07339859008789
57.75239944458008
57.68519973754883
57.90909957885742
57.9567985534668
57.53950119018555
54.33110046386719
54.510101318359375
54.14590072631836
53.94340133666992
54.09389877319336
54.13759994506836
53.94390106201172
53.95560073852539
54.04359817504883
54.25339889526367
53.523101806640625
53.71139907836914
53.89619827270508
53.852500915527344
53.93349838256836
53.79169845581055
54.11389923095703
53.96269989013672
53.5447998046875
53.510101318359375
53.56399917602539
53.676300048828125
53.78879928588867
53.72480010986328
53.687400817871094
53.70949935913086
53.42409896850586
53.53120040893555
52.75559997558594
52.494598388671875
52.46649932861328
52.67689895629883
52.57419967651367
52.76580047607422
52.503700256347656
52.562599182128906
52.69660186767578
52.58290100097656
52.4379997253418
52.13650131225586
52.3203010559082
52.29029846191406
52.95199966430664
53.20589828491211
52.1416015625
52.230499267578125
52.85380172729492
52.96689987182617
53.1328010559082
53.16279983520508
52.79249954223633
52.823299407958984
52.751399993896484
52.91590118408203
52.61119842529297
52.83440017700195
52.99089813232422
53.13520050048828
52.849098205566406
52.63740158081055
52.79359817504883
52.930999755859375
52.634300231933594
52.49869918823242
52.493099212646484
58.22370147705078
58.80780029296875
58.55189895629883
58.592498779296875
58.3578987121582
58.22819900512695
58.40549850463867
51.94240188598633
51.95600128173828
51.700599670410156
51.78329849243164
51.83340072631836
51.77040100097656
51.49420166015625
51.50490188598633
51.304298400878906
51.882999420166016
51.70859909057617
51.78969955444336
51.79359817504883
51.70840072631836
51.527000427246094
51.64360046386719
51.539100646972656
51.490699768066406
51.430198669433594
51.342899322509766
51.324798583984375
51.62139892578125
51.417701721191406
51.315799713134766
51.6245002746582
51.544498443603516
51.3025016784668
51.69729995727539
51.299598693847656
51.35559844970703
51.30030059814453
54.971500396728516
54.641998291015625
54.590301513671875
54.81880187988281
55.03419876098633
54.88119888305664
54.83639907836914
55.049800872802734
54.65679931640625
54.638099670410156
54.33599853515625
54.455101013183594
54.41460037231445
54.40190124511719
54.132198333740234
54.137001037597656
54.297298431396484
54.3307991027832
54.11830139160156
54.16350173950195
54.091800689697266
54.23099899291992
53.906700134277344
53.89739990234375
54.03919982910156
54.10139846801758
53.94779968261719
53.79990005493164
54.00559997558594
53.809200286865234
53.6875
53.85639953613281
53.736000061035156
53.709800720214844
55.4098014831543
55.401798248291016
55.18989944458008
55.35240173339844
55.56779861450195
55.37580108642578
55.12689971923828
54.79560089111328
55.453399658203125
55.33660125732422
55.58039855957031
55.20000076293945
54.95140075683594
55.180999755859375
55.25339889526367
54.94860076904297
54.95090103149414
54.859798431396484
55.16389846801758
55.22460174560547
55.165199279785156
55.08330154418945
54.749000549316406
54.368499755859375
54.35770034790039
54.8827018737793
54.90370178222656
54.56380081176758
54.7047004699707
54.55350112915039
54.506500244140625
54.41490173339844
54.2843017578125
54.183998107910156
54.839298248291016
54.53499984741211
54.75199890136719
54.653499603271484
54.23870086669922
54.44850158691406
54.18949890136719
54.22209930419922
58.870399475097656
58.87620162963867
58.948001861572266
59.027099609375
58.96329879760742
58.763099670410156
58.78580093383789
58.569698333740234
58.881500244140625
59.07509994506836
58.972900390625
58.61539840698242
58.5802001953125
59.061798095703125
58.66809844970703
59.070701599121094
58.774898529052734
58.766998291015625
58.7859001159668
58.66429901123047
58.70309829711914
58.504600524902344
59.00960159301758
58.857200622558594
59.0629997253418
58.992698669433594
58.395999908447266
58.39509963989258
58.43600082397461
58.294700622558594
58.85749816894531
58.76169967651367
58.544700622558594
58.3484001159668
58.234100341796875
58.65449905395508
53.80189895629883
53.42219924926758
53.62189865112305
53.82740020751953
53.78089904785156
53.832401275634766
53.601600646972656
53.62300109863281
53.24980163574219
53.42300033569336
53.52560043334961
53.17319869995117
53.15079879760742
53.632999420166016
53.4463005065918
53.23939895629883
53.401798248291016
53.212799072265625
53.768699645996094
53.2489013671875
53.423301696777344
53.69029998779297
53.25600051879883
53.41630172729492
53.29460144042969
53.414100646972656
53.520999908447266
53.31760025024414
53.597599029541016
53.79309844970703
53.37139892578125
53.6254997253418
53.27330017089844
53.42359924316406
53.118900299072266
53.204200744628906
57.73569869995117
57.67259979248047
57.64030075073242
57.40950012207031
57.544898986816406
57.56039810180664
57.56990051269531
57.44300079345703
57.785499572753906
57.57170104980469
57.207401275634766
57.23820114135742
57.034698486328125
57.16590118408203
57.37269973754883
57.31999969482422
57.39469909667969
57.3656005859375
56.96419906616211
54.81700134277344
54.342098236083984
54.16469955444336
54.6234016418457
54.409698486328125
52.855499267578125
52.82659912109375
52.99879837036133
52.84379959106445
53.06779861450195
52.34370040893555
52.191200256347656
52.475799560546875
52.39649963378906
52.69540023803711
52.66339874267578
52.36109924316406
52.4640998840332
52.14099884033203
59.84989929199219
59.79859924316406
59.87409973144531
56.877201080322266
56.74399948120117
56.892799377441406
56.54690170288086
56.37519836425781
56.723899841308594
56.640899658203125
56.184600830078125
56.42279815673828
56.484100341796875
56.54779815673828
56.06700134277344
56.70249938964844
56.32419967651367
56.20159912109375
55.942901611328125
55.733001708984375
56.20069885253906
55.9739990234375
56.22880172729492
56.16550064086914
56.339698791503906
56.338401794433594
56.07809829711914
55.865699768066406
55.723899841308594
55.88740158081055
56.083099365234375
55.932098388671875
55.740299224853516
55.63010025024414
55.635799407958984
55.94269943237305
55.88079833984375
55.48720169067383
55.658599853515625
55.727298736572266
55.77830123901367
55.83369827270508
55.82529830932617
55.184200286865234
55.3650016784668
55.36410140991211
55.4995002746582
55.68790054321289
55.75979995727539
55.41569900512695
55.399600982666016
55.779300689697266
55.59510040283203
55.83259963989258
55.42620086669922
55.5609016418457
55.767799377441406
55.43170166015625
55.554100036621094
55.7484016418457
55.78409957885742
55.40850067138672
55.5984992980957
55.610599517822266
55.800899505615234
55.214298248291016
55.208099365234375
55.42020034790039
55.30699920654297
55.42649841308594
55.38719940185547
55.42449951171875
55.809200286865234
54.75410079956055
54.63679885864258
54.823699951171875
54.818199157714844
55.03310012817383
55.116798400878906
55.164398193359375
55.167301177978516
55.03459930419922
55.059600830078125
55.26190185546875
55.2422981262207
55.45209884643555
54.68199920654297
55.024898529052734
54.83380126953125
54.795799255371094
55.096099853515625
54.86040115356445
55.549400329589844
55.61399841308594
55.619598388671875
55.832000732421875
56.15380096435547
55.94269943237305
55.99639892578125
55.76380157470703
55.84489822387695
55.89030075073242
55.79249954223633
55.66579818725586
56.01279830932617
55.559600830078125
55.48350143432617
55.69729995727539
55.28329849243164
55.473201751708984
55.814300537109375
55.699798583984375
55.505001068115234
55.5547981262207
55.04790115356445
55.19049835205078
55.372798919677734
54.94929885864258
55.11090087890625
54.921199798583984
54.76219940185547
54.797000885009766
56.8213996887207
56.609798431396484
56.424800872802734
56.4379997253418
56.38479995727539
55.963600158691406
56.17300033569336
56.17559814453125
56.532798767089844
56.37179946899414
56.33380126953125
55.88249969482422
55.745399475097656
55.680301666259766
53.989200592041016
54.236000061035156
54.215599060058594
53.96110153198242
54.05540084838867
54.08209991455078
53.10319900512695
53.115299224853516
53.09270095825195
52.9213981628418
52.96580123901367
53.009498596191406
52.94049835205078
53.085601806640625
53.01919937133789
53.26940155029297
53.0973014831543
53.11790084838867
52.81800079345703
53.021400451660156
52.657501220703125
52.84629821777344
53.351898193359375
53.388099670410156
53.2322998046875
53.22959899902344
53.051998138427734
53.15919876098633
53.30189895629883
53.40660095214844
52.66749954223633
52.747100830078125
53.58720016479492
53.33319854736328
53.34629821777344
53.4010009765625
53.4275016784668
53.199798583984375
53.125701904296875
53.173500061035156
54.583499908447266
54.30059814453125
54.37779998779297
54.58190155029297
53.85960006713867
54.38010025024414
54.1864013671875
53.965301513671875
54.55699920654297
54.46689987182617
54.386199951171875
54.36259841918945
54.58810043334961
54.33380126953125
54.50709915161133
54.57529830932617
53.99610137939453
53.9822998046875
53.53150177001953
53.947601318359375
53.74250030517578
53.74399948120117
53.798500061035156
54.105899810791016
54.04990005493164
53.88750076293945
54.118099212646484
54.097801208496094
54.181400299072266
53.89820098876953
54.04759979248047
53.7505989074707
53.84640121459961
53.19499969482422
53.544498443603516
53.39149856567383
53.405399322509766
54.00849914550781
54.21989822387695
53.82360076904297
54.0088005065918
54.197601318359375
53.94969940185547
53.66429901123047
53.822200775146484
53.32149887084961
53.45790100097656
53.246700286865234
54.29240036010742
54.330299377441406
53.76089859008789
53.74079895019531
53.56909942626953
53.78919982910156
53.838199615478516
53.63019943237305
55.497398376464844
55.67060089111328
55.44110107421875
57.05759811401367
57.031898498535156
57.20539855957031
57.221900939941406
56.986000061035156
56.710201263427734
56.82609939575195
56.82550048828125
56.63880157470703
56.61650085449219
56.47560119628906
56.67900085449219
57.082000732421875
57.025901794433594
57.0640983581543
56.89120101928711
57.07339859008789
56.93550109863281
57.03300094604492
56.39500045776367
56.33259963989258
56.239898681640625
56.37699890136719
56.18939971923828
56.247501373291016
56.412498474121094
56.88589859008789
57.44649887084961
57.27259826660156
57.48609924316406
57.41849899291992
57.40919876098633
57.54240036010742
57.28580093383789
57.46689987182617
57.62300109863281
57.792301177978516
57.62110137939453
57.59669876098633
57.78369903564453
57.6416015625
57.35900115966797
57.49140167236328
57.16210174560547
57.21540069580078
57.37699890136719
57.86000061035156
57.88560104370117
57.714698791503906
57.89899826049805
57.65879821777344
57.84080123901367
57.70029830932617
57.49700164794922
57.81449890136719
57.996498107910156
58.0452995300293
57.802799224853516
58.05970001220703
58.076499938964844
57.79079818725586
57.887298583984375
57.37929916381836
57.5900993347168
57.464500427246094
57.345001220703125
57.82339859008789
58.00450134277344
58.08369827270508
57.72050094604492
57.516998291015625
57.727699279785156
57.524600982666016
57.3927001953125
57.751800537109375
57.480201721191406
57.547000885009766
57.5994987487793
57.66350173950195
57.72209930419922
57.493900299072266
57.65079879760742
59.450801849365234
59.347599029541016
59.53519821166992
58.924400329589844
58.81990051269531
59.11920166015625
59.702598571777344
59.62540054321289
59.563899993896484
59.669498443603516
59.30580139160156
59.3765983581543
59.26359939575195
59.539398193359375
59.53409957885742
59.727298736572266
59.31949996948242
59.114601135253906
59.26449966430664
59.5807991027832
59.37200164794922
59.74440002441406
59.35329818725586
59.76900100708008
59.93479919433594
59.77239990234375
59.63990020751953
59.58219909667969
59.5900993347168
58.877899169921875
58.983001708984375
59.067100524902344
59.37200164794922
59.381500244140625
59.124900817871094
58.920501708984375
59.16270065307617
59.1338005065918
59.20759963989258
59.17020034790039
59.665000915527344
58.060298919677734
58.243099212646484
58.327999114990234
58.03020095825195
58.14630126953125
57.739898681640625
57.90370178222656
57.94269943237305
58.0620002746582
58.267398834228516
58.3567008972168
57.765098571777344
57.847801208496094
58.08250045776367
58.24480056762695
58.331298828125
57.95640182495117
57.93370056152344
58.18899917602539
57.759700775146484
57.819698333740234
58.13669967651367
58.31610107421875
58.30580139160156
58.55720138549805
57.965599060058594
58.117401123046875
58.47639846801758
58.247398376464844
58.821800231933594
58.72650146484375
57.6875
58.603599548339844
58.599098205566406
58.64339828491211
58.6327018737793
58.24720001220703
58.15829849243164
58.2047004699707
58.39680099487305
57.796199798583984
57.875701904296875
58.08660125732422
58.069801330566406
58.1879997253418
58.651798248291016
58.648101806640625
58.847900390625
58.39400100708008
58.337398529052734
58.38869857788086
58.389400482177734
57.91400146484375
59.57389831542969
59.56779861450195
59.55780029296875
59.90879821777344
59.143001556396484
59.119300842285156
59.55039978027344
59.35919952392578
59.1593017578125
59.16299819946289
59.13479995727539
59.15399932861328
59.575199127197266
59.551300048828125
59.30690002441406
59.50299835205078
59.368499755859375
59.37099838256836
59.35279846191406
59.55149841308594
59.86389923095703
59.385799407958984
59.40359878540039
59.352298736572266
59.576698303222656
59.62139892578125
59.5619010925293
59.75559997558594
59.60240173339844
59.753299713134766
59.73759841918945
59.0004997253418
59.58869934082031
59.61159896850586
59.57339859008789
59.59199905395508
59.49470138549805
59.38119888305664
59.12049865722656
59.20199966430664
59.03969955444336
59.18330001831055
59.212100982666016
59.40570068359375
59.26129913330078
59.056400299072266
59.55400085449219
59.367401123046875
59.3745002746582
59.175498962402344
59.29290008544922
58.99679946899414
59.21260070800781
59.7041015625
59.68339920043945
59.770198822021484
59.709598541259766
59.69839859008789
59.7775993347168
59.71630096435547
59.69160079956055
59.72589874267578
59.760101318359375
59.856998443603516
59.90629959106445
57.85070037841797
58.08580017089844
57.91389846801758
58.074501037597656
58.214900970458984
57.74869918823242
58.26250076293945
58.04930114746094
57.95750045776367
57.903499603271484
59.320701599121094
59.349998474121094
59.48630142211914
59.2489013671875
58.9900016784668
59.11880111694336
59.19860076904297
58.518699645996094
58.703800201416016
58.590301513671875
58.74440002441406
58.65520095825195
58.58700180053711
58.188899993896484
58.36800003051758
58.553001403808594
58.46860122680664
58.89670181274414
58.660400390625
59.05379867553711
59.045799255371094
58.67369842529297
58.85260009765625
58.904300689697266
58.78630065917969
58.348201751708984
58.53219985961914
58.92380142211914
58.61830139160156
58.842498779296875
58.47439956665039
58.502201080322266
58.50559997558594
58.4640007019043
58.489601135253906
59.21049880981445
58.96989822387695
58.85409927368164
59.346500396728516
58.886600494384766
59.13130187988281
59.11940002441406
59.06529998779297
59.395999908447266
59.36940002441406
58.46369934082031
58.584598541259766
58.68870162963867
58.86240005493164
58.3942985534668
58.967899322509766
57.14950180053711
57.04859924316406
56.85139846801758
56.76490020751953
57.112998962402344
57.12670135498047
57.03010177612305
56.8109016418457
56.70899963378906
56.78960037231445
56.66659927368164
56.63909912109375
56.467498779296875
57.083900451660156
56.98109817504883
57.26430130004883
57.077999114990234
57.01190185546875
57.0713996887207
57.383201599121094
57.54610061645508
57.17839813232422
57.16899871826172
57.30619812011719
57.154598236083984
57.379600524902344
57.26210021972656
57.55939865112305
57.52130126953125
57.48659896850586
57.39910125732422
57.45840072631836
57.287498474121094
57.39189910888672
57.15570068359375
56.977500915527344
56.94049835205078
57.560298919677734
56.81549835205078
56.7859001159668
56.875999450683594
57.3036003112793
57.20920181274414
57.16559982299805
57.096099853515625
56.938201904296875
57.170501708984375
57.02320098876953
56.958099365234375
57.212100982666016
57.349098205566406
57.15610122680664
57.11180114746094
57.32460021972656
57.50400161743164
57.195499420166016
57.17720031738281
52.26219940185547
52.185001373291016
52.39440155029297
52.44649887084961
52.173099517822266
52.541900634765625
52.50519943237305
52.683998107910156
52.10580062866211
51.85919952392578
51.819698333740234
52.70930099487305
52.562198638916016
51.97269821166992
52.09629821777344
52.061500549316406
51.81809997558594
52.09410095214844
51.87919998168945
52.10100173950195
51.9474983215332
52.445499420166016
52.2515983581543
52.26459884643555
52.032798767089844
52.48640060424805
52.08509826660156
52.05400085449219
52.01750183105469
52.207801818847656
52.3046989440918
52.19670104980469
52.27629852294922
51.48030090332031
51.69770050048828
51.85049819946289
51.8046989440918
51.4818000793457
51.48080062866211
51.8656005859375
51.91859817504883
51.70429992675781
51.63909912109375
51.40370178222656
52.201698303222656
51.843101501464844
52.13779830932617
51.955501556396484
51.91120147705078
51.97669982910156
51.794700622558594
51.80379867553711
51.75640106201172
51.879398345947266
51.76210021972656
51.7135009765625
51.987300872802734
53.37160110473633
53.32379913330078
51.639400482177734
53.007198333740234
53.21269989013672
56.13959884643555
55.96269989013672
56.27859878540039
56.330101013183594
56.20439910888672
56.37269973754883
56.39699935913086
56.39569854736328
56.25339889526367
55.850101470947266
55.680198669433594
55.904701232910156
56.54029846191406
56.23609924316406
56.05160140991211
55.9463005065918
56.04669952392578
56.3130989074707
56.19419860839844
56.00510025024414
55.93510055541992
55.90489959716797
56.35169982910156
56.22840118408203
56.03089904785156
56.05950164794922
56.267398834228516
55.973899841308594
55.92890167236328
56.49769973754883
56.069400787353516
56.269100189208984
55.98400115966797
56.04499816894531
55.969200134277344
56.390499114990234
56.368099212646484
55.48889923095703
55.438499450683594
55.258399963378906
55.17390060424805
55.95199966430664
55.76390075683594
55.769901275634766
55.55939865112305
55.882598876953125
55.785400390625
55.57310104370117
55.44490051269531
55.9452018737793
55.94029998779297
55.95909881591797
55.92449951171875
55.60409927368164
