# vtk DataFile Version 3.0
SHAPE_sfm_50k_v20200323
ASCII
DATASET POLYDATA
POINTS 702 float
0.12675089 0.21594298 0.052769333
0.12675089 0.2164191 0.051854342
0.125992 0.2164191 0.052769333
0.1284309 0.21504611 0.052769333
0.13011092 0.21420163 0.052769333
0.13011092 0.21473914 0.051867604
0.12903625 0.21473914 0.052769333
0.1284309 0.21600676 0.051089346
0.12757319 0.2164191 0.051089346
0.1334709 0.21254802 0.052769333
0.1334709 0.21305913 0.051682055
0.13231075 0.21305913 0.052769333
0.13011092 0.21523023 0.051089346
0.13419926 0.21305913 0.051089346
0.13100845 0.21473914 0.051089346
0.13179088 0.2133252 0.052769333
0.13179088 0.21429807 0.051089346
0.1334709 0.21341306 0.051089346
0.12339091 0.21806419 0.052769333
0.12507087 0.2170142 0.052769333
0.12339091 0.21809912 0.052694947
0.12507087 0.21780586 0.051089346
0.1245873 0.21809912 0.051089346
0.12675089 0.21684784 0.051089346
0.12339091 0.21882892 0.051089346
0.11499089 0.22310632 0.051089346
0.11667091 0.22221988 0.051089346
0.11499089 0.2231391 0.05102703
0.114935756 0.2231391 0.051089346
0.11667091 0.22297025 0.04940933
0.116381526 0.2231391 0.04940933
0.12339091 0.2196759 0.04940933
0.12320876 0.21977913 0.04940933
0.12178528 0.21977913 0.051089346
0.11835086 0.22137976 0.051089346
0.12003088 0.22063679 0.051089346
0.11835086 0.22145915 0.05090168
0.11819291 0.22145915 0.051089346
0.12003088 0.2213012 0.04940933
0.11967552 0.22145915 0.04940933
0.11835086 0.22206116 0.04940933
0.1217109 0.22055447 0.04940933
0.1217109 0.21982175 0.051089346
0.1284309 0.2164191 0.05044079
0.13011092 0.21634519 0.04940933
0.12995684 0.2164191 0.04940933
0.13179088 0.21473914 0.050430685
0.1334709 0.21449184 0.04940933
0.1330381 0.21473914 0.04940933
0.13179088 0.21545821 0.04940933
0.13515091 0.21361452 0.04940933
0.12507087 0.21809912 0.05053875
0.12675089 0.21788377 0.04940933
0.12631738 0.21809912 0.04940933
0.12507087 0.21872419 0.04940933
0.1284309 0.21712285 0.04940933
0.13851088 0.21745491 0.041009337
0.13744122 0.21809912 0.041009337
0.13683087 0.21809912 0.041629136
0.13683087 0.21741527 0.042689323
0.13683087 0.21846855 0.041009337
0.10659087 0.23104465 0.04436934
0.10659087 0.23153913 0.043301493
0.10544729 0.23153913 0.04436934
0.10491091 0.23182946 0.04436934
0.10491091 0.23270029 0.042689323
0.10659087 0.2318489 0.042689323
0.10827088 0.23060346 0.04436934
0.107206166 0.23153913 0.042689323
0.1099509 0.23051149 0.042689323
0.10827088 0.23107123 0.042689323
0.1099509 0.23024613 0.04436934
0.09987092 0.22731489 0.05444935
0.10155088 0.22707826 0.05444935
0.100524426 0.2281791 0.052769333
0.09987092 0.2281791 0.052937806
0.10323089 0.22661698 0.05444935
0.10155088 0.22804356 0.052769333
0.09987092 0.2282837 0.052769333
0.10323089 0.22778004 0.052769333
0.10659087 0.22649914 0.05286187
0.10491091 0.22649914 0.053658724
0.10491091 0.22584528 0.05444935
0.10350335 0.22649914 0.05444935
0.1099509 0.22423327 0.05444935
0.1099509 0.22481912 0.05385989
0.10863668 0.22481912 0.05444935
0.10659087 0.22523034 0.05444935
0.10827088 0.22628015 0.052769333
0.106960654 0.22649914 0.052769333
0.10827088 0.22492123 0.05444935
0.1099509 0.22583914 0.052769333
0.10491091 0.22720921 0.052769333
0.10659087 0.22657245 0.052769333
0.11163092 0.22425985 0.052769333
0.110939324 0.22481912 0.052769333
0.11143297 0.2231391 0.05444935
0.11163092 0.2231391 0.054293215
0.11331087 0.2231391 0.052835464
0.11331087 0.2231797 0.052769333
0.113378525 0.2231391 0.052769333
0.1099509 0.2337814 0.032609344
0.11081177 0.23321915 0.032609344
0.11152148 0.23321915 0.030929327
0.11743027 0.22985911 0.030929327
0.11667091 0.23030758 0.030929327
0.11667091 0.22995836 0.032609344
0.1099509 0.23459649 0.030929327
0.12507087 0.2263403 0.030929327
0.1246143 0.22649914 0.030929327
0.12507087 0.22602594 0.032609344
0.12675089 0.22551763 0.032609344
0.11684328 0.22985911 0.032609344
0.123833895 0.22649914 0.032609344
0.13011092 0.2246821 0.030929327
0.12979978 0.22481912 0.030929327
0.13011092 0.22433871 0.032609344
0.1284309 0.22503197 0.032609344
0.12675089 0.22585249 0.030929327
0.12895745 0.22481912 0.032609344
0.12339091 0.22696471 0.030929327
0.12339091 0.22668523 0.032609344
0.1284309 0.22537363 0.030929327
0.13179088 0.2240408 0.030929327
0.13179088 0.22366667 0.032609344
0.1334709 0.2231391 0.03225705
0.1343509 0.2231391 0.030929327
0.1334709 0.22347122 0.030929327
0.1331976 0.2231391 0.032609344
0.10323089 0.22649914 0.05460334
0.10155088 0.22649914 0.055311233
0.10491091 0.22481912 0.055731088
0.10659087 0.22481912 0.054934233
0.10827088 0.22481912 0.054544806
0.10899222 0.2231391 0.056129336
0.1099509 0.2231391 0.05554819
0.13683087 0.22267288 0.02924934
0.13515091 0.22307348 0.02924934
0.13515091 0.22286355 0.030929327
0.13683087 0.22256398 0.030929327
0.13497359 0.2231391 0.02924934
0.1099509 0.23302174 0.035969347
0.1099509 0.23321915 0.03465718
0.10957414 0.23321915 0.035969347
0.1099509 0.23329562 0.03428933
0.10827088 0.23435456 0.03428933
0.10827088 0.23385888 0.035969347
0.10740483 0.2348991 0.03428933
0.12675089 0.2230838 0.03932935
0.12675089 0.2231391 0.03919992
0.12655574 0.2231391 0.03932935
0.1284309 0.22258604 0.03932935
0.13011092 0.2226392 0.037649333
0.12881488 0.2231391 0.037649333
0.1284309 0.2231391 0.03798479
0.13179088 0.22150856 0.03932935
0.13011092 0.22198433 0.03932935
0.1334709 0.22101033 0.03932935
0.1334709 0.22145915 0.03834933
0.13197047 0.22145915 0.03932935
0.13683087 0.21935833 0.03932935
0.13683087 0.21977913 0.03836459
0.13613945 0.21977913 0.03932935
0.1334709 0.22176754 0.037649333
0.13179088 0.22219682 0.037649333
0.13515091 0.22030121 0.03932935
0.13515091 0.22102714 0.037649333
0.13426071 0.22145915 0.037649333
0.13683087 0.22004873 0.037649333
0.12507087 0.22289997 0.041009337
0.12675089 0.22239387 0.041009337
0.12507087 0.2231391 0.04040748
0.12434965 0.2231391 0.041009337
0.1284309 0.22197205 0.041009337
0.13515091 0.21948433 0.041009337
0.13515091 0.21977913 0.040450037
0.13467407 0.21977913 0.041009337
0.13011092 0.22148627 0.041009337
0.13179088 0.22108573 0.041009337
0.13179088 0.22145915 0.039494783
0.13023132 0.22145915 0.041009337
0.1334709 0.22047484 0.041009337
0.13851088 0.21830124 0.03932935
0.13851088 0.2190193 0.037649333
0.13727432 0.21977913 0.037649333
0.13515091 0.22242785 0.032609344
0.1334709 0.22303307 0.032609344
0.13683087 0.22194093 0.032609344
0.13683087 0.22113252 0.03428933
0.13683087 0.22145915 0.033530235
0.1360771 0.22145915 0.03428933
0.1334709 0.22255963 0.03428933
0.131971 0.2231391 0.03428933
0.13515091 0.22185487 0.03428933
0.1217109 0.22271109 0.04436934
0.12339091 0.22203511 0.04436934
0.1217109 0.2231391 0.043314964
0.12071675 0.2231391 0.04436934
0.12507087 0.2214058 0.04436934
0.12507087 0.22145915 0.044256896
0.12492353 0.22145915 0.04436934
0.13683087 0.21624124 0.04436934
0.13683087 0.2164191 0.044115335
0.13654822 0.2164191 0.04436934
0.12339091 0.22275472 0.042689323
0.12237531 0.2231391 0.042689323
0.12507087 0.22216529 0.042689323
0.12675089 0.2209214 0.04436934
0.12675089 0.22145915 0.043195635
0.1276241 0.22145915 0.042689323
0.12675089 0.22168368 0.042689323
0.13011092 0.22095996 0.042689323
0.1284309 0.22126567 0.042689323
0.13011092 0.22011888 0.04436934
0.1284309 0.22045982 0.04436934
0.1334709 0.21855897 0.04436934
0.1334709 0.21976948 0.042689323
0.13179088 0.21977913 0.044208825
0.13179088 0.21965206 0.04436934
0.13144153 0.21977913 0.04436934
0.13515091 0.21736258 0.04436934
0.13581294 0.21809912 0.042689323
0.13515091 0.21809912 0.043354303
0.13411546 0.21809912 0.04436934
0.13345635 0.21977913 0.042689323
0.13515091 0.2185393 0.042689323
0.13179088 0.22070295 0.042689323
0.11835086 0.22933084 0.030929327
0.11807448 0.22985911 0.02924934
0.11835086 0.22970098 0.02924934
0.12003088 0.22875851 0.02924934
0.12003088 0.2284354 0.030929327
0.12114644 0.2281791 0.02924934
0.120542526 0.2281791 0.030929327
0.11163092 0.23314619 0.030929327
0.11163092 0.23321915 0.030664176
0.11331087 0.23217893 0.030929327
0.1217109 0.22763526 0.030929327
0.1217109 0.22790778 0.02924934
0.12339091 0.2272616 0.02924934
0.11667091 0.23065865 0.02924934
0.11499089 0.23153913 0.02973327
0.11516845 0.23153913 0.02924934
0.11331087 0.23258013 0.02924934
0.11499089 0.23164743 0.02924934
0.1122362 0.23321915 0.02924934
0.11499089 0.23126727 0.030929327
0.11449033 0.23153913 0.030929327
0.11163092 0.23367065 0.02924934
0.11043662 0.2348991 0.02924934
0.1099509 0.2348991 0.0304237
0.1099509 0.23583448 0.02924934
0.12557048 0.22649914 0.02924934
0.12507087 0.22649914 0.030129284
0.12675089 0.22611499 0.02924934
0.13011092 0.22481912 0.030178845
0.1284309 0.22560501 0.02924934
0.12507087 0.22667474 0.02924934
0.13011092 0.22497791 0.02924934
0.1334709 0.22370392 0.02924934
0.13050067 0.22481912 0.02924934
0.13179088 0.22432119 0.02924934
0.12675089 0.22445166 0.035969347
0.12675089 0.22481912 0.034961224
0.12538779 0.22481912 0.035969347
0.12507087 0.22557968 0.03428933
0.12339091 0.22624803 0.03428933
0.12339091 0.22544688 0.035969347
0.12507087 0.22491336 0.035969347
0.1284309 0.22401893 0.035969347
0.1284309 0.22456616 0.03428933
0.12757295 0.22481912 0.03428933
0.13011092 0.22393835 0.03428933
0.13011092 0.22339678 0.035969347
0.12675089 0.22504956 0.03428933
0.13077378 0.2231391 0.035969347
0.13179088 0.2231391 0.034567982
0.13179088 0.22321326 0.03428933
0.13683087 0.22058696 0.035969347
0.13851088 0.22037566 0.03428933
0.13851088 0.21977913 0.035858124
0.1384306 0.21977913 0.035969347
0.1393885 0.21977913 0.03428933
0.12507087 0.2241897 0.037649333
0.12675089 0.22377533 0.037649333
0.12339091 0.22481912 0.037198067
0.12507087 0.22481912 0.036171734
0.12339091 0.22461861 0.037649333
0.13011092 0.2231391 0.03655693
0.1284309 0.22328782 0.037649333
0.10659087 0.22963715 0.047729343
0.10659087 0.22985911 0.047300935
0.10586959 0.22985911 0.047729343
0.10827088 0.22985911 0.04698223
0.10827088 0.2295469 0.047729343
0.1099509 0.22985911 0.046125203
0.1099509 0.22930872 0.047729343
0.12003088 0.22913855 0.027569324
0.11955589 0.22985911 0.025889337
0.11882305 0.22985911 0.027569324
0.12003088 0.2295962 0.025889337
0.12339091 0.22755027 0.027569324
0.12284273 0.2281791 0.025889337
0.12183851 0.2281791 0.027569324
0.1217109 0.22824013 0.027569324
0.11331087 0.23296207 0.027569324
0.11331087 0.23321915 0.026322007
0.11290991 0.23321915 0.027569324
0.11667091 0.2310617 0.027569324
0.1165238 0.23153913 0.025889337
0.11579937 0.23153913 0.027569324
0.11667091 0.23145932 0.025889337
0.12339091 0.22792763 0.025889337
0.1217109 0.22873002 0.025889337
0.11499089 0.23198861 0.027569324
0.11163092 0.23413205 0.027569324
0.11115855 0.2348991 0.025889337
0.11078566 0.2348991 0.027569324
0.11163092 0.23448318 0.025889337
0.11499089 0.23233998 0.025889337
0.11344099 0.23321915 0.025889337
0.11331087 0.23330176 0.025889337
0.11835086 0.23052305 0.025889337
0.11835086 0.23014057 0.027569324
0.1099509 0.23646349 0.025889337
0.1099509 0.23608357 0.027569324
0.12507087 0.22726566 0.025889337
0.12675089 0.22637224 0.027569324
0.12675089 0.22649914 0.026823014
0.12637943 0.22649914 0.027569324
0.1284309 0.22584146 0.027569324
0.12507087 0.22695893 0.027569324
0.1401909 0.22145915 0.030977637
0.13851088 0.22145915 0.032348424
0.1401909 0.21985811 0.032609344
0.13851088 0.22231919 0.030929327
0.13813066 0.22145915 0.032609344
0.13851088 0.22128385 0.032609344
0.14025235 0.21977913 0.032609344
0.14130312 0.21977913 0.030929327
0.14022696 0.22145915 0.030929327
0.1401909 0.22149092 0.030929327
0.11835086 0.22902471 0.032609344
0.12003088 0.22816724 0.032609344
0.12003088 0.2281791 0.032536775
0.12000853 0.2281791 0.032609344
0.1217109 0.22738737 0.032609344
0.11499089 0.2308644 0.032609344
0.11373389 0.23153913 0.032609344
0.11163092 0.23273116 0.032609344
0.11331087 0.23177707 0.032609344
0.11667091 0.22950023 0.03428933
0.11667091 0.22985911 0.033008635
0.12003088 0.22783029 0.03428933
0.11835086 0.22862422 0.03428933
0.1160233 0.22985911 0.03428933
0.11932647 0.2281791 0.03428933
0.12339091 0.22649914 0.0334374
0.12283361 0.22649914 0.03428933
0.1217109 0.22700024 0.03428933
0.11331087 0.23134327 0.03428933
0.11331087 0.23153913 0.03354305
0.11297333 0.23153913 0.03428933
0.11499089 0.23042047 0.03428933
0.11163092 0.23232204 0.03428933
0.110076666 0.23321915 0.03428933
0.1099509 0.2227537 0.056129336
0.11163092 0.22207803 0.056129336
0.11331087 0.22130632 0.056129336
0.11331087 0.22145915 0.05589509
0.11303955 0.22145915 0.056129336
0.11163092 0.22303683 0.05444935
0.11667091 0.21918643 0.056129336
0.11667091 0.21977913 0.055223495
0.1156553 0.21977913 0.056129336
0.12339091 0.21626174 0.056129336
0.12339091 0.2164191 0.05586058
0.122997165 0.2164191 0.056129336
0.11499089 0.2202025 0.056129336
0.11499089 0.22131985 0.05444935
0.11476457 0.22145915 0.05444935
0.11667091 0.22030509 0.05444935
0.11331087 0.22222763 0.05444935
0.11835086 0.21831042 0.056129336
0.11835086 0.21948409 0.05444935
0.11772555 0.21977913 0.05444935
0.118801594 0.21809912 0.056129336
0.12003088 0.2187571 0.05444935
0.12003088 0.21756405 0.056129336
0.12003088 0.21809912 0.055361986
0.1217109 0.2169041 0.056129336
0.12339091 0.21722323 0.05444935
0.1217109 0.217996 0.05444935
0.121484935 0.21809912 0.05444935
0.10323089 0.23012716 0.04940933
0.10491091 0.22985911 0.048466176
0.10323089 0.2309466 0.047729343
0.10384846 0.22985911 0.04940933
0.10491091 0.23025209 0.047729343
0.11499089 0.22397882 0.04940933
0.11498153 0.22481912 0.047729343
0.11374384 0.22481912 0.04940933
0.11331087 0.22515869 0.04940933
0.11331087 0.22617304 0.047729343
0.11294192 0.22649914 0.047729343
0.11667091 0.22378641 0.047729343
0.11499089 0.22481251 0.047729343
0.11163092 0.22647464 0.04940933
0.11163092 0.22649914 0.04937443
0.11159754 0.22649914 0.04940933
0.1099509 0.2281791 0.049320698
0.1099509 0.2280944 0.04940933
0.11163092 0.22797054 0.047729343
0.111419916 0.2281791 0.047729343
0.11667091 0.2231391 0.049045414
0.11779946 0.2231391 0.047729343
0.13851088 0.22232908 0.02924934
0.13851088 0.22188735 0.027569324
0.1401909 0.2217058 0.02924934
0.1401909 0.22145915 0.02821374
0.13683087 0.22259837 0.027569324
0.14071918 0.22145915 0.02924934
0.11667091 0.22806984 0.037649333
0.116502106 0.2281791 0.037649333
0.11667091 0.22727412 0.03932935
0.11530793 0.2281791 0.03932935
0.11835086 0.22625369 0.03932935
0.12003088 0.22537303 0.03932935
0.11835086 0.22649914 0.03882423
0.11792809 0.22649914 0.03932935
0.12003088 0.22610825 0.037649333
0.11935878 0.22649914 0.037649333
0.11499089 0.22923905 0.037649333
0.11423069 0.22985911 0.037649333
0.11499089 0.22842807 0.03932935
0.11343038 0.22985911 0.03932935
0.1217109 0.22481912 0.038693964
0.1217109 0.22525162 0.037649333
0.122775376 0.22481912 0.037649333
0.12117982 0.22481912 0.03932935
0.1217109 0.22459549 0.03932935
0.12339091 0.22402447 0.03932935
0.11163092 0.23153448 0.03932935
0.11331087 0.22999299 0.03932935
0.11163092 0.23153913 0.03929776
0.11162108 0.23153913 0.03932935
0.11331087 0.23055565 0.037649333
0.11182624 0.23153913 0.037649333
0.11835086 0.22708553 0.037649333
0.12507087 0.22354513 0.03932935
0.1099509 0.23213702 0.03932935
0.11163092 0.23169363 0.037649333
0.1099509 0.23291653 0.037649333
0.10827088 0.23186111 0.041009337
0.10902351 0.23153913 0.041009337
0.10827088 0.2327779 0.03932935
0.10659087 0.23259765 0.041009337
0.10693848 0.23321915 0.03932935
0.1099509 0.23116994 0.041009337
0.1099509 0.23153913 0.04033211
0.10659087 0.23321915 0.039592713
0.1052683 0.23321915 0.041009337
0.10659087 0.23333412 0.03932935
0.1334709 0.22220552 0.035969347
0.13515091 0.22145915 0.036184013
0.13524282 0.22145915 0.035969347
0.13179088 0.22275907 0.035969347
0.13515091 0.22150803 0.035969347
0.13851088 0.21973264 0.035969347
0.11667091 0.23153913 0.025514454
0.1099509 0.23657912 0.025453597
0.11667091 0.22886056 0.035969347
0.11499089 0.22985911 0.03607583
0.11667091 0.2281791 0.03742391
0.1217109 0.2261343 0.035969347
0.12100381 0.22649914 0.035969347
0.12003088 0.22649914 0.036910176
0.115050554 0.22985911 0.035969347
0.12003088 0.22702873 0.035969347
0.11835086 0.22793347 0.035969347
0.11790323 0.2281791 0.035969347
0.112211585 0.23153913 0.035969347
0.11163092 0.23194867 0.035969347
0.11331087 0.23087782 0.035969347
0.11499089 0.22989702 0.035969347
0.13555825 0.2231391 0.027569324
0.13515091 0.2231391 0.028816313
0.10827088 0.23153913 0.041636527
0.11499089 0.22224271 0.052769333
0.116509736 0.22145915 0.052769333
0.11667091 0.22137195 0.052769333
0.11667091 0.22145915 0.052612722
0.11835086 0.22057647 0.052769333
0.12333125 0.21809912 0.052769333
0.1217109 0.21901459 0.052769333
0.1217109 0.21977913 0.051186144
0.120218754 0.21977913 0.052769333
0.12003088 0.21986651 0.052769333
0.11499089 0.2281791 0.039811313
0.11499089 0.22767133 0.041009337
0.11667091 0.22650576 0.041009337
0.11331087 0.22907442 0.041009337
0.11331087 0.22985911 0.039536268
0.11430609 0.2281791 0.041009337
0.12003088 0.22475696 0.041009337
0.12003088 0.22481912 0.040832877
0.11989063 0.22481912 0.041009337
0.11243796 0.22985911 0.041009337
0.12339091 0.22346753 0.041009337
0.1217109 0.22405231 0.041009337
0.1166808 0.22649914 0.041009337
0.11163092 0.23050022 0.041009337
0.11835086 0.22553235 0.041009337
0.11331087 0.22859687 0.042689323
0.11499089 0.22703373 0.042689323
0.11371839 0.2281791 0.042689323
0.11566669 0.22649914 0.042689323
0.11667091 0.22649914 0.041024
0.11667091 0.22582299 0.042689323
0.11174476 0.22985911 0.042689323
0.1217109 0.22340971 0.042689323
0.12339091 0.2231391 0.041798323
0.11163092 0.22992188 0.042689323
0.12003088 0.224123 0.042689323
0.11847192 0.22481912 0.042689323
0.11835086 0.22487956 0.042689323
0.10367274 0.23153913 0.046049327
0.10323089 0.23153913 0.046455353
0.10491091 0.23099118 0.046049327
0.10659087 0.23040909 0.046049327
0.11639398 0.22481912 0.046049327
0.11499089 0.22481912 0.047715753
0.11667091 0.22466588 0.046049327
0.11499089 0.22566926 0.046049327
0.11331087 0.22649914 0.047192752
0.11403179 0.22649914 0.046049327
0.11163092 0.2281791 0.0474841
0.10323089 0.2317419 0.046049327
0.10827088 0.23014456 0.046049327
0.1099509 0.22987473 0.046049327
0.1129061 0.2281791 0.046049327
0.11163092 0.22918332 0.046049327
0.11331087 0.22763383 0.046049327
0.11835086 0.22370923 0.046049327
0.11835086 0.2231391 0.047154814
0.11938959 0.2231391 0.046049327
0.11001462 0.22985911 0.046049327
0.11835086 0.21809912 0.05643511
0.1217109 0.2164191 0.056939512
0.13851088 0.21809912 0.03975591
0.138847 0.21809912 0.03932935
0.11499089 0.22638643 0.04436934
0.11667091 0.22525996 0.04436934
0.11499089 0.22649914 0.04406327
0.11485839 0.22649914 0.04436934
0.11835086 0.22431809 0.04436934
0.11835086 0.22481912 0.04285288
0.11743426 0.22481912 0.04436934
0.12003088 0.22346312 0.04436934
0.11331087 0.22849292 0.04436934
0.11172545 0.22985911 0.04436934
0.11354631 0.2281791 0.04436934
0.11163092 0.2299006 0.04436934
0.10559094 0.2281791 0.051089346
0.10659087 0.2281791 0.050369352
0.10491091 0.22932708 0.04940933
0.10491091 0.22846347 0.051089346
0.10827088 0.22727525 0.051089346
0.10659087 0.22775799 0.051089346
0.10659087 0.22871208 0.04940933
0.10969186 0.2281791 0.04940933
0.10827088 0.2281791 0.049735785
0.1099509 0.22661394 0.051089346
0.10155088 0.2290361 0.051089346
0.10323089 0.2289043 0.051089346
0.10323089 0.22985911 0.049818933
0.10155088 0.22985911 0.05001831
0.10827088 0.22842842 0.04940933
0.10958922 0.2348991 0.030929327
0.10827601 0.2348991 0.032609344
0.10827088 0.2349028 0.032609344
0.1217109 0.2281791 0.027829468
0.11835086 0.22985911 0.02864492
0.1334709 0.22393131 0.027569324
0.13179088 0.22455215 0.027569324
0.13112944 0.22481912 0.027569324
0.13011092 0.22523415 0.027569324
0.13515091 0.22330463 0.027569324
0.1334709 0.21977913 0.04267165
0.13011092 0.22145915 0.04110822
0.1284309 0.22145915 0.042272627
0.109868824 0.23657912 0.025889337
0.10964042 0.23657912 0.027569324
0.12137413 0.22145915 0.047729343
0.1217109 0.22145915 0.04740271
0.1217109 0.22204578 0.046049327
0.12304294 0.22145915 0.046049327
0.12003088 0.22205275 0.047729343
0.12003088 0.22281414 0.046049327
0.1334709 0.21575826 0.047729343
0.1334709 0.2164191 0.046922088
0.13235193 0.2164191 0.047729343
0.13515091 0.21472943 0.047729343
0.13515091 0.21473914 0.047715962
0.13513392 0.21473914 0.047729343
0.11835086 0.22284013 0.047729343
0.12339091 0.22050625 0.047729343
0.12339091 0.2213012 0.046049327
0.1217109 0.22130883 0.047729343
0.12675089 0.21894705 0.047729343
0.12734789 0.21977913 0.046049327
0.12675089 0.21977913 0.04638931
0.1284309 0.21939212 0.046049327
0.12507087 0.21977913 0.047554135
0.13011092 0.21757185 0.047729343
0.13011092 0.21809912 0.04703608
0.12885857 0.21809912 0.047729343
0.13011092 0.21884525 0.046049327
0.1284309 0.21826982 0.047729343
0.13515091 0.21605098 0.046049327
0.13459474 0.2164191 0.046049327
0.12507087 0.21967763 0.047729343
0.12486631 0.21977913 0.047729343
0.13179088 0.21674371 0.047729343
0.1334709 0.21716237 0.046049327
0.13187551 0.21809912 0.046049327
0.13179088 0.21809912 0.046103477
0.13179088 0.21814555 0.046049327
0.12507087 0.22059983 0.046049327
0.12675089 0.21999598 0.046049327
0.12003088 0.22145915 0.049046397
0.12339091 0.21977913 0.049208313
0.1334709 0.21473914 0.049063265
0.13011092 0.2164191 0.049306095
0.13179088 0.2164191 0.04813257
0.12675089 0.21809912 0.049082547
0.1284309 0.21809912 0.047979444
0.13011092 0.21288478 0.056129336
0.13011092 0.21305913 0.05551979
0.12945414 0.21305913 0.056129336
0.12675089 0.21439433 0.056129336
0.12675089 0.21473914 0.055329263
0.12621492 0.21473914 0.056129336
0.12507087 0.21544892 0.056129336
0.12507087 0.21622068 0.05444935
0.12476176 0.2164191 0.05444935
0.12675089 0.21512705 0.05444935
0.13179088 0.21278507 0.056129336
0.1310656 0.21305913 0.05444935
0.13179088 0.2128061 0.05444935
0.12740439 0.21473914 0.05444935
0.1334709 0.21217555 0.05444935
0.1334709 0.2121647 0.056129336
0.1284309 0.2134496 0.056129336
0.1284309 0.21418238 0.05444935
0.13011092 0.2134223 0.05444935
0.11331087 0.22481912 0.049950123
0.11331087 0.22415602 0.051089346
0.110115945 0.22649914 0.051089346
0.11163092 0.2253542 0.051089346
0.11232513 0.22481912 0.051089346
0.12675089 0.21361375 0.057809323
0.12507087 0.21473914 0.057550073
0.13011092 0.21246457 0.057809323
0.1284309 0.21305913 0.05701399
0.1284309 0.21270216 0.057809323
0.12766474 0.21305913 0.057809323
0.13179088 0.21258485 0.057809323
0.109458506 0.23657912 0.02924934
0.12339091 0.22145915 0.045705467
0.13515091 0.2164191 0.045585245
0.12003088 0.2231391 0.04521379
0.1284309 0.21977913 0.045476496
0.13011092 0.21977913 0.044813126
0.1334709 0.21809912 0.04492268
0.10827088 0.2348991 0.03261867
0.12507087 0.2164191 0.0540435
0.1284309 0.21473914 0.05333078
0.13179088 0.21305913 0.053418964
0.1401909 0.21914959 0.03428933
0.1401909 0.21977913 0.032729626
0.11835086 0.21977913 0.054032624
0.12003088 0.21977913 0.052916527
0.1217109 0.21809912 0.054288596
0.11499089 0.22145915 0.054224014
0.10827088 0.23321915 0.038271427
0.10659087 0.23404282 0.037649333
0.10827088 0.2334168 0.037649333
0.10905695 0.23321915 0.037649333
0.1284309 0.22481912 0.03341925
0.11835086 0.2281791 0.035446435
0.1217109 0.22649914 0.035340786
0.10491091 0.23153913 0.044880748
0.11331087 0.2281791 0.045279056
0.11163092 0.22985911 0.044571072
0.11667091 0.22481912 0.045660913
0.10323089 0.2281791 0.0521414
0.1099509 0.22649914 0.05138907
0.10491091 0.2281791 0.051493496
0.10155088 0.2281791 0.05252385
0.10827088 0.22649914 0.05243197
0.11163092 0.22481912 0.051902622
POLYGONS 1291 5164
3 0 1 2
3 0 3 1
3 4 5 6
3 3 7 8
3 3 8 1
3 6 5 7
3 3 6 7
3 9 10 11
3 5 12 7
3 9 13 10
3 4 14 5
3 15 16 14
3 4 15 14
3 11 10 16
3 15 11 16
3 5 14 12
3 10 17 16
3 18 19 20
3 10 13 17
3 19 21 22
3 19 22 20
3 1 23 21
3 19 1 21
3 20 22 24
3 19 2 1
3 1 8 23
3 25 26 27
3 25 27 28
3 26 29 30
3 26 30 27
3 31 32 24
3 24 32 33
3 34 35 36
3 34 36 37
3 35 38 39
3 35 39 36
3 26 36 40
3 26 40 29
3 36 39 40
3 26 37 36
3 41 38 42
3 42 38 35
3 42 33 32
3 32 41 42
3 7 12 43
3 7 43 8
3 12 44 45
3 12 45 43
3 16 17 46
3 16 46 14
3 17 47 48
3 17 48 46
3 12 14 49
3 12 49 44
3 46 48 49
3 14 46 49
3 13 50 47
3 17 13 47
3 21 23 51
3 21 51 22
3 23 52 53
3 23 53 51
3 24 51 54
3 24 54 31
3 51 53 54
3 24 22 51
3 8 55 52
3 23 8 52
3 43 45 55
3 8 43 55
3 56 57 58
3 59 56 58
3 58 57 60
3 61 62 63
3 64 63 65
3 62 66 65
3 63 62 65
3 67 68 62
3 61 67 62
3 69 70 67
3 67 70 68
3 62 68 66
3 67 71 69
3 72 73 74
3 72 74 75
3 76 77 73
3 73 77 74
3 75 74 78
3 79 77 76
3 80 81 82
3 82 81 83
3 84 85 86
3 82 87 80
3 87 88 89
3 87 89 80
3 90 86 88
3 87 90 88
3 86 85 91
3 86 91 88
3 83 81 79
3 76 83 79
3 92 81 80
3 81 92 79
3 80 89 93
3 80 93 92
3 84 94 95
3 84 95 85
3 96 97 94
3 84 96 94
3 98 99 94
3 94 97 98
3 98 100 99
3 85 95 91
3 101 102 103
3 104 105 106
3 103 107 101
3 108 109 110
3 111 108 110
3 106 112 104
3 110 109 113
3 114 115 116
3 117 118 111
3 118 108 111
3 116 115 119
3 117 119 115
3 109 120 121
3 122 118 117
3 115 122 117
3 123 114 124
3 124 125 123
3 121 113 109
3 124 114 116
3 125 126 127
3 125 127 123
3 124 128 125
3 129 76 73
3 130 73 72
3 73 130 129
3 82 131 132
3 132 87 82
3 87 132 133
3 133 90 87
3 134 84 86
3 134 135 84
3 133 86 90
3 129 83 76
3 136 137 138
3 138 139 136
3 138 140 126
3 137 140 138
3 141 142 143
3 142 144 145
3 146 143 142
3 146 145 147
3 146 142 145
3 148 149 150
3 151 152 153
3 151 153 154
3 148 151 154
3 154 149 148
3 155 152 156
3 157 158 159
3 160 161 162
3 151 156 152
3 158 163 164
3 159 158 164
3 155 159 164
3 164 152 155
3 165 161 166
3 165 166 167
3 165 167 158
3 157 165 158
3 158 167 163
3 165 162 161
3 161 168 166
3 169 170 171
3 169 171 172
3 170 173 151
3 151 148 170
3 170 148 150
3 170 150 171
3 174 60 175
3 174 175 176
3 173 177 156
3 156 151 173
3 178 159 179
3 178 179 180
3 60 160 162
3 60 162 175
3 180 179 156
3 177 180 156
3 178 181 157
3 178 157 159
3 181 175 165
3 181 165 157
3 179 159 155
3 179 155 156
3 175 162 165
3 181 176 175
3 160 182 183
3 183 184 161
3 160 183 161
3 161 184 168
3 185 126 125
3 186 185 125
3 186 125 128
3 139 138 187
3 187 138 185
3 185 138 126
3 188 189 190
3 186 128 191
3 191 128 192
3 190 189 185
3 193 190 185
3 185 186 193
3 193 186 191
3 189 187 185
3 194 195 196
3 194 196 197
3 198 199 200
3 201 202 203
3 195 204 205
3 195 205 196
3 195 200 206
3 195 206 204
3 198 207 208
3 208 199 198
3 207 209 208
3 208 210 206
3 206 199 208
3 200 199 206
3 211 212 213
3 213 212 214
3 214 212 209
3 207 214 209
3 215 216 217
3 218 215 217
3 218 217 219
3 208 209 210
3 220 59 221
3 220 221 222
3 220 222 223
3 216 224 217
3 215 222 225
3 215 225 216
3 203 202 59
3 220 203 59
3 213 219 226
3 213 226 211
3 222 221 225
3 215 223 222
3 217 224 226
3 219 217 226
3 227 228 104
3 229 228 227
3 230 229 227
3 227 231 230
3 232 230 231
3 231 233 232
3 234 235 103
3 234 236 235
3 237 232 233
3 238 232 237
3 120 238 237
3 239 238 120
3 105 240 241
3 240 242 241
3 236 241 243
3 241 244 243
3 236 245 235
3 236 243 245
3 246 241 247
3 246 105 241
3 248 249 250
3 107 103 235
3 235 245 248
3 250 249 251
3 236 247 241
3 241 242 244
3 107 235 250
3 235 248 250
3 118 252 253
3 118 254 252
3 114 255 115
3 256 254 118
3 228 240 105
3 105 104 228
3 108 253 109
3 108 118 253
3 120 253 239
3 253 257 239
3 120 109 253
3 253 252 257
3 118 122 256
3 122 255 256
3 255 258 256
3 122 115 255
3 123 127 259
3 255 260 258
3 140 259 127
3 127 126 140
3 114 123 255
3 123 261 255
3 261 260 255
3 259 261 123
3 262 263 264
3 265 266 267
3 267 268 265
3 268 264 265
3 269 270 271
3 272 270 269
3 269 273 272
3 263 271 274
3 264 263 265
3 263 274 265
3 262 269 263
3 269 271 263
3 273 275 272
3 275 276 272
3 276 277 272
3 276 192 277
3 278 279 188
3 278 280 279
3 278 281 280
3 280 282 279
3 283 284 262
3 267 285 286
3 286 268 267
3 286 264 268
3 286 285 287
3 287 283 286
3 283 264 286
3 283 262 264
3 153 288 273
3 288 275 273
3 289 262 284
3 269 262 289
3 289 153 269
3 153 273 269
3 290 291 292
3 293 291 290
3 290 294 293
3 295 293 294
3 294 296 295
3 297 298 299
3 300 298 297
3 301 302 303
3 304 303 302
3 305 306 307
3 308 309 310
3 311 309 308
3 312 302 301
3 304 300 297
3 313 300 304
3 302 313 304
3 314 310 309
3 315 316 317
3 318 316 315
3 315 306 318
3 305 319 306
3 319 320 306
3 305 314 319
3 309 319 314
3 306 320 321
3 322 311 308
3 308 323 322
3 298 322 323
3 306 321 318
3 315 307 306
3 316 324 325
3 325 317 316
3 326 312 301
3 323 299 298
3 327 328 329
3 327 330 328
3 301 331 326
3 331 328 326
3 331 329 328
3 332 333 334
3 187 335 139
3 187 336 335
3 336 333 335
3 337 333 336
3 334 333 337
3 334 338 339
3 332 340 341
3 335 333 332
3 332 341 335
3 334 339 332
3 339 340 332
3 342 104 112
3 343 344 345
3 342 231 227
3 227 104 342
3 121 237 346
3 346 237 233
3 344 233 231
3 120 237 121
3 345 344 231
3 342 345 231
3 346 233 344
3 343 346 344
3 246 247 347
3 347 247 348
3 347 106 105
3 105 246 347
3 234 103 349
3 349 103 102
3 349 350 236
3 236 234 349
3 350 348 247
3 247 236 350
3 351 342 352
3 343 345 353
3 351 354 342
3 342 112 352
3 351 352 355
3 353 345 356
3 266 357 358
3 358 357 346
3 359 358 346
3 360 361 362
3 357 121 346
3 354 356 345
3 345 342 354
3 346 343 359
3 359 343 353
3 360 363 361
3 364 362 361
3 347 348 361
3 363 347 361
3 349 102 364
3 364 102 365
3 361 350 349
3 364 361 349
3 355 352 347
3 363 355 347
3 361 348 350
3 352 106 347
3 366 367 135
3 368 369 370
3 367 371 96
3 367 96 135
3 372 373 374
3 375 376 377
3 378 379 380
3 378 380 369
3 378 374 381
3 378 381 379
3 367 370 382
3 367 382 371
3 368 378 369
3 370 369 382
3 383 384 385
3 372 383 385
3 386 387 384
3 383 386 384
3 369 380 382
3 374 373 381
3 372 385 373
3 388 389 386
3 390 377 391
3 390 391 392
3 389 393 387
3 377 376 391
3 388 390 389
3 386 389 387
3 390 392 393
3 390 393 389
3 394 395 396
3 394 397 395
3 395 398 396
3 399 400 401
3 402 403 404
3 399 405 406
3 406 400 399
3 407 408 409
3 395 292 398
3 402 404 408
3 407 402 408
3 409 408 410
3 411 409 410
3 412 413 410
3 408 412 410
3 399 30 414
3 399 414 405
3 402 401 400
3 400 403 402
3 410 413 296
3 408 404 412
3 414 415 405
3 136 416 417
3 416 418 419
3 417 420 136
3 421 419 418
3 422 423 424
3 424 423 425
3 426 427 428
3 426 428 429
3 427 430 431
3 427 431 428
3 432 433 434
3 434 433 435
3 434 425 423
3 423 432 434
3 436 437 430
3 427 436 430
3 436 438 437
3 427 439 436
3 440 441 436
3 440 436 439
3 441 287 438
3 441 438 436
3 442 443 444
3 442 444 445
3 446 447 444
3 443 446 444
3 424 428 448
3 424 448 422
3 428 431 448
3 424 429 428
3 443 435 433
3 433 446 443
3 283 287 449
3 449 287 441
3 450 444 451
3 450 451 452
3 444 447 451
3 450 445 444
3 154 153 289
3 154 289 284
3 449 149 284
3 449 284 283
3 284 149 154
3 449 150 149
3 453 454 455
3 454 450 455
3 456 455 457
3 456 453 455
3 458 459 454
3 456 457 460
3 456 460 461
3 454 459 450
3 460 457 462
3 152 164 288
3 164 275 288
3 152 288 153
3 166 168 278
3 163 167 463
3 166 278 464
3 278 465 464
3 164 163 463
3 166 464 167
3 164 466 275
3 463 466 164
3 464 465 467
3 167 464 463
3 464 467 463
3 183 281 184
3 468 281 183
3 311 469 309
3 319 309 469
3 311 322 469
3 324 316 470
3 432 471 472
3 432 472 433
3 422 473 423
3 437 474 475
3 430 437 475
3 430 475 476
3 287 285 438
3 430 476 431
3 432 423 473
3 432 473 471
3 471 477 472
3 448 476 478
3 448 478 479
3 448 479 480
3 448 480 473
3 422 448 473
3 438 285 267
3 437 438 267
3 437 267 474
3 481 482 451
3 482 141 451
3 451 141 452
3 483 481 446
3 446 481 447
3 476 475 478
3 473 480 471
3 448 431 476
3 472 477 484
3 472 484 483
3 433 472 483
3 446 433 483
3 451 447 481
3 136 420 485
3 136 485 486
3 137 136 486
3 137 486 140
3 168 184 281
3 281 278 168
3 366 135 134
3 68 487 456
3 66 68 456
3 69 458 454
3 69 454 487
3 70 69 487
3 70 487 68
3 65 66 456
3 487 454 453
3 487 453 456
3 488 489 26
3 488 26 25
3 25 28 488
3 488 28 100
3 490 491 489
3 490 492 491
3 493 20 24
3 494 493 24
3 24 33 495
3 494 24 495
3 494 495 496
3 18 20 493
3 489 491 26
3 495 42 35
3 496 495 35
3 497 496 35
3 491 37 26
3 492 497 35
3 35 34 492
3 492 34 37
3 492 37 491
3 495 33 42
3 466 276 275
3 466 463 276
3 463 191 276
3 191 192 276
3 278 190 465
3 188 190 278
3 193 191 463
3 463 467 193
3 190 193 467
3 467 465 190
3 468 280 281
3 424 425 498
3 499 500 424
3 501 498 502
3 498 434 502
3 434 435 502
3 501 503 498
3 498 425 434
3 504 505 506
3 501 502 507
3 499 498 503
3 499 424 498
3 508 440 509
3 441 440 508
3 505 439 427
3 429 424 500
3 500 510 429
3 458 511 459
3 511 445 459
3 511 442 445
3 512 429 510
3 426 429 512
3 512 427 426
3 512 505 427
3 512 506 505
3 504 509 505
3 509 440 505
3 440 439 505
3 171 150 449
3 511 502 442
3 502 443 442
3 511 507 502
3 459 445 450
3 502 435 443
3 508 172 441
3 172 171 441
3 171 449 441
3 501 507 513
3 514 503 515
3 499 503 514
3 514 516 499
3 516 517 499
3 517 500 499
3 503 501 513
3 513 515 503
3 518 517 516
3 513 507 519
3 509 504 520
3 520 205 509
3 205 521 509
3 521 508 509
3 517 510 500
3 511 458 69
3 69 522 511
3 507 511 522
3 523 506 524
3 504 506 523
3 518 512 517
3 512 510 517
3 518 525 512
3 506 512 525
3 525 524 506
3 520 504 523
3 522 519 507
3 521 172 508
3 396 526 527
3 396 528 526
3 396 398 528
3 398 292 528
3 292 529 528
3 292 291 529
3 405 530 531
3 405 532 530
3 403 533 534
3 533 535 534
3 403 531 533
3 403 400 531
3 531 530 533
3 412 536 413
3 527 526 537
3 529 291 293
3 293 538 529
3 538 293 295
3 295 539 538
3 403 534 404
3 406 531 400
3 406 405 531
3 536 540 541
3 534 535 542
3 405 543 532
3 405 544 543
3 405 415 544
3 544 545 543
3 295 546 539
3 412 404 536
3 404 534 536
3 534 542 536
3 542 540 536
3 296 541 295
3 541 546 295
3 296 536 541
3 296 413 536
3 547 383 372
3 547 386 383
3 548 390 388
3 548 377 390
3 60 57 160
3 549 182 160
3 57 549 160
3 549 550 182
3 56 549 57
3 551 552 553
3 551 553 554
3 552 518 516
3 552 516 553
3 555 524 556
3 555 556 557
3 555 558 523
3 555 523 524
3 557 556 518
3 552 557 518
3 556 524 525
3 556 525 518
3 513 519 559
3 559 519 560
3 561 553 514
3 561 514 515
3 553 516 514
3 561 554 553
3 559 561 515
3 515 513 559
3 197 196 523
3 558 197 523
3 196 205 520
3 196 520 523
3 71 562 522
3 522 69 71
3 562 560 519
3 519 522 562
3 563 564 565
3 566 563 565
3 567 564 568
3 564 569 565
3 567 570 571
3 571 564 567
3 572 411 570
3 567 572 570
3 573 574 575
3 575 576 573
3 574 397 575
3 568 564 563
3 574 566 565
3 574 565 397
3 571 577 569
3 569 564 571
3 571 570 577
3 101 578 579
3 107 578 101
3 580 579 578
3 239 301 581
3 301 303 581
3 238 581 232
3 238 239 581
3 581 304 297
3 581 303 304
3 230 232 297
3 232 581 297
3 230 297 582
3 297 299 582
3 229 582 228
3 229 230 582
3 307 315 248
3 248 245 307
3 248 317 249
3 315 317 248
3 240 582 308
3 582 323 308
3 317 325 251
3 251 249 317
3 240 310 242
3 308 310 240
3 243 307 245
3 305 307 243
3 310 314 244
3 244 242 310
3 314 305 243
3 243 244 314
3 329 331 257
3 257 252 329
3 331 301 239
3 239 257 331
3 583 584 261
3 261 259 583
3 261 585 260
3 584 585 261
3 254 329 252
3 327 329 254
3 240 228 582
3 582 299 323
3 258 330 256
3 586 330 258
3 330 327 254
3 254 256 330
3 259 486 583
3 486 587 583
3 585 586 258
3 258 260 585
3 259 140 486
3 486 485 587
3 107 250 578
3 204 521 205
3 206 169 172
3 170 169 206
3 204 206 521
3 206 172 521
3 59 58 221
3 216 225 588
3 589 177 173
3 216 588 224
3 225 221 174
3 221 58 174
3 225 176 588
3 225 174 176
3 589 590 212
3 212 211 589
3 206 210 170
3 212 590 209
3 209 590 173
3 173 590 589
3 210 209 170
3 209 173 170
3 588 176 181
3 211 178 180
3 211 226 178
3 58 60 174
3 211 180 589
3 226 224 588
3 589 180 177
3 226 181 178
3 226 588 181
3 324 591 325
3 325 591 592
3 593 594 595
3 594 596 595
3 597 595 598
3 597 593 595
3 599 600 601
3 602 603 604
3 597 545 544
3 597 598 545
3 605 544 415
3 605 597 544
3 606 596 594
3 606 607 596
3 608 594 593
3 608 606 594
3 609 610 611
3 609 612 610
3 611 613 609
3 614 615 616
3 616 615 612
3 615 617 612
3 609 618 612
3 618 616 612
3 599 603 619
3 599 604 603
3 599 620 600
3 599 619 620
3 621 613 622
3 609 613 621
3 623 601 624
3 601 600 624
3 623 625 626
3 623 624 625
3 626 625 627
3 600 620 624
3 617 615 626
3 626 627 617
3 622 613 628
3 628 613 611
3 606 628 607
3 606 622 628
3 623 615 614
3 626 615 623
3 611 629 628
3 611 610 629
3 38 630 39
3 29 415 414
3 29 414 30
3 31 631 32
3 40 597 605
3 40 630 597
3 29 605 415
3 29 40 605
3 47 632 48
3 49 633 44
3 44 633 45
3 49 599 601
3 49 48 599
3 634 633 49
3 49 601 634
3 41 593 630
3 41 608 593
3 40 39 630
3 38 41 630
3 41 32 631
3 630 593 597
3 41 606 608
3 41 631 606
3 54 622 631
3 54 621 622
3 52 635 53
3 31 54 631
3 53 635 609
3 55 635 52
3 54 609 621
3 54 53 609
3 50 604 632
3 50 602 604
3 48 632 599
3 47 50 632
3 632 604 599
3 634 623 614
3 634 601 623
3 631 622 606
3 614 633 634
3 55 614 616
3 55 45 614
3 636 635 55
3 55 616 636
3 636 618 609
3 636 616 618
3 45 633 614
3 609 635 636
3 637 638 639
3 640 641 642
3 373 385 381
3 643 644 645
3 643 646 644
3 375 643 376
3 643 645 376
3 647 648 638
3 647 649 648
3 641 650 646
3 637 647 638
3 651 649 647
3 647 652 651
3 640 653 641
3 653 654 641
3 643 641 646
3 643 642 641
3 639 638 654
3 638 655 654
3 654 650 641
3 653 639 654
3 638 648 655
3 376 645 391
3 575 397 394
3 656 401 402
3 27 30 399
3 657 28 27
3 657 27 399
3 572 658 409
3 409 411 572
3 659 402 407
3 407 409 659
3 659 409 658
3 657 656 660
3 399 401 656
3 657 399 656
3 659 660 656
3 659 656 402
3 661 642 662
3 663 637 639
3 661 640 642
3 663 639 664
3 665 663 664
3 665 664 666
3 664 653 640
3 666 664 640
3 661 666 640
3 662 642 643
3 647 637 667
3 667 637 663
3 664 639 653
3 325 592 251
3 251 592 668
3 596 669 195
3 595 596 195
3 595 195 194
3 595 194 197
3 619 670 620
3 595 197 671
3 598 595 671
3 607 669 596
3 598 671 545
3 610 672 214
3 610 214 207
3 629 610 207
3 669 200 195
3 617 219 673
3 624 674 625
3 673 213 214
3 214 672 673
3 607 628 669
3 673 672 617
3 617 672 612
3 612 672 610
3 207 198 629
3 629 198 628
3 628 198 200
3 628 200 669
3 673 219 213
3 674 223 215
3 670 203 220
3 620 670 220
3 625 674 218
3 627 625 218
3 627 218 219
3 617 627 219
3 624 620 220
3 624 220 223
3 624 223 674
3 674 215 218
3 324 470 591
3 139 335 416
3 416 136 139
3 340 339 421
3 418 416 341
3 341 416 335
3 341 340 421
3 421 418 341
3 145 144 101
3 101 579 675
3 145 101 675
3 145 675 147
3 675 579 580
3 147 675 580
3 646 2 676
3 644 646 676
3 644 676 645
3 654 4 6
3 654 6 677
3 654 677 650
3 646 0 2
3 651 9 11
3 677 3 0
3 650 677 0
3 646 650 0
3 654 655 4
3 651 11 678
3 649 651 678
3 649 678 648
3 677 6 3
3 676 2 19
3 678 15 4
3 648 678 4
3 655 648 4
3 391 645 676
3 391 676 19
3 391 19 18
3 678 11 15
3 679 680 282
3 282 680 337
3 680 334 337
3 189 336 187
3 680 338 334
3 188 279 189
3 279 336 189
3 279 337 336
3 279 282 337
3 384 681 385
3 682 681 384
3 384 387 682
3 392 683 393
3 488 100 98
3 382 684 488
3 382 380 684
3 684 489 488
3 379 381 684
3 381 489 684
3 381 490 489
3 382 488 98
3 371 97 96
3 98 97 371
3 371 382 98
3 379 684 380
3 682 497 492
3 682 496 497
3 381 492 490
3 381 385 492
3 385 681 492
3 492 681 682
3 387 494 496
3 387 393 494
3 393 683 494
3 683 493 494
3 392 391 683
3 391 493 683
3 391 18 493
3 387 496 682
3 457 685 686
3 685 687 686
3 685 688 687
3 462 457 686
3 450 452 688
3 455 685 457
3 455 450 685
3 450 688 685
3 452 143 688
3 141 143 452
3 686 687 146
3 143 146 687
3 687 688 143
3 565 395 397
3 565 569 395
3 569 292 395
3 577 296 294
3 577 570 296
3 570 410 296
3 569 290 292
3 411 410 570
3 577 290 569
3 294 290 577
3 111 110 274
3 270 689 271
3 270 272 689
3 272 119 689
3 266 265 357
3 265 110 357
3 110 113 357
3 274 110 265
3 102 101 144
3 144 365 102
3 352 112 106
3 128 124 277
3 277 192 128
3 689 119 117
3 357 113 121
3 277 116 272
3 124 116 277
3 272 116 119
3 274 689 111
3 689 117 111
3 274 271 689
3 471 355 477
3 478 475 353
3 690 356 354
3 475 691 359
3 475 359 353
3 471 690 351
3 478 353 356
3 471 480 690
3 690 354 351
3 479 690 480
3 267 266 358
3 478 356 690
3 479 478 690
3 474 691 475
3 351 355 471
3 267 358 691
3 474 267 691
3 142 365 144
3 363 360 484
3 484 360 483
3 484 477 355
3 355 363 484
3 364 365 142
3 482 364 142
3 482 481 362
3 362 364 482
3 483 362 481
3 691 358 359
3 141 482 142
3 360 362 483
3 538 539 71
3 71 67 538
3 692 63 64
3 529 538 67
3 67 61 529
3 529 61 63
3 529 63 692
3 528 529 692
3 528 692 526
3 541 693 694
3 541 694 546
3 559 560 694
3 693 559 694
3 533 695 552
3 533 552 551
3 542 693 540
3 533 530 695
3 532 695 530
3 551 554 533
3 533 554 535
3 539 546 71
3 671 197 558
3 694 562 71
3 546 694 71
3 671 558 555
3 543 671 555
3 695 557 552
3 543 545 671
3 532 543 695
3 693 561 559
3 543 555 557
3 543 557 695
3 542 535 693
3 541 540 693
3 554 561 693
3 535 554 693
3 694 560 562
3 92 696 79
3 88 91 697
3 92 563 698
3 698 696 92
3 696 574 573
3 573 699 696
3 697 700 88
3 88 700 89
3 696 699 79
3 74 699 573
3 79 699 77
3 77 699 74
3 94 701 95
3 657 660 701
3 94 657 701
3 697 572 567
3 567 700 697
3 93 89 568
3 698 563 566
3 89 700 567
3 89 567 568
3 92 93 568
3 92 568 563
3 698 566 574
3 574 696 698
3 697 658 572
3 701 660 659
3 91 95 701
3 99 100 28
3 28 657 99
3 91 659 697
3 94 99 657
3 91 701 659
3 659 658 697
3 135 96 84

CELL_DATA 1291
SCALARS longitude float 1
LOOKUP_TABLE default
59.675201416015625
59.46189880371094
58.83700180053711
59.30039978027344
59.42639923095703
59.01750183105469
59.139198303222656
57.98910140991211
58.96670150756836
57.867401123046875
58.70869827270508
58.43840026855469
58.54349899291992
58.16790008544922
58.28710174560547
58.74919891357422
58.107200622558594
60.347198486328125
57.90230178833008
60.147300720214844
60.2692985534668
59.823699951171875
59.94070053100586
60.44879913330078
59.82699966430664
59.60609817504883
62.589698791503906
62.73910140991211
62.37779998779297
62.49689865112305
60.66170120239258
60.77180099487305
61.73429870605469
61.88710021972656
61.530601501464844
61.64849853515625
62.04079818725586
62.207298278808594
61.812198638916016
62.02989959716797
61.22050094604492
61.33530044555664
60.91999816894531
60.95349884033203
59.14179992675781
59.353599548339844
58.94649887084961
59.05849838256836
58.28269958496094
58.494598388671875
58.10200119018555
58.21989822387695
58.66859817504883
58.78990173339844
58.40950012207031
58.54050064086914
57.86029815673828
57.959999084472656
59.99829864501953
60.18830108642578
59.808998107910156
59.9275016784668
60.32929992675781
60.499298095703125
60.109100341796875
60.337799072265625
59.5629997253418
59.66239929199219
59.24140167236328
59.39680099487305
57.727500915527344
57.73870086669922
57.87289810180664
65.34310150146484
65.63289642333984
65.44090270996094
65.50920104980469
65.09510040283203
65.12139892578125
64.74749755859375
64.96630096435547
65.24849700927734
64.6073989868164
66.13710021972656
66.28910064697266
65.80370330810547
66.04190063476562
66.31900024414062
65.7083969116211
65.0094985961914
65.2239990234375
64.00900268554688
64.85189819335938
64.6082992553711
64.73139953613281
64.31159973144531
64.46610260009766
64.06269836425781
64.22650146484375
65.40270233154297
65.52349853515625
65.05349731445312
65.32759857177734
64.77510070800781
64.939697265625
63.717098236083984
63.85100173950195
63.47420120239258
63.626399993896484
63.23270034790039
63.34590148925781
63.075199127197266
63.90489959716797
64.61370086669922
63.05699920654297
64.7146987915039
61.09989929199219
60.92660140991211
63.030601501464844
61.18560028076172
59.9375
60.54859924316406
60.8120002746582
60.0161018371582
60.148799896240234
61.36320114135742
60.43560028076172
60.20280075073242
59.6505012512207
59.38010025024414
61.31800079345703
59.7681999206543
59.0713005065918
59.2666015625
59.257301330566406
65.63749694824219
66.01260375976562
65.75140380859375
64.90049743652344
64.79720306396484
64.53070068359375
64.41790008544922
64.01860046386719
63.871498107910156
64.26309967041016
65.48280334472656
58.661800384521484
58.53739929199219
58.84830093383789
58.79570007324219
64.77749633789062
64.9093017578125
64.9166030883789
65.26300048828125
65.03959655761719
60.412498474121094
59.90520095825195
60.03160095214844
60.162498474121094
60.29130172729492
59.52360153198242
59.000999450683594
58.12120056152344
59.77899932861328
59.06930160522461
59.1526985168457
59.26139831542969
59.424400329589844
58.37379837036133
58.60029983520508
58.722801208496094
58.75550079345703
58.8848991394043
58.263301849365234
58.25859832763672
60.58369827270508
60.767398834228516
60.09370040893555
60.24340057373047
60.385101318359375
60.49599838256836
58.242698669433594
58.42959976196289
59.71289825439453
59.861900329589844
59.21739959716797
59.32830047607422
58.06999969482422
58.19200134277344
59.469600677490234
59.57809829711914
58.960601806640625
59.09349822998047
58.5640983581543
58.71770095825195
59.23350143432617
59.37179946899414
58.36899948120117
58.574100494384766
57.779998779296875
57.931800842285156
57.94300079345703
58.07699966430664
58.92620086669922
58.977500915527344
59.12739944458008
58.5093994140625
58.60919952392578
58.81019973754883
58.32419967651367
59.10559844970703
59.20429992675781
58.47909927368164
58.5994987487793
58.82310104370117
58.933799743652344
58.450401306152344
61.22370147705078
61.439998626708984
60.551700592041016
57.70759963989258
61.07099914550781
61.195499420166016
60.71080017089844
60.858699798583984
60.30289840698242
60.43239974975586
60.13890075683594
60.35929870605469
60.46039962768555
60.5797004699707
59.59629821777344
59.685699462890625
59.89670181274414
59.99259948730469
58.78929901123047
58.89189910888672
59.06840133666992
60.167198181152344
58.01060104370117
58.143699645996094
58.25120162963867
58.83720016479492
58.35609817504883
58.5276985168457
57.754398345947266
57.89780044555664
59.22909927368164
59.35919952392578
58.18989944458008
58.404598236083984
58.97999954223633
59.10860061645508
62.81760025024414
62.75170135498047
62.58580017089844
62.43239974975586
62.20970153808594
62.15620040893555
64.42669677734375
64.27429962158203
62.018699645996094
61.93299865722656
61.744300842285156
61.62179946899414
63.297401428222656
63.4375
63.86690139770508
63.73820114135742
64.23639678955078
64.1041030883789
63.61349868774414
63.4286003112793
64.73390197753906
64.58480072021484
64.3958969116211
64.9135971069336
63.75469970703125
63.58110046386719
64.74259948730469
64.60140228271484
60.929100036621094
60.807098388671875
59.9552001953125
60.590999603271484
63.03799819946289
62.96110153198242
61.11669921875
60.95560073852539
61.354000091552734
61.234901428222656
61.24769973754883
61.066898345947266
60.45640182495117
60.203800201416016
60.08219909667969
60.08769989013672
59.28779983520508
59.92150115966797
59.05339813232422
58.97679901123047
59.79990005493164
59.679901123046875
59.79059982299805
59.42570114135742
60.660701751708984
61.231300354003906
61.07440185546875
60.922298431396484
60.27870178222656
60.08369827270508
59.933101654052734
60.541500091552734
60.81019973754883
60.73040008544922
60.435298919677734
60.39590072631836
59.75090026855469
59.63420104980469
59.57229995727539
59.42430114746094
58.09659957885742
57.93920135498047
57.9208984375
57.748600006103516
60.620399475097656
61.15299987792969
61.04710006713867
60.894901275634766
61.12329864501953
60.9911994934082
60.86869812011719
60.746498107910156
59.84629821777344
59.721099853515625
60.370399475097656
60.27109909057617
60.0901985168457
59.98640060424805
65.16410064697266
64.9999008178711
64.87539672851562
64.65390014648438
64.52220153808594
62.51219940185547
62.424198150634766
61.711299896240234
61.844600677490234
64.1052017211914
63.30799865722656
63.24800109863281
61.60179901123047
62.227901458740234
62.10430145263672
61.872100830078125
63.44940185546875
64.6448974609375
64.57559967041016
64.37940216064453
63.93899917602539
63.93870162963867
63.787899017333984
63.52909851074219
64.08100128173828
63.09400177001953
62.93949890136719
62.70970153808594
64.24150085449219
64.25420379638672
64.9219970703125
64.81780242919922
61.42530059814453
62.65629959106445
60.787498474121094
60.632198333740234
61.28239822387695
61.02830123901367
60.91659927368164
57.70600128173828
58.279300689697266
58.15589904785156
58.03310012817383
57.99300003051758
57.8031005859375
57.39799880981445
57.66389846801758
57.905601501464844
57.8031005859375
57.467899322509766
57.528499603271484
62.888301849365234
62.255001068115234
62.55179977416992
62.77119827270508
61.71620178222656
61.95429992675781
62.22919845581055
61.59199905395508
62.264198303222656
62.403499603271484
62.08300018310547
62.1161003112793
63.59130096435547
63.68360137939453
63.25170135498047
63.40629959106445
64.41120147705078
64.46810150146484
64.10269927978516
64.25859832763672
63.82500076293945
63.8739013671875
62.93769836425781
62.24290084838867
62.785099029541016
62.93840026855469
63.11949920654297
62.28960037231445
61.4468994140625
61.59659957885742
61.72380065917969
63.93980026245117
61.566898345947266
62.42720031738281
62.520301818847656
61.9651985168457
62.090599060058594
63.769100189208984
64.08350372314453
63.76190185546875
63.641700744628906
64.43219757080078
64.55159759521484
64.08200073242188
64.21150207519531
63.27629852294922
63.40620040893555
63.90340042114258
63.236698150634766
63.60350036621094
62.91640090942383
63.395999908447266
63.514801025390625
62.08580017089844
60.3306999206543
62.52579879760742
62.645198822021484
62.25519943237305
62.35530090332031
63.084999084472656
63.236000061035156
62.73899841308594
62.94860076904297
61.67570114135742
61.77840042114258
61.444801330566406
61.54169845581055
62.8307991027832
62.12590026855469
61.9453010559082
61.236698150634766
60.497501373291016
60.6427001953125
61.10049819946289
60.3671989440918
60.996700286865234
61.280799865722656
60.802799224853516
60.91910171508789
65.74099731445312
65.66459655761719
65.62920379638672
62.966800689697266
63.3911018371582
62.733001708984375
62.88249969482422
63.76490020751953
65.41380310058594
63.51580047607422
63.60369873046875
63.935699462890625
64.10250091552734
64.0519027709961
63.982200622558594
62.55860137939453
62.56169891357422
63.12080001831055
63.1963005065918
64.20970153808594
63.72380065917969
62.34360122680664
58.177398681640625
57.811798095703125
58.29209899902344
57.641998291015625
62.89550018310547
62.98979949951172
62.25310134887695
62.431400299072266
62.07040023803711
62.19499969482422
63.404998779296875
63.529701232910156
63.14070129394531
63.1974983215332
61.74150085449219
61.85639953613281
61.51559829711914
61.735198974609375
61.423500061035156
61.59709930419922
61.244598388671875
61.361698150634766
64.09750366210938
64.2605972290039
64.10279846191406
63.95330047607422
62.5702018737793
62.73550033569336
62.365501403808594
62.57809829711914
63.693599700927734
63.72460174560547
60.9452018737793
61.04880142211914
64.39679718017578
64.55349731445312
64.25199890136719
64.39250183105469
60.05759811401367
60.21390151977539
60.54890060424805
60.69620132446289
60.31669998168945
60.538299560546875
64.93699645996094
64.8323974609375
65.26730346679688
65.13480377197266
64.64900207519531
65.3947982788086
65.50810241699219
64.67990112304688
65.4176025390625
59.59270095825195
59.56919860839844
59.81809997558594
58.28990173339844
58.91339874267578
58.44969940185547
58.460601806640625
59.097599029541016
58.644798278808594
59.448001861572266
59.24150085449219
58.60139846801758
58.79560089111328
58.74140167236328
57.83190155029297
57.75310134887695
63.26380157470703
63.40359878540039
63.109901428222656
64.9374008178711
63.25709915161133
63.452701568603516
62.926300048828125
61.73789978027344
61.847198486328125
62.001399993896484
61.27299880981445
62.10969924926758
63.07740020751953
63.0890998840332
63.27389907836914
62.228599548339844
62.388999938964844
62.569000244140625
62.688499450683594
62.76639938354492
61.30270004272461
61.42789840698242
61.5443000793457
64.239501953125
64.43830108642578
64.58170318603516
63.94340133666992
64.06400299072266
62.033599853515625
62.860198974609375
62.25450134277344
63.41999816894531
63.56949996948242
63.61880111694336
63.753700256347656
64.21320343017578
58.523799896240234
58.64929962158203
58.67219924926758
58.80619812011719
57.97700119018555
58.03620147705078
63.8213996887207
65.15789794921875
65.28160095214844
64.61620330810547
64.74140167236328
64.77739715576172
64.99590301513672
65.47380065917969
64.89779663085938
65.09590148925781
62.39759826660156
62.55820083618164
62.707801818847656
62.818199157714844
62.22629928588867
62.07059860229492
60.53200149536133
60.67770004272461
60.87120056152344
60.847801208496094
61.09410095214844
60.50339889526367
62.25640106201172
61.16780090332031
61.26570129394531
61.381099700927734
62.14289855957031
61.535099029541016
61.70249938964844
61.85540008544922
61.97119903564453
61.019500732421875
59.483299255371094
59.277099609375
59.16320037841797
59.29330062866211
58.40250015258789
58.29050064086914
58.902400970458984
58.756500244140625
58.56420135498047
58.54330062866211
57.782901763916016
63.09049987792969
62.92559814453125
63.56480026245117
63.430999755859375
63.59109878540039
63.44219970703125
63.24140167236328
61.9093017578125
63.79119873046875
63.282798767089844
63.094398498535156
61.3760986328125
61.26490020751953
61.84590148925781
62.68989944458008
62.662601470947266
64.44020080566406
64.33979797363281
64.22699737548828
62.51729965209961
62.39789962768555
62.219398498535156
62.05799865722656
62.04779815673828
61.76190185546875
61.64540100097656
61.70759963989258
60.647300720214844
64.0593032836914
63.93040084838867
63.950599670410156
64.50520324707031
63.75510025024414
61.03960037231445
60.91790008544922
60.88560104370117
63.7495002746582
63.346500396728516
63.244300842285156
63.09640121459961
62.96590042114258
62.89910125732422
63.568599700927734
63.51139831542969
62.79050064086914
63.880401611328125
61.60100173950195
61.38859939575195
61.2682991027832
61.2135009765625
62.746299743652344
64.40709686279297
64.25360107421875
64.06529998779297
61.99020004272461
61.884700775146484
62.57830047607422
62.60100173950195
62.410301208496094
62.16130065917969
62.12820053100586
61.71440124511719
64.03669738769531
61.00749969482422
65.9218978881836
65.78939819335938
65.66449737548828
65.44940185546875
65.33920288085938
65.1884994506836
62.66809844970703
62.54999923706055
63.270198822021484
63.23270034790039
63.09980010986328
63.0713996887207
62.84600067138672
63.93830108642578
65.94629669189453
65.02449798583984
64.91909790039062
64.67310333251953
64.55970001220703
63.4364013671875
62.9114990234375
62.76210021972656
63.87810134887695
63.412200927734375
62.38019943237305
62.21419906616211
62.23099899291992
62.00979995727539
64.43250274658203
63.77980041503906
63.6172981262207
63.63029861450195
63.713600158691406
64.28299713134766
64.29660034179688
64.1146011352539
64.09600067138672
61.67490005493164
61.49089813232422
60.82120132446289
60.57939910888672
57.92250061035156
57.74380111694336
57.80270004272461
57.56809997558594
57.622398376464844
62.92490005493164
63.08869934082031
62.74789810180664
62.88349914550781
62.210899353027344
62.27989959716797
61.923301696777344
62.07469940185547
62.444400787353516
62.571800231933594
62.230499267578125
62.385501861572266
63.776798248291016
63.92490005493164
63.25559997558594
63.39739990234375
63.05659866333008
63.24639892578125
63.55889892578125
63.588600158691406
61.60169982910156
61.7244987487793
61.3557014465332
61.54570007324219
64.22550201416016
64.35859680175781
64.08390045166016
64.09230041503906
65.18199920654297
65.30680084228516
64.80290222167969
65.13020324707031
64.48930358886719
64.70130157470703
64.23590087890625
64.32340240478516
65.8760986328125
66.02230072021484
65.74250030517578
65.01619720458984
65.49259948730469
65.60980224609375
64.75579833984375
64.86280059814453
64.52680206298828
65.01799774169922
64.89649963378906
65.16529846191406
61.65190124511719
61.7849006652832
61.951900482177734
61.77370071411133
62.069400787353516
61.91830062866211
62.2338981628418
62.10419845581055
62.4744987487793
62.59109878540039
62.76959991455078
62.60380172729492
64.38020324707031
64.31079864501953
64.67839813232422
64.57469940185547
63.04499816894531
62.917198181152344
64.92729949951172
64.85800170898438
63.38410186767578
63.269100189208984
64.16419982910156
64.08460235595703
63.55419921875
63.5276985168457
63.906898498535156
63.752899169921875
61.03110122680664
60.98249816894531
61.39099884033203
61.25120162963867
59.45320129394531
59.31549835205078
59.72589874267578
59.634300231933594
60.85419845581055
60.77370071411133
62.91230010986328
62.73529815673828
60.22669982910156
60.10609817504883
60.61830139160156
60.4828987121582
59.059600830078125
58.9390983581543
59.89690017700195
59.8568000793457
58.93539810180664
58.77830123901367
64.93150329589844
61.11109924316406
60.7318000793457
60.54800033569336
60.89899826049805
60.85029983520508
57.933799743652344
58.57500076293945
59.693199157714844
58.73040008544922
58.24409866333008
58.12089920043945
58.49919891357422
58.381500244140625
59.77370071411133
59.64680099487305
60.39390182495117
59.93410110473633
59.96049880981445
59.800201416015625
60.20199966430664
60.10390090942383
58.68040084838867
59.41680145263672
59.28839874267578
58.0713005065918
59.53850173950195
58.87310028076172
59.55839920043945
59.05569839477539
58.89889907836914
65.05979919433594
65.08399963378906
61.250999450683594
61.14059829711914
61.52199935913086
61.3838996887207
58.38240051269531
57.81549835205078
61.83890151977539
61.71549987792969
62.085201263427734
61.897499084472656
60.9734001159668
60.8568000793457
61.224300384521484
61.05590057373047
59.95690155029297
59.832801818847656
60.105499267578125
59.24169921875
59.4203987121582
59.36790084838867
59.705101013183594
59.53580093383789
58.01499938964844
57.96379852294922
58.23899841308594
58.1171989440918
60.36650085449219
60.211700439453125
58.558101654052734
58.43769836425781
58.79859924316406
58.654300689697266
58.85300064086914
58.29439926147461
59.10150146484375
58.995201110839844
60.400901794433594
60.277400970458984
60.69160079956055
60.538299560546875
58.99980163574219
58.9119987487793
60.17570114135742
59.99639892578125
61.560298919677734
62.31489944458008
62.41019821166992
60.696998596191406
61.859100341796875
61.6973991394043
62.19169998168945
62.116600036621094
58.15489959716797
58.83649826049805
58.99290084838867
58.452301025390625
58.341800689697266
58.73080062866211
58.58639907836914
61.30830001831055
61.19129943847656
61.699798583984375
61.39189910888672
60.840599060058594
61.474300384521484
61.02280044555664
60.85540008544922
60.44139862060547
60.32699966430664
59.8567008972168
60.5348014831543
59.897098541259766
59.68109893798828
60.17210006713867
60.030799865722656
57.87799835205078
57.77040100097656
58.20539855957031
57.9744987487793
58.07109832763672
58.82619857788086
58.63679885864258
60.61840057373047
58.92190170288086
59.3129997253418
59.17679977416992
59.5797004699707
59.44240188598633
59.65589904785156
59.48640060424805
59.04059982299805
59.7588996887207
58.6244010925293
59.47050094604492
61.98569869995117
59.951698303222656
59.77040100097656
60.15570068359375
60.070701599121094
58.405799865722656
58.286399841308594
59.42060089111328
58.460899353027344
58.095001220703125
57.96039962768555
59.27399826049805
59.15510177612305
59.60210037231445
59.622501373291016
58.7859001159668
58.757301330566406
59.273101806640625
58.911399841308594
58.54059982299805
60.24980163574219
65.78060150146484
63.23379898071289
62.67179870605469
62.889198303222656
62.91460037231445
63.986698150634766
64.05079650878906
63.56520080566406
63.726600646972656
63.83039855957031
63.29570007324219
63.0797004699707
63.08620071411133
63.45050048828125
63.39509963989258
59.55120086669922
58.60070037841797
59.42660140991211
58.71760177612305
58.77050018310547
58.954898834228516
59.0974006652832
59.13240051269531
59.265098571777344
59.733699798583984
58.33259963989258
58.429100036621094
58.86690139770508
65.05549621582031
65.10359954833984
60.918701171875
61.05070114135742
61.18410110473633
61.400699615478516
58.0364990234375
61.52730178833008
61.561100006103516
60.89179992675781
61.75429916381836
59.795501708984375
59.9474983215332
60.03929901123047
60.79499816894531
59.252899169921875
58.599700927734375
59.52109909057617
59.616600036621094
60.72679901123047
59.446800231933594
59.54069900512695
59.75510025024414
60.24850082397461
60.34619903564453
60.52000045776367
60.63199996948242
59.30160140991211
58.51139831542969
57.964599609375
58.088401794433594
58.80379867553711
58.91310119628906
59.005699157714844
59.082401275634766
58.2244987487793
58.32109832763672
58.4567985534668
58.71979904174805
65.07510375976562
58.18989944458008
58.307701110839844
57.49599838256836
57.8129997253418
57.94049835205078
57.63140106201172
57.6431999206543
64.9269027709961
65.106201171875
65.089599609375
65.29509735107422
65.25360107421875
65.31210327148438
59.75450134277344
59.807701110839844
59.988800048828125
58.92470169067383
59.05580139160156
59.16270065307617
59.62540054321289
57.953399658203125
59.286399841308594
59.341800689697266
59.46739959716797
58.8025016784668
58.08259963989258
58.10599899291992
58.297401428222656
59.089599609375
59.937801361083984
58.425899505615234
58.462398529052734
58.58610153198242
60.138301849365234
60.140499114990234
60.31420135498047
58.23749923706055
57.49209976196289
57.68000030517578
57.633399963378906
58.227298736572266
57.46670150756836
58.130401611328125
58.06209945678711
57.95090103149414
57.80739974975586
61.729000091552734
61.57379913330078
61.42359924316406
60.8474006652832
62.92850112915039
62.72850036621094
62.716400146484375
62.48440170288086
62.400001525878906
62.30189895629883
62.18519973754883
62.90140151977539
63.43239974975586
63.30390167236328
63.157798767089844
62.5702018737793
61.50389862060547
61.34980010986328
62.029300689697266
61.900901794433594
61.76860046386719
61.61349868774414
61.16859817504883
61.02190017700195
60.88529968261719
60.76219940185547
60.6875
60.58340072631836
60.47050094604492
61.309200286865234
65.32599639892578
65.24220275878906
65.05039978027344
65.44309997558594
64.77469635009766
65.17320251464844
64.93620300292969
64.89720153808594
64.83419799804688
64.76799774169922
65.26210021972656
65.03559875488281
64.96269989013672
65.5238037109375
65.29900360107422
65.25
64.59010314941406
64.4490966796875
64.32679748535156
65.12770080566406
64.28720092773438
64.9176025390625
64.82959747314453
60.77180099487305
60.30799865722656
60.11309814453125
60.08879852294922
61.268798828125
61.15190124511719
61.26490020751953
60.88249969482422
64.72109985351562
64.69490051269531
63.0806999206543
59.36640167236328
59.335201263427734
60.23630142211914
61.39739990234375
59.72380065917969
59.60689926147461
59.96379852294922
60.51169967651367
60.4031982421875
60.43349838256836
63.20539855957031
62.08000183105469
62.53630065917969
61.812198638916016
61.96879959106445
62.87540054321289
62.2484016418457
62.74909973144531
62.75640106201172
62.60649871826172
61.40959930419922
62.37089920043945
62.426700592041016
61.78179931640625
63.08599853515625
61.528099060058594
61.5885009765625
64.75250244140625
63.60340118408203
63.730201721191406
63.35150146484375
63.37409973144531
64.60919952392578
64.4646987915039
64.1447982788086
64.20880126953125
63.99789810180664
61.69260025024414
64.59950256347656
63.91830062866211
64.57219696044922
64.70939636230469
65.5969009399414
64.94280242919922
65.08570098876953
65.30760192871094
65.43789672851562
65.4573974609375
65.69239807128906
63.90629959106445
64.18329620361328
63.932498931884766
63.770599365234375
62.72990036010742
62.89649963378906
63.60060119628906
62.733299255371094
62.58599853515625
63.06039810180664
63.128700256347656
64.44499969482422
61.68939971923828
64.22350311279297
64.33110046386719
61.88840103149414
62.0088005065918
62.5369987487793
61.89789962768555
62.41640090942383
63.58620071411133
62.24100112915039
62.37070083618164
63.46870040893555
63.76499938964844
63.41569900512695
63.32659912109375
64.09149932861328
65.49759674072266
64.19210052490234
65.23040008544922
65.3936996459961
65.82369995117188
65.91799926757812
64.32890319824219
64.53410339355469
65.76180267333984
66.10690307617188
65.87460327148438
66.07610321044922
63.62220001220703
63.4098014831543
63.4379997253418
64.25050354003906
64.36160278320312
64.81600189208984
65.27030181884766
64.56670379638672
64.72309875488281
64.98030090332031
65.10089874267578
65.456298828125
65.5636978149414
64.0988998413086
63.564701080322266
63.79010009765625
62.964698791503906
63.00450134277344
63.93170166015625
63.267601013183594
63.76089859008789
63.942501068115234
63.7036018371582
SCALARS latitude float 1
LOOKUP_TABLE default
11.827099800109863
11.826299667358398
11.81879997253418
11.627699851989746
11.691100120544434
11.68589973449707
11.7608003616333
11.790599822998047
11.548700332641602
11.652999877929688
11.680700302124023
11.614500045776367
11.751500129699707
11.659099578857422
11.748299598693848
11.545000076293945
11.52299976348877
11.888699531555176
11.519599914550781
11.630499839782715
11.756500244140625
11.558899879455566
11.692000389099121
11.622599601745605
11.825900077819824
11.557900428771973
11.500399589538574
11.500100135803223
11.240400314331055
11.36769962310791
11.228300094604492
11.361000061035156
11.486900329589844
11.48900032043457
11.235199928283691
11.353799819946289
11.357999801635742
11.240900039672852
11.22439956665039
11.489700317382812
11.231300354003906
11.364700317382812
11.360300064086914
11.228300094604492
11.436100006103516
11.440099716186523
11.210000038146973
11.296799659729004
11.423700332641602
11.42609977722168
11.20199966430664
11.286199569702148
11.343799591064453
11.208200454711914
11.151399612426758
11.289199829101562
11.198399543762207
11.336099624633789
11.453700065612793
11.45359992980957
11.226099967956543
11.318099975585938
11.318599700927734
11.228300094604492
11.184100151062012
11.452799797058105
11.222299575805664
11.360699653625488
11.163299560546875
11.303400039672852
9.087030410766602
9.218990325927734
9.087459564208984
9.808429718017578
9.759110450744629
9.544320106506348
9.675979614257812
9.673080444335938
9.804229736328125
9.6220703125
9.624990463256836
9.545519828796387
9.744629859924316
12.221699714660645
12.105600357055664
12.205400466918945
12.077300071716309
11.968500137329102
12.06149959564209
12.12969970703125
12.266400337219238
12.248800277709961
12.1943998336792
12.033699989318848
12.048600196838379
12.161800384521484
12.169899940490723
12.103599548339844
12.015000343322754
12.126799583435059
12.193900108337402
11.987600326538086
11.984700202941895
11.907099723815918
11.910599708557129
12.027000427246094
12.110300064086914
12.161999702453613
12.1697998046875
11.907400131225586
12.030900001525879
11.910599708557129
11.965399742126465
7.071539878845215
6.9572601318359375
6.941420078277588
6.9458699226379395
7.066559791564941
7.08266019821167
7.072289943695068
6.918149948120117
7.0560197830200195
6.938399791717529
7.044060230255127
7.046189785003662
6.950240135192871
6.927740097045898
6.922339916229248
6.912930011749268
7.0057902336120605
7.07436990737915
7.0399298667907715
6.8734002113342285
6.8780999183654785
7.127920150756836
12.351200103759766
12.425999641418457
12.42710018157959
12.481599807739258
12.370200157165527
12.369000434875488
12.320500373840332
12.44540023803711
12.540800094604492
12.312299728393555
12.346699714660645
6.5171799659729
6.634829998016357
6.646299839019775
6.521850109100342
7.849760055541992
7.598259925842285
7.849319934844971
7.691189765930176
7.722400188446045
8.705300331115723
8.440290451049805
8.469039916992188
8.602789878845215
8.59727954864502
8.557589530944824
8.590450286865234
8.576239585876465
8.565970420837402
8.334670066833496
8.467240333557129
8.547019958496094
8.424630165100098
8.449990272521973
8.397390365600586
8.453350067138672
8.583319664001465
8.327890396118164
8.577159881591797
8.321599960327148
9.064620018005371
9.07073974609375
8.962679862976074
8.839110374450684
8.8441801071167
8.931509971618652
8.996500015258789
8.996689796447754
8.948699951171875
8.825590133666992
8.81328010559082
8.94497013092041
8.77947998046875
8.86637020111084
8.824179649353027
8.94336986541748
8.918290138244629
8.79596996307373
8.867799758911133
8.784830093383789
8.687600135803223
8.693110466003418
8.737460136413574
8.9970703125
8.521860122680664
8.32079029083252
8.448360443115234
8.320969581604004
6.995150089263916
7.121500015258789
7.125060081481934
6.8826398849487305
7.012639999389648
6.893610000610352
7.455389976501465
7.27662992477417
7.4045000076293945
7.331999778747559
7.391860008239746
7.270540237426758
7.3990302085876465
7.2032999992370605
9.831819534301758
9.835800170898438
9.889069557189941
9.816320419311523
9.648889541625977
9.70044994354248
9.770500183105469
9.643230438232422
9.79578971862793
9.792169570922852
9.657130241394043
9.53477954864502
9.661540031433105
9.758270263671875
9.589739799499512
9.727470397949219
9.606599807739258
9.742830276489258
9.681079864501953
9.814729690551758
9.814729690551758
9.526800155639648
9.567520141601562
9.619420051574707
9.752099990844727
9.546859741210938
9.617469787597656
9.562700271606445
9.682279586791992
9.701860427856445
9.700579643249512
9.574790000915527
9.48567008972168
9.750410079956055
9.547690391540527
9.681929588317871
6.708290100097656
6.583330154418945
6.584000110626221
6.709539890289307
6.584569931030273
6.709499835968018
6.803100109100342
6.804510116577148
6.70881986618042
6.583600044250488
6.7062602043151855
6.5797600746154785
6.616109848022461
6.490009784698486
6.612669944763184
6.487979888916016
6.679279804229736
6.574860095977783
6.739290237426758
6.740409851074219
6.521349906921387
6.798009872436523
6.551690101623535
6.511030197143555
6.738659858703613
6.488880157470703
6.753910064697266
6.632709980010986
6.632080078125
6.5639801025390625
6.738249778747559
6.55879020690918
6.581719875335693
6.707399845123291
6.761660099029541
6.757609844207764
6.640820026397705
6.513750076293945
6.763929843902588
6.510560035705566
6.6793599128723145
6.618380069732666
6.492310047149658
6.740310192108154
6.656189918518066
6.489389896392822
6.5274200439453125
6.649219989776611
6.735459804534912
6.609119892120361
6.487110137939453
6.535560131072998
7.8708600997924805
7.706029891967773
7.831920146942139
7.827730178833008
7.678830146789551
7.673960208892822
7.797490119934082
7.610919952392578
7.7470598220825195
7.616399765014648
7.86283016204834
7.733610153198242
7.793360233306885
7.685669898986816
7.5583600997924805
7.555910110473633
7.635079860687256
7.750800132751465
7.877449989318848
7.623010158538818
8.205080032348633
8.074419975280762
7.975719928741455
7.971439838409424
8.204429626464844
8.234560012817383
8.10023021697998
8.080340385437012
8.09646987915039
7.964600086212158
8.195969581604004
8.063119888305664
8.186240196228027
8.054679870605469
10.643899917602539
10.575699806213379
10.601099967956543
10.462400436401367
10.51360034942627
5.957129955291748
5.83204984664917
5.956019878387451
5.95743989944458
5.981520175933838
5.953959941864014
5.8289899826049805
5.829539775848389
5.957950115203857
5.832119941711426
5.831610202789307
5.953390121459961
5.938539981842041
5.816359996795654
5.852250099182129
5.858119964599609
5.733479976654053
5.951819896697998
5.828159809112549
5.732540130615234
5.829599857330322
5.955289840698242
5.830830097198486
5.729990005493164
5.979060173034668
5.800660133361816
5.930620193481445
5.827610015869141
5.956240177154541
6.0110697746276855
6.007780075073242
5.950459957122803
5.890769958496094
6.013420104980469
6.975910186767578
6.871359825134277
6.994609832763672
6.97160005569458
7.1003899574279785
7.102729797363281
7.00275993347168
6.733129978179932
6.844659805297852
6.734739780426025
6.873040199279785
6.740340232849121
7.083270072937012
7.203350067138672
6.959410190582275
6.958779811859131
7.079959869384766
6.957719802856445
6.95389986038208
6.953690052032471
7.078670024871826
7.084249973297119
7.077710151672363
7.202479839324951
6.954239845275879
7.079520225524902
7.081600189208984
6.955389976501465
6.948649883270264
7.073579788208008
7.076970100402832
6.950089931488037
7.078829765319824
6.95290994644165
7.3642401695251465
7.333990097045898
7.460760116577148
7.2380499839782715
7.4896697998046875
7.4594597816467285
7.515250205993652
7.390970230102539
7.456419944763184
7.525710105895996
7.264570236206055
7.460179805755615
7.3348798751831055
7.332590103149414
7.458789825439453
7.526820182800293
7.524330139160156
7.274789810180664
7.401400089263916
7.325260162353516
7.449739933013916
7.272669792175293
7.397319793701172
7.362850189208984
7.458580017089844
7.274059772491455
7.236849784851074
12.68179988861084
12.702099800109863
12.451499938964844
12.542499542236328
12.661999702453613
12.682999610900879
12.45359992980957
12.56980037689209
12.59589958190918
12.455900192260742
12.586400032043457
12.45110034942627
12.70580005645752
12.565799713134766
12.457599639892578
12.597700119018555
12.453900337219238
12.596199989318848
12.430299758911133
12.522899627685547
12.523200035095215
12.667200088500977
12.57289981842041
12.438199996948242
12.383600234985352
12.546699523925781
12.661299705505371
12.527299880981445
12.440999984741211
12.519399642944336
10.87559986114502
11.008500099182129
10.741900444030762
10.967100143432617
10.817999839782715
10.838600158691406
10.83650016784668
11.069100379943848
10.740500450134277
10.9443998336792
11.075499534606934
11.05150032043457
11.044099807739258
10.770999908447266
10.910400390625
11.07759952545166
10.94480037689209
10.963000297546387
10.826199531555176
10.76449966430664
10.797200202941895
10.814200401306152
6.258019924163818
6.292660236358643
6.141890048980713
6.289140224456787
8.490659713745117
8.619020462036133
8.717009544372559
8.71677017211914
8.496009826660156
8.586649894714355
8.479470252990723
8.603469848632812
8.616060256958008
8.484689712524414
8.446240425109863
8.57645034790039
8.4443998336792
8.705739974975586
8.700499534606934
8.704480171203613
8.486900329589844
8.570039749145508
8.704219818115234
8.696940422058105
8.453479766845703
8.58368968963623
8.584670066833496
8.492050170898438
8.455909729003906
8.715319633483887
8.5962495803833
8.467700004577637
8.47655963897705
8.609530448913574
8.575369834899902
8.449970245361328
8.45032024383545
8.698989868164062
8.340559959411621
8.345629692077637
8.580619812011719
8.466779708862305
8.468620300292969
8.710049629211426
8.972579956054688
8.83944034576416
8.843460083007812
8.973349571228027
9.049150466918945
8.866020202636719
8.996190071105957
8.916930198669434
8.7362699508667
8.217909812927246
8.08823013305664
8.225110054016113
8.141510009765625
8.149239540100098
8.032449722290039
7.90693998336792
8.15585994720459
8.159879684448242
8.040289878845215
8.034440040588379
7.907859802246094
8.03715991973877
7.910699844360352
8.139030456542969
8.011460304260254
5.675940036773682
5.6757001876831055
5.676539897918701
5.64378023147583
8.104080200195312
8.228639602661133
8.342889785766602
8.103879928588867
8.235039710998535
8.17782974243164
8.32390022277832
8.30862045288086
8.339909553527832
8.21012020111084
7.975639820098877
8.176870346069336
8.103110313415527
8.102729797363281
8.21465015411377
8.344280242919922
8.193659782409668
8.231060028076172
8.101719856262207
8.080450057983398
8.076760292053223
8.197330474853516
8.085809707641602
8.208680152893066
8.04677963256836
8.083629608154297
8.307760238647461
7.973879814147949
7.972499847412109
8.098719596862793
8.214590072631836
8.2056303024292
6.1456298828125
6.239009857177734
6.362569808959961
6.367129802703857
8.139249801635742
8.013389587402344
12.685400009155273
9.285280227661133
9.366979598999023
9.231490135192871
9.281689643859863
9.412859916687012
9.415690422058105
9.365779876708984
9.153450012207031
9.15425968170166
11.773900032043457
11.639599800109863
11.639300346374512
11.77280044555664
11.895299911499023
11.894100189208984
11.754599571228027
11.76039981842041
11.501500129699707
11.634699821472168
11.767999649047852
11.887399673461914
11.761099815368652
11.50220012664795
11.636099815368652
11.762700080871582
11.626500129699707
11.765600204467773
11.634900093078613
11.637100219726562
11.759300231933594
11.500699996948242
7.8089799880981445
7.803319931030273
7.674990177154541
7.5530900955200195
7.765309810638428
7.638589859008789
7.648739814758301
7.770450115203857
7.642059803009033
7.76623010635376
7.8757500648498535
8.784489631652832
9.009759902954102
8.91409969329834
8.78969955444336
8.745490074157715
9.033679962158203
8.7814302444458
9.129770278930664
8.9970703125
9.03948974609375
8.91388988494873
9.005379676818848
8.87378978729248
8.870969772338867
8.883600234985352
9.014209747314453
9.047030448913574
8.912779808044434
8.831709861755371
9.015259742736816
8.886119842529297
8.88634967803955
9.00177001953125
9.130999565124512
9.127619743347168
8.997289657592773
8.869720458984375
8.80720043182373
8.855500221252441
8.73019027709961
8.990850448608398
8.782210350036621
8.738129615783691
8.996370315551758
8.946410179138184
8.815930366516113
9.239879608154297
9.385530471801758
9.261540412902832
9.394780158996582
9.269760131835938
9.141570091247559
9.247900009155273
9.377739906311035
9.403030395507812
9.362000465393066
9.26846981048584
9.394769668579102
9.322890281677246
9.191060066223145
9.144760131835938
9.229310035705566
9.356220245361328
9.228130340576172
9.403590202331543
9.272680282592773
9.275799751281738
9.145859718322754
9.405440330505371
9.27534008026123
9.405030250549316
9.399999618530273
9.35657024383545
9.185449600219727
10.452300071716309
10.42020034790039
10.551600456237793
10.550200462341309
10.416399955749512
10.51200008392334
10.57289981842041
10.442500114440918
10.515000343322754
10.384200096130371
10.563199996948242
10.69629955291748
10.437899589538574
10.6274995803833
10.320099830627441
10.444000244140625
10.34000015258789
10.333100318908691
10.25570011138916
10.639900207519531
10.702500343322754
10.704500198364258
10.359999656677246
10.370800018310547
10.443599700927734
10.532099723815918
10.665300369262695
10.399900436401367
10.249199867248535
10.638899803161621
10.60770034790039
10.469499588012695
10.368599891662598
10.376700401306152
10.24779987335205
10.485699653625488
10.621100425720215
12.762499809265137
12.761500358581543
12.787400245666504
12.779899597167969
8.909090042114258
8.682450294494629
8.812009811401367
8.682290077209473
8.941390037536621
9.891220092773438
9.887639999389648
9.66096019744873
9.763389587402344
9.677470207214355
9.806309700012207
9.791990280151367
9.663410186767578
9.676589965820312
9.792220115661621
9.548529624938965
9.547900199890137
9.616669654846191
9.733400344848633
9.746350288391113
9.634639739990234
9.63053035736084
9.87559986114502
9.750060081481934
9.624449729919434
9.707559585571289
9.791009902954102
9.572879791259766
9.576029777526855
9.732020378112793
9.612150192260742
9.726810455322266
9.604619979858398
11.293700218200684
11.352700233459473
11.42199993133545
11.158100128173828
11.218099594116211
11.307299613952637
11.183099746704102
11.326499938964844
11.402999877929688
11.321999549865723
11.255599975585938
11.4266996383667
11.357399940490723
11.222700119018555
11.093000411987305
11.176400184631348
11.080900192260742
7.061260223388672
6.935239791870117
7.058469772338867
6.224909782409668
6.101739883422852
6.353390216827393
6.351369857788086
6.103189945220947
6.103179931640625
6.334179878234863
6.2283501625061035
6.288519859313965
6.162559986114502
6.412720203399658
6.413380146026611
6.194819927215576
6.321680068969727
6.3108601570129395
6.190070152282715
6.285920143127441
6.160940170288086
6.172060012817383
6.30088996887207
6.329219818115234
6.2046799659729
6.3237199783325195
6.19936990737915
6.203020095825195
6.328139781951904
6.200900077819824
6.326910018920898
6.195300102233887
6.318940162658691
6.201729774475098
6.32390022277832
6.165170192718506
6.285930156707764
6.2936601638793945
6.1684699058532715
6.316299915313721
6.190299987792969
6.412020206451416
6.161620140075684
6.302410125732422
6.176310062408447
6.186910152435303
6.307819843292236
6.248950004577637
6.123239994049072
6.172669887542725
6.295889854431152
6.36978006362915
6.120120048522949
6.767560005187988
9.449430465698242
9.246979713439941
9.24071979522705
9.443909645080566
9.311759948730469
9.35099983215332
9.427330017089844
9.082969665527344
9.425209999084473
9.301969528198242
9.219289779663086
9.298290252685547
9.170740127563477
9.313929557800293
9.33920955657959
9.365779876708984
9.443730354309082
9.314339637756348
9.18478012084961
9.357970237731934
9.222900390625
9.167730331420898
9.1912202835083
9.311169624328613
9.087929725646973
9.204629898071289
9.426070213317871
9.077549934387207
9.174260139465332
9.297430038452148
5.793459892272949
5.915460109710693
10.544599533081055
10.41100025177002
10.44219970703125
10.57229995727539
10.588500022888184
10.652700424194336
10.531700134277344
10.444100379943848
10.666000366210938
10.66469955444336
10.540900230407715
10.432900428771973
10.67609977722168
10.674099922180176
10.440199851989746
10.408699989318848
10.565199851989746
10.608499526977539
10.476699829101562
10.337400436401367
10.541199684143066
10.536700248718262
10.515700340270996
10.652999877929688
10.450499534606934
10.379500389099121
10.678500175476074
10.675600051879883
10.517000198364258
10.450300216674805
10.383999824523926
10.37909984588623
10.246199607849121
10.312600135803223
10.33329963684082
10.249699592590332
10.545000076293945
10.434700012207031
10.429699897766113
10.560400009155273
10.603899955749512
10.46780014038086
10.311400413513184
10.305700302124023
11.075599670410156
10.947099685668945
11.079299926757812
11.079000473022461
10.842700004577637
10.94480037689209
10.843700408935547
10.976300239562988
11.038299560546875
11.063699722290039
11.065400123596191
10.792699813842773
10.929900169372559
10.957500457763672
10.826399803161621
10.939200401306152
10.833600044250488
11.077400207519531
11.072999954223633
11.07979965209961
10.809399604797363
10.831600189208984
10.946900367736816
10.944899559020996
10.826499938964844
11.06410026550293
11.079099655151367
10.928600311279297
11.060999870300293
10.823599815368652
10.956600189208984
10.89840030670166
10.788999557495117
10.900899887084961
11.03600025177002
10.763199806213379
10.691399574279785
10.689000129699707
10.812100410461426
10.821999549865723
10.80459976196289
10.939299583435059
10.942099571228027
10.828499794006348
10.696999549865723
10.692399978637695
10.928199768066406
10.809399604797363
12.635100364685059
12.63659954071045
12.384400367736816
12.430100440979004
12.432000160217285
12.679900169372559
12.543899536132812
12.486100196838379
12.397500038146973
12.371399879455566
12.619000434875488
12.389200210571289
12.505800247192383
12.636300086975098
12.502699851989746
12.503199577331543
12.635700225830078
12.508700370788574
12.375699996948242
12.370699882507324
12.56190013885498
12.369099617004395
12.409899711608887
11.116999626159668
11.1358003616333
11.233499526977539
11.497599601745605
11.363499641418457
11.33489990234375
11.192899703979492
11.215200424194336
11.208800315856934
11.340700149536133
11.403400421142578
11.14009952545166
11.274100303649902
11.398699760437012
11.265199661254883
12.946499824523926
12.810199737548828
12.833600044250488
12.886699676513672
13.023200035095215
13.035900115966797
12.768799781799316
12.903499603271484
12.968000411987305
12.811699867248535
12.777700424194336
12.918899536132812
12.764699935913086
6.163919925689697
6.2837300300598145
10.143199920654297
10.172200202941895
10.043700218200684
10.047800064086914
10.204700469970703
10.114999771118164
10.245699882507324
10.274200439453125
10.247599601745605
10.089799880981445
10.007399559020996
10.145700454711914
10.008700370788574
10.0108003616333
10.148699760437012
9.887049674987793
9.981980323791504
10.270999908447266
10.110899925231934
10.21619987487793
10.223999977111816
10.019800186157227
10.156599998474121
10.02929973602295
10.136799812316895
9.875100135803223
9.874990463256836
9.933420181274414
10.068400382995605
10.010700225830078
10.103099822998047
9.965709686279297
10.107500076293945
10.105400085449219
9.968489646911621
10.011799812316895
9.873530387878418
5.63677978515625
6.619019985198975
6.502810001373291
6.613619804382324
6.487860202789307
6.611780166625977
6.606550216674805
6.484230041503906
7.444399833679199
7.1891398429870605
7.315889835357666
7.438529968261719
7.186270236968994
7.311739921569824
12.133700370788574
12.266400337219238
12.26449966430664
12.027999877929688
12.075300216674805
12.211099624633789
12.03380012512207
12.003700256347656
11.94320011138916
12.078100204467773
12.168000221252441
12.159500122070312
12.058199882507324
12.188199996948242
12.196399688720703
11.941100120544434
11.998700141906738
11.937100410461426
12.069000244140625
12.15310001373291
12.263999938964844
12.130800247192383
12.028499603271484
11.934300422668457
7.390069961547852
7.260550022125244
7.1349101066589355
7.196559906005859
7.137939929962158
7.451990127563477
7.321780204772949
7.248559951782227
7.376629829406738
12.283599853515625
12.154199600219727
12.186200141906738
12.289799690246582
11.911700248718262
12.160400390625
12.295900344848633
12.025300025939941
12.298700332641602
12.162799835205078
12.04539966583252
12.047599792480469
12.30210018157959
12.17080020904541
12.183099746704102
12.29640007019043
11.910599708557129
11.907600402832031
12.044099807739258
12.18120002746582
12.145500183105469
12.016400337219238
12.032500267028809
12.168600082397461
12.15310001373291
12.016400337219238
12.287199974060059
12.150500297546387
12.027199745178223
12.04539966583252
8.503190040588379
8.373129844665527
8.370030403137207
8.586620330810547
8.446969985961914
8.630209922790527
8.627010345458984
8.496930122375488
8.194219589233398
8.070059776306152
8.199649810791016
8.072270393371582
8.196940422058105
11.008999824523926
11.007599830627441
10.872699737548828
10.77970027923584
10.910400390625
10.897000312805176
10.81190013885498
11.03439998626709
10.938300132751465
10.79539966583252
7.313769817352295
7.4870500564575195
7.4823198318481445
7.355929851531982
7.512700080871582
7.3845601081848145
7.260290145874023
7.443130016326904
7.321660041809082
7.4482197761535645
7.237410068511963
7.282289981842041
7.407289981842041
7.233019828796387
7.2624101638793945
7.414690017700195
7.287240028381348
7.29325008392334
7.3670501708984375
7.237490177154541
7.490960121154785
7.840720176696777
7.843649864196777
7.674409866333008
7.794010162353516
7.7135701179504395
7.80286979675293
7.714159965515137
7.931540012359619
7.674870014190674
7.932069778442383
7.708660125732422
7.8032097816467285
7.932459831237793
7.924190044403076
7.7141499519348145
7.791039943695068
7.922100067138672
7.600780010223389
7.710690021514893
7.836430072784424
7.839009761810303
7.711850166320801
7.602350234985352
7.729310035705566
7.83135986328125
7.704559803009033
7.8336501121521
7.663000106811523
7.852459907531738
7.708240032196045
10.123600006103516
10.002300262451172
9.932100296020508
10.140999794006348
10.017399787902832
10.021699905395508
10.062199592590332
10.193900108337402
10.19629955291748
10.070500373840332
10.125499725341797
9.870670318603516
9.946990013122559
10.148200035095215
10.045700073242188
10.19849967956543
10.277700424194336
10.279199600219727
10.042099952697754
10.168999671936035
10.117199897766113
9.986470222473145
9.869359970092773
10.000699996948242
9.987489700317383
10.117600440979004
10.020700454711914
10.247599601745605
10.28030014038086
9.940690040588379
10.052399635314941
10.151200294494629
10.211600303649902
10.190099716186523
9.954649925231934
10.093500137329102
9.86398983001709
11.861000061035156
11.759900093078613
11.659799575805664
11.751500129699707
11.595600128173828
11.720800399780273
11.73740005493164
11.85770034790039
11.850700378417969
11.783599853515625
11.909199714660645
11.920599937438965
11.821499824523926
11.557100296020508
11.691900253295898
11.491299629211426
11.601499557495117
11.760299682617188
11.520099639892578
11.721500396728516
11.617300033569336
11.763699531555176
11.625399589538574
11.524999618530273
11.616100311279297
11.489700317382812
11.552300453186035
11.811300277709961
11.77180004119873
11.6358003616333
11.627900123596191
11.765999794006348
11.676899909973145
11.495599746704102
12.40060043334961
