# vtk DataFile Version 3.0
SHAPE_sfm_50k_v20200323
ASCII
DATASET POLYDATA
POINTS 594 float
0.07467091 0.1861791 0.11877945
0.07467091 0.18657649 0.11828932
0.072990894 0.18699622 0.11828932
0.076099455 0.1861791 0.11828932
0.0797109 0.18449914 0.11938611
0.078030884 0.18449914 0.11975703
0.0797109 0.18392998 0.11996934
0.078030884 0.18574971 0.11828932
0.0797109 0.1855253 0.11828932
0.08139092 0.18345469 0.11996934
0.08139092 0.18449914 0.11890778
0.083070874 0.18298131 0.11996934
0.08299255 0.18449914 0.11828932
0.083070874 0.18447 0.11828932
0.08139092 0.18510878 0.11828932
0.0797109 0.1995284 0.101489335
0.0797109 0.19961911 0.10137823
0.079322636 0.19961911 0.101489335
0.08139092 0.19961911 0.101062745
0.08139092 0.19927138 0.101489335
0.083070874 0.19909567 0.101489335
0.083070874 0.19961911 0.10086349
0.078030884 0.19997245 0.101489335
0.0797109 0.20097113 0.09980932
0.078250945 0.20129913 0.09980932
0.08139092 0.20072901 0.09980932
0.11331087 0.18254256 0.10484937
0.11331087 0.18281913 0.10459164
0.112971604 0.18281913 0.10484937
0.11163092 0.18370336 0.10484937
0.11163092 0.18449914 0.10407999
0.1102823 0.18449914 0.10484937
0.11297029 0.18449914 0.10316935
0.11331087 0.18424433 0.10316935
0.1099509 0.18473154 0.10484937
0.1099509 0.1861791 0.103695184
0.110732436 0.1861791 0.10316935
0.11163092 0.18549639 0.10316935
0.1099509 0.18677014 0.10316935
0.08475089 0.19739902 0.10316935
0.083070874 0.1979391 0.102861434
0.083070874 0.19768447 0.10316935
0.08475089 0.1979391 0.102562636
0.08643091 0.1979391 0.10215828
0.08643091 0.19706422 0.10316935
0.08475089 0.19891226 0.101489335
0.08643091 0.1985507 0.101489335
0.088110864 0.19665867 0.10316935
0.088110864 0.1979391 0.10171357
0.08890444 0.1979391 0.101489335
0.08956301 0.19625914 0.10316935
0.08979088 0.19770205 0.101489335
0.08979088 0.19625914 0.10309717
0.088110864 0.19812953 0.101489335
0.0914709 0.19625914 0.102522284
0.0914709 0.19715214 0.101489335
0.09315091 0.19625914 0.10181692
0.09315091 0.19653839 0.101489335
0.09388006 0.19625914 0.101489335
0.11163092 0.18067223 0.10820934
0.11163092 0.18113911 0.10762784
0.11033422 0.18113911 0.10820934
0.1099509 0.18128419 0.10820934
0.1099509 0.18277234 0.106529325
0.11163092 0.1820637 0.106529325
0.113067746 0.18113911 0.106529325
0.07635087 0.18611234 0.11828932
0.07635087 0.1861791 0.118208975
0.07131088 0.18785912 0.11749819
0.07131088 0.18733144 0.11828932
0.072990894 0.18785912 0.11711964
0.07131088 0.18851137 0.116609365
0.072990894 0.18824899 0.116609365
0.07514274 0.18785912 0.116609365
0.07467091 0.18785912 0.11673179
0.07635087 0.18756336 0.116609365
0.07467091 0.1879639 0.116609365
0.078030884 0.1861791 0.117767066
0.0797109 0.1861791 0.1174722
0.083070874 0.18449914 0.118258506
0.08270061 0.1861791 0.116609365
0.08139092 0.1861791 0.117034465
0.083070874 0.18607569 0.116609365
0.078030884 0.18714297 0.116609365
0.0797109 0.1868146 0.116609365
0.08139092 0.18650675 0.116609365
0.09315091 0.1811201 0.11828932
0.09315091 0.18113911 0.11827132
0.09308821 0.18113911 0.11828932
0.08979088 0.1824696 0.11828932
0.08979088 0.18281913 0.11798093
0.08896792 0.18281913 0.11828932
0.0914709 0.1817131 0.11828932
0.0914709 0.18281913 0.117310435
0.09315091 0.18281913 0.11669609
0.09483087 0.18061823 0.11828932
0.09651089 0.18113911 0.11717561
0.09483087 0.18113911 0.11781791
0.093430996 0.18281913 0.116609365
0.09483087 0.18238705 0.116609365
0.09651089 0.17991298 0.11828932
0.09651089 0.18168074 0.116609365
0.08475089 0.1826374 0.11996934
0.08475089 0.18281913 0.119726926
0.083848536 0.18281913 0.11996934
0.08643091 0.18281913 0.11917493
0.08643091 0.18219191 0.11996934
0.088110864 0.18147719 0.11996934
0.08979088 0.18069774 0.11996934
0.08979088 0.18113911 0.1195052
0.088830054 0.18113911 0.11996934
0.088110864 0.18281913 0.11858979
0.09315091 0.17943305 0.11996934
0.09315091 0.1794591 0.11994186
0.09306824 0.1794591 0.11996934
0.09483087 0.1794591 0.119418114
0.09483087 0.17893493 0.11996934
0.09651089 0.1794591 0.11868921
0.09651089 0.17818213 0.11996934
0.0914709 0.18113911 0.118801564
0.0914709 0.1800006 0.11996934
0.09987092 0.17575061 0.11996934
0.09987092 0.17609912 0.11962733
0.09932798 0.17609912 0.11996934
0.10155088 0.17609912 0.11866835
0.10323089 0.17404884 0.11996934
0.10323089 0.1744191 0.11957064
0.10239136 0.1744191 0.11996934
0.10155088 0.17482018 0.11996934
0.10226679 0.17609912 0.11828932
0.10323089 0.17561746 0.11828932
0.10659087 0.17251253 0.11996934
0.10659087 0.17273915 0.119782716
0.10625523 0.17273915 0.11996934
0.10827088 0.17273915 0.11844483
0.10491091 0.1744191 0.11884627
0.10491091 0.17336684 0.11996934
0.10592741 0.1744191 0.11828932
0.10659087 0.17406368 0.11828932
0.10491091 0.17488939 0.11828932
0.10827088 0.17288655 0.11828932
0.0981909 0.17695415 0.11996934
0.0981909 0.17777914 0.11924681
0.097147405 0.17777914 0.11996934
0.09987092 0.17757636 0.11828932
0.09959602 0.17777914 0.11828932
0.09731519 0.1794591 0.11828932
0.0981909 0.17887974 0.11828932
0.10155088 0.17649454 0.11828932
0.08475089 0.183967 0.11828932
0.08643091 0.18354517 0.11828932
0.1099509 0.17631692 0.11324933
0.11029202 0.17777914 0.111569315
0.1099509 0.17777914 0.11175045
0.1099509 0.1779648 0.111569315
0.072990894 0.18960935 0.11492935
0.07358062 0.18953913 0.11492935
0.072990894 0.19092786 0.11324933
0.07467091 0.18953913 0.11473408
0.07467091 0.19076371 0.11324933
0.07635087 0.18953913 0.11420879
0.07635087 0.19034529 0.11324933
0.078030884 0.18953913 0.11369774
0.078030884 0.18990576 0.11324933
0.10827088 0.17587042 0.11492935
0.10827088 0.17609912 0.11466679
0.107856095 0.17609912 0.11492935
0.07968682 0.18953913 0.11324933
0.1099509 0.17609912 0.11349079
0.0981909 0.18238842 0.11492935
0.0981909 0.18281913 0.11453113
0.097317636 0.18281913 0.11492935
0.10323089 0.17897469 0.11492935
0.10323089 0.1794591 0.11445871
0.10254693 0.1794591 0.11492935
0.09987092 0.18281913 0.11371806
0.09987092 0.18138355 0.11492935
0.10155088 0.18020785 0.11492935
0.10155088 0.18113911 0.11411306
0.10022259 0.18113911 0.11492935
0.10272634 0.18113911 0.11324933
0.10323089 0.18073231 0.11324933
0.10056853 0.18281913 0.11324933
0.10155088 0.18206328 0.11324933
0.10491091 0.1794591 0.113251
0.10659087 0.17677337 0.11492935
0.10659087 0.17777914 0.1138154
0.10493243 0.17777914 0.11492935
0.10491091 0.17779356 0.11492935
0.104913235 0.1794591 0.11324933
0.10659087 0.17833555 0.11324933
0.10748541 0.17777914 0.11324933
0.10827088 0.17732579 0.11324933
0.10491091 0.17946076 0.11324933
0.08979088 0.18557853 0.11492935
0.08979088 0.1861791 0.114173144
0.08864838 0.1861791 0.11492935
0.08475089 0.18785912 0.11448732
0.083070874 0.18785912 0.11466357
0.08475089 0.18738925 0.11492935
0.083070874 0.18761498 0.11492935
0.08643091 0.18707919 0.11492935
0.08643091 0.18785912 0.11417398
0.08475089 0.18913007 0.11324933
0.083070874 0.18911856 0.11324933
0.08643091 0.18882245 0.11324933
0.088110864 0.18645662 0.11492935
0.088110864 0.18785912 0.1132997
0.08818239 0.18785912 0.11324933
0.08979088 0.18691236 0.11324933
0.088110864 0.18790549 0.11324933
0.09315091 0.18422216 0.11492935
0.09315091 0.18449914 0.11454132
0.09233183 0.18449914 0.11492935
0.0914709 0.18482673 0.11492935
0.09129512 0.1861791 0.11324933
0.09315091 0.18543041 0.11324933
0.0914709 0.18609923 0.11324933
0.09483087 0.18449914 0.11391476
0.09483087 0.18377447 0.11492935
0.09651089 0.18449914 0.113357455
0.09651089 0.18316776 0.11492935
0.09483087 0.18494171 0.11324933
0.09651089 0.18458146 0.11324933
0.09692109 0.18449914 0.11324933
0.0981909 0.18416387 0.11324933
0.09987092 0.18335664 0.11324933
0.10491091 0.18978345 0.10316935
0.10323089 0.19121909 0.102588564
0.10323089 0.19071442 0.10316935
0.0797109 0.19836342 0.10316935
0.08175129 0.1979391 0.10316935
0.078030884 0.19866556 0.10316935
0.078030884 0.19961911 0.10192427
0.08139092 0.19801313 0.10316935
0.083253026 0.19625914 0.10484937
0.08475089 0.19625914 0.10444167
0.083070874 0.19630629 0.10484937
0.08643091 0.19625914 0.10408184
0.088110864 0.19625914 0.103608996
0.0797109 0.18953413 0.11324933
0.0797109 0.18953913 0.11324343
0.08139092 0.18953913 0.11288205
0.08139092 0.18922901 0.11324933
0.083070874 0.18953913 0.112772554
0.07773602 0.19289911 0.10988936
0.07800043 0.19457912 0.10820934
0.07635087 0.19457912 0.10859099
0.07635087 0.19328141 0.10988936
0.0797109 0.19289911 0.10940781
0.0797109 0.19409615 0.10820934
0.078030884 0.19457108 0.10820934
0.078030884 0.19289911 0.10981044
0.08139092 0.19378543 0.10820934
0.08139092 0.19289911 0.10916665
0.083070874 0.19289911 0.109113604
0.07635087 0.1949265 0.10820934
0.1099509 0.18113911 0.108374864
0.10827088 0.18113911 0.10941377
0.10827088 0.18067539 0.10988936
0.10753018 0.18113911 0.10988936
0.10659087 0.18173945 0.10988936
0.10659087 0.18281913 0.1087943
0.10493994 0.18281913 0.10988936
0.083070874 0.1936664 0.10820934
0.10827088 0.18226278 0.10820934
0.10742819 0.18281913 0.10820934
0.1099509 0.17973667 0.10988936
0.0914709 0.18889135 0.10988936
0.0914709 0.18953913 0.109197706
0.09041625 0.18953913 0.10988936
0.09651089 0.18700272 0.10988936
0.09483087 0.18785912 0.10924557
0.09483087 0.18732649 0.10988936
0.09343696 0.18785912 0.10988936
0.09315091 0.18953913 0.10832992
0.09315091 0.18799978 0.10988936
0.093441665 0.18953913 0.10820934
0.09651089 0.18785912 0.10888973
0.08475089 0.19289911 0.108967274
0.083070874 0.19216281 0.10988936
0.09651089 0.18853754 0.10820934
0.09483087 0.18894899 0.10820934
0.08979088 0.19014537 0.10988936
0.08979088 0.19121909 0.10900536
0.08858782 0.19121909 0.10988936
0.08475089 0.19215167 0.10988936
0.08643091 0.19197255 0.10988936
0.08643091 0.19289911 0.108662516
0.088110864 0.19149727 0.10988936
0.08979088 0.19188648 0.10820934
0.088110864 0.19285256 0.10820934
0.08795059 0.19289911 0.10820934
0.08475089 0.1934697 0.10820934
0.08643091 0.19318914 0.10820934
0.0914709 0.19065517 0.10820934
0.090709746 0.19121909 0.10820934
0.10323089 0.18409252 0.10988936
0.10323089 0.18449914 0.109487146
0.10271335 0.18449914 0.10988936
0.09315091 0.18968916 0.10820934
0.10323089 0.1857112 0.10820934
0.1024884 0.1861791 0.10820934
0.10155088 0.18538547 0.10988936
0.10155088 0.1861791 0.10894868
0.10061222 0.1861791 0.10988936
0.09987092 0.18785912 0.10847345
0.0981909 0.18785912 0.10895452
0.0981909 0.18710989 0.10988936
0.0981909 0.18840957 0.10820934
0.09987092 0.18688667 0.10988936
0.10155088 0.18680525 0.10820934
0.10009968 0.18785912 0.10820934
0.09987092 0.18798727 0.10820934
0.0981909 0.19289911 0.10328975
0.098410904 0.19289911 0.10316935
0.0981909 0.19299603 0.10316935
0.09651089 0.19371283 0.10316935
0.09651089 0.19289911 0.10422191
0.10491091 0.18953913 0.103441864
0.10532212 0.18953913 0.10316935
0.10323089 0.18953913 0.10446176
0.0797109 0.19703901 0.10484937
0.078030884 0.1979391 0.1041179
0.078030884 0.19734198 0.10484937
0.07635087 0.1979391 0.10445228
0.07635087 0.19763368 0.10484937
0.0797109 0.1979391 0.10376343
0.08139092 0.19673926 0.10484937
0.08139092 0.1979391 0.10326871
0.07635087 0.19624865 0.106529325
0.07635087 0.19625914 0.10651681
0.07630253 0.19625914 0.106529325
0.078030884 0.19625914 0.10616484
0.08139092 0.19625914 0.105407745
0.0797109 0.19625914 0.1057457
0.08139092 0.19524771 0.106529325
0.083070874 0.19625914 0.10490456
0.083070874 0.19490755 0.106529325
0.1099509 0.18281913 0.10648194
0.10987067 0.18281913 0.106529325
0.078030884 0.19597036 0.106529325
0.0797109 0.19559151 0.106529325
0.08475089 0.19460464 0.106529325
0.08488464 0.19457912 0.106529325
0.08475089 0.19590211 0.10484937
0.08643091 0.19457912 0.10608199
0.08643091 0.19557464 0.10484937
0.088110864 0.19374067 0.106529325
0.08643091 0.1942541 0.106529325
0.088110864 0.19457912 0.10545835
0.088110864 0.19510525 0.10484937
0.08979088 0.19457912 0.10492274
0.08979088 0.1946435 0.10484937
0.0914709 0.19266188 0.106529325
0.0914709 0.19289911 0.10631439
0.09081721 0.19289911 0.106529325
0.08979088 0.19321448 0.106529325
0.09315091 0.19195616 0.106529325
0.09483087 0.191239 0.106529325
0.09483087 0.19289911 0.10502353
0.09522349 0.19289911 0.10484937
0.09488046 0.19121909 0.106529325
0.09651089 0.19121909 0.10597476
0.09315091 0.19289911 0.10570696
0.09651089 0.1905455 0.106529325
0.0914709 0.19421917 0.10484937
0.09315091 0.19366646 0.10484937
0.09005064 0.19457912 0.10484937
0.09651089 0.19234788 0.10484937
0.10323089 0.18739086 0.106529325
0.10323089 0.18785912 0.10608891
0.102413416 0.18785912 0.106529325
0.10155088 0.1883561 0.106529325
0.09987092 0.18953913 0.106268674
0.09987092 0.1892842 0.106529325
0.10155088 0.18953913 0.105351895
0.09483087 0.19305235 0.10484937
0.099276245 0.18953913 0.106529325
0.1024912 0.18953913 0.10484937
0.10323089 0.189152 0.10484937
0.08643091 0.18953913 0.11257538
0.08643091 0.190516 0.111569315
0.08475089 0.19073015 0.111569315
0.08809847 0.18953913 0.111569315
0.0981909 0.18449914 0.11288503
0.08475089 0.18953913 0.11283687
0.083070874 0.19062042 0.111569315
0.0981909 0.1856628 0.111569315
0.09987092 0.18449914 0.1121023
0.09987092 0.18513894 0.111569315
0.10065186 0.18449914 0.111569315
0.09651089 0.18575913 0.111569315
0.10155088 0.18281913 0.112498194
0.10155088 0.18381864 0.111569315
0.10267359 0.18281913 0.111569315
0.088110864 0.18113911 0.12030932
0.09483087 0.17777914 0.12106541
0.09651089 0.17777914 0.12034938
0.0914709 0.1794591 0.12054554
0.10155088 0.1744191 0.12039307
0.10659087 0.17105913 0.121013254
0.10491091 0.17273915 0.12066874
0.0981909 0.17609912 0.12067458
0.083070874 0.18281913 0.120168895
0.07467091 0.19516039 0.10820934
0.07467091 0.19457912 0.1089147
0.07467091 0.19371831 0.10988936
0.08139092 0.19219214 0.10988936
0.0797109 0.19241989 0.10988936
0.078030884 0.19282126 0.10988936
0.08979088 0.1979391 0.10120031
0.08475089 0.19961911 0.10069141
0.10491091 0.18457216 0.10820934
0.10323089 0.1861791 0.10772368
0.10659087 0.1833989 0.10820934
0.10659087 0.18449914 0.1071181
0.10501039 0.18449914 0.10820934
0.10827088 0.18392116 0.106529325
0.10746497 0.18449914 0.106529325
0.10659087 0.18513829 0.106529325
0.1051501 0.1861791 0.106529325
0.10491091 0.1861791 0.10668656
0.0981909 0.18953913 0.10695228
0.0981909 0.18996722 0.106529325
0.09651089 0.18953913 0.10733214
0.10491091 0.18635166 0.106529325
0.10827088 0.18281913 0.10760841
0.07635087 0.18897116 0.11492935
0.07467091 0.18937624 0.11492935
0.072990894 0.18953913 0.11501548
0.07635087 0.18785912 0.11627546
0.078030884 0.18785912 0.115765244
0.078030884 0.1885438 0.11492935
0.0797109 0.18785912 0.11526886
0.083070874 0.1861791 0.11649868
0.08139092 0.1878475 0.11492935
0.0813126 0.18785912 0.11492935
0.0797109 0.18813705 0.11492935
0.09651089 0.18281913 0.11532381
0.09483087 0.18281913 0.11612657
0.1099509 0.18449914 0.10503331
0.10827088 0.18449914 0.10601428
0.10659087 0.1861791 0.10561982
0.10491091 0.18785912 0.10514966
0.10827088 0.18596262 0.10484937
0.107961714 0.1861791 0.10484937
0.10659087 0.18704641 0.10484937
0.105380714 0.18785912 0.10484937
0.10491091 0.18816799 0.10484937
0.0981909 0.19121909 0.10531345
0.0981909 0.1916421 0.10484937
0.09987092 0.19088441 0.10484937
0.09915173 0.19121909 0.10484937
0.10155088 0.19001353 0.10484937
0.11061579 0.1794591 0.10988936
0.1099509 0.1794591 0.1101605
0.078030884 0.19457912 0.108201
0.0797109 0.19457912 0.10768631
0.08139092 0.19457912 0.107298344
0.083070874 0.19457912 0.106966406
0.08475089 0.19457912 0.10656592
0.09483087 0.18953913 0.10773435
0.088110864 0.19289911 0.10812876
0.08979088 0.19289911 0.10695234
0.0914709 0.19121909 0.10774526
0.09315091 0.19121909 0.107093126
0.09483087 0.19121909 0.10654542
0.10155088 0.18785912 0.1070576
0.07635087 0.19121909 0.11225274
0.07635087 0.19179314 0.111569315
0.07467091 0.19220477 0.111569315
0.078030884 0.19121909 0.111674696
0.078361094 0.19121909 0.111569315
0.0797109 0.19091105 0.111569315
0.072990894 0.19121909 0.11288378
0.07467091 0.19121909 0.1127024
0.10323089 0.18113911 0.11284003
0.10323089 0.18236238 0.111569315
0.10659087 0.1794591 0.112164766
0.10827088 0.17777914 0.11276308
0.078030884 0.19131076 0.111569315
0.08139092 0.19066036 0.111569315
0.10491091 0.18113911 0.111581236
0.10492861 0.18113911 0.111569315
0.10659087 0.18006837 0.111569315
0.10491091 0.18115085 0.111569315
0.10755503 0.1794591 0.111569315
0.10827088 0.17899984 0.111569315
0.088110864 0.18952948 0.111569315
0.08979088 0.18834567 0.111569315
0.08979088 0.18785912 0.11210826
0.0914709 0.1861791 0.113149315
0.09315091 0.1861791 0.11223164
0.0914709 0.18744409 0.111569315
0.09315091 0.18667853 0.111569315
0.09063995 0.18785912 0.111569315
0.09442222 0.1861791 0.111569315
0.09483087 0.1860516 0.111569315
0.088110864 0.18312168 0.11828932
0.11163092 0.17898613 0.10988936
0.11163092 0.1794591 0.109491676
0.07635087 0.19289911 0.11029002
0.07467091 0.19289911 0.11079422
0.0797109 0.19121909 0.111200005
0.08139092 0.19121909 0.110922664
0.083070874 0.19121909 0.11090556
0.08979088 0.19619203 0.10316935
0.09315091 0.19457912 0.103791445
0.0914709 0.19457912 0.10443589
0.09315091 0.19510478 0.10316935
0.0914709 0.19569105 0.10316935
0.10659087 0.18785912 0.10410723
0.10827088 0.1861791 0.10467878
0.09483087 0.19440407 0.10316935
0.09442359 0.19457912 0.10316935
0.09987092 0.19121909 0.10445854
0.10827088 0.18785912 0.10316983
0.10827166 0.18785912 0.10316935
0.10827088 0.1878596 0.10316935
0.10659087 0.18878698 0.10316935
0.09987092 0.19227123 0.10316935
0.10155088 0.19121909 0.10350767
0.10217512 0.19121909 0.10316935
0.10155088 0.19151658 0.10316935
0.1099509 0.18785912 0.102190346
0.10659087 0.18953913 0.10237047
0.09651089 0.19457912 0.102075666
0.09483087 0.19457912 0.102948815
0.09987092 0.19289911 0.10242078
0.10491091 0.18281913 0.10990897
0.10323089 0.18281913 0.11112055
0.10659087 0.18113911 0.110497326
0.10827088 0.1794591 0.11112216
0.0914709 0.18785912 0.111062676
0.09651089 0.1861791 0.11096975
0.09483087 0.1861791 0.111392945
0.08979088 0.18953913 0.110321015
0.09315091 0.18785912 0.110052496
0.088110864 0.18953913 0.11155954
0.08475089 0.19121909 0.1110138
0.08643091 0.19121909 0.11076036
0.088110864 0.19121909 0.11012152
0.0981909 0.1861791 0.11096218
0.10155088 0.18449914 0.11088315
0.09987092 0.1861791 0.11059716
0.08139092 0.18785912 0.11491546
0.0797109 0.20129913 0.09943381
0.10491091 0.18283904 0.10988936
0.11163092 0.1861791 0.10255155
0.11331087 0.18449914 0.10292837
0.10659087 0.17539626 0.116609365
0.10659087 0.17609912 0.11573723
0.10825533 0.1744191 0.116609365
0.10519022 0.17609912 0.116609365
0.10827088 0.17440891 0.116609365
0.10827088 0.1744191 0.11659804
0.09987092 0.18113911 0.11514732
0.0981909 0.18113911 0.11633679
0.09987092 0.17956388 0.116609365
0.097735524 0.18113911 0.116609365
0.102347076 0.17777914 0.116609365
0.10323089 0.17777914 0.11607632
0.0981909 0.18087947 0.116609365
0.10323089 0.17723763 0.116609365
0.10155088 0.17830831 0.116609365
0.10155088 0.1794591 0.11558452
0.10000831 0.1794591 0.116609365
0.10491091 0.17624903 0.116609365
0.10491091 0.17777914 0.11494449
0.08894962 0.18449914 0.116609365
0.08979088 0.18449914 0.116241306
0.08475089 0.1861791 0.11608288
0.088110864 0.1861791 0.115222365
0.08643091 0.1861791 0.11576977
0.08643091 0.18523884 0.116609365
0.088110864 0.1847927 0.116609365
0.08475089 0.18563557 0.116609365
0.08979088 0.18417871 0.116609365
0.0914709 0.18449914 0.11536214
0.09315091 0.18289989 0.116609365
0.0914709 0.1834938 0.116609365
0.11163092 0.18281913 0.105746776
0.10323089 0.17609912 0.11777875
0.10491091 0.17609912 0.11678305
0.10659087 0.1744191 0.11786106
0.0981909 0.1794591 0.117809385
0.09987092 0.17777914 0.11811051
0.09987092 0.1794591 0.1167036
0.10155088 0.17777914 0.117087156
0.08643091 0.18449914 0.11729124
0.08475089 0.18449914 0.117720634
0.088110864 0.18449914 0.11690304
0.10491091 0.18449914 0.10827866
POLYGONS 1085 4340
3 0 1 2
3 0 3 1
3 4 5 6
3 7 5 4
3 4 8 7
3 9 4 6
3 10 4 9
3 9 11 10
3 11 12 10
3 11 13 12
3 8 4 10
3 10 14 8
3 10 12 14
3 15 16 17
3 18 16 15
3 15 19 18
3 20 18 19
3 21 18 20
3 22 23 24
3 22 17 23
3 17 16 23
3 23 16 18
3 18 25 23
3 25 18 21
3 26 27 28
3 29 30 31
3 29 32 30
3 29 28 32
3 28 27 32
3 27 33 32
3 34 31 35
3 31 30 35
3 30 36 35
3 30 37 36
3 30 32 37
3 35 36 38
3 39 40 41
3 42 40 39
3 43 42 39
3 39 44 43
3 20 40 42
3 42 45 20
3 45 42 43
3 43 46 45
3 47 43 44
3 48 43 47
3 47 49 48
3 47 50 49
3 50 51 49
3 50 52 51
3 46 43 48
3 48 53 46
3 48 49 53
3 51 52 54
3 54 55 51
3 55 54 56
3 56 57 55
3 56 58 57
3 59 60 61
3 62 61 63
3 61 60 64
3 61 64 63
3 60 65 64
3 66 67 3
3 2 68 69
3 70 68 2
3 71 68 70
3 1 70 2
3 70 72 71
3 1 73 74
3 74 70 1
3 3 75 73
3 1 3 73
3 72 70 74
3 3 67 75
3 74 73 76
3 74 76 72
3 66 7 77
3 77 67 66
3 7 8 78
3 78 77 7
3 14 78 8
3 13 79 12
3 14 80 81
3 81 78 14
3 12 82 80
3 14 12 80
3 75 67 77
3 12 79 82
3 83 77 78
3 77 83 75
3 84 78 81
3 78 84 83
3 81 80 85
3 81 85 84
3 86 87 88
3 89 90 91
3 89 92 93
3 93 90 89
3 88 94 93
3 92 88 93
3 95 87 86
3 88 87 94
3 96 97 95
3 97 87 95
3 98 97 99
3 95 100 96
3 98 94 87
3 98 87 97
3 96 101 99
3 99 97 96
3 102 103 104
3 105 103 106
3 106 103 102
3 107 105 106
3 108 109 110
3 107 91 111
3 111 105 107
3 110 109 91
3 107 110 91
3 112 113 114
3 109 89 91
3 115 113 116
3 116 113 112
3 117 115 118
3 118 115 116
3 119 109 120
3 120 109 108
3 120 114 88
3 120 88 119
3 114 113 86
3 114 86 88
3 119 92 89
3 89 109 119
3 86 113 115
3 119 88 92
3 95 115 117
3 115 95 86
3 121 122 123
3 117 100 95
3 124 122 121
3 125 126 127
3 128 129 124
3 121 128 124
3 127 130 129
3 128 127 129
3 131 132 133
3 127 126 130
3 131 134 132
3 135 126 136
3 136 126 125
3 136 133 137
3 136 137 135
3 133 132 138
3 133 138 137
3 135 139 130
3 130 126 135
3 138 132 134
3 135 137 139
3 134 140 138
3 141 123 142
3 141 142 143
3 123 144 145
3 123 145 142
3 118 146 117
3 123 122 144
3 143 142 146
3 118 143 146
3 142 145 147
3 142 147 146
3 124 148 144
3 144 122 124
3 117 146 100
3 124 129 148
3 104 149 13
3 11 104 13
3 149 103 105
3 104 103 149
3 105 150 149
3 151 152 153
3 153 152 154
3 155 156 157
3 156 158 159
3 156 159 157
3 160 161 159
3 159 158 160
3 162 163 161
3 161 160 162
3 164 165 166
3 162 167 163
3 168 165 164
3 169 170 171
3 172 173 174
3 175 170 176
3 176 170 169
3 177 174 178
3 177 178 179
3 174 173 180
3 174 180 178
3 176 179 175
3 173 181 180
3 178 182 175
3 179 178 175
3 178 180 183
3 178 183 182
3 184 173 172
3 185 186 187
3 188 189 184
3 172 188 184
3 187 190 189
3 188 187 189
3 185 191 186
3 187 186 190
3 166 192 191
3 185 166 191
3 192 165 168
3 166 165 192
3 186 191 190
3 168 151 192
3 184 193 181
3 181 173 184
3 194 195 196
3 184 189 193
3 197 198 199
3 199 198 200
3 199 201 202
3 202 197 199
3 197 203 204
3 204 198 197
3 202 205 203
3 203 197 202
3 201 206 207
3 207 202 201
3 206 196 208
3 206 208 207
3 196 195 209
3 196 209 208
3 207 210 205
3 205 202 207
3 211 212 213
3 207 208 210
3 214 215 195
3 194 214 195
3 214 216 217
3 214 217 215
3 213 212 216
3 214 213 216
3 218 212 219
3 219 212 211
3 220 218 221
3 221 218 219
3 218 222 216
3 216 212 218
3 220 223 222
3 222 218 220
3 195 215 209
3 221 171 224
3 221 224 220
3 171 170 225
3 171 225 224
3 175 226 225
3 225 170 175
3 175 182 226
3 220 224 223
3 227 228 229
3 230 15 17
3 41 40 231
3 232 17 233
3 232 230 17
3 234 231 19
3 231 20 19
3 234 15 230
3 19 15 234
3 233 17 22
3 231 40 20
3 235 236 41
3 236 39 41
3 237 235 41
3 44 238 239
3 239 47 44
3 39 236 238
3 238 44 39
3 239 50 47
3 240 241 167
3 204 242 243
3 244 242 204
3 243 241 240
3 242 241 243
3 245 246 247
3 248 245 247
3 249 250 251
3 251 252 249
3 245 252 251
3 245 251 246
3 253 254 255
3 254 253 250
3 250 249 254
3 247 246 256
3 257 258 259
3 259 258 260
3 261 262 263
3 255 264 253
3 260 265 266
3 261 260 266
3 261 266 262
3 259 267 257
3 268 269 270
3 257 62 265
3 265 258 257
3 260 258 265
3 271 272 273
3 273 272 274
3 275 269 276
3 276 269 268
3 274 272 277
3 276 274 277
3 276 277 275
3 278 272 271
3 279 255 280
3 278 281 282
3 282 272 278
3 272 282 277
3 283 284 285
3 286 287 288
3 288 279 286
3 280 286 279
3 289 290 291
3 289 291 292
3 287 289 292
3 287 292 288
3 279 293 264
3 264 255 279
3 285 284 290
3 289 285 290
3 283 270 284
3 288 292 294
3 288 294 293
3 293 279 288
3 295 269 275
3 269 295 296
3 269 296 284
3 270 269 284
3 297 298 299
3 275 277 300
3 284 296 290
3 275 300 295
3 299 301 302
3 303 299 302
3 303 302 304
3 303 304 305
3 306 307 308
3 307 278 308
3 308 278 271
3 299 298 301
3 309 307 306
3 307 309 281
3 281 278 307
3 308 310 306
3 310 304 311
3 311 312 306
3 310 311 306
3 306 313 309
3 306 312 313
3 304 302 311
3 310 305 304
3 314 315 316
3 314 316 317
3 317 318 314
3 319 320 227
3 319 227 229
3 229 321 319
3 322 323 324
3 323 325 324
3 324 325 326
3 232 323 327
3 327 323 322
3 328 231 329
3 322 328 329
3 329 327 322
3 327 230 232
3 329 234 230
3 230 327 329
3 328 237 41
3 328 41 231
3 329 231 234
3 330 331 332
3 333 331 330
3 334 335 336
3 337 334 336
3 336 338 337
3 63 339 340
3 330 341 333
3 342 333 341
3 335 333 342
3 336 335 342
3 343 344 345
3 344 346 345
3 346 347 345
3 348 346 349
3 349 346 344
3 338 235 337
3 338 345 235
3 338 343 345
3 350 351 347
3 351 350 352
3 352 353 351
3 354 355 356
3 350 346 348
3 357 350 348
3 352 350 357
3 347 346 350
3 358 359 360
3 359 361 360
3 359 362 361
3 362 363 361
3 358 355 354
3 364 355 358
3 365 363 362
3 360 364 358
3 356 355 366
3 366 355 364
3 364 367 366
3 352 368 353
3 363 369 361
3 357 368 352
3 357 356 368
3 356 366 368
3 370 371 372
3 373 374 375
3 376 374 373
3 373 372 376
3 367 364 360
3 360 377 367
3 360 361 377
3 375 374 378
3 372 379 376
3 372 371 379
3 371 380 379
3 381 382 383
3 381 384 382
3 225 385 224
3 226 385 225
3 383 244 386
3 387 244 383
3 383 386 381
3 388 385 389
3 389 390 388
3 226 391 389
3 226 182 391
3 389 385 226
3 223 224 392
3 224 388 392
3 224 385 388
3 182 393 391
3 393 394 391
3 393 395 394
3 389 391 390
3 396 107 106
3 396 110 107
3 116 397 398
3 398 118 116
3 399 120 108
3 397 116 112
3 399 114 120
3 400 128 121
3 401 133 402
3 401 131 133
3 400 127 128
3 402 136 125
3 403 141 143
3 403 123 141
3 398 143 118
3 404 104 11
3 402 133 136
3 247 256 405
3 405 406 247
3 247 406 248
3 248 406 407
3 255 254 408
3 409 408 254
3 408 280 255
3 409 252 410
3 410 252 245
3 254 249 409
3 249 252 409
3 404 11 9
3 51 411 49
3 412 21 45
3 46 412 45
3 45 21 20
3 413 414 301
3 415 416 417
3 266 418 419
3 415 266 419
3 415 419 416
3 417 416 420
3 413 417 420
3 413 420 421
3 413 421 422
3 422 414 413
3 423 424 365
3 365 425 423
3 422 421 426
3 422 426 370
3 370 414 422
3 416 419 420
3 427 340 418
3 266 427 418
3 423 378 424
3 73 428 429
3 76 73 429
3 76 429 156
3 72 76 156
3 72 156 430
3 75 431 73
3 432 433 428
3 428 431 432
3 83 84 434
3 434 432 83
3 75 83 432
3 432 431 75
3 82 435 80
3 73 431 428
3 80 435 200
3 85 80 200
3 85 200 436
3 85 436 437
3 85 437 434
3 84 85 434
3 434 438 433
3 433 432 434
3 439 440 99
3 99 440 98
3 430 156 155
3 434 437 438
3 99 101 439
3 418 340 339
3 418 339 441
3 418 441 442
3 418 442 419
3 420 443 421
3 444 371 426
3 426 371 370
3 441 34 445
3 445 442 441
3 420 419 442
3 445 446 443
3 442 445 443
3 420 442 443
3 443 446 447
3 444 448 449
3 444 449 380
3 380 371 444
3 443 447 448
3 421 443 448
3 421 448 444
3 426 421 444
3 450 451 369
3 369 363 450
3 378 374 452
3 378 452 453
3 424 378 453
3 424 453 450
3 365 424 450
3 450 363 365
3 376 379 454
3 376 454 452
3 452 374 376
3 450 453 451
3 332 331 326
3 328 334 337
3 334 328 322
3 322 335 334
3 335 322 324
3 324 333 335
3 333 324 326
3 326 331 333
3 337 237 328
3 152 455 456
3 154 152 456
3 456 455 267
3 256 330 332
3 251 457 246
3 458 457 251
3 251 250 458
3 256 341 330
3 342 458 459
3 459 336 342
3 336 459 460
3 460 338 336
3 265 427 266
3 265 62 427
3 62 63 427
3 63 340 427
3 256 246 341
3 246 457 341
3 341 457 458
3 458 342 341
3 459 458 250
3 250 253 459
3 460 459 253
3 253 264 460
3 293 344 461
3 293 349 344
3 293 294 349
3 338 460 461
3 461 343 338
3 461 344 343
3 294 348 349
3 294 292 348
3 282 462 277
3 425 462 282
3 282 281 425
3 291 463 292
3 290 463 291
3 464 463 290
3 461 460 264
3 264 293 461
3 296 465 356
3 465 354 356
3 354 465 466
3 466 358 354
3 300 277 466
3 277 462 466
3 462 467 466
3 362 462 365
3 292 463 348
3 348 463 464
3 464 357 348
3 295 465 296
3 300 465 295
3 466 465 300
3 290 356 464
3 290 296 356
3 281 309 423
3 309 378 423
3 309 313 378
3 313 375 378
3 311 468 312
3 311 372 468
3 311 302 372
3 302 414 372
3 462 425 365
3 362 467 462
3 358 466 467
3 467 359 358
3 467 362 359
3 464 356 357
3 301 414 302
3 423 425 281
3 414 370 372
3 313 312 375
3 312 468 375
3 468 373 375
3 468 372 373
3 469 470 471
3 472 469 161
3 161 163 472
3 163 473 472
3 163 167 473
3 167 241 473
3 241 474 473
3 159 475 157
3 476 475 159
3 161 476 159
3 469 476 161
3 471 476 469
3 183 393 182
3 183 395 393
3 183 180 395
3 180 477 395
3 477 478 395
3 190 479 189
3 192 480 191
3 151 480 192
3 470 469 472
3 472 481 470
3 472 473 481
3 474 241 242
3 242 482 474
3 482 242 244
3 244 387 482
3 181 477 180
3 483 477 193
3 193 484 483
3 193 485 484
3 193 189 485
3 189 479 485
3 478 477 483
3 483 486 478
3 483 484 486
3 153 480 151
3 190 191 479
3 191 480 479
3 480 487 479
3 480 488 487
3 488 480 153
3 153 154 488
3 193 477 181
3 210 489 384
3 210 208 489
3 208 490 489
3 208 491 490
3 217 492 215
3 493 492 217
3 217 216 493
3 216 222 493
3 479 487 485
3 386 244 204
3 204 203 386
3 205 386 203
3 381 386 205
3 209 491 208
3 205 210 381
3 210 384 381
3 494 492 493
3 493 495 494
3 491 496 490
3 493 497 495
3 222 497 493
3 222 498 497
3 223 498 222
3 392 498 223
3 209 496 491
3 209 494 496
3 209 215 494
3 215 492 494
3 111 499 150
3 111 91 499
3 150 105 111
3 500 501 455
3 455 59 61
3 455 501 59
3 267 61 257
3 267 455 61
3 257 61 62
3 502 503 471
3 471 470 502
3 470 245 502
3 470 481 245
3 502 248 407
3 474 504 473
3 473 409 410
3 473 504 409
3 481 410 245
3 481 473 410
3 407 503 502
3 387 505 482
3 506 505 387
3 482 504 474
3 505 504 482
3 408 505 506
3 506 280 408
3 409 504 505
3 505 408 409
3 345 236 235
3 353 368 507
3 366 367 508
3 508 509 366
3 366 509 368
3 508 510 511
3 511 509 508
3 368 509 511
3 368 511 507
3 239 238 351
3 351 238 347
3 238 236 347
3 347 236 345
3 369 318 361
3 353 507 50
3 351 353 50
3 351 50 239
3 447 512 448
3 445 34 35
3 35 513 445
3 445 513 446
3 448 320 319
3 449 448 319
3 380 449 319
3 319 321 380
3 377 361 514
3 377 514 515
3 367 377 515
3 367 515 508
3 380 321 379
3 508 515 510
3 361 318 317
3 361 317 514
3 452 516 453
3 517 518 519
3 517 519 520
3 520 512 517
3 451 521 315
3 451 315 314
3 369 451 314
3 314 318 369
3 446 517 512
3 447 446 512
3 448 512 520
3 448 520 320
3 517 513 35
3 518 517 35
3 518 35 38
3 446 513 517
3 522 523 524
3 522 524 521
3 521 516 522
3 522 516 454
3 454 516 452
3 451 453 516
3 451 516 521
3 321 229 523
3 379 321 523
3 454 379 523
3 454 523 522
3 56 54 511
3 507 511 54
3 54 52 507
3 507 52 50
3 38 525 518
3 520 526 320
3 519 526 520
3 514 317 527
3 527 528 514
3 514 528 515
3 511 510 56
3 510 515 58
3 510 58 56
3 229 228 523
3 521 529 315
3 524 529 521
3 337 235 237
3 486 261 263
3 486 263 530
3 478 486 530
3 530 531 478
3 487 260 532
3 485 487 532
3 484 532 261
3 486 484 261
3 478 531 395
3 502 245 248
3 485 532 484
3 456 533 154
3 154 533 488
3 488 533 487
3 494 534 496
3 498 392 535
3 535 536 498
3 498 536 497
3 490 496 270
3 490 270 537
3 494 495 538
3 538 534 494
3 456 267 259
3 259 533 456
3 487 533 259
3 487 259 260
3 489 490 537
3 537 539 489
3 489 539 384
3 532 260 261
3 383 506 387
3 538 274 276
3 535 271 273
3 273 536 535
3 286 506 540
3 383 382 541
3 541 540 383
3 540 506 383
3 538 276 268
3 268 534 538
3 496 534 268
3 496 268 270
3 497 536 273
3 495 497 273
3 495 273 274
3 495 274 538
3 542 285 289
3 542 289 287
3 287 541 542
3 285 542 539
3 390 543 388
3 543 535 388
3 388 535 392
3 537 270 283
3 382 542 541
3 541 287 286
3 286 540 541
3 280 506 286
3 285 539 537
3 285 537 283
3 384 539 542
3 382 384 542
3 308 535 543
3 544 299 303
3 391 544 303
3 391 303 305
3 545 305 310
3 545 310 308
3 308 543 545
3 271 535 308
3 394 395 299
3 394 299 544
3 394 544 391
3 545 543 390
3 391 305 545
3 390 391 545
3 531 297 299
3 395 531 299
3 438 243 240
3 198 546 200
3 200 546 436
3 436 546 437
3 198 204 243
3 243 546 198
3 437 546 243
3 438 437 243
3 433 160 428
3 429 428 160
3 160 158 429
3 429 158 156
3 438 240 167
3 438 167 162
3 433 438 162
3 162 160 433
3 25 547 23
3 23 547 24
3 530 548 297
3 530 263 548
3 297 531 530
3 37 32 549
3 32 550 549
3 33 550 32
3 37 549 36
3 38 36 549
3 38 549 525
3 551 166 552
3 551 553 166
3 551 552 554
3 555 556 553
3 557 558 559
3 101 171 439
3 101 560 171
3 560 169 171
3 561 562 174
3 562 172 174
3 563 558 560
3 559 558 563
3 564 562 561
3 565 566 567
3 565 561 566
3 561 174 566
3 553 556 166
3 556 164 166
3 568 554 187
3 554 185 187
3 554 552 185
3 172 562 569
3 557 179 176
3 569 562 564
3 564 568 569
3 568 187 569
3 567 179 557
3 567 566 179
3 566 177 179
3 566 174 177
3 560 558 169
3 169 558 557
3 557 176 169
3 559 567 557
3 570 194 196
3 570 571 194
3 200 435 572
3 572 199 200
3 573 574 575
3 575 576 573
3 576 196 573
3 576 570 196
3 572 435 577
3 575 572 577
3 574 572 575
3 578 571 570
3 569 188 172
3 569 187 188
3 552 166 185
3 577 435 82
3 579 213 214
3 580 98 211
3 98 219 211
3 98 440 219
3 581 580 213
3 580 211 213
3 194 571 579
3 579 214 194
3 573 196 206
3 579 571 578
3 578 581 579
3 581 213 579
3 199 572 574
3 574 201 199
3 201 574 573
3 573 206 201
3 219 440 439
3 439 221 219
3 439 171 221
3 64 28 582
3 63 64 582
3 64 26 28
3 582 339 63
3 441 31 34
3 31 339 582
3 31 582 29
3 582 28 29
3 31 441 339
3 130 583 129
3 584 583 130
3 138 585 137
3 147 586 146
3 144 587 145
3 147 587 588
3 147 588 586
3 585 553 551
3 138 140 585
3 137 585 551
3 555 553 585
3 140 555 585
3 139 554 584
3 130 139 584
3 139 137 551
3 139 551 554
3 146 586 560
3 146 560 96
3 563 586 588
3 586 563 560
3 567 588 587
3 587 589 565
3 100 146 96
3 589 561 565
3 129 564 561
3 129 561 589
3 567 587 565
3 129 583 564
3 589 587 144
3 147 145 587
3 148 129 589
3 144 148 589
3 590 575 577
3 577 591 590
3 592 590 499
3 499 590 150
3 590 591 150
3 150 591 149
3 591 577 82
3 82 79 591
3 584 554 568
3 584 568 564
3 13 149 591
3 591 79 13
3 96 560 101
3 588 559 563
3 564 583 584
3 588 567 559
3 581 93 94
3 93 581 578
3 94 98 580
3 94 580 581
3 592 576 575
3 575 590 592
3 578 90 93
3 592 570 576
3 91 570 592
3 499 91 592
3 91 90 578
3 91 578 570
3 263 262 415
3 548 263 415
3 593 413 301
3 301 298 593
3 593 298 548
3 548 298 297
3 548 415 417
3 548 417 593
3 262 266 415
3 593 417 413

CELL_DATA 1085
SCALARS longitude float 1
LOOKUP_TABLE default
68.33709716796875
68.03379821777344
66.75910186767578
66.9740982055664
66.8656005859375
66.42610168457031
66.30149841308594
65.95140075683594
65.85310363769531
65.70700073242188
66.52619934082031
66.40339660644531
66.0802993774414
68.2614974975586
68.09089660644531
67.94110107421875
67.65070343017578
67.5250015258789
68.60189819335938
68.45899963378906
68.30889892578125
68.13860321044922
68.03739929199219
67.71730041503906
58.22209930419922
58.88990020751953
58.686100006103516
58.50709915161133
58.3390998840332
58.379798889160156
59.269100189208984
59.13059997558594
59.17259979248047
59.01430130004883
58.76839828491211
59.40250015258789
67.06800079345703
66.93939971923828
66.66519927978516
66.4977035522461
67.135498046875
67.03189849853516
66.71820068359375
66.60330200195312
66.19850158691406
66.09380340576172
65.89420318603516
65.71640014648438
65.61920166015625
65.48670196533203
66.2969970703125
66.16819763183594
65.94709777832031
65.33350372314453
65.23200225830078
64.9103012084961
64.78700256347656
64.56210327148438
58.432899475097656
58.7958984375
58.498199462890625
58.70320129394531
58.28960037231445
67.72149658203125
69.01689910888672
68.88590240478516
69.0863037109375
68.54429626464844
68.95089721679688
68.23670196533203
68.4260025024414
67.93939971923828
68.05180358886719
68.63200378417969
67.77359771728516
68.28520202636719
68.48780059814453
67.38929748535156
67.552001953125
66.9280014038086
67.09839630126953
66.61229705810547
65.76589965820312
66.2334976196289
66.49140167236328
65.92440032958984
66.03170013427734
67.60440063476562
65.8280029296875
67.14949798583984
67.49250030517578
66.70040130615234
67.0270004272461
66.2863998413086
66.56759643554688
62.78990173339844
63.897098541259766
63.4994010925293
63.686500549316406
63.07379913330078
63.167301177978516
62.62229919433594
62.86259841918945
62.205299377441406
62.48350143432617
62.608699798583984
62.013099670410156
62.905601501464844
62.694400787353516
62.167301177978516
62.282100677490234
65.1989974975586
64.81510162353516
64.95189666748047
64.47339630126953
63.6952018737793
64.14029693603516
64.35579681396484
63.85350036621094
64.01000213623047
62.57360076904297
63.82749938964844
62.26380157470703
62.403099060058594
61.8114013671875
61.9276008605957
63.30039978027344
63.42359924316406
62.81700134277344
63.023101806640625
62.64680099487305
62.72460174560547
63.42890167236328
63.546199798583984
62.4995002746582
63.09600067138672
62.05830001831055
62.4099006652832
60.46950149536133
61.939300537109375
60.287200927734375
59.430999755859375
59.9109001159668
60.089900970458984
59.66429901123047
59.76300048828125
58.3385009765625
59.506099700927734
58.17729949951172
59.058101654052734
59.17599868774414
58.651100158691406
58.84090042114258
58.415000915527344
58.550498962402344
59.18920135498047
59.302101135253906
58.25400161743164
58.91469955444336
58.127498626708984
60.87919998168945
61.135799407958984
60.65439987182617
60.80149841308594
61.60599899291992
60.554298400878906
61.3213996887207
61.47819900512695
61.02180099487305
61.285099029541016
60.25360107421875
60.37229919433594
61.68299865722656
59.989601135253906
65.4614028930664
65.56749725341797
65.03019714355469
65.25180053710938
64.91549682617188
58.16749954223633
58.24689865112305
68.93599700927734
68.6344985961914
68.82820129394531
68.27539825439453
68.39340209960938
67.80989837646484
67.94200134277344
58.437198638916016
67.49420166015625
58.272499084472656
61.812198638916016
60.12350082397461
61.42530059814453
61.542301177978516
60.526100158691406
60.78879928588867
60.263099670410156
60.474098205566406
61.18709945678711
60.2666015625
61.08769989013672
61.04090118408203
60.6713981628418
60.9193000793457
59.93450164794922
59.13800048828125
59.612098693847656
59.7234001159668
59.42390060424805
59.531898498535156
58.93600082397461
59.21189880371094
58.650001525878906
58.75590133666992
58.342899322509766
58.50749969482422
59.010101318359375
58.22200012207031
59.881900787353516
60.015499114990234
64.32389831542969
59.68949890136719
65.84220123291016
65.97540283203125
65.3865966796875
65.55819702148438
65.95570373535156
66.04989624023438
65.52030181884766
65.62470245361328
64.9271011352539
65.12259674072266
64.70030212402344
64.8113021850586
64.3772964477539
64.5781021118164
65.05159759521484
65.19010162353516
63.26750183105469
64.86799621582031
63.93360137939453
64.0342025756836
63.606998443603516
63.791099548339844
63.31769943237305
63.470001220703125
62.904598236083984
63.03110122680664
62.46630096435547
62.57279968261719
62.99250030517578
63.111900329589844
62.54499816894531
62.67850112915039
64.15730285644531
62.15840148925781
62.29600143432617
61.88930130004883
62.064701080322266
61.57059860229492
61.682701110839844
61.320499420166016
62.356300354003906
61.42610168457031
68.22010040283203
67.33280181884766
68.51129913330078
68.33070373535156
67.66590118408203
67.56439971923828
67.99569702148438
67.88749694824219
68.55390167236328
67.3812026977539
66.95490264892578
66.8718032836914
67.09480285644531
66.1239013671875
66.00199890136719
66.54660034179688
66.43810272216797
65.71929931640625
67.19259643554688
66.59100341796875
66.45980072021484
67.03569793701172
66.89240264892578
68.26100158691406
68.35749816894531
67.78990173339844
67.89080047607422
68.05829620361328
68.11820220947266
67.01390075683594
67.33809661865234
67.44840240478516
68.4468994140625
58.98040008544922
59.168399810791016
59.83599853515625
66.90070343017578
59.38479995727539
59.49150085449219
59.641700744628906
58.784698486328125
64.29900360107422
58.93109893798828
59.05419921875
59.24190139770508
63.02239990234375
63.306800842285156
63.90290069580078
64.01419830322266
63.509498596191406
63.651798248291016
63.74259948730469
62.908599853515625
66.5344009399414
63.01649856567383
63.12419891357422
63.44060134887695
64.90399932861328
65.94159698486328
66.11489868164062
66.36710357666016
65.22019958496094
65.4093017578125
65.51429748535156
65.70500183105469
66.46959686279297
66.58869934082031
64.970703125
65.11900329589844
64.68910217285156
65.75019836425781
66.03489685058594
66.16320037841797
64.14520263671875
64.41010284423828
64.56919860839844
64.52780151367188
60.79499816894531
63.81010055541992
64.79720306396484
64.0145034790039
60.9984016418457
61.11669921875
61.28150177001953
61.429901123046875
62.23929977416992
62.5078010559082
62.60689926147461
60.86629867553711
62.293701171875
62.59000015258789
62.701698303222656
62.06449890136719
61.580101013183594
61.80799865722656
61.7848014831543
62.16550064086914
61.99100112915039
61.34280014038086
61.627601623535156
63.009300231933594
63.191200256347656
63.319801330566406
61.013999938964844
61.22529983520508
61.34489822387695
68.29499816894531
68.60569763183594
68.73650360107422
68.36869812011719
68.17479705810547
67.57740020751953
67.7155990600586
67.89550018310547
68.24299621582031
67.80359649658203
67.94010162353516
67.26490020751953
67.43000030517578
67.62069702148438
68.74620056152344
68.6001968383789
67.58059692382812
67.30130004882812
67.11479949951172
58.980499267578125
68.4489974975586
68.14450073242188
68.01329803466797
67.69779968261719
66.50129699707031
66.36219787597656
66.27110290527344
65.86930084228516
66.16459655761719
66.99610137939453
66.84480285644531
66.66259765625
65.83039855957031
65.52040100097656
65.3864974975586
64.67389678955078
65.7437973022461
65.41909790039062
65.3136978149414
65.94830322265625
63.852901458740234
63.724300384521484
63.65399932861328
63.51900100708008
64.4489974975586
64.32270050048828
63.322200775146484
64.05269622802734
64.7333984375
64.54519653320312
64.43949890136719
65.20989990234375
63.433998107910156
65.15640258789062
65.00990295410156
64.91200256347656
61.25450134277344
62.02220153808594
61.900699615478516
61.63029861450195
64.11920166015625
63.99089813232422
63.79560089111328
62.25090026855469
61.6068000793457
61.40409851074219
61.395301818847656
65.70890045166016
65.38510131835938
62.06610107421875
61.778900146484375
66.09429931640625
66.27559661865234
65.8125
61.8927001953125
61.785301208496094
61.46080017089844
61.331600189208984
61.658199310302734
62.4098014831543
62.31959915161133
62.13029861450195
61.17359924316406
61.13909912109375
60.903900146484375
61.53820037841797
64.26119995117188
64.01319885253906
61.834999084472656
61.713199615478516
63.210201263427734
62.18880081176758
62.88050079345703
60.01070022583008
58.4015007019043
58.25529861450195
59.74150085449219
58.95859909057617
61.059200286865234
60.80189895629883
61.469200134277344
65.50260162353516
58.6505012512207
68.74929809570312
68.88099670410156
68.67530059814453
68.79029846191406
66.95709991455078
67.2228012084961
66.78980255126953
67.81379699707031
67.99829864501953
67.3895034790039
67.67389678955078
65.74030303955078
65.66200256347656
67.10780334472656
66.79810333251953
67.22660064697266
60.77050018310547
60.05720138549805
59.61899948120117
59.72549819946289
59.86640167236328
60.1349983215332
60.269100189208984
60.332801818847656
60.509700775146484
60.65950012207031
62.80590057373047
62.92219924926758
60.58789825439453
60.790401458740234
60.91400146484375
59.94449996948242
59.29169845581055
59.48030090332031
62.54499816894531
68.22630310058594
68.33809661865234
68.53299713134766
68.6416015625
68.84300231933594
67.97689819335938
67.65350341796875
67.7750015258789
67.0886001586914
67.27200317382812
67.5530014038086
67.72489929199219
65.98190307617188
68.02660369873047
66.04049682617188
66.19650268554688
66.37139892578125
66.53109741210938
66.67579650878906
66.77490234375
67.18779754638672
67.32279968261719
62.42689895629883
62.68050003051758
68.88909912109375
66.88020324707031
62.2400016784668
59.16239929199219
59.23310089111328
59.4385986328125
59.630001068115234
60.27349853515625
60.8838005065918
60.99440002441406
59.41279983520508
59.53099822998047
59.81460189819336
59.96329879760742
59.864601135253906
59.957401275634766
60.14070129394531
60.79560089111328
61.01789855957031
61.13520050048828
60.413700103759766
60.487098693847656
60.69070053100586
60.6614990234375
63.015098571777344
63.13119888305664
62.317298889160156
62.443199157714844
62.53810119628906
62.69260025024414
62.8744010925293
63.05849838256836
61.76490020751953
62.02619934082031
62.13819885253906
62.760799407958984
68.7916030883789
67.35289764404297
67.65840148925781
67.78179931640625
68.09860229492188
68.21289825439453
68.54039764404297
68.6458969116211
67.2155990600586
58.3473014831543
58.32749938964844
58.466800689697266
68.70230102539062
68.15029907226562
68.00579833984375
67.84770202636719
68.54650115966797
67.61710357666016
67.49960327148438
67.18409729003906
67.05580139160156
59.40449905395508
59.13869857788086
59.03260040283203
59.10960006713867
68.35130310058594
68.19770050048828
68.05339813232422
67.94650268554688
67.56539916992188
67.39679718017578
67.13269805908203
66.96040344238281
66.41300201416016
66.26260375976562
66.08450317382812
66.75350189208984
66.61540222167969
66.45390319824219
65.81819915771484
65.64340209960938
63.508399963378906
63.26100158691406
63.085201263427734
65.46179962158203
65.27310180664062
65.13749694824219
66.70919799804688
66.53019714355469
64.6156005859375
64.6093978881836
64.35540008544922
64.24819946289062
63.87699890136719
63.73509979248047
63.689998626708984
63.389198303222656
65.49500274658203
65.34449768066406
65.21939849853516
64.47560119628906
64.21720123291016
64.10299682617188
64.91690063476562
64.77799987792969
62.65950012207031
62.4807014465332
62.282901763916016
62.18629837036133
61.675201416015625
61.49290084838867
61.347198486328125
61.188201904296875
63.190799713134766
63.55099868774414
63.9208984375
63.78670120239258
63.61869812011719
64.96739959716797
61.03089904785156
62.8400993347168
61.18220138549805
62.050899505615234
61.91279983520508
61.81930160522461
61.558998107910156
68.43199920654297
68.05909729003906
67.8687973022461
67.72679901123047
67.52549743652344
67.36859893798828
67.41539764404297
68.93609619140625
68.79979705810547
68.47859954833984
68.3488998413086
68.55740356445312
60.99399948120117
60.82590103149414
60.657100677490234
60.4817008972168
60.496700286865234
59.371299743652344
58.69779968261719
58.43439865112305
68.10919952392578
67.96820068359375
67.7760009765625
67.09660339355469
66.99400329589844
66.65889739990234
66.5562973022461
60.34299850463867
59.97779846191406
59.84339904785156
59.661399841308594
59.584800720214844
59.45209884643555
60.24330139160156
60.110801696777344
59.9208984375
58.32500076293945
59.089500427246094
58.93109893798828
59.005001068115234
58.85169982910156
58.584598541259766
58.462501525878906
60.09260177612305
65.00530242919922
64.93319702148438
64.81079864501953
64.6061019897461
63.846099853515625
63.692901611328125
63.52389907836914
63.20009994506836
59.24420166015625
66.17569732666016
66.018798828125
65.72509765625
65.59989929199219
64.54949951171875
65.25669860839844
65.14530181884766
63.74760055541992
63.629798889160156
64.40270233154297
63.33620071411133
63.12699890136719
62.984500885009766
62.74729919433594
62.64500045776367
64.3458023071289
64.19039916992188
64.06900024414062
63.90060043334961
64.45230102539062
64.20770263671875
64.58290100097656
58.17210006713867
58.43159866333008
58.25239944458008
58.647098541259766
58.516700744628906
58.719600677490234
68.6708984375
68.48909759521484
68.24980163574219
68.05149841308594
68.59030151367188
67.47489929199219
67.72730255126953
67.5281982421875
67.94349670410156
67.83190155029297
68.72160339355469
66.7594985961914
66.63809967041016
67.19709777832031
67.06549835205078
66.83660125732422
66.72930145263672
67.27079772949219
67.16320037841797
66.75420379638672
65.2699966430664
64.50389862060547
64.67340087890625
64.92269897460938
64.61470031738281
64.72920227050781
64.97810363769531
65.17350006103516
65.9166030883789
66.02850341796875
66.34429931640625
66.46900177001953
63.5005989074707
65.37159729003906
65.46720123291016
65.66259765625
60.48720169067383
59.48860168457031
59.68190002441406
59.83430099487305
60.895301818847656
60.868099212646484
61.09000015258789
61.27859878540039
63.85449981689453
63.98350143432617
64.08869934082031
64.28160095214844
61.46659851074219
64.33670043945312
63.554500579833984
63.74679946899414
62.46540069580078
60.043399810791016
60.212398529052734
60.340999603271484
62.79750061035156
62.954898834228516
63.08259963989258
63.26559829711914
60.12160110473633
60.21480178833008
60.5629997253418
60.73350143432617
59.76649856567383
59.840999603271484
59.66469955444336
59.91859817504883
61.9921989440918
62.2150993347168
62.33409881591797
62.109798431396484
62.227500915527344
62.62839889526367
62.61470031738281
61.62770080566406
61.63589859008789
61.786598205566406
61.929901123046875
64.85569763183594
65.12200164794922
65.27780151367188
65.43119812011719
59.73939895629883
60.712799072265625
60.41419982910156
63.710601806640625
63.877201080322266
64.0426025390625
64.6781997680664
64.34290313720703
64.50789642333984
61.698001861572266
62.71649932861328
62.415000915527344
67.04509735107422
59.891700744628906
60.072898864746094
60.1870002746582
60.394901275634766
59.29869842529297
59.3224983215332
59.68330001831055
59.81589889526367
60.571998596191406
68.30049896240234
59.60649871826172
58.56439971923828
58.673301696777344
58.93090057373047
64.0896987915039
62.71200180053711
62.86589813232422
63.0359001159668
64.4175033569336
64.55339813232422
63.698001861572266
63.883399963378906
58.7056999206543
58.82310104370117
59.009700775146484
59.145999908447266
64.74320220947266
64.92829895019531
65.06839752197266
59.47959899902344
66.33760070800781
63.607601165771484
62.816898345947266
62.91889953613281
66.27110290527344
65.77200317382812
65.93810272216797
66.21880340576172
63.80970001220703
63.94150161743164
64.14749908447266
64.30079650878906
63.088600158691406
63.24610137939453
63.395301818847656
63.55400085449219
65.23179626464844
65.43800354003906
65.56620025634766
65.1572036743164
61.99190139770508
62.305999755859375
62.42369842529297
64.6238021850586
65.51139831542969
65.87930297851562
65.99089813232422
66.44609832763672
64.9542007446289
64.83920288085938
65.13330078125
65.30960083007812
62.367000579833984
61.11750030517578
61.28110122680664
61.4286994934082
61.76110076904297
61.993499755859375
62.097599029541016
62.536800384521484
60.885799407958984
61.04890060424805
61.21269989013672
61.87950134277344
61.596500396728516
61.610801696777344
60.720699310302734
60.70830154418945
66.98480224609375
66.27899932861328
66.4218978881836
66.5813980102539
66.38610076904297
66.4823989868164
66.63249969482422
66.7863998413086
67.85870361328125
68.17960357666016
68.34549713134766
68.58709716796875
67.14209747314453
67.2864990234375
67.39330291748047
67.7333984375
68.23030090332031
68.50650024414062
60.34090042114258
60.149200439453125
60.4724006652832
58.84519958496094
58.67300033569336
58.45750045776367
59.09049987792969
59.27510070800781
59.409698486328125
58.6797981262207
58.46659851074219
58.89149856567383
58.17070007324219
61.195701599121094
62.05509948730469
61.88199996948242
61.775901794433594
60.06169891357422
60.04600143432617
61.564701080322266
61.32080078125
59.90340042114258
60.56779861450195
60.301700592041016
60.27439880371094
58.28620147705078
58.3557014465332
59.27870178222656
59.16960144042969
58.95750045776367
59.77859878540039
61.11240005493164
59.6973991394043
59.49089813232422
59.38050079345703
61.015201568603516
60.8036994934082
60.7130012512207
60.44960021972656
61.63119888305664
61.45750045776367
61.33219909667969
60.972999572753906
64.32669830322266
64.16329956054688
65.8655014038086
65.768798828125
64.91899871826172
64.72250366210938
64.57350158691406
64.43589782714844
65.64640045166016
65.3240966796875
65.20279693603516
64.10639953613281
59.64500045776367
59.45330047607422
58.74599838256836
65.78579711914062
63.570701599121094
63.039398193359375
62.937400817871094
62.739601135253906
63.30970001220703
63.200801849365234
63.952701568603516
63.82609939575195
64.63970184326172
63.89550018310547
63.7140007019043
63.51570129394531
65.42870330810547
65.32160186767578
64.99140167236328
64.86109924316406
62.48630142211914
62.36360168457031
62.11940002441406
58.45429992675781
58.68220138549805
58.313899993896484
58.84560012817383
59.19279861450195
58.900001525878906
58.81269836425781
58.530601501464844
59.105499267578125
59.675899505615234
59.462501525878906
58.6057014465332
61.360599517822266
60.687198638916016
60.9380989074707
61.15129852294922
58.485198974609375
58.34389877319336
58.670501708984375
58.3036994934082
58.227298736572266
59.135501861572266
59.26969909667969
58.82740020751953
58.96739959716797
61.49879837036133
61.71099853515625
61.2411003112793
61.490299224853516
60.81629943847656
60.424800872802734
61.75740051269531
60.22420120239258
59.9025993347168
60.06370162963867
60.627201080322266
59.75239944458008
60.5276985168457
60.88420104980469
60.06829833984375
60.331600189208984
65.1155014038086
65.22930145263672
64.55879974365234
64.66280364990234
65.00360107421875
65.12580108642578
65.57740020751953
65.6771011352539
59.20050048828125
59.4114990234375
65.44979858398438
65.61470031738281
61.87459945678711
61.1088981628418
59.53929901123047
60.89720153808594
63.307701110839844
63.64459991455078
62.980201721191406
63.17129898071289
64.65550231933594
64.78569793701172
63.757301330566406
64.41349792480469
64.2614974975586
64.27629852294922
63.967498779296875
64.10710144042969
59.91130065917969
60.04359817504883
60.56480026245117
60.69340133666992
60.43410110473633
60.54819869995117
60.11370086669922
60.294498443603516
59.717201232910156
60.37179946899414
SCALARS latitude float 1
LOOKUP_TABLE default
30.541099548339844
30.524599075317383
30.827600479125977
30.66710090637207
30.49720001220703
30.82670021057129
30.702299118041992
30.744400024414062
30.559600830078125
30.48870086669922
30.533300399780273
30.40519905090332
30.389400482177734
25.274700164794922
25.217300415039062
25.21489906311035
25.185199737548828
25.107099533081055
24.962600708007812
25.12470054626465
25.106700897216797
25.04960060119629
24.8794002532959
24.95560073852539
25.984100341796875
25.922800064086914
25.753700256347656
25.83449935913086
25.811599731445312
25.6427001953125
25.874399185180664
25.796199798583984
25.617700576782227
25.57040023803711
25.58009910583496
25.514699935913086
25.649799346923828
25.57509994506836
25.478599548339844
25.527099609375
25.422300338745117
25.269800186157227
25.309499740600586
25.190000534057617
25.503999710083008
25.348100662231445
25.265499114990234
25.402599334716797
25.225299835205078
25.38089942932129
25.190900802612305
25.11370086669922
25.098600387573242
25.307100296020508
25.139799118041992
25.159799575805664
25.052600860595703
25.04509925842285
26.953899383544922
26.869300842285156
26.790800094604492
26.693500518798828
26.61910057067871
30.449600219726562
30.45789909362793
30.329700469970703
30.177099227905273
30.384599685668945
30.074399948120117
30.14699935913086
30.21579933166504
30.11709976196289
30.29949951171875
30.0580997467041
30.27549934387207
29.975200653076172
29.992799758911133
30.37779998779297
30.382299423217773
30.298599243164062
30.263999938964844
30.268299102783203
30.31130027770996
30.01799964904785
30.12779998779297
29.960399627685547
30.1427001953125
30.20840072631836
30.132999420166016
30.09269905090332
30.032400131225586
29.97260093688965
29.96030044555664
29.84749984741211
29.872400283813477
30.145999908447266
30.152299880981445
30.070199966430664
30.03860092163086
29.87579917907715
30.058399200439453
30.132400512695312
29.972900390625
29.927200317382812
30.06719970703125
29.70400047302246
29.972299575805664
29.788299560546875
29.896299362182617
29.611000061035156
29.746400833129883
30.773500442504883
30.659700393676758
30.751800537109375
30.667299270629883
30.686599731445312
30.409700393676758
30.517200469970703
30.505199432373047
30.555700302124023
30.68280029296875
30.320899963378906
30.596599578857422
30.66830062866211
30.43910026550293
30.5802001953125
30.550800323486328
30.680099487304688
30.5177001953125
30.404300689697266
30.503400802612305
30.327600479125977
30.236099243164062
30.37310028076172
30.431499481201172
30.224000930786133
30.266000747680664
30.241899490356445
30.65049934387207
30.138500213623047
30.51409912109375
30.625099182128906
30.370100021362305
30.549400329589844
30.322799682617188
30.50349998474121
30.587099075317383
30.451900482177734
30.43709945678711
30.482200622558594
30.60930061340332
30.444299697875977
30.335599899291992
30.41550064086914
30.266700744628906
30.179399490356445
30.32069969177246
30.265600204467773
30.1648006439209
30.11989974975586
30.58799934387207
30.570899963378906
30.31920051574707
30.412599563598633
30.311899185180664
30.46739959716797
30.38050079345703
30.449499130249023
30.21820068359375
30.203100204467773
30.18950080871582
30.331300735473633
30.132299423217773
30.193099975585938
30.471500396728516
30.655500411987305
30.50480079650879
30.605499267578125
30.34749984741211
28.263399124145508
28.09079933166504
29.320600509643555
29.266799926757812
29.13360023498535
29.014799118041992
29.174999237060547
28.935400009155273
29.042200088500977
29.070100784301758
28.9148006439209
28.925399780273438
28.981599807739258
29.032499313354492
28.85219955444336
28.983699798583984
28.97410011291504
28.96139907836914
28.850299835205078
28.801300048828125
28.899700164794922
28.675399780273438
28.63680076599121
28.818899154663086
28.61370086669922
28.59779930114746
28.867799758911133
28.994699478149414
28.756099700927734
28.924299240112305
28.760499954223633
28.93079948425293
28.824600219726562
28.82349967956543
28.762699127197266
28.933900833129883
28.75830078125
28.902799606323242
28.653600692749023
28.616600036621094
28.57159996032715
28.689800262451172
29.06220054626465
28.58139991760254
29.14069938659668
29.20800018310547
29.08329963684082
29.051599502563477
28.813899993896484
28.986400604248047
28.721500396728516
28.870500564575195
28.971599578857422
28.896099090576172
28.96179962158203
28.79599952697754
28.89620018005371
28.7987003326416
28.621000289916992
28.715499877929688
29.073999404907227
28.626100540161133
28.89579963684082
29.06170082092285
28.79840087890625
28.80430030822754
28.912900924682617
28.95829963684082
28.94379997253418
29.05500030517578
28.791000366210938
28.957300186157227
28.66080093383789
28.797199249267578
28.561399459838867
28.641199111938477
28.73240089416504
28.860599517822266
28.70639991760254
28.802200317382812
28.67729949951172
28.530399322509766
28.66990089416504
28.532100677490234
28.5393009185791
25.38599967956543
25.44499969482422
25.67289924621582
25.506799697875977
25.616300582885742
25.565000534057617
25.386499404907227
25.591800689697266
25.41900062561035
25.34269905090332
25.506200790405273
25.973600387573242
25.795000076293945
26.024599075317383
25.740299224853516
25.638200759887695
25.860200881958008
25.71929931640625
25.619300842285156
28.844999313354492
28.74180030822754
28.670700073242188
28.8302001953125
28.778099060058594
27.53529930114746
27.72439956665039
27.415199279785156
27.595500946044922
27.657899856567383
27.484800338745117
27.41080093383789
27.353300094604492
27.493900299072266
27.363100051879883
27.348100662231445
27.502199172973633
27.428699493408203
27.291500091552734
27.208599090576172
27.37649917602539
27.26259994506836
27.39430046081543
27.56060028076172
27.05590057373047
27.1781005859375
27.331899642944336
27.54520034790039
27.568500518798828
27.40730094909668
27.567800521850586
27.398000717163086
27.466999053955078
27.304399490356445
27.427900314331055
27.49839973449707
27.147600173950195
27.271900177001953
27.218799591064453
27.474599838256836
27.463300704956055
27.391399383544922
27.554399490356445
27.209299087524414
27.203699111938477
27.378799438476562
27.269699096679688
27.21809959411621
27.326900482177734
27.296499252319336
27.376399993896484
27.502199172973633
27.108999252319336
27.137800216674805
27.226699829101562
27.22610092163086
27.2007999420166
27.265600204467773
27.446399688720703
27.45829963684082
27.128400802612305
27.143400192260742
27.12339973449707
27.154800415039062
27.314800262451172
27.21430015563965
27.367000579833984
27.231300354003906
27.318199157714844
27.441499710083008
27.286500930786133
27.069599151611328
27.085500717163086
27.180200576782227
27.300600051879883
27.191699981689453
26.978200912475586
27.132999420166016
26.983800888061523
26.9689998626709
27.049100875854492
27.347900390625
25.486499786376953
25.491100311279297
25.595699310302734
25.470800399780273
25.47010040283203
25.597900390625
26.208499908447266
26.193899154663086
26.278799057006836
25.935100555419922
26.08810043334961
25.899499893188477
26.077600479125977
25.9822998046875
25.830699920654297
25.75
25.8174991607666
26.034500122070312
25.878000259399414
25.7367000579834
26.83340072631836
26.78420066833496
26.548500061035156
26.441600799560547
26.543800354003906
26.534799575805664
26.772499084472656
26.749500274658203
26.660499572753906
26.674800872802734
26.4867000579834
26.431299209594727
26.255800247192383
26.562299728393555
26.581899642944336
26.363300323486328
26.34749984741211
26.501800537109375
26.164199829101562
26.152700424194336
26.082199096679688
26.52120018005371
26.45009994506836
26.476999282836914
26.309600830078125
26.294300079345703
26.364500045776367
26.181800842285156
26.342199325561523
26.276599884033203
26.515899658203125
26.42340087890625
26.4512996673584
26.278900146484375
26.35059928894043
26.256200790405273
26.10110092163086
26.070499420166016
26.094900131225586
26.23699951171875
26.39109992980957
26.21299934387207
26.423500061035156
26.437000274658203
26.31679916381836
26.345300674438477
26.10409927368164
26.011999130249023
26.004199981689453
26.437599182128906
26.172500610351562
26.249000549316406
26.075000762939453
28.19529914855957
28.183799743652344
28.45989990234375
28.44529914855957
28.412399291992188
28.310199737548828
28.345800399780273
28.156600952148438
28.011999130249023
28.184799194335938
28.30940055847168
28.322500228881836
28.36989974975586
28.184499740600586
28.2903995513916
28.24340057373047
28.073200225830078
28.091800689697266
28.00659942626953
30.779399871826172
30.775299072265625
30.797700881958008
30.673599243164062
30.78380012512207
30.776100158691406
30.76799964904785
30.730199813842773
30.80940055847168
30.732099533081055
30.725500106811523
30.70989990234375
30.73150062561035
30.74850082397461
30.67009925842285
30.849899291992188
30.6914005279541
27.3882999420166
27.473800659179688
27.637699127197266
27.784299850463867
27.586000442504883
27.707300186157227
27.638399124145508
27.828500747680664
27.83989906311035
27.67259979248047
27.767200469970703
30.868099212646484
25.028200149536133
25.020000457763672
25.054100036621094
25.116199493408203
26.94580078125
26.908700942993164
26.69230079650879
26.859399795532227
26.74410057067871
26.734100341796875
26.83989906311035
26.66469955444336
26.673200607299805
26.792600631713867
26.533899307250977
26.632400512695312
26.497600555419922
26.49340057373047
26.613500595092773
26.569799423217773
26.642000198364258
26.807100296020508
26.52039909362793
29.60759925842285
29.790000915527344
29.630599975585938
29.817399978637695
29.669300079345703
29.906999588012695
29.48430061340332
29.631000518798828
29.741500854492188
29.669200897216797
29.827499389648438
29.802900314331055
29.770599365234375
29.734800338745117
29.595300674438477
29.61840057373047
29.459400177001953
29.478500366210938
29.528900146484375
29.711999893188477
29.402299880981445
29.49799919128418
29.378700256347656
29.52549934387207
29.49850082397461
29.376300811767578
29.42169952392578
26.530500411987305
26.37030029296875
26.315900802612305
26.467899322509766
26.399799346923828
26.28529930114746
26.427499771118164
26.012800216674805
26.13330078125
26.4606990814209
26.054800033569336
26.18400001525879
26.359399795532227
26.051300048828125
25.983600616455078
25.98069953918457
26.10740089416504
26.045000076293945
26.216899871826172
26.16069984436035
26.335599899291992
26.013500213623047
26.134000778198242
26.267200469970703
26.124900817871094
26.30120086669922
26.179100036621094
26.363300323486328
26.311100006103516
26.0
26.00160026550293
26.145599365234375
26.006500244140625
26.66510009765625
26.27120018005371
26.287399291992188
26.39069938659668
26.359600067138672
26.50309944152832
26.436899185180664
26.615999221801758
26.206300735473633
27.743200302124023
27.9237003326416
27.56800079345703
27.001100540161133
27.30120086669922
27.239900588989258
27.233600616455078
26.987899780273438
26.949100494384766
26.819799423217773
26.838199615478516
26.74810028076172
26.979000091552734
26.980100631713867
26.81279945373535
26.646499633789062
27.143800735473633
27.132200241088867
27.070999145507812
26.89310073852539
27.120800018310547
27.161699295043945
27.00819969177246
27.08049964904785
26.81209945678711
26.795799255371094
26.939800262451172
26.725299835205078
26.66900062561035
26.653799057006836
26.760700225830078
26.903200149536133
27.055400848388672
26.9424991607666
26.981399536132812
27.031299591064453
27.03689956665039
26.9197998046875
26.887399673461914
26.989500045776367
26.857500076293945
26.678300857543945
26.73710060119629
26.59980010986328
26.984699249267578
26.928600311279297
26.732500076293945
26.658000946044922
26.881799697875977
26.76409912109375
26.613800048828125
27.04129981994629
27.0531005859375
26.927900314331055
26.763999938964844
26.894899368286133
26.888200759887695
26.690099716186523
26.801300048828125
26.62540054321289
26.848400115966797
26.68869972229004
26.808000564575195
26.763900756835938
26.743099212646484
26.664499282836914
26.594900131225586
26.527299880981445
26.52359962463379
26.600299835205078
26.937599182128906
26.816999435424805
26.592899322509766
26.784900665283203
26.678300857543945
26.51810073852539
26.519800186157227
28.4685001373291
28.635700225830078
28.729900360107422
28.548599243164062
28.697099685668945
28.68470001220703
28.515100479125977
28.933799743652344
28.86009979248047
28.870100021362305
28.757999420166016
28.59429931640625
28.427099227905273
28.269100189208984
28.356300354003906
28.326499938964844
28.157400131225586
28.47610092163086
28.545299530029297
28.543800354003906
28.463300704956055
28.38680076599121
28.378000259399414
28.62350082397461
28.438499450683594
28.52199935913086
28.364299774169922
28.504499435424805
28.354900360107422
28.232200622558594
28.234399795532227
28.409299850463867
28.299800872802734
28.17169952392578
28.049400329589844
28.05739974975586
28.3887996673584
28.481000900268555
28.43160057067871
28.25589942932129
28.195600509643555
28.215700149536133
28.09160041809082
28.518800735473633
28.268699645996094
28.44499969482422
28.283000946044922
28.351600646972656
28.631000518798828
28.527000427246094
28.531200408935547
28.51300048828125
28.129199981689453
28.614999771118164
28.636999130249023
28.59429931640625
28.505300521850586
28.52079963684082
28.538000106811523
28.366899490356445
28.361299514770508
28.20330047607422
28.191699981689453
28.196199417114258
28.34600067138672
28.274200439453125
28.411399841308594
28.234899520874023
28.360599517822266
28.308700561523438
28.475200653076172
28.465099334716797
30.249399185180664
30.231199264526367
30.352399826049805
27.478599548339844
27.187000274658203
27.305999755859375
27.220399856567383
27.368499755859375
27.052000045776367
28.195899963378906
28.267499923706055
28.078800201416016
28.203100204467773
27.91939926147461
28.30900001525879
28.00909996032715
28.13520050048828
28.0221004486084
28.193099975585938
28.021299362182617
28.198699951171875
28.106199264526367
28.283899307250977
28.20170021057129
27.956499099731445
27.82469940185547
28.044300079345703
27.891599655151367
26.1294002532959
25.89310073852539
25.910400390625
25.877099990844727
25.999300003051758
25.577800750732422
25.710100173950195
25.831899642944336
25.714599609375
25.899999618530273
26.035200119018555
26.016399383544922
26.10700035095215
25.91659927368164
25.72610092163086
25.905799865722656
25.789400100708008
25.885499954223633
25.866199493408203
25.840200424194336
25.95789909362793
25.641300201416016
25.810100555419922
25.807100296020508
25.76569938659668
25.823999404907227
25.66320037841797
25.832399368286133
25.734100341796875
25.90690040588379
25.568500518798828
25.753599166870117
25.657100677490234
25.9148006439209
25.44580078125
25.44700050354004
25.54290008544922
25.63290023803711
25.648700714111328
25.816099166870117
25.758499145507812
25.718000411987305
25.89189910888672
25.712499618530273
25.616100311279297
25.662900924682617
25.504600524902344
25.50779914855957
25.78030014038086
25.483400344848633
25.488500595092773
25.616899490356445
25.779399871826172
25.91320037841797
25.91830062866211
25.7539005279541
25.572500228881836
25.740800857543945
25.781700134277344
25.649599075317383
25.3257999420166
25.473899841308594
25.475200653076172
25.549100875854492
25.350099563598633
25.367700576782227
25.368099212646484
25.38640022277832
25.369300842285156
25.479299545288086
25.38360023498535
25.340200424194336
25.20989990234375
25.387399673461914
25.393699645996094
25.386199951171875
26.196300506591797
27.71139907836914
27.709299087524414
27.875499725341797
27.820499420166016
27.78380012512207
27.95599937438965
27.777999877929688
27.88559913635254
27.979900360107422
27.90559959411621
27.95170021057129
27.87779998779297
28.025800704956055
28.02440071105957
28.092599868774414
28.018999099731445
28.021400451660156
28.100099563598633
27.965900421142578
27.833499908447266
27.99090003967285
27.942800521850586
27.574899673461914
27.704099655151367
27.85070037841797
27.72319984436035
27.990800857543945
27.976200103759766
28.092199325561523
27.609100341796875
28.11840057373047
27.659700393676758
27.695499420166016
27.858999252319336
27.86319923400879
28.008100509643555
27.970300674438477
28.03219985961914
27.657699584960938
27.77389907836914
27.923500061035156
27.800100326538086
27.9375
27.96179962158203
27.802099227905273
27.824100494384766
27.56130027770996
27.569299697875977
27.666799545288086
27.746599197387695
27.90519905090332
27.887100219726562
27.973600387573242
27.652700424194336
27.836000442504883
27.67009925842285
27.801700592041016
27.775800704956055
27.79129981994629
27.625099182128906
27.93120002746582
27.924999237060547
27.71969985961914
27.576200485229492
27.732500076293945
27.62380027770996
27.494400024414062
27.50629997253418
27.634899139404297
27.645099639892578
27.829999923706055
27.746700286865234
27.903200149536133
27.789600372314453
27.677900314331055
27.84440040588379
27.628999710083008
27.800100326538086
29.000999450683594
29.243900299072266
29.289899826049805
29.308900833129883
28.90250015258789
29.09280014038086
29.139299392700195
29.1564998626709
29.33679962158203
29.356199264526367
29.346099853515625
29.438199996948242
29.015899658203125
29.073400497436523
29.25469970703125
29.202899932861328
24.72949981689453
24.750499725341797
27.52549934387207
27.53510093688965
27.644699096679688
25.420900344848633
25.40290069580078
25.473899841308594
25.411100387573242
25.403200149536133
25.297100067138672
29.349300384521484
29.43320083618164
29.522600173950195
29.597200393676758
29.37689971923828
29.242399215698242
29.36870002746582
29.194599151611328
29.380800247192383
29.203899383544922
29.506399154663086
29.52079963684082
29.562000274658203
29.486900329589844
29.499099731445312
29.321500778198242
29.430400848388672
29.262800216674805
29.447399139404297
29.277000427246094
29.3572998046875
29.215599060058594
29.058000564575195
29.393400192260742
29.449600219726562
29.278400421142578
29.239999771118164
29.296499252319336
29.122699737548828
29.135299682617188
29.335599899291992
29.19260025024414
29.05340003967285
29.41950035095215
29.308399200439453
29.4414005279541
29.524499893188477
29.341999053955078
29.449600219726562
29.530399322509766
29.340200424194336
29.483999252319336
29.687999725341797
29.674100875854492
29.5669002532959
29.61009979248047
29.100799560546875
29.10740089416504
29.18429946899414
29.756799697875977
29.1697998046875
29.43440055847168
29.254899978637695
29.358299255371094
29.45050048828125
29.27630043029785
29.309600830078125
29.17609977722168
29.162099838256836
29.47800064086914
29.510400772094727
29.335599899291992
29.398300170898438
29.256500244140625
29.264799118041992
29.167299270629883
29.21179962158203
29.084699630737305
29.072399139404297
26.263900756835938
26.441600799560547
26.176700592041016
26.446300506591797
26.02090072631836
26.267200469970703
26.09280014038086
26.094100952148438
26.19569969177246
30.09280014038086
29.93280029296875
30.053600311279297
30.042499542236328
30.11829948425293
29.92930030822754
29.88159942626953
29.722999572753906
30.056900024414062
29.889799118041992
29.721500396728516
29.89150047302246
29.801000595092773
29.97610092163086
29.938800811767578
29.778200149536133
29.8533992767334
29.781600952148438
29.693300247192383
29.668699264526367
29.755300521850586
29.817899703979492
29.966299057006836
29.66309928894043
29.795400619506836
29.843900680541992
29.756000518798828
29.91819953918457
29.9950008392334
30.10540008544922
30.022899627685547
30.01919937133789
29.792400360107422
29.92639923095703
29.96380043029785
30.125600814819336
30.09309959411621
30.21190071105957
29.87700080871582
30.063499450683594
29.63599967956543
29.63680076599121
30.23509979248047
30.241600036621094
29.60059928894043
29.572999954223633
29.758499145507812
29.587400436401367
29.702499389648438
29.707799911499023
29.608600616455078
29.6200008392334
29.709699630737305
29.797300338745117
29.858600616455078
29.69300079345703
29.867900848388672
30.051000595092773
29.972000122070312
29.82939910888672
27.25589942932129
27.364299774169922
27.008800506591797
27.132299423217773
27.313600540161133
27.472000122070312
27.189599990844727
27.190200805664062
27.090099334716797
27.015199661254883
