# vtk DataFile Version 3.0
SHAPE_sfm_50k_v20200323
ASCII
DATASET POLYDATA
POINTS 514 float
0.13011092 0.21420163 0.052769333
0.13011092 0.21473914 0.051867604
0.12903625 0.21473914 0.052769333
0.1284309 0.21600676 0.051089346
0.1284309 0.21504611 0.052769333
0.1334709 0.21254802 0.052769333
0.1334709 0.21305913 0.051682055
0.13231075 0.21305913 0.052769333
0.13011092 0.21523023 0.051089346
0.13419926 0.21305913 0.051089346
0.13683087 0.21129632 0.052769333
0.13683087 0.21137911 0.05257374
0.13659686 0.21137911 0.052769333
0.13515091 0.21190053 0.052769333
0.13515091 0.21265292 0.051089346
0.13683087 0.21203089 0.051089346
0.13100845 0.21473914 0.051089346
0.13179088 0.2133252 0.052769333
0.13179088 0.21429807 0.051089346
0.1334709 0.21341306 0.051089346
0.1401909 0.2096886 0.052769333
0.1401909 0.2096991 0.05274746
0.14017493 0.2096991 0.052769333
0.14187092 0.2086463 0.052769333
0.14355087 0.20785022 0.052769333
0.14355087 0.20801914 0.052423626
0.14319026 0.20801914 0.052769333
0.14187092 0.20948237 0.051089346
0.14150602 0.2096991 0.051089346
0.14355087 0.20868158 0.051089346
0.1469109 0.20604742 0.052769333
0.1469109 0.20633912 0.05223444
0.14649022 0.20633912 0.052769333
0.15027088 0.20446575 0.051089346
0.14997983 0.2046591 0.051089346
0.15027088 0.20371395 0.052769333
0.14881164 0.2046591 0.052769333
0.14859092 0.20480645 0.052769333
0.14859092 0.2056194 0.051089346
0.1476742 0.20633912 0.051089346
0.14523089 0.20708632 0.052769333
0.14523089 0.20790958 0.051089346
0.14500749 0.20801914 0.051089346
0.1469109 0.20691842 0.051089346
0.1519509 0.20224488 0.052769333
0.15270329 0.20129913 0.052769333
0.1519509 0.20297915 0.051614136
0.15128899 0.20297915 0.052769333
0.15363091 0.20129913 0.051708966
0.15363091 0.20177954 0.051089346
0.15221584 0.20297915 0.051089346
0.15435368 0.20129913 0.051089346
0.1519509 0.2031951 0.051089346
0.13011092 0.21634519 0.04940933
0.12995684 0.2164191 0.04940933
0.13515091 0.21305913 0.05033213
0.13683087 0.21290565 0.04940933
0.13644451 0.21305913 0.04940933
0.13179088 0.21473914 0.050430685
0.1334709 0.21449184 0.04940933
0.1330381 0.21473914 0.04940933
0.13179088 0.21545821 0.04940933
0.13515091 0.21361452 0.04940933
0.14187092 0.2096991 0.050737947
0.14355087 0.20963168 0.04940933
0.14343166 0.2096991 0.04940933
0.14859092 0.20633912 0.049530327
0.15027088 0.2046591 0.050629705
0.15027088 0.20519161 0.04940933
0.14866495 0.20633912 0.04940933
0.14523089 0.20801914 0.05086708
0.1469109 0.20766932 0.04940933
0.14637673 0.20801914 0.04940933
0.14523089 0.20868766 0.04940933
0.14859092 0.20639485 0.04940933
0.15363091 0.2027266 0.04940933
0.15330726 0.20297915 0.04940933
0.15363091 0.2056368 0.041009337
0.15286207 0.20633912 0.041009337
0.15363091 0.20510387 0.042689323
0.15231055 0.20633912 0.042689323
0.15531087 0.20397693 0.041009337
0.15462929 0.2046591 0.041009337
0.15531087 0.20345414 0.042689323
0.15408754 0.2046591 0.042689323
0.15582752 0.20297915 0.042689323
0.15639246 0.20297915 0.041009337
0.1519509 0.20715737 0.041009337
0.15099525 0.20801914 0.041009337
0.1519509 0.2066617 0.042689323
0.15039527 0.20801914 0.042689323
0.15027088 0.20811969 0.042689323
0.15027088 0.2086348 0.041009337
0.14187092 0.21444476 0.042689323
0.14187092 0.21473914 0.042155206
0.1414035 0.21473914 0.042689323
0.1401909 0.2154687 0.042689323
0.1401909 0.2164191 0.041060597
0.13851833 0.2164191 0.042689323
0.14355087 0.21333069 0.042689323
0.14273912 0.21473914 0.041009337
0.14187092 0.21538079 0.041009337
0.14355087 0.21409285 0.041009337
0.14024019 0.2164191 0.041009337
0.1469109 0.21119899 0.041009337
0.14668113 0.21137911 0.041009337
0.1469109 0.21058285 0.042689323
0.14589101 0.21137911 0.042689323
0.14523089 0.21261841 0.041009337
0.14473468 0.21305913 0.041009337
0.14523089 0.21194404 0.042689323
0.14390862 0.21305913 0.042689323
0.14859092 0.2096991 0.04178393
0.14859092 0.20995021 0.041009337
0.1489231 0.2096991 0.041009337
0.1481353 0.2096991 0.042689323
0.13851088 0.21745491 0.041009337
0.13744122 0.21809912 0.041009337
0.13683087 0.21809912 0.041629136
0.13683087 0.21741527 0.042689323
0.13851088 0.21642339 0.042689323
0.1401909 0.21644855 0.041009337
0.13683087 0.21846855 0.041009337
0.15531087 0.20196211 0.047729343
0.1541903 0.20297915 0.047729343
0.15363091 0.20297915 0.048859566
0.1519509 0.20401675 0.04940933
0.1519509 0.2046591 0.047989726
0.15105206 0.2046591 0.04940933
0.15363091 0.20344514 0.047729343
0.15209037 0.2046591 0.047729343
0.15027088 0.20605475 0.047729343
0.1519509 0.20477176 0.047729343
0.13851088 0.21305913 0.04802674
0.13683087 0.21305913 0.04914677
0.13851088 0.21226662 0.04940933
0.13898146 0.21305913 0.047729343
0.1401909 0.21156532 0.04940933
0.1401909 0.2125783 0.047729343
0.14187092 0.21062261 0.04940933
0.14248985 0.21137911 0.047729343
0.14187092 0.21137911 0.048316777
0.14055586 0.21137911 0.04940933
0.14355087 0.21068531 0.047729343
0.14355087 0.2096991 0.0492993
0.14187092 0.21174377 0.047729343
0.13683087 0.2139144 0.047729343
0.13851088 0.21323675 0.047729343
0.14494926 0.2096991 0.047729343
0.13683087 0.2096991 0.056678444
0.13741124 0.2096991 0.056129336
0.13683087 0.20998323 0.056129336
0.13683087 0.21935833 0.03932935
0.13683087 0.21977913 0.03836459
0.13613945 0.21977913 0.03932935
0.13515091 0.22030121 0.03932935
0.13515091 0.22102714 0.037649333
0.13426071 0.22145915 0.037649333
0.1334709 0.22145915 0.03834933
0.1334709 0.22101033 0.03932935
0.13683087 0.22004873 0.037649333
0.13515091 0.21948433 0.041009337
0.13515091 0.21977913 0.040450037
0.13467407 0.21977913 0.041009337
0.1334709 0.22047484 0.041009337
0.15027088 0.20941156 0.037649333
0.14990145 0.2096991 0.037649333
0.15027088 0.20902437 0.03932935
0.14946115 0.2096991 0.03932935
0.15363091 0.20602596 0.03932935
0.15363091 0.20633912 0.038197666
0.15330285 0.20633912 0.03932935
0.15699089 0.20312041 0.037649333
0.15536487 0.2046591 0.037649333
0.15531087 0.2046591 0.0379391
0.15699089 0.20297915 0.03856337
0.15531087 0.20437104 0.03932935
0.15501833 0.2046591 0.03932935
0.15377104 0.20633912 0.037649333
0.15682757 0.20297915 0.03932935
0.1519509 0.20758116 0.03932935
0.1519509 0.20801914 0.037761807
0.1514526 0.20801914 0.03932935
0.15531087 0.20471507 0.037649333
0.15363091 0.20648152 0.037649333
0.15198445 0.20801914 0.037649333
0.1519509 0.20804805 0.037649333
0.14523089 0.213023 0.03932935
0.14523089 0.21305913 0.039154768
0.14519018 0.21305913 0.03932935
0.14355087 0.21540242 0.037649333
0.14268672 0.2164191 0.037649333
0.14355087 0.21491098 0.03932935
0.14191407 0.2164191 0.03932935
0.157148 0.20297915 0.037649333
0.14859092 0.21037513 0.03932935
0.14768106 0.21137911 0.037649333
0.14725637 0.21137911 0.03932935
0.1469109 0.2116493 0.03932935
0.1469109 0.2119987 0.037649333
0.14560086 0.21305913 0.037649333
0.14859092 0.21068019 0.037649333
0.14366823 0.21473914 0.03932935
0.14523089 0.21340334 0.037649333
0.14397484 0.21473914 0.037649333
0.1401909 0.2173096 0.03932935
0.14008588 0.21809912 0.037649333
0.138847 0.21809912 0.03932935
0.13851088 0.21830124 0.03932935
0.13851088 0.2190193 0.037649333
0.13727432 0.21977913 0.037649333
0.1401909 0.21803278 0.037649333
0.14187092 0.216443 0.03932935
0.14187092 0.21697533 0.037649333
0.13683087 0.20786119 0.05948934
0.13683087 0.20801914 0.05925688
0.13655144 0.20801914 0.05948934
0.13515091 0.20885217 0.05948934
0.13683087 0.20900363 0.057809323
0.13575417 0.2096991 0.057809323
0.13515091 0.2096991 0.058375567
0.13380837 0.2096991 0.05948934
0.14859092 0.1979391 0.06296864
0.14867705 0.1979391 0.06284934
0.14859092 0.19802755 0.06284934
0.1469109 0.19954848 0.06284934
0.15531087 0.20258719 0.046049327
0.15489674 0.20297915 0.046049327
0.15027088 0.20633912 0.04698357
0.15363091 0.20398593 0.046049327
0.1527999 0.2046591 0.046049327
0.1519509 0.20533967 0.046049327
0.15068167 0.20633912 0.046049327
0.1401909 0.21305913 0.04690364
0.15027088 0.20664984 0.046049327
0.14187092 0.21267796 0.046049327
0.14117306 0.21305913 0.046049327
0.14355087 0.21137911 0.046495855
0.1374501 0.21473914 0.046049327
0.13683087 0.21473914 0.04648006
0.14355087 0.21161294 0.046049327
0.13851088 0.21424967 0.046049327
0.14523089 0.21033567 0.046049327
0.1401909 0.21353036 0.046049327
0.13683087 0.21504903 0.046049327
0.14523089 0.2096991 0.047338188
0.14607507 0.2096991 0.046049327
0.14386928 0.21137911 0.046049327
0.13683087 0.21624124 0.04436934
0.13683087 0.2164191 0.044115335
0.13654822 0.2164191 0.04436934
0.13515091 0.21736258 0.04436934
0.13581294 0.21809912 0.042689323
0.13515091 0.21809912 0.043354303
0.13411546 0.21809912 0.04436934
0.1334709 0.21855897 0.04436934
0.13515091 0.2185393 0.042689323
0.1334709 0.21976948 0.042689323
0.14859092 0.20863587 0.04436934
0.14712232 0.2096991 0.04436934
0.15027088 0.20738035 0.04436934
0.15027088 0.20801914 0.04294333
0.14943159 0.20801914 0.04436934
0.14859092 0.20936346 0.042689323
0.15531087 0.20297295 0.04436934
0.15531087 0.20297915 0.04434544
0.15530425 0.20297915 0.04436934
0.13683087 0.22058696 0.035969347
0.1384306 0.21977913 0.035969347
0.13851088 0.21977913 0.035858124
0.1519509 0.20598316 0.04436934
0.15363091 0.2046591 0.04384494
0.1519509 0.20633912 0.04352057
0.1515401 0.20633912 0.04436934
0.15363091 0.20446903 0.04436934
0.153418 0.2046591 0.04436934
0.14355087 0.21248323 0.04436934
0.14355087 0.21305913 0.043267608
0.1427275 0.21305913 0.04436934
0.13851088 0.2164191 0.04269579
0.1401909 0.21447486 0.04436934
0.1401909 0.21473914 0.04393068
0.13968068 0.21473914 0.04436934
0.14187092 0.21358263 0.04436934
0.13851088 0.21533334 0.04436934
0.14523089 0.21115029 0.04436934
0.1469109 0.20985395 0.04436934
0.14523089 0.21137911 0.043893397
0.14494818 0.21137911 0.04436934
0.13851088 0.2096991 0.054917157
0.13683087 0.21065587 0.05444935
0.13888437 0.2096991 0.05444935
0.13851088 0.20990294 0.05444935
0.13515091 0.22145915 0.036184013
0.13524282 0.22145915 0.035969347
0.13515091 0.22150803 0.035969347
0.14355087 0.21544725 0.035969347
0.14268446 0.2164191 0.035969347
0.14610374 0.21305913 0.035969347
0.14420336 0.21473914 0.035969347
0.14523089 0.21380055 0.035969347
0.1401909 0.21809912 0.037482053
0.1401909 0.21864223 0.035969347
0.13851088 0.21973264 0.035969347
0.13011092 0.2096991 0.06168151
0.13011092 0.21006691 0.061169326
0.1284309 0.21074522 0.061169326
0.1469109 0.19961911 0.062745005
0.15027088 0.19749212 0.061169326
0.14982837 0.1979391 0.061169326
0.14355087 0.202515 0.06284934
0.14355087 0.20297915 0.06196007
0.14301455 0.20297915 0.06284934
0.14682359 0.19961911 0.06284934
0.13097602 0.2096991 0.061169326
0.1469109 0.200715 0.061169326
0.14616954 0.20129913 0.061169326
0.14523089 0.20129913 0.062332958
0.14523089 0.20096111 0.06284934
0.14486116 0.20129913 0.06284934
0.14859092 0.19921386 0.061169326
0.14816636 0.19961911 0.061169326
0.1401909 0.20454365 0.06284934
0.1401909 0.2046591 0.06260514
0.13978958 0.2046591 0.06284934
0.14523089 0.20202625 0.061169326
0.14404356 0.20297915 0.061169326
0.14187092 0.20393974 0.06284934
0.14148563 0.2046591 0.061169326
0.13851088 0.20503563 0.06284934
0.1401909 0.20527309 0.061169326
0.13851088 0.20596153 0.061169326
0.13772297 0.20633912 0.061169326
0.13683087 0.2057957 0.06284934
0.13683087 0.20633912 0.061872303
0.13683087 0.20677537 0.061169326
0.14355087 0.2033484 0.061169326
0.14187092 0.20445353 0.061169326
0.14086759 0.21809912 0.035969347
0.14187092 0.21720833 0.035969347
0.13851088 0.21067941 0.052769333
0.1334709 0.2096991 0.059738368
0.13179088 0.2096991 0.060714275
0.1334709 0.20851761 0.061169326
0.13515091 0.20763278 0.061169326
0.13515091 0.20801914 0.060608864
0.134395 0.20801914 0.061169326
0.13179088 0.20934069 0.061169326
0.1469109 0.21137911 0.040391803
0.14355087 0.21473914 0.039626807
0.14187092 0.2164191 0.039370656
0.13851088 0.21809912 0.03975591
0.12675089 0.21262735 0.05948934
0.12675089 0.21305913 0.05877602
0.12596601 0.21305913 0.05948934
0.1284309 0.2117905 0.05948934
0.13011092 0.21132922 0.05948934
0.13011092 0.21137911 0.059422493
0.12989175 0.21137911 0.05948934
0.1284309 0.21270216 0.057809323
0.12766474 0.21305913 0.057809323
0.13011092 0.21246457 0.057809323
0.13179088 0.211056 0.05948934
0.12675089 0.21361375 0.057809323
0.1334709 0.21137911 0.058213532
0.13179088 0.21137911 0.059192687
0.1334709 0.2099899 0.05948934
0.13179088 0.21258485 0.057809323
0.14859092 0.2004556 0.05948934
0.14859092 0.20129913 0.058307946
0.14767194 0.20129913 0.05948934
0.1469109 0.20188028 0.05948934
0.1469109 0.20297915 0.057904392
0.14533985 0.20297915 0.05948934
0.14934772 0.19961911 0.05948934
0.15027088 0.19961911 0.05816847
0.15027088 0.19987649 0.057809323
0.14889735 0.20129913 0.057809323
0.14859092 0.20165008 0.057809323
0.14700568 0.20297915 0.057809323
0.1334709 0.21169603 0.057809323
0.13515091 0.21015519 0.057809323
0.1337952 0.21137911 0.057809323
0.15027088 0.19866359 0.05948934
0.14187092 0.2052719 0.05948934
0.14355087 0.2046591 0.05877909
0.14355087 0.20525998 0.057809323
0.14187092 0.20624411 0.057809323
0.13851088 0.20801914 0.057870448
0.14289492 0.2046591 0.05948934
0.13851088 0.2070139 0.05948934
0.13858229 0.20801914 0.057809323
0.13985175 0.20633912 0.05948934
0.1401909 0.20714802 0.057809323
0.1401909 0.2061621 0.05948934
0.1401909 0.20633912 0.059186578
0.14355087 0.20424259 0.05948934
0.1417014 0.20633912 0.057809323
0.14523089 0.20414954 0.057809323
0.14523089 0.20305514 0.05948934
0.14447695 0.2046591 0.057809323
0.1469109 0.20304102 0.057809323
0.13851088 0.20805967 0.057809323
0.15053052 0.19961911 0.057809323
0.1401909 0.21054524 0.051089346
0.1401909 0.21137911 0.049719095
0.13862187 0.21137911 0.051089346
0.13851088 0.21142942 0.051089346
0.1334709 0.21977913 0.04267165
0.13345635 0.21977913 0.042689323
0.13515091 0.21473914 0.047715962
0.13515091 0.21472943 0.047729343
0.1334709 0.21575826 0.047729343
0.1334709 0.2164191 0.046922088
0.13235193 0.2164191 0.047729343
0.13513392 0.21473914 0.047729343
0.13515091 0.21605098 0.046049327
0.13459474 0.2164191 0.046049327
0.13179088 0.21674371 0.047729343
0.1334709 0.21716237 0.046049327
0.13187551 0.21809912 0.046049327
0.13179088 0.21809912 0.046103477
0.13179088 0.21814555 0.046049327
0.148372 0.20801914 0.046049327
0.1469109 0.20908618 0.046049327
0.1469109 0.20835721 0.047729343
0.14736968 0.20801914 0.047729343
0.14859092 0.2071212 0.047729343
0.14985001 0.20633912 0.047729343
0.14523089 0.20950514 0.047729343
0.14859092 0.20785677 0.046049327
0.1334709 0.21473914 0.049063265
0.13011092 0.2164191 0.049306095
0.13179088 0.2164191 0.04813257
0.13011092 0.21757185 0.047729343
0.1469109 0.20801914 0.0485664
0.13011092 0.21288478 0.056129336
0.13011092 0.21305913 0.05551979
0.12945414 0.21305913 0.056129336
0.13179088 0.21278507 0.056129336
0.1310656 0.21305913 0.05444935
0.13179088 0.2128061 0.05444935
0.13515091 0.2110241 0.056129336
0.13514262 0.21137911 0.05444935
0.13464063 0.21137911 0.056129336
0.13515091 0.21137524 0.05444935
0.1334709 0.21217555 0.05444935
0.1334709 0.2121647 0.056129336
0.1284309 0.21418238 0.05444935
0.13011092 0.2134223 0.05444935
0.1284309 0.2134496 0.056129336
0.15027088 0.20239311 0.05444935
0.14959657 0.20297915 0.05444935
0.14859092 0.20297915 0.0555906
0.14859092 0.2026273 0.056129336
0.14999455 0.20129913 0.056129336
0.15027088 0.20129913 0.055770963
0.13851088 0.20910573 0.056129336
0.1401909 0.20892966 0.05444935
0.14355087 0.20627105 0.056129336
0.14355087 0.20633912 0.05600691
0.1434353 0.20633912 0.056129336
0.15027088 0.20104057 0.056129336
0.14821249 0.20297915 0.056129336
0.14523089 0.20526063 0.056129336
0.14501256 0.20633912 0.05444935
0.14523089 0.20620978 0.05444935
0.1469109 0.20407528 0.056129336
0.1469109 0.2046591 0.055155218
0.1461199 0.2046591 0.056129336
0.14859092 0.20374471 0.05444935
0.1469109 0.20506835 0.05444935
0.14187092 0.20793706 0.05444935
0.14173114 0.20801914 0.05444935
0.14187092 0.207174 0.056129336
0.14355087 0.20709139 0.05444935
0.1401909 0.20811802 0.056129336
0.14036232 0.20801914 0.056129336
0.14745307 0.2046591 0.05444935
0.1519509 0.19941998 0.056129336
0.1519509 0.19961911 0.055853456
0.15175217 0.19961911 0.056129336
0.1519509 0.20070249 0.05444935
0.15136504 0.20129913 0.05444935
0.1284309 0.21305913 0.05701399
0.12675089 0.21439433 0.056129336
0.1401909 0.20801914 0.05630821
0.14187092 0.20633912 0.057653844
0.14523089 0.2046591 0.057073355
0.13515091 0.2164191 0.045585245
0.1334709 0.21809912 0.04492268
0.14859092 0.20801914 0.045698047
0.1469109 0.2096991 0.04470378
0.13179088 0.21965206 0.04436934
0.13851088 0.21137911 0.05120045
0.1284309 0.21473914 0.05333078
0.12740439 0.21473914 0.05444935
0.13515091 0.21137911 0.05443427
0.13179088 0.21305913 0.053418964
0.15027088 0.20297915 0.053805023
0.14187092 0.20801914 0.054259628
0.14859092 0.2046591 0.053023368
0.14523089 0.20633912 0.054222405
0.1519509 0.20129913 0.05372736
0.1284309 0.21137911 0.060121536
0.15027088 0.1979391 0.060523123
0.14859092 0.19961911 0.060598284
0.1469109 0.20129913 0.060331583
0.13851088 0.20633912 0.060579956
0.14523089 0.20297915 0.059615105
0.14187092 0.2046591 0.060708374
0.1334709 0.20801914 0.06185308
0.13851088 0.21473914 0.045286387
0.14187092 0.21305913 0.045368522
POLYGONS 930 3720
3 0 1 2
3 2 1 3
3 4 2 3
3 5 6 7
3 1 8 3
3 5 9 6
3 10 11 12
3 13 14 9
3 5 13 9
3 13 11 15
3 13 15 14
3 0 16 1
3 13 12 11
3 17 18 16
3 0 17 16
3 7 6 18
3 17 7 18
3 1 16 8
3 6 19 18
3 6 9 19
3 20 21 22
3 20 23 21
3 24 25 26
3 23 27 28
3 23 28 21
3 26 29 27
3 23 26 27
3 30 31 32
3 26 25 29
3 33 34 35
3 35 34 36
3 37 38 31
3 30 37 31
3 34 38 37
3 38 39 31
3 24 40 25
3 37 36 34
3 40 41 42
3 40 42 25
3 40 31 43
3 40 43 41
3 25 42 29
3 40 32 31
3 31 39 43
3 44 45 46
3 44 46 47
3 48 49 46
3 45 48 46
3 49 50 46
3 48 51 49
3 35 46 33
3 35 47 46
3 46 52 33
3 46 50 52
3 8 53 54
3 14 15 55
3 14 55 9
3 15 56 57
3 15 57 55
3 18 19 58
3 18 58 16
3 19 59 60
3 19 60 58
3 8 16 61
3 8 61 53
3 58 60 61
3 16 58 61
3 9 62 59
3 19 9 59
3 55 57 62
3 9 55 62
3 27 29 63
3 27 63 28
3 29 64 65
3 29 65 63
3 38 66 39
3 33 67 34
3 68 69 66
3 38 68 66
3 34 67 68
3 38 34 68
3 41 43 70
3 41 70 42
3 43 71 72
3 43 72 70
3 29 70 73
3 29 73 64
3 70 72 73
3 29 42 70
3 39 66 71
3 43 39 71
3 66 69 74
3 66 74 71
3 75 76 49
3 49 76 50
3 77 78 79
3 79 78 80
3 81 82 83
3 83 82 84
3 83 85 86
3 86 81 83
3 79 84 82
3 82 77 79
3 87 88 89
3 89 88 90
3 89 80 78
3 78 87 89
3 91 90 88
3 88 92 91
3 93 94 95
3 96 97 98
3 99 100 94
3 93 99 94
3 96 101 97
3 99 102 100
3 96 94 101
3 101 103 97
3 94 100 101
3 96 95 94
3 104 105 106
3 106 105 107
3 108 109 110
3 110 109 111
3 110 107 105
3 105 108 110
3 112 113 104
3 106 112 104
3 112 114 113
3 106 115 112
3 99 111 109
3 109 102 99
3 116 117 118
3 119 116 118
3 120 98 116
3 119 120 116
3 97 121 116
3 98 97 116
3 97 103 121
3 118 117 122
3 123 124 125
3 126 127 128
3 129 130 127
3 126 129 127
3 126 76 125
3 126 125 129
3 128 127 131
3 68 128 131
3 127 130 132
3 127 132 131
3 133 134 56
3 125 124 129
3 135 136 133
3 56 135 133
3 135 137 138
3 135 138 136
3 139 140 141
3 139 141 142
3 139 65 143
3 139 143 140
3 137 142 138
3 65 144 143
3 141 145 138
3 142 141 138
3 146 134 133
3 141 140 145
3 133 136 147
3 133 147 146
3 144 148 143
3 149 150 151
3 152 153 154
3 155 153 156
3 155 156 157
3 155 157 158
3 159 155 158
3 155 154 153
3 153 160 156
3 161 122 162
3 161 162 163
3 122 152 154
3 122 154 162
3 164 162 155
3 164 155 159
3 162 154 155
3 164 163 162
3 165 166 167
3 167 166 168
3 169 170 171
3 172 173 174
3 175 172 174
3 176 175 174
3 176 174 177
3 174 178 170
3 177 174 170
3 169 177 170
3 176 179 175
3 180 170 181
3 180 181 182
3 174 173 183
3 174 183 178
3 167 182 165
3 180 171 170
3 184 185 181
3 170 184 181
3 170 178 184
3 181 185 186
3 181 186 165
3 182 181 165
3 187 188 189
3 190 191 192
3 192 191 193
3 175 194 172
3 195 196 197
3 187 198 199
3 199 200 188
3 187 199 188
3 196 199 198
3 195 168 166
3 166 201 195
3 201 196 195
3 202 189 188
3 188 203 204
3 202 188 204
3 198 197 196
3 205 206 207
3 192 202 204
3 204 190 192
3 188 200 203
3 152 208 209
3 209 210 153
3 152 209 153
3 211 206 205
3 205 212 213
3 213 211 205
3 208 207 206
3 206 209 208
3 153 210 160
3 212 193 191
3 191 213 212
3 214 215 216
3 217 216 218
3 217 218 219
3 217 219 220
3 217 220 221
3 216 215 218
3 222 223 224
3 222 224 225
3 226 227 123
3 123 227 124
3 131 132 228
3 229 230 129
3 129 230 130
3 132 130 230
3 230 231 132
3 231 232 228
3 132 231 228
3 138 233 136
3 228 232 234
3 129 124 227
3 227 229 129
3 145 235 236
3 145 236 233
3 138 145 233
3 143 237 140
3 146 238 239
3 237 240 235
3 140 237 235
3 145 140 235
3 136 233 241
3 147 136 241
3 146 147 241
3 146 241 238
3 143 242 237
3 233 236 243
3 239 238 244
3 233 243 241
3 245 246 242
3 143 148 245
3 143 245 242
3 242 247 237
3 237 247 240
3 248 249 250
3 251 119 252
3 251 252 253
3 251 253 254
3 255 253 256
3 255 256 257
3 250 249 119
3 251 250 119
3 253 252 256
3 255 254 253
3 258 115 259
3 260 261 262
3 258 262 261
3 261 91 263
3 258 261 263
3 263 115 258
3 264 265 266
3 267 268 269
3 270 271 272
3 270 272 273
3 79 80 272
3 271 79 272
3 274 271 275
3 265 85 83
3 266 265 83
3 260 272 261
3 271 84 79
3 274 266 271
3 270 275 271
3 83 84 271
3 266 83 271
3 276 277 278
3 261 90 91
3 279 249 248
3 280 281 282
3 89 90 261
3 272 89 261
3 272 80 89
3 260 273 272
3 280 283 281
3 282 281 96
3 283 93 95
3 283 95 281
3 284 96 279
3 248 284 279
3 284 282 96
3 96 98 279
3 285 286 287
3 285 287 288
3 106 107 287
3 286 106 287
3 278 277 93
3 283 278 93
3 281 95 96
3 277 99 93
3 115 106 286
3 287 107 110
3 277 111 99
3 286 259 115
3 276 110 111
3 276 111 277
3 276 288 287
3 276 287 110
3 279 120 119
3 119 249 279
3 279 98 120
3 150 289 290
3 151 150 290
3 289 291 292
3 289 292 290
3 156 160 267
3 156 267 293
3 267 294 293
3 156 293 157
3 293 294 295
3 296 297 190
3 199 298 200
3 190 297 191
3 203 200 298
3 299 296 190
3 300 299 203
3 298 300 203
3 203 299 204
3 206 301 302
3 209 302 303
3 209 206 302
3 209 268 210
3 303 268 209
3 190 204 299
3 211 301 206
3 304 305 306
3 225 224 307
3 223 308 309
3 310 311 312
3 225 307 313
3 304 314 305
3 315 316 317
3 318 307 315
3 318 317 319
3 318 315 317
3 309 320 224
3 224 223 309
3 224 321 307
3 224 320 321
3 307 321 315
3 322 323 324
3 310 319 317
3 317 316 325
3 317 325 311
3 325 326 311
3 318 313 307
3 310 317 311
3 322 327 323
3 327 328 323
3 329 324 330
3 324 323 330
3 329 331 332
3 329 330 331
3 333 332 334
3 333 329 332
3 323 328 330
3 334 332 335
3 311 336 337
3 327 312 311
3 327 337 328
3 327 311 337
3 160 210 268
3 268 267 160
3 301 338 302
3 213 191 297
3 297 339 213
3 213 339 338
3 213 338 301
3 211 213 301
3 303 302 269
3 303 269 268
3 292 10 290
3 340 10 292
3 22 340 292
3 292 291 22
3 218 149 219
3 341 342 343
3 344 345 346
3 344 335 345
3 335 216 345
3 335 214 216
3 343 221 341
3 343 217 221
3 343 346 217
3 347 342 314
3 343 342 347
3 346 345 217
3 345 216 217
3 92 168 114
3 167 168 92
3 177 169 77
3 81 86 179
3 87 182 88
3 77 82 177
3 171 180 87
3 180 182 87
3 182 167 92
3 87 78 171
3 77 171 78
3 81 177 82
3 169 171 77
3 179 176 81
3 176 177 81
3 187 189 108
3 108 189 109
3 108 348 198
3 108 198 187
3 104 113 348
3 108 105 348
3 195 197 348
3 113 195 348
3 102 349 100
3 92 88 182
3 101 193 350
3 101 350 103
3 349 192 193
3 101 349 193
3 104 348 105
3 101 100 349
3 205 207 351
3 116 205 351
3 122 117 152
3 116 121 205
3 351 208 152
3 117 351 152
3 121 103 205
3 351 207 208
3 113 114 168
3 168 195 113
3 102 109 349
3 348 197 198
3 189 202 349
3 109 189 349
3 116 351 117
3 349 202 192
3 350 212 205
3 103 350 205
3 350 193 212
3 352 353 354
3 352 355 353
3 356 357 358
3 355 359 360
3 355 360 353
3 355 358 361
3 355 361 359
3 362 357 356
3 353 360 363
3 364 365 362
3 365 357 362
3 361 357 365
3 362 366 364
3 367 365 364
3 365 367 361
3 358 357 361
3 354 353 363
3 368 369 370
3 371 372 373
3 374 375 369
3 368 374 369
3 375 376 377
3 375 377 369
3 371 378 379
3 371 379 372
3 366 221 364
3 364 380 367
3 220 381 364
3 221 220 364
3 220 219 381
3 381 382 364
3 383 375 374
3 364 382 380
3 384 385 386
3 384 386 387
3 388 215 214
3 384 389 385
3 390 391 388
3 214 390 388
3 390 392 393
3 390 393 391
3 371 370 369
3 371 369 378
3 394 395 392
3 369 377 378
3 394 384 395
3 396 385 389
3 384 387 397
3 384 397 395
3 373 372 398
3 399 373 398
3 385 400 386
3 372 401 398
3 372 379 401
3 218 215 388
3 392 395 393
3 388 391 402
3 388 402 218
3 396 398 385
3 395 397 393
3 396 399 398
3 398 400 385
3 375 403 376
3 52 126 67
3 126 128 67
3 33 52 67
3 49 51 75
3 404 139 142
3 404 28 139
3 405 137 135
3 404 142 405
3 405 142 137
3 28 63 139
3 63 65 139
3 67 128 68
3 404 405 406
3 76 126 52
3 52 50 76
3 407 406 135
3 406 405 135
3 135 56 15
3 15 407 135
3 119 118 252
3 257 256 408
3 257 408 409
3 256 252 161
3 252 118 161
3 256 163 408
3 256 161 163
3 263 92 112
3 92 114 112
3 408 163 164
3 263 112 115
3 263 91 92
3 118 122 161
3 239 410 411
3 411 146 239
3 412 413 414
3 411 410 415
3 412 410 416
3 412 415 410
3 412 417 413
3 412 416 417
3 416 410 239
3 239 244 416
3 418 414 419
3 414 413 419
3 418 420 421
3 418 419 420
3 421 420 422
3 413 417 419
3 423 424 425
3 425 426 423
3 427 228 234
3 427 428 228
3 429 425 245
3 425 246 245
3 131 228 428
3 429 245 148
3 430 423 427
3 427 234 430
3 425 424 246
3 427 423 426
3 59 431 60
3 61 432 53
3 53 432 54
3 56 134 57
3 61 412 414
3 61 60 412
3 433 432 61
3 61 414 433
3 62 415 431
3 62 411 415
3 60 431 412
3 59 62 431
3 57 134 146
3 431 415 412
3 62 146 411
3 62 57 146
3 433 418 434
3 433 414 418
3 434 432 433
3 131 428 68
3 71 435 72
3 64 144 65
3 68 428 69
3 54 432 434
3 74 69 428
3 435 426 425
3 71 74 427
3 428 427 74
3 75 125 76
3 73 429 148
3 73 435 429
3 64 73 144
3 73 148 144
3 71 427 435
3 427 426 435
3 435 425 429
3 73 72 435
3 436 437 438
3 439 440 437
3 439 441 440
3 436 439 437
3 442 443 444
3 445 443 442
3 446 441 439
3 439 447 446
3 438 437 448
3 437 449 448
3 450 438 448
3 451 452 453
3 454 455 456
3 454 456 453
3 456 451 453
3 457 458 289
3 458 291 289
3 459 460 461
3 457 289 150
3 443 446 447
3 447 444 443
3 151 445 442
3 290 445 151
3 462 456 455
3 454 453 463
3 437 440 449
3 464 465 460
3 464 466 465
3 467 468 469
3 459 464 460
3 464 469 468
3 467 470 468
3 464 468 466
3 468 471 466
3 472 473 474
3 474 475 472
3 457 476 458
3 474 473 477
3 473 458 476
3 476 477 473
3 474 460 475
3 474 461 460
3 467 463 453
3 453 452 470
3 470 478 468
3 467 453 470
3 479 480 481
3 468 478 471
3 460 465 475
3 462 480 456
3 480 482 456
3 456 483 451
3 482 483 456
3 462 481 480
3 311 326 336
3 361 436 438
3 361 438 484
3 359 361 484
3 359 484 360
3 381 219 442
3 442 444 381
3 381 444 382
3 447 439 380
3 380 382 444
3 444 447 380
3 149 151 442
3 219 149 442
3 484 450 485
3 360 484 485
3 363 360 485
3 380 439 367
3 439 436 367
3 367 436 361
3 484 438 450
3 218 150 149
3 393 486 391
3 386 459 461
3 386 461 487
3 391 486 457
3 402 391 457
3 218 402 457
3 218 457 150
3 454 463 378
3 378 463 379
3 462 455 376
3 376 455 377
3 387 386 487
3 387 487 397
3 378 377 455
3 455 454 378
3 386 464 459
3 398 401 467
3 467 469 488
3 398 467 488
3 463 467 401
3 488 469 464
3 400 488 464
3 386 400 464
3 393 397 474
3 474 477 486
3 393 474 486
3 486 476 457
3 398 488 400
3 486 477 476
3 487 461 474
3 397 487 474
3 376 403 481
3 481 462 376
3 401 379 463
3 244 248 250
3 244 250 489
3 416 244 489
3 416 489 417
3 419 490 420
3 490 254 255
3 489 250 251
3 417 489 251
3 234 262 491
3 430 234 491
3 430 491 423
3 424 492 246
3 420 490 493
3 422 420 493
3 419 417 251
3 419 251 254
3 419 254 490
3 490 255 493
3 424 491 258
3 424 258 259
3 424 259 492
3 234 260 262
3 491 262 258
3 424 423 491
3 340 11 10
3 340 22 404
3 340 404 406
3 340 406 494
3 494 11 340
3 494 406 407
3 494 407 15
3 15 11 494
3 22 21 404
3 21 28 404
3 448 0 2
3 448 2 495
3 448 495 496
3 290 12 497
3 445 290 497
3 445 497 443
3 446 5 7
3 446 443 497
3 446 497 13
3 446 13 5
3 290 10 12
3 448 449 0
3 446 7 498
3 441 446 498
3 441 498 440
3 495 2 4
3 20 22 458
3 458 22 291
3 451 499 452
3 475 24 26
3 475 26 500
3 472 475 500
3 472 500 473
3 498 17 0
3 440 498 0
3 449 440 0
3 497 12 13
3 498 7 17
3 470 452 35
3 35 36 501
3 470 35 501
3 470 501 478
3 501 37 30
3 478 501 30
3 471 478 30
3 452 499 35
3 500 26 23
3 458 473 500
3 458 500 23
3 458 23 20
3 471 30 32
3 471 32 502
3 466 471 502
3 466 502 465
3 475 465 502
3 475 502 40
3 475 40 24
3 501 36 37
3 502 32 40
3 503 45 44
3 451 483 503
3 499 47 35
3 482 503 483
3 44 47 499
3 503 44 499
3 451 503 499
3 306 305 504
3 305 358 504
3 305 356 358
3 341 221 366
3 308 505 309
3 320 506 321
3 320 505 506
3 314 362 356
3 314 342 362
3 362 342 341
3 341 366 362
3 305 314 356
3 504 355 352
3 504 358 355
3 315 321 506
3 506 374 368
3 507 370 371
3 331 508 332
3 325 316 507
3 315 506 507
3 506 368 507
3 368 370 507
3 325 509 326
3 325 373 509
3 325 371 373
3 325 507 371
3 505 374 506
3 505 383 374
3 320 309 505
3 315 507 316
3 335 332 390
3 332 508 390
3 508 392 390
3 336 326 396
3 330 510 384
3 330 328 510
3 510 389 384
3 335 390 214
3 337 336 510
3 336 389 510
3 336 396 389
3 330 384 394
3 331 330 508
3 330 392 508
3 330 394 392
3 337 510 328
3 326 509 396
3 509 399 396
3 509 373 399
3 334 335 344
3 511 346 343
3 511 343 347
3 264 266 226
3 226 266 227
3 229 275 230
3 241 512 238
3 276 278 513
3 243 282 512
3 241 243 512
3 235 513 236
3 234 232 273
3 240 276 513
3 235 240 513
3 266 274 229
3 231 230 275
3 273 260 234
3 229 227 266
3 231 273 232
3 274 275 229
3 275 270 231
3 270 273 231
3 242 246 492
3 492 286 285
3 240 247 288
3 288 276 240
3 242 288 247
3 513 278 283
3 242 492 285
3 285 288 242
3 243 283 280
3 512 282 284
3 236 513 283
3 243 236 283
3 244 238 248
3 243 280 282
3 238 512 284
3 238 284 248
3 492 259 286

CELL_DATA 930
SCALARS longitude float 1
LOOKUP_TABLE default
58.83700180053711
59.01750183105469
59.139198303222656
57.98910140991211
58.96670150756836
57.867401123046875
57.09550094604492
57.60900115966797
57.712501525878906
57.23929977416992
57.39870071411133
58.70869827270508
57.227500915527344
58.43840026855469
58.54349899291992
58.16790008544922
58.28710174560547
58.74919891357422
58.107200622558594
57.90230178833008
56.23649978637695
56.08549880981445
55.40620040893555
55.888999938964844
56.00339889526367
55.60900115966797
55.71229934692383
54.56269836425781
55.441898345947266
53.67900085449219
53.77619934082031
54.24480056762695
54.36650085449219
53.98320007324219
54.36830139160156
55.23929977416992
53.927101135253906
55.04759979248047
55.15620040893555
54.71080017089844
54.88249969482422
55.32899856567383
54.71139907836914
54.528099060058594
53.02669906616211
53.1880989074707
52.84859848022461
52.88249969482422
53.0099983215332
52.627899169921875
53.48429870605469
53.355899810791016
53.35940170288086
53.17509841918945
58.94649887084961
57.44599914550781
57.65599822998047
57.26689910888672
57.38010025024414
58.28269958496094
58.494598388671875
58.10200119018555
58.21989822387695
58.66859817504883
58.78990173339844
58.40950012207031
58.54050064086914
57.86029815673828
57.959999084472656
57.55149841308594
57.69499969482422
55.762699127197266
55.93349838256836
55.56740188598633
55.67470169067383
54.265499114990234
53.721099853515625
54.08399963378906
54.05670166015625
53.75339889526367
53.89799880981445
54.92290115356445
55.087799072265625
54.73870086669922
54.85710144042969
55.23979949951172
55.41279983520508
55.03689956665039
55.22489929199219
54.45800018310547
54.58610153198242
54.239200592041016
54.40439987182617
52.83219909667969
52.92850112915039
53.290000915527344
53.40010070800781
52.76150131225586
52.86479949951172
52.50519943237305
52.58100128173828
53.03879928588867
53.109798431396484
53.813201904296875
53.944400787353516
53.56959915161133
53.62730026245117
54.10929870605469
54.14360046386719
56.56549835205078
57.13169860839844
56.33330154418945
56.37480163574219
56.881099700927734
56.20309829711914
56.70869827270508
56.916500091552734
56.52109909057617
56.71149826049805
55.17290115356445
55.242801666259766
55.685298919677734
55.7848014831543
55.40299987792969
55.495601654052734
54.855899810791016
54.98509979248047
54.66960144042969
54.846500396728516
55.94580078125
56.01070022583008
57.727500915527344
57.73870086669922
57.4213981628418
57.56679916381836
57.213199615478516
57.31629943847656
57.06399917602539
57.87289810180664
52.69879913330078
53.433101654052734
53.24399948120117
53.22359848022461
53.04560089111328
53.04719924926758
53.62519836425781
53.75040054321289
53.404300689697266
53.57600021362305
57.177799224853516
52.86629867553711
56.909698486328125
57.039100646972656
56.64659881591797
56.78419876098633
56.061500549316406
56.182098388671875
55.79869842529297
55.92789840698242
56.48160171508789
55.655399322509766
56.301700592041016
56.36869812011719
57.21900177001953
56.10850143432617
56.949501037597656
57.12009811401367
55.5614013671875
56.84989929199219
58.12120056152344
58.37379837036133
58.60029983520508
58.722801208496094
58.75550079345703
58.263301849365234
58.25859832763672
58.242698669433594
58.42959976196289
58.06999969482422
58.19200134277344
58.5640983581543
58.71770095825195
58.36899948120117
58.574100494384766
54.355201721191406
54.416500091552734
53.335899353027344
52.63410186767578
52.46220016479492
52.61800003051758
52.81039810180664
53.147300720214844
52.99829864501953
53.15909957885742
52.452301025390625
53.6598014831543
53.863800048828125
52.805301666259766
52.975101470947266
54.1890983581543
53.505001068115234
53.68330001831055
53.51100158691406
53.32820129394531
53.85240173339844
54.01580047607422
54.044498443603516
55.72079849243164
56.393798828125
56.5359001159668
52.2775993347168
54.98759841918945
55.40959930419922
55.550201416015625
55.5713005065918
55.191001892089844
54.57600021362305
54.67070007324219
54.87689971923828
55.88800048828125
55.88100051879883
56.032100677490234
55.143798828125
57.32609939575195
56.21149826049805
56.24589920043945
55.71160125732422
57.779998779296875
57.931800842285156
57.94300079345703
57.2401008605957
56.91680145263672
57.084598541259766
57.470001220703125
57.527400970458984
58.07699966430664
56.70159912109375
56.72679901123047
56.67509841918945
56.86589813232422
56.98740005493164
57.124298095703125
57.24959945678711
56.723201751708984
53.103599548339844
53.2869987487793
52.53889846801758
52.62329864501953
53.75189971923828
53.07059860229492
53.19309997558594
53.35329818725586
53.391998291015625
53.764801025390625
53.618900299072266
56.71139907836914
53.92409896850586
52.79069900512695
52.869598388671875
56.31439971923828
56.434898376464844
56.47629928588867
55.855499267578125
57.422401428222656
55.987098693847656
56.04309844970703
56.16270065307617
56.885398864746094
56.998199462890625
57.16859817504883
57.29650115966797
55.641998291015625
56.61349868774414
57.46820068359375
56.828800201416016
55.27000045776367
55.45759963989258
55.46730041503906
55.6515998840332
55.80910110473633
57.70759963989258
58.01060104370117
58.143699645996094
58.25120162963867
58.35609817504883
58.5276985168457
57.754398345947266
57.89780044555664
58.18989944458008
58.404598236083984
54.750099182128906
54.17890167236328
54.33509826660156
54.3203010559082
54.44430160522461
54.646400451660156
52.57849884033203
57.9208984375
53.44060134887695
53.640499114990234
53.4546012878418
53.300899505615234
53.109798431396484
52.56930160522461
52.60029983520508
53.953399658203125
53.09830093383789
52.92190170288086
53.27799987792969
52.924198150634766
52.776100158691406
56.05630111694336
54.15290069580078
57.58399963378906
56.88290023803711
53.987998962402344
53.820701599121094
53.62419891357422
53.803199768066406
56.699100494384766
56.923301696777344
56.51810073852539
56.634498596191406
57.19329833984375
57.434898376464844
57.05229949951172
57.23659896850586
55.331298828125
55.51620101928711
55.33140182495117
55.20429992675781
56.24140167236328
56.367000579833984
56.81589889526367
56.20180130004883
54.95539855957031
55.491798400878906
56.018699645996094
54.904701232910156
55.833499908447266
55.98350143432617
55.675498962402344
55.68190002441406
57.5255012512207
57.63079833984375
57.380001068115234
56.77090072631836
56.889801025390625
56.53919982910156
56.70949935913086
58.28990173339844
58.44969940185547
58.460601806640625
58.644798278808594
58.60139846801758
56.41590118408203
55.49700164794922
56.50849914550781
55.658199310302734
56.25389862060547
55.897701263427734
55.711700439453125
56.01350021362305
57.295799255371094
57.598899841308594
57.436500549316406
57.83190155029297
57.75310134887695
56.19879913330078
57.27159881591797
58.34989929199219
53.468299865722656
52.899200439453125
54.74440002441406
53.65079879760742
58.13999938964844
54.00130081176758
53.86389923095703
54.19860076904297
54.044498443603516
53.09159851074219
53.02730178833008
53.393798828125
53.27149963378906
53.62080001831055
55.60940170288086
54.3734016418457
54.165000915527344
54.40370178222656
54.55289840698242
53.81949996948242
54.530601501464844
55.44599914550781
55.36899948120117
55.76430130004883
55.64120101928711
56.10559844970703
55.902099609375
56.36970138549805
56.20610046386719
55.53350067138672
56.4114990234375
54.91830062866211
54.91299819946289
55.25389862060547
55.04999923706055
57.97700119018555
58.03620147705078
57.247398376464844
56.67570114135742
56.75790023803711
56.9375
57.07699966430664
57.1161994934082
57.62879943847656
57.782901763916016
56.8827018737793
56.777000427246094
56.498600006103516
56.43389892578125
56.915000915527344
57.58409881591797
57.02069854736328
56.811100006103516
56.73720169067383
56.62260055541992
57.45309829711914
57.30910110473633
57.20119857788086
57.890201568603516
57.6786994934082
57.071800231933594
56.932701110839844
54.45869827270508
54.348201751708984
53.12779998779297
52.46979904174805
53.9025993347168
53.007301330566406
53.64149856567383
53.82609939575195
54.155399322509766
53.53219985961914
53.364498138427734
52.833099365234375
53.3047981262207
52.5968017578125
52.779701232910156
55.70240020751953
55.73429870605469
55.36650085449219
55.53820037841797
55.029701232910156
55.36909866333008
55.034400939941406
54.89250183105469
56.26110076904297
54.06809997558594
56.708900451660156
56.812400817871094
56.41419982910156
56.53689956665039
55.206600189208984
56.41740036010742
57.42409896850586
57.41939926147461
57.92250061035156
57.2489013671875
57.74380111694336
57.80270004272461
57.09980010986328
57.56809997558594
54.61690139770508
54.66600036621094
56.069000244140625
55.19070053100586
56.06060028076172
55.92559814453125
57.622398376464844
56.23749923706055
56.89440155029297
56.99440002441406
56.75189971923828
59.28620147705078
59.07279968261719
58.39870071411133
58.904598236083984
59.029598236083984
58.57109832763672
58.71989822387695
58.26129913330078
59.21260070800781
57.934898376464844
58.15359878540039
58.3202018737793
57.7692985534668
57.99700164794922
58.25920104980469
58.444400787353516
59.32500076293945
53.584999084472656
54.152000427246094
53.26430130004883
53.40549850463867
53.200801849365234
53.36859893798828
53.88560104370117
54.04899978637695
57.58300018310547
57.9010009765625
57.39469909667969
57.462501525878906
57.17839813232422
57.55110168457031
53.04050064086914
57.72249984741211
55.111900329589844
55.286399841308594
56.54970169067383
55.126800537109375
56.294898986816406
56.39979934692383
55.99869918823242
56.151100158691406
53.75299835205078
53.71220016479492
55.820899963378906
53.56380081176758
55.647098541259766
54.97639846801758
55.44940185546875
55.55939865112305
54.3572998046875
54.4650993347168
54.92210006713867
54.26279830932617
54.10089874267578
56.597900390625
55.86330032348633
56.339298248291016
56.492401123046875
54.80799865722656
55.746299743652344
54.63240051269531
54.76850128173828
53.02399826049805
53.41469955444336
53.534400939941406
53.53630065917969
52.69309997558594
56.25230026245117
56.122398376464844
56.59700012207031
56.389198303222656
56.43170166015625
55.9817008972168
55.86149978637695
53.68840026855469
56.51070022583008
53.15620040893555
53.09349822998047
56.79610061645508
56.6879997253418
57.10329818725586
56.93619918823242
57.933799743652344
58.57500076293945
58.73040008544922
58.24409866333008
58.12089920043945
58.49919891357422
58.381500244140625
54.51689910888672
54.51129913330078
58.68040084838867
54.69219970703125
54.34700012207031
58.0713005065918
57.70750045776367
57.56769943237305
58.38240051269531
57.81549835205078
58.01499938964844
57.96379852294922
58.23899841308594
58.1171989440918
57.760501861572266
57.66640090942383
58.558101654052734
58.43769836425781
58.79859924316406
58.654300689697266
58.85300064086914
58.29439926147461
54.74020004272461
54.66600036621094
54.084999084472656
54.096900939941406
55.12580108642578
55.082298278808594
53.94820022583008
55.30379867553711
54.42850112915039
54.25339889526367
54.952999114990234
54.5098991394043
58.15489959716797
58.83649826049805
58.99290084838867
57.30889892578125
58.452301025390625
58.341800689697266
58.73080062866211
58.58639907836914
57.87799835205078
57.77040100097656
58.20539855957031
57.9744987487793
57.34989929199219
58.07109832763672
57.62910079956055
57.47919845581055
58.82619857788086
58.63679885864258
58.92190170288086
53.897499084472656
54.786399841308594
55.61069869995117
54.00749969482422
59.04059982299805
54.162498474121094
54.755401611328125
54.4385986328125
54.20130157470703
52.886600494384766
55.26070022583008
55.067901611328125
55.456199645996094
55.37260055541992
54.611900329589844
54.599098205566406
54.95050048828125
54.93349838256836
58.6244010925293
58.405799865722656
58.286399841308594
58.460899353027344
57.424800872802734
57.39189910888672
58.095001220703125
57.96039962768555
58.7859001159668
58.757301330566406
58.911399841308594
53.60350036621094
53.4380989074707
53.59980010986328
53.48659896850586
56.39070129394531
56.391998291015625
55.177799224853516
56.599300384521484
57.687198638916016
57.57939910888672
57.22629928588867
57.103599548339844
53.26350021362305
53.80139923095703
58.54059982299805
54.93109893798828
54.82120132446289
54.35089874267578
55.01900100708008
54.50699996948242
54.158199310302734
54.63010025024414
54.51789855957031
55.674800872802734
55.520999908447266
56.21770095825195
55.77299880981445
55.96849822998047
55.91899871826172
55.34709930419922
55.321800231933594
53.96929931640625
53.76679992675781
54.15079879760742
53.98030090332031
52.724300384521484
54.31269836425781
55.1151008605957
53.06779861450195
52.95029830932617
53.241600036621094
53.062599182128906
52.90079879760742
54.716800689697266
58.60070037841797
58.71760177612305
58.77050018310547
58.954898834228516
57.23320007324219
57.374000549316406
57.475799560546875
57.941001892089844
57.64699935913086
57.70000076293945
57.049400329589844
57.10660171508789
59.0974006652832
59.13240051269531
59.265098571777344
58.06669998168945
58.33259963989258
58.429100036621094
58.86690139770508
56.808998107910156
56.08729934692383
55.13090133666992
55.23889923095703
56.27690124511719
56.38520050048828
56.53820037841797
56.677101135253906
53.74169921875
53.85490036010742
53.198699951171875
53.29439926147461
55.332698822021484
55.495601654052734
53.47779846191406
53.55670166015625
54.971900939941406
54.311500549316406
54.4547004699707
54.48720169067383
54.075401306152344
54.611000061035156
54.71289825439453
54.84370040893555
55.676300048828125
55.86989974975586
55.84349822998047
56.17919921875
54.66400146484375
56.0161018371582
55.426998138427734
55.53580093383789
52.93370056152344
53.014801025390625
54.020599365234375
57.65290069580078
57.76620101928711
57.84000015258789
58.0364990234375
58.599700927734375
58.51139831542969
57.964599609375
58.088401794433594
54.24869918823242
54.292598724365234
54.467498779296875
55.01060104370117
58.80379867553711
58.91310119628906
58.2244987487793
58.32109832763672
58.4567985534668
58.71979904174805
54.63639831542969
54.798301696777344
54.94649887084961
54.11909866333008
54.4370002746582
54.62310028076172
56.94490051269531
56.41939926147461
56.587501525878906
56.72829818725586
56.84170150756836
56.7593994140625
56.899600982666016
57.00410079956055
56.272499084472656
56.188899993896484
58.92470169067383
59.05580139160156
59.16270065307617
57.176300048828125
57.26860046386719
57.40650177001953
57.953399658203125
57.54710006713867
57.56779861450195
57.7234001159668
57.06570053100586
58.8025016784668
58.08259963989258
58.10599899291992
58.297401428222656
59.089599609375
56.2041015625
56.28689956665039
53.5010986328125
55.36640167236328
55.47829818725586
55.55730056762695
55.710899353027344
58.425899505615234
58.462398529052734
58.58610153198242
57.33489990234375
58.23749923706055
53.69710159301758
53.860801696777344
53.833499908447266
54.04779815673828
54.18949890136719
54.25279998779297
54.374000549316406
53.56050109863281
55.649898529052734
55.858699798583984
55.8765983581543
56.05289840698242
54.50699996948242
54.62329864501953
54.6953010559082
54.86819839477539
55.01070022583008
55.029598236083984
55.19929885864258
54.01190185546875
54.815101623535156
52.95029830932617
53.13959884643555
53.457698822021484
52.96080017089844
53.28969955444336
53.17359924316406
53.28219985961914
58.52859878540039
58.45800018310547
58.345699310302734
57.51390075683594
52.80139923095703
53.344600677490234
53.137901306152344
58.136600494384766
57.96039962768555
57.79779815673828
57.70050048828125
58.20640182495117
58.89500045776367
58.637901306152344
53.51689910888672
53.328800201416016
53.8567008972168
56.1614990234375
54.06050109863281
53.67100143432617
53.55550003051758
53.688499450683594
54.447898864746094
54.3671989440918
54.2135009765625
54.04059982299805
53.11009979248047
52.9630012512207
52.98429870605469
53.89699935913086
56.33259963989258
56.206600189208984
56.070899963378906
54.772701263427734
55.42959976196289
55.42720031738281
55.232398986816406
56.45439910888672
55.097900390625
55.04249954223633
54.918800354003906
55.60100173950195
55.95830154418945
55.88930130004883
55.775001525878906
55.285400390625
54.65129852294922
54.58060073852539
54.41299819946289
56.63180160522461
57.27539825439453
57.499698638916016
52.56060028076172
52.58549880981445
53.13779830932617
57.224098205566406
56.16019821166992
56.94940185546875
57.00279998779297
56.368900299072266
53.8474006652832
56.04909896850586
56.16130065917969
52.89149856567383
53.29899978637695
53.917999267578125
52.74879837036133
53.68840026855469
53.0796012878418
53.40890121459961
53.59629821777344
55.166900634765625
55.15700149536133
55.722801208496094
55.78879928588867
55.56549835205078
56.30979919433594
55.280399322509766
55.47209930419922
56.649600982666016
57.127899169921875
56.40629959106445
56.53020095825195
57.52870178222656
56.83359909057617
57.26789855957031
57.434200286865234
54.979400634765625
SCALARS latitude float 1
LOOKUP_TABLE default
11.81879997253418
11.68589973449707
11.7608003616333
11.790599822998047
11.548700332641602
11.652999877929688
11.824799537658691
11.59630012512207
11.733499526977539
11.698599815368652
11.58810043334961
11.680700302124023
11.831000328063965
11.614500045776367
11.751500129699707
11.659099578857422
11.748299598693848
11.545000076293945
11.52299976348877
11.519599914550781
11.814499855041504
11.81350040435791
11.773300170898438
11.548800468444824
11.680399894714355
11.540900230407715
11.677200317382812
11.736700057983398
11.641300201416016
11.514300346374512
11.646300315856934
11.606200218200684
11.737099647521973
11.516799926757812
11.474200248718262
11.767399787902832
11.64799976348877
11.521699905395508
11.631199836730957
11.606399536132812
11.518899917602539
11.504300117492676
11.73859977722168
11.472999572753906
11.695199966430664
11.687800407409668
11.479100227355957
11.61460018157959
11.42710018157959
11.439399719238281
11.555000305175781
11.685199737548828
11.42490005493164
11.425299644470215
11.210000038146973
11.396300315856934
11.40429973602295
11.1806001663208
11.258999824523926
11.423700332641602
11.42609977722168
11.20199966430664
11.286199569702148
11.343799591064453
11.208200454711914
11.151399612426758
11.289199829101562
11.198399543762207
11.336099624633789
11.130499839782715
11.270099639892578
11.384099960327148
11.38860034942627
11.137900352478027
11.246999740600586
11.264300346374512
11.348400115966797
11.003800392150879
11.134300231933594
11.218500137329102
11.254799842834473
11.370100021362305
11.37279987335205
11.1225004196167
11.237700462341309
11.246199607849121
11.135299682617188
11.109199523925781
11.377599716186523
11.13290023803711
11.252900123596191
11.003899574279785
11.003100395202637
11.124799728393555
11.25570011138916
9.202690124511719
9.327179908752441
9.213310241699219
9.337590217590332
9.34414005279541
9.216449737548828
9.333959579467773
9.206060409545898
9.194210052490234
9.3185396194458
9.324170112609863
9.197139739990234
9.316240310668945
9.189539909362793
9.385129928588867
9.302969932556152
9.254960060119629
9.384989738464355
9.170330047607422
9.167519569396973
9.255120277404785
9.039440155029297
9.124460220336914
9.385950088500977
9.18416976928711
9.310890197753906
9.176429748535156
9.302399635314941
9.308950424194336
9.179770469665527
9.11670970916748
9.243579864501953
9.117460250854492
9.371410369873047
9.299980163574219
9.170809745788574
9.087030410766602
9.218990325927734
9.300950050354004
9.301739692687988
9.040450096130371
9.172599792480469
9.039660453796387
9.087459564208984
10.69379997253418
10.882100105285645
10.622900009155273
10.752699851989746
10.949700355529785
10.820300102233887
10.751700401306152
10.862199783325195
10.622099876403809
10.621600151062012
10.910799980163574
10.691499710083008
10.786399841308594
10.926400184631348
10.88759994506836
10.757699966430664
10.786999702453613
10.923700332641602
10.873100280761719
10.739500045776367
10.88230037689209
10.862500190734863
10.656499862670898
10.7923002243042
10.777000427246094
10.652600288391113
10.653300285339355
10.659500122070312
10.729100227355957
12.66569995880127
8.576239585876465
8.449990272521973
8.397390365600586
8.453350067138672
8.583319664001465
8.577159881591797
8.321599960327148
8.996500015258789
8.996689796447754
8.77947998046875
8.86637020111084
8.867799758911133
8.784830093383789
8.737460136413574
8.9970703125
8.435440063476562
8.559849739074707
8.615039825439453
8.35986042022705
8.430089950561523
8.55265998840332
8.606809616088867
8.389909744262695
8.518449783325195
8.618559837341309
8.658309936523438
8.49252986907959
8.573920249938965
8.357170104980469
8.353139877319336
8.562250137329102
8.612319946289062
8.325530052185059
8.369339942932129
8.36398983001709
8.322649955749512
8.321410179138184
8.446700096130371
8.660340309143066
8.397239685058594
8.519129753112793
8.411250114440918
8.556389808654785
8.552570343017578
8.413350105285645
8.537639617919922
8.430359840393066
8.558500289916992
8.433480262756348
8.432499885559082
8.654379844665527
8.406000137329102
8.525070190429688
8.555489540100098
8.520210266113281
8.531180381774902
8.404529571533203
8.411089897155762
8.521860122680664
8.32079029083252
8.448360443115234
8.391770362854004
8.517230033874512
8.391510009765625
8.520970344543457
8.393309593200684
8.320969581604004
8.515290260314941
8.389360427856445
13.425600051879883
13.307900428771973
13.169300079345703
13.215999603271484
13.356100082397461
13.287199974060059
14.254400253295898
14.250200271606445
10.353300094604492
10.479900360107422
10.543899536132812
10.348899841308594
10.475700378417969
10.474900245666504
10.347100257873535
10.288399696350098
10.416799545288086
10.554400444030762
10.287500381469727
10.477800369262695
10.349900245666504
10.343500137329102
10.41349983215332
10.547800064086914
10.50730037689209
10.409199714660645
10.24429988861084
10.376199722290039
10.473899841308594
10.426199913024902
10.496399879455566
10.502400398254395
10.371299743652344
10.37660026550293
10.28439998626709
10.2746000289917
10.290499687194824
10.31350040435791
10.574199676513672
10.443400382995605
10.245200157165527
10.24370002746582
9.816320419311523
9.567520141601562
9.619420051574707
9.752099990844727
9.617469787597656
9.562700271606445
9.682279586791992
9.701860427856445
9.48567008972168
9.750410079956055
9.698040008544922
9.718859672546387
9.718390464782715
9.460929870605469
9.589340209960938
9.56935977935791
9.846850395202637
7.877449989318848
9.731769561767578
9.768409729003906
9.515740394592285
9.60634994506836
9.801750183105469
9.594340324401855
9.720190048217773
9.655940055847168
9.546879768371582
9.804340362548828
9.799169540405273
9.550620079040527
9.679929733276367
9.730730056762695
9.461359977722168
9.682029724121094
9.79030990600586
9.463709831237793
9.52925968170166
9.512649536132812
9.766759872436523
9.787420272827148
9.658430099487305
9.556819915771484
9.654899597167969
9.564689636230469
9.700590133666992
9.695320129394531
9.432069778442383
9.786999702453613
9.785229682922363
9.529529571533203
9.659339904785156
9.600729942321777
9.686479568481445
9.525409698486328
9.470979690551758
9.568690299987793
9.52750015258789
9.471150398254395
9.697699546813965
9.559100151062012
9.601129531860352
9.783349990844727
9.654069900512695
9.4341402053833
9.548250198364258
9.433320045471191
12.39210033416748
12.490900039672852
12.252699851989746
12.25790023803711
8.141510009765625
8.032449722290039
7.90693998336792
8.159879684448242
7.907859802246094
8.028409957885742
8.177260398864746
8.146400451660156
8.175080299377441
8.034079551696777
8.045849800109863
8.049139976501465
8.166760444641113
8.124910354614258
8.011659622192383
8.138330459594727
8.139030456542969
8.011460304260254
8.159259796142578
8.251449584960938
13.95259952545166
14.22760009765625
13.977999687194824
14.135499954223633
14.223400115966797
13.944499969482422
13.909000396728516
14.081999778747559
14.180299758911133
14.04539966583252
13.970999717712402
14.110400199890137
14.09119987487793
13.964799880981445
13.94849967956543
14.205100059509277
14.175100326538086
13.907600402832031
13.96780014038086
13.871399879455566
14.22070026397705
14.099800109863281
14.1943998336792
14.05780029296875
14.101799964904785
14.072500228881836
13.982500076293945
13.97350025177002
14.050200462341309
14.123800277709961
13.933600425720215
13.91349983215332
13.870400428771973
14.131999969482422
13.93970012664795
14.000499725341797
8.139249801635742
8.013389587402344
7.999370098114014
8.142390251159668
8.01891040802002
8.014710426330566
8.12559986114502
8.251219749450684
7.875959873199463
7.8757500648498535
12.095499992370605
11.958999633789062
11.951199531555176
12.082500457763672
12.937899589538574
13.721699714660645
13.824299812316895
13.819100379943848
13.67770004272461
13.582500457763672
13.613499641418457
13.592100143432617
13.733499526977539
13.853099822998047
13.847200393676758
13.684000015258789
13.541299819946289
8.9350004196167
8.810609817504883
8.829039573669434
8.965970039367676
8.941399574279785
8.956629753112793
8.82013988494873
8.81721019744873
8.812859535217285
8.947210311889648
8.949729919433594
8.960189819335938
8.82544994354248
8.838760375976562
8.836050033569336
8.798629760742188
8.923009872436523
8.882220268249512
8.800780296325684
9.01117992401123
9.00784969329834
8.759980201721191
8.886210441589355
8.932760238647461
8.939040184020996
8.775360107421875
8.906929969787598
8.671950340270996
8.799189567565918
9.010259628295898
8.931159973144531
8.681559562683105
8.81089973449707
8.909090042114258
8.9068603515625
8.682450294494629
8.812009811401367
8.906100273132324
8.682290077209473
8.933899879455566
8.80813980102539
8.935990333557129
8.759039878845215
8.6835298538208
8.813859939575195
8.941390037536621
8.676639556884766
8.646499633789062
8.777799606323242
8.644330024719238
13.4552001953125
13.452199935913086
13.475700378417969
13.23490047454834
13.315099716186523
13.350700378417969
13.22189998626709
13.463199615478516
13.180500030517578
13.307000160217285
13.42549991607666
13.29800033569336
13.333399772644043
13.163100242614746
13.148200035095215
13.336700439453125
13.317899703979492
13.310199737548828
13.272299766540527
13.214900016784668
13.316300392150879
13.041099548339844
13.074899673461914
13.128700256347656
13.134099960327148
13.334600448608398
13.04319953918457
13.101799964904785
13.242500305175781
13.075499534606934
13.049200057983398
13.3193998336792
13.042400360107422
13.212300300598145
13.136300086975098
13.28950023651123
13.348799705505371
13.16409969329834
13.304800033569336
13.289600372314453
13.156100273132324
13.307600021362305
13.171899795532227
13.396900177001953
13.038299560546875
13.392499923706055
13.346799850463867
13.139100074768066
13.253700256347656
13.136099815368652
13.266400337219238
13.07390022277832
12.998299598693848
12.996800422668457
13.151300430297852
13.261099815368652
13.027600288391113
13.030099868774414
13.20930004119873
13.121700286865234
13.266500473022461
13.07289981842041
13.047200202941895
11.21780014038086
11.0871000289917
11.348600387573242
11.256500244140625
11.147700309753418
11.281900405883789
11.045999526977539
11.174400329589844
11.040499687194824
11.253000259399414
11.115799903869629
11.087900161743164
11.311699867248535
11.12279987335205
11.253999710083008
11.294599533081055
11.18239974975586
11.174099922180176
11.300800323486328
9.35099983215332
9.427330017089844
9.425209999084473
9.301969528198242
9.219289779663086
9.298290252685547
9.170740127563477
9.245719909667969
9.118610382080078
9.167730331420898
9.371729850769043
9.314909934997559
9.087929725646973
10.549599647521973
10.547900199890137
10.588500022888184
10.652700424194336
10.515700340270996
10.652999877929688
10.450499534606934
10.379500389099121
10.412599563598633
10.276200294494629
10.517000198364258
10.450300216674805
10.383999824523926
10.37909984588623
10.246199607849121
10.312600135803223
10.345199584960938
10.474900245666504
10.416999816894531
10.545299530029297
10.574199676513672
10.443900108337402
10.543600082397461
10.574399948120117
10.345999717712402
10.346099853515625
10.344499588012695
10.475299835205078
11.038299560546875
11.063699722290039
11.065400123596191
11.027099609375
10.792699813842773
10.929900169372559
10.957500457763672
10.826399803161621
10.89840030670166
10.788999557495117
10.900899887084961
11.03600025177002
10.892999649047852
10.763199806213379
10.786100387573242
10.91819953918457
10.691399574279785
10.689000129699707
10.821999549865723
10.73169994354248
10.927300453186035
10.996399879455566
10.863200187683105
10.928199768066406
10.863300323486328
10.668399810791016
10.863900184631348
10.733599662780762
10.949999809265137
10.735600471496582
10.799799919128418
10.993800163269043
10.860300064086914
10.798100471496582
10.668999671936035
10.668700218200684
10.929100036621094
12.635100364685059
12.486100196838379
12.397500038146973
12.619000434875488
12.498000144958496
12.371600151062012
12.389200210571289
12.505800247192383
12.508700370788574
12.375699996948242
12.56190013885498
12.278400421142578
12.571100234985352
12.523799896240234
12.389200210571289
12.38379955291748
12.250800132751465
12.58080005645752
12.51990032196045
12.374199867248535
12.496999740600586
12.49779987335205
12.36620044708252
12.575499534606934
12.547499656677246
12.369099617004395
12.44260025024414
12.316200256347656
12.504899978637695
12.578499794006348
12.50510025024414
12.372099876403809
12.371600151062012
12.237199783325195
12.337200164794922
12.333100318908691
12.477800369262695
12.471400260925293
12.341699600219727
12.473999977111816
12.451600074768066
12.58430004119873
12.544699668884277
12.277000427246094
12.238100051879883
12.409600257873535
12.595999717712402
12.236700057983398
12.312399864196777
12.558300018310547
12.424599647521973
12.3016996383667
12.307100296020508
12.591500282287598
13.869500160217285
12.810199737548828
12.886699676513672
13.023200035095215
13.035900115966797
12.893899917602539
12.758600234985352
12.887499809265137
12.756400108337402
12.880900382995605
12.75100040435791
12.667699813842773
12.803099632263184
12.768799781799316
12.903499603271484
12.968000411987305
12.887100219726562
12.777700424194336
12.918899536132812
12.764699935913086
12.800999641418457
12.89579963684082
12.725700378417969
12.850899696350098
12.762499809265137
12.886199951171875
12.888699531555176
12.754199981689453
12.725600242614746
12.85789966583252
12.741800308227539
12.873600006103516
12.98859977722168
12.991299629211426
12.866600036621094
12.730400085449219
12.723299980163574
12.854999542236328
12.65939998626709
12.796199798583984
12.720399856567383
12.659600257873535
12.796699523925781
12.857799530029297
12.87279987335205
12.620100021362305
12.755200386047363
12.624799728393555
12.933300018310547
12.622699737548828
12.719099998474121
12.856900215148926
12.884400367736816
12.746500015258789
12.855600357055664
9.971110343933105
10.06879997253418
10.204400062561035
10.204700469970703
10.148699760437012
9.874990463256836
9.933420181274414
10.068400382995605
10.059800148010254
10.189499855041504
10.189399719238281
10.111200332641602
10.010700225830078
10.103099822998047
10.105400085449219
9.968489646911621
10.011799812316895
9.873530387878418
10.059300422668457
9.956399917602539
9.981849670410156
9.957659721374512
9.93008041381836
10.189000129699707
11.817899703979492
11.685199737548828
11.55519962310791
11.56659984588623
11.689000129699707
11.435400009155273
11.441800117492676
11.563799858093262
11.681900024414062
11.548999786376953
12.027999877929688
12.075300216674805
12.211099624633789
12.104499816894531
12.238900184631348
12.243599891662598
12.003700256347656
12.247200012207031
12.1181001663208
11.995499610900879
11.970399856567383
12.159500122070312
12.058199882507324
12.188199996948242
12.196399688720703
11.941100120544434
11.947699546813965
12.080599784851074
12.133600234985352
11.931699752807617
12.052200317382812
12.186599731445312
12.190699577331543
11.937100410461426
12.069000244140625
12.15310001373291
11.980199813842773
11.934300422668457
12.048100471496582
11.798500061035156
11.933199882507324
12.068499565124512
11.800000190734863
11.93340015411377
12.046500205993652
11.995599746704102
11.925299644470215
12.19260025024414
12.06149959564209
11.946599960327148
11.912599563598633
12.029000282287598
12.16349983215332
12.164400100708008
12.16819953918457
12.035099983215332
11.925700187683105
11.800100326538086
11.897100448608398
11.868399620056152
12.137900352478027
11.858699798583984
12.143199920654297
11.86139965057373
11.945199966430664
12.080499649047852
13.829000473022461
13.683300018310547
13.6225004196167
13.469799995422363
13.791999816894531
13.778800010681152
13.733499526977539
13.607199668884277
13.704999923706055
13.57759952545166
13.468700408935547
13.760000228881836
13.56029987335205
13.55049991607666
13.775199890136719
13.505499839782715
13.471199989318848
13.798399925231934
13.745200157165527
13.703800201416016
13.568300247192383
13.473899841308594
13.684399604797363
13.549599647521973
13.538900375366211
13.607600212097168
13.597999572753906
13.513299942016602
13.785599708557129
13.746399879455566
13.713899612426758
13.66100025177002
13.518400192260742
13.67240047454834
13.644800186157227
13.779199600219727
13.50510025024414
13.578300476074219
13.77239990234375
13.637499809265137
13.538399696350098
13.55150032043457
13.789600372314453
13.64900016784668
13.555999755859375
13.774299621582031
13.548199653625488
13.413599967956543
13.413399696350098
13.919599533081055
13.934100151062012
13.939299583435059
9.974379539489746
10.099300384521484
10.094499588012695
10.173100471496582
9.894370079040527
10.031700134277344
10.166899681091309
10.158300399780273
10.088500022888184
10.025300025939941
10.156800270080566
9.97095012664795
10.093500137329102
9.959199905395508
10.098099708557129
10.089300155639648
9.968330383300781
9.964670181274414
9.961700439453125
10.110300064086914
9.850939750671387
10.079700469970703
9.948780059814453
10.081000328063965
9.894619941711426
9.979649543762207
9.95205020904541
9.95343017578125
9.902400016784668
10.027099609375
10.083200454711914
10.104900360107422
9.95641040802002
10.03950023651123
9.968460083007812
9.852279663085938
