# vtk DataFile Version 3.0
SHAPE_sfm_50k_v20200323
ASCII
DATASET POLYDATA
POINTS 408 float
0.14523089 0.1835602 0.08468935
0.14523089 0.18449914 0.08386156
0.14391279 0.18449914 0.08468935
0.1461569 0.18281913 0.08468935
0.1469109 0.18281913 0.084101826
0.14355087 0.18504655 0.08468935
0.14355087 0.1861791 0.08390817
0.16035092 0.1665163 0.08972934
0.16010165 0.1676991 0.08804932
0.15946335 0.1676991 0.08972934
0.16035092 0.16740453 0.08804932
0.1586709 0.16850042 0.08972934
0.15853763 0.16937912 0.08804932
0.15741211 0.16937912 0.08972934
0.1586709 0.16925532 0.08804932
0.14355087 0.16759837 0.09980932
0.14355087 0.1676991 0.09972498
0.14336276 0.1676991 0.09980932
0.14187092 0.16863596 0.09980932
0.14187092 0.16937912 0.09925535
0.1409514 0.16937912 0.09980932
0.14355087 0.16937912 0.09832129
0.1469109 0.16569251 0.09980932
0.1469109 0.16601914 0.09957597
0.14634931 0.16601914 0.09980932
0.14859092 0.16601914 0.09903559
0.14859092 0.16506362 0.09980932
0.15027088 0.16601914 0.09838113
0.15027088 0.16445917 0.09980932
0.14523089 0.16667837 0.09980932
0.14523089 0.1676991 0.09898254
0.1469109 0.1676991 0.09825018
0.14390343 0.16937912 0.09812936
0.14523089 0.16862774 0.09812936
0.1469109 0.16782302 0.09812936
0.14714563 0.1676991 0.09812936
0.14859092 0.16692883 0.09812936
0.15027088 0.16622037 0.09812936
0.15363091 0.16232389 0.09980932
0.15363091 0.16265911 0.09943512
0.15309584 0.16265911 0.09980932
0.15531087 0.16135454 0.09980932
0.15531087 0.16265911 0.09848812
0.1561678 0.16265911 0.09812936
0.1558913 0.16097909 0.09980932
0.1519509 0.16348982 0.09980932
0.1519509 0.16433913 0.09911081
0.15048999 0.16433913 0.09980932
0.15363091 0.16433913 0.09826848
0.15068585 0.16601914 0.09812936
0.1519509 0.16536582 0.09812936
0.15363091 0.16450417 0.09812936
0.15385014 0.16433913 0.09812936
0.15531087 0.16310167 0.09812936
0.14187092 0.18358922 0.086369365
0.1401909 0.18449914 0.08620086
0.1401909 0.1842959 0.086369365
0.14355087 0.18449914 0.084905714
0.14187092 0.18449914 0.08567235
0.14344525 0.18281913 0.086369365
0.14355087 0.18281913 0.08632317
0.14187092 0.18595201 0.08468935
0.14523089 0.18281913 0.085350364
0.13683087 0.1794591 0.09337923
0.13752908 0.1794591 0.09308931
0.13683087 0.17980981 0.09308931
0.1519509 0.16937912 0.09374103
0.1519509 0.17006588 0.09308931
0.15027088 0.17031664 0.09308931
0.15027088 0.16937912 0.09420434
0.15363091 0.16937912 0.093388885
0.15363091 0.16979098 0.09308931
0.15426016 0.16937912 0.09308931
0.14187092 0.17604977 0.09308931
0.14355087 0.17513216 0.09308931
0.14355087 0.17609912 0.092086226
0.1469109 0.17251879 0.09308931
0.1469109 0.17273915 0.09294483
0.14672512 0.17273915 0.09308931
0.14187092 0.17609912 0.09303978
0.14178604 0.17609912 0.09308931
0.14859092 0.1710791 0.09308931
0.14859092 0.17273915 0.09182879
0.15027088 0.17105913 0.09230712
0.1486221 0.17105913 0.09308931
0.14523089 0.1743415 0.09308931
0.14523089 0.1744191 0.093028456
0.1450969 0.1744191 0.09308931
0.14941841 0.17273915 0.091409355
0.15027088 0.17217302 0.091409355
0.1469109 0.1744191 0.09230092
0.14523089 0.1760484 0.091409355
0.14508682 0.17609912 0.091409355
0.14859092 0.17367291 0.091409355
0.1469109 0.17562485 0.091409355
0.14810681 0.1744191 0.091409355
0.1401909 0.1772182 0.09308931
0.1401909 0.17777914 0.092605025
0.13957864 0.17777914 0.09308931
0.13851088 0.17886251 0.09308931
0.13851088 0.1794591 0.09260884
0.13990927 0.1794591 0.091409355
0.1401909 0.17918527 0.091409355
0.14187092 0.17777914 0.091451615
0.14194185 0.17777914 0.091409355
0.14355087 0.17679095 0.091409355
0.14187092 0.17782617 0.091409355
0.15027088 0.16234148 0.101489335
0.15027088 0.16265911 0.101329535
0.14900184 0.16265911 0.101489335
0.14355087 0.16536903 0.101489335
0.14355087 0.16601914 0.10106197
0.14251184 0.16601914 0.101489335
0.14187092 0.1676991 0.10048202
0.1401909 0.16937912 0.10028967
0.1469109 0.16315919 0.101489335
0.14523089 0.16433913 0.101409286
0.14523089 0.16421527 0.101489335
0.1450479 0.16433913 0.101489335
0.14523089 0.16601914 0.10031322
0.1469109 0.16433913 0.1007376
0.14859092 0.16433913 0.10037801
0.15027088 0.16433913 0.09991148
0.14859092 0.162718 0.101489335
0.15363091 0.16115385 0.101489335
0.1519509 0.16265911 0.10055789
0.1519509 0.16147071 0.101489335
0.15387326 0.16097909 0.101489335
0.15531087 0.16097909 0.10020617
0.13851088 0.17164314 0.09980932
0.13851088 0.17273915 0.099006385
0.13767159 0.17273915 0.09980932
0.1401909 0.16996884 0.09980932
0.1401909 0.17105913 0.098920554
0.13897228 0.17105913 0.09980932
0.1401909 0.17197907 0.09812936
0.13934308 0.17273915 0.09812936
0.14187092 0.17083067 0.09812936
0.14155543 0.17105913 0.09812936
0.13683087 0.1737675 0.09980932
0.13683087 0.1744191 0.09941068
0.14355087 0.16960937 0.09812936
0.13851088 0.1741659 0.09812936
0.13836843 0.1744191 0.09812936
0.13683087 0.17595482 0.09812936
0.16035092 0.1676991 0.08756295
0.1586709 0.16937912 0.087857515
0.15972888 0.16937912 0.086369365
0.16035092 0.1686008 0.086369365
0.16109133 0.1676991 0.086369365
0.1334709 0.1744191 0.100319654
0.1334709 0.17498124 0.09980932
0.13179088 0.17560911 0.09980932
0.13515091 0.17273915 0.10103759
0.13515091 0.1744191 0.099876136
0.13515091 0.17450982 0.09980932
0.1354726 0.1744191 0.09980932
0.13683087 0.17273915 0.100354105
0.16203088 0.16822368 0.08468935
0.16203088 0.16937912 0.0837622
0.16119587 0.16937912 0.08468935
0.15699089 0.16862893 0.091409355
0.15699089 0.16937912 0.09021422
0.15607506 0.16937912 0.091409355
0.16035092 0.1655798 0.091409355
0.16035092 0.16601914 0.09057084
0.15993196 0.16601914 0.091409355
0.1586709 0.1676991 0.09098032
0.1586709 0.16735607 0.091409355
0.15827543 0.1676991 0.091409355
0.16074765 0.16601914 0.08972934
0.13851088 0.18063289 0.091409355
0.1519509 0.17105913 0.0919458
0.13767064 0.18113911 0.091409355
0.13683087 0.18113911 0.09188345
0.1519509 0.171489 0.091409355
0.15363091 0.17105913 0.09145692
0.15368444 0.17105913 0.091409355
0.15363091 0.17108113 0.091409355
0.15531087 0.17004812 0.091409355
0.15531087 0.16937912 0.09226522
0.15027088 0.16893327 0.09476933
0.14915055 0.16937912 0.09476933
0.15363091 0.16762084 0.09476933
0.15363091 0.1676991 0.0946953
0.15346003 0.1676991 0.09476933
0.15699089 0.16588032 0.09476933
0.15699089 0.16601914 0.09460959
0.1566189 0.16601914 0.09476933
0.1519509 0.16834617 0.09476933
0.15531087 0.16662109 0.09476933
0.15531087 0.1676991 0.09381935
0.15699089 0.1673482 0.09308931
0.15647596 0.1676991 0.09308931
0.15531087 0.16857433 0.09308931
0.1586709 0.16523594 0.09476933
0.1586709 0.16601914 0.09371963
0.13515091 0.17764115 0.096449345
0.13683087 0.17689157 0.096449345
0.13683087 0.17777914 0.09490177
0.13515091 0.17777914 0.09624025
0.134731 0.17777914 0.096449345
0.13515091 0.17888546 0.09476933
0.13683087 0.17787963 0.09476933
0.15907025 0.16601914 0.09308931
0.1586709 0.16632938 0.09308931
0.1401909 0.17273915 0.097436756
0.14187092 0.17105913 0.09795275
0.14355087 0.17105913 0.09694478
0.14355087 0.17167783 0.096449345
0.14195079 0.17273915 0.096449345
0.14187092 0.17273915 0.09649286
0.13851088 0.1744191 0.09793642
0.13683087 0.17609912 0.09794226
0.13788801 0.17609912 0.096449345
0.1401909 0.1737976 0.096449345
0.13952583 0.1744191 0.096449345
0.14523089 0.16937912 0.09739354
0.14431089 0.17105913 0.096449345
0.14187092 0.17278457 0.096449345
0.13851088 0.17548162 0.096449345
0.14523089 0.17037278 0.096449345
0.14675695 0.16937912 0.096449345
0.14523089 0.18159586 0.086369365
0.14355087 0.18276519 0.086369365
0.15027088 0.1794591 0.08469555
0.14859092 0.1794591 0.08591041
0.15027088 0.17780536 0.086369365
0.1469109 0.18030757 0.086369365
0.1469109 0.18113911 0.085593075
0.14580756 0.18113911 0.086369365
0.14859092 0.17901284 0.086369365
0.14799863 0.1794591 0.086369365
0.14817894 0.18113911 0.08468935
0.14859092 0.1808092 0.08468935
0.1469109 0.18216234 0.08468935
0.15531087 0.17315894 0.086369365
0.15563875 0.1744191 0.08468935
0.15531087 0.1744191 0.084972054
0.15699089 0.17345321 0.08468935
0.15363091 0.17461956 0.086369365
0.15363091 0.17609912 0.08497229
0.15222377 0.17609912 0.086369365
0.15384126 0.1744191 0.086369365
0.15699089 0.17194283 0.086369365
0.15699089 0.17273915 0.08549979
0.15587991 0.17273915 0.086369365
0.15027088 0.17946655 0.08468935
0.15531087 0.17469436 0.08468935
0.1586709 0.17059332 0.086369365
0.1586709 0.17105913 0.08591506
0.15815198 0.17105913 0.086369365
0.15393132 0.17609912 0.08468935
0.15803438 0.17273915 0.08468935
0.1586709 0.1722588 0.08468935
0.16035092 0.17057323 0.08468935
0.15995765 0.17105913 0.08468935
0.16035092 0.16937912 0.08564302
0.15363091 0.17644787 0.08468935
0.15232825 0.17777914 0.08468935
0.1519509 0.1763832 0.086369365
0.1519509 0.17777914 0.08500221
0.15030658 0.17777914 0.086369365
0.15028054 0.1794591 0.08468935
0.1519509 0.17813063 0.08468935
0.15699089 0.1676991 0.09266332
0.13683087 0.17105913 0.10122624
0.13851088 0.17105913 0.100168556
0.15027088 0.16097909 0.10206786
0.1469109 0.16265911 0.1018047
0.14859092 0.16265911 0.101525456
0.1519509 0.16097909 0.10186371
0.15363091 0.16097909 0.10171357
0.1519509 0.15929914 0.10262886
0.15363091 0.15929914 0.10236183
0.14190567 0.1744191 0.09476933
0.14355087 0.1744191 0.09384927
0.14187092 0.17443746 0.09476933
0.1401909 0.17541516 0.09476933
0.1401909 0.17609912 0.09407416
0.14355087 0.173576 0.09476933
0.1391831 0.17609912 0.09476933
0.14859092 0.17105913 0.09310874
0.1469109 0.17105913 0.09436068
0.1469109 0.17069477 0.09476933
0.14523089 0.17223352 0.09476933
0.14645737 0.17105913 0.09476933
0.14523089 0.17273915 0.09433183
0.14468795 0.17273915 0.09476933
0.14859092 0.16964 0.09476933
0.13851088 0.17666477 0.09476933
0.13851088 0.17777914 0.09387645
0.13699234 0.17777914 0.09476933
0.14355087 0.18113911 0.087658554
0.1469109 0.17835069 0.08804932
0.1469109 0.1794591 0.08712134
0.14525717 0.1794591 0.08804932
0.14859092 0.17717397 0.08804932
0.14859092 0.17777914 0.08753994
0.1477341 0.17777914 0.08804932
0.15027088 0.17777914 0.08639774
0.15027088 0.17609912 0.08803901
0.15025318 0.17609912 0.08804932
0.15027088 0.17608798 0.08804932
0.1401909 0.18247652 0.08804932
0.1401909 0.18281913 0.087695986
0.13953406 0.18281913 0.08804932
0.14355087 0.18062705 0.08804932
0.14268655 0.18113911 0.08804932
0.14187092 0.18157423 0.08804932
0.14187092 0.18281913 0.08697441
0.14523089 0.1794774 0.08804932
0.14523089 0.18113911 0.08674225
0.15699089 0.17062938 0.08804932
0.15699089 0.17105913 0.08744493
0.15630686 0.17105913 0.08804932
0.15531087 0.17172289 0.08804932
0.15531087 0.17273915 0.08683404
0.15403783 0.17273915 0.08804932
0.15224695 0.1744191 0.08804932
0.1519509 0.17609912 0.08666012
0.15363091 0.1744191 0.0865843
0.15363091 0.17310661 0.08804932
0.1519509 0.17470908 0.08804932
0.14859092 0.18113911 0.08441338
0.1586709 0.17273915 0.08421132
0.16035092 0.17105913 0.084316164
0.15363091 0.17777914 0.0836198
0.1519509 0.1794591 0.08360401
0.1469109 0.16929191 0.096449345
0.14859092 0.1676991 0.097255796
0.14988446 0.1676991 0.096449345
0.15027088 0.1675021 0.096449345
0.14859092 0.1683594 0.096449345
0.14355087 0.17273915 0.09558663
0.13851088 0.17609912 0.095483154
0.1401909 0.1744191 0.0958319
0.14187092 0.1744191 0.09478876
0.14523089 0.17105913 0.095799536
0.1469109 0.16937912 0.09634009
0.14859092 0.16937912 0.095106155
0.13645959 0.17609912 0.09812936
0.13515091 0.17641163 0.09812936
0.1334709 0.17670351 0.09812936
0.1334709 0.17777914 0.09692702
0.13515091 0.1794591 0.09421113
0.15531087 0.16601914 0.095413834
0.15363091 0.16601914 0.09642419
0.15363091 0.1659962 0.096449345
0.15357965 0.16601914 0.096449345
0.1519509 0.1676991 0.09543428
0.15027088 0.1676991 0.096232265
0.1519509 0.1667372 0.096449345
0.15699089 0.16439635 0.096449345
0.15531087 0.16512257 0.096449345
0.1586709 0.16433913 0.09557387
0.15711242 0.16433913 0.096449345
0.1334709 0.17609912 0.09874627
0.13179088 0.17609912 0.09931126
0.13515091 0.17609912 0.09847042
0.16203088 0.16674262 0.086369365
0.16203088 0.1676991 0.08517286
0.16242594 0.1676991 0.08468935
0.15027088 0.17437208 0.08972934
0.15027088 0.1744191 0.08968732
0.15021634 0.1744191 0.08972934
0.14859092 0.1756056 0.08972934
0.14859092 0.17609912 0.08912423
0.1477828 0.17609912 0.08972934
0.14187092 0.17970681 0.08972934
0.1401909 0.18113911 0.08949819
0.1401909 0.18090636 0.08972934
0.14187092 0.18113911 0.0884392
0.14225465 0.1794591 0.08972934
0.13851088 0.18206614 0.08972934
0.13851088 0.18281913 0.088716894
0.13989794 0.18113911 0.08972934
0.14355087 0.1786328 0.08972934
0.14355087 0.1794591 0.088991016
0.14523089 0.17777914 0.08954671
0.1469109 0.17777914 0.088549644
0.14523089 0.1794591 0.088063866
0.1469109 0.1766221 0.08972934
0.14491558 0.17777914 0.08972934
0.14523089 0.17759293 0.08972934
0.15363091 0.17180061 0.08972934
0.15363091 0.17273915 0.088483244
0.15531087 0.17105913 0.089071184
0.15475261 0.17105913 0.08972934
0.15531087 0.17072612 0.08972934
0.15699089 0.16965544 0.08972934
0.15240538 0.17273915 0.08972934
0.1519509 0.1744191 0.088333756
0.1519509 0.17309731 0.08972934
0.15027088 0.17273915 0.09100345
0.14859092 0.1744191 0.09101418
0.1469109 0.17609912 0.09068313
0.14523089 0.17609912 0.091353685
0.13851088 0.18113911 0.09087077
0.14355087 0.17777914 0.090500206
0.14187092 0.1794591 0.08995643
0.1401909 0.1794591 0.09116277
0.1519509 0.17273915 0.09009799
0.15699089 0.16225755 0.09812936
0.15699089 0.16265911 0.09781954
0.15531087 0.16433913 0.097194284
0.15699089 0.16433913 0.09650448
0.1519509 0.16601914 0.097314626
POLYGONS 730 2920
3 0 1 2
3 0 3 1
3 3 4 1
3 5 1 6
3 5 2 1
3 7 8 9
3 10 8 7
3 11 12 13
3 14 12 11
3 8 14 11
3 11 9 8
3 15 16 17
3 18 19 20
3 18 21 19
3 18 17 21
3 17 16 21
3 22 23 24
3 25 23 22
3 22 26 25
3 27 25 26
3 26 28 27
3 29 16 15
3 30 16 29
3 29 24 30
3 24 31 30
3 24 23 31
3 32 30 33
3 32 16 30
3 32 21 16
3 33 30 31
3 31 34 33
3 35 23 36
3 23 25 36
3 35 31 23
3 36 25 27
3 27 37 36
3 31 35 34
3 38 39 40
3 41 39 38
3 42 39 41
3 41 43 42
3 41 44 43
3 45 46 47
3 45 40 46
3 40 39 46
3 39 48 46
3 28 47 27
3 47 49 27
3 47 46 49
3 46 50 49
3 50 46 48
3 48 51 50
3 52 39 53
3 39 42 53
3 52 48 39
3 42 43 53
3 48 52 51
3 27 49 37
3 54 55 56
3 54 57 58
3 58 55 54
3 59 60 57
3 54 59 57
3 61 58 57
3 57 5 61
3 2 60 62
3 2 62 0
3 62 3 0
3 2 57 60
3 57 2 5
3 63 64 65
3 66 67 68
3 68 69 66
3 70 71 67
3 67 66 70
3 70 72 71
3 73 74 75
3 76 77 78
3 73 79 80
3 75 79 73
3 76 81 82
3 81 83 82
3 68 83 84
3 82 77 76
3 81 84 83
3 85 86 87
3 83 88 82
3 83 89 88
3 78 77 90
3 74 87 75
3 85 90 86
3 85 78 90
3 86 91 92
3 91 86 90
3 87 86 75
3 86 92 75
3 90 82 93
3 90 77 82
3 90 94 91
3 95 90 93
3 96 97 98
3 99 100 64
3 82 88 93
3 90 95 94
3 97 101 100
3 97 102 101
3 99 98 100
3 98 97 100
3 80 79 103
3 104 103 105
3 96 103 97
3 96 80 103
3 102 97 103
3 103 106 102
3 103 79 105
3 79 75 105
3 103 104 106
3 107 108 109
3 110 111 112
3 111 17 113
3 112 111 113
3 113 20 114
3 111 15 17
3 115 116 117
3 117 116 118
3 113 17 18
3 113 18 20
3 118 116 119
3 110 118 119
3 110 119 111
3 120 116 115
3 121 120 115
3 119 116 120
3 24 119 120
3 24 120 22
3 108 122 121
3 109 108 121
3 123 109 121
3 115 123 121
3 122 28 26
3 26 121 122
3 121 26 22
3 22 120 121
3 119 24 29
3 119 29 15
3 15 111 119
3 124 40 125
3 126 124 125
3 107 126 125
3 125 108 107
3 124 38 40
3 127 128 38
3 124 127 38
3 128 44 41
3 128 41 38
3 108 125 45
3 47 108 45
3 122 47 28
3 125 40 45
3 47 122 108
3 129 130 131
3 132 133 134
3 129 134 133
3 133 135 136
3 133 136 130
3 129 133 130
3 19 137 138
3 19 138 133
3 20 19 133
3 132 20 133
3 139 130 140
3 133 138 135
3 21 141 137
3 137 19 21
3 130 136 142
3 139 131 130
3 142 143 140
3 130 142 140
3 21 32 141
3 140 143 144
3 8 145 146
3 145 147 146
3 145 148 147
3 10 145 8
3 14 146 12
3 14 8 146
3 145 149 148
3 150 151 152
3 153 154 150
3 154 155 151
3 154 156 155
3 156 153 139
3 153 157 139
3 156 154 153
3 151 150 154
3 158 159 160
3 161 162 163
3 164 165 166
3 165 7 9
3 165 9 167
3 11 13 162
3 161 11 162
3 168 167 169
3 166 165 167
3 168 166 167
3 161 169 167
3 161 167 11
3 165 170 7
3 167 9 11
3 100 101 171
3 172 83 68
3 75 92 105
3 64 173 174
3 65 64 174
3 100 171 173
3 64 100 173
3 175 172 176
3 172 175 89
3 71 177 176
3 176 178 175
3 176 172 67
3 68 67 172
3 89 83 172
3 67 71 176
3 176 177 178
3 71 72 179
3 71 179 177
3 180 163 179
3 72 180 179
3 181 69 182
3 183 184 185
3 186 187 188
3 66 69 189
3 189 69 181
3 190 188 191
3 191 184 190
3 188 192 193
3 188 193 191
3 189 185 70
3 189 70 66
3 190 184 183
3 185 184 70
3 191 193 194
3 186 195 196
3 196 187 186
3 72 191 194
3 188 187 192
3 72 70 184
3 72 184 191
3 197 198 199
3 199 200 197
3 197 200 201
3 201 200 202
3 199 203 202
3 202 200 199
3 192 187 196
3 196 204 205
3 196 205 192
3 135 206 136
3 137 207 138
3 207 208 209
3 210 211 207
3 207 211 206
3 210 207 209
3 135 138 206
3 138 207 206
3 208 207 137
3 137 141 208
3 143 212 213
3 212 214 213
3 206 215 216
3 144 143 213
3 142 136 216
3 136 206 216
3 142 212 143
3 142 216 212
3 32 217 208
3 217 218 208
3 211 210 219
3 141 32 208
3 215 206 211
3 211 219 215
3 212 220 214
3 212 216 220
3 208 218 209
3 213 214 198
3 217 221 218
3 217 222 221
3 223 60 224
3 62 60 223
3 225 226 227
3 228 229 230
3 231 226 232
3 227 226 231
3 224 60 59
3 232 226 233
3 226 234 233
3 228 232 229
3 232 233 229
3 229 3 62
3 229 235 3
3 223 230 62
3 230 229 62
3 236 237 238
3 236 239 237
3 240 241 242
3 236 238 243
3 229 233 235
3 244 245 246
3 234 226 225
3 225 247 234
3 238 237 248
3 249 250 251
3 243 238 252
3 238 248 252
3 240 252 241
3 240 243 252
3 236 246 239
3 246 245 239
3 251 250 253
3 250 254 253
3 244 253 245
3 244 251 253
3 255 256 250
3 249 147 257
3 249 257 250
3 257 255 250
3 242 258 259
3 242 241 258
3 260 259 261
3 260 242 259
3 245 253 239
3 260 261 262
3 250 256 254
3 257 160 255
3 225 263 247
3 261 259 264
3 241 252 258
3 227 262 264
3 262 261 264
3 227 263 225
3 227 264 263
3 192 265 193
3 194 180 72
3 194 193 161
3 193 265 161
3 194 161 180
3 161 163 180
3 266 267 129
3 267 134 129
3 131 157 129
3 157 266 129
3 134 114 132
3 114 20 132
3 157 131 139
3 109 268 107
3 115 269 270
3 270 123 115
3 269 115 117
3 270 109 123
3 271 126 107
3 126 271 272
3 272 271 273
3 107 268 271
3 273 274 272
3 127 272 274
3 272 127 124
3 272 124 126
3 275 276 73
3 277 275 73
3 278 277 73
3 73 80 279
3 278 73 279
3 280 276 275
3 278 279 281
3 282 283 284
3 285 286 283
3 285 283 76
3 76 78 287
3 285 76 287
3 285 287 288
3 284 283 286
3 276 74 73
3 282 84 81
3 282 81 76
3 76 283 282
3 182 69 68
3 182 68 84
3 289 182 84
3 289 84 282
3 284 289 282
3 290 281 291
3 290 291 292
3 276 87 74
3 287 78 85
3 280 288 287
3 287 85 87
3 287 87 276
3 280 287 276
3 291 98 99
3 291 99 64
3 292 291 64
3 292 64 63
3 203 292 63
3 279 96 98
3 279 98 291
3 281 279 291
3 279 80 96
3 293 224 59
3 294 295 296
3 297 298 299
3 297 300 298
3 297 301 300
3 297 302 301
3 294 299 295
3 299 232 295
3 303 301 302
3 304 305 306
3 307 293 308
3 309 305 304
3 310 305 309
3 309 308 310
3 308 293 310
3 293 59 310
3 295 228 230
3 311 296 295
3 224 293 312
3 312 223 224
3 312 230 223
3 295 232 228
3 313 314 315
3 316 317 318
3 299 298 232
3 298 231 232
3 231 298 300
3 300 227 231
3 312 293 307
3 307 311 312
3 311 295 312
3 295 230 312
3 319 242 320
3 319 321 242
3 321 240 242
3 322 236 321
3 236 243 321
3 322 318 236
3 318 317 236
3 317 246 236
3 316 246 317
3 316 244 246
3 316 315 244
3 315 314 244
3 322 321 319
3 320 301 303
3 303 323 320
3 323 319 320
3 262 301 320
3 262 300 301
3 320 242 260
3 300 262 227
3 321 243 240
3 313 249 314
3 249 251 314
3 313 146 249
3 313 12 146
3 146 147 249
3 314 251 244
3 262 320 260
3 234 324 233
3 247 324 234
3 235 4 3
3 254 325 253
3 254 326 325
3 254 256 326
3 255 326 256
3 258 327 259
3 264 328 263
3 264 259 328
3 259 327 328
3 247 263 328
3 33 217 32
3 33 34 217
3 34 222 217
3 34 329 222
3 36 330 35
3 36 331 330
3 36 37 331
3 37 332 331
3 34 35 329
3 35 333 329
3 35 330 333
3 330 331 333
3 209 334 210
3 220 335 214
3 215 336 216
3 216 278 335
3 220 216 335
3 337 277 278
3 278 336 337
3 221 338 218
3 337 275 277
3 221 284 286
3 221 286 338
3 222 339 284
3 221 222 284
3 216 336 278
3 278 281 335
3 215 219 337
3 337 336 215
3 219 280 275
3 219 275 337
3 210 334 280
3 219 210 280
3 198 292 199
3 334 288 280
3 198 335 290
3 198 290 292
3 335 281 290
3 198 214 335
3 199 292 203
3 218 288 334
3 209 218 334
3 338 285 288
3 218 338 288
3 284 339 340
3 338 286 285
3 340 182 289
3 340 289 284
3 144 213 341
3 342 341 198
3 341 213 198
3 342 197 201
3 342 198 197
3 343 201 344
3 343 342 201
3 205 168 169
3 166 168 205
3 192 205 265
3 205 169 265
3 205 204 166
3 265 169 161
3 63 345 203
3 203 345 202
3 346 347 348
3 348 347 349
3 350 189 181
3 181 351 350
3 352 349 347
3 347 183 185
3 346 188 190
3 346 190 183
3 183 347 346
3 350 185 189
3 353 186 188
3 354 353 188
3 354 188 346
3 348 354 346
3 352 347 185
3 352 185 350
3 350 351 352
3 352 351 332
3 355 195 186
3 356 355 186
3 353 356 186
3 155 357 151
3 139 140 156
3 357 358 151
3 151 358 152
3 140 341 359
3 156 140 359
3 155 156 359
3 359 357 155
3 140 144 341
3 359 341 342
3 359 342 343
3 343 357 359
3 148 160 257
3 148 257 147
3 360 361 149
3 148 149 160
3 149 158 160
3 149 361 158
3 361 362 158
3 310 59 54
3 56 305 310
3 310 54 56
3 363 364 365
3 366 367 368
3 369 370 371
3 372 370 369
3 369 373 372
3 373 308 372
3 374 306 375
3 374 376 306
3 376 304 306
3 376 370 304
3 377 378 373
3 371 370 376
3 366 365 367
3 365 303 367
3 303 302 367
3 365 364 303
3 379 380 294
3 296 381 379
3 382 368 380
3 368 299 380
3 377 383 378
3 383 381 378
3 383 379 381
3 296 379 294
3 372 308 309
3 384 379 383
3 380 379 384
3 384 382 380
3 373 378 308
3 378 307 308
3 304 370 372
3 372 309 304
3 385 316 386
3 316 318 386
3 385 387 316
3 385 388 387
3 389 387 388
3 389 390 387
3 390 315 387
3 390 313 315
3 307 378 381
3 381 311 307
3 381 296 311
3 385 386 391
3 368 297 299
3 368 367 297
3 367 302 297
3 380 299 294
3 390 13 12
3 392 323 303
3 392 319 323
3 386 318 322
3 12 313 390
3 391 319 392
3 391 386 319
3 386 322 319
3 303 364 392
3 387 315 316
3 392 364 363
3 363 393 392
3 393 391 392
3 333 181 182
3 333 331 181
3 331 351 181
3 332 351 331
3 340 339 329
3 329 333 340
3 333 182 340
3 329 339 222
3 394 365 395
3 93 394 395
3 93 88 394
3 394 363 365
3 396 397 91
3 91 397 92
3 93 395 95
3 91 94 396
3 89 394 88
3 171 398 173
3 399 377 373
3 101 376 398
3 171 101 398
3 106 373 400
3 400 401 106
3 104 399 373
3 106 104 373
3 102 401 101
3 395 365 366
3 106 401 102
3 105 399 104
3 95 368 396
3 94 95 396
3 95 395 366
3 95 366 368
3 384 397 396
3 92 397 384
3 399 383 377
3 396 382 384
3 105 383 399
3 400 373 369
3 92 384 383
3 105 92 383
3 398 376 374
3 173 398 374
3 400 369 371
3 371 401 400
3 401 371 376
3 101 401 376
3 363 394 402
3 178 177 388
3 402 391 393
3 402 393 363
3 163 162 389
3 179 163 389
3 388 385 178
3 162 390 389
3 175 178 385
3 175 385 391
3 389 388 179
3 179 388 177
3 402 394 89
3 396 368 382
3 175 391 402
3 89 175 402
3 162 13 390
3 403 404 43
3 354 405 406
3 52 405 354
3 37 49 332
3 406 353 354
3 404 406 405
3 43 404 405
3 51 52 354
3 51 354 348
3 51 348 349
3 51 349 407
3 53 43 405
3 53 405 52
3 50 51 407
3 50 407 49
3 406 356 353
3 49 407 352
3 49 352 332
3 407 349 352

CELL_DATA 730
SCALARS longitude float 1
LOOKUP_TABLE default
51.8286018371582
51.600101470947266
51.45539855957031
52.118499755859375
52.01110076904297
46.28350067138672
46.21390151977539
46.90380096435547
46.82109832763672
46.63240051269531
46.49679946899414
49.44309997558594
50.07040023803711
49.89820098876953
49.70610046386719
49.54309844970703
48.51190185546875
48.367401123046875
48.20479965209961
48.0088996887207
47.8125
49.262901306152344
49.15869903564453
48.88130187988281
48.8302001953125
48.62620162963867
49.33980178833008
49.397499084472656
49.601600646972656
49.04990005493164
48.94810104370117
48.51850128173828
48.330101013183594
48.67020034790039
48.1156005859375
48.020301818847656
48.772300720214844
46.64860153198242
46.434600830078125
46.35060119628906
46.194698333740234
46.06010055541992
47.285400390625
47.02439880371094
46.87099838256836
46.93560028076172
47.6505012512207
47.7140007019043
47.51129913330078
47.478599548339844
47.19729995727539
47.10219955444336
46.64149856567383
46.45320129394531
46.81760025024414
46.29719924926758
46.924800872802734
47.83570098876953
52.60499954223633
52.28670120239258
52.505401611328125
51.952701568603516
52.10020065307617
52.404998779296875
52.32360076904297
51.81420135498047
51.74380111694336
51.51490020751953
52.007301330566406
52.11920166015625
52.64690017700195
48.300498962402344
48.36759948730469
47.95690155029297
48.03820037841797
47.77539825439453
50.86970138549805
49.61949920654297
51.14699935913086
51.03110122680664
49.301700592041016
49.0078010559082
48.76449966430664
49.499900817871094
48.91310119628906
50.221900939941406
49.04669952392578
48.90950012207031
49.722999572753906
50.5723991394043
50.104698181152344
49.91780090332031
50.40420150756836
50.19649887084961
50.42509841918945
50.51559829711914
49.547000885009766
49.60350036621094
50.1531982421875
49.66899871826172
51.75310134887695
52.37300109863281
49.296199798583984
49.881500244140625
52.046600341796875
51.92110061645508
52.14950180053711
51.98139953613281
51.238399505615234
51.24290084838867
51.60139846801758
51.40800094604492
51.7041015625
51.59590148925781
51.15909957885742
50.96039962768555
51.40729904174805
47.32889938354492
49.18259811401367
49.46480178833008
49.42599868774414
50.130001068115234
49.3484001159668
48.3473014831543
48.53689956665039
49.722999572753906
49.97679901123047
48.64070129394531
48.809600830078125
49.003700256347656
48.245399475097656
48.02830123901367
48.51940155029297
48.5432014465332
48.41569900512695
47.56949996948242
47.5525016784668
47.66310119628906
47.82619857788086
47.7156982421875
47.81560134887695
48.1083984375
48.174598693847656
48.78580093383789
49.05799865722656
49.13059997558594
46.68439865112305
46.68600082397461
46.96659851074219
47.1422004699707
46.56019973754883
46.298500061035156
46.41279983520508
46.013301849365234
46.23189926147461
47.10350036621094
47.29349899291992
47.55339813232422
46.926300048828125
47.449100494384766
51.27299880981445
50.68560028076172
50.889801025390625
50.862300872802734
51.01599884033203
51.012298583984375
50.24470138549805
50.36880111694336
50.31629943847656
50.46080017089844
51.64789962768555
50.62310028076172
49.922000885009766
50.02000045776367
51.296600341796875
51.50090026855469
51.65510177612305
51.55569839477539
49.70800018310547
51.86349868774414
46.49359893798828
46.61090087890625
46.46670150756836
46.28129959106445
46.870601654052734
46.682098388671875
46.290401458740234
52.78419876098633
52.25519943237305
52.37889862060547
52.21200180053711
51.96839904785156
51.7859001159668
52.11800003051758
52.489498138427734
46.25419998168945
47.187198638916016
45.99470138549805
46.172698974609375
46.340599060058594
46.997100830078125
46.98030090332031
46.58879852294922
46.21659851074219
46.39360046386719
46.762298583984375
46.78390121459961
45.999900817871094
46.58250045776367
52.30540084838867
48.5546989440918
50.75090026855469
52.74440002441406
52.7328987121582
52.54059982299805
52.54610061645508
48.30459976196289
48.57590103149414
47.99869918823242
48.201499938964844
48.22570037841797
48.394100189208984
48.657501220703125
48.05070114135742
48.07040023803711
47.70930099487305
47.83869934082031
47.4718017578125
47.58290100097656
48.466800689697266
47.51300048828125
46.615699768066406
48.15169906616211
48.232200622558594
46.95920181274414
47.23830032348633
46.82720184326172
46.949501037597656
47.753299713134766
47.94179916381836
47.33729934692383
47.61259841918945
47.17470169067383
46.344600677490234
46.4911994934082
47.40549850463867
46.699798583984375
47.657901763916016
47.45940017700195
52.47589874267578
52.63589859008789
52.77870178222656
52.84299850463867
52.59170150756836
52.70029830932617
46.575401306152344
46.29029846191406
46.49169921875
50.95349884033203
50.337100982666016
50.14120101928711
50.50709915161133
50.623600006103516
50.338401794433594
50.714698791503906
50.55289840698242
50.205299377441406
50.01490020751953
51.75790023803711
51.87919998168945
51.130001068115234
51.95240020751953
51.31869888305664
51.12969970703125
51.54199981689453
51.46440124511719
49.67850112915039
49.74489974975586
50.60089874267578
49.80120086669922
50.88349914550781
50.77450180053711
51.73360061645508
51.53450012207031
49.981300354003906
52.12260055541992
49.59749984741211
49.34550094604492
51.687400817871094
51.582000732421875
50.077301025390625
50.9838981628418
50.38959884643555
50.15950012207031
51.86479949951172
50.5265998840332
50.55929946899414
50.75749969482422
50.72019958496094
51.28419876098633
51.14360046386719
51.35129928588867
51.220401763916016
48.22800064086914
48.07279968261719
48.905399322509766
48.33789825439453
50.92879867553711
47.75790023803711
50.3400993347168
50.234901428222656
48.31159973144531
47.156898498535156
48.582298278808594
48.50709915161133
48.80009841918945
48.6963996887207
47.96620178222656
47.840999603271484
47.31439971923828
47.349700927734375
47.62739944458008
47.464500427246094
46.946998596191406
46.773799896240234
46.93119812011719
46.8297004699707
49.17409896850586
49.003700256347656
49.38130187988281
49.27479934692383
47.710601806640625
49.50699996948242
47.14120101928711
46.58530044555664
50.05849838256836
49.474098205566406
48.898399353027344
49.70589828491211
49.59980010986328
49.97129821777344
49.7963981628418
46.90019989013672
47.50019836425781
47.12480163574219
46.972999572753906
47.29069900512695
47.289398193359375
51.14739990234375
51.00279998779297
51.38639831542969
51.35240173339844
50.59320068359375
50.368099212646484
51.614601135253906
47.23040008544922
47.83290100097656
47.72829818725586
48.14080047607422
47.565101623535156
46.867698669433594
46.57640075683594
46.447601318359375
46.94459915161133
46.242698669433594
46.223201751708984
46.33330154418945
46.48189926147461
50.84989929199219
50.961299896240234
51.127498626708984
51.2577018737793
51.326900482177734
50.60710144042969
51.5078010559082
49.2150993347168
49.54499816894531
49.59600067138672
49.727500915527344
49.796199798583984
49.95209884643555
49.35200119018555
50.78020095825195
49.019798278808594
49.20940017700195
49.31570053100586
48.5442008972168
48.7421989440918
48.81119918823242
48.94020080566406
49.02909851074219
51.886199951171875
52.12080001831055
50.482398986816406
49.935001373291016
50.134300231933594
50.13119888305664
50.244300842285156
50.29930114746094
52.06230163574219
52.28630065917969
52.33190155029297
52.53160095214844
52.497100830078125
51.66510009765625
51.80619812011719
51.74440002441406
51.43040084838867
51.77939987182617
50.742801666259766
50.1328010559082
49.9724006652832
49.777400970458984
49.68899917602539
50.49679946899414
50.48569869995117
49.52539825439453
52.54389953613281
51.63330078125
52.327301025390625
52.23460006713867
51.98619842529297
51.85459899902344
51.89099884033203
50.89699935913086
50.90919876098633
51.57830047607422
51.49340057373047
51.265098571777344
50.67020034790039
47.473201751708984
48.0630989074707
50.29090118408203
50.30149841308594
50.06959915161133
49.965301513671875
51.46860122680664
51.274600982666016
50.998199462890625
51.047401428222656
49.08440017700195
48.88949966430664
48.814701080322266
48.382301330566406
48.441001892089844
48.26539993286133
48.1421012878418
48.02939987182617
47.950401306152344
47.80400085449219
47.68510055541992
47.546199798583984
48.63999938964844
49.41899871826172
49.23939895629883
49.02640151977539
49.507198333740234
49.701900482177734
49.20830154418945
49.79240036010742
48.62379837036133
47.304100036621094
47.25790023803711
47.1088981628418
47.04890060424805
46.874298095703125
47.43439865112305
49.41749954223633
50.646400451660156
50.42789840698242
51.22949981689453
47.442501068115234
47.21080017089844
47.04079818725586
46.846900939941406
49.17689895629883
49.77880096435547
49.5630989074707
49.44049835205078
49.9536018371582
49.43370056152344
49.15119934082031
49.094600677490234
48.981300354003906
48.50600051879883
48.331199645996094
48.140499114990234
48.06669998168945
48.86199951171875
48.78419876098633
48.58689880371094
48.41210174560547
50.31959915161133
51.8223991394043
51.22010040283203
51.50790023803711
51.62369918823242
51.04059982299805
51.15079879760742
49.69029998779297
50.87409973144531
49.422401428222656
49.55110168457031
49.14649963378906
49.310001373291016
51.30659866333008
51.61980056762695
50.8651008605957
51.06420135498047
50.62929916381836
50.785301208496094
50.422698974609375
50.535499572753906
52.358699798583984
50.24369812011719
51.99729919433594
52.18730163574219
51.79790115356445
52.0093994140625
52.40999984741211
50.057098388671875
50.073299407958984
49.86040115356445
49.85580062866211
49.02870178222656
49.65359878540039
48.71950149536133
48.935699462890625
52.16999816894531
52.349300384521484
52.21910095214844
52.707801818847656
52.518699645996094
52.95989990234375
52.773799896240234
46.510799407958984
46.31520080566406
46.68920135498047
46.631500244140625
46.214599609375
46.863800048828125
52.70800018310547
52.79209899902344
47.114200592041016
47.22129821777344
48.032100677490234
48.10110092163086
47.36800003051758
47.41749954223633
46.86309814453125
47.13800048828125
47.20719909667969
47.762901306152344
46.522300720214844
46.58089828491211
46.777000427246094
46.95909881591797
47.471500396728516
47.67169952392578
47.87120056152344
47.965599060058594
46.24769973754883
46.29010009765625
46.395301818847656
52.58290100097656
51.94350051879883
52.89789962768555
52.98860168457031
52.20309829711914
52.18149948120117
52.300899505615234
52.52629852294922
52.08150100708008
52.422000885009766
52.65760040283203
52.75640106201172
46.474300384521484
46.56159973144531
45.985801696777344
46.33549880981445
46.214698791503906
46.070098876953125
45.99140167236328
52.1244010925293
52.48210144042969
52.4109001159668
49.25429916381836
49.86750030517578
52.06639862060547
51.96799850463867
51.74639892578125
51.76689910888672
52.745201110839844
52.56850051879883
52.47829818725586
52.349700927734375
51.384700775146484
52.26969909667969
49.62329864501953
49.5432014465332
49.63100051879883
49.34709930419922
50.56829833984375
50.92850112915039
50.224998474121094
50.2338981628418
51.1244010925293
51.058799743652344
50.86259841918945
50.76250076293945
51.90039825439453
50.76449966430664
50.63610076904297
50.46730041503906
51.57080078125
51.54679870605469
52.21989822387695
52.13180160522461
48.13959884643555
48.16630172729492
47.94350051879883
47.941001892089844
47.7781982421875
47.563201904296875
47.520999908447266
47.394901275634766
51.295101165771484
51.187599182128906
51.0171012878418
48.374900817871094
50.095001220703125
49.95119857788086
49.794898986816406
50.40840148925781
47.0702018737793
49.14889907836914
48.93550109863281
48.34579849243164
47.16579818725586
48.800201416015625
48.60419845581055
48.54840087890625
49.23830032348633
47.73849868774414
49.14550018310547
48.96860122680664
48.74660110473633
48.5161018371582
48.375
48.23149871826172
48.15060043334961
48.95050048828125
48.7859001159668
48.64780044555664
49.06829833984375
49.27149963378906
49.33369827270508
49.18980026245117
49.16320037841797
50.37620162963867
50.49380111694336
49.56209945678711
50.24300003051758
49.00170135498047
52.62630081176758
51.29719924926758
52.325401306152344
52.3916015625
51.56209945678711
51.6974983215332
51.357601165771484
51.470001220703125
52.007999420166016
49.532798767089844
51.79389953613281
51.13309860229492
49.94160079956055
49.9718017578125
49.666500091552734
49.80820083618164
50.45840072631836
50.57590103149414
51.036399841308594
50.378299713134766
50.93960189819336
51.659698486328125
50.68519973754883
50.751399993896484
52.55110168457031
52.699100494384766
51.86970138549805
51.96739959716797
52.183799743652344
52.12810134887695
48.962799072265625
48.00120162963867
48.654701232910156
48.87710189819336
47.40719985961914
47.54719924926758
48.04560089111328
47.36690139770508
48.24259948730469
48.41019821166992
47.721900939941406
47.840301513671875
48.84239959716797
50.13560104370117
48.56639862060547
48.66849899291992
47.16379928588867
46.04240036010742
46.560298919677734
46.75310134887695
47.9203987121582
46.46099853515625
46.31460189819336
46.26679992675781
46.8661994934082
46.97549819946289
47.134300231933594
47.239898681640625
46.39550018310547
46.635799407958984
47.30379867553711
47.575199127197266
46.305999755859375
47.65370178222656
47.84400177001953
47.47269821166992
SCALARS latitude float 1
LOOKUP_TABLE default
19.814300537109375
19.812400817871094
19.75790023803711
19.725900650024414
19.810800552368164
21.06760025024414
20.935699462890625
21.060800552368164
20.918899536132812
20.92300033569336
21.059900283813477
24.33009910583496
24.308399200439453
24.147300720214844
24.197399139404297
24.17930030822754
24.24169921875
24.138399124145508
24.142099380493164
23.960399627685547
24.016799926757812
24.31570053100586
24.218299865722656
24.206100463867188
24.034000396728516
24.081499099731445
23.887500762939453
24.059600830078125
24.006099700927734
23.874099731445312
23.774999618530273
23.878400802612305
23.952800750732422
23.90399932861328
23.796300888061523
23.6914005279541
23.757299423217773
24.034000396728516
24.01569938659668
23.877199172973633
23.72920036315918
23.848600387573242
24.03510093688965
24.01799964904785
23.97410011291504
23.81399917602539
23.993200302124023
23.827800750732422
23.88330078125
23.70840072631836
23.694499969482422
23.585100173950195
23.68549919128418
23.71780014038086
23.70330047607422
23.570100784301758
23.568099975585938
23.668500900268555
20.42639923095703
20.19580078125
20.344100952148438
20.241100311279297
20.255800247192383
20.024999618530273
19.915700912475586
20.11669921875
19.956100463867188
19.954200744628906
20.07710075378418
19.913000106811523
22.416000366210938
22.293399810791016
22.42180061340332
22.180999755859375
22.26959991455078
22.150699615478516
22.262800216674805
22.3169002532959
22.373600006103516
22.268299102783203
22.20560073852539
22.11709976196289
22.229000091552734
22.19029998779297
22.244600296020508
22.300600051879883
21.943700790405273
21.893800735473633
22.217300415039062
22.239700317382812
22.2096004486084
22.223600387573242
21.982200622558594
22.050199508666992
22.22010040283203
22.061100006103516
21.92799949645996
22.090999603271484
21.87540054321289
21.869800567626953
22.340099334716797
22.3218994140625
21.853500366210938
21.85810089111328
22.117399215698242
22.006799697875977
22.324100494384766
22.28380012512207
22.21540069580078
21.888399124145508
22.17970085144043
22.224199295043945
22.01300048828125
21.895099639892578
22.045700073242188
22.098899841308594
21.89539909362793
24.646299362182617
24.824899673461914
24.549299240112305
24.730300903320312
24.489700317382812
24.46769905090332
24.822200775146484
24.833900451660156
24.42970085144043
24.438499450683594
24.70479965209961
24.721500396728516
24.681499481201172
24.728200912475586
24.58060073852539
24.610200881958008
24.430099487304688
24.365699768066406
24.375200271606445
24.555999755859375
24.60300064086914
24.636999130249023
24.1658992767334
24.24570083618164
24.278499603271484
24.398700714111328
24.342500686645508
24.363500595092773
24.505599975585938
24.297700881958008
24.470500946044922
24.517000198364258
24.51449966430664
24.215200424194336
24.232200622558594
24.356599807739258
24.05340003967285
24.07229995727539
24.33049964904785
24.269399642944336
24.142000198364258
24.16029930114746
24.29319953918457
24.25200080871582
24.27750015258789
24.269899368286133
23.936100006103516
24.01420021057129
24.17930030822754
23.95829963684082
24.04400062561035
24.2189998626709
24.278799057006836
24.17799949645996
23.933000564575195
23.85140037536621
23.97249984741211
23.913700103759766
24.232200622558594
23.91160011291504
24.0137996673584
23.844999313354492
23.899999618530273
20.735200881958008
20.58799934387207
20.464799880981445
20.756399154663086
20.766700744628906
20.77090072631836
20.472299575805664
24.46380043029785
24.545700073242188
24.36039924621582
24.334999084472656
24.44700050354004
24.50189971923828
24.468799591064453
24.43280029296875
19.834800720214844
21.54159927368164
21.562299728393555
21.27750015258789
21.375900268554688
21.2455997467041
21.38949966430664
21.5846004486084
21.521299362182617
21.58690071105957
21.591100692749023
21.44659996032715
21.286500930786133
21.29759979248047
21.99519920349121
22.082199096679688
21.921899795532227
22.10070037841797
22.268199920654297
21.996200561523438
22.162399291992188
21.777999877929688
21.814699172973633
21.83099937438965
21.707000732421875
21.92930030822754
22.127599716186523
21.920700073242188
22.006200790405273
21.6830997467041
21.96179962158203
21.81679916381836
21.723600387573242
21.878999710083008
22.702899932861328
22.621000289916992
22.52589988708496
22.552900314331055
22.67020034790039
22.485300064086914
22.503799438476562
22.240400314331055
22.318599700927734
22.50830078125
22.42770004272461
22.6072998046875
22.483600616455078
22.16990089416504
22.403400421142578
22.409400939941406
22.17770004272461
22.374500274658203
22.31089973449707
22.34480094909668
23.20949935913086
23.204200744628906
23.355300903320312
23.203399658203125
22.912599563598633
23.052499771118164
22.25830078125
22.09589958190918
22.109600067138672
23.787799835205078
23.823400497436523
23.522600173950195
23.489500045776367
23.595699310302734
23.478500366210938
23.784799575805664
23.760799407958984
23.697799682617188
23.711599349975586
23.744199752807617
23.59119987487793
23.45639991760254
23.752700805664062
23.667999267578125
23.6200008392334
23.772600173950195
23.629100799560547
23.623699188232422
23.45439910888672
23.33970069885254
23.705299377441406
23.454299926757812
23.348899841308594
23.46649932861328
23.475900650024414
23.36549949645996
23.455699920654297
23.401199340820312
23.39150047302246
20.3794002532959
20.27680015563965
20.162500381469727
20.30069923400879
20.3257999420166
20.320999145507812
20.38319969177246
20.16790008544922
20.009300231933594
20.298599243164062
20.138900756835938
20.041500091552734
19.97960090637207
20.277700424194336
20.20319938659668
20.09269905090332
20.06170082092285
20.23699951171875
20.24570083618164
19.980499267578125
20.27829933166504
20.008800506591797
19.89240074157715
19.941200256347656
20.2992000579834
20.090299606323242
19.937999725341797
20.086000442504883
20.21660041809082
20.211700439453125
20.127399444580078
20.1476993560791
19.99410057067871
20.118600845336914
20.19339942932129
19.99449920654297
20.28580093383789
20.239700317382812
20.088499069213867
20.047800064086914
20.079200744628906
20.071699142456055
20.19930076599121
19.968000411987305
20.227699279785156
19.99220085144043
19.9867000579834
19.891199111938477
19.915700912475586
19.928499221801758
20.198200225830078
20.071300506591797
20.045700073242188
20.043500900268555
22.04680061340332
22.03059959411621
21.944700241088867
21.899700164794922
21.87299919128418
21.72089958190918
24.539899826049805
24.393999099731445
24.38290023803711
24.544700622558594
24.41819953918457
24.41939926147461
24.36280059814453
24.739500045776367
24.821399688720703
24.760000228881836
24.854999542236328
24.725799560546875
24.649999618530273
24.623199462890625
24.755800247192383
24.7406005859375
24.792999267578125
24.6289005279541
24.523399353027344
24.554800033569336
22.59749984741211
22.69540023803711
22.704500198364258
22.479700088500977
22.64699935913086
22.744300842285156
22.817899703979492
22.622699737548828
22.781999588012695
22.618600845336914
22.449199676513672
22.610700607299805
22.769800186157227
22.784299850463867
22.428699493408203
22.334999084472656
22.335500717163086
22.4601993560791
22.551000595092773
22.465599060058594
22.634899139404297
22.488399505615234
22.651399612426758
22.797000885009766
22.797800064086914
22.40530014038086
22.440000534057617
22.771299362182617
22.43280029296875
22.517799377441406
22.687999725341797
22.45509910583496
22.452999114990234
22.62779998779297
22.582700729370117
22.75469970703125
22.48550033569336
22.560300827026367
22.72879981994629
22.483800888061523
20.515199661254883
20.77440071105957
20.798599243164062
20.635000228881836
20.67650032043457
20.830900192260742
20.76689910888672
20.603599548339844
20.823699951171875
20.90920066833496
20.852500915527344
20.8971004486084
20.78350067138672
20.80340003967285
20.756099700927734
20.585899353027344
20.445899963378906
20.779600143432617
20.54789924621582
20.416900634765625
20.41320037841797
20.443700790405273
20.746000289916992
20.715200424194336
20.639799118041992
20.478099822998047
20.47570037841797
20.361799240112305
20.71470069885254
20.74970054626465
20.649999618530273
20.48390007019043
20.537799835205078
20.536800384521484
20.387100219726562
20.54319953918457
20.391799926757812
20.675600051879883
20.565000534057617
20.41069984436035
20.56060028076172
20.51259994506836
20.65959930419922
20.598600387573242
20.693899154663086
20.693500518798828
20.693099975585938
20.69230079650879
20.53689956665039
20.512800216674805
20.381999969482422
20.35740089416504
20.39229965209961
20.59079933166504
20.440000534057617
20.62299919128418
20.770599365234375
20.476200103759766
20.443899154663086
20.38129997253418
19.867300033569336
19.866300582885742
19.837799072265625
19.838899612426758
19.803300857543945
19.847000122070312
19.849199295043945
19.792200088500977
19.782699584960938
19.781600952148438
19.6830997467041
19.784299850463867
23.732900619506836
23.708200454711914
23.538299560546875
23.438100814819336
23.63719940185547
23.45989990234375
23.52199935913086
23.353599548339844
23.590299606323242
23.42259979248047
23.483200073242188
23.306299209594727
23.234600067138672
23.24880027770996
23.299999237060547
23.10650062561035
23.25830078125
22.8656005859375
22.974899291992188
23.24679946899414
22.856300354003906
22.98390007019043
23.08300018310547
23.11949920654297
23.13789939880371
23.139799118041992
22.951400756835938
23.185800552368164
23.134700775146484
23.002599716186523
23.016599655151367
23.068599700927734
23.162599563598633
23.050399780273438
22.89430046081543
23.099899291992188
23.036300659179688
22.95330047607422
23.246599197387695
22.90519905090332
23.05940055847168
23.227800369262695
22.914499282836914
23.08099937438965
22.986099243164062
22.918699264526367
22.81879997253418
22.833499908447266
23.747900009155273
23.64189910888672
23.603900909423828
23.52549934387207
23.507699966430664
23.613100051879883
23.70210075378418
21.7637996673584
21.765899658203125
22.03219985961914
21.8794002532959
21.905799865722656
21.744199752807617
22.707799911499023
22.85300064086914
22.983299255371094
23.093000411987305
22.762300491333008
22.915700912475586
23.111099243164062
22.781700134277344
22.63559913635254
22.661500930786133
22.827199935913086
22.72559928894043
22.692100524902344
22.863000869750977
22.788299560546875
22.970300674438477
22.955799102783203
22.881799697875977
23.051599502563477
23.163299560546875
22.571300506591797
22.742300033569336
22.83810043334961
24.268999099731445
24.253700256347656
24.25819969177246
24.38050079345703
23.948999404907227
24.131500244140625
24.19099998474121
24.111000061035156
23.895299911499023
23.839500427246094
23.881999969482422
23.966899871826172
20.145700454711914
20.293699264526367
20.273300170898438
20.216800689697266
20.07200050354004
20.123600006103516
19.977800369262695
20.4685001373291
20.631099700927734
20.490699768066406
21.292200088500977
21.258899688720703
21.383699417114258
21.256000518798828
21.274099349975586
21.10689926147461
21.17060089111328
21.25779914855957
21.098400115966797
21.229299545288086
21.315900802612305
21.385900497436523
21.25079917907715
21.089099884033203
20.931900024414062
21.13479995727539
21.05780029296875
21.021299362182617
21.22010040283203
21.05940055847168
21.30590057373047
21.13789939880371
21.184999465942383
21.014699935913086
20.94580078125
21.34589958190918
21.225200653076172
21.23349952697754
21.154499053955078
20.985200881958008
21.10219955444336
20.9591007232666
21.01259994506836
20.86479949951172
21.058399200439453
21.203399658203125
21.19420051574707
21.181100845336914
21.034799575805664
20.93869972229004
20.978599548339844
20.881200790405273
20.876699447631836
21.166200637817383
21.00629997253418
21.104299545288086
20.93899917602539
20.90559959411621
21.06920051574707
20.848499298095703
20.84749984741211
20.86709976196289
20.930999755859375
21.00119972229004
21.016199111938477
20.86520004272461
21.00279998779297
20.902999877929688
21.159900665283203
21.16010093688965
21.15519905090332
22.92099952697754
23.065200805664062
23.030500411987305
23.183700561523438
23.139299392700195
23.13680076599121
22.968900680541992
23.273000717163086
21.545400619506836
21.712900161743164
21.762399673461914
21.422800064086914
21.738100051879883
21.82390022277832
21.745800018310547
21.721799850463867
21.7632999420166
21.831899642944336
21.462099075317383
21.673599243164062
21.83099937438965
21.58449935913086
21.724899291992188
21.631200790405273
21.72599983215332
21.86400032043457
21.42300033569336
21.866199493408203
21.789199829101562
21.55739974975586
21.704700469970703
21.582700729370117
21.468599319458008
21.58289909362793
21.668399810791016
21.451900482177734
21.423900604248047
21.61400032043457
21.42099952697754
21.519800186157227
21.689199447631836
21.51740074157715
21.677499771118164
21.424999237060547
21.56369972229004
21.544099807739258
21.70330047607422
21.453100204467773
21.537900924682617
21.31760025024414
21.322599411010742
21.409799575805664
21.513599395751953
21.402599334716797
21.26609992980957
21.56719970703125
21.43440055847168
21.38319969177246
21.527700424194336
21.621200561523438
21.410200119018555
21.47249984741211
21.645599365234375
21.2539005279541
23.46929931640625
23.105100631713867
23.286800384521484
23.496000289916992
23.01569938659668
23.221900939941406
23.39229965209961
23.38520050048828
23.23270034790039
23.24880027770996
23.34510040283203
23.44029998779297
23.451900482177734
23.51420021057129
23.541400909423828
22.99530029296875
23.38990020751953
23.328899383544922
23.2096004486084
