# vtk DataFile Version 3.0
SHAPE_sfm_50k_v20200323
ASCII
DATASET POLYDATA
POINTS 387 float
0.14355087 0.16759837 0.09980932
0.14355087 0.1676991 0.09972498
0.14336276 0.1676991 0.09980932
0.14187092 0.16863596 0.09980932
0.14187092 0.16937912 0.09925535
0.1409514 0.16937912 0.09980932
0.14355087 0.16937912 0.09832129
0.1469109 0.16569251 0.09980932
0.1469109 0.16601914 0.09957597
0.14634931 0.16601914 0.09980932
0.14859092 0.16601914 0.09903559
0.14859092 0.16506362 0.09980932
0.14523089 0.16667837 0.09980932
0.14523089 0.1676991 0.09898254
0.1469109 0.1676991 0.09825018
0.14390343 0.16937912 0.09812936
0.14523089 0.16862774 0.09812936
0.1469109 0.16782302 0.09812936
0.14714563 0.1676991 0.09812936
0.1284309 0.1724717 0.10484937
0.1284309 0.17273915 0.10454759
0.12802637 0.17273915 0.10484937
0.13011092 0.17130524 0.10484937
0.13011092 0.17273915 0.10340354
0.12675089 0.17370558 0.10484937
0.12675089 0.1744191 0.10415605
0.12585807 0.1744191 0.10484937
0.12675089 0.17533004 0.10316935
0.12802368 0.1744191 0.10316935
0.1284309 0.17411208 0.10316935
0.13011092 0.17299354 0.10316935
0.13179088 0.16992676 0.10484937
0.13179088 0.17105913 0.10379401
0.13043195 0.17105913 0.10484937
0.1324647 0.16937912 0.10484937
0.13276905 0.17105913 0.10316935
0.1334709 0.16937912 0.10412398
0.1334709 0.17054677 0.10316935
0.1304959 0.17273915 0.10316935
0.13179088 0.17180032 0.10316935
0.13499391 0.16937912 0.10316935
0.13683087 0.16006166 0.10820934
0.13683087 0.16097909 0.107789904
0.13626772 0.16097909 0.10820934
0.13683087 0.16265911 0.10706672
0.13543981 0.16265911 0.10820934
0.1284309 0.1691069 0.10820934
0.1284309 0.16937912 0.107958466
0.12790048 0.16937912 0.10820934
0.13011092 0.16937912 0.10712692
0.13011092 0.16840172 0.10820934
0.1334709 0.16510242 0.10820934
0.1334709 0.16601914 0.1071485
0.13259858 0.16601914 0.10820934
0.13515091 0.16306299 0.10820934
0.13515091 0.16433913 0.10723618
0.1341775 0.16433913 0.10820934
0.13683087 0.16350746 0.106529325
0.13603503 0.16433913 0.106529325
0.13414621 0.16601914 0.106529325
0.13515091 0.16512567 0.106529325
0.13179088 0.16707432 0.10820934
0.13179088 0.1676991 0.10762873
0.13115144 0.1676991 0.10820934
0.13257504 0.1676991 0.106529325
0.1334709 0.16666198 0.106529325
0.13079852 0.16937912 0.106529325
0.13179088 0.16858387 0.106529325
0.13515091 0.16923624 0.10316935
0.13515091 0.16937912 0.10308096
0.13683087 0.1678778 0.10316935
0.13683087 0.16937912 0.10225096
0.12339091 0.17267144 0.10820934
0.12339091 0.17273915 0.10814193
0.12331474 0.17273915 0.10820934
0.12675089 0.17005247 0.10820934
0.12675089 0.17105913 0.10731241
0.12534875 0.17105913 0.10820934
0.12507087 0.17273915 0.10688713
0.12507087 0.17127132 0.10820934
0.12561738 0.17273915 0.106529325
0.12675089 0.17193896 0.106529325
0.12814116 0.17105913 0.106529325
0.1284309 0.1708824 0.106529325
0.13011092 0.16981894 0.106529325
0.12507087 0.17314589 0.106529325
0.12507087 0.17105913 0.1084052
0.12339091 0.17105913 0.10966721
0.12339091 0.17078912 0.10988936
0.12507087 0.16940445 0.10988936
0.12510425 0.16937912 0.10988936
0.12675089 0.16937912 0.10883263
0.14187092 0.15876013 0.106529325
0.14187092 0.15929914 0.10614911
0.14082378 0.15929914 0.106529325
0.14355087 0.15790015 0.106529325
0.14355087 0.15929914 0.10544959
0.13851088 0.16120732 0.106529325
0.13851088 0.16265911 0.10565141
0.13747555 0.16265911 0.106529325
0.1401909 0.15968275 0.106529325
0.1401909 0.16097909 0.1056743
0.13872492 0.16097909 0.106529325
0.13959974 0.16265911 0.10484937
0.1401909 0.16209656 0.10484937
0.14195216 0.16097909 0.10484937
0.14355087 0.16012526 0.10484937
0.14187092 0.16097909 0.10488132
0.14187092 0.16102242 0.10484937
0.14390635 0.15761912 0.106529325
0.14489663 0.15929914 0.10484937
0.13851088 0.16430157 0.10484937
0.13683087 0.16433913 0.105976015
0.13848537 0.16433913 0.10484937
0.13683087 0.16566008 0.10484937
0.1334709 0.16850734 0.10484937
0.13515091 0.16687453 0.10484937
0.13515091 0.1676991 0.104160935
0.13428092 0.1676991 0.10484937
0.13683087 0.16601914 0.10452077
0.13628042 0.16601914 0.10484937
0.13683087 0.1676991 0.10328016
0.1401909 0.16937912 0.10028967
0.13851088 0.16937912 0.101364344
0.1401909 0.16774112 0.101489335
0.13851088 0.16921747 0.101489335
0.13828969 0.16937912 0.101489335
0.14355087 0.16536903 0.101489335
0.14355087 0.16601914 0.10106197
0.14251184 0.16601914 0.101489335
0.14187092 0.1676991 0.10048202
0.14187092 0.16638625 0.101489335
0.14023566 0.1676991 0.101489335
0.1469109 0.16315919 0.101489335
0.14523089 0.16433913 0.101409286
0.14523089 0.16421527 0.101489335
0.1450479 0.16433913 0.101489335
0.14523089 0.16601914 0.10031322
0.1469109 0.16433913 0.1007376
0.14859092 0.16433913 0.10037801
0.14859092 0.162718 0.101489335
0.14900184 0.16265911 0.101489335
0.15027088 0.16433913 0.09991148
0.15027088 0.16445917 0.09980932
0.15048999 0.16433913 0.09980932
0.13851088 0.17164314 0.09980932
0.13851088 0.17273915 0.099006385
0.13767159 0.17273915 0.09980932
0.1401909 0.16996884 0.09980932
0.1401909 0.17105913 0.098920554
0.13897228 0.17105913 0.09980932
0.1401909 0.17197907 0.09812936
0.13934308 0.17273915 0.09812936
0.14187092 0.17083067 0.09812936
0.14155543 0.17105913 0.09812936
0.13683087 0.1737675 0.09980932
0.13683087 0.1744191 0.09941068
0.14355087 0.16960937 0.09812936
0.13851088 0.1741659 0.09812936
0.13836843 0.1744191 0.09812936
0.13683087 0.17595482 0.09812936
0.1401909 0.15690011 0.10820934
0.1401909 0.15761912 0.10770616
0.13901085 0.15761912 0.10820934
0.13851088 0.1580522 0.10820934
0.13851088 0.15929914 0.107548505
0.13739783 0.15929914 0.10820934
0.14187092 0.15761912 0.10728201
0.1401909 0.15929914 0.10676637
0.14187092 0.15611243 0.10820934
0.142147 0.1559391 0.10820934
0.13851088 0.16097909 0.10666177
0.14355087 0.15761912 0.10673109
0.1284309 0.17576545 0.101489335
0.1284309 0.17609912 0.10113242
0.12790436 0.17609912 0.101489335
0.13011092 0.17478544 0.101489335
0.13011092 0.17609912 0.10010055
0.13683087 0.17061567 0.101489335
0.13683087 0.17105913 0.10122624
0.13628823 0.17105913 0.101489335
0.13179088 0.17387354 0.101489335
0.13179088 0.1744191 0.10099426
0.13079971 0.1744191 0.101489335
0.1334709 0.17296344 0.101489335
0.1334709 0.1744191 0.100319654
0.13067698 0.17609912 0.09980932
0.13515091 0.1719709 0.101489335
0.13515091 0.17273915 0.10103759
0.13391823 0.17273915 0.101489335
0.13683087 0.17273915 0.100354105
0.1334709 0.17498124 0.09980932
0.13179088 0.17560911 0.09980932
0.13515091 0.1744191 0.099876136
0.13515091 0.17450982 0.09980932
0.1354726 0.1744191 0.09980932
0.13011092 0.17636812 0.09980932
0.1284309 0.17729425 0.09980932
0.13179088 0.17895424 0.096449345
0.13179088 0.1794591 0.09600076
0.13075143 0.1794591 0.096449345
0.13515091 0.17764115 0.096449345
0.13515091 0.17777914 0.09624025
0.134731 0.17777914 0.096449345
0.1401909 0.17273915 0.097436756
0.14187092 0.17105913 0.09795275
0.13851088 0.1744191 0.09793642
0.13683087 0.17609912 0.09794226
0.13851088 0.17105913 0.100168556
0.1469109 0.16059339 0.10316935
0.1469109 0.16097909 0.102885455
0.14623785 0.16097909 0.10316935
0.14523089 0.16265911 0.10248861
0.14355087 0.16265911 0.10316381
0.14355087 0.16265088 0.10316935
0.14353383 0.16265911 0.10316935
0.1469109 0.16265911 0.1018047
0.14523089 0.16164863 0.10316935
0.1401909 0.16584522 0.10316935
0.1401909 0.16601914 0.103061706
0.14001608 0.16601914 0.10316935
0.14187092 0.16371071 0.10316935
0.14187092 0.16433913 0.10285196
0.14128673 0.16433913 0.10316935
0.14859092 0.16265911 0.101525456
0.14355087 0.16433913 0.10211757
0.14187092 0.16601914 0.10178301
0.13851088 0.1676991 0.10259721
0.1401909 0.1676991 0.101520866
0.13851088 0.16690934 0.10316935
0.13710368 0.1676991 0.10316935
0.1217109 0.17035818 0.111569315
0.12264788 0.16937912 0.111569315
0.12339091 0.16937912 0.11102465
0.12311119 0.17105913 0.10988936
0.1217109 0.17105913 0.11106005
0.14523089 0.16937912 0.09739354
0.13731897 0.15425915 0.111569315
0.13683087 0.15257913 0.11286375
0.13851088 0.15331948 0.111569315
0.13851088 0.15257913 0.11205551
0.13683087 0.15425915 0.11185339
0.13683087 0.15465969 0.111569315
0.1217109 0.1676991 0.113743454
0.1217109 0.16822332 0.11324933
0.12050599 0.16937912 0.11324933
0.12229544 0.1676991 0.11324933
0.13011092 0.15929914 0.113256544
0.13012272 0.15929914 0.11324933
0.13011092 0.15931511 0.11324933
0.12799299 0.16265911 0.11324933
0.12675089 0.16265911 0.11396065
0.1284309 0.16194308 0.11324933
0.1284309 0.16097909 0.11356774
0.12892908 0.16097909 0.11324933
0.12675089 0.16391087 0.11324933
0.12339091 0.16601914 0.11426929
0.12438029 0.16601914 0.11324933
0.12339091 0.1668399 0.11324933
0.12631816 0.16433913 0.11324933
0.12507087 0.16433913 0.114114255
0.12507087 0.16538692 0.11324933
0.13645959 0.17609912 0.09812936
0.1334709 0.17777914 0.09692702
0.13179088 0.17777914 0.09756854
0.13179088 0.1772396 0.09812936
0.1334709 0.17670351 0.09812936
0.13051248 0.17777914 0.09812936
0.13515091 0.17641163 0.09812936
0.1334709 0.17820853 0.096449345
0.13011092 0.1794591 0.09673795
0.13011092 0.17978895 0.096449345
0.13011092 0.17798048 0.09812936
0.12339091 0.1676991 0.11242452
0.12339091 0.16871697 0.111569315
0.1217109 0.16937912 0.11228123
0.13136 0.15761912 0.11324933
0.13179088 0.15929914 0.112229675
0.13179088 0.15761912 0.11295274
0.13179088 0.15698493 0.11324933
0.13261902 0.1559391 0.11324933
0.1334709 0.15761912 0.11190143
0.1334709 0.1559391 0.112762004
0.1334709 0.15837783 0.111569315
0.1340279 0.15761912 0.111569315
0.13515091 0.15632427 0.111569315
0.13284379 0.15929914 0.111569315
0.1284309 0.16265911 0.112979144
0.13011092 0.16265911 0.11187002
0.13011092 0.16097909 0.112529844
0.13070261 0.16265911 0.111569315
0.12675089 0.16433913 0.11299285
0.13179088 0.16082907 0.111569315
0.13169229 0.16097909 0.111569315
0.12675089 0.16601914 0.11175725
0.12507087 0.16601914 0.112693995
0.13515091 0.1559391 0.11179033
0.13548583 0.1559391 0.111569315
0.124620974 0.1676991 0.111569315
0.12705469 0.16601914 0.111569315
0.1284309 0.16433913 0.11196622
0.12903887 0.16433913 0.111569315
0.1284309 0.16489863 0.111569315
0.12507087 0.16733354 0.111569315
0.12675089 0.1662274 0.111569315
0.13011092 0.16331387 0.111569315
0.13683087 0.15177256 0.11324933
0.13683087 0.15717506 0.10988936
0.13644922 0.15761912 0.10988936
0.13515091 0.15761912 0.11086771
0.13683087 0.1559391 0.110699266
0.13515091 0.15929914 0.10996273
0.1334709 0.15929914 0.111171275
0.13515091 0.1594345 0.10988936
0.13415658 0.16097909 0.10988936
0.1334709 0.16265911 0.10998115
0.13179088 0.16265911 0.11102787
0.13179088 0.16097909 0.11150691
0.1334709 0.16097909 0.11040279
0.13356179 0.16265911 0.10988936
0.13523668 0.15929914 0.10988936
0.12507087 0.16937912 0.109911054
0.12675089 0.16819495 0.10988936
0.12507087 0.1676991 0.111275524
0.12755585 0.1676991 0.10988936
0.12675089 0.1676991 0.11030474
0.13011092 0.16433913 0.11104652
0.1284309 0.16601914 0.11076215
0.13011092 0.16601914 0.109910876
0.13017029 0.16601914 0.10988936
0.13179088 0.1652472 0.10988936
0.1334709 0.1635645 0.10988936
0.13179088 0.16433913 0.11072001
0.1332848 0.16433913 0.10988936
0.13011092 0.16605002 0.10988936
0.1284309 0.16715658 0.10988936
0.1334709 0.17609912 0.09874627
0.13179088 0.17609912 0.09931126
0.13515091 0.17609912 0.09847042
0.13011092 0.17777914 0.09832463
0.1284309 0.17777914 0.09928939
0.13515091 0.16601914 0.105686635
0.1334709 0.1676991 0.10558584
0.13179088 0.16937912 0.10551062
0.13683087 0.15761912 0.109591454
0.13515091 0.16097909 0.10911766
0.13683087 0.15929914 0.10859373
0.1284309 0.1676991 0.10945687
0.13011092 0.1676991 0.108759135
0.13515091 0.16265911 0.10845646
0.13179088 0.16601914 0.10912785
0.1334709 0.16433913 0.109668344
0.1334709 0.17273915 0.10165414
0.13179088 0.17273915 0.10244426
0.1334709 0.17105913 0.10278228
0.13515091 0.17105913 0.10200885
0.13011092 0.1744191 0.10185829
0.1284309 0.1744191 0.102875024
0.12675089 0.17609912 0.102312
0.1401909 0.15473944 0.10988936
0.14101565 0.15425915 0.10988936
0.1401909 0.1559391 0.108962506
0.13851088 0.15568006 0.10988936
0.13851088 0.1559391 0.10968968
0.13816828 0.1559391 0.10988936
0.13851088 0.15761912 0.10847017
0.14187092 0.1559391 0.10832575
0.13851088 0.15425915 0.1109328
0.1401909 0.15425915 0.11022666
0.1284309 0.17105913 0.10635701
0.13011092 0.17105913 0.10512063
0.12675089 0.17273915 0.10576573
0.12507087 0.1744191 0.105407566
0.14523089 0.15909147 0.10484937
0.14523089 0.15929914 0.10471699
0.14355087 0.16097909 0.10427943
0.14187092 0.16265911 0.103729874
0.1401909 0.16265911 0.10448524
0.14523089 0.16097909 0.10361752
0.13851088 0.16601914 0.10386047
0.1401909 0.16433913 0.10381678
0.13851088 0.16433913 0.104831725
0.1334709 0.15500802 0.11324933
0.13601208 0.15257913 0.11324933
0.13515091 0.15425915 0.112831265
0.13428539 0.15425915 0.11324933
0.13515091 0.1534214 0.11324933
POLYGONS 683 2732
3 0 1 2
3 3 4 5
3 3 6 4
3 3 2 6
3 2 1 6
3 7 8 9
3 10 8 7
3 7 11 10
3 12 1 0
3 13 1 12
3 12 9 13
3 9 14 13
3 9 8 14
3 15 13 16
3 15 1 13
3 15 6 1
3 16 13 14
3 14 17 16
3 18 14 8
3 14 18 17
3 19 20 21
3 22 20 19
3 23 20 22
3 24 25 26
3 26 25 27
3 24 28 25
3 24 21 28
3 21 20 28
3 20 29 28
3 29 20 23
3 23 30 29
3 25 28 27
3 31 32 33
3 31 34 32
3 34 35 32
3 34 36 35
3 36 37 35
3 22 38 23
3 22 33 38
3 33 32 38
3 32 39 38
3 32 35 39
3 36 40 37
3 23 38 30
3 41 42 43
3 42 44 45
3 45 43 42
3 46 47 48
3 49 47 46
3 46 50 49
3 51 52 53
3 54 55 56
3 54 44 55
3 44 57 55
3 57 58 55
3 54 45 44
3 51 59 52
3 51 60 59
3 51 55 60
3 51 56 55
3 55 58 60
3 61 62 63
3 61 64 62
3 61 53 64
3 53 65 64
3 53 52 65
3 50 66 49
3 50 67 66
3 50 63 67
3 63 62 67
3 62 64 67
3 52 59 65
3 68 69 40
3 70 69 68
3 71 69 70
3 72 73 74
3 75 76 77
3 78 73 79
3 79 73 72
3 77 80 78
3 79 77 78
3 76 81 80
3 77 76 80
3 48 82 76
3 75 48 76
3 47 83 82
3 48 47 82
3 49 84 83
3 83 47 49
3 76 82 81
3 78 80 85
3 49 66 84
3 86 87 88
3 89 77 86
3 88 89 86
3 90 91 77
3 89 90 77
3 72 87 86
3 91 75 77
3 86 77 79
3 86 79 72
3 91 48 75
3 92 93 94
3 92 95 96
3 96 93 92
3 97 98 99
3 100 101 102
3 101 103 98
3 97 101 98
3 97 102 101
3 101 104 103
3 94 93 101
3 100 94 101
3 105 93 106
3 93 107 101
3 105 107 93
3 93 96 106
3 107 108 104
3 104 101 107
3 107 105 108
3 95 109 96
3 96 110 106
3 98 111 112
3 57 98 112
3 57 99 98
3 111 113 112
3 112 113 114
3 98 103 111
3 115 36 34
3 116 117 118
3 114 119 120
3 120 119 121
3 115 117 36
3 116 120 117
3 120 121 117
3 115 118 117
3 68 117 121
3 117 40 36
3 117 68 40
3 121 70 68
3 122 123 124
3 124 123 125
3 125 123 126
3 127 128 129
3 128 2 130
3 129 128 130
3 131 129 130
3 131 130 132
3 130 5 122
3 132 130 122
3 124 132 122
3 128 0 2
3 133 134 135
3 135 134 136
3 130 2 3
3 130 3 5
3 136 134 137
3 127 136 137
3 127 137 128
3 138 134 133
3 139 138 133
3 137 134 138
3 9 137 138
3 9 138 7
3 140 141 139
3 133 140 139
3 142 143 11
3 11 139 142
3 139 11 7
3 7 138 139
3 137 9 12
3 137 12 0
3 0 128 137
3 142 144 143
3 145 146 147
3 148 149 150
3 145 150 149
3 149 151 152
3 149 152 146
3 145 149 146
3 4 153 154
3 4 154 149
3 5 4 149
3 148 5 149
3 155 146 156
3 149 154 151
3 6 157 153
3 153 4 6
3 146 152 158
3 155 147 146
3 158 159 156
3 146 158 156
3 6 15 157
3 156 159 160
3 161 162 163
3 164 165 166
3 164 163 165
3 163 162 165
3 94 167 92
3 94 162 167
3 162 168 165
3 169 162 161
3 167 162 169
3 169 170 167
3 165 171 42
3 41 166 165
3 102 165 100
3 165 168 100
3 94 168 162
3 92 167 172
3 172 95 92
3 41 165 42
3 171 102 97
3 168 94 100
3 102 171 165
3 99 42 97
3 42 171 97
3 99 44 42
3 172 109 95
3 44 99 57
3 173 174 175
3 176 174 173
3 177 174 176
3 178 179 180
3 181 182 183
3 184 182 181
3 185 182 184
3 176 186 177
3 187 188 189
3 187 190 188
3 187 180 190
3 180 179 190
3 185 191 192
3 184 189 185
3 189 188 185
3 188 193 185
3 176 183 186
3 183 192 186
3 183 182 192
3 192 182 185
3 193 194 191
3 193 195 194
3 195 188 155
3 188 190 155
3 195 193 188
3 191 185 193
3 177 186 196
3 175 174 197
3 197 174 177
3 177 196 197
3 198 199 200
3 201 202 203
3 151 204 152
3 153 205 154
3 151 154 204
3 154 205 204
3 159 206 207
3 160 159 207
3 158 206 159
3 178 208 179
3 178 126 208
3 179 208 145
3 208 150 145
3 147 190 145
3 190 179 145
3 150 123 122
3 150 208 123
3 126 123 208
3 150 122 148
3 122 5 148
3 190 147 155
3 209 210 211
3 212 213 214
3 214 213 215
3 211 216 212
3 211 210 216
3 214 217 212
3 217 211 212
3 218 219 220
3 221 222 223
3 224 216 210
3 129 225 127
3 129 222 225
3 218 223 226
3 223 222 226
3 215 213 225
3 218 226 219
3 221 225 222
3 221 215 225
3 227 126 71
3 227 125 126
3 219 228 227
3 70 227 71
3 229 220 227
3 220 219 227
3 129 226 222
3 229 227 230
3 226 129 131
3 228 132 124
3 219 226 131
3 132 228 219
3 228 124 125
3 132 219 131
3 70 230 227
3 125 227 228
3 133 216 224
3 224 140 133
3 216 133 135
3 225 136 127
3 225 213 212
3 135 212 216
3 136 212 135
3 136 225 212
3 224 141 140
3 231 232 233
3 233 88 234
3 233 234 235
3 231 233 235
3 16 236 15
3 16 17 236
3 237 238 239
3 238 240 239
3 237 241 238
3 241 237 242
3 243 244 245
3 243 246 244
3 247 248 249
3 250 251 252
3 251 253 252
3 253 254 252
3 251 250 255
3 256 257 258
3 251 259 260
3 251 255 259
3 260 261 257
3 260 259 261
3 160 207 262
3 263 264 265
3 265 266 263
3 265 264 267
3 268 201 203
3 263 203 269
3 270 200 271
3 267 264 200
3 264 198 200
3 272 200 270
3 272 267 200
3 266 203 263
3 266 268 203
3 198 264 263
3 263 269 198
3 234 87 74
3 87 72 74
3 88 87 234
3 258 273 246
3 244 274 232
3 244 273 274
3 244 275 245
3 244 232 275
3 276 277 248
3 278 277 276
3 279 280 281
3 280 282 281
3 278 281 283
3 284 282 285
3 286 277 283
3 277 278 283
3 252 287 250
3 252 288 287
3 244 246 273
3 249 289 254
3 279 278 276
3 279 281 278
3 252 289 288
3 252 254 289
3 290 288 289
3 255 291 259
3 277 286 292
3 289 293 290
3 261 259 294
3 259 291 294
3 261 295 257
3 261 294 295
3 296 297 285
3 281 284 283
3 282 296 285
3 284 281 282
3 249 248 292
3 248 277 292
3 249 292 289
3 292 293 289
3 258 295 273
3 295 298 273
3 299 294 291
3 300 301 302
3 303 295 294
3 294 304 303
3 295 303 298
3 258 257 295
3 250 287 300
3 301 287 305
3 255 300 291
3 255 250 300
3 299 291 302
3 291 300 302
3 287 288 305
3 301 300 287
3 288 290 305
3 273 298 274
3 294 299 304
3 306 240 238
3 275 232 231
3 307 308 309
3 310 307 309
3 285 310 309
3 285 309 284
3 283 284 309
3 309 311 312
3 283 309 312
3 285 297 310
3 283 312 286
3 274 233 232
3 242 310 297
3 312 311 313
3 314 312 313
3 315 316 317
3 317 318 315
3 319 315 318
3 318 314 319
3 311 320 313
3 314 318 312
3 292 318 317
3 292 317 293
3 320 311 309
3 309 308 320
3 317 316 293
3 293 316 290
3 286 312 318
3 292 286 318
3 90 321 322
3 323 321 233
3 298 323 233
3 274 298 233
3 299 324 325
3 304 299 325
3 323 325 322
3 321 323 322
3 301 326 327
3 302 301 327
3 302 327 299
3 305 326 301
3 303 304 325
3 325 323 303
3 303 323 298
3 326 328 327
3 329 326 330
3 316 315 331
3 332 316 331
3 333 332 331
3 315 319 331
3 332 333 330
3 329 328 326
3 326 332 330
3 328 334 335
3 335 327 328
3 327 335 324
3 299 327 324
3 290 316 332
3 305 290 332
3 305 332 326
3 325 324 322
3 328 329 334
3 194 336 191
3 155 156 195
3 336 337 191
3 191 337 192
3 156 262 338
3 195 156 338
3 194 195 338
3 338 336 194
3 192 337 186
3 156 160 262
3 339 340 196
3 196 340 197
3 339 267 272
3 336 266 265
3 265 337 336
3 186 337 265
3 338 262 268
3 338 268 266
3 266 336 338
3 186 265 267
3 186 267 339
3 196 186 339
3 71 126 178
3 60 58 341
3 60 341 59
3 57 112 58
3 341 118 342
3 59 341 342
3 65 59 342
3 64 342 115
3 342 118 115
3 341 120 116
3 341 116 118
3 65 342 64
3 112 114 120
3 58 112 120
3 58 120 341
3 67 64 115
3 67 115 34
3 67 34 343
3 67 343 66
3 320 308 344
3 313 345 314
3 313 43 345
3 313 41 43
3 307 344 308
3 344 346 320
3 324 347 48
3 347 46 48
3 46 347 348
3 348 50 46
3 334 347 335
3 348 347 334
3 322 324 91
3 324 48 91
3 345 43 45
3 45 349 345
3 322 91 90
3 335 347 324
3 313 346 41
3 313 320 346
3 345 349 319
3 319 314 345
3 334 329 348
3 329 350 348
3 350 63 348
3 350 61 63
3 331 349 54
3 331 319 349
3 349 45 54
3 351 56 51
3 330 351 51
3 330 333 351
3 331 56 351
3 331 54 56
3 331 351 333
3 330 350 329
3 330 53 350
3 330 51 53
3 350 53 61
3 348 63 50
3 35 352 353
3 35 354 352
3 37 355 354
3 37 40 355
3 356 176 173
3 37 354 35
3 39 353 38
3 39 35 353
3 27 28 175
3 28 173 175
3 28 357 173
3 173 357 356
3 29 357 28
3 30 357 29
3 356 357 30
3 27 175 358
3 181 353 352
3 352 184 181
3 356 183 176
3 352 189 184
3 30 38 356
3 38 183 356
3 38 353 183
3 353 181 183
3 189 354 187
3 354 355 187
3 189 352 354
3 355 180 187
3 40 69 355
3 180 71 178
3 180 355 71
3 355 69 71
3 359 360 361
3 362 363 364
3 361 363 362
3 362 359 361
3 364 363 365
3 163 361 161
3 163 363 361
3 163 365 363
3 307 365 344
3 307 364 365
3 161 361 366
3 366 169 161
3 366 170 169
3 346 166 41
3 166 344 164
3 344 365 164
3 166 346 344
3 365 163 164
3 367 364 310
3 367 362 364
3 362 367 368
3 368 359 362
3 242 237 310
3 237 367 310
3 239 367 237
3 368 360 359
3 310 364 307
3 82 369 19
3 82 19 21
3 370 22 19
3 19 369 370
3 83 84 370
3 370 369 83
3 81 82 21
3 81 21 371
3 83 369 82
3 81 371 80
3 66 343 31
3 66 31 33
3 370 33 22
3 343 34 31
3 371 21 24
3 84 66 33
3 84 33 370
3 371 24 26
3 80 371 26
3 80 26 372
3 85 80 372
3 373 374 110
3 375 214 215
3 108 105 376
3 104 108 376
3 375 215 376
3 105 375 376
3 104 377 103
3 376 377 104
3 106 375 105
3 214 375 378
3 106 378 375
3 110 374 378
3 106 110 378
3 220 379 380
3 220 380 218
3 223 380 221
3 379 381 380
3 114 379 119
3 103 377 380
3 113 381 379
3 114 113 379
3 111 381 113
3 111 103 380
3 111 380 381
3 378 211 217
3 378 217 214
3 121 230 70
3 119 379 229
3 230 119 229
3 379 220 229
3 230 121 119
3 380 377 376
3 380 376 221
3 380 223 218
3 376 215 221
3 88 233 321
3 321 90 89
3 321 89 88
3 382 282 280
3 306 238 383
3 297 296 384
3 384 241 242
3 385 296 282
3 382 385 282
3 297 384 242
3 385 384 296
3 386 241 384
3 386 384 385
3 383 238 241
3 386 383 241

CELL_DATA 683
SCALARS longitude float 1
LOOKUP_TABLE default
49.44309997558594
50.07040023803711
49.89820098876953
49.70610046386719
49.54309844970703
48.51190185546875
48.367401123046875
48.20479965209961
49.262901306152344
49.15869903564453
48.88130187988281
48.8302001953125
48.62620162963867
49.33980178833008
49.397499084472656
49.601600646972656
49.04990005493164
48.94810104370117
48.67020034790039
48.772300720214844
53.38399887084961
53.15950012207031
53.05459976196289
54.02080154418945
54.10540008544922
53.865699768066406
53.686500549316406
53.515899658203125
53.55929946899414
53.3224983215332
53.21699905395508
53.95029830932617
52.42210006713867
52.18830108642578
52.181400299072266
51.97269821166992
51.96620178222656
52.908599853515625
52.796199798583984
52.66460037231445
52.6088981628418
52.35940170288086
51.720001220703125
52.99850082397461
49.62080001831055
49.9275016784668
49.86869812011719
52.85219955444336
52.69409942626953
52.52109909057617
51.21200180053711
50.56119918823242
50.28089904785156
50.190399169921875
50.34159851074219
50.16419982910156
51.10380172729492
50.93629837036133
50.77119827270508
50.7943000793457
50.54999923706055
51.84749984741211
51.74720001220703
51.59709930419922
51.456298828125
51.299598693847656
52.367801666259766
52.20539855957031
52.088199615478516
51.93090057373047
51.8307991027832
51.19139862060547
51.41590118408203
51.2067985534668
51.09939956665039
54.46310043334961
53.50979995727539
54.13869857788086
54.2577018737793
53.945499420166016
53.90760040283203
53.680301666259766
53.73500061035156
53.189701080322266
53.23550033569336
53.02180099487305
52.97869873046875
52.69459915161133
52.790401458740234
53.4093017578125
54.07550048828125
52.445098876953125
54.05830001831055
53.71889877319336
53.8473014831543
53.50299835205078
53.6265983581543
54.157901763916016
53.4197998046875
53.81850051879883
54.04650115966797
53.144901275634766
48.34989929199219
47.9723014831543
48.167701721191406
49.570499420166016
48.97140121459961
49.29869842529297
49.28779983520508
49.17490005493164
49.15230178833008
48.59450149536133
48.73040008544922
48.34320068359375
48.623600006103516
48.50579833984375
48.13719940185547
48.79079818725586
48.9010009765625
48.607398986816406
47.76900100708008
47.9370002746582
49.890499114990234
49.959598541259766
49.818599700927734
49.98849868774414
50.18090057373047
49.60530090332031
51.78409957885742
51.148399353027344
50.522499084472656
50.63750076293945
51.50469970703125
50.91640090942383
50.84700012207031
51.35559844970703
51.10380172729492
51.44729995727539
51.323299407958984
50.9984016418457
50.40810012817383
50.51210021972656
50.731201171875
49.18259811401367
49.46480178833008
49.42599868774414
49.558101654052734
49.80419921875
50.130001068115234
50.08409881591797
50.19879913330078
49.3484001159668
48.3473014831543
48.53689956665039
49.722999572753906
49.97679901123047
48.64070129394531
48.809600830078125
49.003700256347656
48.245399475097656
48.02830123901367
48.51940155029297
48.5432014465332
48.41569900512695
47.66310119628906
47.82619857788086
47.7156982421875
47.81560134887695
48.1083984375
48.174598693847656
48.78580093383789
49.05799865722656
49.13059997558594
47.55339813232422
51.27299880981445
50.68560028076172
50.889801025390625
50.862300872802734
51.01599884033203
51.012298583984375
50.24470138549805
50.36880111694336
50.31629943847656
50.46080017089844
51.64789962768555
50.62310028076172
49.922000885009766
50.02000045776367
51.296600341796875
51.50090026855469
51.65510177612305
51.55569839477539
49.70800018310547
51.86349868774414
48.385799407958984
48.994998931884766
48.78450012207031
48.644100189208984
48.24959945678711
48.29410171508789
48.66429901123047
48.10139846801758
48.03179931640625
47.79880142211914
49.306400299072266
49.229400634765625
48.98619842529297
48.787200927734375
48.5078010559082
47.96649932861328
47.871498107910156
49.36759948730469
49.28919982910156
48.630699157714844
49.177101135253906
49.58760070800781
49.41849899291992
49.78730010986328
47.66790008544922
49.933799743652344
53.91640090942383
53.69219970703125
53.59109878540039
51.35639953613281
52.96580123901367
52.702598571777344
52.614898681640625
53.43320083618164
52.00379943847656
51.804100036621094
51.63570022583008
51.4718017578125
52.78419876098633
52.37839889526367
52.2504997253418
52.25519943237305
53.297298431396484
53.222801208496094
53.05699920654297
52.87110137939453
52.37889862060547
52.21200180053711
51.96839904785156
51.7859001159668
52.11800003051758
52.489498138427734
53.51539993286133
53.995201110839844
53.839298248291016
53.734798431396484
53.753501892089844
52.77870178222656
50.95349884033203
50.337100982666016
50.714698791503906
50.55289840698242
51.75790023803711
51.95240020751953
51.54199981689453
51.2052001953125
51.01430130004883
51.14739990234375
51.00279998779297
51.38639831542969
51.35240173339844
50.673500061035156
50.87900161743164
50.832801818847656
50.59320068359375
50.368099212646484
51.614601135253906
47.637001037597656
48.459598541259766
48.5713996887207
47.96649932861328
47.7588005065918
48.29029846191406
48.0166015625
49.823299407958984
49.19929885864258
47.70539855957031
49.086700439453125
49.13880157470703
49.529998779296875
49.33190155029297
48.66960144042969
49.69889831542969
49.04869842529297
48.84149932861328
50.76100158691406
50.63819885253906
50.124000549316406
50.776798248291016
50.2047004699707
50.04119873046875
49.34640121459961
50.496299743652344
49.46289825439453
50.104801177978516
49.6172981262207
50.008201599121094
50.30550003051758
49.82160186767578
50.66460037231445
50.41630172729492
47.83290100097656
47.72829818725586
48.14080047607422
48.82339859008789
48.55780029296875
48.22090148925781
48.43980026245117
48.55690002441406
47.565101623535156
54.15829849243164
54.11280059814453
54.25090026855469
54.317100524902344
49.43370056152344
49.15119934082031
48.11479949951172
47.92850112915039
48.289100646972656
48.417198181152344
54.23789978027344
54.01380157470703
50.75910186767578
51.819000244140625
51.691001892089844
51.4364013671875
52.05329895019531
53.35100173950195
52.417598724365234
52.270599365234375
52.929901123046875
52.69390106201172
52.16999816894531
53.30569839477539
53.13420104980469
53.510799407958984
52.707801818847656
53.037601470947266
54.029300689697266
53.696800231933594
53.667999267578125
53.937599182128906
53.824100494384766
52.95989990234375
52.773799896240234
53.39390182495117
53.29999923706055
54.310699462890625
54.375
54.20199966430664
53.6890983581543
54.008399963378906
53.862701416015625
54.327999114990234
54.16859817504883
50.44919967651367
50.230499267578125
49.782901763916016
49.60089874267578
49.90629959106445
49.40620040893555
50.15010070800781
50.125301361083984
51.697200775146484
51.54410171508789
53.88890075683594
51.041500091552734
50.09270095825195
49.942298889160156
51.326698303222656
51.31489944458008
51.204898834228516
52.365299224853516
50.41360092163086
50.994998931884766
52.66469955444336
52.48360061645508
53.023101806640625
52.849300384521484
49.084800720214844
49.74829864501953
49.22589874267578
49.60240173339844
50.72829818725586
50.6072998046875
50.827301025390625
50.81119918823242
53.3922004699707
53.34870147705078
52.523799896240234
51.980098724365234
52.95690155029297
52.84579849243164
53.205299377441406
53.22700119018555
51.83380126953125
51.674400329589844
52.21149826049805
52.0265007019043
52.33919906616211
52.145301818847656
51.5015983581543
51.853599548339844
51.33879852294922
53.61940002441406
52.62879943847656
47.94810104370117
54.282798767089844
49.15449905395508
49.027000427246094
49.092498779296875
49.389400482177734
49.63010025024414
49.706199645996094
49.7692985534668
48.96760177612305
50.03139877319336
53.9463005065918
48.749698638916016
49.81370162963867
49.982398986816406
50.76900100708008
50.553199768066406
50.525901794433594
50.380401611328125
49.690399169921875
50.19089889526367
50.56549835205078
50.69169998168945
49.58290100097656
49.392398834228516
50.79790115356445
50.9723014831543
50.18470001220703
50.393001556396484
53.36869812011719
53.589698791503906
53.53179931640625
53.71039962768555
52.744598388671875
52.7218017578125
53.066200256347656
53.28010177612305
51.922401428222656
52.074501037597656
52.31159973144531
51.649200439453125
52.93840026855469
53.14149856567383
53.29719924926758
51.93980026245117
51.6525993347168
50.79930114746094
51.01390075683594
51.00450134277344
50.67490005493164
51.218299865722656
51.81560134887695
51.44269943237305
52.098899841308594
52.21739959716797
52.49399948120117
52.530399322509766
51.15810012817383
51.31489944458008
51.452598571777344
52.88600158691406
51.91130065917969
52.58290100097656
51.94350051879883
52.89789962768555
52.98860168457031
52.20309829711914
52.18149948120117
52.300899505615234
52.52629852294922
53.2411994934082
52.08150100708008
53.84619903564453
53.93949890136719
53.78300094604492
53.04710006713867
53.131900787353516
53.32590103149414
52.422000885009766
52.65760040283203
52.75640106201172
53.501800537109375
53.64690017700195
53.602298736572266
51.03609848022461
50.64550018310547
50.871299743652344
50.22589874267578
51.217201232910156
51.132598876953125
51.285499572753906
51.59120178222656
51.4723014831543
50.822200775146484
51.05459976196289
51.488800048828125
50.427398681640625
50.407100677490234
50.618099212646484
51.75749969482422
51.8577995300293
52.02330017089844
52.14039993286133
49.275699615478516
49.963600158691406
49.81660079956055
49.64619827270508
49.03810119628906
49.34939956665039
52.746700286865234
52.76070022583008
52.51060104370117
52.42919921875
52.31230163574219
52.22209930419922
52.97779846191406
52.95930099487305
49.98500061035156
50.160099029541016
53.246700286865234
52.586700439453125
49.50809860229492
49.57360076904297
50.29079818725586
50.26279830932617
52.005001068115234
51.8838005065918
51.90769958496094
51.75419998168945
50.469600677490234
50.55730056762695
50.280601501464844
50.911598205566406
51.13019943237305
51.100101470947266
50.824100494384766
50.6338005065918
50.886600494384766
51.62770080566406
51.456199645996094
51.286399841308594
51.55849838256836
52.15840148925781
52.38309860229492
52.175899505615234
51.89229965209961
51.69559860229492
53.48619842529297
52.05739974975586
52.69879913330078
52.449798583984375
53.955299377441406
53.8583984375
53.733699798583984
53.58570098876953
53.64739990234375
53.42449951171875
53.321800231933594
54.1328010559082
52.60150146484375
52.496700286865234
53.24909973144531
52.288700103759766
53.08760070800781
53.11439895629883
52.90760040283203
52.87699890136719
52.02920150756836
51.85340118408203
52.18669891357422
51.659698486328125
51.515899658203125
51.26459884643555
51.40359878540039
51.38959884643555
47.81230163574219
48.39500045776367
48.25680160522461
48.06919860839844
48.512699127197266
48.284400939941406
48.34049987792969
48.55670166015625
48.89590072631836
48.702701568603516
47.98899841308594
47.88639831542969
47.69660186767578
49.345001220703125
49.0099983215332
48.83300018310547
49.20000076293945
48.683799743652344
48.42380142211914
48.292598724365234
48.05139923095703
47.966400146484375
48.52009963989258
48.379600524902344
48.102901458740234
47.70909881591797
48.716800689697266
53.19710159301758
53.31549835205078
52.950599670410156
53.056800842285156
52.785400390625
52.97159957885742
53.40729904174805
53.59600067138672
53.112098693847656
53.76919937133789
52.21379852294922
52.400901794433594
52.73320007324219
52.0968017578125
53.689300537109375
52.51359939575195
52.653099060058594
53.933101654052734
53.9640007019043
54.173099517822266
54.16350173950195
47.65449905395508
48.4734001159668
48.70610046386719
48.889198303222656
48.584999084472656
48.59159851074219
49.250099182128906
49.0973014831543
48.33089828491211
48.26300048828125
48.114200592041016
47.766998291015625
47.92620086669922
49.850799560546875
49.72779846191406
49.31159973144531
49.8567008972168
50.36989974975586
49.38010025024414
49.9724006652832
50.161800384521484
49.87419891357422
49.58829879760742
49.75849914550781
47.91780090332031
48.191898345947266
50.779300689697266
50.32600021362305
50.51639938354492
50.109901428222656
50.67539978027344
49.22740173339844
49.17559814453125
49.546600341796875
48.85559844970703
53.87910079956055
53.55649948120117
53.75740051269531
49.44309997558594
48.121299743652344
48.95940017700195
48.56760025024414
49.161399841308594
49.223201751708984
48.76409912109375
48.941001892089844
48.60850143432617
48.78670120239258
48.27579879760742
48.444801330566406
SCALARS latitude float 1
LOOKUP_TABLE default
24.33009910583496
24.308399200439453
24.147300720214844
24.197399139404297
24.17930030822754
24.24169921875
24.138399124145508
24.142099380493164
24.31570053100586
24.218299865722656
24.206100463867188
24.034000396728516
24.081499099731445
23.887500762939453
24.059600830078125
24.006099700927734
23.874099731445312
23.774999618530273
23.90399932861328
23.757299423217773
25.96500015258789
25.961599349975586
25.81529998779297
25.921899795532227
25.755599975585938
25.756999969482422
25.827699661254883
25.79840087890625
25.631099700927734
25.651599884033203
25.51099967956543
25.590900421142578
25.88319969177246
25.88629913330078
25.713699340820312
25.747600555419922
25.573699951171875
25.673200607299805
25.816699981689453
25.712499618530273
25.542999267578125
25.541200637817383
25.5718994140625
25.506099700927734
27.12929916381836
26.947500228881836
27.089599609375
26.98069953918457
26.854900360107422
26.86400032043457
26.899700164794922
26.944900512695312
26.848800659179688
26.677400588989258
26.610700607299805
26.95870018005371
26.74449920654297
26.68720054626465
26.76180076599121
26.926300048828125
26.604299545288086
26.89109992980957
26.73940086364746
26.810400009155273
26.6643009185791
26.735700607299805
26.68429946899414
26.627300262451172
26.787099838256836
26.7283992767334
26.576900482177734
26.58060073852539
25.460500717163086
25.461299896240234
25.355499267578125
27.00860023498535
26.937999725341797
26.882600784301758
27.014799118041992
26.720300674438477
26.895000457763672
26.58839988708496
26.763900756835938
26.752300262451172
26.931699752807617
26.635700225830078
26.81049919128418
26.532800674438477
26.683900833129883
26.583099365234375
26.545299530029297
26.52400016784668
27.369800567626953
27.22800064086914
27.398500442504883
27.2716007232666
27.382999420166016
27.19379997253418
27.095800399780273
27.052799224853516
27.047300338745117
27.08930015563965
26.54949951171875
26.431499481201172
26.40719985961914
26.502899169921875
26.529399871826172
26.23889923095703
26.423999786376953
26.527599334716797
26.157499313354492
26.4685001373291
26.525299072265625
26.161100387573242
26.28070068359375
26.180200576782227
26.210800170898438
26.05270004272461
26.152000427246094
26.04129981994629
26.413000106811523
26.04640007019043
26.227800369262695
26.408300399780273
26.479000091552734
26.125499725341797
26.126800537109375
26.128999710083008
25.92289924621582
25.949399948120117
25.980899810791016
25.813199996948242
25.861299514770508
25.951099395751953
25.77910041809082
25.941600799560547
25.596599578857422
25.684099197387695
25.583200454711914
25.48430061340332
24.759700775146484
24.88559913635254
24.88360023498535
24.824899673461914
24.549299240112305
24.730300903320312
24.787900924682617
24.794300079345703
24.489700317382812
24.667999267578125
24.774999618530273
24.46769905090332
24.822200775146484
24.833900451660156
24.42970085144043
24.438499450683594
24.70479965209961
24.721500396728516
24.681499481201172
24.728200912475586
24.58060073852539
24.610200881958008
24.430099487304688
24.365699768066406
24.60300064086914
24.636999130249023
24.1658992767334
24.24570083618164
24.278499603271484
24.398700714111328
24.342500686645508
24.363500595092773
24.505599975585938
24.142000198364258
24.25200080871582
24.27750015258789
24.269899368286133
23.936100006103516
24.01420021057129
24.17930030822754
23.95829963684082
24.04400062561035
24.2189998626709
24.278799057006836
24.17799949645996
23.933000564575195
23.85140037536621
23.97249984741211
23.913700103759766
24.232200622558594
23.91160011291504
24.0137996673584
23.844999313354492
23.899999618530273
27.169300079345703
27.15410041809082
27.16160011291504
27.09670066833496
26.675899505615234
26.831600189208984
26.91830062866211
27.140600204467773
27.0132999420166
27.047000885009766
26.898799896240234
27.138599395751953
26.749500274658203
26.77739906311035
26.789499282836914
26.6697998046875
26.567899703979492
27.075300216674805
26.63789939880371
26.649099349975586
26.763399124145508
26.741600036621094
26.773000717163086
26.779399871826172
26.5492000579834
26.619400024414062
24.962200164794922
24.954099655151367
24.81170082092285
24.862699508666992
24.90180015563965
24.886600494384766
24.754100799560547
24.671899795532227
24.84429931640625
24.703100204467773
24.75589942932129
24.72610092163086
24.46380043029785
24.791000366210938
24.730300903320312
24.545700073242188
24.803199768066406
24.62689971923828
24.734600067138672
24.597200393676758
24.36039924621582
24.334999084472656
24.44700050354004
24.50189971923828
24.468799591064453
24.43280029296875
24.508800506591797
24.799800872802734
24.656400680541992
24.52090072631836
23.42099952697754
23.355300903320312
23.787799835205078
23.823400497436523
23.784799575805664
23.760799407958984
23.744199752807617
23.752700805664062
23.772600173950195
24.72170066833496
24.75349998474121
24.539899826049805
24.393999099731445
24.38290023803711
24.544700622558594
24.57990074157715
24.56329917907715
24.741300582885742
24.41819953918457
24.41939926147461
24.36280059814453
25.336999893188477
25.346799850463867
25.433900833129883
25.155099868774414
25.1875
25.33489990234375
25.316299438476562
25.398799896240234
25.4237003326416
24.975000381469727
24.94300079345703
25.103900909423828
25.28569984436035
25.26460075378418
25.31529998779297
25.25860023498535
25.297700881958008
25.326400756835938
25.101900100708008
25.015600204467773
25.180500030517578
25.293100357055664
25.367399215698242
25.34630012512207
25.07390022277832
25.386600494384766
24.923999786376953
24.906400680541992
25.087400436401367
25.063600540161133
24.904300689697266
25.058700561523438
25.397499084472656
25.02090072631836
24.821399688720703
24.760000228881836
24.854999542236328
24.92970085144043
25.2283992767334
24.97640037536621
24.95319938659668
25.032400131225586
24.725799560546875
28.01609992980957
27.66550064086914
27.77739906311035
27.949100494384766
23.732900619506836
23.708200454711914
28.529199600219727
28.581499099731445
28.565799713134766
28.412799835205078
28.651599884033203
28.663700103759766
28.837099075317383
28.77720069885254
28.84079933166504
28.788799285888672
28.757200241088867
28.72410011291504
28.83370018005371
28.7455997467041
28.732200622558594
28.73870086669922
23.747900009155273
23.76799964904785
23.80389976501465
23.91119956970215
23.52549934387207
23.454099655151367
23.515300750732422
23.752399444580078
23.576900482177734
23.6830997467041
23.819400787353516
23.613100051879883
23.70210075378418
23.603099822998047
23.479799270629883
27.341400146484375
27.167400360107422
27.51810073852539
28.536699295043945
28.260299682617188
28.356199264526367
28.49530029296875
28.327999114990234
28.742399215698242
28.730199813842773
28.773799896240234
28.727699279785156
28.519500732421875
28.494199752807617
28.36009979248047
28.534900665283203
28.66710090637207
28.51810073852539
28.53190040588379
28.712799072265625
28.872699737548828
28.72319984436035
28.496400833129883
28.673999786376953
28.30069923400879
28.62529945373535
28.328800201416016
28.29129981994629
28.480300903320312
28.45479965209961
28.579500198364258
28.418500900268555
28.39459991455078
28.36479949951172
28.5310001373291
28.52199935913086
28.628999710083008
28.515499114990234
28.52750015258789
28.319499969482422
28.48579978942871
28.311800003051758
28.267200469970703
28.140499114990234
28.239599227905273
28.11479949951172
28.223899841308594
28.57349967956543
28.503000259399414
28.27090072631836
28.48419952392578
28.524200439453125
28.248600006103516
28.295400619506836
28.317100524902344
28.308000564575195
28.162700653076172
28.187299728393555
28.10890007019043
28.790700912475586
28.14259910583496
27.899599075317383
27.996400833129883
28.183399200439453
28.267099380493164
28.249000549316406
28.00200080871582
28.185199737548828
28.27400016784668
28.243000030517578
28.02910041809082
28.279699325561523
27.8794002532959
27.84980010986328
27.908000946044922
27.87220001220703
27.665800094604492
27.6914005279541
27.744600296020508
27.88249969482422
28.079599380493164
28.205799102783203
27.866899490356445
27.878000259399414
28.113100051879883
28.094100952148438
28.08340072631836
28.107900619506836
27.559600830078125
27.829599380493164
28.008699417114258
28.036300659179688
27.773000717163086
27.954999923706055
27.750099182128906
27.709400177001953
27.945100784301758
28.00469970703125
28.000499725341797
28.04360008239746
27.9606990814209
27.933500289916992
28.071800231933594
27.752500534057617
27.63249969482422
27.677600860595703
27.721099853515625
27.556400299072266
27.55470085144043
27.547000885009766
27.65019989013672
27.702999114990234
27.524200439453125
27.625600814819336
27.632699966430664
27.817399978637695
27.932300567626953
27.991300582885742
27.918500900268555
27.595399856567383
27.5177001953125
24.268999099731445
24.253700256347656
24.25819969177246
24.38050079345703
23.948999404907227
24.131500244140625
24.19099998474121
24.111000061035156
24.406099319458008
23.895299911499023
24.29789924621582
24.45039939880371
24.01059913635254
23.978099822998047
24.111400604248047
24.24220085144043
23.839500427246094
23.881999969482422
23.966899871826172
24.13789939880371
24.17020034790039
24.336299896240234
24.98189926147461
26.4468994140625
26.443099975585938
26.48200035095215
26.172100067138672
26.341899871826172
26.421899795532227
26.238500595092773
26.08060073852539
26.106300354003906
26.104799270629883
26.41010093688965
26.130800247192383
26.305200576782227
26.276399612426758
26.31839942932129
26.153799057006836
26.213499069213867
26.3700008392334
27.74519920349121
27.61389923095703
27.442899703979492
27.363500595092773
27.76650047302246
27.59510040283203
27.3169002532959
27.136499404907227
27.175500869750977
27.028799057006836
27.48080062866211
27.346500396728516
27.44070053100586
27.260400772094727
27.22439956665039
27.221099853515625
27.44540023803711
27.490100860595703
27.424999237060547
27.60569953918457
27.385499954223633
27.559499740600586
27.38680076599121
27.295299530029297
27.104999542236328
27.045900344848633
27.23780059814453
27.4064998626709
27.097299575805664
27.138599395751953
27.287500381469727
27.43320083618164
27.302099227905273
27.19529914855957
27.4424991607666
27.40839958190918
27.233200073242188
27.155500411987305
27.061199188232422
27.008800506591797
25.22960090637207
25.26409912109375
25.298500061035156
25.33919906616211
25.018299102783203
25.431900024414062
25.400299072265625
25.39859962463379
25.329299926757812
25.162799835205078
25.29800033569336
25.161699295043945
25.464399337768555
25.461200714111328
25.324199676513672
25.24679946899414
25.053499221801758
24.944599151611328
25.007099151611328
24.93120002746582
25.34910011291504
25.175500869750977
25.228900909423828
25.05109977722168
25.048500061035156
25.104799270629883
25.074600219726562
24.95330047607422
25.328500747680664
24.980100631713867
25.041000366210938
25.223600387573242
27.649999618530273
27.784799575805664
27.667600631713867
27.67340087890625
27.628299713134766
27.30590057373047
27.48040008544922
27.439699172973633
27.613800048828125
27.649499893188477
27.289899826049805
27.189599990844727
27.167400360107422
27.254100799560547
27.388500213623047
27.427099227905273
27.421899795532227
27.274499893188477
28.01460075378418
27.921499252319336
27.941999435424805
27.811100006103516
28.281600952148438
28.204700469970703
28.299100875854492
27.787399291992188
27.89900016784668
26.307600021362305
26.160600662231445
26.014400482177734
26.164899826049805
26.34160041809082
26.3302001953125
26.331499099731445
26.25819969177246
26.473100662231445
26.42919921875
26.212200164794922
26.147199630737305
26.011499404907227
26.05579948425293
26.087600708007812
26.306699752807617
26.173500061035156
26.084999084472656
26.256500244140625
26.217599868774414
26.390899658203125
25.941699981689453
25.557100296020508
25.914400100708008
25.925600051879883
25.635400772094727
25.836000442504883
26.027299880981445
25.894800186157227
25.943599700927734
25.593700408935547
25.779199600219727
25.804800033569336
25.832199096679688
25.579099655151367
25.49679946899414
25.53059959411621
25.776199340820312
25.860300064086914
25.89349937438965
25.888500213623047
25.892099380493164
26.005399703979492
25.914199829101562
25.892799377441406
25.439699172973633
25.458599090576172
25.482999801635742
25.669200897216797
25.60580062866211
25.502099990844727
25.629499435424805
25.761499404907227
25.601499557495117
25.512500762939453
25.5231990814209
27.674800872802734
27.56060028076172
27.55620002746582
28.902099609375
28.9419002532959
28.545400619506836
28.558900833129883
28.73430061340332
28.909500122070312
28.52400016784668
28.745800018310547
28.758800506591797
28.924800872802734
28.769100189208984
28.815799713134766
