# vtk DataFile Version 3.0
SHAPE_sfm_50k_v20200323
ASCII
DATASET POLYDATA
POINTS 379 float
-0.447380006313324 -0.10221000015735626 -0.07607000321149826
-0.4453299939632416 -0.09997999668121338 -0.07745999842882156
-0.4449999928474426 -0.10268999636173248 -0.07780999690294266
-0.453000009059906 -0.10606999695301056 -0.06659000366926193
-0.4521099925041199 -0.10328000038862228 -0.06877999752759933
-0.451449990272522 -0.1060200035572052 -0.0690699964761734
-0.45026999711990356 -0.10531000047922134 -0.07163000106811523
-0.45065000653266907 -0.10255999863147736 -0.07119999825954437
-0.4491499960422516 -0.10213000327348709 -0.07368999719619751
-0.4494200050830841 -0.1048400029540062 -0.07450000196695328
-0.4474000036716461 -0.10492999851703644 -0.07686000317335129
-0.4447700083255768 -0.10542000085115433 -0.07829000055789948
-0.4561600089073181 -0.10780999809503555 -0.06233999878168106
-0.4548099935054779 -0.10566999763250351 -0.0643400028347969
-0.45430999994277954 -0.10847999900579453 -0.06452000141143799
-0.4526599943637848 -0.10887999832630157 -0.06689999997615814
-0.4511899948120117 -0.10881000012159348 -0.06942000240087509
-0.45012998580932617 -0.10811000317335129 -0.07204999774694443
-0.4491499960422516 -0.10773999989032745 -0.0749099999666214
-0.44690001010894775 -0.10779000073671341 -0.07705000042915344
-0.444240003824234 -0.1081399992108345 -0.07839000225067139
-0.4600600004196167 -0.10730999708175659 -0.05803000181913376
-0.45827001333236694 -0.10732000321149826 -0.060350000858306885
-0.4596500098705292 -0.11016999930143356 -0.05779999867081642
-0.4578799903392792 -0.11017999798059464 -0.06013000011444092
-0.4559600055217743 -0.1106799989938736 -0.06227999925613403
-0.45423001050949097 -0.1113400012254715 -0.06457000225782394
-0.4524799883365631 -0.11173000186681747 -0.066880002617836
-0.451090008020401 -0.1116499975323677 -0.06943000108003616
-0.45006000995635986 -0.11094000190496445 -0.0721300020813942
-0.44808000326156616 -0.11037000268697739 -0.07429999858140945
-0.4460600018501282 -0.11042000353336334 -0.07639999687671661
-0.44387000799179077 -0.11087000370025635 -0.07830999791622162
-0.47811999917030334 -0.11873999983072281 -0.025790000334382057
-0.4764299988746643 -0.12143000215291977 -0.028179999440908432
-0.477620005607605 -0.12165000289678574 -0.025510000064969063
-0.476749986410141 -0.11849000304937363 -0.028349999338388443
-0.47519001364707947 -0.12088000029325485 -0.03077000007033348
-0.4755699932575226 -0.11796999722719193 -0.030969999730587006
-0.4739699959754944 -0.120169997215271 -0.03336000069975853
-0.47442999482154846 -0.11727000027894974 -0.03359000012278557
-0.4722900092601776 -0.11958999931812286 -0.03570999950170517
-0.4731299877166748 -0.11682000011205673 -0.03620000183582306
-0.47078999876976013 -0.11885000020265579 -0.038100000470876694
-0.47152000665664673 -0.11603999882936478 -0.03852999955415726
-0.46926000714302063 -0.1179800033569336 -0.04044000059366226
-0.46988001465797424 -0.11514999717473984 -0.040780000388622284
-0.46786999702453613 -0.11710000038146973 -0.04284000024199486
-0.46856001019477844 -0.11429999768733978 -0.04323999956250191
-0.4666300117969513 -0.11619000136852264 -0.04532000049948692
-0.4673199951648712 -0.1133899986743927 -0.04571999981999397
-0.4652799963951111 -0.11552000045776367 -0.047850001603364944
-0.46595001220703125 -0.11270999908447266 -0.048250000923871994
-0.4638200104236603 -0.11475999653339386 -0.050269998610019684
-0.46441999077796936 -0.11193999648094177 -0.05062999948859215
-0.46230000257492065 -0.1138399988412857 -0.05262000113725662
-0.46285000443458557 -0.11101999878883362 -0.052969999611377716
-0.460640013217926 -0.11342000216245651 -0.054999999701976776
-0.46121999621391296 -0.1106100007891655 -0.05536999925971031
-0.459089994430542 -0.11298000067472458 -0.057429999113082886
-0.45750001072883606 -0.11302000284194946 -0.059859998524188995
-0.455949991941452 -0.11354999989271164 -0.0622900016605854
-0.4541400074958801 -0.1141899973154068 -0.06452000141143799
-0.45238998532295227 -0.1145699992775917 -0.06683000177145004
-0.4508900046348572 -0.11448000371456146 -0.06932000070810318
-0.44975998997688293 -0.11375000327825546 -0.07197000086307526
-0.4478699862957001 -0.11315000057220459 -0.07418999820947647
-0.44593000411987305 -0.11315999925136566 -0.07635000348091125
-0.44387000799179077 -0.11362999677658081 -0.07840000092983246
-0.4418199956417084 -0.11118999868631363 -0.08038000017404556
-0.4419200122356415 -0.11393000185489655 -0.08055999875068665
-0.4759899973869324 -0.12437000125646591 -0.02807999961078167
-0.474700003862381 -0.12379000335931778 -0.030659999698400497
-0.47325998544692993 -0.12300000339746475 -0.03313000127673149
-0.47165998816490173 -0.12244000285863876 -0.035509999841451645
-0.4701499938964844 -0.12167999893426895 -0.037870001047849655
-0.468639999628067 -0.12082000076770782 -0.040219999849796295
-0.46720001101493835 -0.11992999911308289 -0.04258999973535538
-0.4659700095653534 -0.11902999877929688 -0.04506999999284744
-0.4646500051021576 -0.1183599978685379 -0.047600001096725464
-0.46327000856399536 -0.11761000007390976 -0.05008000135421753
-0.46180999279022217 -0.11670000106096268 -0.052480001002550125
-0.46024999022483826 -0.11627999693155289 -0.054910000413656235
-0.4588100016117096 -0.1158600002527237 -0.05739999935030937
-0.4575499892234802 -0.11591999977827072 -0.06004999950528145
-0.45583000779151917 -0.11642999947071075 -0.06238999962806702
-0.4540500044822693 -0.11705999821424484 -0.0646200031042099
-0.4525099992752075 -0.11743000149726868 -0.06707999855279922
-0.4507800042629242 -0.11731000244617462 -0.06942000240087509
-0.4491199851036072 -0.11649999767541885 -0.07169000059366226
-0.4475399851799011 -0.1159299984574318 -0.07410000264644623
-0.44574999809265137 -0.11595000326633453 -0.07639999687671661
-0.4438199996948242 -0.11641000211238861 -0.07857000082731247
-0.44179999828338623 -0.1166900023818016 -0.08066000044345856
-0.4743500053882599 -0.12669000029563904 -0.03027000091969967
-0.4754199981689453 -0.1272200047969818 -0.027569999918341637
-0.4729599952697754 -0.12589000165462494 -0.03277000039815903
-0.4712800085544586 -0.12530000507831573 -0.03511999920010567
-0.4696800112724304 -0.12453000247478485 -0.03742000088095665
-0.46834999322891235 -0.12370999902486801 -0.039889998733997345
-0.46672001481056213 -0.12276999652385712 -0.0421300008893013
-0.4654200077056885 -0.12184000015258789 -0.04455000162124634
-0.46415001153945923 -0.12118999660015106 -0.047109998762607574
-0.46279001235961914 -0.12043999880552292 -0.04961000010371208
-0.46147000789642334 -0.11956000328063965 -0.05209000036120415
-0.46004998683929443 -0.119159996509552 -0.05460000038146973
-0.4587100148200989 -0.11874999850988388 -0.05714999884366989
-0.45723000168800354 -0.11879000067710876 -0.05967999994754791
-0.4555499851703644 -0.11928000301122665 -0.06204000115394592
-0.45392000675201416 -0.11992000043392181 -0.06437999755144119
-0.4522800147533417 -0.12027999758720398 -0.06678000092506409
-0.45065000653266907 -0.12014999985694885 -0.06919000297784805
-0.44905999302864075 -0.11931999772787094 -0.07152999937534332
-0.44727998971939087 -0.11869999766349792 -0.0737600028514862
-0.44550999999046326 -0.11872000247240067 -0.07608000189065933
-0.4436100125312805 -0.11917000263929367 -0.0782800018787384
-0.4416399896144867 -0.119439996778965 -0.08041000366210938
-0.4738599956035614 -0.12960000336170197 -0.029990000650286674
-0.4749000072479248 -0.13011999428272247 -0.027310000732541084
-0.4727199971675873 -0.12883999943733215 -0.03262000158429146
-0.4711199998855591 -0.12825000286102295 -0.03506999835371971
-0.4694199860095978 -0.12744000554084778 -0.03731999918818474
-0.46779000759124756 -0.1265600025653839 -0.039570000022649765
-0.4662500023841858 -0.12563000619411469 -0.04187000170350075
-0.46491000056266785 -0.12467999756336212 -0.044280000030994415
-0.46362000703811646 -0.12403000146150589 -0.046810001134872437
-0.4622400104999542 -0.12328000366687775 -0.0492900013923645
-0.46097999811172485 -0.12241999804973602 -0.05178000032901764
-0.4596000015735626 -0.12204000353813171 -0.054329998791217804
-0.45831000804901123 -0.12163999676704407 -0.05693000182509422
-0.4567300081253052 -0.121629998087883 -0.059369999915361404
-0.4551900029182434 -0.12212999910116196 -0.061799999326467514
-0.45346999168395996 -0.1227400004863739 -0.06411000341176987
-0.45184001326560974 -0.12308000028133392 -0.06650000065565109
-0.4502600133419037 -0.1229500025510788 -0.06896000355482101
-0.44868001341819763 -0.12211000174283981 -0.07126999646425247
-0.4469299912452698 -0.12146999686956406 -0.07354000210762024
-0.44512999057769775 -0.12145999819040298 -0.07582999765872955
-0.44317999482154846 -0.12188000231981277 -0.07799000293016434
-0.44122999906539917 -0.12213999778032303 -0.0801599994301796
-0.4740400016307831 -0.13293999433517456 -0.02759999968111515
-0.4728499948978424 -0.13237999379634857 -0.03020000085234642
-0.471670001745224 -0.13162000477313995 -0.0327799990773201
-0.47036999464035034 -0.13109000027179718 -0.03537999838590622
-0.4687899947166443 -0.13027000427246094 -0.03773000091314316
-0.46713998913764954 -0.12936000525951385 -0.039969999343156815
-0.4655599892139435 -0.12842999398708344 -0.042249999940395355
-0.46421000361442566 -0.12748999893665314 -0.04464999958872795
-0.462799996137619 -0.1268099993467331 -0.047109998762607574
-0.46136999130249023 -0.12604999542236328 -0.049539998173713684
-0.459960013628006 -0.1251399964094162 -0.05192999914288521
-0.4584900140762329 -0.12472999840974808 -0.054409999400377274
-0.4571399986743927 -0.12431000173091888 -0.05697000026702881
-0.4557900130748749 -0.12436000257730484 -0.0595100000500679
-0.4543299973011017 -0.12487000226974487 -0.061969999223947525
-0.4527300000190735 -0.12547999620437622 -0.06436999887228012
-0.45113998651504517 -0.12581999599933624 -0.06678999960422516
-0.4495700001716614 -0.12567999958992004 -0.06925000250339508
-0.4480400085449219 -0.12483000010251999 -0.07158000022172928
-0.4463300108909607 -0.12419000267982483 -0.07387000322341919
-0.44446998834609985 -0.12414000183343887 -0.07610999792814255
-0.44255998730659485 -0.12454000115394592 -0.07829999923706055
-0.4406599998474121 -0.1247899979352951 -0.08050999790430069
-0.4730199873447418 -0.13568000495433807 -0.028130000457167625
-0.47176000475883484 -0.1350799947977066 -0.030649999156594276
-0.470550000667572 -0.13428999483585358 -0.03319999948143959
-0.4692099988460541 -0.13377000391483307 -0.035739999264478683
-0.4679799973964691 -0.1330299973487854 -0.03829000145196915
-0.46661999821662903 -0.1321299970149994 -0.04072999954223633
-0.4652000069618225 -0.13120000064373016 -0.043129999190568924
-0.4634599983692169 -0.13023999333381653 -0.04527999833226204
-0.46187999844551086 -0.12952999770641327 -0.047609999775886536
-0.4603799879550934 -0.1287499964237213 -0.04997999966144562
-0.45892998576164246 -0.1278200000524521 -0.05232999846339226
-0.4573799967765808 -0.12737999856472015 -0.054749999195337296
-0.45598000288009644 -0.12693999707698822 -0.057270001620054245
-0.45473000407218933 -0.127020001411438 -0.059849999845027924
-0.4535199999809265 -0.1275700032711029 -0.06241999939084053
-0.4519999921321869 -0.1281999945640564 -0.06488999724388123
-0.4503900110721588 -0.12852999567985535 -0.06729000061750412
-0.44874998927116394 -0.12836000323295593 -0.06971000134944916
-0.4472399950027466 -0.1274999976158142 -0.07203000038862228
-0.44558000564575195 -0.1268399953842163 -0.07434000074863434
-0.4437200129032135 -0.12678000330924988 -0.07654999941587448
-0.4418700039386749 -0.12716999650001526 -0.07878000289201736
-0.4401000142097473 -0.12741999328136444 -0.08111000061035156
-0.47196000814437866 -0.13839000463485718 -0.028610000386834145
-0.4708400070667267 -0.13779999315738678 -0.03117999993264675
-0.46970000863075256 -0.13702000677585602 -0.03376999869942665
-0.4682700037956238 -0.13648000359535217 -0.036249998956918716
-0.46709001064300537 -0.13579000532627106 -0.03878999873995781
-0.4659700095653534 -0.13495999574661255 -0.04137999936938286
-0.4645400047302246 -0.1340000033378601 -0.043779999017715454
-0.46279001235961914 -0.13300000131130219 -0.045910000801086426
-0.4612100124359131 -0.13228000700473785 -0.048239998519420624
-0.4597100019454956 -0.13149000704288483 -0.050599999725818634
-0.45816999673843384 -0.1305599957704544 -0.052889999002218246
-0.45664000511169434 -0.13011999428272247 -0.055319998413324356
-0.4553000032901764 -0.1296900063753128 -0.05787000060081482
-0.45416000485420227 -0.12974999845027924 -0.060520000755786896
-0.45285001397132874 -0.130280002951622 -0.06305000185966492
-0.4511899948120117 -0.13088999688625336 -0.06541000306606293
-0.44953998923301697 -0.13120000064373016 -0.06776999682188034
-0.4479900002479553 -0.13102999329566956 -0.07023999840021133
-0.44642001390457153 -0.13015000522136688 -0.0725099965929985
-0.44481000304222107 -0.12950000166893005 -0.0748400017619133
-0.44286999106407166 -0.12939000129699707 -0.07699000090360641
-0.44113001227378845 -0.12976999580860138 -0.07930000126361847
-0.4393399953842163 -0.13001999258995056 -0.08160000294446945
-0.4702500104904175 -0.14066000282764435 -0.03136000037193298
-0.4714199900627136 -0.1412699967622757 -0.02881000004708767
-0.4691999852657318 -0.1398800015449524 -0.03400000184774399
-0.46779999136924744 -0.1393599957227707 -0.03652999922633171
-0.4663499891757965 -0.1386300027370453 -0.03891000151634216
-0.46511998772621155 -0.13777999579906464 -0.04137999936938286
-0.4639100134372711 -0.13686999678611755 -0.043880000710487366
-0.46261999011039734 -0.1359100043773651 -0.04633000120520592
-0.4609900116920471 -0.13516999781131744 -0.04864000156521797
-0.4594700038433075 -0.13436999917030334 -0.05098000168800354
-0.45798999071121216 -0.13342000544071198 -0.05330999940633774
-0.45645999908447266 -0.13298000395298004 -0.05573999881744385
-0.45521000027656555 -0.13253000378608704 -0.058329999446868896
-0.45405998826026917 -0.1325799971818924 -0.061000000685453415
-0.4524199962615967 -0.13309000432491302 -0.06334999948740005
-0.4506399929523468 -0.13367000222206116 -0.06560000032186508
-0.44898998737335205 -0.1339700073003769 -0.06795000284910202
-0.4475399851799011 -0.13378000259399414 -0.07046999782323837
-0.4457800090312958 -0.13287000358104706 -0.07259999960660934
-0.4440299868583679 -0.13218000531196594 -0.07479999959468842
-0.44246000051498413 -0.13210000097751617 -0.0772399976849556
-0.44071999192237854 -0.1324699968099594 -0.07954999804496765
-0.4389599859714508 -0.13270999491214752 -0.0818599984049797
-0.469870001077652 -0.14358000457286835 -0.03170999884605408
-0.4709100127220154 -0.1441899985074997 -0.029069999232888222
-0.4686099886894226 -0.14274999499320984 -0.03426000103354454
-0.46685999631881714 -0.14214999973773956 -0.03654000163078308
-0.4653500020503998 -0.14137999713420868 -0.03886000066995621
-0.46421998739242554 -0.14056000113487244 -0.04139000177383423
-0.4632999897003174 -0.13973000645637512 -0.044029999524354935
-0.4619700014591217 -0.13877999782562256 -0.046470001339912415
-0.4605500102043152 -0.13806000351905823 -0.048909999430179596
-0.45914000272750854 -0.13726000487804413 -0.05130999907851219
-0.4578999876976013 -0.13630999624729156 -0.05375000089406967
-0.45653000473976135 -0.13583999872207642 -0.05626999959349632
-0.455269992351532 -0.1353899985551834 -0.0588500015437603
-0.45388999581336975 -0.1354299932718277 -0.061400000005960464
-0.4521400034427643 -0.13593000173568726 -0.06367000192403793
-0.4504300057888031 -0.1365099996328354 -0.06597000360488892
-0.4492399990558624 -0.13670000433921814 -0.0686199963092804
-0.4476099908351898 -0.1364700049161911 -0.07102999836206436
-0.44550999999046326 -0.13562999665737152 -0.07284999638795853
-0.4437899887561798 -0.13492999970912933 -0.07507999986410141
-0.44231000542640686 -0.1348399966955185 -0.07756999880075455
-0.4404900074005127 -0.135220006108284 -0.07983999699354172
-0.43863001465797424 -0.13545000553131104 -0.08205000311136246
-0.47005000710487366 -0.1469999998807907 -0.0294599998742342
-0.4690900146961212 -0.14640000462532043 -0.0321200005710125
-0.467849999666214 -0.1455399990081787 -0.03465000167489052
-0.46630001068115234 -0.14493000507354736 -0.037060000002384186
-0.4647800028324127 -0.14416000247001648 -0.039409998804330826
-0.4634000062942505 -0.1433199942111969 -0.04179999977350235
-0.4624199867248535 -0.14249999821186066 -0.04441000148653984
-0.4612399935722351 -0.14158999919891357 -0.04693000018596649
-0.4598200023174286 -0.14088000357151031 -0.04936999827623367
-0.45827001333236694 -0.14003999531269073 -0.051669999957084656
-0.4572499990463257 -0.13912999629974365 -0.05420999974012375
-0.456030011177063 -0.13866999745368958 -0.05680999904870987
-0.454910010099411 -0.1382099986076355 -0.059459999203681946
-0.4534899890422821 -0.1382399946451187 -0.06194999814033508
-0.4519200026988983 -0.13872000575065613 -0.06432999670505524
-0.4507800042629242 -0.13917000591754913 -0.06700000166893005
-0.45026999711990356 -0.13898000121116638 -0.06996999680995941
-0.44839000701904297 -0.13880999386310577 -0.07231000065803528
-0.4460900127887726 -0.1381099969148636 -0.07395999878644943
-0.44409000873565674 -0.13755999505519867 -0.07594999670982361
-0.4420900046825409 -0.137580007314682 -0.07806000113487244
-0.43999001383781433 -0.13796000182628632 -0.08004000037908554
-0.43810999393463135 -0.13818000257015228 -0.08219999819993973
-0.4691399931907654 -0.14967000484466553 -0.030319999903440475
-0.46818000078201294 -0.14907999336719513 -0.03297000005841255
-0.4672499895095825 -0.14824999868869781 -0.035590000450611115
-0.4661700129508972 -0.147599995136261 -0.03829000145196915
-0.46452999114990234 -0.1468300074338913 -0.04067999869585037
-0.46257999539375305 -0.14598999917507172 -0.042660001665353775
-0.4613499939441681 -0.14512999355793 -0.04510999843478203
-0.4600900113582611 -0.14420999586582184 -0.04758000001311302
-0.45848000049591064 -0.14345000684261322 -0.049869999289512634
-0.4572100043296814 -0.14267000555992126 -0.0523499995470047
-0.45642998814582825 -0.1417900025844574 -0.054999999701976776
-0.4553700089454651 -0.14135000109672546 -0.057670000940561295
-0.45434999465942383 -0.14090000092983246 -0.06036999821662903
-0.45306000113487244 -0.14090999960899353 -0.0629199966788292
-0.4519299864768982 -0.14133000373840332 -0.06554000079631805
-0.45212000608444214 -0.1413400024175644 -0.06864999979734421
-0.4510500133037567 -0.1413699984550476 -0.07152000069618225
-0.4491400122642517 -0.14113999903202057 -0.07395000010728836
-0.44668999314308167 -0.1404300034046173 -0.07558999955654144
-0.4441100060939789 -0.1401900053024292 -0.07698000222444534
-0.4416399896144867 -0.14032000303268433 -0.07846999913454056
-0.43915000557899475 -0.14061999320983887 -0.07993000000715256
-0.4372600018978119 -0.14079999923706055 -0.0820700004696846
-0.4366300106048584 -0.1379700005054474 -0.0846799984574318
-0.43564000725746155 -0.1405400037765503 -0.08444999903440475
-0.46823999285697937 -0.1523600071668625 -0.031190000474452972
-0.4672299921512604 -0.15173999965190887 -0.033799998462200165
-0.46650999784469604 -0.150969997048378 -0.0364999994635582
-0.4658200144767761 -0.150409996509552 -0.03945999965071678
-0.4636099934577942 -0.1495800018310547 -0.041450001299381256
-0.46154001355171204 -0.1486700028181076 -0.04328000172972679
-0.4603799879550934 -0.14778000116348267 -0.045779999345541
-0.459089994430542 -0.1468600034713745 -0.04822000116109848
-0.4576700031757355 -0.14612999558448792 -0.05063999816775322
-0.4566099941730499 -0.14538000524044037 -0.0532200001180172
-0.45576998591423035 -0.1445000022649765 -0.05584000051021576
-0.45471999049186707 -0.1440500020980835 -0.05852000042796135
-0.4537700116634369 -0.1436000019311905 -0.061230000108480453
-0.45285001397132874 -0.14359000325202942 -0.06395000219345093
-0.4527899920940399 -0.14386999607086182 -0.06684999912977219
-0.45247000455856323 -0.1441500037908554 -0.06988000124692917
-0.45115000009536743 -0.1442199945449829 -0.07266999781131744
-0.44940000772476196 -0.14390000700950623 -0.07526999711990356
-0.4466800093650818 -0.1431799978017807 -0.07678999751806259
-0.4438300132751465 -0.14297999441623688 -0.07769999653100967
-0.4410899877548218 -0.14306999742984772 -0.07858999818563461
-0.4384700059890747 -0.14328999817371368 -0.07977999746799469
-0.43661999702453613 -0.1434600055217743 -0.08196999877691269
-0.4351100027561188 -0.14318999648094177 -0.08440999686717987
-0.46733999252319336 -0.1551699936389923 -0.03149000182747841
-0.46634000539779663 -0.1545500010251999 -0.03412000089883804
-0.46553999185562134 -0.15376999974250793 -0.03680000081658363
-0.464709997177124 -0.15323999524116516 -0.03962999954819679
-0.462909996509552 -0.15241999924182892 -0.04188999906182289
-0.4609600007534027 -0.15148000419139862 -0.04383999854326248
-0.4597199857234955 -0.15057000517845154 -0.04628000035881996
-0.4584600031375885 -0.1496499925851822 -0.048739999532699585
-0.457040011882782 -0.14892999827861786 -0.05116000026464462
-0.45594000816345215 -0.14816999435424805 -0.05372000113129616
-0.455049991607666 -0.14726999402046204 -0.05632999911904335
-0.45419999957084656 -0.1468600034713745 -0.05906999856233597
-0.45333999395370483 -0.1464100033044815 -0.06179000064730644
-0.4527899920940399 -0.14643999934196472 -0.06460999697446823
-0.4526199996471405 -0.14688000082969666 -0.0675399973988533
-0.451339989900589 -0.14706000685691833 -0.0702499970793724
-0.4507899880409241 -0.14725999534130096 -0.07328999787569046
-0.4490300118923187 -0.14693999290466309 -0.07605999708175659
-0.4461599886417389 -0.14609000086784363 -0.07750999927520752
-0.4431999921798706 -0.14577999711036682 -0.07801000028848648
-0.4403899908065796 -0.14577999711036682 -0.07861000299453735
-0.43786999583244324 -0.14598000049591064 -0.07989999651908875
-0.4360699951648712 -0.14612999558448792 -0.08209999650716782
-0.4345099925994873 -0.1458600014448166 -0.08453000336885452
-0.46568000316619873 -0.1573999971151352 -0.03390999883413315
-0.4666900038719177 -0.15803000330924988 -0.031289998441934586
-0.464709997177124 -0.1565600037574768 -0.03654000163078308
-0.4636499881744385 -0.15595999360084534 -0.03919000178575516
-0.46226000785827637 -0.1552799940109253 -0.041669998317956924
-0.4606899917125702 -0.15437999367713928 -0.04391999915242195
-0.45945000648498535 -0.1534699946641922 -0.0463699996471405
-0.45813000202178955 -0.1525299996137619 -0.0487699992954731
-0.4567300081253052 -0.15181000530719757 -0.05122999846935272
-0.4555700123310089 -0.15103000402450562 -0.05375999957323074
-0.45451998710632324 -0.15011000633239746 -0.05635000020265579
-0.45357999205589294 -0.1496800035238266 -0.059050001204013824
-0.45278000831604004 -0.14925000071525574 -0.06177999824285507
-0.4520699977874756 -0.14927999675273895 -0.06459999829530716
-0.4509100019931793 -0.1493699997663498 -0.06729000061750412
-0.4500499963760376 -0.1496499925851822 -0.07004000246524811
-0.4495700001716614 -0.15006999671459198 -0.0730300024151802
-0.4452100098133087 -0.14901000261306763 -0.0774800032377243
-0.4422999918460846 -0.1485300064086914 -0.07794000208377838
-0.4607299864292145 -0.15721000730991364 -0.043129999190568924
-0.4593900144100189 -0.15626999735832214 -0.04552000015974045
-0.458189994096756 -0.15534000098705292 -0.04799000173807144
-0.4569399952888489 -0.15463000535964966 -0.050530001521110535
-0.45570001006126404 -0.15384000539779663 -0.05302000045776367
-0.4545400142669678 -0.15289999544620514 -0.05556999891996384
-0.4533100128173828 -0.15241000056266785 -0.058139998465776443
-0.4523099958896637 -0.15193000435829163 -0.06080999970436096
-0.4512999951839447 -0.15183000266551971 -0.06356000155210495
POLYGONS 675 2700
3 0 1 2
3 3 4 5
3 4 6 5
3 4 7 6
3 7 8 6
3 6 8 9
3 8 0 9
3 9 0 10
3 0 2 10
3 10 2 11
3 12 13 14
3 13 3 14
3 14 3 15
3 3 5 15
3 15 5 16
3 5 17 16
3 5 6 17
3 6 9 17
3 17 9 18
3 9 10 18
3 18 10 19
3 10 11 19
3 19 11 20
3 21 22 23
3 23 22 24
3 22 12 24
3 24 12 25
3 12 14 25
3 25 14 26
3 14 15 26
3 26 15 27
3 15 16 27
3 27 16 28
3 16 29 28
3 16 17 29
3 17 30 29
3 17 18 30
3 18 19 30
3 30 19 31
3 19 20 31
3 31 20 32
3 33 34 35
3 33 36 34
3 36 37 34
3 36 38 37
3 38 39 37
3 38 40 39
3 40 41 39
3 40 42 41
3 42 43 41
3 42 44 43
3 44 45 43
3 44 46 45
3 46 47 45
3 46 48 47
3 48 49 47
3 48 50 49
3 50 51 49
3 50 52 51
3 52 53 51
3 52 54 53
3 54 55 53
3 54 56 55
3 56 57 55
3 56 58 57
3 58 59 57
3 58 23 59
3 23 24 59
3 59 24 60
3 24 25 60
3 60 25 61
3 25 26 61
3 61 26 62
3 26 27 62
3 62 27 63
3 27 28 63
3 63 28 64
3 28 65 64
3 28 29 65
3 29 66 65
3 29 30 66
3 30 31 66
3 66 31 67
3 31 32 67
3 67 32 68
3 32 69 68
3 68 69 70
3 35 34 71
3 34 72 71
3 34 37 72
3 37 73 72
3 37 39 73
3 39 74 73
3 39 41 74
3 41 75 74
3 41 43 75
3 43 76 75
3 43 45 76
3 45 77 76
3 45 47 77
3 47 78 77
3 47 49 78
3 49 79 78
3 49 51 79
3 51 80 79
3 51 53 80
3 53 81 80
3 53 55 81
3 55 82 81
3 55 57 82
3 57 83 82
3 57 59 83
3 59 60 83
3 83 60 84
3 60 61 84
3 84 61 85
3 61 62 85
3 85 62 86
3 62 63 86
3 86 63 87
3 63 64 87
3 87 64 88
3 64 89 88
3 64 65 89
3 65 90 89
3 65 66 90
3 66 67 90
3 90 67 91
3 67 68 91
3 91 68 92
3 68 70 92
3 92 70 93
3 71 94 95
3 71 72 94
3 72 96 94
3 72 73 96
3 73 97 96
3 73 74 97
3 74 98 97
3 74 75 98
3 75 99 98
3 75 76 99
3 76 100 99
3 76 77 100
3 77 101 100
3 77 78 101
3 78 102 101
3 78 79 102
3 79 103 102
3 79 80 103
3 80 104 103
3 80 81 104
3 81 105 104
3 81 82 105
3 82 106 105
3 82 83 106
3 83 84 106
3 106 84 107
3 84 85 107
3 107 85 108
3 85 86 108
3 108 86 109
3 86 87 109
3 109 87 110
3 87 111 110
3 87 88 111
3 88 112 111
3 88 89 112
3 89 113 112
3 89 90 113
3 90 91 113
3 113 91 114
3 91 92 114
3 114 92 115
3 92 93 115
3 115 93 116
3 95 117 118
3 95 94 117
3 94 119 117
3 94 96 119
3 96 120 119
3 96 97 120
3 97 121 120
3 97 98 121
3 98 122 121
3 98 99 122
3 99 123 122
3 99 100 123
3 100 124 123
3 100 101 124
3 101 125 124
3 101 102 125
3 102 126 125
3 102 103 126
3 103 127 126
3 103 104 127
3 104 128 127
3 104 105 128
3 105 129 128
3 105 106 129
3 106 107 129
3 129 107 130
3 107 108 130
3 130 108 131
3 108 109 131
3 131 109 132
3 109 110 132
3 132 110 133
3 110 111 133
3 133 111 134
3 111 135 134
3 111 112 135
3 112 136 135
3 112 113 136
3 113 114 136
3 136 114 137
3 114 115 137
3 137 115 138
3 115 116 138
3 138 116 139
3 118 117 140
3 140 117 141
3 117 142 141
3 117 119 142
3 119 120 142
3 142 120 143
3 120 144 143
3 120 121 144
3 121 145 144
3 121 122 145
3 122 146 145
3 122 123 146
3 123 147 146
3 123 124 147
3 124 125 147
3 147 125 148
3 125 149 148
3 125 126 149
3 126 150 149
3 126 127 150
3 127 128 150
3 150 128 151
3 128 129 151
3 151 129 152
3 129 130 152
3 152 130 153
3 130 131 153
3 153 131 154
3 131 132 154
3 154 132 155
3 132 133 155
3 155 133 156
3 133 134 156
3 156 134 157
3 134 158 157
3 134 135 158
3 135 136 158
3 158 136 159
3 136 137 159
3 159 137 160
3 137 138 160
3 160 138 161
3 138 139 161
3 161 139 162
3 140 141 163
3 163 141 164
3 141 165 164
3 141 142 165
3 142 143 165
3 165 143 166
3 143 144 166
3 166 144 167
3 144 145 167
3 167 145 168
3 145 146 168
3 168 146 169
3 146 147 169
3 169 147 170
3 147 148 170
3 170 148 171
3 148 149 171
3 171 149 172
3 149 173 172
3 149 150 173
3 150 151 173
3 173 151 174
3 151 152 174
3 174 152 175
3 152 153 175
3 175 153 176
3 153 154 176
3 176 154 177
3 154 155 177
3 177 155 178
3 155 156 178
3 178 156 179
3 156 157 179
3 179 157 180
3 157 158 180
3 180 158 181
3 158 159 181
3 181 159 182
3 159 160 182
3 182 160 183
3 160 161 183
3 183 161 184
3 161 162 184
3 184 162 185
3 163 164 186
3 186 164 187
3 164 165 187
3 187 165 188
3 165 166 188
3 188 166 189
3 166 167 189
3 189 167 190
3 167 168 190
3 190 168 191
3 168 169 191
3 191 169 192
3 169 170 192
3 192 170 193
3 170 171 193
3 193 171 194
3 171 172 194
3 194 172 195
3 172 173 195
3 195 173 196
3 173 174 196
3 196 174 197
3 174 175 197
3 197 175 198
3 175 176 198
3 198 176 199
3 176 177 199
3 199 177 200
3 177 178 200
3 200 178 201
3 178 179 201
3 201 179 202
3 179 180 202
3 202 180 203
3 180 181 203
3 203 181 204
3 181 182 204
3 204 182 205
3 182 183 205
3 205 183 206
3 183 184 206
3 206 184 207
3 184 185 207
3 207 185 208
3 186 209 210
3 186 187 209
3 187 211 209
3 187 188 211
3 188 189 211
3 211 189 212
3 189 213 212
3 189 190 213
3 190 214 213
3 190 191 214
3 191 215 214
3 191 192 215
3 192 216 215
3 192 193 216
3 193 194 216
3 216 194 217
3 194 218 217
3 194 195 218
3 195 219 218
3 195 196 219
3 196 197 219
3 219 197 220
3 197 198 220
3 220 198 221
3 198 199 221
3 221 199 222
3 199 200 222
3 222 200 223
3 200 201 223
3 223 201 224
3 201 202 224
3 224 202 225
3 202 203 225
3 225 203 226
3 203 227 226
3 203 204 227
3 204 228 227
3 204 205 228
3 205 206 228
3 228 206 229
3 206 207 229
3 229 207 230
3 207 208 230
3 230 208 231
3 210 232 233
3 210 209 232
3 209 234 232
3 209 211 234
3 211 212 234
3 234 212 235
3 212 236 235
3 212 213 236
3 213 237 236
3 213 214 237
3 214 238 237
3 214 215 238
3 215 239 238
3 215 216 239
3 216 240 239
3 216 217 240
3 217 241 240
3 217 218 241
3 218 242 241
3 218 219 242
3 219 220 242
3 242 220 243
3 220 221 243
3 243 221 244
3 221 222 244
3 244 222 245
3 222 223 245
3 245 223 246
3 223 224 246
3 246 224 247
3 224 225 247
3 247 225 248
3 225 226 248
3 248 226 249
3 226 250 249
3 226 227 250
3 227 251 250
3 227 228 251
3 228 229 251
3 251 229 252
3 229 230 252
3 252 230 253
3 230 231 253
3 253 231 254
3 233 232 255
3 255 232 256
3 232 257 256
3 232 234 257
3 234 235 257
3 257 235 258
3 235 236 258
3 258 236 259
3 236 260 259
3 236 237 260
3 237 261 260
3 237 238 261
3 238 262 261
3 238 239 262
3 239 240 262
3 262 240 263
3 240 264 263
3 240 241 264
3 241 265 264
3 241 242 265
3 242 243 265
3 265 243 266
3 243 244 266
3 266 244 267
3 244 245 267
3 267 245 268
3 245 246 268
3 268 246 269
3 246 247 269
3 269 247 270
3 247 248 270
3 270 248 271
3 248 249 271
3 271 249 272
3 249 250 272
3 272 250 273
3 250 251 273
3 273 251 274
3 251 252 274
3 274 252 275
3 252 253 275
3 275 253 276
3 253 254 276
3 276 254 277
3 255 256 278
3 278 256 279
3 256 257 279
3 279 257 280
3 257 258 280
3 280 258 281
3 258 259 281
3 281 259 282
3 259 260 282
3 282 260 283
3 260 261 283
3 283 261 284
3 261 262 284
3 284 262 285
3 262 263 285
3 285 263 286
3 263 264 286
3 286 264 287
3 264 265 287
3 287 265 288
3 265 266 288
3 288 266 289
3 266 267 289
3 289 267 290
3 267 268 290
3 290 268 291
3 268 269 291
3 291 269 292
3 269 270 292
3 292 270 293
3 270 271 293
3 293 271 294
3 271 272 294
3 294 272 295
3 272 273 295
3 295 273 296
3 273 274 296
3 296 274 297
3 274 275 297
3 297 275 298
3 275 276 298
3 298 276 299
3 276 277 299
3 299 277 300
3 277 301 300
3 300 301 302
3 278 279 303
3 303 279 304
3 279 280 304
3 304 280 305
3 280 281 305
3 305 281 306
3 281 282 306
3 306 282 307
3 282 283 307
3 307 283 308
3 283 284 308
3 308 284 309
3 284 285 309
3 309 285 310
3 285 286 310
3 310 286 311
3 286 287 311
3 311 287 312
3 287 288 312
3 312 288 313
3 288 289 313
3 313 289 314
3 289 290 314
3 314 290 315
3 290 291 315
3 315 291 316
3 291 292 316
3 316 292 317
3 292 293 317
3 317 293 318
3 293 294 318
3 318 294 319
3 294 295 319
3 319 295 320
3 295 296 320
3 320 296 321
3 296 297 321
3 321 297 322
3 297 298 322
3 322 298 323
3 298 299 323
3 323 299 324
3 299 300 324
3 324 300 325
3 300 302 325
3 325 302 326
3 303 304 327
3 327 304 328
3 304 329 328
3 304 305 329
3 305 330 329
3 305 306 330
3 306 307 330
3 330 307 331
3 307 308 331
3 331 308 332
3 308 333 332
3 308 309 333
3 309 334 333
3 309 310 334
3 310 311 334
3 334 311 335
3 311 312 335
3 335 312 336
3 312 337 336
3 312 313 337
3 313 314 337
3 337 314 338
3 314 315 338
3 338 315 339
3 315 316 339
3 339 316 340
3 316 317 340
3 340 317 341
3 317 318 341
3 341 318 342
3 318 319 342
3 342 319 343
3 319 320 343
3 343 320 344
3 320 321 344
3 344 321 345
3 321 322 345
3 345 322 346
3 322 323 346
3 346 323 347
3 323 324 347
3 347 324 348
3 324 325 348
3 348 325 349
3 325 326 349
3 349 326 350
3 327 351 352
3 327 328 351
3 328 353 351
3 328 329 353
3 329 354 353
3 329 330 354
3 330 355 354
3 330 331 355
3 331 356 355
3 331 332 356
3 332 357 356
3 332 333 357
3 333 358 357
3 333 334 358
3 334 359 358
3 334 335 359
3 335 360 359
3 335 336 360
3 336 361 360
3 336 337 361
3 337 362 361
3 337 338 362
3 338 363 362
3 338 339 363
3 339 340 363
3 363 340 364
3 340 341 364
3 364 341 365
3 341 342 365
3 365 342 366
3 342 343 366
3 366 343 367
3 343 344 367
3 345 346 368
3 368 346 369
3 346 347 369
3 355 356 370
3 356 371 370
3 356 357 371
3 357 372 371
3 357 358 372
3 358 373 372
3 358 359 373
3 359 374 373
3 359 360 374
3 360 375 374
3 360 361 375
3 361 376 375
3 361 362 376
3 362 377 376
3 362 363 377
3 363 378 377
3 363 364 378

CELL_DATA 675
SCALARS longitude float 1
LOOKUP_TABLE default
192.83900451660156
193.08799743652344
193.08200073242188
192.9510040283203
192.9320068359375
193.03500366210938
192.93699645996094
193.06700134277344
193.02099609375
193.17599487304688
193.2689971923828
193.22900390625
193.3780059814453
193.3070068359375
193.43299865722656
193.427001953125
193.2949981689453
193.26699829101562
193.375
193.2729949951172
193.41600036621094
193.36500549316406
193.52499389648438
193.26300048828125
193.39599609375
193.33599853515625
193.49099731445312
193.45700073242188
193.61599731445312
193.5760040283203
193.72300720214844
193.6510009765625
193.77699279785156
193.7689971923828
193.63699340820312
193.72999572753906
193.61000061035156
193.62899780273438
193.76699829101562
193.71499633789062
193.8699951171875
194.17799377441406
194.0679931640625
194.17599487304688
194.0540008544922
194.1439971923828
194.01400756835938
194.10699462890625
193.98800659179688
194.08200073242188
193.95399475097656
194.03500366210938
193.9029998779297
193.97799682617188
193.84300231933594
193.91400146484375
193.77699279785156
193.85499572753906
193.7270050048828
193.81300354003906
193.6820068359375
193.76100158691406
193.62399291992188
193.71800231933594
193.6020050048828
193.71499633789062
193.5970001220703
193.61099243164062
193.74400329589844
193.6840057373047
193.8350067138672
193.80099487304688
193.95700073242188
193.91900634765625
194.0659942626953
193.9949951171875
194.1199951171875
194.11399841308594
193.9810028076172
194.072998046875
193.95399475097656
193.97300720214844
194.10699462890625
194.05599975585938
194.20799255371094
194.1699981689453
194.31399536132812
194.41000366210938
194.5189971923828
194.39599609375
194.48599243164062
194.3560028076172
194.44900512695312
194.32899475097656
194.4239959716797
194.29600524902344
194.3780059814453
194.24600219726562
194.32200622558594
194.18699645996094
194.25900268554688
194.12100219726562
194.2010040283203
194.07200622558594
194.16000366210938
194.0279998779297
194.10800170898438
193.9709930419922
194.06500244140625
193.947998046875
194.06100463867188
193.9429931640625
193.95799255371094
194.08900451660156
194.0260009765625
194.177001953125
194.14199829101562
194.3000030517578
194.26100158691406
194.406005859375
194.3350067138672
194.46099853515625
194.45799255371094
194.32699584960938
194.41900634765625
194.29800415039062
194.31399536132812
194.447998046875
194.39300537109375
194.54600524902344
194.50399780273438
194.64999389648438
194.85899353027344
194.73800659179688
194.8249969482422
194.69700622558594
194.78799438476562
194.6699981689453
194.76400756835938
194.63699340820312
194.718994140625
194.58799743652344
194.66299438476562
194.52999877929688
194.6020050048828
194.46499633789062
194.54400634765625
194.41799926757812
194.50399780273438
194.37399291992188
194.45199584960938
194.31700134277344
194.40899658203125
194.29400634765625
194.40499877929688
194.28799438476562
194.30099487304688
194.4320068359375
194.3699951171875
194.52200317382812
194.48599243164062
194.64300537109375
194.6009979248047
194.7469940185547
194.7899932861328
194.68800354003906
194.7989959716797
194.6699981689453
194.76199340820312
194.64199829101562
194.656005859375
194.78799438476562
194.73300170898438
194.88499450683594
194.84300231933594
194.98899841308594
195.1999969482422
195.07699584960938
195.1649932861328
195.03500366210938
195.12600708007812
195.0070037841797
195.1020050048828
194.9759979248047
195.0590057373047
194.92799377441406
195.0050048828125
194.87100219726562
194.9429931640625
194.8070068359375
194.88699340820312
194.75999450683594
194.84800720214844
194.71800231933594
194.79800415039062
194.66200256347656
194.75599670410156
194.63900756835938
194.7519989013672
194.63299560546875
194.64700317382812
194.77999877929688
194.71600341796875
194.8679962158203
194.8300018310547
194.98800659179688
194.9459991455078
195.0919952392578
195.02000427246094
195.14700317382812
195.14199829101562
195.01100158691406
195.10299682617188
194.98300170898438
194.9969940185547
195.1300048828125
195.07400512695312
195.22500610351562
195.1820068359375
195.3280029296875
195.42799377441406
195.53399658203125
195.50900268554688
195.3780059814453
195.35499572753906
195.46400451660156
195.44400024414062
195.3159942626953
195.3990020751953
195.2689971923828
195.3459930419922
195.21400451660156
195.28599548339844
195.14999389648438
195.11599731445312
195.218994140625
195.19400024414062
195.06399536132812
195.14500427246094
195.00799560546875
194.98800659179688
195.10299682617188
194.98500061035156
195.0989990234375
194.99600219726562
195.12899780273438
195.06399536132812
195.21600341796875
195.177001953125
195.3350067138672
195.29100036621094
195.43800354003906
195.36500549316406
195.49200439453125
195.48699951171875
195.35499572753906
195.33299255371094
195.4409942626953
195.33900451660156
195.4720001220703
195.4149932861328
195.5659942626953
195.52200317382812
195.66700744628906
195.77000427246094
195.87399291992188
195.8489990234375
195.72000122070312
195.697998046875
195.80499267578125
195.6719970703125
195.77000427246094
195.62600708007812
195.718994140625
195.57000732421875
195.66099548339844
195.50999450683594
195.6009979248047
195.45899963378906
195.56199645996094
195.42300415039062
195.5240020751953
195.48899841308594
195.35499572753906
195.33399963378906
195.447998046875
195.33099365234375
195.44400024414062
195.343994140625
195.47500610351562
195.41200256347656
195.56199645996094
195.5229949951172
195.6790008544922
195.63699340820312
195.78199768066406
195.7100067138672
195.83599853515625
195.7169952392578
195.81500244140625
195.677001953125
195.78399658203125
195.68099975585938
195.81399536132812
195.75599670410156
195.906005859375
195.86199951171875
196.0050048828125
196.10899353027344
196.21099853515625
196.072998046875
196.16799926757812
196.03500366210938
196.14199829101562
196.00999450683594
196.10899353027344
195.96299743652344
196.05799865722656
195.90499877929688
195.9980010986328
195.8459930419922
195.94000244140625
195.7989959716797
195.9010009765625
195.76499938964844
195.86300659179688
195.7169952392578
195.80999755859375
195.677001953125
195.79100036621094
195.6750030517578
195.78700256347656
195.68800354003906
195.81700134277344
195.75399780273438
195.90199279785156
195.86500549316406
196.02099609375
195.97999572753906
196.125
196.05299377441406
196.1790008544922
196.0590057373047
196.156005859375
196.0189971923828
196.125
196.0229949951172
196.15499877929688
196.0959930419922
196.2449951171875
196.19900512695312
196.3419952392578
196.5590057373047
196.43600463867188
196.52200317382812
196.39199829101562
196.37100219726562
196.47999572753906
196.46400451660156
196.33799743652344
196.4219970703125
196.28799438476562
196.36399841308594
196.2270050048828
196.3000030517578
196.1649932861328
196.13699340820312
196.23899841308594
196.21600341796875
196.08900451660156
196.16799926757812
196.03599548339844
196.01800537109375
196.1300048828125
196.01600646972656
196.125
196.02499389648438
196.1510009765625
196.09100341796875
196.24000549316406
196.20700073242188
196.36399841308594
196.322998046875
196.468994140625
196.39599609375
196.52000427246094
196.51400756835938
196.38499450683594
196.4759979248047
196.35400390625
196.36500549316406
196.49600219726562
196.4340057373047
196.58200073242188
196.53599548339844
196.6790008544922
196.8990020751953
196.77499389648438
196.86199951171875
196.73199462890625
196.71099853515625
196.82200622558594
196.80799865722656
196.68099975585938
196.76699829101562
196.63400268554688
196.7100067138672
196.57400512695312
196.64700317382812
196.50999450683594
196.59300231933594
196.4669952392578
196.55799865722656
196.4290008544922
196.50799560546875
196.37399291992188
196.35400390625
196.46400451660156
196.3489990234375
196.4550018310547
196.35699462890625
196.48399353027344
196.42799377441406
196.5800018310547
196.5489959716797
196.7050018310547
196.6649932861328
196.8000030517578
196.7270050048828
196.84100341796875
196.843994140625
196.7239990234375
196.81399536132812
196.69500732421875
196.70399475097656
196.8300018310547
196.7689971923828
196.91600036621094
196.8719940185547
197.01600646972656
197.1280059814453
197.22999572753906
197.2010040283203
197.0709991455078
197.052001953125
197.16000366210938
197.0330047607422
197.13299560546875
197.1060028076172
196.9770050048828
197.05299377441406
196.91900634765625
196.99200439453125
196.8560028076172
196.8249969482422
196.9290008544922
196.9040069580078
196.7740020751953
196.85299682617188
196.71499633789062
196.6909942626953
196.80299377441406
196.6820068359375
196.79200744628906
196.69200134277344
196.82200622558594
196.76699829101562
196.91700744628906
196.88600158691406
197.02699279785156
196.9810028076172
197.07899475097656
197.01100158691406
197.10400390625
197.02999877929688
197.11199951171875
197.01600646972656
197.10899353027344
197.0260009765625
197.1510009765625
197.1020050048828
197.25399780273438
197.21200561523438
197.35800170898438
197.46499633789062
197.56300354003906
197.4250030517578
197.51600646972656
197.38299560546875
197.47999572753906
197.3560028076172
197.447998046875
197.32000732421875
197.41400146484375
197.2760009765625
197.36900329589844
197.21800231933594
197.30999755859375
197.16799926757812
197.27000427246094
197.13400268554688
197.23199462890625
197.08200073242188
197.17100524902344
197.03199768066406
197.13900756835938
197.0189971923828
197.125
197.0279998779297
197.1529998779297
197.09800720214844
197.23599243164062
197.1959991455078
197.2949981689453
197.2239990234375
197.30499267578125
197.2519989013672
197.35000610351562
197.2830047607422
197.36700439453125
197.28900146484375
197.3939971923828
197.33900451660156
197.4770050048828
197.4409942626953
197.5970001220703
197.5570068359375
197.7030029296875
197.6300048828125
197.7550048828125
197.79400634765625
197.89300537109375
197.7530059814453
197.84300231933594
197.70199584960938
197.7989959716797
197.66799926757812
197.7729949951172
197.64599609375
197.75100708007812
197.61099243164062
197.7050018310547
197.5540008544922
197.64599609375
197.50599670410156
197.60699462890625
197.4709930419922
197.56700134277344
197.41600036621094
197.5030059814453
197.36399841308594
197.4709930419922
197.3509979248047
197.45599365234375
197.3560028076172
197.4770050048828
197.41200256347656
197.5290069580078
197.4510040283203
197.55299377441406
197.47799682617188
197.6009979248047
197.52499389648438
197.64300537109375
197.55099487304688
197.66000366210938
197.58200073242188
197.71600341796875
197.66700744628906
197.8179931640625
197.78399658203125
197.9409942626953
197.9010009765625
198.0449981689453
197.97300720214844
198.09500122070312
198.1280059814453
198.23199462890625
198.20199584960938
198.0679931640625
198.1540069580078
198.0260009765625
198.00900268554688
198.11900329589844
197.98699951171875
198.09100341796875
198.05999755859375
197.9290008544922
198.0030059814453
197.87100219726562
197.8419952392578
197.94500732421875
197.80599975585938
197.9040069580078
197.86599731445312
197.72799682617188
197.7010040283203
197.80999755859375
197.68600463867188
197.79200744628906
197.6840057373047
197.80499267578125
197.71400451660156
197.84300231933594
197.75900268554688
197.8990020751953
197.81500244140625
197.9550018310547
197.85800170898438
197.98899841308594
197.88299560546875
198.00799560546875
197.9199981689453
198.06500244140625
198.01199340820312
198.1649932861328
198.1280059814453
198.28399658203125
198.24099731445312
198.38400268554688
198.31100463867188
198.43299865722656
198.58299255371094
198.4600067138672
198.54299926757812
198.41099548339844
198.49600219726562
198.3730010986328
198.47000122070312
198.34800720214844
198.44000244140625
198.31399536132812
198.39599609375
198.26600646972656
198.33999633789062
198.20899963378906
198.29299926757812
198.17100524902344
198.25900268554688
198.13099670410156
198.20700073242188
198.0709991455078
198.15699768066406
198.03799438476562
198.14100646972656
198.02000427246094
198.02099609375
198.14700317382812
198.05799865722656
198.19400024414062
198.1179962158203
198.25599670410156
198.177001953125
198.31399536132812
198.22300720214844
198.281005859375
198.4250030517578
198.36199951171875
198.64500427246094
198.71800231933594
198.59500122070312
198.66200256347656
198.53799438476562
198.61300659179688
198.49899291992188
198.57899475097656
198.46099853515625
198.5290069580078
198.4029998779297
198.48399353027344
198.37399291992188
198.4709930419922
198.35800170898438
198.46800231933594
198.37100219726562
SCALARS latitude float 1
LOOKUP_TABLE default
-9.571000099182129
-8.35099983215332
-8.571000099182129
-8.666000366210938
-8.883999824523926
-9.022000312805176
-9.223999977111816
-9.359000205993652
-9.524999618530273
-9.628000259399414
-7.76200008392334
-7.952000141143799
-8.062000274658203
-8.263999938964844
-8.385000228881836
-8.607999801635742
-8.708000183105469
-8.940999984741211
-9.076000213623047
-9.291999816894531
-9.406999588012695
-9.576000213623047
-9.654000282287598
-7.093999862670898
-7.184999942779541
-7.386000156402588
-7.4710001945495605
-7.666999816894531
-7.76200008392334
-7.9670000076293945
-8.067999839782715
-8.282999992370605
-8.390000343322754
-8.616000175476074
-8.732999801635742
-8.946000099182129
-9.067999839782715
-9.291000366210938
-9.366999626159668
-9.560999870300293
-9.626999855041504
-3.0799999237060547
-3.193000078201294
-3.3910000324249268
-3.503000020980835
-3.703000068664551
-3.816999912261963
-4.008999824523926
-4.124000072479248
-4.309000015258789
-4.423999786376953
-4.599999904632568
-4.710999965667725
-4.889999866485596
-5.00600004196167
-5.193999767303467
-5.313000202178955
-5.505000114440918
-5.625999927520752
-5.817999839782715
-5.934000015258789
-6.120999813079834
-6.235000133514404
-6.422999858856201
-6.539999961853027
-6.73199987411499
-6.8520002365112305
-7.058000087738037
-7.146999835968018
-7.359000205993652
-7.449999809265137
-7.6579999923706055
-7.751999855041504
-7.956999778747559
-8.053000450134277
-8.270999908447266
-8.37399959564209
-8.597000122070312
-8.720000267028809
-8.928999900817871
-9.038000106811523
-9.236000061035156
-9.329000473022461
-9.524999618530273
-9.614999771118164
-9.809000015258789
-9.909000396728516
-3.1700000762939453
-3.374000072479248
-3.4820001125335693
-3.680999994277954
-3.7899999618530273
-3.9820001125335693
-4.086999893188477
-4.2729997634887695
-4.379000186920166
-4.565000057220459
-4.671000003814697
-4.857999801635742
-4.966000080108643
-5.1579999923706055
-5.270999908447266
-5.468999862670898
-5.584000110626221
-5.7829999923706055
-5.895999908447266
-6.091000080108643
-6.199999809265137
-6.396999835968018
-6.50600004196167
-6.709000110626221
-6.817999839782715
-7.0269999504089355
-7.135000228881836
-7.3470001220703125
-7.452000141143799
-7.650000095367432
-7.748000144958496
-7.947000026702881
-8.053999900817871
-8.262999534606934
-8.371999740600586
-8.57800006866455
-8.692000389099121
-8.902000427246094
-9.015999794006348
-9.217000007629395
-9.3149995803833
-9.517000198364258
-9.614999771118164
-9.812000274658203
-9.913000106811523
-3.3340001106262207
-3.4570000171661377
-3.6449999809265137
-3.760999917984009
-3.941999912261963
-4.053999900817871
-4.230000019073486
-4.3429999351501465
-4.5229997634887695
-4.638999938964844
-4.815999984741211
-4.927999973297119
-5.107999801635742
-5.230000019073486
-5.418000221252441
-5.544000148773193
-5.732999801635742
-5.857999801635742
-6.046999931335449
-6.168000221252441
-6.359000205993652
-6.480000019073486
-6.676000118255615
-6.796999931335449
-7.013999938964844
-7.109000205993652
-7.335000038146973
-7.420000076293945
-7.635000228881836
-7.71999979019165
-7.940000057220459
-8.031000137329102
-8.241000175476074
-8.359999656677246
-8.555000305175781
-8.670000076293945
-8.86400032043457
-8.982000350952148
-9.192999839782715
-9.281000137329102
-9.501999855041504
-9.586000442504883
-9.798999786376953
-9.883000373840332
-3.2909998893737793
-3.4089999198913574
-3.609999895095825
-3.7219998836517334
-3.9159998893737793
-4.019000053405762
-4.204999923706055
-4.302999973297119
-4.486000061035156
-4.5929999351501465
-4.7769999504089355
-4.883999824523926
-5.066999912261963
-5.177999973297119
-5.372000217437744
-5.489999771118164
-5.686999797821045
-5.804999828338623
-6.0
-6.118000030517578
-6.315999984741211
-6.435999870300293
-6.638999938964844
-6.758999824523926
-6.973999977111816
-7.067999839782715
-7.288000106811523
-7.377999782562256
-7.593999862670898
-7.683000087738037
-7.900000095367432
-7.991000175476074
-8.21399974822998
-8.307999610900879
-8.519000053405762
-8.635000228881836
-8.829000473022461
-8.942999839782715
-9.14900016784668
-9.241999626159668
-9.458000183105469
-9.545000076293945
-9.755999565124512
-9.843000411987305
-3.2920000553131104
-3.4070000648498535
-3.614000082015991
-3.7100000381469727
-3.9149999618530273
-4.0269999504089355
-4.229000091552734
-4.309999942779541
-4.51200008392334
-4.590000152587891
-4.794000148773193
-4.874000072479248
-5.085000038146973
-5.170000076293945
-5.375
-5.492000102996826
-5.697000026702881
-5.789000034332275
-6.004000186920166
-6.0980000495910645
-6.309999942779541
-6.421999931335449
-6.631999969482422
-6.744999885559082
-6.953999996185303
-7.065000057220459
-7.269999980926514
-7.38100004196167
-7.578000068664551
-7.688000202178955
-7.885000228881836
-8.0
-8.201000213623047
-8.319000244140625
-8.529999732971191
-8.621999740600586
-8.82800006866455
-8.944000244140625
-9.137999534606934
-9.251999855041504
-9.442999839782715
-9.553000450134277
-9.741999626159668
-9.854999542236328
-3.3329999446868896
-3.4549999237060547
-3.6579999923706055
-3.743000030517578
-3.9519999027252197
-4.072000026702881
-4.25600004196167
-4.374000072479248
-4.548999786376953
-4.671000003814697
-4.8379998207092285
-4.966000080108643
-5.131999969482422
-5.256999969482422
-5.426000118255615
-5.548999786376953
-5.729000091552734
-5.849999904632568
-6.050000190734863
-6.132999897003174
-6.339000225067139
-6.460000038146973
-6.656000137329102
-6.7779998779296875
-6.978000164031982
-7.10099983215332
-7.298999786376953
-7.421000003814697
-7.613999843597412
-7.736999988555908
-7.927000045776367
-8.052000045776367
-8.243000030517578
-8.369000434875488
-8.5600004196167
-8.682999610900879
-8.871000289916992
-8.993000030517578
-9.180000305175781
-9.300000190734863
-9.482999801635742
-9.60200023651123
-9.78600025177002
-9.90999984741211
-3.3910000324249268
-3.513000011444092
-3.697000026702881
-3.822000026702881
-4.00600004196167
-4.129000186920166
-4.313000202178955
-4.435999870300293
-4.619999885559082
-4.744999885559082
-4.925000190734863
-5.048999786376953
-5.215000152587891
-5.330999851226807
-5.495999813079834
-5.618000030517578
-5.791999816894531
-5.916999816894531
-6.0929999351501465
-6.215000152587891
-6.394000053405762
-6.519000053405762
-6.706999778747559
-6.8379998207092285
-7.031000137329102
-7.164999961853027
-7.357999801635742
-7.489999771118164
-7.677000045776367
-7.803999900817871
-7.98799991607666
-8.112000465393066
-8.300999641418457
-8.428999900817871
-8.619000434875488
-8.741999626159668
-8.928000450134277
-9.052000045776367
-9.237000465393066
-9.355999946594238
-9.538000106811523
-9.65999984741211
-9.848999977111816
-9.973999977111816
-3.444999933242798
-3.5399999618530273
-3.755000114440918
-3.8519999980926514
-4.057000160217285
-4.166999816894531
-4.368000030517578
-4.460999965667725
-4.669000148773193
-4.769999980926514
-4.978000164031982
-5.078000068664551
-5.2820000648498535
-5.36899995803833
-5.558000087738037
-5.670000076293945
-5.867000102996826
-5.953000068664551
-6.164999961853027
-6.250999927520752
-6.452000141143799
-6.568999767303467
-6.767000198364258
-6.889999866485596
-7.09499979019165
-7.2210001945495605
-7.422999858856201
-7.539999961853027
-7.732999801635742
-7.841000080108643
-8.03499984741211
-8.144000053405762
-8.347999572753906
-8.463000297546387
-8.668999671936035
-8.763999938964844
-8.968000411987305
-9.069999694824219
-9.27400016784668
-9.380000114440918
-9.585000038146973
-9.696000099182129
-9.897000312805176
-10.008999824523926
-3.4739999771118164
-3.565999984741211
-3.7829999923706055
-3.875999927520752
-4.084000110626221
-4.186999797821045
-4.376999855041504
-4.4730000495910645
-4.672999858856201
-4.775000095367432
-4.984000205993652
-5.085999965667725
-5.295000076293945
-5.392000198364258
-5.599999904632568
-5.692999839782715
-5.900000095367432
-5.989999771118164
-6.203000068664551
-6.290999889373779
-6.49399995803833
-6.613999843597412
-6.813000202178955
-6.938000202178955
-7.142000198364258
-7.265999794006348
-7.461999893188477
-7.572000026702881
-7.758999824523926
-7.868000030517578
-8.057999610900879
-8.180999755859375
-8.380999565124512
-8.508000373840332
-8.699999809265137
-8.779999732971191
-8.984999656677246
-9.079000473022461
-9.286999702453613
-9.404000282287598
-9.609000205993652
-9.720000267028809
-9.918999671936035
-10.027999877929688
-3.497999906539917
-3.618000030517578
-3.8259999752044678
-3.9130001068115234
-4.109000205993652
-4.2220001220703125
-4.396999835968018
-4.513000011444092
-4.708000183105469
-4.789999961853027
-5.014999866485596
-5.10699987411499
-5.333000183105469
-5.419000148773193
-5.622000217437744
-5.742000102996826
-5.940999984741211
-6.025000095367432
-6.244999885559082
-6.334000110626221
-6.541999816894531
-6.668000221252441
-6.866000175476074
-6.995999813079834
-7.191999912261963
-7.320000171661377
-7.504000186920166
-7.625
-7.802999973297119
-7.936999797821045
-8.125
-8.281000137329102
-8.463000297546387
-8.611000061035156
-8.760000228881836
-8.883000373840332
-9.027999877929688
-9.156999588012695
-9.331999778747559
-9.456999778747559
-9.640999794006348
-9.74899959564209
-9.937000274658203
-10.041999816894531
-3.562000036239624
-3.7009999752044678
-3.874000072479248
-4.01200008392334
-4.178999900817871
-4.322999954223633
-4.48199987411499
-4.626999855041504
-4.776000022888184
-4.9079999923706055
-5.065000057220459
-5.198999881744385
-5.375999927520752
-5.506999969482422
-5.684000015258789
-5.808000087738037
-5.980999946594238
-6.105999946594238
-6.288000106811523
-6.423999786376953
-6.611000061035156
-6.752999782562256
-6.940999984741211
-7.085999965667725
-7.269000053405762
-7.409999847412109
-7.583000183105469
-7.728000164031982
-7.9039998054504395
-8.069999694824219
-8.258000373840332
-8.432000160217285
-8.60200023651123
-8.762999534606934
-8.895000457763672
-9.031999588012695
-9.14900016784668
-9.277999877929688
-9.41100025177002
-9.522000312805176
-9.675999641418457
-9.763999938964844
-9.942000389099121
-10.03600025177002
-10.25
-10.352999687194824
-3.6619999408721924
-3.799999952316284
-3.9760000705718994
-4.114999771118164
-4.296000003814697
-4.447999954223633
-4.619999885559082
-4.748000144958496
-4.88700008392334
-4.995999813079834
-5.1519999504089355
-5.2789998054504395
-5.458000183105469
-5.585999965667725
-5.757999897003174
-5.885000228881836
-6.059999942779541
-6.197000026702881
-6.380000114440918
-6.520999908447266
-6.706999778747559
-6.85099983215332
-7.040999889373779
-7.185999870300293
-7.372000217437744
-7.517000198364258
-7.699999809265137
-7.8520002365112305
-8.045000076293945
-8.208999633789062
-8.406999588012695
-8.565999984741211
-8.75100040435791
-8.904000282287598
-9.053000450134277
-9.177000045776367
-9.284000396728516
-9.380999565124512
-9.486000061035156
-9.562999725341797
-9.687999725341797
-9.755000114440918
-9.925000190734863
-10.017999649047852
-10.232000350952148
-10.335000038146973
-3.740000009536743
-3.8559999465942383
-4.066999912261963
-4.1620001792907715
-4.39300012588501
-4.499000072479248
-4.701000213623047
-4.802000045776367
-4.959000110626221
-5.058000087738037
-5.243000030517578
-5.324999809265137
-5.547999858856201
-5.63100004196167
-5.833000183105469
-5.953999996185303
-6.14300012588501
-6.269000053405762
-6.482999801635742
-6.572000026702881
-6.790999889373779
-6.921999931335449
-7.125999927520752
-7.257999897003174
-7.461999893188477
-7.5960001945495605
-7.802999973297119
-7.940000057220459
-8.152999877929688
-8.288999557495117
-8.503999710083008
-8.642000198364258
-8.857000350952148
-8.998000144958496
-9.168000221252441
-9.272000312805176
-9.376999855041504
-9.442000389099121
-9.52400016784668
-9.576000213623047
-9.682999610900879
-9.75
-9.914999961853027
-10.017999649047852
-10.225000381469727
-10.336999893188477
-3.746000051498413
-3.8589999675750732
-4.059999942779541
-4.176000118255615
-4.377999782562256
-4.500999927520752
-4.697999954223633
-4.809000015258789
-4.986999988555908
-5.079999923706055
-5.264999866485596
-5.364999771118164
-5.566999912261963
-5.668000221252441
-5.870999813079834
-5.973999977111816
-6.181000232696533
-6.2870001792907715
-6.5
-6.607999801635742
-6.826000213623047
-6.940000057220459
-7.1620001792907715
-7.276000022888184
-7.501999855041504
-7.613999843597412
-7.8460001945495605
-7.955999851226807
-8.185999870300293
-8.293999671936035
-8.53499984741211
-8.64900016784668
-8.897000312805176
-9.413000106811523
-9.449000358581543
-9.531000137329102
-5.0370001792907715
-5.196000099182129
-5.330999851226807
-5.497000217437744
-5.632999897003174
-5.803999900817871
-5.940999984741211
-6.114999771118164
-6.251999855041504
-6.429999828338623
-6.572000026702881
-6.751999855041504
-6.8979997634887695
-7.080999851226807
-7.230999946594238
-7.416999816894531
-7.571000099182129
