# vtk DataFile Version 3.0
SHAPE_sfm_50k_v20200323
ASCII
DATASET POLYDATA
POINTS 417 float
-0.3980900049209595 0.2728700041770935 0.09429000318050385
-0.397460013628006 0.2757500112056732 0.09206999838352203
-0.39917999505996704 0.2734600007534027 0.092009998857975
-0.3985399901866913 0.276419997215271 0.08980999886989594
-0.40035000443458557 0.27421000599861145 0.089819997549057
-0.4013899862766266 0.2750999927520752 0.08760000020265579
-0.3995400071144104 0.2772899866104126 0.08760000020265579
-0.40237998962402344 0.2759299874305725 0.0853400006890297
-0.4008199870586395 0.27118000388145447 0.09239999949932098
-0.3996700048446655 0.2705399990081787 0.09465000033378601
-0.4020000100135803 0.27191001176834106 0.09019000083208084
-0.40318000316619873 0.27292999625205994 0.08807999640703201
-0.40422001481056213 0.27379000186920166 0.08581999689340591
-0.40507999062538147 0.274509996175766 0.08344999700784683
-0.40345001220703125 0.27684998512268066 0.08315999805927277
-0.4061700105667114 0.27531999349594116 0.08122999966144562
-0.3986299932003021 0.26989999413490295 0.096950002014637
-0.4011400043964386 0.26820001006126404 0.0952799990773201
-0.4001699984073639 0.267630010843277 0.09764000028371811
-0.40244001150131226 0.26895999908447266 0.09313999861478806
-0.4036499857902527 0.2697100043296814 0.09092999994754791
-0.4047600030899048 0.2706199884414673 0.08872000128030777
-0.4059099853038788 0.27156999707221985 0.08652999997138977
-0.4067400097846985 0.27224001288414 0.08410999923944473
-0.4077099859714508 0.2729400098323822 0.0817900002002716
-0.40876999497413635 0.2736699879169464 0.0794999971985817
-0.4072999954223633 0.27612000703811646 0.07900000363588333
-0.41007000207901 0.274370014667511 0.0773100033402443
-0.4027700126171112 0.26596999168395996 0.09598000347614288
-0.40171998739242554 0.26535001397132874 0.09830000251531601
-0.4041900038719177 0.26688000559806824 0.0939600020647049
-0.40553000569343567 0.2677299976348877 0.09182000160217285
-0.4065299928188324 0.2685000002384186 0.08947999775409698
-0.40751001238822937 0.2692599892616272 0.08715000003576279
-0.4084300100803375 0.27000001072883606 0.08478999882936478
-0.40939000248908997 0.2706800103187561 0.08242999762296677
-0.41036999225616455 0.2713100016117096 0.08006999641656876
-0.4116699993610382 0.2720000147819519 0.07788000255823135
-0.41262000799179077 0.2725299894809723 0.07546000182628632
-0.4110400080680847 0.2749199867248535 0.0749099999666214
-0.4138300120830536 0.27278000116348267 0.07312999665737152
-0.41218000650405884 0.2751300036907196 0.07254999876022339
-0.4151400029659271 0.273360013961792 0.07091999799013138
-0.4045499861240387 0.2639099955558777 0.09679999947547913
-0.40342000126838684 0.26319000124931335 0.09903000295162201
-0.40595999360084534 0.2647800147533417 0.09474000334739685
-0.40727001428604126 0.26559001207351685 0.09256000071763992
-0.4083099961280823 0.2663800120353699 0.09023000299930573
-0.4092099964618683 0.2670600116252899 0.08784999698400497
-0.4101099967956543 0.267769992351532 0.08546999841928482
-0.41106000542640686 0.2684299945831299 0.08309999853372574
-0.41207000613212585 0.2690599858760834 0.0807500034570694
-0.413349986076355 0.26973000168800354 0.07852999866008759
-0.4143199920654297 0.27024999260902405 0.07610999792814255
-0.4156799912452698 0.2706199884414673 0.07388000190258026
-0.4167500138282776 0.2709699869155884 0.07148999720811844
-0.4181700050830841 0.27177000045776367 0.06938999891281128
-0.4167400002479553 0.2743400037288666 0.0690699964761734
-0.41967999935150146 0.2727400064468384 0.06745000183582306
-0.41850000619888306 0.2755900025367737 0.06746000051498413
-0.42002999782562256 0.2762500047683716 0.06520000100135803
-0.42131999135017395 0.27347999811172485 0.06558000296354294
-0.4025599956512451 0.26260998845100403 0.10143999755382538
-0.40509000420570374 0.2609100043773651 0.09937000274658203
-0.40422001481056213 0.26034998893737793 0.1017799973487854
-0.40637001395225525 0.2617399990558624 0.0972599983215332
-0.40806999802589417 0.262939989566803 0.0955599993467331
-0.4092099964618683 0.2635599970817566 0.0931600034236908
-0.4101699888706207 0.26427000761032104 0.09076999872922897
-0.4110499918460846 0.2649100124835968 0.08837000280618668
-0.41207000613212585 0.265749990940094 0.0860700011253357
-0.4129300117492676 0.26627999544143677 0.08360999822616577
-0.41394999623298645 0.2669200003147125 0.08126000314950943
-0.41519999504089355 0.26752999424934387 0.0790100023150444
-0.41617000102996826 0.2680400013923645 0.07659000158309937
-0.4174500107765198 0.2683199942111969 0.07428999990224838
-0.41857999563217163 0.26868999004364014 0.0719200000166893
-0.4201500117778778 0.26965001225471497 0.07002999633550644
-0.4219000041484833 0.27087000012397766 0.0684100016951561
-0.4236699938774109 0.271699994802475 0.06644000113010406
-0.4246799945831299 0.27184000611305237 0.06384000182151794
-0.42225998640060425 0.2736000120639801 0.06313999742269516
-0.4251900017261505 0.2716299891471863 0.06122000142931938
-0.4231500029563904 0.2737700045108795 0.06064999848604202
-0.42594999074935913 0.2717899978160858 0.05869999900460243
-0.4046899974346161 0.25753000378608704 0.10401999950408936
-0.4058699905872345 0.25804999470710754 0.10170000046491623
-0.4068300127983093 0.2586599886417389 0.09932000190019608
-0.40817001461982727 0.25951001048088074 0.09724000096321106
-0.4099400043487549 0.26065999269485474 0.09561000019311905
-0.41154998540878296 0.26179999113082886 0.09369999915361404
-0.4126099944114685 0.2626799941062927 0.09132000058889389
-0.41339001059532166 0.2632099986076355 0.08879999816417694
-0.41425999999046326 0.263839989900589 0.08636999875307083
-0.4150800108909607 0.26434001326560974 0.0839100033044815
-0.4162200093269348 0.2650899887084961 0.08163999766111374
-0.4172999858856201 0.2655099928379059 0.07923000305891037
-0.41822999715805054 0.2659600079059601 0.07680000364780426
-0.41958001255989075 0.2662999927997589 0.07457000017166138
-0.42080000042915344 0.26677000522613525 0.0723000019788742
-0.42232999205589294 0.2676500082015991 0.07038000226020813
-0.42427000403404236 0.2689000070095062 0.06887000054121017
-0.4261299967765808 0.26962000131607056 0.0667399987578392
-0.42688998579978943 0.2696099877357483 0.06394000351428986
-0.42712000012397766 0.2692900002002716 0.061239998787641525
-0.4277600049972534 0.2693699896335602 0.05869999900460243
-0.4269999861717224 0.2721399962902069 0.056299999356269836
-0.4286400079727173 0.269569993019104 0.05621999874711037
-0.42778000235557556 0.2724500000476837 0.05378999933600426
-0.42952001094818115 0.26993998885154724 0.0537399984896183
-0.40626001358032227 0.25519999861717224 0.1041800007224083
-0.4074400067329407 0.2556999921798706 0.10186000168323517
-0.4084700047969818 0.25635001063346863 0.09950999915599823
-0.4096899926662445 0.257099986076355 0.09729000180959702
-0.4112499952316284 0.2580699920654297 0.09540999680757523
-0.4130699932575226 0.2592200040817261 0.09375
-0.4143199920654297 0.2602100074291229 0.09149999916553497
-0.4151099920272827 0.26080000400543213 0.08897999674081802
-0.4160799980163574 0.2615399956703186 0.08663000166416168
-0.4171000123023987 0.26221999526023865 0.08427999913692474
-0.41822999715805054 0.2628900110721588 0.08196000009775162
-0.41923999786376953 0.2632400095462799 0.07951000332832336
-0.42002999782562256 0.263619989156723 0.07699999958276749
-0.42124998569488525 0.26385000348091125 0.07467000186443329
-0.42274001240730286 0.26451998949050903 0.07257000356912613
-0.4240100085735321 0.26517000794410706 0.07034999877214432
-0.42572999000549316 0.2661600112915039 0.06852000206708908
-0.4271000027656555 0.2666099965572357 0.06616000086069107
-0.427729994058609 0.266620010137558 0.06349000334739685
-0.4286099970340729 0.26666998863220215 0.060989998281002045
-0.42941999435424805 0.26684001088142395 0.058469999581575394
-0.43039000034332275 0.26708999276161194 0.05603000149130821
-0.4088599979877472 0.25328999757766724 0.10228999704122543
-0.4077500104904175 0.2528499960899353 0.10464999824762344
-0.40992000699043274 0.25394999980926514 0.09995000064373016
-0.41102999448776245 0.25461000204086304 0.09764000028371811
-0.4122900068759918 0.25540998578071594 0.09544999897480011
-0.41391998529434204 0.25644001364707947 0.09358999878168106
-0.41530001163482666 0.2574400007724762 0.09150999784469604
-0.41635000705718994 0.25817999243736267 0.08914999663829803
-0.41745999455451965 0.2589400112628937 0.08685000240802765
-0.4185999929904938 0.25960999727249146 0.08450999855995178
-0.4194200038909912 0.2600800096988678 0.08201000094413757
-0.4203599989414215 0.2604300081729889 0.07958000153303146
-0.4215100109577179 0.261029988527298 0.07728999853134155
-0.4228900074958801 0.2613599896430969 0.07507000118494034
-0.42412999272346497 0.2618899941444397 0.07277999818325043
-0.4255099892616272 0.2626200020313263 0.07061000168323517
-0.4266200065612793 0.2633199989795685 0.0682699978351593
-0.4277400076389313 0.26368001103401184 0.06588999927043915
-0.4291499853134155 0.26399001479148865 0.0636100023984909
-0.42996999621391296 0.26399001479148865 0.061039999127388
-0.43066999316215515 0.2640799880027771 0.058469999581575394
-0.43171000480651855 0.2643499970436096 0.056040000170469284
-0.40681999921798706 0.25242000818252563 0.1071000024676323
-0.4090999960899353 0.2503899931907654 0.10502000153064728
-0.40814998745918274 0.2499600052833557 0.10746999830007553
-0.4101699888706207 0.2508000135421753 0.10261999815702438
-0.4112499952316284 0.2514500021934509 0.10028000175952911
-0.4124299883842468 0.2521499991416931 0.09801000356674194
-0.41367000341415405 0.252920001745224 0.09578999876976013
-0.4150699973106384 0.25382000207901 0.09371999651193619
-0.41640999913215637 0.2547900080680847 0.09160999953746796
-0.4176099896430969 0.2555699944496155 0.08933000266551971
-0.41857001185417175 0.2562200129032135 0.08687999844551086
-0.41912999749183655 0.2566800117492676 0.08428999781608582
-0.41964998841285706 0.2571200132369995 0.08173000067472458
-0.4208100140094757 0.2575100064277649 0.07940000295639038
-0.42208999395370483 0.258109986782074 0.07716000080108643
-0.4234200119972229 0.2584199905395508 0.07486999779939651
-0.42511001229286194 0.25909000635147095 0.07291000336408615
-0.4266799986362457 0.259880006313324 0.07086999714374542
-0.42778000235557556 0.2606000006198883 0.06849999725818634
-0.42871999740600586 0.2608799934387207 0.0660099983215332
-0.4302400052547455 0.2611899971961975 0.0638199970126152
-0.43123000860214233 0.2612600028514862 0.06129999831318855
-0.4319100081920624 0.2613399922847748 0.0587100014090538
-0.4085499942302704 0.24693000316619873 0.10989999771118164
-0.40942999720573425 0.24743999540805817 0.10741999745368958
-0.4106200039386749 0.24800999462604523 0.10510999709367752
-0.41172000765800476 0.24842999875545502 0.10271000117063522
-0.4127799868583679 0.24907000362873077 0.10034999996423721
-0.41391998529434204 0.2497200071811676 0.09803000092506409
-0.41506001353263855 0.2504200041294098 0.0957299992442131
-0.4164600074291229 0.25130999088287354 0.09363999962806702
-0.41776999831199646 0.25224998593330383 0.0914900004863739
-0.4188399910926819 0.2529500126838684 0.08907999843358994
-0.419189989566803 0.2533999979496002 0.08641999959945679
-0.41927000880241394 0.25380000472068787 0.08376999944448471
-0.419869989156723 0.2542499899864197 0.08118999749422073
-0.42131999135017395 0.25466999411582947 0.07897000014781952
-0.42280998826026917 0.2552900016307831 0.07684999704360962
-0.4245400130748749 0.2556999921798706 0.07485999912023544
-0.4262000024318695 0.2563599944114685 0.0728600025177002
-0.42754998803138733 0.2570500075817108 0.07064999639987946
-0.428849995136261 0.2578200101852417 0.06842999905347824
-0.4298099875450134 0.258109986782074 0.0659400001168251
-0.43097999691963196 0.2582699954509735 0.06355000287294388
-0.4320000112056732 0.25832998752593994 0.061080001294612885
-0.43314000964164734 0.2585900127887726 0.05868000164628029
-0.41075000166893005 0.2449599951505661 0.10744000226259232
-0.4097299873828888 0.24438999593257904 0.10984999686479568
-0.4120599925518036 0.24558000266551971 0.10519000142812729
-0.41324999928474426 0.24605000019073486 0.10283000022172928
-0.41433000564575195 0.24669000506401062 0.1004600003361702
-0.4153499901294708 0.24726000428199768 0.09804999828338623
-0.4164299964904785 0.24790999293327332 0.09570000320672989
-0.41764000058174133 0.24869999289512634 0.09345000237226486
-0.4189299941062927 0.24961000680923462 0.09126999974250793
-0.41988998651504517 0.2502700090408325 0.0887800008058548
-0.41995999217033386 0.25064000487327576 0.08607999980449677
-0.419979989528656 0.2509799897670746 0.08340000361204147
-0.4207099974155426 0.2514300048351288 0.08079999685287476
-0.4224100112915039 0.25196999311447144 0.07874000072479248
-0.4241200089454651 0.2526699900627136 0.07680000364780426
-0.42590001225471497 0.25310999155044556 0.07485000044107437
-0.42746999859809875 0.2537199854850769 0.07276999950408936
-0.42882999777793884 0.25439000129699707 0.07055000215768814
-0.4299899935722351 0.2551000118255615 0.06823000311851501
-0.43108999729156494 0.2554300129413605 0.06581000238656998
-0.43220001459121704 0.2555600106716156 0.06338000297546387
-0.43334999680519104 0.2556599974632263 0.0609700009226799
-0.4096899926662445 0.241239994764328 0.11187999695539474
-0.41095998883247375 0.24188999831676483 0.10956999659538269
-0.41207998991012573 0.2424899935722351 0.10721000283956528
-0.41339001059532166 0.24310000240802765 0.10493999719619751
-0.4147700071334839 0.24366000294685364 0.10270000249147415
-0.415800005197525 0.2442599982023239 0.10028000175952911
-0.41675999760627747 0.2447900027036667 0.09781999886035919
-0.4177600145339966 0.24538999795913696 0.09540999680757523
-0.41888999938964844 0.2461400032043457 0.0930899977684021
-0.4200800061225891 0.2470099925994873 0.09081999957561493
-0.42076000571250916 0.2475699931383133 0.08824999630451202
-0.4210900068283081 0.24803000688552856 0.08562000095844269
-0.4214699864387512 0.2485000044107437 0.08297999948263168
-0.42250001430511475 0.249099999666214 0.08055000007152557
-0.42407000064849854 0.24958999454975128 0.07842999696731567
-0.4258800148963928 0.2503499984741211 0.07659000158309937
-0.4278799891471863 0.250900000333786 0.07480999827384949
-0.4292300045490265 0.25137001276016235 0.07249999791383743
-0.43046998977661133 0.25196999311447144 0.0701799988746643
-0.43160998821258545 0.2526699900627136 0.06782999634742737
-0.43268999457359314 0.2529599964618683 0.06538999825716019
-0.433789998292923 0.25306999683380127 0.06294000148773193
-0.4348999857902527 0.2531299889087677 0.060499999672174454
-0.4095200002193451 0.23830999433994293 0.1137000024318695
-0.4113500118255615 0.23899999260902405 0.1117900013923645
-0.41245999932289124 0.2395399957895279 0.10933999717235565
-0.41356998682022095 0.24011999368667603 0.10694999992847443
-0.4149099886417389 0.24074000120162964 0.1046999990940094
-0.4161899983882904 0.241239994764328 0.1023700013756752
-0.41721999645233154 0.24181999266147614 0.09995000064373016
-0.41830000281333923 0.24241000413894653 0.09754999727010727
-0.4194599986076355 0.24309000372886658 0.09520000219345093
-0.42013999819755554 0.243599995970726 0.09262000024318695
-0.4211199879646301 0.24438999593257904 0.0902400016784668
-0.422109991312027 0.24507999420166016 0.08782000094652176
-0.4226900041103363 0.24564999341964722 0.08523000031709671
-0.4232800006866455 0.24624000489711761 0.08267000317573547
-0.4243299961090088 0.24684999883174896 0.08025000244379044
-0.42587000131607056 0.24730999767780304 0.07810000330209732
-0.4277699887752533 0.2481199949979782 0.07632999867200851
-0.429390013217926 0.2484399974346161 0.07416000217199326
-0.43081000447273254 0.24894000589847565 0.0719200000166893
-0.43244001269340515 0.24977000057697296 0.06988999992609024
-0.43351998925209045 0.2504099905490875 0.06746000051498413
-0.43446001410484314 0.25060999393463135 0.06492999941110611
-0.4356200098991394 0.25075000524520874 0.06250999867916107
-0.41106000542640686 0.23600000143051147 0.11403000354766846
-0.41262000799179077 0.2365099936723709 0.11185000091791153
-0.4139299988746643 0.23717999458312988 0.10956999659538269
-0.415149986743927 0.2378299981355667 0.10724999755620956
-0.4165099859237671 0.2384600043296814 0.10499999672174454
-0.41780999302864075 0.23896999657154083 0.10267999768257141
-0.4187699854373932 0.2394700050354004 0.10018999874591827
-0.419840008020401 0.24003000557422638 0.09776999801397324
-0.4206399917602539 0.24049000442028046 0.09521999955177307
-0.4212299883365631 0.24094000458717346 0.09261000156402588
-0.42215999960899353 0.24171000719070435 0.09018000215291977
-0.4233199954032898 0.2424599975347519 0.08784999698400497
-0.42427000403404236 0.24323999881744385 0.0854400023818016
-0.4249899983406067 0.2439199984073639 0.08292999863624573
-0.4259899854660034 0.2444700002670288 0.08048000186681747
-0.42746999859809875 0.24488000571727753 0.07824999839067459
-0.42899999022483826 0.24546000361442566 0.07609999924898148
-0.4306800067424774 0.24581000208854675 0.07400999963283539
-0.43233999609947205 0.2464199960231781 0.07196000218391418
-0.4338200092315674 0.24713000655174255 0.06978999823331833
-0.43500998616218567 0.2478100061416626 0.06741999834775925
-0.43592000007629395 0.24800999462604523 0.06486999988555908
-0.4371800124645233 0.24819999933242798 0.0625
-0.41231000423431396 0.2335200011730194 0.11434999853372574
-0.41389000415802 0.2340400069952011 0.11219999939203262
-0.41523000597953796 0.2347099930047989 0.10993999987840652
-0.4167900085449219 0.23566000163555145 0.10792999714612961
-0.4183200001716614 0.23646000027656555 0.1058100014925003
-0.4195699989795685 0.2368900030851364 0.10339999943971634
-0.4204699993133545 0.2372799962759018 0.10085999965667725
-0.4212000072002411 0.23758000135421753 0.0982699990272522
-0.4219599962234497 0.23800000548362732 0.09570000320672989
-0.42254000902175903 0.23841999471187592 0.09307999908924103
-0.4233599901199341 0.2391200065612793 0.09059000015258789
-0.42440998554229736 0.2398100048303604 0.08817999809980392
-0.42552000284194946 0.24065999686717987 0.08586999773979187
-0.42649000883102417 0.24150000512599945 0.08348999917507172
-0.4275699853897095 0.24210000038146973 0.08109000325202942
-0.4289799928665161 0.24244999885559082 0.07880999892950058
-0.43042999505996704 0.24295000731945038 0.0765800029039383
-0.4320499897003174 0.24324999749660492 0.07442999631166458
-0.43351998925209045 0.2437400072813034 0.07220999896526337
-0.4348500072956085 0.24435999989509583 0.06992000341415405
-0.43601998686790466 0.24502000212669373 0.06756000220775604
-0.43698999285697937 0.24523000419139862 0.06503000110387802
-0.4104900062084198 0.23277999460697174 0.11623000353574753
-0.4135499894618988 0.23111000657081604 0.11501999944448471
-0.41168999671936035 0.23034000396728516 0.11685000360012054
-0.41530001163482666 0.2317499965429306 0.11302000284194946
-0.41670000553131104 0.2324800044298172 0.11082000285387039
-0.41826000809669495 0.23343999683856964 0.10881999880075455
-0.41995999217033386 0.2343900054693222 0.10684999823570251
-0.42120999097824097 0.2347699999809265 0.10439000278711319
-0.42193999886512756 0.23502999544143677 0.10175999999046326
-0.4226199984550476 0.23526999354362488 0.09914000332355499
-0.4233199954032898 0.2356400042772293 0.09655000269412994
-0.4239499866962433 0.23607000708580017 0.09393999725580215
-0.42465999722480774 0.23667000234127045 0.09138999879360199
-0.42555999755859375 0.23725999891757965 0.08889999985694885
-0.42664000391960144 0.23808999359607697 0.08656000345945358
-0.4276300072669983 0.23892000317573547 0.0841900035738945
-0.4287700057029724 0.23954999446868896 0.08182000368833542
-0.4302400052547455 0.2399200052022934 0.07957000285387039
-0.4315899908542633 0.24034999310970306 0.07726000249385834
-0.4331499934196472 0.2406100034713745 0.07506000250577927
-0.4346100091934204 0.24108000099658966 0.07282000035047531
-0.43592000007629395 0.241689994931221 0.0705299973487854
-0.43685001134872437 0.2422100007534027 0.06802999973297119
-0.43783000111579895 0.24237999320030212 0.06547000259160995
-0.41611000895500183 0.22912999987602234 0.11366000026464462
-0.41776999831199646 0.2300499975681305 0.11173000186681747
-0.4194999933242798 0.23116999864578247 0.10993999987840652
-0.4212000072002411 0.23207999765872955 0.10795000195503235
-0.42239999771118164 0.23242999613285065 0.10547000169754028
-0.42333999276161194 0.2328599989414215 0.10294000059366226
-0.4241099953651428 0.23316000401973724 0.10034999996423721
-0.4247500002384186 0.23346999287605286 0.09774000197649002
-0.4254299998283386 0.23391999304294586 0.0951400026679039
-0.42607998847961426 0.23446999490261078 0.092569999396801
-0.426829993724823 0.23491999506950378 0.09001000225543976
-0.42770999670028687 0.23557999730110168 0.08753000199794769
-0.4286099970340729 0.23634999990463257 0.08510000258684158
-0.429749995470047 0.23695999383926392 0.08271999657154083
-0.4313099980354309 0.2373799979686737 0.08053000271320343
-0.4327400028705597 0.237869992852211 0.0782800018787384
-0.4343000054359436 0.2381100058555603 0.07608000189065933
-0.43568000197410583 0.23850999772548676 0.07378999888896942
-0.43689998984336853 0.23906999826431274 0.07143999636173248
-0.4379099905490875 0.2396100014448166 0.06898000091314316
-0.43919000029563904 0.23995999991893768 0.06661999970674515
-0.4246399998664856 0.23050999641418457 0.10397999733686447
-0.42552998661994934 0.23090000450611115 0.1014299988746643
-0.4261600077152252 0.23120999336242676 0.09880000352859497
-0.4270400106906891 0.23183999955654144 0.09630999714136124
-0.4276700019836426 0.23235000669956207 0.09370999783277512
-0.42833998799324036 0.23271000385284424 0.091109998524189
-0.42903000116348267 0.2332099974155426 0.08854000270366669
-0.42987000942230225 0.23391999304294586 0.0860700011253357
-0.4309700131416321 0.23447999358177185 0.08365999907255173
-0.43244999647140503 0.2348400056362152 0.0814099982380867
-0.4340899884700775 0.23549999296665192 0.0793600007891655
-0.4359799921512604 0.23604999482631683 0.07744000107049942
-0.4371800124645233 0.23623999953269958 0.07495000213384628
-0.4381900131702423 0.2366199940443039 0.07247000187635422
-0.43911001086235046 0.23709000647068024 0.06995999813079834
-0.4401400089263916 0.23725000023841858 0.06745000183582306
-0.4275200068950653 0.22883999347686768 0.09967999905347824
-0.42838001251220703 0.22943000495433807 0.09717000275850296
-0.42921000719070435 0.23010000586509705 0.09465999901294708
-0.42987000942230225 0.23045000433921814 0.09205000102519989
-0.4305399954319 0.23093999922275543 0.08947999775409698
-0.43130001425743103 0.23156000673770905 0.0869700014591217
-0.43237000703811646 0.23208999633789062 0.0845400020480156
-0.433789998292923 0.2323800027370453 0.08224000036716461
-0.4354099929332733 0.2329999953508377 0.0801599994301796
-0.43748000264167786 0.23357999324798584 0.07838000357151031
-0.4388299882411957 0.2338699996471405 0.0759200006723404
-0.43961000442504883 0.23411999642848969 0.07329999655485153
-0.44047001004219055 0.23455999791622162 0.07077000290155411
-0.4413900077342987 0.23465999960899353 0.06820999830961227
-0.43029001355171204 0.2275799959897995 0.09556999802589417
-0.4311400055885315 0.22804999351501465 0.09303999692201614
-0.4319300055503845 0.2286199927330017 0.09052000194787979
-0.4327099919319153 0.22924000024795532 0.08800999820232391
-0.4337199926376343 0.22970999777317047 0.08553999662399292
-0.43509000539779663 0.22995999455451965 0.08320999890565872
-0.4364300072193146 0.23035000264644623 0.0808899998664856
-0.4378400146961212 0.23054000735282898 0.07858999818563461
-0.43922001123428345 0.230880007147789 0.07627999782562256
-0.440310001373291 0.2312600016593933 0.07382000237703323
-0.4413599967956543 0.23176999390125275 0.07137999683618546
-0.4426000118255615 0.23204000294208527 0.06898999959230423
-0.4342400133609772 0.22687000036239624 0.0887100026011467
-0.4352000057697296 0.2273000031709671 0.08620999753475189
-0.43654999136924744 0.227510005235672 0.08387000113725662
-0.4377799928188324 0.2278199940919876 0.08146999776363373
-0.4390000104904175 0.22788000106811523 0.07904999703168869
-0.43994998931884766 0.2280299961566925 0.0765099972486496
-0.4410099983215332 0.22840000689029694 0.0740400031208992
-0.4421299993991852 0.22891999781131744 0.07162000238895416
-0.4379599988460541 0.2249400019645691 0.08388999849557877
-0.43907999992370605 0.22518999874591827 0.08141999691724777
-0.4402100145816803 0.22520999610424042 0.07896000146865845
-0.44102001190185547 0.22529000043869019 0.07636000216007233
-0.4418799877166748 0.22558000683784485 0.0737999975681305
-0.44308000802993774 0.22610999643802643 0.07139000296592712
-0.44207000732421875 0.2225400060415268 0.0764399990439415
-0.44297000765800476 0.22282999753952026 0.07389000058174133
-0.44422999024391174 0.2233700007200241 0.07152999937534332
POLYGONS 750 3000
3 0 1 2
3 1 3 2
3 2 3 4
3 3 5 4
3 3 6 5
3 6 7 5
3 0 8 9
3 0 2 8
3 2 10 8
3 2 4 10
3 4 11 10
3 4 5 11
3 5 12 11
3 5 7 12
3 7 13 12
3 7 14 13
3 14 15 13
3 16 17 18
3 16 9 17
3 9 19 17
3 9 8 19
3 8 20 19
3 8 10 20
3 10 21 20
3 10 11 21
3 11 22 21
3 11 12 22
3 12 23 22
3 12 13 23
3 13 24 23
3 13 15 24
3 15 25 24
3 15 26 25
3 26 27 25
3 18 28 29
3 18 17 28
3 17 30 28
3 17 19 30
3 19 31 30
3 19 20 31
3 20 32 31
3 20 21 32
3 21 33 32
3 21 22 33
3 22 34 33
3 22 23 34
3 23 35 34
3 23 24 35
3 24 36 35
3 24 25 36
3 25 37 36
3 25 27 37
3 27 38 37
3 27 39 38
3 39 40 38
3 39 41 40
3 41 42 40
3 29 43 44
3 29 28 43
3 28 45 43
3 28 30 45
3 30 46 45
3 30 31 46
3 31 47 46
3 31 32 47
3 32 48 47
3 32 33 48
3 33 49 48
3 33 34 49
3 34 50 49
3 34 35 50
3 35 51 50
3 35 36 51
3 36 52 51
3 36 37 52
3 37 53 52
3 37 38 53
3 38 54 53
3 38 40 54
3 40 55 54
3 40 42 55
3 42 56 55
3 42 57 56
3 57 58 56
3 57 59 58
3 59 60 58
3 58 60 61
3 62 63 64
3 62 44 63
3 44 65 63
3 44 43 65
3 43 66 65
3 43 45 66
3 45 67 66
3 45 46 67
3 46 68 67
3 46 47 68
3 47 69 68
3 47 48 69
3 48 70 69
3 48 49 70
3 49 71 70
3 49 50 71
3 50 72 71
3 50 51 72
3 51 73 72
3 51 52 73
3 52 74 73
3 52 53 74
3 53 54 74
3 74 54 75
3 54 76 75
3 54 55 76
3 55 77 76
3 55 56 77
3 56 78 77
3 56 58 78
3 58 79 78
3 58 61 79
3 61 80 79
3 61 81 80
3 81 82 80
3 81 83 82
3 83 84 82
3 85 64 86
3 64 63 86
3 86 63 87
3 63 65 87
3 87 65 88
3 65 89 88
3 65 66 89
3 66 90 89
3 66 67 90
3 67 91 90
3 67 68 91
3 68 92 91
3 68 69 92
3 69 93 92
3 69 70 93
3 70 94 93
3 70 71 94
3 71 95 94
3 71 72 95
3 72 73 95
3 95 73 96
3 73 74 96
3 96 74 97
3 74 75 97
3 97 75 98
3 75 76 98
3 98 76 99
3 76 100 99
3 76 77 100
3 77 101 100
3 77 78 101
3 78 79 101
3 101 79 102
3 79 80 102
3 102 80 103
3 80 82 103
3 103 82 104
3 82 84 104
3 104 84 105
3 84 106 105
3 105 106 107
3 106 108 107
3 107 108 109
3 85 86 110
3 110 86 111
3 86 112 111
3 86 87 112
3 87 113 112
3 87 88 113
3 88 89 113
3 113 89 114
3 89 115 114
3 89 90 115
3 90 116 115
3 90 91 116
3 91 117 116
3 91 92 117
3 92 118 117
3 92 93 118
3 93 119 118
3 93 94 119
3 94 120 119
3 94 95 120
3 95 96 120
3 120 96 121
3 96 122 121
3 96 97 122
3 97 98 122
3 122 98 123
3 98 99 123
3 123 99 124
3 99 100 124
3 124 100 125
3 100 101 125
3 125 101 126
3 101 102 126
3 126 102 127
3 102 103 127
3 127 103 128
3 103 104 128
3 128 104 129
3 104 105 129
3 129 105 130
3 105 107 130
3 130 107 131
3 107 109 131
3 110 132 133
3 110 111 132
3 111 134 132
3 111 112 134
3 112 135 134
3 112 113 135
3 113 136 135
3 113 114 136
3 114 137 136
3 114 115 137
3 115 138 137
3 115 116 138
3 116 139 138
3 116 117 139
3 117 140 139
3 117 118 140
3 118 141 140
3 118 119 141
3 119 142 141
3 119 120 142
3 120 121 142
3 142 121 143
3 121 144 143
3 121 122 144
3 122 123 144
3 144 123 145
3 123 146 145
3 123 124 146
3 124 147 146
3 124 125 147
3 125 148 147
3 125 126 148
3 126 127 148
3 148 127 149
3 127 128 149
3 149 128 150
3 128 129 150
3 150 129 151
3 129 130 151
3 151 130 152
3 130 131 152
3 152 131 153
3 154 155 156
3 154 133 155
3 133 157 155
3 133 132 157
3 132 158 157
3 132 134 158
3 134 159 158
3 134 135 159
3 135 160 159
3 135 136 160
3 136 161 160
3 136 137 161
3 137 162 161
3 137 138 162
3 138 163 162
3 138 139 163
3 139 164 163
3 139 140 164
3 140 165 164
3 140 141 165
3 141 142 165
3 165 142 166
3 142 143 166
3 166 143 167
3 143 144 167
3 167 144 168
3 144 145 168
3 168 145 169
3 145 146 169
3 169 146 170
3 146 171 170
3 146 147 171
3 147 172 171
3 147 148 172
3 148 149 172
3 172 149 173
3 149 150 173
3 173 150 174
3 150 151 174
3 174 151 175
3 151 152 175
3 175 152 176
3 152 153 176
3 177 156 178
3 156 155 178
3 178 155 179
3 155 157 179
3 179 157 180
3 157 181 180
3 157 158 181
3 158 182 181
3 158 159 182
3 159 183 182
3 159 160 183
3 160 161 183
3 183 161 184
3 161 185 184
3 161 162 185
3 162 163 185
3 185 163 186
3 163 164 186
3 186 164 187
3 164 165 187
3 187 165 188
3 165 166 188
3 188 166 189
3 166 167 189
3 189 167 190
3 167 168 190
3 190 168 191
3 168 169 191
3 191 169 192
3 169 170 192
3 192 170 193
3 170 171 193
3 193 171 194
3 171 172 194
3 194 172 195
3 172 173 195
3 195 173 196
3 173 174 196
3 196 174 197
3 174 175 197
3 197 175 198
3 175 176 198
3 198 176 199
3 177 200 201
3 177 178 200
3 178 179 200
3 200 179 202
3 179 180 202
3 202 180 203
3 180 204 203
3 180 181 204
3 181 205 204
3 181 182 205
3 182 206 205
3 182 183 206
3 183 184 206
3 206 184 207
3 184 208 207
3 184 185 208
3 185 186 208
3 208 186 209
3 186 210 209
3 186 187 210
3 187 211 210
3 187 188 211
3 188 189 211
3 211 189 212
3 189 190 212
3 212 190 213
3 190 191 213
3 213 191 214
3 191 192 214
3 214 192 215
3 192 193 215
3 215 193 216
3 193 194 216
3 216 194 217
3 194 195 217
3 217 195 218
3 195 196 218
3 218 196 219
3 196 197 219
3 219 197 220
3 197 198 220
3 220 198 221
3 198 199 221
3 222 201 223
3 201 200 223
3 223 200 224
3 200 202 224
3 224 202 225
3 202 203 225
3 225 203 226
3 203 204 226
3 226 204 227
3 204 205 227
3 227 205 228
3 205 206 228
3 228 206 229
3 206 207 229
3 229 207 230
3 207 208 230
3 230 208 231
3 208 209 231
3 231 209 232
3 209 210 232
3 232 210 233
3 210 211 233
3 233 211 234
3 211 212 234
3 234 212 235
3 212 213 235
3 235 213 236
3 213 214 236
3 236 214 237
3 214 215 237
3 237 215 238
3 215 216 238
3 238 216 239
3 216 217 239
3 239 217 240
3 217 218 240
3 240 218 241
3 218 219 241
3 241 219 242
3 219 220 242
3 242 220 243
3 220 221 243
3 243 221 244
3 245 222 246
3 222 223 246
3 246 223 247
3 223 224 247
3 247 224 248
3 224 225 248
3 248 225 249
3 225 226 249
3 249 226 250
3 226 227 250
3 250 227 251
3 227 228 251
3 251 228 252
3 228 229 252
3 252 229 253
3 229 230 253
3 253 230 254
3 230 231 254
3 254 231 255
3 231 232 255
3 255 232 256
3 232 233 256
3 256 233 257
3 233 234 257
3 257 234 258
3 234 235 258
3 258 235 259
3 235 236 259
3 259 236 260
3 236 237 260
3 260 237 261
3 237 238 261
3 261 238 262
3 238 239 262
3 262 239 263
3 239 240 263
3 263 240 264
3 240 241 264
3 264 241 265
3 241 242 265
3 265 242 266
3 242 243 266
3 266 243 267
3 243 244 267
3 245 246 268
3 268 246 269
3 246 270 269
3 246 247 270
3 247 271 270
3 247 248 271
3 248 272 271
3 248 249 272
3 249 273 272
3 249 250 273
3 250 274 273
3 250 251 274
3 251 275 274
3 251 252 275
3 252 276 275
3 252 253 276
3 253 277 276
3 253 254 277
3 254 278 277
3 254 255 278
3 255 279 278
3 255 256 279
3 256 280 279
3 256 257 280
3 257 281 280
3 257 258 281
3 258 282 281
3 258 259 282
3 259 260 282
3 282 260 283
3 260 261 283
3 283 261 284
3 261 262 284
3 284 262 285
3 262 263 285
3 285 263 286
3 263 264 286
3 286 264 287
3 264 265 287
3 287 265 288
3 265 266 288
3 288 266 289
3 266 267 289
3 289 267 290
3 268 269 291
3 291 269 292
3 269 293 292
3 269 270 293
3 270 294 293
3 270 271 294
3 271 295 294
3 271 272 295
3 272 296 295
3 272 273 296
3 273 297 296
3 273 274 297
3 274 298 297
3 274 275 298
3 275 299 298
3 275 276 299
3 276 300 299
3 276 277 300
3 277 301 300
3 277 278 301
3 278 302 301
3 278 279 302
3 279 303 302
3 279 280 303
3 280 304 303
3 280 281 304
3 281 305 304
3 281 282 305
3 282 306 305
3 282 283 306
3 283 307 306
3 283 284 307
3 284 285 307
3 307 285 308
3 285 286 308
3 308 286 309
3 286 310 309
3 286 287 310
3 287 311 310
3 287 288 311
3 288 289 311
3 311 289 312
3 289 290 312
3 313 314 315
3 313 291 314
3 291 316 314
3 291 292 316
3 292 317 316
3 292 293 317
3 293 318 317
3 293 294 318
3 294 319 318
3 294 295 319
3 295 320 319
3 295 296 320
3 296 321 320
3 296 297 321
3 297 322 321
3 297 298 322
3 298 323 322
3 298 299 323
3 299 324 323
3 299 300 324
3 300 325 324
3 300 301 325
3 301 326 325
3 301 302 326
3 302 327 326
3 302 303 327
3 303 328 327
3 303 304 328
3 304 329 328
3 304 305 329
3 305 330 329
3 305 306 330
3 306 331 330
3 306 307 331
3 307 332 331
3 307 308 332
3 308 333 332
3 308 309 333
3 309 334 333
3 309 310 334
3 310 335 334
3 310 311 335
3 311 336 335
3 311 312 336
3 314 316 337
3 316 338 337
3 316 317 338
3 317 339 338
3 317 318 339
3 318 340 339
3 318 319 340
3 319 341 340
3 319 320 341
3 320 342 341
3 320 321 342
3 321 343 342
3 321 322 343
3 322 344 343
3 322 323 344
3 323 345 344
3 323 324 345
3 324 346 345
3 324 325 346
3 325 347 346
3 325 326 347
3 326 348 347
3 326 327 348
3 327 349 348
3 327 328 349
3 328 350 349
3 328 329 350
3 329 351 350
3 329 330 351
3 330 352 351
3 330 331 352
3 331 353 352
3 331 332 353
3 332 354 353
3 332 333 354
3 333 355 354
3 333 334 355
3 334 356 355
3 334 335 356
3 335 357 356
3 335 336 357
3 341 342 358
3 342 359 358
3 342 343 359
3 343 360 359
3 343 344 360
3 344 361 360
3 344 345 361
3 345 362 361
3 345 346 362
3 346 363 362
3 346 347 363
3 347 364 363
3 347 348 364
3 348 365 364
3 348 349 365
3 349 366 365
3 349 350 366
3 350 367 366
3 350 351 367
3 351 368 367
3 351 352 368
3 352 369 368
3 352 353 369
3 353 370 369
3 353 354 370
3 354 371 370
3 354 355 371
3 355 372 371
3 355 356 372
3 356 373 372
3 356 357 373
3 359 360 374
3 360 375 374
3 360 361 375
3 361 376 375
3 361 362 376
3 362 377 376
3 362 363 377
3 363 378 377
3 363 364 378
3 364 379 378
3 364 365 379
3 365 380 379
3 365 366 380
3 366 381 380
3 366 367 381
3 367 382 381
3 367 368 382
3 368 383 382
3 368 369 383
3 369 384 383
3 369 370 384
3 370 385 384
3 370 371 385
3 371 386 385
3 371 372 386
3 372 387 386
3 372 373 387
3 375 376 388
3 376 389 388
3 376 377 389
3 377 390 389
3 377 378 390
3 378 391 390
3 378 379 391
3 379 392 391
3 379 380 392
3 380 393 392
3 380 381 393
3 381 394 393
3 381 382 394
3 382 383 394
3 394 383 395
3 383 396 395
3 383 384 396
3 384 397 396
3 384 385 397
3 385 398 397
3 385 386 398
3 386 399 398
3 386 387 399
3 390 391 400
3 391 401 400
3 391 392 401
3 392 402 401
3 392 393 402
3 393 403 402
3 393 394 403
3 394 395 403
3 403 395 404
3 395 405 404
3 395 396 405
3 396 406 405
3 396 397 406
3 397 407 406
3 397 398 407
3 402 403 408
3 408 403 409
3 403 404 409
3 409 404 410
3 404 405 410
3 410 405 411
3 405 406 411
3 411 406 412
3 406 407 412
3 412 407 413
3 411 412 414
3 414 412 415
3 412 416 415
3 412 413 416

CELL_DATA 750
SCALARS longitude float 1
LOOKUP_TABLE default
145.468994140625
145.36300659179688
145.47799682617188
145.4739990234375
145.3560028076172
145.45799255371094
145.7989959716797
145.6929931640625
145.81100463867188
145.70199584960938
145.8070068359375
145.69000244140625
145.78900146484375
145.6750030517578
145.77499389648438
145.65899658203125
145.76199340820312
146.1199951171875
146.01300048828125
146.1280059814453
146.0229949951172
146.13800048828125
146.03199768066406
146.13699340820312
146.02099609375
146.1179962158203
146.0030059814453
146.10299682617188
145.99000549316406
146.093994140625
145.98199462890625
146.08900451660156
145.9770050048828
146.09300231933594
146.44700622558594
146.33999633789062
146.4530029296875
146.3470001220703
146.45899963378906
146.35400390625
146.45799255371094
146.3470001220703
146.44500732421875
146.33200073242188
146.43099975585938
146.3179931640625
146.4219970703125
146.31100463867188
146.41900634765625
146.3090057373047
146.4250030517578
146.32000732421875
146.43899536132812
146.33099365234375
146.46299743652344
146.3699951171875
146.5070037841797
146.77200317382812
146.66600036621094
146.7760009765625
146.67100524902344
146.77999877929688
146.6739959716797
146.7790069580078
146.66799926757812
146.7689971923828
146.6580047607422
146.75799560546875
146.64599609375
146.74899291992188
146.63900756835938
146.7469940185547
146.63900756835938
146.75399780273438
146.64999389648438
146.76800537109375
146.66200256347656
146.79200744628906
146.6999969482422
146.83700561523438
146.73800659179688
146.86199951171875
146.7530059814453
146.8679962158203
146.7530059814453
146.76100158691406
146.88699340820312
147.10400390625
146.99200439453125
147.10299682617188
146.99200439453125
147.10000610351562
146.99099731445312
147.1020050048828
146.9980010986328
147.10400390625
146.99200439453125
147.09500122070312
146.98300170898438
147.08399963378906
146.97000122070312
147.0749969482422
146.96600341796875
147.0749969482422
146.96600341796875
147.08299255371094
146.97900390625
147.09800720214844
146.99200439453125
147.01199340820312
147.13999938964844
147.16900634765625
147.06900024414062
147.1929931640625
147.08599853515625
147.1959991455078
147.08700561523438
147.2030029296875
147.10699462890625
147.23899841308594
147.14999389648438
147.28799438476562
147.19500732421875
147.3280029296875
147.4320068359375
147.32699584960938
147.44000244140625
147.32699584960938
147.44000244140625
147.43899536132812
147.322998046875
147.43099975585938
147.32000732421875
147.4239959716797
147.31399536132812
147.41299438476562
147.3070068359375
147.40699768066406
147.29600524902344
147.39999389648438
147.29200744628906
147.39999389648438
147.29200744628906
147.2989959716797
147.4149932861328
147.3179931640625
147.4320068359375
147.343994140625
147.4709930419922
147.38999938964844
147.50900268554688
147.52200317382812
147.41600036621094
147.5260009765625
147.41400146484375
147.4199981689453
147.54600524902344
147.46099853515625
147.59300231933594
147.50999450683594
147.64100646972656
147.552001953125
147.67599487304688
147.58299255371094
147.70799255371094
147.61000061035156
147.7310028076172
147.6479949951172
147.76800537109375
147.7760009765625
147.66400146484375
147.77699279785156
147.6649932861328
147.66400146484375
147.77699279785156
147.77699279785156
147.65899658203125
147.76600646972656
147.64199829101562
147.74899291992188
147.63099670410156
147.74099731445312
147.6230010986328
147.73300170898438
147.6199951171875
147.73399353027344
147.62100219726562
147.62899780273438
147.7519989013672
147.76499938964844
147.656005859375
147.677001953125
147.80799865722656
147.7209930419922
147.843994140625
147.74200439453125
147.86000061035156
147.74899291992188
147.86599731445312
147.76600646972656
147.89700317382812
147.8090057373047
147.93800354003906
147.8520050048828
147.9810028076172
147.8939971923828
148.01800537109375
147.92599487304688
148.052001953125
147.95399475097656
148.093994140625
147.99200439453125
148.11099243164062
147.99899291992188
148.11099243164062
148.00100708007812
148.11199951171875
148.00100708007812
148.11099243164062
148.0
148.10499572753906
147.98800659179688
148.09100341796875
147.9759979248047
148.08200073242188
147.96600341796875
148.07699584960938
147.96099853515625
148.0780029296875
147.96299743652344
147.97300720214844
148.0970001220703
148.10899353027344
147.9980010986328
148.0189971923828
148.1510009765625
148.17599487304688
148.07000732421875
148.1959991455078
148.08700561523438
148.20399475097656
148.093994140625
148.11000061035156
148.22999572753906
148.14599609375
148.27099609375
148.19200134277344
148.32200622558594
148.23500061035156
148.35899353027344
148.26800537109375
148.39300537109375
148.41000366210938
148.30299377441406
148.42799377441406
148.3249969482422
148.44500732421875
148.33299255371094
148.4459991455078
148.3350067138672
148.44700622558594
148.3350067138672
148.44500732421875
148.33200073242188
148.43800354003906
148.32200622558594
148.42599487304688
148.31199645996094
148.4199981689453
148.30499267578125
148.41099548339844
148.3000030517578
148.302001953125
148.406005859375
148.3070068359375
148.4199981689453
148.32899475097656
148.44000244140625
148.3560028076172
148.47999572753906
148.39700317382812
148.51600646972656
148.5330047607422
148.42599487304688
148.54100036621094
148.42799377441406
148.43800354003906
148.5590057373047
148.4759979248047
148.60699462890625
148.531005859375
148.66000366210938
148.5749969482422
148.69900512695312
148.60899353027344
148.74000549316406
148.63299560546875
148.75100708007812
148.65199279785156
148.7729949951172
148.781005859375
148.66900634765625
148.7830047607422
148.67100524902344
148.78399658203125
148.67100524902344
148.66900634765625
148.77999877929688
148.7740020751953
148.656005859375
148.64999389648438
148.75999450683594
148.6439971923828
148.7480010986328
148.6300048828125
148.72500610351562
148.61099243164062
148.70599365234375
148.61399841308594
148.72900390625
148.64599609375
148.75999450683594
148.67799377441406
148.80599975585938
148.7270050048828
148.85000610351562
148.75599670410156
148.87100219726562
148.76300048828125
148.87399291992188
148.77200317382812
148.89300537109375
148.81100463867188
148.94000244140625
148.86500549316406
148.9929962158203
148.91099548339844
149.03500366210938
149.0749969482422
148.96499633789062
148.97000122070312
149.08799743652344
148.98899841308594
149.11000061035156
149.1179962158203
149.00599670410156
149.1199951171875
149.00799560546875
149.1219940185547
149.00900268554688
149.0070037841797
149.11700439453125
149.11000061035156
148.9929962158203
148.98599243164062
149.09500122070312
149.08200073242188
148.96299743652344
149.052001953125
148.9320068359375
148.91700744628906
149.02499389648438
148.9290008544922
149.05599975585938
148.97000122070312
149.0919952392578
149.00999450683594
149.1439971923828
149.06300354003906
149.18600463867188
149.08900451660156
149.20599365234375
149.09800720214844
149.2100067138672
149.10699462890625
149.22900390625
149.14500427246094
149.27499389648438
149.19700622558594
149.32899475097656
149.2480010986328
149.4040069580078
149.29800415039062
149.41099548339844
149.3070068359375
149.4239959716797
149.3260040283203
149.4459991455078
149.34300231933594
149.4550018310547
149.343994140625
149.45799255371094
149.3459930419922
149.45799255371094
149.34300231933594
149.4530029296875
149.33299255371094
149.43899536132812
149.32000732421875
149.4250030517578
149.30099487304688
149.39999389648438
149.27000427246094
149.3719940185547
149.25
149.36300659179688
149.26600646972656
149.3939971923828
149.3070068359375
149.4290008544922
149.34800720214844
149.4810028076172
149.39999389648438
149.5229949951172
149.42599487304688
149.54200744628906
149.4340057373047
149.54400634765625
149.4429931640625
149.56500244140625
149.48199462890625
149.61099243164062
149.53500366210938
149.66700744628906
149.71800231933594
149.62399291992188
149.73800659179688
149.63299560546875
149.74600219726562
149.64199829101562
149.75999450683594
149.66200256347656
149.78199768066406
149.6790008544922
149.79100036621094
149.68099975585938
149.79400634765625
149.68299865722656
149.7949981689453
149.6790008544922
149.78700256347656
149.66700744628906
149.77000427246094
149.6479949951172
149.7530059814453
149.6300048828125
149.73300170898438
149.60499572753906
149.70799255371094
149.58799743652344
149.6999969482422
149.60299682617188
149.72900390625
149.64199829101562
149.76400756835938
149.68299865722656
149.81500244140625
149.73500061035156
149.85699462890625
149.76100158691406
149.87600708007812
149.76800537109375
149.8780059814453
149.77699279785156
149.89999389648438
149.81700134277344
149.9459991455078
149.87100219726562
149.92799377441406
150.05299377441406
150.07000732421875
149.96099853515625
150.0780029296875
149.968994140625
150.08700561523438
149.98199462890625
150.1060028076172
150.00399780273438
150.12399291992188
150.01400756835938
150.1280059814453
150.01800537109375
150.13099670410156
150.0189971923828
150.1269989013672
150.01100158691406
150.11099243164062
149.99099731445312
150.0919952392578
149.9770050048828
150.07699584960938
149.95700073242188
150.052001953125
149.9320068359375
150.03599548339844
149.9239959716797
149.93899536132812
150.0659942626953
149.97799682617188
150.10000610351562
150.01800537109375
150.1510009765625
150.07000732421875
150.19400024414062
150.0959930419922
150.21299743652344
150.10299682617188
150.2169952392578
150.11399841308594
150.23899841308594
150.1529998779297
150.28399658203125
150.26400756835938
150.38900756835938
150.40499877929688
150.29600524902344
150.40899658203125
150.2989959716797
150.41000366210938
150.30799865722656
150.427001953125
150.33099365234375
150.44900512695312
150.343994140625
150.45799255371094
150.3520050048828
150.46400451660156
150.35400390625
150.46099853515625
150.3459930419922
150.4459991455078
150.3260040283203
150.427001953125
150.31199645996094
150.41299438476562
150.29400634765625
150.38699340820312
150.26699829101562
150.36900329589844
150.25900268554688
150.38499450683594
150.2899932861328
150.42599487304688
150.3249969482422
150.35499572753906
150.48699951171875
150.40699768066406
150.531005859375
150.54600524902344
150.43899536132812
150.55499267578125
150.4429931640625
150.4530029296875
150.5760040283203
150.49200439453125
150.67300415039062
150.572998046875
150.70399475097656
150.60800170898438
150.7310028076172
150.62600708007812
150.73300170898438
150.62399291992188
150.7270050048828
150.62399291992188
150.74099731445312
150.64700317382812
150.76600646972656
150.6649932861328
150.77999877929688
150.67799377441406
150.78900146484375
150.68299865722656
150.78799438476562
150.677001953125
150.77499389648438
150.65899658203125
150.75599670410156
150.6439971923828
150.74200439453125
150.62600708007812
150.71800231933594
150.5989990234375
150.697998046875
150.58900451660156
150.71400451660156
150.6199951171875
150.75599670410156
150.65699768066406
150.79800415039062
150.70899963378906
150.85000610351562
150.7519989013672
150.8769989013672
150.77200317382812
150.88499450683594
150.7760009765625
150.89700317382812
150.7989959716797
150.93299865722656
151.05299377441406
150.94700622558594
151.04800415039062
150.94000244140625
151.04100036621094
150.93699645996094
151.052001953125
150.95899963378906
151.07699584960938
150.97799682617188
151.08900451660156
150.99200439453125
151.10000610351562
150.99899291992188
151.0989990234375
150.99400329589844
151.08700561523438
150.97799682617188
151.07200622558594
150.9669952392578
151.06199645996094
150.9499969482422
151.03900146484375
150.92300415039062
151.02099609375
150.9149932861328
151.03700256347656
150.94500732421875
151.07699584960938
150.9810028076172
151.11900329589844
151.03399658203125
151.1719970703125
151.0780029296875
151.19900512695312
151.0970001220703
151.20700073242188
151.1009979248047
151.218994140625
151.125
151.2899932861328
151.40199279785156
151.30099487304688
151.41099548339844
151.3070068359375
151.4080047607422
151.30099487304688
151.39500427246094
151.28599548339844
151.3820037841797
151.2779998779297
151.3769989013672
151.26600646972656
151.35800170898438
151.24200439453125
151.34100341796875
151.23500061035156
151.35800170898438
151.26600646972656
151.39599609375
151.2989959716797
151.42999267578125
151.3459930419922
151.48300170898438
151.3939971923828
151.51600646972656
151.4149932861328
151.5260009765625
151.4199981689453
151.54100036621094
151.4459991455078
151.625
151.72900390625
151.61599731445312
151.71099853515625
151.5970001220703
151.697998046875
151.5919952392578
151.69400024414062
151.58299255371094
151.67799377441406
151.56300354003906
151.66299438476562
151.5570068359375
151.6820068359375
151.58999633789062
151.7220001220703
151.62100219726562
151.75599670410156
151.66299438476562
151.80499267578125
151.70899963378906
151.84100341796875
151.73599243164062
151.8520050048828
151.7429962158203
151.86700439453125
151.77000427246094
151.91900634765625
152.01800537109375
151.91099548339844
152.01199340820312
151.9010009765625
151.9949951171875
151.8820037841797
151.98300170898438
151.87899780273438
152.0030059814453
151.91299438476562
152.04600524902344
151.947998046875
151.9739990234375
152.1020050048828
152.13499450683594
152.03900146484375
152.16900634765625
152.0659942626953
152.1820068359375
152.072998046875
152.19700622558594
152.10000610351562
152.2030029296875
152.30799865722656
152.2010040283203
152.3300018310547
152.23599243164062
152.375
152.27499389648438
152.30499267578125
152.43499755859375
152.4669952392578
152.3679962158203
152.4980010986328
152.3939971923828
152.51199340820312
152.4040069580078
152.5989990234375
152.72300720214844
152.64100646972656
152.7740020751953
152.6909942626953
152.8159942626953
152.7209930419922
152.83900451660156
152.73399353027344
152.8489990234375
153.05799865722656
153.177001953125
153.18600463867188
153.0749969482422
SCALARS latitude float 1
LOOKUP_TABLE default
10.866000175476074
10.678000450134277
10.581000328063965
10.394000053405762
10.302000045776367
10.112000465393066
10.987000465393066
10.876999855041504
10.701000213623047
10.593999862670898
10.42300033569336
10.3149995803833
10.142999649047852
10.031999588012695
9.855999946594238
9.748000144958496
9.574000358581543
11.34000015258789
11.217000007629395
11.052000045776367
10.932000160217285
10.770000457763672
10.64900016784668
10.48799991607666
10.369999885559082
10.208999633789062
10.09000015258789
9.92300033569336
9.800000190734863
9.630999565124512
9.513999938964844
9.347999572753906
9.232999801635742
9.069000244140625
11.416999816894531
11.293999671936035
11.131999969482422
11.012999534606934
10.857000350952148
10.734000205993652
10.571999549865723
10.447999954223633
10.284000396728516
10.163999557495117
9.996000289916992
9.87399959564209
9.70300006866455
9.583000183105469
9.413999557495117
9.295999526977539
9.130999565124512
9.017999649047852
8.850000381469727
8.732000350952148
8.560999870300293
8.444999694824219
8.281000137329102
11.496999740600586
11.373000144958496
11.213000297546387
11.095000267028809
10.939000129699707
10.819000244140625
10.654999732971191
10.531000137329102
10.362000465393066
10.23900032043457
10.069000244140625
9.946999549865723
9.777000427246094
9.654999732971191
9.486000061035156
9.366000175476074
9.201000213623047
9.085000038146973
8.918999671936035
8.79800033569336
8.631999969482422
8.513999938964844
8.350000381469727
8.232000350952148
8.074999809265137
7.973999977111816
7.826000213623047
7.741000175476074
7.577000141143799
7.500999927520752
11.840999603271484
11.729000091552734
11.548999786376953
11.442000389099121
11.281999588012695
11.175999641418457
11.010000228881836
10.890999794006348
10.717000007629395
10.60099983215332
10.42199993133545
10.307000160217285
10.130000114440918
10.015000343322754
9.836999893188477
9.720999717712402
9.543999671936035
9.430999755859375
9.258000373840332
9.14900016784668
8.973999977111816
8.861000061035156
8.670999526977539
8.593999862670898
8.404000282287598
8.293999671936035
8.131999969482422
8.029999732971191
7.892000198364258
7.788000106811523
7.65500020980835
7.544000148773193
7.390999794006348
7.269000053405762
7.0960001945495605
6.978000164031982
6.802000045776367
12.041999816894531
11.847999572753906
11.744000434875488
11.557000160217285
11.461999893188477
11.293000221252441
11.215999603271484
11.04800033569336
10.947999954223633
10.76099967956543
10.64900016784668
10.461000442504883
10.35099983215332
10.161999702453613
10.057999610900879
9.869000434875488
9.762999534606934
9.576000213623047
9.472999572753906
9.282999992370605
9.194000244140625
8.994999885559082
8.901000022888184
8.706000328063965
8.619000434875488
8.425000190734863
8.33899974822998
8.164999961853027
8.074999809265137
7.934999942779541
7.854000091552734
7.698999881744385
7.622000217437744
7.425000190734863
7.323999881744385
7.117000102996826
7.017000198364258
6.820000171661377
6.7220001220703125
6.5320000648498535
6.434000015258789
6.244999885559082
6.144999980926514
12.142000198364258
12.048999786376953
11.85099983215332
11.746999740600586
11.557999610900879
11.460000038146973
11.291000366210938
11.208000183105469
11.043999671936035
10.963000297546387
10.782999992370605
10.680999755859375
10.484999656677246
10.378000259399414
10.1850004196167
10.079999923706055
9.892999649047852
9.78600025177002
9.60099983215332
9.496999740600586
9.305000305175781
9.21500015258789
9.017000198364258
8.911999702453613
8.722999572753906
8.633999824523926
8.444999694824219
8.359999656677246
8.182999610900879
8.100000381469727
7.941999912261963
7.861999988555908
7.705999851226807
7.598999977111816
7.414000034332275
7.294000148773193
7.104000091552734
6.994999885559082
6.809000015258789
6.703000068664551
6.519000053405762
6.414999961853027
6.230999946594238
12.187999725341797
12.071000099182129
11.890999794006348
11.774999618530273
11.595000267028809
11.482999801635742
11.307999610900879
11.208000183105469
11.043999671936035
10.960000038146973
10.789999961853027
10.694000244140625
10.505000114440918
10.39799976348877
10.208999633789062
10.102999687194824
9.918999671936035
9.812999725341797
9.62600040435791
9.520999908447266
9.32699966430664
9.234000205993652
9.043000221252441
8.937000274658203
8.743000030517578
8.663999557495117
8.479000091552734
8.376999855041504
8.208000183105469
8.107999801635742
7.933000087738037
7.843999862670898
7.670000076293945
7.570000171661377
7.379000186920166
7.2820000648498535
7.0879998207092285
6.99399995803833
6.795000076293945
6.698999881744385
6.504000186920166
6.409999847412109
12.538000106811523
12.420999526977539
12.234999656677246
12.119999885559082
11.935999870300293
11.822999954223633
11.640999794006348
11.529000282287598
11.35099983215332
11.241999626159668
11.071000099182129
10.972000122070312
10.803999900817871
10.704999923706055
10.524999618530273
10.420000076293945
10.230999946594238
10.12600040435791
9.932000160217285
9.831000328063965
9.633999824523926
9.531999588012695
9.335000038146973
9.23799991607666
9.04800033569336
8.956000328063965
8.770999908447266
8.678000450134277
8.491999626159668
8.406999588012695
8.237000465393066
8.138999938964844
7.966000080108643
7.860000133514404
7.671000003814697
7.583000183105469
7.386000156402588
7.304999828338623
7.10699987411499
7.019000053405762
6.810999870300293
6.7220001220703125
6.517000198364258
12.758999824523926
12.553999900817871
12.454999923706055
12.253000259399414
12.154999732971191
11.954999923706055
11.852999687194824
11.657999992370605
11.559000015258789
11.364999771118164
11.269000053405762
11.083000183105469
10.989999771118164
10.805999755859375
10.717000007629395
10.529000282287598
10.425000190734863
10.232000350952148
10.121000289916992
9.925000190734863
9.812000274658203
9.619999885559082
9.506999969482422
9.321000099182129
9.215999603271484
9.039999961853027
8.9399995803833
8.763999938964844
8.67199993133545
8.50100040435791
8.418000221252441
8.246000289916992
8.156000137329102
7.973999977111816
7.877999782562256
7.689000129699707
7.591000080108643
7.4039998054504395
7.309000015258789
7.122000217437744
7.019999980926514
6.828000068664551
6.729000091552734
12.86400032043457
12.76099967956543
12.559000015258789
12.463000297546387
12.26099967956543
12.164999961853027
11.96399974822998
11.861000061035156
11.663999557495117
11.562999725341797
11.366999626159668
11.267999649047852
11.079000473022461
10.982999801635742
10.793000221252441
10.704999923706055
10.51200008392334
10.404000282287598
10.197999954223633
10.10200023651123
9.88700008392334
9.793000221252441
9.588000297546387
9.47599983215332
9.288999557495117
9.1899995803833
9.017000198364258
8.927000045776367
8.758999824523926
8.673999786376953
8.505000114440918
8.418000221252441
8.241000175476074
8.147000312805176
7.9670000076293945
7.869999885559082
7.684000015258789
7.581999778747559
7.394000053405762
7.295000076293945
7.10699987411499
7.006999969482422
6.821000099182129
13.050000190734863
12.855999946594238
12.746999740600586
12.555999755859375
12.449999809265137
12.260000228881836
12.154000282287598
11.963000297546387
11.855999946594238
11.66100025177002
11.552000045776367
11.359000205993652
11.25100040435791
11.064000129699707
10.956000328063965
10.776000022888184
10.668000221252441
10.484000205993652
10.366000175476074
10.173999786376953
10.055000305175781
9.86400032043457
9.746000289916992
9.553999900817871
9.437999725341797
9.26099967956543
9.159000396728516
8.998000144958496
8.904000282287598
8.74899959564209
8.65999984741211
8.49899959564209
8.39900016784668
8.225000381469727
8.118000030517578
7.943999767303467
7.834000110626221
7.658999919891357
7.546000003814697
7.369999885559082
7.256999969482422
7.081999778747559
6.968999862670898
13.319999694824219
13.135000228881836
13.024999618530273
12.829999923706055
12.718999862670898
12.529000282287598
12.420000076293945
12.236000061035156
12.12600040435791
11.937000274658203
11.822999954223633
11.633000373840332
11.519000053405762
11.329999923706055
11.218999862670898
11.031999588012695
10.918000221252441
10.732999801635742
10.618000030517578
10.434000015258789
10.3149995803833
10.128000259399414
10.008999824523926
9.817000389099121
9.699000358581543
9.51099967956543
9.39799976348877
9.222000122070312
9.116999626159668
8.960000038146973
8.866000175476074
8.720999717712402
8.618000030517578
8.456999778747559
8.34000015258789
8.175000190734863
8.067000389099121
7.900000095367432
7.788000106811523
7.610000133514404
7.49399995803833
7.317999839782715
7.203000068664551
7.0289998054504395
13.414999961853027
13.32800006866455
13.130999565124512
13.02299976348877
12.82699966430664
12.717000007629395
12.527000427246094
12.420000076293945
12.232000350952148
12.123000144958496
11.930000305175781
11.819000244140625
11.62399959564209
11.515000343322754
11.317999839782715
11.211999893188477
11.01099967956543
10.904000282287598
10.701000213623047
10.600000381469727
10.402999877929688
10.303000450134277
10.105999946594238
10.0
9.802000045776367
9.692000389099121
9.498000144958496
9.390999794006348
9.199999809265137
9.11400032043457
8.937000274658203
8.85099983215332
8.675999641418457
8.581000328063965
8.404999732971191
8.314000129699707
8.140000343322754
8.050999641418457
7.866000175476074
7.767000198364258
7.572999954223633
7.4720001220703125
7.2779998779296875
7.182000160217285
13.442999839782715
13.359999656677246
13.163999557495117
13.050000190734863
12.873000144958496
12.758000373840332
12.585000038146973
12.46399974822998
12.289999961853027
12.164999961853027
11.984999656677246
11.857999801635742
11.67300033569336
11.550000190734863
11.36299991607666
11.241000175476074
11.050999641418457
10.928000450134277
10.739999771118164
10.619999885559082
10.437000274658203
10.321000099182129
10.140999794006348
10.027000427246094
9.847000122070312
9.727999687194824
9.54800033569336
9.428000450134277
9.255000114440918
9.138999938964844
8.972999572753906
8.862000465393066
8.682999610900879
8.611000061035156
8.418000221252441
8.342000007629395
8.156000137329102
8.055000305175781
7.876999855041504
7.7729997634887695
7.577000141143799
7.486000061035156
7.283999919891357
13.79800033569336
13.682999610900879
13.527000427246094
13.404000282287598
13.239999771118164
13.111000061035156
12.951000213623047
12.82699966430664
12.675999641418457
12.548999786376953
12.38599967956543
12.248000144958496
12.074999809265137
11.935999870300293
11.760000228881836
11.623000144958496
11.446999549865723
11.310999870300293
11.133999824523926
10.996999740600586
10.821000099182129
10.687000274658203
10.513999938964844
10.383000373840332
10.213000297546387
10.086999893188477
9.920000076293945
9.793999671936035
9.62600040435791
9.49899959564209
9.335000038146973
9.211000442504883
9.050000190734863
8.928000450134277
8.770000457763672
8.652999877929688
8.496000289916992
8.378000259399414
8.217000007629395
8.097999572753906
7.929999828338623
7.809000015258789
7.633999824523926
7.513000011444092
13.489999771118164
13.336000442504883
13.208999633789062
13.062000274658203
12.934000015258789
12.793000221252441
12.659000396728516
12.505999565124512
12.359999656677246
12.194000244140625
12.04699993133545
11.880000114440918
11.732000350952148
11.565999984741211
11.418000221252441
11.253000259399414
11.104999542236328
10.9399995803833
10.793000221252441
10.630000114440918
10.484999656677246
10.322999954223633
10.182999610900879
10.02400016784668
9.88700008392334
9.727999687194824
9.593000411987305
9.437999725341797
9.307999610900879
9.157999992370605
9.02400016784668
8.87600040435791
8.744999885559082
8.598999977111816
8.467000007629395
8.315999984741211
8.184000015258789
8.027999877929688
7.892000198364258
7.735000133514404
7.5970001220703125
12.170999526977539
12.001999855041504
11.857999801635742
11.687999725341797
11.543999671936035
11.376999855041504
11.232999801635742
11.0649995803833
10.920999526977539
10.753999710083008
10.609999656677246
10.444000244140625
10.302000045776367
10.137999534606934
10.0
9.838000297546387
9.70300006866455
9.545999526977539
9.416999816894531
9.270999908447266
9.142000198364258
9.005000114440918
8.873000144958496
8.729000091552734
8.586999893188477
8.435999870300293
8.29800033569336
8.140999794006348
8.003999710083008
7.843999862670898
7.710999965667725
11.656000137329102
11.480999946594238
11.345000267028809
11.17300033569336
11.03600025177002
10.862000465393066
10.723999977111816
10.550999641418457
10.413999557495117
10.243000030517578
10.109000205993652
9.940999984741211
9.809000015258789
9.645999908447266
9.519000053405762
9.366999626159668
9.246999740600586
9.109999656677246
8.996000289916992
8.845999717712402
8.711999893188477
8.543000221252441
8.40999984741211
8.241000175476074
8.111000061035156
7.940999984741211
7.810999870300293
11.137999534606934
10.968999862670898
10.829000473022461
10.65999984741211
10.520000457763672
10.354000091552734
10.21399974822998
10.050000190734863
9.911999702453613
9.753000259399414
9.619999885559082
9.46399974822998
9.33899974822998
9.170000076293945
9.104999542236328
8.914999961853027
8.800000190734863
8.621000289916992
8.498000144958496
8.321000099182129
8.196999549865723
8.027000427246094
7.901000022888184
10.3149995803833
10.13700008392334
10.01099967956543
9.838000297546387
9.717000007629395
9.54699993133545
9.427000045776367
9.236000061035156
9.159000396728516
8.961000442504883
8.847000122070312
8.664999961853027
8.553999900817871
8.369000434875488
8.258999824523926
9.571000099182129
9.470999717712402
9.27400016784668
9.173999786376953
8.97700023651123
8.871999740600586
8.673999786376953
8.567999839782715
8.375
8.270999908447266
8.668999671936035
8.571999549865723
8.37399959564209
8.270999908447266
