# vtk DataFile Version 3.0
SHAPE_sfm_50k_v20200323
ASCII
DATASET POLYDATA
POINTS 424 float
0.3830299973487854 -0.11574999988079071 -0.16520999372005463
0.3830299973487854 -0.1128000020980835 -0.16705000400543213
0.3843500018119812 -0.11349999904632568 -0.1646299958229065
0.38165000081062317 -0.11500000208616257 -0.16765999794006348
0.3813000023365021 -0.11281999945640564 -0.16925999522209167
0.37968000769615173 -0.11488000303506851 -0.1697400063276291
0.3791399896144867 -0.11322999745607376 -0.1711300015449524
0.3924599885940552 -0.11643999814987183 -0.1569799929857254
0.39195001125335693 -0.1146399974822998 -0.1581300050020218
0.3946099877357483 -0.11484000086784363 -0.15674999356269836
0.38978999853134155 -0.1162400022149086 -0.15831999480724335
0.3892900049686432 -0.11400000005960464 -0.159620001912117
0.3873699903488159 -0.11582999676465988 -0.16012999415397644
0.3873499929904938 -0.11275000125169754 -0.161530002951622
0.38561999797821045 -0.11468999832868576 -0.16224999725818634
0.3858399987220764 -0.11146999895572662 -0.16370999813079834
0.3844499886035919 -0.11080999672412872 -0.16599999368190765
0.38280999660491943 -0.1109199970960617 -0.16821999847888947
0.3809100091457367 -0.11144000291824341 -0.17030000686645508
0.3786500096321106 -0.11208000034093857 -0.17219999432563782
0.3772999942302704 -0.11404000222682953 -0.17333999276161194
0.37696999311447144 -0.11289999634027481 -0.1745299994945526
0.36261001229286194 -0.10879000276327133 -0.19450999796390533
0.35923999547958374 -0.10967999696731567 -0.19643999636173248
0.36063000559806824 -0.10764999687671661 -0.19641000032424927
0.35861000418663025 -0.10711999982595444 -0.1984499990940094
0.35747000575065613 -0.10924000293016434 -0.19877000153064728
0.3942900002002716 -0.11342000216245651 -0.1576099991798401
0.3915799856185913 -0.11271999776363373 -0.15897999703884125
0.38944000005722046 -0.11133000254631042 -0.16058999300003052
0.38782998919487 -0.10999999940395355 -0.16261999309062958
0.38624000549316406 -0.10926000028848648 -0.16474999487400055
0.38446998596191406 -0.10931000113487244 -0.166920006275177
0.38238000869750977 -0.10971999913454056 -0.16890999674797058
0.3803899884223938 -0.11044000089168549 -0.1710599958896637
0.3783299922943115 -0.11110000312328339 -0.17316000163555145
0.37661001086235046 -0.1120000034570694 -0.1754399985074997
0.3706200122833252 -0.11148999631404877 -0.18669000267982483
0.3692399859428406 -0.10925000160932541 -0.18648000061511993
0.3717400133609772 -0.10980000346899033 -0.185139998793602
0.3680900037288666 -0.11090999841690063 -0.18799999356269836
0.3669799864292145 -0.10869999974966049 -0.18840999901294708
0.36574000120162964 -0.11039000004529953 -0.18974000215530396
0.3650999963283539 -0.10792999714612961 -0.19062000513076782
0.3640899956226349 -0.10970000177621841 -0.1920900046825409
0.36357998847961426 -0.10696999728679657 -0.19301000237464905
0.36212998628616333 -0.10599000006914139 -0.19538000226020813
0.36044999957084656 -0.10569000244140625 -0.1975499987602234
0.39383000135421753 -0.11144000291824341 -0.15826000273227692
0.39667999744415283 -0.11217000335454941 -0.1572899967432022
0.39164999127388 -0.11004000157117844 -0.1597599983215332
0.3899900019168854 -0.10865999758243561 -0.16178999841213226
0.3882400095462799 -0.10773999989032745 -0.1638299971818924
0.3863599896430969 -0.1076899990439415 -0.16596999764442444
0.38411998748779297 -0.10801000148057938 -0.16783000528812408
0.3818399906158447 -0.10868000239133835 -0.16970999538898468
0.3800100088119507 -0.10948000103235245 -0.1719300001859665
0.37801000475883484 -0.11028999835252762 -0.1740099936723709
0.37641000747680664 -0.11080999672412872 -0.17649999260902405
0.37518998980522156 -0.11257000267505646 -0.17803999781608582
0.37551000714302063 -0.11042000353336334 -0.17926999926567078
0.3744499981403351 -0.11217000335454941 -0.18084999918937683
0.3752500116825104 -0.10931999981403351 -0.18207000195980072
0.37369000911712646 -0.11089999973773956 -0.1833599954843521
0.3733600080013275 -0.10818000137805939 -0.18400999903678894
0.37077999114990234 -0.10762999951839447 -0.18523000180721283
0.368149995803833 -0.10723999887704849 -0.18664999306201935
0.3661400079727173 -0.10648000240325928 -0.18884000182151794
0.36469000577926636 -0.10552000254392624 -0.19131000339984894
0.3632600009441376 -0.10453999787569046 -0.19370999932289124
0.3615500032901764 -0.10416000336408615 -0.19594000279903412
0.3596999943256378 -0.1044899970293045 -0.19822999835014343
0.39590001106262207 -0.10982000082731247 -0.15772999823093414
0.3937999904155731 -0.10847999900579453 -0.15936000645160675
0.3920400142669678 -0.10701999813318253 -0.16123999655246735
0.39024999737739563 -0.10606999695301056 -0.16329999268054962
0.3882899880409241 -0.10595999658107758 -0.16540999710559845
0.38609999418258667 -0.10631000250577927 -0.1673000007867813
0.38363999128341675 -0.10685999691486359 -0.16891999542713165
0.38137999176979065 -0.1075500026345253 -0.17075000703334808
0.37959998846054077 -0.10847999900579453 -0.1729699969291687
0.37770000100135803 -0.10892000049352646 -0.1752299964427948
0.37669000029563904 -0.10851000249385834 -0.17798000574111938
0.3758400082588196 -0.10733000189065933 -0.18051999807357788
0.3744800090789795 -0.10619000345468521 -0.18287000060081482
0.3720400035381317 -0.10560999810695648 -0.18435999751091003
0.36937999725341797 -0.10523000359535217 -0.18565000593662262
0.3671500086784363 -0.10452000051736832 -0.18759000301361084
0.36559998989105225 -0.10360000282526016 -0.19000999629497528
0.36417001485824585 -0.10262999683618546 -0.19241000711917877
0.36243000626564026 -0.10224000364542007 -0.1946599930524826
0.3603599965572357 -0.10266999900341034 -0.19665999710559845
0.39739999175071716 -0.10763999819755554 -0.15735000371932983
0.39552998542785645 -0.1064400002360344 -0.1593099981546402
0.3937700092792511 -0.10499999672174454 -0.161190003156662
0.39190998673439026 -0.10400000214576721 -0.1632400006055832
0.38993000984191895 -0.10389000177383423 -0.16539999842643738
0.38778001070022583 -0.10426999628543854 -0.16732999682426453
0.38534000515937805 -0.10482999682426453 -0.16888999938964844
0.38286998867988586 -0.10541000217199326 -0.17037999629974365
0.3806999921798706 -0.10623999685049057 -0.17223000526428223
0.37907999753952026 -0.10679999738931656 -0.1746699959039688
0.3776000142097473 -0.10627000033855438 -0.17714999616146088
0.37657999992370605 -0.1050800010561943 -0.17958000302314758
0.3746899962425232 -0.10400000214576721 -0.18150000274181366
0.37251999974250793 -0.10333999991416931 -0.1832900047302246
0.3701600134372711 -0.10292000323534012 -0.18497000634670258
0.367900013923645 -0.1022299975156784 -0.18682000041007996
0.36621999740600586 -0.10134000331163406 -0.18911999464035034
0.36476999521255493 -0.10040999948978424 -0.19151000678539276
0.3631500005722046 -0.10001000016927719 -0.19388000667095184
0.361160010099411 -0.10040999948978424 -0.19594000279903412
0.3589000105857849 -0.10089000314474106 -0.19787000119686127
0.39844000339508057 -0.10516999661922455 -0.15776999294757843
0.39660999178886414 -0.10401999950408936 -0.15974999964237213
0.39487001299858093 -0.10261999815702438 -0.16169999539852142
0.39298000931739807 -0.10162000358104706 -0.16373999416828156
0.3908199965953827 -0.10142000019550323 -0.16572999954223633
0.3885999917984009 -0.10176999866962433 -0.16761000454425812
0.38624998927116394 -0.10238999873399734 -0.16925999522209167
0.383760005235672 -0.10296999663114548 -0.17069999873638153
0.3815700113773346 -0.10378000140190125 -0.1725199967622757
0.37968000769615173 -0.10426999628543854 -0.17475999891757965
0.37821000814437866 -0.10374999791383743 -0.17718000710010529
0.37683001160621643 -0.1025099977850914 -0.17936000227928162
0.37487998604774475 -0.10141000151634216 -0.18119999766349792
0.37275999784469604 -0.1007699966430664 -0.183119997382164
0.3704499900341034 -0.10036999732255936 -0.1848900020122528
0.36820000410079956 -0.09969999641180038 -0.18671999871730804
0.3664900064468384 -0.09883999824523926 -0.18895000219345093
0.3648099899291992 -0.09792999923229218 -0.19115999341011047
0.363209992647171 -0.09754999727010727 -0.1936199963092804
0.3616800010204315 -0.0979899987578392 -0.19606000185012817
0.3594900071620941 -0.09839999675750732 -0.19795000553131104
0.3988400101661682 -0.10254000127315521 -0.15816999971866608
0.3971000015735626 -0.1014299988746643 -0.16026000678539276
0.3953999876976013 -0.10006999969482422 -0.16227999329566956
0.39353999495506287 -0.09909000247716904 -0.1643799990415573
0.39127999544143677 -0.098860003054142 -0.16625000536441803
0.3889400064945221 -0.09917999804019928 -0.16800999641418457
0.3866400122642517 -0.09983000159263611 -0.16972999274730682
0.3842499852180481 -0.10046999901533127 -0.17133000493049622
0.38225001096725464 -0.10136999934911728 -0.17330999672412872
0.3804300129413605 -0.10187999904155731 -0.17556999623775482
0.3787800073623657 -0.10129000246524811 -0.177839994430542
0.3771499991416931 -0.09999000281095505 -0.17987999320030212
0.3753199875354767 -0.0989300012588501 -0.1818999946117401
0.37303000688552856 -0.09822999686002731 -0.18358999490737915
0.3706200122833252 -0.09780000150203705 -0.18522000312805176
0.36855000257492065 -0.09722000360488892 -0.18727000057697296
0.3666299879550934 -0.09634000062942505 -0.18928000330924988
0.36476999521255493 -0.09543000161647797 -0.19137999415397644
0.36316001415252686 -0.0950699970126152 -0.19386999309062958
0.3619399964809418 -0.0955900028347969 -0.19652000069618225
0.39910998940467834 -0.09990999847650528 -0.15871000289916992
0.39726999402046204 -0.0987899973988533 -0.16072000563144684
0.39563000202178955 -0.09746000170707703 -0.16282999515533447
0.39362001419067383 -0.0964599996805191 -0.1647700071334839
0.3913300037384033 -0.09623000025749207 -0.1666100025177002
0.3889800012111664 -0.09657000005245209 -0.168380007147789
0.386819988489151 -0.09726999700069427 -0.17027999460697174
0.38477998971939087 -0.09807000309228897 -0.17223000526428223
0.3828499913215637 -0.09901999682188034 -0.17422999441623688
0.380950003862381 -0.09949000179767609 -0.17643000185489655
0.37926000356674194 -0.09888000041246414 -0.1786700040102005
0.3776699900627136 -0.09764000028371811 -0.1807900071144104
0.3756999969482422 -0.09653999656438828 -0.1826999932527542
0.3736500144004822 -0.0960099995136261 -0.18476000428199768
0.3712399899959564 -0.0955599993467331 -0.18637999892234802
0.3688899874687195 -0.09481000155210495 -0.1879899948835373
0.36667999625205994 -0.09386000037193298 -0.18967999517917633
0.3646799921989441 -0.09292999655008316 -0.19168999791145325
0.36327001452445984 -0.09262999892234802 -0.19434000551700592
0.3618299961090088 -0.0931600034236908 -0.19686000049114227
0.4014100134372711 -0.097680002450943 -0.1573300063610077
0.3993000090122223 -0.09728000313043594 -0.15931999683380127
0.39750999212265015 -0.09618999809026718 -0.1613900065422058
0.3957099914550781 -0.09483999758958817 -0.1633400022983551
0.39357998967170715 -0.09380999952554703 -0.16514000296592712
0.39118000864982605 -0.09358999878168106 -0.1668500006198883
0.38885000348091125 -0.09393999725580215 -0.16865000128746033
0.386680006980896 -0.09465999901294708 -0.17053000628948212
0.384660005569458 -0.09551999717950821 -0.17249999940395355
0.3832800090312958 -0.0965299978852272 -0.17490999400615692
0.3813900053501129 -0.0970500037074089 -0.17712999880313873
0.3797999918460846 -0.09649000316858292 -0.17951999604701996
0.37786999344825745 -0.09516000002622604 -0.18131999671459198
0.37610000371932983 -0.09415999799966812 -0.18347999453544617
0.37435999512672424 -0.09380000084638596 -0.1858700066804886
0.3718700110912323 -0.09334000200033188 -0.18745000660419464
0.36928001046180725 -0.09239999949932098 -0.18855999410152435
0.36687999963760376 -0.09136000275611877 -0.19000999629497528
0.3649600148200989 -0.09043999761343002 -0.19213999807834625
0.3634600043296814 -0.09018000215291977 -0.19472000002861023
0.3617999851703644 -0.09072999656200409 -0.19709999859333038
0.4018999934196472 -0.09508000314235687 -0.15783999860286713
0.3997800052165985 -0.0946900025010109 -0.15984000265598297
0.3978700041770935 -0.09356000274419785 -0.16178999841213226
0.39605000615119934 -0.09220000356435776 -0.16369999945163727
0.3939499855041504 -0.09120000153779984 -0.16553999483585358
0.39149999618530273 -0.09094999730587006 -0.16715000569820404
0.3890500068664551 -0.09128999710083008 -0.16877000033855438
0.3867399990558624 -0.09201999753713608 -0.1704699993133545
0.38449999690055847 -0.09291999787092209 -0.17215999960899353
0.38291001319885254 -0.09397000074386597 -0.17445999383926392
0.3816399872303009 -0.094480000436306 -0.1771399974822998
0.37994998693466187 -0.09391000121831894 -0.17949000000953674
0.3781999945640564 -0.09264999628067017 -0.18148000538349152
0.37669000029563904 -0.09171000123023987 -0.1838500052690506
0.37485000491142273 -0.09126000106334686 -0.18614999949932098
0.3723300099372864 -0.09083999693393707 -0.1877100020647049
0.3696900010108948 -0.08992999792098999 -0.18877999484539032
0.3673799932003021 -0.088919997215271 -0.19041000306606293
0.3656899929046631 -0.08810999989509583 -0.19272999465465546
0.36390000581741333 -0.08776000142097473 -0.19505999982357025
0.36195001006126404 -0.08826000243425369 -0.19721999764442444
0.40046998858451843 -0.09209000319242477 -0.15976999700069427
0.4027400016784668 -0.09251999855041504 -0.15790000557899475
0.39855000376701355 -0.09096000343561172 -0.16173000633716583
0.3968999981880188 -0.08967000246047974 -0.1638299971818924
0.39487001299858093 -0.08869999647140503 -0.1657399982213974
0.39243000745773315 -0.08846999704837799 -0.16734999418258667
0.3899399936199188 -0.08877000212669373 -0.1688700020313263
0.3874399960041046 -0.08945000171661377 -0.17027999460697174
0.3850499987602234 -0.09032999724149704 -0.17175999283790588
0.382860004901886 -0.09148000180721283 -0.17351999878883362
0.38137000799179077 -0.09205999970436096 -0.17615999281406403
0.38019001483917236 -0.09143000096082687 -0.17882999777793884
0.3786599934101105 -0.09019000083208084 -0.18102000653743744
0.37692001461982727 -0.08925999701023102 -0.1832199990749359
0.37498000264167786 -0.08879999816417694 -0.18536999821662903
0.3726300001144409 -0.08838000148534775 -0.1871200054883957
0.37031999230384827 -0.08750999718904495 -0.1887899935245514
0.36833998560905457 -0.08663000166416168 -0.1908400058746338
0.3663800060749054 -0.0857200026512146 -0.19288000464439392
0.3645099997520447 -0.08536999672651291 -0.19514000415802002
0.36250001192092896 -0.0858599990606308 -0.19724999368190765
0.401529997587204 -0.08959999680519104 -0.15960000455379486
0.40362000465393066 -0.08998999744653702 -0.15749000012874603
0.39972999691963196 -0.08852999657392502 -0.16168999671936035
0.3980199992656708 -0.08724000304937363 -0.1637600064277649
0.39612001180648804 -0.08635000139474869 -0.16580000519752502
0.39368000626564026 -0.08612000197172165 -0.16739000380039215
0.3911899924278259 -0.08642999827861786 -0.1688999980688095
0.388619989156723 -0.08705999702215195 -0.17021000385284424
0.38607001304626465 -0.08787000179290771 -0.17146000266075134
0.383650004863739 -0.08895999938249588 -0.1729000061750412
0.3814699947834015 -0.08963000029325485 -0.1750199943780899
0.3802500069141388 -0.08906000107526779 -0.17775000631809235
0.37918999791145325 -0.08782000094652176 -0.1802300065755844
0.3773699998855591 -0.08686999976634979 -0.18233999609947205
0.37533000111579895 -0.08641999959945679 -0.18438999354839325
0.3731600046157837 -0.08597999811172485 -0.18636000156402588
0.37123000621795654 -0.08517000079154968 -0.18850000202655792
0.3695400059223175 -0.08443000167608261 -0.19085000455379486
0.36768001317977905 -0.08359000086784363 -0.19301000237464905
0.3655799925327301 -0.08313000202178955 -0.19502000510692596
0.36353999376296997 -0.08363000303506851 -0.19711999595165253
0.4028100073337555 -0.08720999956130981 -0.1595900058746338
0.40112000703811646 -0.08622000366449356 -0.16182999312877655
0.39917001128196716 -0.08483000099658966 -0.16360999643802643
0.3972199857234955 -0.08392000198364258 -0.1656399965286255
0.3948499858379364 -0.08375000208616257 -0.16735999286174774
0.3924199938774109 -0.08409000188112259 -0.16896000504493713
0.3899900019168854 -0.08479999750852585 -0.17046000063419342
0.3873499929904938 -0.08552999794483185 -0.1715400069952011
0.38479000329971313 -0.08651000261306763 -0.17273999750614166
0.3822999894618988 -0.08707000315189362 -0.17445999383926392
0.3806999921798706 -0.08649999648332596 -0.1770000010728836
0.3799099922180176 -0.08539000153541565 -0.17964999377727509
0.37852999567985535 -0.0845400020480156 -0.18208999931812286
0.3766399919986725 -0.08415000140666962 -0.1843000054359436
0.37450000643730164 -0.08371999859809875 -0.18629999458789825
0.3724899888038635 -0.08292999863624573 -0.18835000693798065
0.3706800043582916 -0.08219999819993973 -0.19059999287128448
0.3689599931240082 -0.08145000040531158 -0.1929199993610382
0.3668699860572815 -0.08101999759674072 -0.1949400007724762
0.3647199869155884 -0.08149000257253647 -0.1969199925661087
0.4041900038719177 -0.08488000184297562 -0.16005000472068787
0.4023500084877014 -0.08382000029087067 -0.16216999292373657
0.4002400040626526 -0.08237999677658081 -0.16377000510692596
0.39807000756263733 -0.08139000087976456 -0.16554999351501465
0.3958199918270111 -0.08128000050783157 -0.16749000549316406
0.39337000250816345 -0.0816200003027916 -0.1691100001335144
0.3910199999809265 -0.08239000290632248 -0.17073999345302582
0.38861000537872314 -0.08326999843120575 -0.17211000621318817
0.3859499990940094 -0.08415000140666962 -0.17313000559806824
0.38343000411987305 -0.08461999893188477 -0.1747400015592575
0.38187000155448914 -0.08406999707221985 -0.17728999257087708
0.3812899887561798 -0.08323000371456146 -0.18007999658584595
0.3800800144672394 -0.08256000280380249 -0.18267999589443207
0.3781599998474121 -0.08218000084161758 -0.1848900020122528
0.3760800063610077 -0.08182000368833542 -0.18698999285697937
0.373989999294281 -0.08094000071287155 -0.18890999257564545
0.3718999922275543 -0.08000999689102173 -0.1907999962568283
0.3698500096797943 -0.07912000268697739 -0.192780002951622
0.3678799867630005 -0.07875999808311462 -0.19495999813079834
0.36574000120162964 -0.07925000041723251 -0.1969500035047531
0.4045499861240387 -0.08217000216245651 -0.15986000001430511
0.40281999111175537 -0.08113999664783478 -0.16207000613212585
0.4009999930858612 -0.07981999963521957 -0.16404999792575836
0.3988400101661682 -0.07885999977588654 -0.16586999595165253
0.39645999670028687 -0.0786999985575676 -0.1676499992609024
0.39403998851776123 -0.07907000184059143 -0.16933999955654144
0.39177000522613525 -0.07988999783992767 -0.17107999324798584
0.389629989862442 -0.08094999939203262 -0.17276999354362488
0.3870700001716614 -0.08190000057220459 -0.17392000555992126
0.3845899999141693 -0.08236999809741974 -0.1755799949169159
0.38332000374794006 -0.08209999650716782 -0.17831000685691833
0.3829500079154968 -0.0816200003027916 -0.1812400072813034
0.3815999925136566 -0.08083999902009964 -0.1837799996137619
0.3796299993991852 -0.08038999885320663 -0.18595999479293823
0.37749001383781433 -0.07998999953269958 -0.18799999356269836
0.37536001205444336 -0.07903999835252762 -0.189860001206398
0.37303000688552856 -0.07780999690294266 -0.19125999510288239
0.37077000737190247 -0.07677999883890152 -0.1929599940776825
0.3687700033187866 -0.07645999640226364 -0.1951799988746643
0.36667001247406006 -0.07699000090360641 -0.19721999764442444
0.40505000948905945 -0.07952000200748444 -0.15987999737262726
0.4033200144767761 -0.07850000262260437 -0.16210000216960907
0.4016000032424927 -0.07722000032663345 -0.16419999301433563
0.39958998560905457 -0.07631999999284744 -0.1662299931049347
0.39715999364852905 -0.07615000009536743 -0.16795000433921814
0.3947399854660034 -0.07653000205755234 -0.16964000463485718
0.3924599885940552 -0.07735999673604965 -0.17137999832630157
0.390390008687973 -0.07846000045537949 -0.17316000163555145
0.3881799876689911 -0.07968000322580338 -0.1747100055217743
0.38589000701904297 -0.0803299993276596 -0.1765500009059906
0.38484999537467957 -0.08031000196933746 -0.1793700009584427
0.38440999388694763 -0.0797400027513504 -0.18227000534534454
0.3833500146865845 -0.07941000163555145 -0.18508000671863556
0.3813300132751465 -0.07898999750614166 -0.18735000491142273
0.3790299892425537 -0.07829999923706055 -0.18922999501228333
0.3767000138759613 -0.07705999910831451 -0.19072000682353973
0.3742400109767914 -0.07566999644041061 -0.19177000224590302
0.3720000088214874 -0.07466000318527222 -0.19349999725818634
0.36974000930786133 -0.0741799995303154 -0.19540999829769135
0.3674300014972687 -0.07466000318527222 -0.19724999368190765
0.4055800139904022 -0.07687000185251236 -0.16005000472068787
0.4038200080394745 -0.07586000114679337 -0.16224999725818634
0.40220001339912415 -0.07462000101804733 -0.16446000337600708
0.4002099931240082 -0.0737299993634224 -0.16651000082492828
0.3978799879550934 -0.07362999767065048 -0.16836999356746674
0.3954299986362457 -0.07399000227451324 -0.1700499951839447
0.3931500017642975 -0.0748400017619133 -0.17181000113487244
0.39100000262260437 -0.07593999803066254 -0.17351999878883362
0.3890500068664551 -0.0773100033402443 -0.17529000341892242
0.38708001375198364 -0.07822000235319138 -0.1773499995470047
0.3859100043773651 -0.07810000330209732 -0.18010999262332916
0.38558000326156616 -0.07752999663352966 -0.1830199956893921
0.3849000036716461 -0.07739000022411346 -0.1860799938440323
0.3826099932193756 -0.07682999968528748 -0.1882299929857254
0.3800800144672394 -0.07597000151872635 -0.18971000611782074
0.3777399957180023 -0.0747700035572052 -0.1911499947309494
0.37533000111579895 -0.07350999861955643 -0.1923999935388565
0.37318000197410583 -0.0725800022482872 -0.19425000250339508
0.3707999885082245 -0.07201000303030014 -0.19596999883651733
0.36834999918937683 -0.07241000235080719 -0.19764000177383423
0.40821999311447144 -0.07461000233888626 -0.15818999707698822
0.4061500132083893 -0.07423999905586243 -0.16031000018119812
0.4044100046157837 -0.07322999835014343 -0.16253000497817993
0.4029400050640106 -0.07207000255584717 -0.164900004863739
0.4011400043964386 -0.07130999863147736 -0.16717000305652618
0.3987500071525574 -0.07118000090122223 -0.1689700037240982
0.39625000953674316 -0.07152999937534332 -0.17058999836444855
0.39403000473976135 -0.07241000235080719 -0.17239999771118164
0.39177998900413513 -0.07346999645233154 -0.17399999499320984
0.38975000381469727 -0.07483000308275223 -0.17570999264717102
0.38795000314712524 -0.07583999633789062 -0.1778700053691864
0.3865399956703186 -0.07564999908208847 -0.18051999807357788
0.38604000210762024 -0.07500000298023224 -0.18339000642299652
0.385560005903244 -0.07475999742746353 -0.186489999294281
0.3832100033760071 -0.07430999726057053 -0.18859000504016876
0.3806400001049042 -0.07349000126123428 -0.18998000025749207
0.37817999720573425 -0.0722699984908104 -0.19120000302791595
0.37606000900268555 -0.0711899995803833 -0.19300000369548798
0.37411999702453613 -0.07044000178575516 -0.1951500028371811
0.3715899884700775 -0.06977999955415726 -0.19664999842643738
0.36904001235961914 -0.07011999934911728 -0.198170006275177
0.4090299904346466 -0.07207000255584717 -0.15863999724388123
0.4070500135421753 -0.07171999663114548 -0.16085000336170197
0.40536999702453613 -0.07077000290155411 -0.16313999891281128
0.4038900136947632 -0.06964000314474106 -0.1655000001192093
0.39713001251220703 -0.06908000260591507 -0.17110000550746918
0.3996100127696991 -0.06871999800205231 -0.16947999596595764
0.39478999376296997 -0.06990999728441238 -0.17276999354362488
0.39261001348495483 -0.07101999968290329 -0.1744299978017807
0.3905099928379059 -0.07236000150442123 -0.1760600060224533
0.3885999917984009 -0.07334999740123749 -0.17816999554634094
0.3870700001716614 -0.07312999665737152 -0.18073999881744385
0.3861300051212311 -0.07242999970912933 -0.1835000067949295
0.3855699896812439 -0.07214999943971634 -0.18649999797344208
0.38392001390457153 -0.07186999917030334 -0.18925000727176666
0.3810800015926361 -0.07102999836206436 -0.19035999476909637
0.37852001190185547 -0.06975000351667404 -0.19140000641345978
0.3768100142478943 -0.06889999657869339 -0.19374999403953552
0.3748199939727783 -0.06812000274658203 -0.1958799958229065
0.3721599876880646 -0.06744000315666199 -0.19718000292778015
0.3696799874305725 -0.06784000247716904 -0.19881999492645264
0.39351001381874084 -0.06855999678373337 -0.17461000382900238
0.39142000675201416 -0.06992000341415405 -0.1762399971485138
0.38947001099586487 -0.07090000063180923 -0.178289994597435
0.38784000277519226 -0.07064999639987946 -0.18080000579357147
0.38690000772476196 -0.06996999680995941 -0.18355999886989594
0.3855400085449219 -0.06958000361919403 -0.18619999289512634
0.38425999879837036 -0.0692799985408783 -0.18901999294757843
0.38172999024391174 -0.06860999763011932 -0.19066999852657318
0.3794499933719635 -0.06752999871969223 -0.19228999316692352
0.37724998593330383 -0.06644000113010406 -0.19397999346256256
0.3751400113105774 -0.06560000032186508 -0.19593000411987305
0.37257999181747437 -0.06503000110387802 -0.19742000102996826
0.37018999457359314 -0.06547000259160995 -0.199180006980896
0.39232999086380005 -0.06748999655246735 -0.17657999694347382
0.39021000266075134 -0.06842000037431717 -0.17847000062465668
0.38870999217033386 -0.06824000179767609 -0.1810699999332428
0.3874100148677826 -0.0674699991941452 -0.1836400032043457
0.38576000928878784 -0.06705000251531601 -0.18610000610351562
0.3841800093650818 -0.06672000139951706 -0.18863999843597412
0.38264000415802 -0.06626000255346298 -0.1912499964237213
0.3802900016307831 -0.0652099996805191 -0.19294999539852142
0.3777199983596802 -0.06396999955177307 -0.19393999874591827
0.37518998980522156 -0.0630899965763092 -0.19533999264240265
0.37310001254081726 -0.06261000037193298 -0.19750000536441803
0.37066999077796936 -0.06306000053882599 -0.19923999905586243
POLYGONS 762 3048
3 0 1 2
3 0 3 1
3 3 4 1
3 3 5 4
3 5 6 4
3 7 8 9
3 7 10 8
3 10 11 8
3 10 12 11
3 12 13 11
3 12 14 13
3 14 15 13
3 14 2 15
3 2 16 15
3 2 1 16
3 1 17 16
3 1 4 17
3 4 18 17
3 4 6 18
3 6 19 18
3 6 20 19
3 20 21 19
3 22 23 24
3 23 25 24
3 23 26 25
3 9 8 27
3 8 28 27
3 8 11 28
3 11 29 28
3 11 13 29
3 13 30 29
3 13 15 30
3 15 31 30
3 15 16 31
3 16 32 31
3 16 17 32
3 17 33 32
3 17 18 33
3 18 34 33
3 18 19 34
3 19 35 34
3 19 21 35
3 21 36 35
3 37 38 39
3 37 40 38
3 40 41 38
3 40 42 41
3 42 43 41
3 42 44 43
3 44 45 43
3 44 22 45
3 22 46 45
3 22 24 46
3 24 47 46
3 24 25 47
3 27 48 49
3 27 28 48
3 28 50 48
3 28 29 50
3 29 51 50
3 29 30 51
3 30 52 51
3 30 31 52
3 31 53 52
3 31 32 53
3 32 54 53
3 32 33 54
3 33 55 54
3 33 34 55
3 34 56 55
3 34 35 56
3 35 57 56
3 35 36 57
3 36 58 57
3 36 59 58
3 59 60 58
3 59 61 60
3 61 62 60
3 61 63 62
3 63 64 62
3 63 39 64
3 39 65 64
3 39 38 65
3 38 66 65
3 38 41 66
3 41 67 66
3 41 43 67
3 43 68 67
3 43 45 68
3 45 69 68
3 45 46 69
3 46 70 69
3 46 47 70
3 47 71 70
3 49 48 72
3 48 73 72
3 48 50 73
3 50 74 73
3 50 51 74
3 51 75 74
3 51 52 75
3 52 76 75
3 52 53 76
3 53 77 76
3 53 54 77
3 54 78 77
3 54 55 78
3 55 79 78
3 55 56 79
3 56 80 79
3 56 57 80
3 57 81 80
3 57 58 81
3 58 82 81
3 58 60 82
3 60 83 82
3 60 62 83
3 62 84 83
3 62 64 84
3 64 85 84
3 64 65 85
3 65 86 85
3 65 66 86
3 66 87 86
3 66 67 87
3 67 88 87
3 67 68 88
3 68 89 88
3 68 69 89
3 69 90 89
3 69 70 90
3 70 91 90
3 70 71 91
3 72 73 92
3 92 73 93
3 73 74 93
3 93 74 94
3 74 95 94
3 74 75 95
3 75 96 95
3 75 76 96
3 76 97 96
3 76 77 97
3 77 98 97
3 77 78 98
3 78 99 98
3 78 79 99
3 79 100 99
3 79 80 100
3 80 101 100
3 80 81 101
3 81 102 101
3 81 82 102
3 82 103 102
3 82 83 103
3 83 104 103
3 83 84 104
3 84 105 104
3 84 85 105
3 85 106 105
3 85 86 106
3 86 107 106
3 86 87 107
3 87 108 107
3 87 88 108
3 88 109 108
3 88 89 109
3 89 110 109
3 89 90 110
3 90 111 110
3 90 91 111
3 91 112 111
3 92 93 113
3 113 93 114
3 93 94 114
3 114 94 115
3 94 95 115
3 115 95 116
3 95 117 116
3 95 96 117
3 96 118 117
3 96 97 118
3 97 119 118
3 97 98 119
3 98 120 119
3 98 99 120
3 99 121 120
3 99 100 121
3 100 122 121
3 100 101 122
3 101 102 122
3 122 102 123
3 102 103 123
3 123 103 124
3 103 104 124
3 124 104 125
3 104 105 125
3 125 105 126
3 105 127 126
3 105 106 127
3 106 107 127
3 127 107 128
3 107 108 128
3 128 108 129
3 108 109 129
3 129 109 130
3 109 131 130
3 109 110 131
3 110 132 131
3 110 111 132
3 111 133 132
3 111 112 133
3 113 114 134
3 134 114 135
3 114 115 135
3 135 115 136
3 115 116 136
3 136 116 137
3 116 117 137
3 137 117 138
3 117 139 138
3 117 118 139
3 118 140 139
3 118 119 140
3 119 141 140
3 119 120 141
3 120 142 141
3 120 121 142
3 121 143 142
3 121 122 143
3 122 123 143
3 143 123 144
3 123 124 144
3 144 124 145
3 124 125 145
3 145 125 146
3 125 126 146
3 146 126 147
3 126 127 147
3 147 127 148
3 127 128 148
3 148 128 149
3 128 129 149
3 149 129 150
3 129 130 150
3 150 130 151
3 130 131 151
3 151 131 152
3 131 153 152
3 131 132 153
3 134 135 154
3 154 135 155
3 135 136 155
3 155 136 156
3 136 137 156
3 156 137 157
3 137 138 157
3 157 138 158
3 138 159 158
3 138 139 159
3 139 160 159
3 139 140 160
3 140 161 160
3 140 141 161
3 141 162 161
3 141 142 162
3 142 163 162
3 142 143 163
3 143 144 163
3 163 144 164
3 144 145 164
3 164 145 165
3 145 146 165
3 165 146 166
3 146 147 166
3 166 147 167
3 147 148 167
3 167 148 168
3 148 149 168
3 168 149 169
3 149 150 169
3 169 150 170
3 150 151 170
3 170 151 171
3 151 152 171
3 171 152 172
3 152 173 172
3 152 153 173
3 174 154 175
3 154 155 175
3 175 155 176
3 155 156 176
3 176 156 177
3 156 157 177
3 177 157 178
3 157 158 178
3 178 158 179
3 158 180 179
3 158 159 180
3 159 181 180
3 159 160 181
3 160 182 181
3 160 161 182
3 161 183 182
3 161 162 183
3 162 184 183
3 162 163 184
3 163 164 184
3 184 164 185
3 164 165 185
3 185 165 186
3 165 166 186
3 186 166 187
3 166 167 187
3 187 167 188
3 167 168 188
3 188 168 189
3 168 169 189
3 189 169 190
3 169 170 190
3 190 170 191
3 170 171 191
3 191 171 192
3 171 172 192
3 192 172 193
3 172 194 193
3 172 173 194
3 174 175 195
3 195 175 196
3 175 176 196
3 196 176 197
3 176 177 197
3 197 177 198
3 177 178 198
3 198 178 199
3 178 179 199
3 199 179 200
3 179 201 200
3 179 180 201
3 180 202 201
3 180 181 202
3 181 203 202
3 181 182 203
3 182 204 203
3 182 183 204
3 183 205 204
3 183 184 205
3 184 185 205
3 205 185 206
3 185 186 206
3 206 186 207
3 186 187 207
3 207 187 208
3 187 188 208
3 208 188 209
3 188 189 209
3 209 189 210
3 189 190 210
3 210 190 211
3 190 191 211
3 211 191 212
3 191 192 212
3 212 192 213
3 192 193 213
3 213 193 214
3 193 215 214
3 193 194 215
3 195 216 217
3 195 196 216
3 196 197 216
3 216 197 218
3 197 198 218
3 218 198 219
3 198 199 219
3 219 199 220
3 199 221 220
3 199 200 221
3 200 222 221
3 200 201 222
3 201 223 222
3 201 202 223
3 202 224 223
3 202 203 224
3 203 225 224
3 203 204 225
3 204 226 225
3 204 205 226
3 205 227 226
3 205 206 227
3 206 207 227
3 227 207 228
3 207 208 228
3 228 208 229
3 208 230 229
3 208 209 230
3 209 231 230
3 209 210 231
3 210 211 231
3 231 211 232
3 211 212 232
3 232 212 233
3 212 213 233
3 233 213 234
3 213 235 234
3 213 214 235
3 214 236 235
3 214 215 236
3 217 237 238
3 217 216 237
3 216 218 237
3 237 218 239
3 218 219 239
3 239 219 240
3 219 220 240
3 240 220 241
3 220 242 241
3 220 221 242
3 221 243 242
3 221 222 243
3 222 244 243
3 222 223 244
3 223 245 244
3 223 224 245
3 224 246 245
3 224 225 246
3 225 247 246
3 225 226 247
3 226 248 247
3 226 227 248
3 227 228 248
3 248 228 249
3 228 250 249
3 228 229 250
3 229 251 250
3 229 230 251
3 230 252 251
3 230 231 252
3 231 253 252
3 231 232 253
3 232 254 253
3 232 233 254
3 233 234 254
3 254 234 255
3 234 256 255
3 234 235 256
3 235 257 256
3 235 236 257
3 238 237 258
3 237 239 258
3 258 239 259
3 239 240 259
3 259 240 260
3 240 241 260
3 260 241 261
3 241 262 261
3 241 242 262
3 242 263 262
3 242 243 263
3 243 264 263
3 243 244 264
3 244 265 264
3 244 245 265
3 245 266 265
3 245 246 266
3 246 267 266
3 246 247 267
3 247 268 267
3 247 248 268
3 248 249 268
3 268 249 269
3 249 270 269
3 249 250 270
3 250 271 270
3 250 251 271
3 251 272 271
3 251 252 272
3 252 273 272
3 252 253 273
3 253 274 273
3 253 254 274
3 254 275 274
3 254 255 275
3 255 276 275
3 255 256 276
3 256 277 276
3 256 257 277
3 258 259 278
3 278 259 279
3 259 260 279
3 279 260 280
3 260 261 280
3 280 261 281
3 261 282 281
3 261 262 282
3 262 283 282
3 262 263 283
3 263 284 283
3 263 264 284
3 264 285 284
3 264 265 285
3 265 286 285
3 265 266 286
3 266 287 286
3 266 267 287
3 267 268 287
3 287 268 288
3 268 269 288
3 288 269 289
3 269 270 289
3 289 270 290
3 270 271 290
3 290 271 291
3 271 272 291
3 291 272 292
3 272 273 292
3 292 273 293
3 273 274 293
3 293 274 294
3 274 275 294
3 294 275 295
3 275 296 295
3 275 276 296
3 276 297 296
3 276 277 297
3 278 279 298
3 298 279 299
3 279 280 299
3 299 280 300
3 280 281 300
3 300 281 301
3 281 302 301
3 281 282 302
3 282 303 302
3 282 283 303
3 283 304 303
3 283 284 304
3 284 305 304
3 284 285 305
3 285 306 305
3 285 286 306
3 286 307 306
3 286 287 307
3 287 288 307
3 307 288 308
3 288 289 308
3 308 289 309
3 289 290 309
3 309 290 310
3 290 291 310
3 310 291 311
3 291 292 311
3 311 292 312
3 292 293 312
3 312 293 313
3 293 294 313
3 313 294 314
3 294 295 314
3 314 295 315
3 295 316 315
3 295 296 316
3 296 317 316
3 296 297 317
3 298 299 318
3 318 299 319
3 299 300 319
3 319 300 320
3 300 301 320
3 320 301 321
3 301 322 321
3 301 302 322
3 302 323 322
3 302 303 323
3 303 324 323
3 303 304 324
3 304 325 324
3 304 305 325
3 305 326 325
3 305 306 326
3 306 327 326
3 306 307 327
3 307 308 327
3 327 308 328
3 308 309 328
3 328 309 329
3 309 310 329
3 329 310 330
3 310 311 330
3 330 311 331
3 311 312 331
3 331 312 332
3 312 313 332
3 332 313 333
3 313 314 333
3 333 314 334
3 314 315 334
3 334 315 335
3 315 316 335
3 335 316 336
3 316 337 336
3 316 317 337
3 318 319 338
3 338 319 339
3 319 320 339
3 339 320 340
3 320 321 340
3 340 321 341
3 321 342 341
3 321 322 342
3 322 343 342
3 322 323 343
3 323 344 343
3 323 324 344
3 324 345 344
3 324 325 345
3 325 346 345
3 325 326 346
3 326 347 346
3 326 327 347
3 327 328 347
3 347 328 348
3 328 329 348
3 348 329 349
3 329 330 349
3 349 330 350
3 330 331 350
3 350 331 351
3 331 332 351
3 351 332 352
3 332 333 352
3 352 333 353
3 333 334 353
3 353 334 354
3 334 335 354
3 354 335 355
3 335 336 355
3 355 336 356
3 336 357 356
3 336 337 357
3 358 338 359
3 338 339 359
3 359 339 360
3 339 340 360
3 360 340 361
3 340 341 361
3 361 341 362
3 341 342 362
3 362 342 363
3 342 364 363
3 342 343 364
3 343 365 364
3 343 344 365
3 344 366 365
3 344 345 366
3 345 367 366
3 345 346 367
3 346 368 367
3 346 347 368
3 347 348 368
3 368 348 369
3 348 349 369
3 369 349 370
3 349 350 370
3 370 350 371
3 350 351 371
3 371 351 372
3 351 352 372
3 372 352 373
3 352 353 373
3 373 353 374
3 353 354 374
3 374 354 375
3 354 355 375
3 375 355 376
3 355 356 376
3 376 356 377
3 356 378 377
3 356 357 378
3 358 359 379
3 379 359 380
3 359 360 380
3 380 360 381
3 360 361 381
3 381 361 382
3 361 362 382
3 363 383 384
3 363 364 383
3 364 385 383
3 364 365 385
3 365 386 385
3 365 366 386
3 366 387 386
3 366 367 387
3 367 388 387
3 367 368 388
3 368 369 388
3 388 369 389
3 369 370 389
3 389 370 390
3 370 371 390
3 390 371 391
3 371 372 391
3 391 372 392
3 372 373 392
3 392 373 393
3 373 374 393
3 393 374 394
3 374 375 394
3 394 375 395
3 375 376 395
3 395 376 396
3 376 377 396
3 396 377 397
3 377 398 397
3 377 378 398
3 385 386 399
3 386 400 399
3 386 387 400
3 387 401 400
3 387 388 401
3 388 402 401
3 388 389 402
3 389 390 402
3 402 390 403
3 390 391 403
3 403 391 404
3 391 405 404
3 391 392 405
3 392 393 405
3 405 393 406
3 393 394 406
3 406 394 407
3 394 395 407
3 407 395 408
3 395 396 408
3 408 396 409
3 396 397 409
3 409 397 410
3 397 411 410
3 397 398 411
3 399 400 412
3 400 413 412
3 400 401 413
3 401 414 413
3 401 402 414
3 402 403 414
3 414 403 415
3 403 404 415
3 415 404 416
3 404 417 416
3 404 405 417
3 405 406 417
3 417 406 418
3 406 407 418
3 418 407 419
3 407 408 419
3 419 408 420
3 408 409 420
3 420 409 421
3 409 422 421
3 409 410 422
3 410 423 422
3 410 411 423

CELL_DATA 762
SCALARS longitude float 1
LOOKUP_TABLE default
343.4410095214844
343.33599853515625
343.4460144042969
343.30499267578125
343.35198974609375
343.64898681640625
343.5220031738281
343.5899963378906
343.4750061035156
343.6000061035156
343.5199890136719
343.697998046875
343.62298583984375
343.7850036621094
343.68701171875
343.78399658203125
343.6499938964844
343.6839904785156
343.5270080566406
343.5249938964844
343.3550109863281
343.3399963378906
343.2340087890625
343.2569885253906
343.13299560546875
343.8080139160156
343.8630065917969
343.7720031738281
343.88800048828125
343.8320007324219
343.9939880371094
343.9410095214844
344.0849914550781
344.0039978027344
344.0849914550781
343.9639892578125
343.98699951171875
343.84100341796875
343.83099365234375
343.6719970703125
343.6520080566406
343.4909973144531
343.4670104980469
343.44000244140625
343.33599853515625
343.4169921875
343.31201171875
343.4119873046875
343.322998046875
343.45599365234375
343.3789978027344
343.5299987792969
343.4549865722656
343.5740051269531
343.468994140625
344.1210021972656
344.031005859375
344.14898681640625
344.0979919433594
344.260986328125
344.2139892578125
344.36199951171875
344.2869873046875
344.3739929199219
344.25299072265625
344.2829895019531
344.13800048828125
344.1319885253906
343.97100830078125
343.95098876953125
343.7909851074219
343.7659912109375
343.6029968261719
343.5899963378906
343.44500732421875
343.50299072265625
343.4119873046875
343.56500244140625
343.51800537109375
343.69000244140625
343.6189880371094
343.7330017089844
343.625
343.6969909667969
343.5929870605469
343.6809997558594
343.6050109863281
343.72601318359375
343.6659851074219
343.8039855957031
343.7449951171875
343.8529968261719
343.75799560546875
343.7959899902344
344.302001953125
344.4320068359375
344.3680114746094
344.5459899902344
344.489990234375
344.6520080566406
344.5719909667969
344.67401123046875
344.5509948730469
344.5889892578125
344.4419860839844
344.44500732421875
344.281005859375
344.2669982910156
344.0979919433594
344.0769958496094
343.9049987792969
343.8999938964844
343.74798583984375
343.81298828125
343.7139892578125
343.8689880371094
343.8110046386719
343.9960021972656
343.9219970703125
344.0539855957031
343.93499755859375
344.02099609375
343.8900146484375
343.989013671875
343.8840026855469
344.02398681640625
343.9419860839844
344.10101318359375
344.02301025390625
344.1510009765625
344.0400085449219
344.09100341796875
343.9429931640625
344.6470031738281
344.79400634765625
344.7560119628906
344.9129943847656
344.9800109863281
344.88800048828125
345.0050048828125
344.8710021972656
344.9219970703125
344.7640075683594
344.77899169921875
344.60699462890625
344.6080017089844
344.4309997558594
344.4219970703125
344.23699951171875
344.24200439453125
344.0769958496094
344.15399169921875
344.0419921875
344.2070007324219
344.1340026855469
344.3190002441406
344.239013671875
344.38299560546875
344.2720031738281
344.3699951171875
344.23699951171875
344.343994140625
344.22601318359375
344.3710021972656
344.27301025390625
344.44000244140625
344.3500061035156
344.4909973144531
344.3699951171875
344.43701171875
344.2690124511719
344.2860107421875
344.9989929199219
345.1520080566406
345.10400390625
345.2690124511719
345.2130126953125
345.35699462890625
345.364013671875
345.2239990234375
345.2860107421875
345.1180114746094
345.1419982910156
344.96099853515625
344.97198486328125
344.7900085449219
344.7909851074219
344.6000061035156
344.61199951171875
344.4389953613281
344.3970031738281
344.52899169921875
344.45001220703125
344.61700439453125
344.5589904785156
344.71099853515625
344.614990234375
344.7439880371094
344.7359924316406
344.5989990234375
344.59100341796875
344.7200012207031
344.61700439453125
344.76300048828125
344.6830139160156
344.8299865722656
344.8500061035156
344.72601318359375
344.8030090332031
344.635009765625
344.6650085449219
344.4849853515625
345.36700439453125
345.5190124511719
345.468994140625
345.6340026855469
345.5769958496094
345.72198486328125
345.60699462890625
345.7139892578125
345.656005859375
345.489990234375
345.5140075683594
345.3330078125
345.34100341796875
345.1600036621094
345.1579895019531
344.97100830078125
344.9800109863281
344.81201171875
344.77099609375
344.89898681640625
344.8240051269531
344.98699951171875
344.9320068359375
345.0830078125
344.989990234375
345.1180114746094
344.98699951171875
345.10198974609375
344.968994140625
345.09698486328125
344.9930114746094
345.135986328125
345.0530090332031
345.1969909667969
345.0929870605469
345.2120056152344
345.1669921875
345.0039978027344
345.7330017089844
345.8840026855469
345.8349914550781
345.99798583984375
345.9419860839844
346.08599853515625
345.9729919433594
346.0790100097656
346.02099609375
345.85699462890625
345.8789978027344
345.70098876953125
345.7030029296875
345.52398681640625
345.5159912109375
345.33099365234375
345.3370056152344
345.1730041503906
345.13299560546875
345.260009765625
345.1889953613281
345.3479919433594
345.2969970703125
345.4419860839844
345.35699462890625
345.4750061035156
345.35198974609375
345.4580078125
345.3349914550781
345.4580078125
345.36199951171875
345.50201416015625
345.41900634765625
345.56201171875
345.4580078125
345.57598876953125
345.52899169921875
345.3659973144531
346.1929931640625
346.09600830078125
346.24700927734375
346.197998046875
346.3599853515625
346.30499267578125
346.4490051269531
346.33599853515625
346.4410095214844
346.38299560546875
346.2200012207031
346.239990234375
346.06201171875
346.0610046386719
345.8800048828125
345.87298583984375
345.68798828125
345.69500732421875
345.52801513671875
345.4909973144531
345.6189880371094
345.5459899902344
345.7049865722656
345.65301513671875
345.79998779296875
345.7080078125
345.822998046875
345.6960144042969
345.8030090332031
345.68701171875
345.8160095214844
345.72698974609375
345.8699951171875
345.7879943847656
345.9339904785156
345.8269958496094
345.947998046875
345.8940124511719
345.72601318359375
346.4410095214844
346.5580139160156
346.4599914550781
346.6130065917969
346.56201171875
346.7279968261719
346.6700134277344
346.8179931640625
346.7019958496094
346.8110046386719
346.7539978027344
346.58599853515625
346.6099853515625
346.4259948730469
346.42498779296875
346.23699951171875
346.22698974609375
346.0429992675781
346.0570068359375
345.8940124511719
345.8550109863281
345.9859924316406
345.90899658203125
346.0719909667969
346.0150146484375
346.1659851074219
346.06500244140625
346.1889953613281
346.0539855957031
346.1719970703125
346.04998779296875
346.19000244140625
346.0989990234375
346.2460021972656
346.16400146484375
346.30999755859375
346.20001220703125
346.32000732421875
346.2669982910156
346.093994140625
346.9339904785156
346.80499267578125
346.83099365234375
346.98699951171875
346.93499755859375
347.1029968261719
347.0429992675781
347.1919860839844
347.20001220703125
347.0610046386719
347.1310119628906
346.9639892578125
346.989990234375
346.8030090332031
346.8039855957031
346.6090087890625
346.59100341796875
346.39599609375
346.4010009765625
346.2449951171875
346.3340148925781
346.2300109863281
346.2770080566406
346.4389953613281
346.385009765625
346.5320129394531
346.5570068359375
346.43701171875
346.54998779296875
346.4209899902344
346.42498779296875
346.56298828125
346.47601318359375
346.6210021972656
346.5379943847656
346.6839904785156
346.70098876953125
346.5710144042969
346.6449890136719
346.47100830078125
347.30499267578125
347.177001953125
347.2049865722656
347.3590087890625
347.3080139160156
347.4729919433594
347.4159851074219
347.55999755859375
347.5679931640625
347.4320068359375
347.4989929199219
347.3370056152344
347.3630065917969
347.1830139160156
347.1839904785156
346.99200439453125
346.9739990234375
346.76800537109375
346.7619934082031
346.5889892578125
346.67498779296875
346.57501220703125
346.63299560546875
346.79400634765625
346.8659973144531
346.7720031738281
346.9150085449219
346.7959899902344
346.9119873046875
346.7860107421875
346.9200134277344
346.81298828125
346.97100830078125
346.8659973144531
346.90899658203125
347.052001953125
347.0710144042969
346.9460144042969
347.01800537109375
346.84600830078125
347.5450134277344
347.5719909667969
347.72198486328125
347.6730041503906
347.83599853515625
347.781005859375
347.92498779296875
347.9330139160156
347.7959899902344
347.864013671875
347.7019958496094
347.72601318359375
347.54901123046875
347.5509948730469
347.36700439453125
347.35198974609375
347.1510009765625
347.14801025390625
346.9639892578125
347.04901123046875
346.9309997558594
346.99200439453125
347.16400146484375
347.2340087890625
347.135986328125
347.28399658203125
347.15899658203125
347.27899169921875
347.1520080566406
347.2909851074219
347.1839904785156
347.34100341796875
347.2349853515625
347.39300537109375
347.2909851074219
347.42999267578125
347.3089904785156
347.3800048828125
347.2130126953125
347.9309997558594
348.08099365234375
348.0350036621094
348.20098876953125
348.14801025390625
348.2950134277344
348.3039855957031
348.16400146484375
348.2330017089844
348.0690002441406
348.0950012207031
347.9129943847656
347.9129943847656
347.72900390625
347.7179870605469
347.5260009765625
347.52801513671875
347.35101318359375
347.3080139160156
347.4460144042969
347.37200927734375
347.5350036621094
347.47698974609375
347.614013671875
347.52099609375
347.6300048828125
347.5150146484375
347.62200927734375
347.5249938964844
347.6549987792969
347.5780029296875
347.7149963378906
347.635986328125
347.77899169921875
347.7969970703125
347.6709899902344
347.7460021972656
347.57501220703125
348.2969970703125
348.4540100097656
348.40399169921875
348.5740051269531
348.5190124511719
348.6679992675781
348.677001953125
348.5369873046875
348.60699462890625
348.4419860839844
348.468994140625
348.2850036621094
348.2799987792969
348.0899963378906
348.0740051269531
347.885986328125
347.88800048828125
347.72198486328125
347.6839904785156
347.802001953125
347.72698974609375
347.8550109863281
347.79998779296875
347.9179992675781
347.84100341796875
347.9410095214844
347.8370056152344
347.9360046386719
347.8500061035156
347.9779968261719
347.91900634765625
348.06201171875
348.0010070800781
348.14801025390625
348.1700134277344
348.0419921875
348.114990234375
347.9440002441406
348.67401123046875
348.8299865722656
348.7799987792969
348.947998046875
348.8909912109375
349.0400085449219
349.04901123046875
348.9110107421875
348.98199462890625
348.8179931640625
348.8429870605469
348.65899658203125
348.65301513671875
348.4580078125
348.4330139160156
348.239013671875
348.2309875488281
348.0679931640625
348.02099609375
348.12200927734375
348.031005859375
348.15399169921875
348.09600830078125
348.20599365234375
348.12701416015625
348.2130126953125
348.1260070800781
348.22100830078125
348.1579895019531
348.2919921875
348.2550048828125
348.40899658203125
348.3630065917969
348.5069885253906
348.4129943847656
348.5320129394531
348.4849853515625
348.3139953613281
349.04901123046875
349.2049865722656
349.15399169921875
349.3219909667969
349.2640075683594
349.4129943847656
349.4209899902344
349.2829895019531
349.35400390625
349.1919860839844
349.2170104980469
349.0329895019531
349.0270080566406
348.83099365234375
348.802001953125
348.5989990234375
348.5790100097656
348.406005859375
348.3429870605469
348.4490051269531
348.35101318359375
348.4909973144531
348.40301513671875
348.5199890136719
348.40899658203125
348.5249938964844
348.42401123046875
348.5570068359375
348.4880065917969
348.6470031738281
348.60400390625
348.7640075683594
348.7130126953125
348.8550109863281
348.7669982910156
348.8869934082031
348.8479919433594
348.6830139160156
349.5169982910156
349.4230041503906
349.5790100097656
349.52899169921875
349.69500732421875
349.6369934082031
349.7799987792969
349.6659851074219
349.7720031738281
349.72100830078125
349.56201171875
349.5849914550781
349.40399169921875
349.39599609375
349.2030029296875
349.1730041503906
348.9670104980469
348.9440002441406
348.7590026855469
348.6910095214844
348.8080139160156
348.70599365234375
348.85400390625
348.7560119628906
348.88800048828125
348.76800537109375
348.8999938964844
348.7900085449219
348.9320068359375
348.8580017089844
349.0190124511719
348.9679870605469
349.12701416015625
349.06500244140625
349.2040100097656
349.114013671875
349.23699951171875
349.2049865722656
349.0429992675781
349.7640075683594
349.885986328125
349.7950134277344
349.9469909667969
349.89801025390625
350.0580139160156
349.9989929199219
350.0840148925781
349.9259948730469
349.9530029296875
349.77099609375
349.7640075683594
349.5710144042969
349.5429992675781
349.3380126953125
349.31500244140625
349.12701416015625
349.0589904785156
349.17999267578125
349.0780029296875
349.2279968261719
349.135986328125
349.26800537109375
349.1510009765625
349.2749938964844
349.1650085449219
349.3039855957031
349.23199462890625
349.3940124511719
349.3399963378906
349.4930114746094
349.41900634765625
349.5580139160156
349.4670104980469
349.5979919433594
349.56500244140625
349.4020080566406
349.9410095214844
349.9119873046875
349.7070007324219
349.6860046386719
349.4989929199219
349.5559997558594
349.4289855957031
349.45098876953125
349.6000061035156
349.5090026855469
349.6400146484375
349.6499938964844
349.5260009765625
349.5400085449219
349.6780090332031
349.60400390625
349.760009765625
349.7019958496094
349.8529968261719
349.7829895019531
349.9309997558594
349.8370056152344
349.9700012207031
349.9330139160156
349.7669982910156
350.07598876953125
350.05499267578125
349.8699951171875
349.927001953125
349.79998779296875
349.822998046875
349.97100830078125
349.8800048828125
350.010009765625
350.0190124511719
349.89898681640625
349.9129943847656
350.0450134277344
349.9649963378906
350.1180114746094
350.0639953613281
350.2229919433594
350.1600036621094
350.3080139160156
350.33599853515625
350.2179870605469
350.3059997558594
350.13800048828125
SCALARS latitude float 1
LOOKUP_TABLE default
-22.489999771118164
-22.649999618530273
-22.857999801635742
-23.011999130249023
-23.20400047302246
-21.007999420166016
-21.13800048828125
-21.30500030517578
-21.451000213623047
-21.63599967956543
-21.797000885009766
-21.98699951171875
-22.158000946044922
-22.347999572753906
-22.523000717163086
-22.70599937438965
-22.881000518798828
-23.05500030517578
-23.222999572753906
-23.391000747680664
-23.562000274658203
-23.73900032043457
-27.45400047302246
-27.701000213623047
-27.849000930786133
-21.018999099731445
-21.165000915527344
-21.31999969482422
-21.472999572753906
-21.64299964904785
-21.805999755859375
-21.98900032043457
-22.15399932861328
-22.341999053955078
-22.5049991607666
-22.694000244140625
-22.851999282836914
-23.038000106811523
-23.195999145507812
-23.381000518798828
-23.54199981689453
-23.729000091552734
-23.895999908447266
-25.707000732421875
-25.884000778198242
-26.035999298095703
-26.226999282836914
-26.4060001373291
-26.60300064086914
-26.795000076293945
-26.993999481201172
-27.18600082397461
-27.375999450683594
-27.558000564575195
-27.7450008392334
-21.01300048828125
-21.1560001373291
-21.29800033569336
-21.459999084472656
-21.617000579833984
-21.792999267578125
-21.959999084472656
-22.136999130249023
-22.30699920654297
-22.48699951171875
-22.652000427246094
-22.827999114990234
-22.988000869750977
-23.170000076293945
-23.33300018310547
-23.520999908447266
-23.68199920654297
-23.8700008392334
-24.040000915527344
-24.240999221801758
-24.42300033569336
-24.62700080871582
-24.80500030517578
-24.999000549316406
-25.16699981689453
-25.351999282836914
-25.496999740600586
-25.66699981689453
-25.808000564575195
-26.000999450683594
-26.170000076293945
-26.384000778198242
-26.562000274658203
-26.775999069213867
-26.954999923706055
-27.166000366210938
-27.339000701904297
-27.54199981689453
-27.71299934387207
-21.009000778198242
-21.152000427246094
-21.29800033569336
-21.46500015258789
-21.621999740600586
-21.80500030517578
-21.965999603271484
-22.152000427246094
-22.31599998474121
-22.49799919128418
-22.655000686645508
-22.822999954223633
-22.981000900268555
-23.14699935913086
-23.31800079345703
-23.48900032043457
-23.666000366210938
-23.841999053955078
-24.02899932861328
-24.222000122070312
-24.416000366210938
-24.606000900268555
-24.79199981689453
-24.976999282836914
-25.158000946044922
-25.327999114990234
-25.482999801635742
-25.63800048828125
-25.79400062561035
-25.974000930786133
-26.156999588012695
-26.361000061035156
-26.552000045776367
-26.7549991607666
-26.944000244140625
-27.141000747680664
-27.326000213623047
-27.511999130249023
-27.69700050354004
-21.07699966430664
-21.15999984741211
-21.402000427246094
-21.490999221801758
-21.716999053955078
-21.85300064086914
-22.069000244140625
-22.20599937438965
-22.41699981689453
-22.545000076293945
-22.739999771118164
-22.861000061035156
-23.042999267578125
-23.17300033569336
-23.358999252319336
-23.5049991607666
-23.70800018310547
-23.868000030517578
-24.08300018310547
-24.25
-24.46500015258789
-24.62700080871582
-24.82699966430664
-24.992000579833984
-25.18400001525879
-25.339000701904297
-25.520999908447266
-25.663999557495117
-25.858999252319336
-26.01300048828125
-26.233999252319336
-26.39900016784668
-26.625
-26.790000915527344
-27.01300048828125
-27.176000595092773
-27.388999938964844
-27.541000366210938
-27.749000549316406
-21.038999557495117
-21.163000106811523
-21.37299919128418
-21.4950008392334
-21.709999084472656
-21.839000701904297
-22.070999145507812
-22.17799949645996
-22.41699981689453
-22.518999099731445
-22.742000579833984
-22.833999633789062
-23.042999267578125
-23.131000518798828
-23.347000122070312
-23.445999145507812
-23.683000564575195
-23.798999786376953
-24.052000045776367
-24.18400001525879
-24.429000854492188
-24.549999237060547
-24.78700065612793
-24.900999069213867
-25.132999420166016
-25.25
-25.486000061035156
-25.597999572753906
-25.83300018310547
-25.95800018310547
-26.20400047302246
-26.334999084472656
-26.59000015258789
-26.718000411987305
-26.976999282836914
-27.107999801635742
-27.364999771118164
-27.483999252319336
-27.729000091552734
-27.841999053955078
-21.082000732421875
-21.218000411987305
-21.42099952697754
-21.558000564575195
-21.761999130249023
-21.905000686645508
-22.11199951171875
-22.25200080871582
-22.472999572753906
-22.55900001525879
-22.79599952697754
-22.87700080871582
-23.106000900268555
-23.18000030517578
-23.416000366210938
-23.4950008392334
-23.753999710083008
-23.8439998626709
-24.090999603271484
-24.246000289916992
-24.458999633789062
-24.604999542236328
-24.81100082397461
-24.95800018310547
-25.165000915527344
-25.31100082397461
-25.514999389648438
-25.65399932861328
-25.86400032043457
-26.011999130249023
-26.23699951171875
-26.38800048828125
-26.613000869750977
-26.76300048828125
-26.999000549316406
-27.155000686645508
-27.417999267578125
-27.518999099731445
-21.15399932861328
-21.295000076293945
-21.496000289916992
-21.63800048828125
-21.843000411987305
-21.986000061035156
-22.187999725341797
-22.325000762939453
-22.54599952697754
-22.6299991607666
-22.87299919128418
-22.952999114990234
-23.197999954223633
-23.270000457763672
-23.520000457763672
-23.591999053955078
-23.860000610351562
-23.94300079345703
-24.187000274658203
-24.347000122070312
-24.551000595092773
-24.70800018310547
-24.909000396728516
-25.065000534057617
-25.260000228881836
-25.42099952697754
-25.611000061035156
-25.770000457763672
-25.961999893188477
-26.121000289916992
-26.322999954223633
-26.472999572753906
-26.687000274658203
-26.84000015258789
-27.072999954223633
-27.236000061035156
-27.5
-27.599000930786133
-21.04400062561035
-21.239999771118164
-21.38599967956543
-21.583999633789062
-21.729000091552734
-21.926000595092773
-22.06599998474121
-22.26300048828125
-22.398000717163086
-22.617000579833984
-22.702999114990234
-22.94499969482422
-23.031999588012695
-23.274999618530273
-23.36199951171875
-23.613000869750977
-23.698999404907227
-23.959999084472656
-24.048999786376953
-24.29199981689453
-24.451000213623047
-24.66200065612793
-24.81100082397461
-25.01300048828125
-25.166000366210938
-25.378999710083008
-25.54400062561035
-25.7450008392334
-25.899999618530273
-26.083999633789062
-26.225000381469727
-26.41200065612793
-26.549999237060547
-26.763999938964844
-26.913999557495117
-27.15399932861328
-27.31399917602539
-27.576000213623047
-27.679000854492188
-20.983999252319336
-21.121000289916992
-21.327999114990234
-21.46299934387207
-21.66699981689453
-21.79800033569336
-22.000999450683594
-22.131000518798828
-22.332000732421875
-22.45800018310547
-22.66900062561035
-22.761999130249023
-22.988000869750977
-23.086000442504883
-23.305999755859375
-23.409000396728516
-23.63599967956543
-23.753000259399414
-23.99799919128418
-24.118999481201172
-24.365999221801758
-24.500999450683594
-24.733999252319336
-24.858999252319336
-25.089000701904297
-25.22800064086914
-25.47100067138672
-25.614999771118164
-25.843000411987305
-25.9689998626709
-26.16699981689453
-26.277999877929688
-26.474000930786133
-26.60300064086914
-26.82900047302246
-26.97800064086914
-27.222999572753906
-27.375
-27.631000518798828
-27.739999771118164
-21.024999618530273
-21.139999389648438
-21.367000579833984
-21.47599983215332
-21.702999114990234
-21.815000534057617
-22.041000366210938
-22.155000686645508
-22.374000549316406
-22.476999282836914
-22.687000274658203
-22.790000915527344
-22.989999771118164
-23.09600067138672
-23.288999557495117
-23.400999069213867
-23.5939998626709
-23.72599983215332
-23.945999145507812
-24.10099983215332
-24.336999893188477
-24.48900032043457
-24.733999252319336
-24.834999084472656
-25.100000381469727
-25.208999633789062
-25.45800018310547
-25.606000900268555
-25.82900047302246
-25.964000701904297
-26.174999237060547
-26.27199935913086
-26.503999710083008
-26.628999710083008
-26.875999450683594
-27.01099967956543
-27.267000198364258
-27.393999099731445
-27.652000427246094
-27.773000717163086
-20.988000869750977
-21.121000289916992
-21.344999313354492
-21.445999145507812
-21.68899917602539
-21.79199981689453
-22.031999588012695
-22.13599967956543
-22.356000900268555
-22.47100067138672
-22.667999267578125
-22.780000686645508
-22.96500015258789
-23.07200050354004
-23.246000289916992
-23.35700035095215
-23.530000686645508
-23.655000686645508
-23.85300064086914
-24.011999130249023
-24.239999771118164
-24.40999984741211
-24.663000106811523
-24.753000259399414
-25.0
-25.156999588012695
-25.371000289916992
-25.52899932861328
-25.740999221801758
-25.89299964904785
-26.10700035095215
-26.253000259399414
-26.481000900268555
-26.625
-26.875999450683594
-26.989999771118164
-27.243000030517578
-27.384000778198242
-27.621999740600586
-27.76099967956543
-21.072999954223633
-21.30699920654297
-21.413999557495117
-21.656999588012695
-21.756000518798828
-21.9950008392334
-22.094999313354492
-22.319000244140625
-22.440000534057617
-22.63599967956543
-22.749000549316406
-22.93899917602539
-23.042999267578125
-23.218000411987305
-23.31399917602539
-23.483999252319336
-23.59000015258789
-23.7810001373291
-23.91900062561035
-24.148000717163086
-24.30900001525879
-24.569000244140625
-24.66699981689453
-24.92099952697754
-25.06999969482422
-25.297000885009766
-25.44099998474121
-25.667999267578125
-25.80900001525879
-26.038000106811523
-26.18400001525879
-26.41900062561035
-26.570999145507812
-26.809999465942383
-26.959999084472656
-27.19300079345703
-27.336999893188477
-27.56399917602539
-27.707000732421875
-21.29199981689453
-21.413999557495117
-21.635000228881836
-21.739999771118164
-21.959999084472656
-22.06800079345703
-22.29199981689453
-22.40999984741211
-22.621000289916992
-22.72599983215332
-22.930999755859375
-23.0310001373291
-23.22599983215332
-23.30900001525879
-23.48900032043457
-23.56800079345703
-23.770000457763672
-23.875999450683594
-24.121999740600586
-24.256000518798828
-24.514999389648438
-24.642000198364258
-24.895000457763672
-25.025999069213867
-25.277999877929688
-25.406999588012695
-25.652999877929688
-25.7810001373291
-26.025999069213867
-26.152000427246094
-26.399999618530273
-26.523000717163086
-26.780000686645508
-26.898000717163086
-27.149999618530273
-27.288000106811523
-27.524999618530273
-27.655000686645508
-21.295000076293945
-21.409000396728516
-21.632999420166016
-21.742000579833984
-21.957000732421875
-22.075000762939453
-22.297000885009766
-22.402999877929688
-22.6299991607666
-22.729999542236328
-22.94700050354004
-23.042999267578125
-23.256000518798828
-23.34000015258789
-23.538000106811523
-23.604000091552734
-23.81800079345703
-23.90399932861328
-24.145999908447266
-24.302000045776367
-24.540000915527344
-24.68899917602539
-24.922000885009766
-25.075000762939453
-25.30699920654297
-25.45599937438965
-25.684999465942383
-25.83099937438965
-26.054000854492188
-26.194000244140625
-26.415000915527344
-26.541000366210938
-26.766000747680664
-26.88800048828125
-27.13599967956543
-27.266000747680664
-27.517000198364258
-27.63800048828125
-21.288999557495117
-21.409000396728516
-21.638999938964844
-21.756000518798828
-21.976999282836914
-22.099000930786133
-22.325000762939453
-22.424999237060547
-22.652000427246094
-22.75
-22.972000122070312
-23.06800079345703
-23.285999298095703
-23.378000259399414
-23.586999893188477
-23.663000106811523
-23.882999420166016
-23.972000122070312
-24.21500015258789
-24.371000289916992
-24.60700035095215
-24.756000518798828
-24.989999771118164
-25.145000457763672
-25.378000259399414
-25.533000946044922
-25.756999969482422
-25.906999588012695
-26.121000289916992
-26.256999969482422
-26.45599937438965
-26.56800079345703
-26.774999618530273
-26.898000717163086
-27.139999389648438
-27.268999099731445
-27.511999130249023
-27.635000228881836
-21.29800033569336
-21.42300033569336
-21.650999069213867
-21.774999618530273
-22.000999450683594
-22.12700080871582
-22.35700035095215
-22.457000732421875
-22.68600082397461
-22.7810001373291
-23.006999969482422
-23.100000381469727
-23.32200050354004
-23.410999298095703
-23.628000259399414
-23.711999893188477
-23.93899917602539
-24.03499984741211
-24.27899932861328
-24.43000030517578
-24.670000076293945
-24.81399917602539
-25.054000854492188
-25.20599937438965
-25.451000213623047
-25.600000381469727
-25.832000732421875
-25.961000442504883
-26.172000885009766
-26.28700065612793
-26.482999801635742
-26.590999603271484
-26.79800033569336
-26.93000030517578
-27.159000396728516
-27.29199981689453
-27.525999069213867
-27.635000228881836
-21.093000411987305
-21.31999969482422
-21.447999954223633
-21.676000595092773
-21.80699920654297
-22.031999588012695
-22.167999267578125
-22.384000778198242
-22.514999389648438
-22.73200035095215
-22.82200050354004
-23.05299949645996
-23.143999099731445
-23.365999221801758
-23.45199966430664
-23.667999267578125
-23.753999710083008
-23.982999801635742
-24.083999633789062
-24.33099937438965
-24.476999282836914
-24.719999313354492
-24.860000610351562
-25.104999542236328
-25.253999710083008
-25.503000259399414
-25.645000457763672
-25.871999740600586
-25.990999221801758
-26.19499969482422
-26.30500030517578
-26.503999710083008
-26.624000549316406
-26.843000411987305
-26.988000869750977
-27.208999633789062
-27.347000122070312
-27.570999145507812
-27.66699981689453
-20.996999740600586
-21.1299991607666
-21.354000091552734
-21.48900032043457
-21.71500015258789
-21.851999282836914
-22.079999923706055
-22.775999069213867
-22.868000030517578
-23.090999603271484
-23.184999465942383
-23.402999877929688
-23.493000030517578
-23.701000213623047
-23.790000915527344
-24.013999938964844
-24.1200008392334
-24.368000030517578
-24.507999420166016
-24.756999969482422
-24.895000457763672
-25.145999908447266
-25.288999557495117
-25.538000106811523
-25.68899917602539
-25.915000915527344
-26.03700065612793
-26.222999572753906
-26.333999633789062
-26.535999298095703
-26.677000045776367
-26.90999984741211
-27.059999465942383
-27.277000427246094
-27.408000946044922
-27.631000518798828
-27.724000930786133
-23.51300048828125
-23.709999084472656
-23.80900001525879
-24.018999099731445
-24.13599967956543
-24.378999710083008
-24.51300048828125
-24.77400016784668
-24.899999618530273
-25.163999557495117
-25.29199981689453
-25.559999465942383
-25.70400047302246
-25.945999145507812
-26.05500030517578
-26.257999420166016
-26.378000259399414
-26.594999313354492
-26.733999252319336
-26.965999603271484
-27.097999572753906
-27.322999954223633
-27.44099998474121
-27.67099952697754
-27.775999069213867
-23.812000274658203
-24.025999069213867
-24.134000778198242
-24.381000518798828
-24.510000228881836
-24.770000457763672
-24.900999069213867
-25.15999984741211
-25.29199981689453
-25.55299949645996
-25.690000534057617
-25.941999435424805
-26.07200050354004
-26.30500030517578
-26.43400001525879
-26.64699935913086
-26.759000778198242
-26.97800064086914
-27.083999633789062
-27.322999954223633
-27.45199966430664
-27.683000564575195
-27.798999786376953
