# vtk DataFile Version 3.0
SHAPE_sfm_50k_v20200323
ASCII
DATASET POLYDATA
POINTS 189 float
0.3514400124549866 -0.36816999316215515 0.039480000734329224
0.35475000739097595 -0.367110013961792 0.0372299998998642
0.35429999232292175 -0.3665100038051605 0.03968999907374382
0.3519099950790405 -0.36882999539375305 0.03703000023961067
0.35530000925064087 -0.36785000562667847 0.03483999893069267
0.35245001316070557 -0.3695699870586395 0.034630000591278076
0.3558500111103058 -0.36858001351356506 0.03245000168681145
0.3530699908733368 -0.3704499900341034 0.03229000046849251
0.356469988822937 -0.3693599998950958 0.030079999938607216
0.3537999987602234 -0.3714599907398224 0.029999999329447746
0.35708001255989075 -0.37003999948501587 0.027659999206662178
0.35418999195098877 -0.3718400001525879 0.027459999546408653
0.357369989156723 -0.37031999230384827 0.025110000744462013
0.354669988155365 -0.3723900020122528 0.02498999983072281
0.35774001479148865 -0.3707500100135803 0.022619999945163727
0.35510000586509705 -0.3729099929332733 0.022509999573230743
0.3578999936580658 -0.37119001150131226 0.020090000703930855
0.3554700016975403 -0.37356001138687134 0.02005000039935112
0.3580699861049652 -0.3715899884700775 0.017570000141859055
0.35569998621940613 -0.37400999665260315 0.01752999983727932
0.35815000534057617 -0.3718999922275543 0.015030000358819962
0.35578998923301697 -0.37435999512672424 0.014990000054240227
0.3582499921321869 -0.3721500039100647 0.012480000033974648
0.35607001185417175 -0.37476998567581177 0.01245999988168478
0.35842999815940857 -0.37237000465393066 0.009929999709129333
0.3561899960041046 -0.37494000792503357 0.009890000335872173
0.35690000653266907 -0.36449000239372253 0.03937999904155731
0.3574199974536896 -0.3651700019836426 0.036959998309612274
0.35804998874664307 -0.3659699857234955 0.034619998186826706
0.35857000946998596 -0.3666299879550934 0.03220000118017197
0.3590700030326843 -0.367220014333725 0.029759999364614487
0.359360009431839 -0.36754000186920166 0.027230000123381615
0.35947999358177185 -0.36768999695777893 0.0246799997985363
0.3596999943256378 -0.36800000071525574 0.0221599992364645
0.3600899875164032 -0.36862000823020935 0.019710000604391098
0.360509991645813 -0.36924999952316284 0.017260000109672546
0.3605499863624573 -0.36952000856399536 0.014720000326633453
0.36063000559806824 -0.36974000930786133 0.01217000000178814
0.3608199954032898 -0.36994001269340515 0.009639999829232693
0.35923999547958374 -0.36219000816345215 0.03901999816298485
0.35986000299453735 -0.36296001076698303 0.03666999936103821
0.360289990901947 -0.36353999376296997 0.0342399999499321
0.36052000522613525 -0.36392998695373535 0.03173999860882759
0.36083000898361206 -0.3643600046634674 0.029249999672174454
0.361160010099411 -0.36469998955726624 0.026739999651908875
0.3616600036621094 -0.3651300072669983 0.02428000047802925
0.36208999156951904 -0.3656199872493744 0.021810000762343407
0.36247000098228455 -0.366239994764328 0.019370000809431076
0.36274001002311707 -0.3667199909687042 0.01688000001013279
0.36296001076698303 -0.3671500086784363 0.014379999600350857
0.36327001452445984 -0.36757999658584595 0.011889999732375145
0.36333999037742615 -0.3676699995994568 0.009329999797046185
0.36146000027656555 -0.35982999205589294 0.03836999833583832
0.3621099889278412 -0.36059999465942383 0.03604999929666519
0.362419992685318 -0.361050009727478 0.03359000012278557
0.3626500070095062 -0.3614000082015991 0.031099999323487282
0.3629299998283386 -0.36177000403404236 0.028599999845027924
0.363429993391037 -0.3622399866580963 0.0261400006711483
0.36410999298095703 -0.36285001039505005 0.023770000785589218
0.3647199869155884 -0.36351001262664795 0.021390000358223915
0.36480000615119934 -0.36381998658180237 0.018869999796152115
0.3650600016117096 -0.3642899990081787 0.01638999953866005
0.36535999178886414 -0.3647899925708771 0.013930000364780426
0.3654800057411194 -0.3650299906730652 0.01140000019222498
0.36570000648498535 -0.36524999141693115 0.0088900001719594
0.3636299967765808 -0.35745999217033386 0.03753000125288963
0.3643200099468231 -0.358240008354187 0.03523999825119972
0.36480000615119934 -0.35881999135017395 0.0328500010073185
0.36513999104499817 -0.35923001170158386 0.030389999970793724
0.3655500113964081 -0.3596999943256378 0.027939999476075172
0.36601999402046204 -0.3601300120353699 0.02549000084400177
0.36654001474380493 -0.36059001088142395 0.02305999957025051
0.3669300079345703 -0.3610300123691559 0.0206300001591444
0.36711999773979187 -0.36142998933792114 0.018149999901652336
0.3674600124359131 -0.3619700074195862 0.015699999406933784
0.3677600026130676 -0.36247000098228455 0.013249999843537807
0.36792999505996704 -0.36274999380111694 0.01075000036507845
0.3679800033569336 -0.36278998851776123 0.008220000192523003
0.36542999744415283 -0.3544999957084656 0.039090000092983246
0.36601999402046204 -0.35526999831199646 0.03677000105381012
0.3666599988937378 -0.35600998997688293 0.034460000693798065
0.3671700060367584 -0.35659998655319214 0.03207999840378761
0.36761999130249023 -0.3571000099182129 0.029650000855326653
0.36823999881744385 -0.3577899932861328 0.027310000732541084
0.36886000633239746 -0.35835000872612 0.024940000846982002
0.36906999349594116 -0.35842999815940857 0.022420000284910202
0.3695000112056732 -0.3589000105857849 0.019990000873804092
0.3697499930858612 -0.35936999320983887 0.01752999983727932
0.37011000514030457 -0.3599399924278259 0.01510000042617321
0.37040001153945923 -0.36041000485420227 0.012640000320971012
0.3703700006008148 -0.3604600131511688 0.010130000300705433
0.3704400062561035 -0.360509991645813 0.00761000020429492
0.36796998977661133 -0.35245001316070557 0.038430001586675644
0.3685300052165985 -0.3531799912452698 0.03610000014305115
0.36906999349594116 -0.35381001234054565 0.03373999893665314
0.36956000328063965 -0.35436999797821045 0.03135000169277191
0.3701300024986267 -0.35499000549316406 0.0289900004863739
0.3705799877643585 -0.3555000126361847 0.026590000838041306
0.37112000584602356 -0.3559499979019165 0.02419999986886978
0.3715899884700775 -0.3562900125980377 0.02175999991595745
0.37202998995780945 -0.3567500114440918 0.01933000050485134
0.37240999937057495 -0.35736000537872314 0.016930000856518745
0.3727700114250183 -0.3578999936580658 0.014499999582767487
0.37279999256134033 -0.35809001326560974 0.012000000104308128
0.3727099895477295 -0.35806000232696533 0.00949000008404255
0.37272000312805176 -0.35804998874664307 0.00698000006377697
0.3710300028324127 -0.3510099947452545 0.035989999771118164
0.37049999833106995 -0.35030999779701233 0.03832000121474266
0.3715899884700775 -0.35163000226020813 0.033640000969171524
0.3720700144767761 -0.3521699905395508 0.03125
0.37257999181747437 -0.35269999504089355 0.028869999572634697
0.37307998538017273 -0.35322999954223633 0.026489999145269394
0.3735100030899048 -0.3535600006580353 0.024049999192357063
0.3740200102329254 -0.3539299964904785 0.021640000864863396
0.3744199872016907 -0.35436001420021057 0.019220000132918358
0.37463998794555664 -0.3548099994659424 0.016780000180006027
0.3749200105667114 -0.35526999831199646 0.014340000227093697
0.37522000074386597 -0.35569998621940613 0.011909999884665012
0.3752099871635437 -0.3557499945163727 0.0094200000166893
0.37514999508857727 -0.35565999150276184 0.006930000148713589
0.37353000044822693 -0.3488200008869171 0.03593999892473221
0.37303000688552856 -0.3481700122356415 0.038279999047517776
0.3740899860858917 -0.3494400084018707 0.03359000012278557
0.37455999851226807 -0.34994998574256897 0.031209999695420265
0.37498998641967773 -0.35036998987197876 0.028790000826120377
0.37564000487327576 -0.3510400056838989 0.0264699999243021
0.37606000900268555 -0.35133999586105347 0.024049999192357063
0.3765299916267395 -0.35166001319885254 0.021640000864863396
0.376800000667572 -0.35194000601768494 0.019190000370144844
0.3769899904727936 -0.35234999656677246 0.016739999875426292
0.37720000743865967 -0.35273998975753784 0.014290000312030315
0.37744998931884766 -0.3531399965286255 0.011850000359117985
0.37762001156806946 -0.3533500134944916 0.009399999864399433
0.37762999534606934 -0.353300005197525 0.006909999996423721
0.37556999921798706 -0.3460800051689148 0.03790999948978424
0.3760400116443634 -0.34668999910354614 0.03554999828338623
0.37661001086235046 -0.34731000661849976 0.03319999948143959
0.3770500123500824 -0.34777000546455383 0.030810000374913216
0.3774600028991699 -0.3481599986553192 0.028379999101161957
0.378030002117157 -0.3487299978733063 0.026019999757409096
0.3786199986934662 -0.3491800129413605 0.023660000413656235
0.37904998660087585 -0.3494499921798706 0.021229999139904976
0.37935999035835266 -0.34975001215934753 0.018789999186992645
0.37950000166893005 -0.35010001063346863 0.016340000554919243
0.3797000050544739 -0.35047000646591187 0.013890000060200691
0.3799000084400177 -0.35082000494003296 0.011429999954998493
0.37996000051498413 -0.3509199917316437 0.008949999697506428
0.38008999824523926 -0.3509800136089325 0.00646999990567565
0.3782300055027008 -0.3443399965763092 0.03700000047683716
0.3786900043487549 -0.34492000937461853 0.034609999507665634
0.3792800009250641 -0.3455600142478943 0.032280001789331436
0.37968000769615173 -0.3459399938583374 0.02985999919474125
0.3800800144672394 -0.3462800085544586 0.02741999924182892
0.3805699944496155 -0.3467499911785126 0.02501000091433525
0.3811100125312805 -0.34714001417160034 0.022630000486969948
0.38159000873565674 -0.347460001707077 0.02020999975502491
0.38192999362945557 -0.347790002822876 0.01776999980211258
0.38207998871803284 -0.34815001487731934 0.015320000238716602
0.38220998644828796 -0.34843000769615173 0.012849999591708183
0.3823600113391876 -0.3487200140953064 0.010379999876022339
0.38253000378608704 -0.34891998767852783 0.007899999618530273
0.38008999824523926 -0.34220001101493835 0.03911000117659569
0.3806299865245819 -0.34264999628067017 0.036720000207424164
0.38106000423431396 -0.34318000078201294 0.034299999475479126
0.3815999925136566 -0.34373998641967773 0.03192000091075897
0.3820199966430664 -0.3441300094127655 0.029489999637007713
0.3824999928474426 -0.34455999732017517 0.027060000225901604
0.38297998905181885 -0.3449999988079071 0.024650000035762787
0.3835600018501282 -0.34544000029563904 0.02225000038743019
0.38385000824928284 -0.34553998708724976 0.019770000129938126
0.3840999901294708 -0.3457599878311157 0.01727999933063984
0.3843199908733368 -0.3461799919605255 0.014820000156760216
0.3845199942588806 -0.34652000665664673 0.012350000441074371
0.3848100006580353 -0.34696000814437866 0.00989999994635582
0.38499999046325684 -0.34718000888824463 0.007400000002235174
0.38231000304222107 -0.34029000997543335 0.03889000043272972
0.3828299939632416 -0.34071001410484314 0.03646000102162361
0.38328999280929565 -0.34125998616218567 0.034049998968839645
0.38381001353263855 -0.34178000688552856 0.03164000064134598
0.3843100070953369 -0.3422499895095825 0.02920999936759472
0.38486000895500183 -0.342739999294281 0.026799999177455902
0.3852800130844116 -0.3431200087070465 0.02434000000357628
0.3857100009918213 -0.34338000416755676 0.021870000287890434
0.3860200047492981 -0.3434999883174896 0.019370000809431076
0.3862999975681305 -0.34375 0.01688000001013279
0.3866100013256073 -0.3442299962043762 0.014419999904930592
0.38705000281333923 -0.34485000371932983 0.012009999714791775
0.38725000619888306 -0.3451800048351288 0.009510000236332417
0.3876500129699707 -0.345660001039505 0.007079999893903732
POLYGONS 325 1300
3 0 1 2
3 0 3 1
3 3 4 1
3 3 5 4
3 5 6 4
3 5 7 6
3 7 8 6
3 7 9 8
3 9 10 8
3 9 11 10
3 11 12 10
3 11 13 12
3 13 14 12
3 13 15 14
3 15 16 14
3 15 17 16
3 17 18 16
3 17 19 18
3 19 20 18
3 19 21 20
3 21 22 20
3 21 23 22
3 23 24 22
3 23 25 24
3 2 1 26
3 26 1 27
3 1 4 27
3 27 4 28
3 4 6 28
3 28 6 29
3 6 8 29
3 29 8 30
3 8 10 30
3 30 10 31
3 10 12 31
3 31 12 32
3 12 14 32
3 32 14 33
3 14 16 33
3 33 16 34
3 16 18 34
3 34 18 35
3 18 20 35
3 35 20 36
3 20 22 36
3 36 22 37
3 22 24 37
3 37 24 38
3 26 27 39
3 39 27 40
3 27 28 40
3 40 28 41
3 28 29 41
3 41 29 42
3 29 30 42
3 42 30 43
3 30 31 43
3 43 31 44
3 31 32 44
3 44 32 45
3 32 33 45
3 45 33 46
3 33 34 46
3 46 34 47
3 34 35 47
3 47 35 48
3 35 36 48
3 48 36 49
3 36 37 49
3 49 37 50
3 37 38 50
3 50 38 51
3 39 40 52
3 52 40 53
3 40 41 53
3 53 41 54
3 41 42 54
3 54 42 55
3 42 43 55
3 55 43 56
3 43 44 56
3 56 44 57
3 44 45 57
3 57 45 58
3 45 46 58
3 58 46 59
3 46 47 59
3 59 47 60
3 47 48 60
3 60 48 61
3 48 49 61
3 61 49 62
3 49 50 62
3 62 50 63
3 50 51 63
3 63 51 64
3 52 53 65
3 65 53 66
3 53 54 66
3 66 54 67
3 54 55 67
3 67 55 68
3 55 56 68
3 68 56 69
3 56 57 69
3 69 57 70
3 57 58 70
3 70 58 71
3 58 59 71
3 71 59 72
3 59 60 72
3 72 60 73
3 60 61 73
3 73 61 74
3 61 62 74
3 74 62 75
3 62 63 75
3 75 63 76
3 63 64 76
3 76 64 77
3 78 65 79
3 65 66 79
3 79 66 80
3 66 67 80
3 80 67 81
3 67 68 81
3 81 68 82
3 68 69 82
3 82 69 83
3 69 70 83
3 83 70 84
3 70 71 84
3 84 71 85
3 71 72 85
3 85 72 86
3 72 73 86
3 86 73 87
3 73 74 87
3 87 74 88
3 74 75 88
3 88 75 89
3 75 76 89
3 89 76 90
3 76 77 90
3 90 77 91
3 78 79 92
3 92 79 93
3 79 80 93
3 93 80 94
3 80 81 94
3 94 81 95
3 81 82 95
3 95 82 96
3 82 83 96
3 96 83 97
3 83 84 97
3 97 84 98
3 84 85 98
3 98 85 99
3 85 86 99
3 99 86 100
3 86 87 100
3 100 87 101
3 87 88 101
3 101 88 102
3 88 89 102
3 102 89 103
3 89 90 103
3 103 90 104
3 90 91 104
3 104 91 105
3 92 106 107
3 92 93 106
3 93 94 106
3 106 94 108
3 94 95 108
3 108 95 109
3 95 96 109
3 109 96 110
3 96 97 110
3 110 97 111
3 97 98 111
3 111 98 112
3 98 99 112
3 112 99 113
3 99 100 113
3 113 100 114
3 100 115 114
3 100 101 115
3 101 116 115
3 101 102 116
3 102 117 116
3 102 103 117
3 103 104 117
3 117 104 118
3 104 105 118
3 118 105 119
3 107 120 121
3 107 106 120
3 106 122 120
3 106 108 122
3 108 123 122
3 108 109 123
3 109 110 123
3 123 110 124
3 110 111 124
3 124 111 125
3 111 112 125
3 125 112 126
3 112 113 126
3 126 113 127
3 113 128 127
3 113 114 128
3 114 129 128
3 114 115 129
3 115 130 129
3 115 116 130
3 116 131 130
3 116 117 131
3 117 132 131
3 117 118 132
3 118 119 132
3 132 119 133
3 121 120 134
3 134 120 135
3 120 122 135
3 135 122 136
3 122 123 136
3 136 123 137
3 123 124 137
3 137 124 138
3 124 125 138
3 138 125 139
3 125 126 139
3 139 126 140
3 126 127 140
3 140 127 141
3 127 128 141
3 141 128 142
3 128 129 142
3 142 129 143
3 129 130 143
3 143 130 144
3 130 131 144
3 144 131 145
3 131 132 145
3 145 132 146
3 132 133 146
3 146 133 147
3 134 135 148
3 148 135 149
3 135 136 149
3 149 136 150
3 136 137 150
3 150 137 151
3 137 138 151
3 151 138 152
3 138 139 152
3 152 139 153
3 139 140 153
3 153 140 154
3 140 141 154
3 154 141 155
3 141 142 155
3 155 142 156
3 142 143 156
3 156 143 157
3 143 144 157
3 157 144 158
3 144 145 158
3 158 145 159
3 145 146 159
3 159 146 160
3 146 147 160
3 161 148 162
3 148 149 162
3 162 149 163
3 149 150 163
3 163 150 164
3 150 151 164
3 164 151 165
3 151 152 165
3 165 152 166
3 152 153 166
3 166 153 167
3 153 154 167
3 167 154 168
3 154 155 168
3 168 155 169
3 155 156 169
3 169 156 170
3 156 157 170
3 170 157 171
3 157 158 171
3 171 158 172
3 158 159 172
3 172 159 173
3 159 160 173
3 173 160 174
3 161 162 175
3 175 162 176
3 162 163 176
3 176 163 177
3 163 164 177
3 177 164 178
3 164 165 178
3 178 165 179
3 165 166 179
3 179 166 180
3 166 167 180
3 180 167 181
3 167 168 181
3 181 168 182
3 168 169 182
3 182 169 183
3 169 170 183
3 183 170 184
3 170 171 184
3 184 171 185
3 171 172 185
3 185 172 186
3 172 173 186
3 186 173 187
3 173 174 187
3 187 174 188

CELL_DATA 325
SCALARS longitude float 1
LOOKUP_TABLE default
313.906005859375
313.781005859375
313.8940124511719
313.76800537109375
313.8800048828125
313.75299072265625
313.86700439453125
313.73699951171875
313.8559875488281
313.7309875488281
313.8559875488281
313.7309875488281
313.85400390625
313.72698974609375
313.843994140625
313.71099853515625
313.8240051269531
313.6929931640625
313.8070068359375
313.6759948730469
313.7909851074219
313.6619873046875
313.78399658203125
313.6570129394531
314.14898681640625
314.2669982910156
314.1369934082031
314.2550048828125
314.1239929199219
314.2430114746094
314.1130065917969
314.2340087890625
314.1059875488281
314.2300109863281
314.1050109863281
314.2300109863281
314.1029968261719
314.2250061035156
314.0929870605469
314.2099914550781
314.0740051269531
314.1940002441406
314.0580139160156
314.177001953125
314.0419921875
314.16400146484375
314.03399658203125
314.15899658203125
314.5159912109375
314.635009765625
314.5039978027344
314.62298583984375
314.4930114746094
314.61199951171875
314.4830017089844
314.6029968261719
314.4779968261719
314.5989990234375
314.47601318359375
314.6000061035156
314.4750061035156
314.5979919433594
314.46600341796875
314.5849914550781
314.4490051269531
314.5679931640625
314.4320068359375
314.552001953125
314.4179992675781
314.5400085449219
314.4110107421875
314.5360107421875
314.88299560546875
315.0010070800781
314.87200927734375
314.989990234375
314.8599853515625
314.97900390625
314.8500061035156
314.9700012207031
314.843994140625
314.968994140625
314.84698486328125
314.9729919433594
314.8489990234375
314.97198486328125
314.8399963378906
314.9590148925781
314.822998046875
314.9419860839844
314.8059997558594
314.92498779296875
314.7929992675781
314.91400146484375
314.7860107421875
314.9100036621094
315.2460021972656
315.364013671875
315.23699951171875
315.3550109863281
315.22698974609375
315.34698486328125
315.218994140625
315.3399963378906
315.21600341796875
315.3399963378906
315.218994140625
315.343994140625
315.22100830078125
315.3429870605469
315.2120056152344
315.3299865722656
315.19500732421875
315.31298828125
315.1789855957031
315.2969970703125
315.1650085449219
315.2860107421875
315.15899658203125
315.2829895019531
315.7380065917969
315.6090087890625
315.72698974609375
315.6000061035156
315.7179870605469
315.5929870605469
315.7120056152344
315.5870056152344
315.70599365234375
315.5840148925781
315.70599365234375
315.5870056152344
315.7120056152344
315.5899963378906
315.7120056152344
315.5820007324219
315.6990051269531
315.56500244140625
315.6820068359375
315.5480041503906
315.6650085449219
315.5350036621094
315.6549987792969
315.5299987792969
315.65399169921875
315.9859924316406
316.10198974609375
315.97198486328125
316.09100341796875
315.9630126953125
316.0830078125
315.9570007324219
316.0769958496094
315.95098876953125
316.07000732421875
315.9469909667969
316.0710144042969
315.9540100097656
316.0790100097656
315.9590148925781
316.0799865722656
315.95001220703125
316.0660095214844
315.9320068359375
316.04901123046875
315.9159851074219
316.03399658203125
315.90399169921875
316.0260009765625
315.9010009765625
316.0260009765625
316.47601318359375
316.34698486328125
316.3389892578125
316.4590148925781
316.33099365234375
316.4519958496094
316.3240051269531
316.4469909667969
316.3190002441406
316.4419860839844
316.3169860839844
316.4440002441406
316.3240051269531
316.4519958496094
316.3290100097656
316.4530029296875
316.44500732421875
316.31298828125
316.427001953125
316.2959899902344
316.4119873046875
316.2829895019531
316.2770080566406
316.4010009765625
316.2749938964844
316.4010009765625
316.84600830078125
316.7170104980469
316.8330078125
316.7070007324219
316.82598876953125
316.70001220703125
316.6960144042969
316.82000732421875
316.6929931640625
316.8160095214844
316.6919860839844
316.8190002441406
316.70001220703125
316.8280029296875
316.8299865722656
316.7040100097656
316.8219909667969
316.69000244140625
316.8039855957031
316.6730041503906
316.78900146484375
316.65899658203125
316.77899169921875
316.6520080566406
316.6510009765625
316.77899169921875
317.09100341796875
317.2080078125
317.0790100097656
317.197998046875
317.0710144042969
317.1919860839844
317.0679931640625
317.19000244140625
317.06500244140625
317.18701171875
317.06500244140625
317.19000244140625
317.072998046875
317.20001220703125
317.0790100097656
317.2019958496094
317.0710144042969
317.1889953613281
317.0539855957031
317.1730041503906
317.03900146484375
317.15899658203125
317.02899169921875
317.1520080566406
317.02801513671875
317.15399169921875
317.45001220703125
317.5610046386719
317.43798828125
317.5509948730469
317.4320068359375
317.5459899902344
317.4289855957031
317.5459899902344
317.4280090332031
317.5450134277344
317.4289855957031
317.54998779296875
317.43798828125
317.5589904785156
317.4440002441406
317.56201171875
317.43701171875
317.54901123046875
317.4200134277344
317.5329895019531
317.406005859375
317.5199890136719
317.39599609375
317.5140075683594
317.39599609375
317.89801025390625
317.7879943847656
317.8909912109375
317.7770080566406
317.8819885253906
317.77099609375
317.8789978027344
317.77099609375
317.8789978027344
317.77099609375
317.8789978027344
317.77301025390625
317.8840026855469
317.781005859375
317.89300537109375
317.78900146484375
317.8970031738281
317.7820129394531
317.885009765625
317.7650146484375
317.8710021972656
317.75201416015625
317.85699462890625
317.74200439453125
317.8500061035156
318.11199951171875
318.22198486328125
318.1109924316406
318.2149963378906
318.10101318359375
318.2080078125
318.09698486328125
318.2049865722656
318.09600830078125
318.2040100097656
318.09600830078125
318.2040100097656
318.09698486328125
318.2099914550781
318.1080017089844
318.22198486328125
318.1159973144531
318.22601318359375
318.1099853515625
318.2139892578125
318.093994140625
318.197998046875
318.0790100097656
318.1830139160156
318.0679931640625
318.17401123046875
SCALARS latitude float 1
LOOKUP_TABLE default
4.353000164031982
4.254000186920166
4.073999881744385
3.9769999980926514
3.799999952316284
3.7049999237060547
3.5290000438690186
3.437000036239624
3.259999990463257
3.1619999408721924
2.9779999256134033
2.878999948501587
2.696000099182129
2.5999999046325684
2.4159998893737793
2.319999933242798
2.135999917984009
2.0409998893737793
1.8539999723434448
1.7580000162124634
1.5709999799728394
1.4759999513626099
1.2879999876022339
1.1920000314712524
4.3460001945495605
4.241000175476074
4.067999839782715
3.9679999351501465
3.796999931335449
3.694999933242798
3.5230000019073486
3.4210000038146973
3.25
3.1419999599456787
2.9679999351501465
2.8580000400543213
2.684999942779541
2.5759999752044678
2.4040000438690186
2.2960000038146973
2.124000072479248
2.0190000534057617
1.843999981880188
1.7389999628067017
1.562000036239624
1.4559999704360962
1.277999997138977
1.1729999780654907
4.308000087738037
4.204999923706055
4.035999774932861
3.933000087738037
3.763000011444092
3.6549999713897705
3.484999895095825
3.375
3.2039999961853027
3.0929999351501465
2.9210000038146973
2.812000036239624
2.6389999389648438
2.5329999923706055
2.3610000610351562
2.256999969482422
2.0859999656677246
1.9809999465942383
1.8079999685287476
1.7009999752044678
1.5260000228881836
1.4210000038146973
1.2450000047683716
1.1399999856948853
4.260000228881836
4.146999835968018
3.989000082015991
3.872999906539917
3.7100000381469727
3.5929999351501465
3.428999900817871
3.312000036239624
3.1470000743865967
3.0309998989105225
2.868000030517578
2.75600004196167
2.5929999351501465
2.4839999675750732
2.319000005722046
2.2100000381469727
2.0420000553131104
1.930999994277954
1.7630000114440918
1.6540000438690186
1.4859999418258667
1.3760000467300415
1.2050000429153442
1.0950000286102295
4.182000160217285
4.063000202178955
3.9119999408721924
3.7920000553131104
3.634999990463257
3.515000104904175
3.3550000190734863
3.2360000610351562
3.0759999752044678
2.9590001106262207
2.802000045776367
2.686000108718872
2.5309998989105225
2.4140000343322754
2.256999969482422
2.13700008392334
1.9780000448226929
1.8600000143051147
1.7029999494552612
1.5859999656677246
1.4270000457763672
1.309000015258789
1.1469999551773071
1.0299999713897705
4.241000175476074
4.0929999351501465
3.9749999046325684
3.825000047683716
3.7060000896453857
3.552000045776367
3.430999994277954
3.2750000953674316
3.1579999923706055
3.002000093460083
2.888000011444092
2.7290000915527344
2.61299991607666
2.453000068664551
2.3380000591278076
2.177999973297119
2.062000036239624
1.902999997138977
1.7890000343322754
1.6299999952316284
1.5149999856948853
1.3539999723434448
1.2389999628067017
1.0750000476837158
0.9589999914169312
4.276000022888184
4.160999774932861
4.008999824523926
3.8929998874664307
3.740000009536743
3.621999979019165
3.4670000076293945
3.3499999046325684
3.197000026702881
3.0810000896453857
2.927999973297119
2.812000036239624
2.6549999713897705
2.5369999408721924
2.378999948501587
2.263000011444092
2.1059999465942383
1.9910000562667847
1.8339999914169312
1.7200000286102295
1.5609999895095825
1.4459999799728394
1.284999966621399
1.1679999828338623
1.00600004196167
0.8899999856948853
4.214000225067139
4.130000114440918
3.9509999752044678
3.8559999465942383
3.680000066757202
3.5850000381469727
3.4100000858306885
3.315999984741211
3.140000104904175
3.0450000762939453
2.869999885559082
2.7739999294281006
2.5969998836517334
2.500999927520752
2.325000047683716
2.2300000190734863
2.0480000972747803
1.9630000591278076
1.7769999504089355
1.6920000314712524
1.50600004196167
1.4190000295639038
1.2339999675750732
1.1380000114440918
0.9559999704360962
0.8619999885559082
4.203000068664551
4.117000102996826
3.936000108718872
3.8489999771118164
3.6670000553131104
3.5789999961853027
3.3980000019073486
3.305000066757202
3.128000020980835
3.0360000133514404
2.8589999675750732
2.7669999599456787
2.5859999656677246
2.496000051498413
2.313999891281128
2.2239999771118164
2.0420000553131104
1.9520000219345093
1.7690000534057617
1.6790000200271606
1.496000051498413
1.4079999923706055
1.225000023841858
1.1349999904632568
0.9509999752044678
0.8579999804496765
4.185999870300293
4.080999851226807
3.9179999828338623
3.812999963760376
3.6489999294281006
3.5429999828338623
3.377000093460083
3.2699999809265137
3.1070001125335693
3.002000093460083
2.8399999141693115
2.7339999675750732
2.569999933242798
2.4639999866485596
2.2980000972747803
2.191999912261963
2.0250000953674316
1.9190000295639038
1.7519999742507935
1.6460000276565552
1.4789999723434448
1.3730000257492065
1.2070000171661377
1.100000023841858
0.9330000281333923
0.8240000009536743
4.119999885559082
3.993000030517578
3.8499999046325684
3.7239999771118164
3.5820000171661377
3.4549999237060547
3.309000015258789
3.180999994277954
3.0369999408721924
2.9100000858306885
2.7690000534057617
2.6419999599456787
2.500999927520752
2.371000051498413
2.2290000915527344
2.0989999771118164
1.9559999704360962
1.8270000219345093
1.6829999685287476
1.5540000200271606
1.409999966621399
1.2799999713897705
1.1360000371932983
1.0049999952316284
0.8610000014305115
4.203999996185303
4.034999847412109
3.930999994277954
3.7639999389648438
3.6610000133514404
3.49399995803833
3.3889999389648438
3.2209999561309814
3.115000009536743
2.947999954223633
2.8429999351501465
2.677000045776367
2.572999954223633
2.4079999923706055
2.3010001182556152
2.134999990463257
2.0260000228881836
1.8609999418258667
1.7510000467300415
1.5870000123977661
1.4769999980926514
1.312999963760376
1.2029999494552612
1.0390000343322754
0.9290000200271606
4.2729997634887695
4.171999931335449
3.999000072479248
3.8970000743865967
3.7260000705718994
3.625
3.4539999961853027
3.3510000705718994
3.180000066757202
3.078000068664551
2.9079999923706055
2.805000066757202
2.635999917984009
2.5309998989105225
2.361999988555908
2.255000114440918
2.0850000381469727
1.9769999980926514
1.809000015258789
1.7020000219345093
1.534999966621399
1.4299999475479126
1.2630000114440918
1.156999945640564
0.9879999756813049
0.8830000162124634
