# vtk DataFile Version 3.0
SHAPE_sfm_50k_v20200323
ASCII
DATASET POLYDATA
POINTS 582 float
-0.239889994263649 -0.2545900046825409 -0.2589299976825714
-0.24065999686717987 -0.2525100111961365 -0.26012998819351196
-0.2387000024318695 -0.25332000851631165 -0.2608799934387207
-0.2391899973154068 -0.25666001439094543 -0.25786998867988586
-0.2380100041627884 -0.25540000200271606 -0.25982001423835754
-0.23681999742984772 -0.2541100084781647 -0.2617399990558624
-0.23845000565052032 -0.25887998938560486 -0.25685998797416687
-0.23734000325202942 -0.2574999928474426 -0.2587699890136719
-0.23621000349521637 -0.25626999139785767 -0.26078000664711
-0.23510000109672546 -0.2550399899482727 -0.26280999183654785
-0.2356400042772293 -0.252920001745224 -0.26374998688697815
-0.23386000096797943 -0.25380998849868774 -0.26475998759269714
-0.23777000606060028 -0.26139000058174133 -0.25578999519348145
-0.2366899996995926 -0.2599700093269348 -0.2577100098133087
-0.2356099933385849 -0.25859999656677246 -0.259660005569458
-0.2344599962234497 -0.2573600113391876 -0.26166000962257385
-0.23332999646663666 -0.2561199963092804 -0.26368001103401184
-0.23202000558376312 -0.25481998920440674 -0.26554998755455017
-0.23687000572681427 -0.2637900114059448 -0.25461000204086304
-0.23590999841690063 -0.2623699903488159 -0.2565999925136566
-0.23492999374866486 -0.2610200047492981 -0.25863999128341675
-0.2338699996471405 -0.25964999198913574 -0.2606300115585327
-0.23270000517368317 -0.2583799958229065 -0.2626200020313263
-0.23145000636577606 -0.25703001022338867 -0.2644999921321869
-0.23016999661922455 -0.2557399868965149 -0.266400009393692
-0.23080000281333923 -0.25352001190185547 -0.2674899995326996
-0.22894999384880066 -0.25442999601364136 -0.26833999156951904
-0.23598000407218933 -0.26614999771118164 -0.25339001417160034
-0.2350499927997589 -0.2648000121116638 -0.25547999143600464
-0.23409000039100647 -0.26335999369621277 -0.2574799954891205
-0.23309999704360962 -0.2619999945163727 -0.2595199942588806
-0.23201000690460205 -0.26058998703956604 -0.26148998737335205
-0.2307800054550171 -0.2592499852180481 -0.26339998841285706
-0.22955000400543213 -0.25788000226020813 -0.2653000056743622
-0.22833000123500824 -0.25661998987197876 -0.2672699987888336
-0.22718000411987305 -0.2553600072860718 -0.26930001378059387
-0.22777000069618225 -0.2530899941921234 -0.2702699899673462
-0.22599999606609344 -0.2540299892425537 -0.27125999331474304
-0.23507000505924225 -0.2684600055217743 -0.25213000178337097
-0.2341500073671341 -0.2671999931335449 -0.25429001450538635
-0.23326000571250916 -0.2658500075340271 -0.25641998648643494
-0.23232999444007874 -0.2643899917602539 -0.2584500014781952
-0.23125000298023224 -0.2629300057888031 -0.26041001081466675
-0.2300799936056137 -0.2614400088787079 -0.2622799873352051
-0.2289399951696396 -0.2601499855518341 -0.2642900049686432
-0.22779999673366547 -0.25883999466896057 -0.2662999927997589
-0.22660000622272491 -0.2575800120830536 -0.268310010433197
-0.2253900021314621 -0.2562600076198578 -0.27028000354766846
-0.2241699993610382 -0.2548699975013733 -0.27219998836517334
-0.23412999510765076 -0.27070000767707825 -0.2508000135421753
-0.23319999873638153 -0.26949000358581543 -0.25301000475883484
-0.23225000500679016 -0.26816999912261963 -0.25512999296188354
-0.2313999980688095 -0.2668299973011017 -0.2572900056838989
-0.23054000735282898 -0.26541000604629517 -0.25940001010894775
-0.22940999269485474 -0.26385998725891113 -0.2612900137901306
-0.22822999954223633 -0.2623400092124939 -0.2631399929523468
-0.2271600067615509 -0.26109999418258667 -0.2652300000190735
-0.22606000304222107 -0.25982001423835754 -0.267300009727478
-0.22484000027179718 -0.25852999091148376 -0.26930001378059387
-0.22367000579833984 -0.25720998644828796 -0.2713199853897095
-0.22250999510288239 -0.255840003490448 -0.2732999920845032
-0.23321999609470367 -0.27292999625205994 -0.24953000247478485
-0.23229999840259552 -0.27173998951911926 -0.2517699897289276
-0.23127000033855438 -0.2704100012779236 -0.25387999415397644
-0.23037999868392944 -0.26910001039505005 -0.2560400068759918
-0.22950999438762665 -0.26771000027656555 -0.25817999243736267
-0.2286899983882904 -0.2663100063800812 -0.26034000515937805
-0.2275799959897995 -0.26475000381469727 -0.26225000619888306
-0.22641000151634216 -0.2632099986076355 -0.2641099989414215
-0.2254199981689453 -0.26201000809669495 -0.26629000902175903
-0.22431999444961548 -0.26072001457214355 -0.26837998628616333
-0.22314000129699707 -0.25944000482559204 -0.27042001485824585
-0.22208000719547272 -0.2581599950790405 -0.27254998683929443
-0.22091999650001526 -0.2567700147628784 -0.2745699882507324
-0.22130000591278076 -0.25429999828338623 -0.2751399874687195
-0.21949000656604767 -0.25512000918388367 -0.2761799991130829
-0.2324099987745285 -0.2750999927520752 -0.24833999574184418
-0.23146000504493713 -0.2739799916744232 -0.2506200075149536
-0.23038999736309052 -0.27265000343322754 -0.2527100145816803
-0.22936999797821045 -0.27129998803138733 -0.25481000542640686
-0.22853000462055206 -0.27000999450683594 -0.2570199966430664
-0.2277200073003769 -0.26864999532699585 -0.2592200040817261
-0.22686000168323517 -0.2671700119972229 -0.26131999492645264
-0.22579999268054962 -0.265639990568161 -0.2632800042629242
-0.22473999857902527 -0.2641499936580658 -0.2652699947357178
-0.22368000447750092 -0.26287999749183655 -0.26739999651908875
-0.22257000207901 -0.261570006608963 -0.2694700062274933
-0.22139999270439148 -0.2602899968624115 -0.27153000235557556
-0.22056999802589417 -0.25918999314308167 -0.2739199995994568
-0.21918000280857086 -0.25766000151634216 -0.27577000856399536
-0.21751999855041504 -0.255840003490448 -0.27695998549461365
-0.2315399944782257 -0.27772998809814453 -0.24718999862670898
-0.230880007147789 -0.27643999457359314 -0.2495100051164627
-0.22958999872207642 -0.2750700116157532 -0.2515000104904175
-0.22853000462055206 -0.27371999621391296 -0.25356000661849976
-0.2275400012731552 -0.272379994392395 -0.25567999482154846
-0.22668999433517456 -0.2710700035095215 -0.257889986038208
-0.22585999965667725 -0.26965999603271484 -0.2600499987602234
-0.22506000101566315 -0.2682099938392639 -0.2621999979019165
-0.22411000728607178 -0.26673001050949097 -0.2642599940299988
-0.22312000393867493 -0.2652899920940399 -0.2663300037384033
-0.22199000418186188 -0.26396000385284424 -0.26840001344680786
-0.22076000273227692 -0.26256999373435974 -0.27035999298095703
-0.21966999769210815 -0.26135000586509705 -0.27250999212265015
-0.21855999529361725 -0.2600399851799011 -0.2746399939060211
-0.21704000234603882 -0.25835999846458435 -0.2761699855327606
-0.21556000411510468 -0.25665000081062317 -0.27764999866485596
-0.2161799967288971 -0.25404998660087585 -0.27845001220703125
-0.2143400013446808 -0.2549299895763397 -0.279339998960495
-0.23048000037670135 -0.2804200053215027 -0.24586999416351318
-0.2300100028514862 -0.2792400121688843 -0.24829000234603882
-0.22908000648021698 -0.27772000432014465 -0.2504099905490875
-0.22770999372005463 -0.27623000741004944 -0.25224998593330383
-0.22664999961853027 -0.27487000823020935 -0.2543100118637085
-0.2256699949502945 -0.2735300064086914 -0.25644001364707947
-0.2248000055551529 -0.2721799910068512 -0.2586199939250946
-0.2240000069141388 -0.2707599997520447 -0.26078000664711
-0.22335000336170197 -0.26941999793052673 -0.26304998993873596
-0.22266000509262085 -0.2681199908256531 -0.2653599977493286
-0.22145000100135803 -0.266510009765625 -0.26721999049186707
-0.2201399952173233 -0.2650499939918518 -0.2690800130367279
-0.21890999376773834 -0.2636300027370453 -0.2710300087928772
-0.2177100032567978 -0.2623000144958496 -0.27305999398231506
-0.21645000576972961 -0.26076000928878784 -0.2749199867248535
-0.21503999829292297 -0.2592200040817261 -0.27665001153945923
-0.21367000043392181 -0.25760000944137573 -0.278329998254776
-0.2124200016260147 -0.25582998991012573 -0.2799699902534485
-0.22931000590324402 -0.2828199863433838 -0.24440999329090118
-0.22851000726222992 -0.2815200090408325 -0.24664999544620514
-0.22788000106811523 -0.2802000045776367 -0.24894000589847565
-0.22705000638961792 -0.2787199914455414 -0.2511099874973297
-0.22578999400138855 -0.2772899866104126 -0.25306999683380127
-0.22462999820709229 -0.2758300006389618 -0.2550300061702728
-0.22357000410556793 -0.2743600010871887 -0.25703001022338867
-0.22279000282287598 -0.27307000756263733 -0.2592799961566925
-0.22214999794960022 -0.2718000113964081 -0.26159000396728516
-0.22157999873161316 -0.270550012588501 -0.263949990272522
-0.2207999974489212 -0.2691900134086609 -0.26620998978614807
-0.2195499986410141 -0.26747000217437744 -0.26794999837875366
-0.21821999549865723 -0.2659600079059601 -0.2697800099849701
-0.21699999272823334 -0.26455000042915344 -0.2717599868774414
-0.2157299965620041 -0.26311999559402466 -0.27368998527526855
-0.2144699990749359 -0.2615799903869629 -0.27553999423980713
-0.21310999989509583 -0.2600800096988678 -0.2773500084877014
-0.2117599993944168 -0.25845998525619507 -0.2790699899196625
-0.210549995303154 -0.2567099928855896 -0.2807700037956238
-0.21135999262332916 -0.25400999188423157 -0.28165000677108765
-0.20967000722885132 -0.2549999952316284 -0.2826699912548065
-0.22818000614643097 -0.2851699888706207 -0.24282999336719513
-0.22735999524593353 -0.2839300036430359 -0.2451300024986267
-0.22644999623298645 -0.28248000144958496 -0.2472500056028366
-0.2257000058889389 -0.28095000982284546 -0.24936999380588531
-0.22502000629901886 -0.27970001101493835 -0.2517400085926056
-0.2237199991941452 -0.278219997882843 -0.25367000699043274
-0.22247999906539917 -0.2765899896621704 -0.25547000765800476
-0.22142000496387482 -0.2750700116157532 -0.25745999813079834
-0.22071999311447144 -0.2739099860191345 -0.25982001423835754
-0.22023999691009521 -0.2728399932384491 -0.2623000144958496
-0.2195100039243698 -0.2713499963283539 -0.264490008354187
-0.2185799926519394 -0.26969999074935913 -0.2664699852466583
-0.21753999590873718 -0.2682799994945526 -0.268559992313385
-0.21628999710083008 -0.26684001088142395 -0.2705099880695343
-0.21504999697208405 -0.265390008687973 -0.272460013628006
-0.213809996843338 -0.2639800012111664 -0.2744300067424774
-0.21252000331878662 -0.2624000012874603 -0.2762399911880493
-0.21125000715255737 -0.26096999645233154 -0.2782000005245209
-0.20986999571323395 -0.2593199908733368 -0.2798900008201599
-0.20872999727725983 -0.2576099932193756 -0.28167998790740967
-0.20780999958515167 -0.2558499872684479 -0.2835400104522705
-0.22804999351501465 -0.289249986410141 -0.23931999504566193
-0.2290000021457672 -0.28665998578071594 -0.24071000516414642
-0.22702999413013458 -0.28780001401901245 -0.24140000343322754
-0.22639000415802002 -0.28644001483917236 -0.24368999898433685
-0.225490003824234 -0.28508999943733215 -0.24592000246047974
-0.22452999651432037 -0.2835400104522705 -0.24796999990940094
-0.22381000220775604 -0.2820500135421753 -0.2501299977302551
-0.22296999394893646 -0.28060999512672424 -0.2523399889469147
-0.22158999741077423 -0.2790299952030182 -0.2541399896144867
-0.22040000557899475 -0.2774200141429901 -0.25598999857902527
-0.21938000619411469 -0.27595001459121704 -0.25804999470710754
-0.21873000264167786 -0.27483999729156494 -0.2604599893093109
-0.2182299941778183 -0.2737100124359131 -0.2629300057888031
-0.21740999817848206 -0.27204999327659607 -0.2649799883365631
-0.21651999652385712 -0.2704299986362457 -0.2669999897480011
-0.21546000242233276 -0.2689700126647949 -0.2690599858760834
-0.2142300009727478 -0.26754000782966614 -0.2710399925708771
-0.21309000253677368 -0.26622000336647034 -0.2731499969959259
-0.2118300050497055 -0.2647700011730194 -0.27511000633239746
-0.2106200009584427 -0.26326000690460205 -0.2770499885082245
-0.20937000215053558 -0.26183000206947327 -0.2790299952030182
-0.2081799954175949 -0.26030001044273376 -0.28095999360084534
-0.2070399969816208 -0.25856998562812805 -0.28275999426841736
-0.20600999891757965 -0.25672999024391174 -0.2844800055027008
-0.22717000544071198 -0.2918899953365326 -0.23808999359607697
-0.22630999982357025 -0.2905200123786926 -0.24031999707221985
-0.22527000308036804 -0.2890399992465973 -0.24240000545978546
-0.22471000254154205 -0.28766998648643494 -0.24472999572753906
-0.22372999787330627 -0.2862600088119507 -0.24688999354839325
-0.22281000018119812 -0.28474000096321106 -0.248989999294281
-0.22206999361515045 -0.28321999311447144 -0.25117000937461853
-0.22095000743865967 -0.2815000116825104 -0.2530499994754791
-0.21953999996185303 -0.27987998723983765 -0.25477999448776245
-0.21834999322891235 -0.2782599925994873 -0.256630003452301
-0.21743999421596527 -0.2768999934196472 -0.25883999466896057
-0.21679000556468964 -0.27573999762535095 -0.26124000549316406
-0.2161799967288971 -0.2744300067424774 -0.2635999917984009
-0.21536999940872192 -0.27274999022483826 -0.26563000679016113
-0.21447999775409698 -0.27110999822616577 -0.2676500082015991
-0.21337999403476715 -0.2695600092411041 -0.2696399986743927
-0.2122199982404709 -0.2682200074195862 -0.27173998951911926
-0.21108999848365784 -0.2669000029563904 -0.27386000752449036
-0.20993000268936157 -0.26556000113487244 -0.2759700119495392
-0.20872999727725983 -0.2640500068664551 -0.2779400050640106
-0.20764000713825226 -0.2627499997615814 -0.2800999879837036
-0.20670999586582184 -0.2613300085067749 -0.2822900116443634
-0.20552000403404236 -0.2595599889755249 -0.28404000401496887
-0.20424999296665192 -0.2576200067996979 -0.2854900062084198
-0.2261199951171875 -0.2943499982357025 -0.2367600053548813
-0.2254199981689453 -0.2931399941444397 -0.2391500025987625
-0.22463999688625336 -0.29179999232292175 -0.24143999814987183
-0.2240999937057495 -0.29050999879837036 -0.24382999539375305
-0.2234099954366684 -0.289029985666275 -0.24609999358654022
-0.22231000661849976 -0.2875699996948242 -0.24820999801158905
-0.22109000384807587 -0.2859399914741516 -0.2500799894332886
-0.22009000182151794 -0.2842099964618683 -0.2519800066947937
-0.2189600020647049 -0.28244999051094055 -0.25380998849868774
-0.2176000028848648 -0.2808400094509125 -0.25558000802993774
-0.21649999916553497 -0.2792699933052063 -0.25756001472473145
-0.21563999354839325 -0.2779400050640106 -0.25982001423835754
-0.21488000452518463 -0.27665001153945923 -0.2621400058269501
-0.21412000060081482 -0.2750900089740753 -0.2643199861049652
-0.21332000195980072 -0.27338001132011414 -0.26635000109672546
-0.21243999898433685 -0.2717199921607971 -0.26837998628616333
-0.21133999526500702 -0.27013999223709106 -0.2703700065612793
-0.2101600021123886 -0.2687399983406067 -0.27243998646736145
-0.20909999310970306 -0.267520010471344 -0.2746799886226654
-0.20800000429153442 -0.2662299871444702 -0.27685999870300293
-0.20687000453472137 -0.2647700011730194 -0.27893999218940735
-0.20604999363422394 -0.263700008392334 -0.2813799977302551
-0.20513999462127686 -0.2623000144958496 -0.2836500108242035
-0.20375999808311462 -0.2603699862957001 -0.28518998622894287
-0.2247599959373474 -0.296970009803772 -0.2353000044822693
-0.22431999444961548 -0.29565000534057617 -0.23770000040531158
-0.22373999655246735 -0.29451999068260193 -0.24018000066280365
-0.22339999675750732 -0.2934100031852722 -0.24269999563694
-0.22347000241279602 -0.2923299968242645 -0.24538999795913696
-0.22256000339984894 -0.29071998596191406 -0.24765999615192413
-0.22098000347614288 -0.28911998867988586 -0.24946999549865723
-0.21932999789714813 -0.28731000423431396 -0.2508400082588196
-0.21814000606536865 -0.28543001413345337 -0.2524699866771698
-0.21705999970436096 -0.2836900055408478 -0.25433000922203064
-0.21580000221729279 -0.28213998675346375 -0.25626999139785767
-0.21476000547409058 -0.28060001134872437 -0.25832000374794006
-0.2137800008058548 -0.2791300117969513 -0.2604700028896332
-0.2128400057554245 -0.2775999903678894 -0.26260998845100403
-0.2120400071144104 -0.27590999007225037 -0.26467999815940857
-0.21126000583171844 -0.27421000599861145 -0.26673999428749084
-0.21039000153541565 -0.2725299894809723 -0.2687999904155731
-0.2092600017786026 -0.27090001106262207 -0.2707599997520447
-0.2081100046634674 -0.26952001452445984 -0.2728999853134155
-0.20709000527858734 -0.26833000779151917 -0.2752099931240082
-0.20604999363422394 -0.26712000370025635 -0.27748000621795654
-0.20508000254631042 -0.2658199965953827 -0.2797600030899048
-0.2040099948644638 -0.26447001099586487 -0.2819499969482422
-0.20295000076293945 -0.2628900110721588 -0.2840000092983246
-0.22353999316692352 -0.29978999495506287 -0.23383000493049622
-0.2229599952697754 -0.29833000898361206 -0.23614999651908875
-0.22248999774456024 -0.29697999358177185 -0.2385600060224533
-0.2219800055027008 -0.29589998722076416 -0.24108999967575073
-0.2222999930381775 -0.29541999101638794 -0.2439499944448471
-0.2221899926662445 -0.2942500114440918 -0.24666999280452728
-0.22109000384807587 -0.2924799919128418 -0.2488500028848648
-0.219310000538826 -0.29069000482559204 -0.2503800094127655
-0.2176000028848648 -0.28878000378608704 -0.25157999992370605
-0.21624000370502472 -0.2867400050163269 -0.2528800070285797
-0.21511000394821167 -0.2849299907684326 -0.25466999411582947
-0.21392999589443207 -0.2834399938583374 -0.25672999024391174
-0.21291999518871307 -0.2819100022315979 -0.25885000824928284
-0.21180999279022217 -0.2802799940109253 -0.26085999608039856
-0.2108200043439865 -0.27862998843193054 -0.2628999948501587
-0.20999999344348907 -0.27689000964164734 -0.2649500072002411
-0.2091899961233139 -0.2750900089740753 -0.26695001125335693
-0.2082899957895279 -0.2733500003814697 -0.2689700126647949
-0.20724999904632568 -0.2718299925327301 -0.2711000144481659
-0.20611000061035156 -0.27046000957489014 -0.27327001094818115
-0.20508000254631042 -0.26923999190330505 -0.2755799889564514
-0.2040500044822693 -0.2680099904537201 -0.2778800129890442
-0.20302000641822815 -0.2666099965572357 -0.28009000420570374
-0.20186999440193176 -0.26506999135017395 -0.28213000297546387
-0.2211800068616867 -0.2999100089073181 -0.2366899996995926
-0.22169999778270721 -0.30131998658180237 -0.2343199998140335
-0.22067999839782715 -0.2984899878501892 -0.23907999694347382
-0.22011999785900116 -0.2973499894142151 -0.24160000681877136
-0.21998000144958496 -0.29649999737739563 -0.24431000649929047
-0.21985000371932983 -0.29548999667167664 -0.24705000221729279
-0.2188899964094162 -0.29381999373435974 -0.24932999908924103
-0.21719999611377716 -0.2919900119304657 -0.2509399950504303
-0.21550999581813812 -0.2899099886417389 -0.25196999311447144
-0.2142000049352646 -0.28780999779701233 -0.2533000111579895
-0.21313999593257904 -0.2860499918460846 -0.25519999861717224
-0.21202999353408813 -0.28461000323295593 -0.25734999775886536
-0.21101999282836914 -0.283050000667572 -0.2594900131225586
-0.20991000533103943 -0.28141000866889954 -0.2615000009536743
-0.20892000198364258 -0.2797299921512604 -0.26353999972343445
-0.20798000693321228 -0.27783000469207764 -0.26541000604629517
-0.20709000527858734 -0.2758899927139282 -0.26725998520851135
-0.2062399983406067 -0.27417999505996704 -0.2693600058555603
-0.2052299976348877 -0.2727000117301941 -0.27153998613357544
-0.2041199952363968 -0.2713499963283539 -0.27375999093055725
-0.20306000113487244 -0.27008000016212463 -0.27605000138282776
-0.20201000571250916 -0.2687999904155731 -0.278329998254776
-0.20090000331401825 -0.2672500014305115 -0.2804099917411804
-0.2222999930381775 -0.30281999707221985 -0.23199999332427979
-0.219760000705719 -0.30274999141693115 -0.23467999696731567
-0.22035999596118927 -0.3042699992656708 -0.23237000405788422
-0.21924999356269836 -0.3013400137424469 -0.23707999289035797
-0.21873000264167786 -0.2998799979686737 -0.23944999277591705
-0.2180500030517578 -0.2985599935054779 -0.24186000227928162
-0.21755999326705933 -0.2970699965953827 -0.24422000348567963
-0.21728000044822693 -0.2956399917602539 -0.24664999544620514
-0.21638000011444092 -0.29416999220848083 -0.2489199936389923
-0.2147900015115738 -0.29243001341819763 -0.2505500018596649
-0.21323999762535095 -0.2906000018119812 -0.25207000970840454
-0.21220000088214874 -0.2888000011444092 -0.2539699971675873
-0.21127000451087952 -0.28714001178741455 -0.25606000423431396
-0.21017000079154968 -0.2856900095939636 -0.2582300007343292
-0.20923000574111938 -0.284170001745224 -0.2604300081729889
-0.2082200050354004 -0.2825700044631958 -0.2625400125980377
-0.20705999433994293 -0.2807599902153015 -0.26440000534057617
-0.20595000684261322 -0.2786700129508972 -0.2659800052642822
-0.20500999689102173 -0.2766300141811371 -0.26774001121520996
-0.20420999825000763 -0.27498000860214233 -0.2699199914932251
-0.20321999490261078 -0.273499995470047 -0.27211999893188477
-0.20208999514579773 -0.2721000015735626 -0.27432000637054443
-0.20101000368595123 -0.27077001333236694 -0.27656999230384827
-0.19990000128746033 -0.2693699896335602 -0.27875998616218567
-0.2195899933576584 -0.3086700141429901 -0.22854000329971313
-0.2210099995136261 -0.30588001012802124 -0.2301200032234192
-0.21894000470638275 -0.30706000328063965 -0.23079000413417816
-0.218299999833107 -0.30542999505996704 -0.23303000628948212
-0.2177100032567978 -0.30390000343322754 -0.23535999655723572
-0.21720999479293823 -0.30246999859809875 -0.23777000606060028
-0.21664999425411224 -0.30094000697135925 -0.2400899976491928
-0.2158699929714203 -0.2994399964809418 -0.24237999320030212
-0.21532000601291656 -0.2978000044822693 -0.24463999271392822
-0.21490000188350677 -0.29587000608444214 -0.2466599941253662
-0.21397000551223755 -0.2941400110721588 -0.2487100064754486
-0.2124200016260147 -0.29260000586509705 -0.2505199909210205
-0.2110300064086914 -0.29120999574661255 -0.2525700032711029
-0.2101999968290329 -0.2896899878978729 -0.25481000542640686
-0.2094700038433075 -0.28817999362945557 -0.257099986076355
-0.20847000181674957 -0.2867799997329712 -0.25936999917030334
-0.20746999979019165 -0.28519999980926514 -0.26151999831199646
-0.20653000473976135 -0.2836399972438812 -0.26374998688697815
-0.2050900012254715 -0.28161999583244324 -0.26521000266075134
-0.20389999449253082 -0.2794100046157837 -0.2665799856185913
-0.20295999944210052 -0.2773500084877014 -0.26833000779151917
-0.20214000344276428 -0.27562999725341797 -0.27046000957489014
-0.2011599987745285 -0.274150013923645 -0.2726899981498718
-0.20002000033855438 -0.27272000908851624 -0.27487000823020935
-0.19890999794006348 -0.2713199853897095 -0.27706998586654663
-0.21845999360084534 -0.31185001134872437 -0.22764000296592712
-0.21762000024318695 -0.3098599910736084 -0.22950999438762665
-0.2167000025510788 -0.30792999267578125 -0.2313999980688095
-0.2161100059747696 -0.30632999539375305 -0.23368999361991882
-0.21556000411510468 -0.3048200011253357 -0.2360599935054779
-0.21503999829292297 -0.30333998799324036 -0.23845000565052032
-0.2144699990749359 -0.3017500042915344 -0.24075999855995178
-0.21367999911308289 -0.3001999855041504 -0.24301999807357788
-0.2130499929189682 -0.29840001463890076 -0.24514000117778778
-0.21258999407291412 -0.2963399887084961 -0.24705000221729279
-0.21164000034332275 -0.29447999596595764 -0.24898000061511993
-0.21017000079154968 -0.29311999678611755 -0.251010000705719
-0.20886999368667603 -0.2918500006198883 -0.25321000814437866
-0.2082200050354004 -0.29058000445365906 -0.2556700110435486
-0.20769000053405762 -0.28925999999046326 -0.25815001130104065
-0.2069299966096878 -0.28801000118255615 -0.2606300115585327
-0.20577000081539154 -0.28630000352859497 -0.2626500129699707
-0.20440000295639038 -0.28442999720573425 -0.26436999440193176
-0.20291000604629517 -0.282260000705719 -0.26552000641822815
-0.20178000628948212 -0.2800700068473816 -0.2669999897480011
-0.20087000727653503 -0.27803000807762146 -0.26879000663757324
-0.20002000033855438 -0.27623000741004944 -0.27087000012397766
-0.19901999831199646 -0.2746799886226654 -0.2730500102043152
-0.1978899985551834 -0.273250013589859 -0.27526000142097473
-0.21930000185966492 -0.31380999088287354 -0.2257400006055832
-0.21748000383377075 -0.3150399923324585 -0.22700999677181244
-0.21648000180721283 -0.31294000148773193 -0.22874000668525696
-0.21536999940872192 -0.310699999332428 -0.23017999529838562
-0.214369997382164 -0.3086099922657013 -0.2319200038909912
-0.21382999420166016 -0.3070400059223175 -0.2342900037765503
-0.2132900059223175 -0.305510014295578 -0.23666000366210938
-0.21279999613761902 -0.30404001474380493 -0.23906999826431274
-0.2122800052165985 -0.30250000953674316 -0.24143999814987183
-0.21150000393390656 -0.30094000697135925 -0.243709996342659
-0.21081000566482544 -0.2990100085735321 -0.2457199990749359
-0.21028999984264374 -0.2968200147151947 -0.24749000370502472
-0.20935000479221344 -0.294950008392334 -0.249439999461174
-0.20792999863624573 -0.2936500012874603 -0.2515699863433838
-0.20678000152111053 -0.2926099896430969 -0.2539899945259094
-0.20622999966144562 -0.2914400100708008 -0.2565400004386902
-0.20588000118732452 -0.29036998748779297 -0.2592099905014038
-0.20502999424934387 -0.2890399992465973 -0.26166999340057373
-0.20372000336647034 -0.28718000650405884 -0.26353999972343445
-0.20211000740528107 -0.28492000699043274 -0.26447001099586487
-0.20066000521183014 -0.28266000747680664 -0.26552000641822815
-0.19958999752998352 -0.2805800139904022 -0.26721999049186707
-0.198730006814003 -0.27862000465393066 -0.2691499888896942
-0.1978600025177002 -0.2767699956893921 -0.2711699903011322
-0.1968500018119812 -0.275160014629364 -0.2733500003814697
-0.21431000530719757 -0.3140600025653839 -0.2293899953365326
-0.21310999989509583 -0.3116999864578247 -0.2305999994277954
-0.21222999691963196 -0.3097200095653534 -0.23255999386310577
-0.21167999505996704 -0.3080799877643585 -0.23488999903202057
-0.21107999980449677 -0.30643001198768616 -0.23717999458312988
-0.21060000360012054 -0.3049199879169464 -0.23959000408649445
-0.21017000079154968 -0.30349001288414 -0.24206000566482544
-0.2093300074338913 -0.301829993724823 -0.2442599982023239
-0.20861999690532684 -0.29986000061035156 -0.24623000621795654
-0.2081100046634674 -0.29767999053001404 -0.24800999462604523
-0.20720000565052032 -0.2958100140094757 -0.25
-0.20586000382900238 -0.2945899963378906 -0.25224000215530396
-0.20478999614715576 -0.29361000657081604 -0.2547299861907959
-0.20423999428749084 -0.29243001341819763 -0.2572900056838989
-0.20367999374866486 -0.29107001423835754 -0.25977998971939087
-0.20268000662326813 -0.2894900143146515 -0.26203998923301697
-0.20134000480175018 -0.2872300148010254 -0.2633500099182129
-0.1998099982738495 -0.28494998812675476 -0.26427000761032104
-0.1983799934387207 -0.2828400135040283 -0.26565998792648315
-0.19735999405384064 -0.28088998794555664 -0.2675600051879883
-0.19652999937534332 -0.27897998690605164 -0.2695600092411041
-0.19569000601768494 -0.2771500051021576 -0.2716299891471863
-0.21198000013828278 -0.31505000591278076 -0.2293500006198883
-0.21105000376701355 -0.3129799962043762 -0.2311599999666214
-0.21031999588012695 -0.31112998723983765 -0.23329000174999237
-0.20972000062465668 -0.30941998958587646 -0.23555000126361847
-0.20903000235557556 -0.307669997215271 -0.23774999380111694
-0.20850999653339386 -0.3060699999332428 -0.24009999632835388
-0.20804999768733978 -0.3045499920845032 -0.24252000451087952
-0.20719000697135925 -0.302839994430542 -0.2446800023317337
-0.20658999681472778 -0.3009899854660034 -0.24682000279426575
-0.20608000457286835 -0.29879000782966614 -0.24859000742435455
-0.20521000027656555 -0.2969599962234497 -0.25064000487327576
-0.20395000278949738 -0.2957800030708313 -0.2529599964618683
-0.2028300017118454 -0.2947100102901459 -0.2553899884223938
-0.20211000740528107 -0.2932699918746948 -0.2577899992465973
-0.20134000480175018 -0.2912999987602234 -0.259770005941391
-0.20036999881267548 -0.28922000527381897 -0.2615300118923187
-0.199070006608963 -0.28700000047683716 -0.26284000277519226
-0.19749000668525696 -0.2850100100040436 -0.26423999667167664
-0.1961199939250946 -0.28310999274253845 -0.2659600079059601
-0.19513000547885895 -0.28119000792503357 -0.2679100036621094
-0.1943800002336502 -0.2794100046157837 -0.2700600028038025
-0.2090200036764145 -0.3143799901008606 -0.23152999579906464
-0.20840999484062195 -0.312610000371933 -0.2337699979543686
-0.20791999995708466 -0.31099000573158264 -0.2361299991607666
-0.20739999413490295 -0.30935999751091003 -0.23847000300884247
-0.20667999982833862 -0.3075900077819824 -0.24063999950885773
-0.20604999363422394 -0.30584999918937683 -0.24288000166416168
-0.2051600068807602 -0.30410000681877136 -0.24501000344753265
-0.20452000200748444 -0.3021700084209442 -0.247079998254776
-0.20409999787807465 -0.3000600039958954 -0.248989999294281
-0.2033199965953827 -0.2983100116252899 -0.2511500120162964
-0.2020999938249588 -0.2971400022506714 -0.2535099983215332
-0.20083999633789062 -0.29589998722076416 -0.2558000087738037
-0.19991999864578247 -0.29409998655319214 -0.25786998867988586
-0.1991100013256073 -0.291920006275177 -0.2596000134944916
-0.19811999797821045 -0.2896600067615509 -0.2610900104045868
-0.19679999351501465 -0.28751999139785767 -0.26256000995635986
-0.1952899992465973 -0.28571000695228577 -0.2642799913883209
-0.19394999742507935 -0.2838599979877472 -0.26607999205589294
-0.19298000633716583 -0.28196001052856445 -0.2680799961090088
-0.2063799947500229 -0.31391000747680664 -0.2343599945306778
-0.20611000061035156 -0.3124600052833557 -0.23688000440597534
-0.20582999289035797 -0.3110100030899048 -0.23941999673843384
-0.20498999953269958 -0.30913999676704407 -0.24151000380516052
-0.20396000146865845 -0.3070000112056732 -0.24323000013828278
-0.20306000113487244 -0.3052299916744232 -0.24536000192165375
-0.20237000286579132 -0.30320999026298523 -0.24732999503612518
-0.20204000174999237 -0.30118998885154724 -0.24938000738620758
-0.20134000480175018 -0.29951998591423035 -0.25165000557899475
-0.2002200037240982 -0.29844000935554504 -0.2540999948978424
-0.1988999992609024 -0.2971299886703491 -0.25635001063346863
-0.19777999818325043 -0.2950400114059448 -0.25804001092910767
-0.19696000218391418 -0.29284000396728516 -0.2597399950027466
-0.19596000015735626 -0.2905600070953369 -0.26124000549316406
-0.19467000663280487 -0.28847000002861023 -0.262800008058548
-0.1931300014257431 -0.28654998540878296 -0.26438000798225403
-0.19181999564170837 -0.28474000096321106 -0.2662700116634369
-0.2044299989938736 -0.31516000628471375 -0.23522000014781952
-0.2041199952363968 -0.31365999579429626 -0.23770999908447266
-0.20366999506950378 -0.3120400011539459 -0.24011999368667603
-0.20272000133991241 -0.30994001030921936 -0.24192999303340912
-0.2017900049686432 -0.30790001153945923 -0.24379000067710876
-0.20087000727653503 -0.30608001351356506 -0.24587999284267426
-0.20015999674797058 -0.3040199875831604 -0.24778999388217926
-0.19984999299049377 -0.30202001333236694 -0.24988999962806702
-0.19929000735282898 -0.3005099892616272 -0.2522999942302704
-0.19825999438762665 -0.2995699942111969 -0.2549000084400177
-0.19674000144004822 -0.2979600131511688 -0.256850004196167
-0.19555999338626862 -0.29572001099586487 -0.2583000063896179
-0.1947299987077713 -0.29346999526023865 -0.2599399983882904
-0.1938299983739853 -0.29135000705718994 -0.26172998547554016
-0.1925400048494339 -0.289249986410141 -0.26326999068260193
-0.19099999964237213 -0.2873300015926361 -0.26486000418663025
-0.2018599957227707 -0.31452998518943787 -0.23812000453472137
-0.20122000575065613 -0.3124600052833557 -0.2400600016117096
-0.20032000541687012 -0.3104499876499176 -0.24198000133037567
-0.19961999356746674 -0.3088099956512451 -0.24431000649929047
-0.19870999455451965 -0.3070000112056732 -0.24639999866485596
-0.1979999989271164 -0.30493998527526855 -0.2483299970626831
-0.19773000478744507 -0.302949994802475 -0.25044000148773193
-0.19717000424861908 -0.30142998695373535 -0.2528499960899353
-0.19592000544071198 -0.3000200092792511 -0.25505998730659485
-0.1943800002336502 -0.29833000898361206 -0.256850004196167
-0.19333000481128693 -0.29631999135017395 -0.258650004863739
-0.19251999258995056 -0.2941100001335144 -0.26034998893737793
-0.19160999357700348 -0.29194000363349915 -0.2620599865913391
-0.1903800070285797 -0.2899099886417389 -0.2637600004673004
-0.1995300054550171 -0.3152500092983246 -0.23847000300884247
-0.19896000623703003 -0.31327998638153076 -0.24053999781608582
-0.19808000326156616 -0.3113099932670593 -0.24251000583171844
-0.19734999537467957 -0.3095499873161316 -0.244719997048378
-0.1965000033378601 -0.3077999949455261 -0.24688999354839325
-0.19588999450206757 -0.305869996547699 -0.24898000061511993
-0.19555999338626862 -0.30379000306129456 -0.25099000334739685
-0.19495999813079834 -0.3021700084209442 -0.25332000851631165
-0.19363999366760254 -0.30059000849723816 -0.2553800046443939
-0.1921200007200241 -0.2989000082015991 -0.25718000531196594
-0.19112999737262726 -0.29697999358177185 -0.2591100037097931
-0.19033999741077423 -0.29478999972343445 -0.26085999608039856
-0.18941999971866608 -0.2925800085067749 -0.26252999901771545
-0.19674000144004822 -0.3140600025653839 -0.2411700040102005
-0.19599999487400055 -0.3122600018978119 -0.24334000051021576
-0.19513000547885895 -0.31029999256134033 -0.24532000720500946
-0.19425000250339508 -0.3084999918937683 -0.24744999408721924
-0.19372999668121338 -0.30667001008987427 -0.2496500015258789
-0.19345000386238098 -0.3046500086784363 -0.25172001123428345
-0.192780002951622 -0.3028799891471863 -0.253930002450943
-0.19142000377178192 -0.3012099862098694 -0.25589001178741455
-0.18995000422000885 -0.29958000779151917 -0.25780001282691956
-0.18894000351428986 -0.2975899875164032 -0.259660005569458
-0.18817000091075897 -0.29541000723838806 -0.2614099979400635
-0.1944900006055832 -0.3146899938583374 -0.2418300062417984
-0.19377000629901886 -0.3129099905490875 -0.24402999877929688
-0.1929199993610382 -0.3109700083732605 -0.2460400015115738
-0.19210000336170197 -0.3092600107192993 -0.24827000498771667
-0.19167999923229218 -0.3075200021266937 -0.2505800127983093
-0.1913599967956543 -0.3054400086402893 -0.2525799870491028
-0.1905899941921234 -0.30351001024246216 -0.25461000204086304
-0.18926000595092773 -0.30184999108314514 -0.2566100060939789
-0.1877399981021881 -0.3001199960708618 -0.25839000940322876
-0.18671000003814697 -0.29809001088142395 -0.26019999384880066
-0.19213999807834625 -0.3150700032711029 -0.24232999980449677
-0.19147999584674835 -0.31338998675346375 -0.24463999271392822
-0.19076000154018402 -0.31165000796318054 -0.24687999486923218
-0.19017000496387482 -0.3102099895477295 -0.24934999644756317
-0.1897599995136261 -0.308459997177124 -0.25165000557899475
-0.1893099993467331 -0.3062500059604645 -0.2534799873828888
-0.1884399950504303 -0.3041900098323822 -0.25532999634742737
-0.18700000643730164 -0.3023200035095215 -0.2570599913597107
-0.18549999594688416 -0.30059000849723816 -0.25887998938560486
-0.18916000425815582 -0.31380000710487366 -0.24521000683307648
-0.18860000371932983 -0.3123199939727783 -0.24767999351024628
-0.18828999996185303 -0.3113600015640259 -0.25049999356269836
-0.18791000545024872 -0.30959001183509827 -0.25286999344825745
-0.18727000057697296 -0.3071399927139282 -0.25440001487731934
-0.18616999685764313 -0.304749995470047 -0.2556999921798706
-0.1847199946641922 -0.302839994430542 -0.2574000060558319
-0.18686999380588531 -0.3143700063228607 -0.2457900047302246
-0.18633000552654266 -0.31286999583244324 -0.24823999404907227
-0.18583999574184418 -0.3115699887275696 -0.2508299946784973
-0.18544000387191772 -0.30970001220703125 -0.2530499994754791
-0.18485000729560852 -0.30722999572753906 -0.25450000166893005
-0.1838500052690506 -0.3050200045108795 -0.25613000988960266
-0.1839900016784668 -0.31321001052856445 -0.24865999817848206
-0.18341000378131866 -0.31130000948905945 -0.25077998638153076
-0.18302999436855316 -0.30928999185562134 -0.2528400123119354
-0.18161000311374664 -0.31356000900268555 -0.24895000457763672
-0.1809999942779541 -0.31154000759124756 -0.2509700059890747
-0.20674000680446625 -0.25473999977111816 -0.2852500081062317
-0.20473000407218933 -0.2554500102996826 -0.2858799993991852
POLYGONS 1067 4268
3 0 1 2
3 3 0 4
3 0 2 4
3 4 2 5
3 6 3 7
3 3 4 7
3 7 4 8
3 4 5 8
3 8 5 9
3 5 10 9
3 9 10 11
3 12 6 13
3 6 7 13
3 13 7 14
3 7 8 14
3 14 8 15
3 8 9 15
3 15 9 16
3 9 11 16
3 16 11 17
3 18 12 19
3 12 13 19
3 19 13 20
3 13 14 20
3 20 14 21
3 14 15 21
3 21 15 22
3 15 16 22
3 22 16 23
3 16 17 23
3 23 17 24
3 17 25 24
3 24 25 26
3 27 18 28
3 18 19 28
3 28 19 29
3 19 20 29
3 29 20 30
3 20 21 30
3 30 21 31
3 21 22 31
3 31 22 32
3 22 23 32
3 32 23 33
3 23 24 33
3 33 24 34
3 24 26 34
3 34 26 35
3 26 36 35
3 35 36 37
3 38 27 39
3 27 28 39
3 39 28 40
3 28 29 40
3 40 29 41
3 29 30 41
3 41 30 42
3 30 31 42
3 42 31 43
3 31 32 43
3 43 32 44
3 32 33 44
3 44 33 45
3 33 34 45
3 45 34 46
3 34 35 46
3 46 35 47
3 35 37 47
3 47 37 48
3 49 38 50
3 38 39 50
3 50 39 51
3 39 40 51
3 51 40 52
3 40 41 52
3 52 41 53
3 41 42 53
3 53 42 54
3 42 43 54
3 54 43 55
3 43 44 55
3 55 44 56
3 44 45 56
3 56 45 57
3 45 46 57
3 57 46 58
3 46 47 58
3 58 47 59
3 47 48 59
3 59 48 60
3 61 49 62
3 49 50 62
3 62 50 63
3 50 51 63
3 63 51 64
3 51 52 64
3 64 52 65
3 52 53 65
3 65 53 66
3 53 54 66
3 66 54 67
3 54 55 67
3 67 55 68
3 55 56 68
3 68 56 69
3 56 57 69
3 69 57 70
3 57 58 70
3 70 58 71
3 58 59 71
3 71 59 72
3 59 60 72
3 72 60 73
3 60 74 73
3 73 74 75
3 76 61 77
3 61 62 77
3 77 62 78
3 62 63 78
3 78 63 79
3 63 64 79
3 79 64 80
3 64 65 80
3 80 65 81
3 65 66 81
3 81 66 82
3 66 67 82
3 82 67 83
3 67 68 83
3 83 68 84
3 68 69 84
3 84 69 85
3 69 70 85
3 85 70 86
3 70 71 86
3 86 71 87
3 71 72 87
3 87 72 88
3 72 73 88
3 88 73 89
3 73 75 89
3 89 75 90
3 91 76 92
3 76 77 92
3 92 77 93
3 77 78 93
3 93 78 94
3 78 79 94
3 94 79 95
3 79 80 95
3 95 80 96
3 80 81 96
3 96 81 97
3 81 82 97
3 97 82 98
3 82 83 98
3 98 83 99
3 83 84 99
3 99 84 100
3 84 85 100
3 100 85 101
3 85 86 101
3 101 86 102
3 86 87 102
3 102 87 103
3 87 88 103
3 103 88 104
3 88 89 104
3 104 89 105
3 89 90 105
3 105 90 106
3 90 107 106
3 106 107 108
3 109 91 110
3 91 92 110
3 110 92 111
3 92 93 111
3 111 93 112
3 93 94 112
3 112 94 113
3 94 95 113
3 113 95 114
3 95 96 114
3 114 96 115
3 96 97 115
3 115 97 116
3 97 98 116
3 116 98 117
3 98 99 117
3 117 99 118
3 99 100 118
3 118 100 119
3 100 101 119
3 119 101 120
3 101 102 120
3 120 102 121
3 102 103 121
3 121 103 122
3 103 104 122
3 122 104 123
3 104 105 123
3 123 105 124
3 105 106 124
3 124 106 125
3 106 108 125
3 125 108 126
3 127 109 128
3 109 110 128
3 128 110 129
3 110 111 129
3 129 111 130
3 111 112 130
3 130 112 131
3 112 113 131
3 131 113 132
3 113 114 132
3 132 114 133
3 114 115 133
3 133 115 134
3 115 116 134
3 134 116 135
3 116 117 135
3 135 117 136
3 117 118 136
3 136 118 137
3 118 119 137
3 137 119 138
3 119 120 138
3 138 120 139
3 120 121 139
3 139 121 140
3 121 122 140
3 140 122 141
3 122 123 141
3 141 123 142
3 123 124 142
3 142 124 143
3 124 125 143
3 143 125 144
3 125 126 144
3 144 126 145
3 126 146 145
3 145 146 147
3 148 127 149
3 127 128 149
3 149 128 150
3 128 129 150
3 150 129 151
3 129 130 151
3 151 130 152
3 130 131 152
3 152 131 153
3 131 132 153
3 153 132 154
3 132 133 154
3 154 133 155
3 133 134 155
3 155 134 156
3 134 135 156
3 156 135 157
3 135 136 157
3 157 136 158
3 136 137 158
3 158 137 159
3 137 138 159
3 159 138 160
3 138 139 160
3 160 139 161
3 139 140 161
3 161 140 162
3 140 141 162
3 162 141 163
3 141 142 163
3 163 142 164
3 142 143 164
3 164 143 165
3 143 144 165
3 165 144 166
3 144 145 166
3 166 145 167
3 145 147 167
3 167 147 168
3 169 170 171
3 170 148 171
3 171 148 172
3 148 149 172
3 172 149 173
3 149 150 173
3 173 150 174
3 150 151 174
3 174 151 175
3 151 152 175
3 175 152 176
3 152 153 176
3 176 153 177
3 153 154 177
3 177 154 178
3 154 155 178
3 178 155 179
3 155 156 179
3 179 156 180
3 156 157 180
3 180 157 181
3 157 158 181
3 181 158 182
3 158 159 182
3 182 159 183
3 159 160 183
3 183 160 184
3 160 161 184
3 184 161 185
3 161 162 185
3 185 162 186
3 162 163 186
3 186 163 187
3 163 164 187
3 187 164 188
3 164 165 188
3 188 165 189
3 165 166 189
3 189 166 190
3 166 167 190
3 190 167 191
3 167 168 191
3 191 168 192
3 193 169 194
3 169 171 194
3 194 171 195
3 171 172 195
3 195 172 196
3 172 173 196
3 196 173 197
3 173 174 197
3 197 174 198
3 174 175 198
3 198 175 199
3 175 176 199
3 199 176 200
3 176 177 200
3 200 177 201
3 177 178 201
3 201 178 202
3 178 179 202
3 202 179 203
3 179 180 203
3 203 180 204
3 180 181 204
3 204 181 205
3 181 182 205
3 205 182 206
3 182 183 206
3 206 183 207
3 183 184 207
3 207 184 208
3 184 185 208
3 208 185 209
3 185 186 209
3 209 186 210
3 186 187 210
3 210 187 211
3 187 188 211
3 211 188 212
3 188 189 212
3 212 189 213
3 189 190 213
3 213 190 214
3 190 191 214
3 214 191 215
3 191 192 215
3 215 192 216
3 217 193 218
3 193 194 218
3 218 194 219
3 194 195 219
3 219 195 220
3 195 196 220
3 220 196 221
3 196 197 221
3 221 197 222
3 197 198 222
3 222 198 223
3 198 199 223
3 223 199 224
3 199 200 224
3 224 200 225
3 200 201 225
3 225 201 226
3 201 202 226
3 226 202 227
3 202 203 227
3 227 203 228
3 203 204 228
3 228 204 229
3 204 205 229
3 229 205 230
3 205 206 230
3 230 206 231
3 206 207 231
3 231 207 232
3 207 208 232
3 232 208 233
3 208 209 233
3 233 209 234
3 209 210 234
3 234 210 235
3 210 211 235
3 235 211 236
3 211 212 236
3 236 212 237
3 212 213 237
3 237 213 238
3 213 214 238
3 238 214 239
3 214 215 239
3 239 215 240
3 215 216 240
3 241 217 242
3 217 218 242
3 242 218 243
3 218 219 243
3 243 219 244
3 219 220 244
3 244 220 245
3 220 221 245
3 245 221 246
3 221 222 246
3 246 222 247
3 222 223 247
3 247 223 248
3 223 224 248
3 248 224 249
3 224 225 249
3 249 225 250
3 225 226 250
3 250 226 251
3 226 227 251
3 251 227 252
3 227 228 252
3 252 228 253
3 228 229 253
3 253 229 254
3 229 230 254
3 254 230 255
3 230 231 255
3 255 231 256
3 231 232 256
3 256 232 257
3 232 233 257
3 257 233 258
3 233 234 258
3 258 234 259
3 234 235 259
3 259 235 260
3 235 236 260
3 260 236 261
3 236 237 261
3 261 237 262
3 237 238 262
3 262 238 263
3 238 239 263
3 263 239 264
3 239 240 264
3 265 241 266
3 241 242 266
3 266 242 267
3 242 243 267
3 267 243 268
3 243 244 268
3 268 244 269
3 244 245 269
3 269 245 270
3 245 246 270
3 270 246 271
3 246 247 271
3 271 247 272
3 247 248 272
3 272 248 273
3 248 249 273
3 273 249 274
3 249 250 274
3 274 250 275
3 250 251 275
3 275 251 276
3 251 252 276
3 276 252 277
3 252 253 277
3 277 253 278
3 253 254 278
3 278 254 279
3 254 255 279
3 279 255 280
3 255 256 280
3 280 256 281
3 256 257 281
3 281 257 282
3 257 258 282
3 282 258 283
3 258 259 283
3 283 259 284
3 259 260 284
3 284 260 285
3 260 261 285
3 285 261 286
3 261 262 286
3 286 262 287
3 262 263 287
3 287 263 288
3 263 264 288
3 265 289 290
3 265 266 289
3 266 291 289
3 266 267 291
3 267 268 291
3 291 268 292
3 268 269 292
3 292 269 293
3 269 270 293
3 293 270 294
3 270 271 294
3 294 271 295
3 271 272 295
3 295 272 296
3 272 273 296
3 296 273 297
3 273 274 297
3 297 274 298
3 274 275 298
3 298 275 299
3 275 276 299
3 299 276 300
3 276 277 300
3 300 277 301
3 277 278 301
3 301 278 302
3 278 279 302
3 302 279 303
3 279 280 303
3 303 280 304
3 280 281 304
3 304 281 305
3 281 282 305
3 305 282 306
3 282 283 306
3 306 283 307
3 283 284 307
3 307 284 308
3 284 285 308
3 308 285 309
3 285 286 309
3 309 286 310
3 286 287 310
3 310 287 311
3 287 288 311
3 312 313 314
3 312 290 313
3 290 315 313
3 290 289 315
3 289 316 315
3 289 291 316
3 291 292 316
3 316 292 317
3 292 293 317
3 317 293 318
3 293 294 318
3 318 294 319
3 294 295 319
3 319 295 320
3 295 296 320
3 320 296 321
3 296 297 321
3 321 297 322
3 297 298 322
3 322 298 323
3 298 299 323
3 323 299 324
3 299 300 324
3 324 300 325
3 300 301 325
3 325 301 326
3 301 302 326
3 326 302 327
3 302 303 327
3 327 303 328
3 303 304 328
3 328 304 329
3 304 305 329
3 329 305 330
3 305 306 330
3 330 306 331
3 306 307 331
3 331 307 332
3 307 308 332
3 332 308 333
3 308 309 333
3 333 309 334
3 309 310 334
3 334 310 335
3 310 311 335
3 336 337 338
3 337 314 338
3 338 314 339
3 314 313 339
3 339 313 340
3 313 315 340
3 340 315 341
3 315 316 341
3 341 316 342
3 316 317 342
3 342 317 343
3 317 318 343
3 343 318 344
3 318 319 344
3 344 319 345
3 319 320 345
3 345 320 346
3 320 321 346
3 346 321 347
3 321 322 347
3 347 322 348
3 322 323 348
3 348 323 349
3 323 324 349
3 349 324 350
3 324 325 350
3 350 325 351
3 325 326 351
3 351 326 352
3 326 327 352
3 352 327 353
3 327 328 353
3 353 328 354
3 328 329 354
3 354 329 355
3 329 330 355
3 355 330 356
3 330 331 356
3 356 331 357
3 331 332 357
3 357 332 358
3 332 333 358
3 358 333 359
3 333 334 359
3 359 334 360
3 334 335 360
3 361 336 362
3 336 338 362
3 362 338 363
3 338 339 363
3 363 339 364
3 339 340 364
3 364 340 365
3 340 341 365
3 365 341 366
3 341 342 366
3 366 342 367
3 342 343 367
3 367 343 368
3 343 344 368
3 368 344 369
3 344 345 369
3 369 345 370
3 345 346 370
3 370 346 371
3 346 347 371
3 371 347 372
3 347 348 372
3 372 348 373
3 348 349 373
3 373 349 374
3 349 350 374
3 374 350 375
3 350 351 375
3 375 351 376
3 351 352 376
3 376 352 377
3 352 353 377
3 377 353 378
3 353 354 378
3 378 354 379
3 354 355 379
3 379 355 380
3 355 356 380
3 380 356 381
3 356 357 381
3 381 357 382
3 357 358 382
3 382 358 383
3 358 359 383
3 383 359 384
3 359 360 384
3 385 361 386
3 386 361 387
3 361 362 387
3 387 362 388
3 362 363 388
3 388 363 389
3 363 364 389
3 389 364 390
3 364 365 390
3 390 365 391
3 365 366 391
3 391 366 392
3 366 367 392
3 392 367 393
3 367 368 393
3 393 368 394
3 368 369 394
3 394 369 395
3 369 370 395
3 395 370 396
3 370 371 396
3 396 371 397
3 371 372 397
3 397 372 398
3 372 373 398
3 398 373 399
3 373 374 399
3 399 374 400
3 374 375 400
3 400 375 401
3 375 376 401
3 401 376 402
3 376 377 402
3 402 377 403
3 377 378 403
3 403 378 404
3 378 379 404
3 404 379 405
3 379 380 405
3 405 380 406
3 380 381 406
3 406 381 407
3 381 382 407
3 407 382 408
3 382 383 408
3 408 383 409
3 383 384 409
3 387 388 410
3 410 388 411
3 388 389 411
3 411 389 412
3 389 390 412
3 412 390 413
3 390 391 413
3 413 391 414
3 391 392 414
3 414 392 415
3 392 393 415
3 415 393 416
3 393 394 416
3 416 394 417
3 394 395 417
3 417 395 418
3 395 396 418
3 418 396 419
3 396 397 419
3 419 397 420
3 397 398 420
3 420 398 421
3 398 399 421
3 421 399 422
3 399 400 422
3 422 400 423
3 400 401 423
3 423 401 424
3 401 402 424
3 424 402 425
3 402 403 425
3 425 403 426
3 403 404 426
3 426 404 427
3 404 405 427
3 427 405 428
3 405 406 428
3 428 406 429
3 406 407 429
3 429 407 430
3 407 408 430
3 430 408 431
3 408 409 431
3 410 411 432
3 432 411 433
3 411 412 433
3 433 412 434
3 412 413 434
3 434 413 435
3 413 414 435
3 435 414 436
3 414 415 436
3 436 415 437
3 415 416 437
3 437 416 438
3 416 417 438
3 438 417 439
3 417 418 439
3 439 418 440
3 418 441 440
3 418 419 441
3 419 420 441
3 441 420 442
3 420 421 442
3 442 421 443
3 421 422 443
3 443 422 444
3 422 423 444
3 444 423 445
3 423 424 445
3 445 424 446
3 424 425 446
3 446 425 447
3 425 426 447
3 447 426 448
3 426 427 448
3 448 427 449
3 427 428 449
3 449 428 450
3 428 429 450
3 450 429 451
3 429 430 451
3 451 430 452
3 430 431 452
3 432 433 453
3 433 454 453
3 433 434 454
3 434 455 454
3 434 435 455
3 435 456 455
3 435 436 456
3 436 457 456
3 436 437 457
3 437 458 457
3 437 438 458
3 438 439 458
3 458 439 459
3 439 460 459
3 439 440 460
3 440 461 460
3 440 441 461
3 441 442 461
3 461 442 462
3 442 443 462
3 462 443 463
3 443 444 463
3 463 444 464
3 444 445 464
3 464 445 465
3 445 466 465
3 445 446 466
3 446 467 466
3 446 447 467
3 447 448 467
3 467 448 468
3 448 449 468
3 468 449 469
3 449 450 469
3 469 450 470
3 450 451 470
3 470 451 471
3 451 452 471
3 454 455 472
3 472 455 473
3 455 456 473
3 473 456 474
3 456 457 474
3 474 457 475
3 457 458 475
3 475 458 476
3 458 459 476
3 476 459 477
3 459 478 477
3 459 460 478
3 460 479 478
3 460 461 479
3 461 462 479
3 479 462 480
3 462 463 480
3 480 463 481
3 463 464 481
3 481 464 482
3 464 465 482
3 482 465 483
3 465 484 483
3 465 466 484
3 466 485 484
3 466 467 485
3 467 468 485
3 485 468 486
3 468 469 486
3 486 469 487
3 469 470 487
3 487 470 488
3 470 471 488
3 472 473 489
3 489 473 490
3 473 474 490
3 490 474 491
3 474 475 491
3 491 475 492
3 475 476 492
3 492 476 493
3 476 477 493
3 493 477 494
3 477 478 494
3 494 478 495
3 478 479 495
3 495 479 496
3 479 480 496
3 496 480 497
3 480 481 497
3 497 481 498
3 481 482 498
3 498 482 499
3 482 483 499
3 499 483 500
3 483 484 500
3 500 484 501
3 484 485 501
3 501 485 502
3 485 486 502
3 502 486 503
3 486 487 503
3 503 487 504
3 487 488 504
3 490 491 505
3 505 491 506
3 491 492 506
3 506 492 507
3 492 493 507
3 507 493 508
3 493 494 508
3 508 494 509
3 494 495 509
3 509 495 510
3 495 511 510
3 495 496 511
3 496 497 511
3 511 497 512
3 497 498 512
3 512 498 513
3 498 499 513
3 513 499 514
3 499 500 514
3 514 500 515
3 500 501 515
3 515 501 516
3 501 502 516
3 516 502 517
3 502 503 517
3 517 503 518
3 503 504 518
3 505 506 519
3 519 506 520
3 506 507 520
3 520 507 521
3 507 508 521
3 521 508 522
3 508 509 522
3 522 509 523
3 509 510 523
3 523 510 524
3 510 511 524
3 524 511 525
3 511 512 525
3 525 512 526
3 512 513 526
3 526 513 527
3 513 514 527
3 527 514 528
3 514 515 528
3 528 515 529
3 515 516 529
3 529 516 530
3 516 517 530
3 530 517 531
3 517 518 531
3 520 521 532
3 532 521 533
3 521 522 533
3 533 522 534
3 522 523 534
3 534 523 535
3 523 524 535
3 535 524 536
3 524 525 536
3 536 525 537
3 525 526 537
3 537 526 538
3 526 527 538
3 538 527 539
3 527 528 539
3 539 528 540
3 528 529 540
3 540 529 541
3 529 530 541
3 541 530 542
3 530 531 542
3 532 533 543
3 543 533 544
3 533 534 544
3 544 534 545
3 534 535 545
3 545 535 546
3 535 536 546
3 546 536 547
3 536 537 547
3 547 537 548
3 537 538 548
3 548 538 549
3 538 539 549
3 549 539 550
3 539 540 550
3 550 540 551
3 540 541 551
3 551 541 552
3 541 542 552
3 543 544 553
3 553 544 554
3 544 545 554
3 554 545 555
3 545 546 555
3 555 546 556
3 546 547 556
3 556 547 557
3 547 548 557
3 557 548 558
3 548 549 558
3 558 549 559
3 549 550 559
3 559 550 560
3 550 551 560
3 560 551 561
3 551 552 561
3 554 555 562
3 562 555 563
3 555 556 563
3 563 556 564
3 556 557 564
3 564 557 565
3 557 558 565
3 565 558 566
3 558 559 566
3 566 559 567
3 559 560 567
3 567 560 568
3 560 561 568
3 562 563 569
3 569 563 570
3 563 564 570
3 570 564 571
3 564 565 571
3 571 565 572
3 565 566 572
3 572 566 573
3 566 567 573
3 573 567 574
3 567 568 574
3 570 571 575
3 575 571 576
3 571 572 576
3 576 572 577
3 572 573 577
3 575 576 578
3 578 576 579
3 576 577 579
3 168 580 192
3 192 581 216
3 192 580 581

CELL_DATA 1067
SCALARS longitude float 1
LOOKUP_TABLE default
226.593994140625
226.91299438476562
226.80799865722656
226.91299438476562
227.23399353027344
227.1230010986328
227.22799682617188
227.1230010986328
227.2259979248047
227.12399291992188
227.23300170898438
227.58200073242188
227.45599365234375
227.55999755859375
227.4429931640625
227.5540008544922
227.4429931640625
227.5540008544922
227.4459991455078
227.56300354003906
227.94200134277344
227.81100463867188
227.91200256347656
227.78599548339844
227.88800048828125
227.7729949951172
227.88299560546875
227.77499389648438
227.88600158691406
227.78199768066406
227.89700317382812
227.79299926757812
227.90499877929688
228.30799865722656
228.1750030517578
228.27099609375
228.13999938964844
228.24000549316406
228.11399841308594
228.2169952392578
228.1009979248047
228.21299743652344
228.10499572753906
228.21600341796875
228.11199951171875
228.2259979248047
228.1230010986328
228.23300170898438
228.125
228.23300170898438
228.66799926757812
228.53900146484375
228.63800048828125
228.5030059814453
228.5989990234375
228.4669952392578
228.56700134277344
228.4429931640625
228.54600524902344
228.4320068359375
228.54200744628906
228.4340057373047
228.54200744628906
228.43800354003906
228.5500030517578
228.44700622558594
228.5570068359375
228.4510040283203
228.5590057373047
229.02200317382812
228.8979949951172
229.0019989013672
228.87100219726562
228.97000122070312
228.83200073242188
228.92799377441406
228.79400634765625
228.89500427246094
228.77099609375
228.87399291992188
228.75999450683594
228.8679962158203
228.75900268554688
228.86700439453125
228.76199340820312
228.87399291992188
228.77200317382812
228.88099670410156
228.77499389648438
228.88099670410156
229.3679962158203
229.24899291992188
229.35499572753906
229.23199462890625
229.33299255371094
229.20199584960938
229.29800415039062
229.16099548339844
229.25399780273438
229.12100219726562
229.22000122070312
229.0970001220703
229.197998046875
229.08399963378906
229.18899536132812
229.08099365234375
229.18699645996094
229.0850067138672
229.19400024414062
229.09300231933594
229.1959991455078
229.09100341796875
229.19200134277344
229.08200073242188
229.18499755859375
229.7010040283203
229.58999633789062
229.69500732421875
229.57899475097656
229.6840057373047
229.55999755859375
229.65899658203125
229.52699279785156
229.62100219726562
229.48500061035156
229.5749969482422
229.4429931640625
229.53900146484375
229.41700744628906
229.51400756835938
229.39999389648438
229.5030059814453
229.39700317382812
229.50100708007812
229.39999389648438
229.50799560546875
229.40499877929688
229.5050048828125
229.39700317382812
229.5030059814453
229.39999389648438
229.51199340820312
230.04100036621094
229.91600036621094
230.02999877929688
229.9199981689453
230.031005859375
229.91000366210938
230.01800537109375
229.88999938964844
229.99200439453125
229.85499572753906
229.95399475097656
229.80999755859375
229.90499877929688
229.76600646972656
229.86599731445312
229.73599243164062
229.83599853515625
229.7169952392578
229.8260040283203
229.71600341796875
229.82899475097656
229.7220001220703
229.83700561523438
229.7239990234375
229.83599853515625
229.72300720214844
229.84500122070312
229.73599243164062
229.8560028076172
229.73500061035156
229.84100341796875
230.4290008544922
230.2790069580078
230.37899780273438
230.2550048828125
230.3769989013672
230.26400756835938
230.3780059814453
230.2530059814453
230.36500549316406
230.23199462890625
230.33900451660156
230.197998046875
230.2989959716797
230.14999389648438
230.2469940185547
230.1009979248047
230.19900512695312
230.06300354003906
230.16799926757812
230.0489959716797
230.16700744628906
230.05599975585938
230.17599487304688
230.06399536132812
230.18499755859375
230.0709991455078
230.18899536132812
230.0749969482422
230.197998046875
230.08799743652344
230.20700073242188
230.08099365234375
230.18899536132812
230.82699584960938
230.67999267578125
230.7779998779297
230.6280059814453
230.73199462890625
230.60499572753906
230.7259979248047
230.61199951171875
230.7259979248047
230.60299682617188
230.71400451660156
230.58200073242188
230.68699645996094
230.5449981689453
230.64300537109375
230.4929962158203
230.58799743652344
230.43899536132812
230.53799438476562
230.4029998779297
230.51199340820312
230.39500427246094
230.51300048828125
230.40499877929688
230.52200317382812
230.41400146484375
230.5330047607422
230.42100524902344
230.53599548339844
230.42599487304688
230.54800415039062
230.43899536132812
230.55499267578125
230.43099975585938
230.53700256347656
230.39199829101562
230.48399353027344
231.2050018310547
231.0709991455078
231.177001953125
231.03199768066406
231.12899780273438
230.97900390625
231.0800018310547
230.95399475097656
231.0749969482422
230.96099853515625
231.0749969482422
230.9510040283203
231.05999755859375
230.927001953125
231.03199768066406
230.88900756835938
230.98899841308594
230.83700561523438
230.9340057373047
230.78399658203125
230.8820037841797
230.7449951171875
230.85299682617188
230.73800659179688
230.8560028076172
230.7480010986328
230.86500549316406
230.75799560546875
230.87600708007812
230.76600646972656
230.88099670410156
230.77200317382812
230.89199829101562
230.78399658203125
230.89999389648438
230.77699279785156
230.88099670410156
230.73300170898438
230.82400512695312
231.6199951171875
231.48199462890625
231.58200073242188
231.4429931640625
231.5500030517578
231.41799926757812
231.52200317382812
231.3769989013672
231.4720001220703
231.3249969482422
231.427001953125
231.30299377441406
231.4239959716797
231.30999755859375
231.42300415039062
231.2969970703125
231.406005859375
231.2740020751953
231.3800048828125
231.23800659179688
231.33599853515625
231.1840057373047
231.2779998779297
231.125
231.2209930419922
231.08599853515625
231.19400024414062
231.0800018310547
231.19700622558594
231.08999633789062
231.20700073242188
231.10000610351562
231.218994140625
231.11000061035156
231.2239990234375
231.11500549316406
231.23399353027344
231.1269989013672
231.23899841308594
231.11599731445312
231.21600341796875
231.07200622558594
231.16200256347656
231.97900390625
231.85400390625
231.96099853515625
231.8260040283203
231.91799926757812
231.781005859375
231.88499450683594
231.75799560546875
231.85699462890625
231.7169952392578
231.80799865722656
231.66600036621094
231.76699829101562
231.6490020751953
231.7689971923828
231.656005859375
231.76699829101562
231.64300537109375
231.75100708007812
231.6199951171875
231.72300720214844
231.58200073242188
231.677001953125
231.52499389648438
231.61500549316406
231.46400451660156
231.55799865722656
231.4239959716797
231.52999877929688
231.41799926757812
231.5330047607422
231.4290008544922
231.54400634765625
231.4409942626953
231.5570068359375
231.4499969482422
231.56199645996094
231.4550018310547
231.57000732421875
231.46099853515625
231.56199645996094
231.44000244140625
231.5330047607422
231.39999389648438
231.49200439453125
232.33900451660156
232.2100067138672
232.31100463867188
232.18699645996094
232.27699279785156
232.14199829101562
232.218994140625
232.09800720214844
232.19400024414062
232.0800018310547
232.17999267578125
232.0489959716797
232.14500427246094
232.00599670410156
232.11199951171875
231.9929962158203
232.11199951171875
232.0
232.10899353027344
231.98500061035156
232.08999633789062
231.95899963378906
232.06100463867188
231.9199981689453
232.01300048828125
231.86000061035156
231.947998046875
231.7969970703125
231.88900756835938
231.75599670410156
231.86000061035156
231.74899291992188
231.86199951171875
231.76100158691406
231.87399291992188
231.7740020751953
231.88699340820312
231.78199768066406
231.89100646972656
231.78500366210938
231.89300537109375
231.7790069580078
231.875
231.7519989013672
231.8509979248047
231.72500610351562
232.72000122070312
232.572998046875
232.67599487304688
232.54200744628906
232.63400268554688
232.4929962158203
232.55799865722656
232.41900634765625
232.48899841308594
232.38499450683594
232.48899841308594
232.39700317382812
232.51300048828125
232.39300537109375
232.5
232.35800170898438
232.468994140625
232.3419952392578
232.46600341796875
232.34500122070312
232.45899963378906
232.32699584960938
232.43899536132812
232.30299377441406
232.41200256347656
232.26300048828125
232.36099243164062
232.19900512695312
232.29400634765625
232.13499450683594
232.23399353027344
232.0919952392578
232.2030029296875
232.08399963378906
232.2050018310547
232.0959930419922
232.21800231933594
232.10899353027344
232.23199462890625
232.1179962158203
232.23399353027344
232.11500549316406
232.23300170898438
232.10699462890625
232.218994140625
232.08599853515625
233.1320037841797
232.97300720214844
233.0659942626953
232.91600036621094
233.02000427246094
232.8719940185547
232.95899963378906
232.78599548339844
232.86199951171875
232.70399475097656
232.8070068359375
232.6959991455078
232.8300018310547
232.74000549316406
232.87100219726562
232.7519989013672
232.86399841308594
232.72300720214844
232.83599853515625
232.70599365234375
232.83099365234375
232.7050018310547
232.82200622558594
232.68699645996094
232.8040008544922
232.6649932861328
232.77699279785156
232.6230010986328
232.72300720214844
232.55599975585938
232.6529998779297
232.49000549316406
232.5919952392578
232.44700622558594
232.56199645996094
232.44000244140625
232.56500244140625
232.45199584960938
232.5780029296875
232.46600341796875
232.59100341796875
232.47300720214844
232.5919952392578
232.4720001220703
232.59100341796875
232.46499633789062
233.51199340820312
233.36900329589844
233.44700622558594
233.3040008544922
233.2689971923828
233.37899780273438
233.2169952392578
233.3179931640625
233.13699340820312
233.24000549316406
233.06900024414062
233.1929931640625
233.06500244140625
233.21299743652344
233.10800170898438
233.24400329589844
233.1179962158203
233.23199462890625
233.08999633789062
233.1999969482422
233.07200622558594
233.1929931640625
233.06900024414062
233.1820068359375
233.05099487304688
233.1649932861328
233.02999877929688
233.13800048828125
232.98500061035156
233.08299255371094
232.91799926757812
233.01300048828125
232.85000610351562
232.9499969482422
232.8070068359375
232.92100524902344
232.80099487304688
232.9250030517578
232.81399536132812
232.93800354003906
232.82699584960938
232.9510040283203
232.83399963378906
232.9510040283203
232.82899475097656
233.9429931640625
233.7989959716797
233.8800048828125
233.73599243164062
233.81500244140625
233.66900634765625
233.63499450683594
233.7469940185547
233.59100341796875
233.68899536132812
233.52000427246094
233.6060028076172
233.4499969482422
233.55499267578125
233.44500732421875
233.57400512695312
233.47799682617188
233.6020050048828
233.48199462890625
233.58799743652344
233.447998046875
233.55299377441406
233.427001953125
233.54299926757812
233.42300415039062
233.52999877929688
233.4040069580078
233.50999450683594
233.3800048828125
233.48399353027344
233.33999633789062
233.43600463867188
233.27499389648438
233.36700439453125
233.2050018310547
233.30299377441406
233.16200256347656
233.2740020751953
233.15699768066406
233.2779998779297
233.1699981689453
233.29100036621094
233.18299865722656
233.302001953125
233.18699645996094
234.41099548339844
234.24899291992188
234.34800720214844
234.18600463867188
234.28500366210938
234.1230010986328
234.22000122070312
234.0570068359375
234.1529998779297
234.0
234.1060028076172
233.9510040283203
234.04200744628906
233.86700439453125
233.94200134277344
233.78599548339844
233.87899780273438
233.77699279785156
233.89700317382812
233.8179931640625
233.94000244140625
233.83099365234375
233.93299865722656
233.7949981689453
233.89300537109375
233.76800537109375
233.8780059814453
233.76100158691406
233.86300659179688
233.73899841308594
233.83999633789062
233.71499633789062
233.822998046875
233.68699645996094
233.7830047607422
233.62399291992188
233.71400451660156
233.5540008544922
233.64999389648438
233.51100158691406
233.6199951171875
233.5050048828125
233.62399291992188
233.51699829101562
233.63600158691406
233.5290069580078
234.8260040283203
234.66700744628906
234.76499938964844
234.60699462890625
234.7030029296875
234.54200744628906
234.63800048828125
234.47799682617188
234.57200622558594
234.41099548339844
234.50399780273438
234.35299682617188
234.4550018310547
234.3000030517578
234.38800048828125
234.2050018310547
234.2760009765625
234.1060028076172
234.20199584960938
234.093994140625
234.22500610351562
234.14999389648438
234.27999877929688
234.1719970703125
234.2740020751953
234.13299560546875
234.22799682617188
234.09800720214844
234.20399475097656
234.0850067138672
234.18800354003906
234.06700134277344
234.17799377441406
234.05799865722656
234.1739959716797
234.03500366210938
234.13299560546875
233.9709930419922
234.06199645996094
233.9010009765625
233.99600219726562
233.8560028076172
233.96600341796875
233.8489990234375
233.96800231933594
233.86099243164062
235.14100646972656
235.23199462890625
235.0780029296875
235.1719970703125
235.01800537109375
235.11700439453125
234.95899963378906
235.05299377441406
234.89199829101562
234.98599243164062
234.82699584960938
234.91900634765625
234.75799560546875
234.85000610351562
234.697998046875
234.7989959716797
234.6439971923828
234.72999572753906
234.5449981689453
234.61500549316406
234.4409942626953
234.53799438476562
234.4290008544922
234.56399536132812
234.48899841308594
234.6199951171875
234.51300048828125
234.61500549316406
234.4709930419922
234.56700134277344
234.4290008544922
234.53900146484375
234.41600036621094
234.531005859375
234.41400146484375
234.53199768066406
234.41200256347656
234.5229949951172
234.3820037841797
234.4770050048828
234.31900024414062
234.40899658203125
234.24899291992188
234.343994140625
234.20199584960938
234.31100463867188
234.19400024414062
235.42999267578125
235.53399658203125
235.375
235.47799682617188
235.31399536132812
235.41099548339844
235.24400329589844
235.3419952392578
235.177001953125
235.2729949951172
235.10699462890625
235.20199584960938
235.04600524902344
235.15199279785156
234.99099731445312
235.08200073242188
234.89100646972656
234.96600341796875
234.78700256347656
234.88900756835938
234.7740020751953
234.91400146484375
234.8350067138672
234.97000122070312
234.85800170898438
234.96299743652344
234.8159942626953
234.91600036621094
234.77699279785156
234.88999938964844
234.76699829101562
234.87399291992188
234.75599670410156
234.86099243164062
234.7469940185547
234.84800720214844
234.718994140625
234.81199645996094
234.66099548339844
234.7480010986328
234.59300231933594
234.6840057373047
234.5449981689453
235.7989959716797
235.9040069580078
235.74200439453125
235.84300231933594
235.677001953125
235.7740020751953
235.6060028076172
235.70599365234375
235.53900146484375
235.63699340820312
235.4669952392578
235.56500244140625
235.40499877929688
235.51400756835938
235.3509979248047
235.44400024414062
235.37100219726562
235.20700073242188
235.14599609375
235.25
235.13299560546875
235.2740020751953
235.19000244140625
235.32699584960938
235.21200561523438
235.32000732421875
235.17100524902344
235.26400756835938
235.1230010986328
235.21299743652344
235.08700561523438
235.1699981689453
235.06199645996094
235.1649932861328
235.0659942626953
235.1750030517578
235.0500030517578
235.14599609375
234.9949951171875
235.08399963378906
234.9290008544922
236.1510009765625
236.23300170898438
236.08599853515625
236.16200256347656
236.01600646972656
236.08900451660156
235.94700622558594
236.0240020751953
235.8820037841797
235.95599365234375
235.80999755859375
235.77200317382812
235.88299560546875
235.84100341796875
235.68800354003906
235.74000549316406
235.57200622558594
235.51199340820312
235.6179962158203
235.4969940185547
235.63800048828125
235.55099487304688
235.69200134277344
235.5749969482422
235.68499755859375
235.64100646972656
235.4929962158203
235.55999755859375
235.42100524902344
235.38999938964844
235.4969940185547
235.38099670410156
235.51199340820312
235.40499877929688
235.531005859375
235.39599609375
235.5030059814453
235.34300231933594
236.40699768066406
236.50100708007812
236.32899475097656
236.41799926757812
236.25599670410156
236.3520050048828
236.19500732421875
236.2949981689453
236.14300537109375
236.25399780273438
236.21299743652344
236.06100463867188
236.11099243164062
235.94400024414062
235.8820037841797
235.98699951171875
235.86399841308594
236.00399780273438
235.91799926757812
236.0590057373047
235.9429931640625
236.05299377441406
236.01100158691406
235.85699462890625
235.927001953125
235.7779998779297
235.7469940185547
235.86700439453125
235.7480010986328
235.88499450683594
235.77499389648438
235.9040069580078
235.76699829101562
236.76600646972656
236.85499572753906
236.6790008544922
236.77200317382812
236.60800170898438
236.71099853515625
236.55499267578125
236.6580047607422
236.50900268554688
236.61700439453125
236.45700073242188
236.54800415039062
236.3560028076172
236.43099975585938
236.2480010986328
236.3489990234375
236.2270050048828
236.36500549316406
236.28199768066406
236.42300415039062
236.30999755859375
236.41700744628906
236.2550048828125
236.34500122070312
236.17100524902344
236.26800537109375
236.11900329589844
236.23399353027344
236.11900329589844
236.2530059814453
236.14700317382812
237.0399932861328
237.1320037841797
236.96600341796875
237.06700134277344
236.91400146484375
237.01600646972656
236.86900329589844
236.9770050048828
236.81700134277344
236.91000366210938
236.83700561523438
236.6719970703125
236.60800170898438
236.70899963378906
236.58700561523438
236.72300720214844
236.63999938964844
236.77699279785156
236.66700744628906
236.77200317382812
236.61199951171875
236.70199584960938
236.52999877929688
236.62600708007812
236.47900390625
236.59300231933594
236.4810028076172
237.3990020751953
237.49000549316406
237.322998046875
237.427001953125
237.2740020751953
237.3780059814453
237.22900390625
237.33799743652344
237.1790008544922
237.27099609375
237.07899475097656
237.1540069580078
236.97000122070312
237.07000732421875
236.94500732421875
237.0780029296875
236.9929962158203
237.13099670410156
237.02000427246094
237.1280059814453
236.968994140625
237.05999755859375
236.88800048828125
236.98399353027344
236.83700561523438
237.68299865722656
237.78399658203125
237.63299560546875
237.73399353027344
237.58799743652344
237.69500732421875
237.53700256347656
237.6280059814453
237.43699645996094
237.51100158691406
237.3280029296875
237.42599487304688
237.30099487304688
237.43299865722656
237.34800720214844
237.48500061035156
237.37600708007812
237.48300170898438
237.3249969482422
237.41400146484375
237.2449951171875
238.03399658203125
238.13299560546875
237.98399353027344
238.0850067138672
237.94200134277344
238.0469970703125
237.89199829101562
237.97900390625
237.78900146484375
237.86099243164062
237.68099975585938
237.77699279785156
237.6540069580078
237.7830047607422
237.6999969482422
237.83599853515625
237.72799682617188
237.83299255371094
237.677001953125
238.37899780273438
238.4770050048828
238.33099365234375
238.42999267578125
238.28900146484375
238.39100646972656
238.23599243164062
238.31900024414062
238.13299560546875
238.20399475097656
238.0279998779297
238.125
238.0030059814453
238.1320037841797
238.04800415039062
238.18499755859375
238.07699584960938
238.6739959716797
238.7740020751953
238.63099670410156
238.73399353027344
238.5760040283203
238.66099548339844
238.4739990234375
238.5500030517578
238.37600708007812
238.4770050048828
238.35400390625
238.48599243164062
238.39999389648438
239.02099609375
239.1230010986328
238.97799682617188
239.08200073242188
238.9219970703125
239.00599670410156
238.82000732421875
238.8939971923828
238.72500610351562
238.82200622558594
238.70599365234375
239.3260040283203
239.41600036621094
239.25599670410156
239.32200622558594
239.14599609375
239.66099548339844
239.7530059814453
239.57400512695312
231.03599548339844
231.37899780273438
231.16099548339844
SCALARS latitude float 1
LOOKUP_TABLE default
-36.69200134277344
-36.494998931884766
-36.67300033569336
-36.83599853515625
-36.29999923706055
-36.479000091552734
-36.641998291015625
-36.82099914550781
-36.98500061035156
-37.16400146484375
-37.32899856567383
-36.0880012512207
-36.275001525878906
-36.42900085449219
-36.617000579833984
-36.77199935913086
-36.96099853515625
-37.117000579833984
-37.305999755859375
-37.46099853515625
-35.87099838256836
-36.055999755859375
-36.2130012512207
-36.39899826049805
-36.55799865722656
-36.74300003051758
-36.902000427246094
-37.0880012512207
-37.24700164794922
-37.43199920654297
-37.59000015258789
-37.7760009765625
-37.93600082397461
-35.65399932861328
-35.840999603271484
-35.999000549316406
-36.185001373291016
-36.34400177001953
-36.53099822998047
-36.689998626708984
-36.875999450683594
-37.0359992980957
-37.22100067138672
-37.380001068115234
-37.564998626708984
-37.724998474121094
-37.9109992980957
-38.071998596191406
-38.257999420166016
-38.41999816894531
-35.433998107910156
-35.624000549316406
-35.78300094604492
-35.97100067138672
-36.130001068115234
-36.31700134277344
-36.47700119018555
-36.66400146484375
-36.82400131225586
-37.00899887084961
-37.16999816894531
-37.35499954223633
-37.516998291015625
-37.70199966430664
-37.8650016784668
-38.04999923706055
-38.2140007019043
-38.39899826049805
-38.5629997253418
-35.2130012512207
-35.40299987792969
-35.5629997253418
-35.75299835205078
-35.9119987487793
-36.10200119018555
-36.262001037597656
-36.45000076293945
-36.61000061035156
-36.79800033569336
-36.957000732421875
-37.14400100708008
-37.30400085449219
-37.492000579833984
-37.65399932861328
-37.84199905395508
-38.00400161743164
-38.191001892089844
-38.35499954223633
-38.54199981689453
-38.70600128173828
-34.99300003051758
-35.18299865722656
-35.345001220703125
-35.534000396728516
-35.69599914550781
-35.88399887084961
-36.047000885009766
-36.23500061035156
-36.39899826049805
-36.584999084472656
-36.749000549316406
-36.933998107910156
-37.09700012207031
-37.28099822998047
-37.44599914550781
-37.63100051879883
-37.79800033569336
-37.983001708984375
-38.150001525878906
-38.334999084472656
-38.50299835205078
-38.6870002746582
-38.856998443603516
-39.040000915527344
-39.207000732421875
-34.77899932861328
-34.96699905395508
-35.13199996948242
-35.31999969482422
-35.48500061035156
-35.672000885009766
-35.83700180053711
-36.02399826049805
-36.18899917602539
-36.375999450683594
-36.54199981689453
-36.72800064086914
-36.893001556396484
-37.07699966430664
-37.24399948120117
-37.428001403808594
-37.59600067138672
-37.78099822998047
-37.94900131225586
-38.13399887084961
-38.301998138427734
-38.48699951171875
-38.65700149536133
-38.84299850463867
-39.01499938964844
-39.19599914550781
-39.358001708984375
-34.553001403808594
-34.749000549316406
-34.90800094604492
-35.10300064086914
-35.2599983215332
-35.45399856567383
-35.61199951171875
-35.80699920654297
-35.9640007019043
-36.15999984741211
-36.31800079345703
-36.51300048828125
-36.67100143432617
-36.8650016784668
-37.02299880981445
-37.21699905395508
-37.375999450683594
-37.57099914550781
-37.72999954223633
-37.92399978637695
-38.08399963378906
-38.277000427246094
-38.4370002746582
-38.63199996948242
-38.79399871826172
-38.99100112915039
-39.14799880981445
-39.33399963378906
-39.48400115966797
-39.667999267578125
-39.82600021362305
-34.31100082397461
-34.51100158691406
-34.665000915527344
-34.867000579833984
-35.01900100708008
-35.21799850463867
-35.36899948120117
-35.569000244140625
-35.72100067138672
-35.922000885009766
-36.07400131225586
-36.275001525878906
-36.426998138427734
-36.62799835205078
-36.779998779296875
-36.97999954223633
-37.132999420166016
-37.33399963378906
-37.48699951171875
-37.6879997253418
-37.8390007019043
-38.040000915527344
-38.191001892089844
-38.39400100708008
-38.54499816894531
-38.75
-38.9010009765625
-39.10200119018555
-39.25
-39.44599914550781
-39.595001220703125
-39.79100036621094
-39.94300079345703
-34.06999969482422
-34.266998291015625
-34.422000885009766
-34.619998931884766
-34.77799987792969
-34.974998474121094
-35.13100051879883
-35.32600021362305
-35.481998443603516
-35.676998138427734
-35.83300018310547
-36.029998779296875
-36.18600082397461
-36.382999420166016
-36.53799819946289
-36.73500061035156
-36.88999938964844
-37.08700180053711
-37.24399948120117
-37.44200134277344
-37.597999572753906
-37.792999267578125
-37.948001861572266
-38.14500045776367
-38.30099868774414
-38.499000549316406
-38.65599822998047
-38.85300064086914
-39.00899887084961
-39.20500183105469
-39.361000061035156
-39.55500030517578
-39.71200180053711
-39.90399932861328
-40.0620002746582
-40.25299835205078
-40.4109992980957
-33.823001861572266
-34.025001525878906
-34.178001403808594
-34.37799835205078
-34.529998779296875
-34.73099899291992
-34.88600158691406
-35.0880012512207
-35.24100112915039
-35.439998626708984
-35.59199905395508
-35.790000915527344
-35.94300079345703
-36.143001556396484
-36.29600143432617
-36.494998931884766
-36.64699935913086
-36.84600067138672
-37.0
-37.20100021362305
-37.35599899291992
-37.55500030517578
-37.70899963378906
-37.90700149536133
-38.06399917602539
-38.26100158691406
-38.41899871826172
-38.61600112915039
-38.77399826049805
-38.970001220703125
-39.12799835205078
-39.323001861572266
-39.483001708984375
-39.676998138427734
-39.83700180053711
-40.02799987792969
-40.18899917602539
-40.38100051879883
-40.54100036621094
-33.215999603271484
-33.417999267578125
-33.569000244140625
-33.77199935913086
-33.92599868774414
-34.12900161743164
-34.28200149536133
-34.483001708984375
-34.6349983215332
-34.83700180053711
-34.992000579833984
-35.19499969482422
-35.34700012207031
-35.54499816894531
-35.69599914550781
-35.895999908447266
-36.04899978637695
-36.25
-36.40399932861328
-36.60200119018555
-36.75600051879883
-36.95500183105469
-37.111000061035156
-37.31100082397461
-37.465999603271484
-37.66600036621094
-37.823001861572266
-38.02299880981445
-38.18000030517578
-38.37900161743164
-38.5369987487793
-38.73500061035156
-38.89400100708008
-39.090999603271484
-39.250999450683594
-39.448001861572266
-39.60900115966797
-39.80400085449219
-39.96500015258789
-40.15800094604492
-40.32099914550781
-40.51300048828125
-40.67399978637695
-32.970001220703125
-33.16899871826172
-33.32600021362305
-33.52399826049805
-33.680999755859375
-33.880001068115234
-34.03900146484375
-34.237998962402344
-34.395999908447266
-34.59199905395508
-34.750999450683594
-34.94900131225586
-35.108001708984375
-35.30400085449219
-35.45899963378906
-35.65299987792969
-35.80799865722656
-36.005001068115234
-36.16299819946289
-36.36199951171875
-36.52000045776367
-36.715999603271484
-36.875
-37.07099914550781
-37.231998443603516
-37.426998138427734
-37.5880012512207
-37.784000396728516
-37.94499969482422
-38.141998291015625
-38.30400085449219
-38.5
-38.66299819946289
-38.85900115966797
-39.02299880981445
-39.21799850463867
-39.382999420166016
-39.57699966430664
-39.74300003051758
-39.93600082397461
-40.10300064086914
-40.29499816894531
-40.46099853515625
-40.64899826049805
-40.81100082397461
-32.73099899291992
-32.93000030517578
-33.09000015258789
-33.2869987487793
-33.446998596191406
-33.643001556396484
-33.80400085449219
-34.000999450683594
-34.16400146484375
-34.36000061035156
-34.52000045776367
-34.71500015258789
-34.87300109863281
-35.069000244140625
-35.22600173950195
-35.41999816894531
-35.57500076293945
-35.76900100708008
-35.926998138427734
-36.125
-36.2869987487793
-36.48400115966797
-36.64500045776367
-36.840999603271484
-37.005001068115234
-37.20000076293945
-37.36399841308594
-37.555999755859375
-37.72100067138672
-37.91400146484375
-38.08100128173828
-38.27399826049805
-38.44200134277344
-38.6349983215332
-38.803001403808594
-38.99599838256836
-39.165000915527344
-39.356998443603516
-39.527000427246094
-39.71900177001953
-39.88800048828125
-40.07899856567383
-40.250999450683594
-40.441001892089844
-40.611000061035156
-40.792999267578125
-32.48500061035156
-32.6879997253418
-32.84299850463867
-33.047000885009766
-33.20000076293945
-33.402000427246094
-33.551998138427734
-33.757999420166016
-33.91400146484375
-34.124000549316406
-34.27899932861328
-34.47999954223633
-34.62300109863281
-34.823001861572266
-34.9630012512207
-35.16999816894531
-35.31100082397461
-35.520999908447266
-35.66400146484375
-35.875999450683594
-36.02199935913086
-36.23500061035156
-36.382999420166016
-36.59700012207031
-36.74599838256836
-36.95899963378906
-37.108001708984375
-37.319000244140625
-37.46799850463867
-37.678001403808594
-37.827999114990234
-38.03900146484375
-38.191001892089844
-38.4010009765625
-38.55400085449219
-38.763999938964844
-38.91899871826172
-39.12699890136719
-39.28200149536133
-39.4900016784668
-39.64699935913086
-39.85300064086914
-40.0099983215332
-40.21699905395508
-40.375999450683594
-40.58000183105469
-32.22600173950195
-32.433998107910156
-32.58399963378906
-32.79199981689453
-32.94300079345703
-33.14799880981445
-33.28799819946289
-33.48899841308594
-33.632999420166016
-33.85200119018555
-34.007999420166016
-34.224998474121094
-34.369998931884766
-34.56800079345703
-34.70000076293945
-34.895999908447266
-35.0260009765625
-35.23400115966797
-35.36800003051758
-35.58700180053711
-35.724998474121094
-35.948001861572266
-36.0880012512207
-36.31100082397461
-36.452999114990234
-36.67499923706055
-36.81700134277344
-37.03799819946289
-37.18000030517578
-37.39899826049805
-37.54100036621094
-37.76100158691406
-37.90399932861328
-38.124000549316406
-38.27000045776367
-38.4900016784668
-38.63800048828125
-38.856998443603516
-39.005001068115234
-39.22200012207031
-39.37099838256836
-39.5880012512207
-39.737998962402344
-39.95399856567383
-40.10499954223633
-40.31999969482422
-32.16699981689453
-32.27199935913086
-32.52799987792969
-32.632999420166016
-32.87200164794922
-33.007999420166016
-33.220001220703125
-33.35300064086914
-33.564998626708984
-33.709999084472656
-33.933998107910156
-34.084999084472656
-34.30400085449219
-34.44499969482422
-34.643001556396484
-34.770999908447266
-34.95899963378906
-35.09000015258789
-35.29199981689453
-35.435001373291016
-35.64899826049805
-35.797000885009766
-36.013999938964844
-36.16400146484375
-36.380001068115234
-36.529998779296875
-36.744998931884766
-36.895999908447266
-37.10900115966797
-37.25899887084961
-37.47100067138672
-37.61899948120117
-37.83300018310547
-37.98400115966797
-38.20100021362305
-38.35300064086914
-38.56999969482422
-38.722999572753906
-38.93899917602539
-39.09299850463867
-39.30799865722656
-39.46200180053711
-39.67599868774414
-39.83100128173828
-40.04399871826172
-31.84600067138672
-31.95400047302246
-32.20899963378906
-32.316001892089844
-32.57099914550781
-32.678001403808594
-32.91899871826172
-33.05500030517578
-33.27799987792969
-33.41400146484375
-33.63399887084961
-33.77299880981445
-34.0
-34.141998291015625
-34.36800003051758
-34.49800109863281
-34.70399856567383
-34.83000183105469
-35.02899932861328
-35.17100143432617
-35.375999450683594
-35.53099822998047
-35.73899841308594
-35.89799880981445
-36.106998443603516
-36.266998291015625
-36.4739990234375
-36.6349983215332
-36.840999603271484
-37.0
-37.20399856567383
-37.358001708984375
-37.56100082397461
-37.71500015258789
-37.92399978637695
-38.082000732421875
-38.29399871826172
-38.452999114990234
-38.665000915527344
-38.82500076293945
-39.0369987487793
-39.19599914550781
-39.40700149536133
-39.56700134277344
-39.777000427246094
-31.315000534057617
-31.525999069213867
-31.677000045776367
-31.888999938964844
-32.04100036621094
-32.25299835205078
-32.40599822998047
-32.61600112915039
-32.76900100708008
-32.97999954223633
-33.1349983215332
-33.345001220703125
-33.499000549316406
-33.70600128173828
-33.85499954223633
-34.06399917602539
-34.21500015258789
-34.42300033569336
-34.569000244140625
-34.77000045776367
-34.92100143432617
-35.124000549316406
-35.284000396728516
-35.48699951171875
-35.6510009765625
-35.854000091552734
-36.020999908447266
-36.2239990234375
-36.39099884033203
-36.59400177001953
-36.762001037597656
-36.96200180053711
-37.124000549316406
-37.316001892089844
-37.470001220703125
-37.66600036621094
-37.82400131225586
-38.029998779296875
-38.19200134277344
-38.402000427246094
-38.56399917602539
-38.775001525878906
-38.9379997253418
-39.14799880981445
-39.31100082397461
-39.51900100708008
-31.06599998474121
-31.263999938964844
-31.420000076293945
-31.621999740600586
-31.780000686645508
-31.98699951171875
-32.145999908447266
-32.35300064086914
-32.512001037597656
-32.71699905395508
-32.87699890136719
-33.08300018310547
-33.24399948120117
-33.44900131225586
-33.608001708984375
-33.805999755859375
-33.959999084472656
-34.159000396728516
-34.316001892089844
-34.516998291015625
-34.67499923706055
-34.87699890136719
-35.040000915527344
-35.24399948120117
-35.40800094604492
-35.61199951171875
-35.7760009765625
-35.98099899291992
-36.14699935913086
-36.35300064086914
-36.518001556396484
-36.724998474121094
-36.887001037597656
-37.08599853515625
-37.233001708984375
-37.42499923706055
-37.571998596191406
-37.775001525878906
-37.92900085449219
-38.13999938964844
-38.29800033569336
-38.51300048828125
-38.67300033569336
-38.88800048828125
-39.04800033569336
-39.262001037597656
-30.68899917602539
-30.85099983215332
-31.03499984741211
-31.18899917602539
-31.37700080871582
-31.5310001373291
-31.731000900268555
-31.892000198364258
-32.0989990234375
-32.2599983215332
-32.465999603271484
-32.62799835205078
-32.83300018310547
-32.994998931884766
-33.20000076293945
-33.36399841308594
-33.566001892089844
-33.72700119018555
-33.922000885009766
-34.07699966430664
-34.27199935913086
-34.430999755859375
-34.632999420166016
-34.79600143432617
-35.0
-35.16600036621094
-35.369998931884766
-35.53499984741211
-35.73699951171875
-35.9010009765625
-36.10499954223633
-36.27299880981445
-36.47999954223633
-36.64699935913086
-36.847999572753906
-36.99599838256836
-37.18199920654297
-37.31800079345703
-37.51499938964844
-37.6619987487793
-37.87300109863281
-38.027000427246094
-38.242000579833984
-38.39899826049805
-38.61600112915039
-38.7760009765625
-38.99300003051758
-31.149999618530273
-31.284000396728516
-31.476999282836914
-31.624000549316406
-31.836999893188477
-31.990999221801758
-32.207000732421875
-32.361000061035156
-32.57500076293945
-32.729000091552734
-32.944000244140625
-33.097999572753906
-33.3129997253418
-33.46799850463867
-33.67900085449219
-33.83100128173828
-34.03300094604492
-34.18000030517578
-34.382999420166016
-34.5369987487793
-34.74800109863281
-34.904998779296875
-35.11899948120117
-35.277000427246094
-35.48899841308594
-35.645999908447266
-35.85499954223633
-36.013999938964844
-36.22700119018555
-36.391998291015625
-36.60499954223633
-36.75699996948242
-36.946998596191406
-37.07899856567383
-37.263999938964844
-37.40700149536133
-37.608001708984375
-37.76900100708008
-37.97700119018555
-38.14099884033203
-38.3489990234375
-38.51499938964844
-38.724998474121094
-31.215999603271484
-31.341999053955078
-31.555999755859375
-31.70199966430664
-31.92300033569336
-32.06999969482422
-32.29199981689453
-32.43899917602539
-32.6609992980957
-32.808998107910156
-33.03099822998047
-33.17900085449219
-33.4010009765625
-33.54899978637695
-33.766998291015625
-33.91400146484375
-34.150001525878906
-34.237998962402344
-34.474998474121094
-34.624000549316406
-34.84299850463867
-34.99599838256836
-35.215999603271484
-35.36800003051758
-35.58700180053711
-35.74100112915039
-35.95899963378906
-36.11199951171875
-36.332000732421875
-36.48099899291992
-36.69300079345703
-36.827999114990234
-37.02399826049805
-37.1609992980957
-37.36000061035156
-37.51499938964844
-37.722999572753906
-37.887001037597656
-38.09700012207031
-38.26300048828125
-38.47200012207031
-31.378000259399414
-31.631000518798828
-31.739999771118164
-32.0
-32.10900115966797
-32.369998931884766
-32.47800064086914
-32.737998962402344
-32.84700012207031
-33.108001708984375
-33.21699905395508
-33.4640007019043
-33.60100173950195
-33.84700012207031
-33.95399856567383
-34.207000732421875
-34.30799865722656
-34.54499816894531
-34.685001373291016
-34.91600036621094
-35.058998107910156
-35.290000915527344
-35.43299865722656
-35.665000915527344
-35.805999755859375
-36.04899978637695
-36.15399932861328
-36.404998779296875
-36.512001037597656
-36.744998931884766
-36.869998931884766
-37.090999603271484
-37.22600173950195
-37.45100021362305
-37.59400177001953
-37.821998596191406
-37.970001220703125
-38.20000076293945
-32.0359992980957
-32.18199920654297
-32.40599822998047
-32.551998138427734
-32.7760009765625
-32.922000885009766
-33.14500045776367
-33.2859992980957
-33.5099983215332
-33.6510009765625
-33.895999908447266
-34.0
-34.257999420166016
-34.356998443603516
-34.597999572753906
-34.742000579833984
-34.97200012207031
-35.117000579833984
-35.34600067138672
-35.492000579833984
-35.720001220703125
-35.861000061035156
-36.0989990234375
-36.20100021362305
-36.45199966430664
-36.55099868774414
-36.78300094604492
-36.91999816894531
-37.141998291015625
-37.28099822998047
-37.507999420166016
-37.6510009765625
-37.88399887084961
-32.112998962402344
-32.268001556396484
-32.483001708984375
-32.63999938964844
-32.85499954223633
-33.00699996948242
-33.21500015258789
-33.362998962402344
-33.57600021362305
-33.73099899291992
-33.94499969482422
-34.09600067138672
-34.30500030517578
-34.45500183105469
-34.66899871826172
-34.82500076293945
-35.042999267578125
-35.20000076293945
-35.41999816894531
-35.57500076293945
-35.78900146484375
-35.933998107910156
-36.141998291015625
-36.2859992980957
-36.49399948120117
-36.641998291015625
-36.85100173950195
-37.000999450683594
-37.20899963378906
-37.36000061035156
-37.57600021362305
-32.57500076293945
-32.720001220703125
-32.9370002746582
-33.07899856567383
-33.297000885009766
-33.44599914550781
-33.66699981689453
-33.819000244140625
-34.034000396728516
-34.18299865722656
-34.42399978637695
-34.51499938964844
-34.7599983215332
-34.91400146484375
-35.13600158691406
-35.290000915527344
-35.51100158691406
-35.659000396728516
-35.869998931884766
-36.01599884033203
-36.2239990234375
-36.374000549316406
-36.58300018310547
-36.73500061035156
-36.944000244140625
-37.09600067138672
-37.30500030517578
-32.650001525878906
-32.79800033569336
-33.01100158691406
-33.1619987487793
-33.37900161743164
-33.534000396728516
-33.75299835205078
-33.90700149536133
-34.12200164794922
-34.275001525878906
-34.486000061035156
-34.637001037597656
-34.849998474121094
-35.00600051879883
-35.224998474121094
-35.38100051879883
-35.595001220703125
-35.74599838256836
-35.957000732421875
-36.111000061035156
-36.31999969482422
-36.472999572753906
-36.68000030517578
-36.83399963378906
-37.04199981689453
-33.10599899291992
-33.26499938964844
-33.47600173950195
-33.63600158691406
-33.847999572753906
-34.00699996948242
-34.220001220703125
-34.37799835205078
-34.584999084472656
-34.74100112915039
-34.94900131225586
-35.11000061035156
-35.323001861572266
-35.481998443603516
-35.691001892089844
-35.8489990234375
-36.05699920654297
-36.21699905395508
-36.42300033569336
-36.58000183105469
-36.784000396728516
-33.21799850463867
-33.38199996948242
-33.5880012512207
-33.750999450683594
-33.95800018310547
-34.124000549316406
-34.332000732421875
-34.49800109863281
-34.69900131225586
-34.861000061035156
-35.0629997253418
-35.22800064086914
-35.433998107910156
-35.597999572753906
-35.80400085449219
-35.965999603271484
-36.16999816894531
-36.332000732421875
-36.53499984741211
-33.33700180053711
-33.50199890136719
-33.709999084472656
-33.875999450683594
-34.08399963378906
-34.25299835205078
-34.45899963378906
-34.62699890136719
-34.82699966430664
-34.987998962402344
-35.1870002746582
-35.3489990234375
-35.55500030517578
-35.71500015258789
-35.91999816894531
-36.07899856567383
-36.2859992980957
-33.834999084472656
-34.00299835205078
-34.2130012512207
-34.380001068115234
-34.58700180053711
-34.755001068115234
-34.95500183105469
-35.112998962402344
-35.30799865722656
-35.459999084472656
-35.6619987487793
-35.81399917602539
-36.025001525878906
-33.95600128173828
-34.11899948120117
-34.33300018310547
-34.49599838256836
-34.709999084472656
-34.87200164794922
-35.07400131225586
-35.22200012207031
-35.41299819946289
-35.56399917602539
-35.763999938964844
-34.44499969482422
-34.60599899291992
-34.81800079345703
-34.9739990234375
-35.17499923706055
-34.54899978637695
-34.70500183105469
-34.91699981689453
-40.847999572753906
-40.97800064086914
-40.9900016784668
