# vtk DataFile Version 3.0
SHAPE_sfm_50k_v20200323
ASCII
DATASET POLYDATA
POINTS 143 float
-0.3289699852466583 0.31147000193595886 0.1352899968624115
-0.32857000827789307 0.3146499991416931 0.13373999297618866
-0.3303599953651428 0.3126699924468994 0.1337299942970276
-0.3299799859523773 0.31593000888824463 0.13224999606609344
-0.33180001378059387 0.31396999955177307 0.13230000436306
-0.33149001002311707 0.31725001335144043 0.13091999292373657
-0.3332599997520447 0.3152399957180023 0.13086000084877014
-0.3329800069332123 0.3185400068759918 0.12951000034809113
-0.3346500098705292 0.31644999980926514 0.1293099969625473
-0.3342300057411194 0.31957998871803284 0.12771999835968018
-0.33594000339508057 0.3175100088119507 0.1275700032711029
-0.3275899887084961 0.3102099895477295 0.1368200033903122
-0.330810010433197 0.30956000089645386 0.13545000553131104
-0.32947999238967896 0.3083600103855133 0.1370600014925003
-0.3322399854660034 0.3107999861240387 0.13394999504089355
-0.33368998765945435 0.31209999322891235 0.13253000378608704
-0.33511000871658325 0.31332001090049744 0.1310099959373474
-0.3364199995994568 0.3144400119781494 0.12931999564170837
-0.33768001198768616 0.31547001004219055 0.12752999365329742
-0.338809996843338 0.3165700137615204 0.1256999969482422
-0.337119996547699 0.3186599910259247 0.1257999986410141
-0.3397600054740906 0.3175100088119507 0.1236800029873848
-0.3281799852848053 0.30717000365257263 0.1386999934911728
-0.3314499855041504 0.30663999915122986 0.13752000033855438
-0.33009999990463257 0.30539000034332275 0.13909000158309937
-0.3327699899673462 0.3077999949455261 0.13585999608039856
-0.334199994802475 0.30904000997543335 0.13436000049114227
-0.3356100022792816 0.31025999784469604 0.1328199952840805
-0.3369799852371216 0.31139999628067017 0.13118000328540802
-0.3382300138473511 0.3124699890613556 0.1294099986553192
-0.3395000100135803 0.31349000334739685 0.1276099979877472
-0.3405799865722656 0.3145500123500824 0.12571999430656433
-0.3415299952030182 0.3154599964618683 0.1236800029873848
-0.3424699902534485 0.31637999415397644 0.12163999676704407
-0.3274399936199188 0.3029699921607971 0.1423099935054779
-0.33059999346733093 0.3022800087928772 0.14117999374866486
-0.3292999863624573 0.30118000507354736 0.1429000049829483
-0.32881999015808105 0.30421000719070435 0.14076000452041626
-0.33195000886917114 0.3035599887371063 0.13962000608444214
-0.33329999446868896 0.3047899901866913 0.13801999390125275
-0.33458998799324036 0.30590999126434326 0.1362999975681305
-0.33597999811172485 0.3070699870586395 0.1347000002861023
-0.3373900055885315 0.3082900047302246 0.13314999639987946
-0.3387799859046936 0.3094399869441986 0.1315000057220459
-0.34000998735427856 0.31047001481056213 0.12966999411582947
-0.34126999974250793 0.31147998571395874 0.12785999476909637
-0.34237998723983765 0.3125399947166443 0.12594999372959137
-0.34314998984336853 0.3133000135421753 0.12376999855041504
-0.34397000074386597 0.31411999464035034 0.12163999676704407
-0.3449600040912628 0.3149999976158142 0.11959999799728394
-0.3280999958515167 0.3001300096511841 0.14472000300884247
-0.3310000002384186 0.2993299961090088 0.14372000098228455
-0.3297500014305115 0.2982200086116791 0.14549000561237335
-0.3323099911212921 0.3004400134086609 0.14201000332832336
-0.3336000144481659 0.3016200065612793 0.14031000435352325
-0.334850013256073 0.3026899993419647 0.1385200023651123
-0.3360700011253357 0.3037300109863281 0.13670000433921814
-0.33746999502182007 0.30489999055862427 0.13508999347686768
-0.3388800024986267 0.3061000108718872 0.1335200071334839
-0.34033000469207764 0.30730998516082764 0.13197000324726105
-0.3415899872779846 0.3083600103855133 0.13015000522136688
-0.34283000230789185 0.30932000279426575 0.12827999889850616
-0.3438799977302551 0.3103199899196625 0.1263200044631958
-0.344760000705719 0.3111799955368042 0.1242000013589859
-0.34560999274253845 0.3120200037956238 0.12208999693393707
-0.346670001745224 0.3129499852657318 0.12010999768972397
-0.3475300073623657 0.31376001238822937 0.1179800033569336
-0.32861000299453735 0.2971999943256378 0.14737999439239502
-0.33145999908447266 0.29649999737739563 0.14654000103473663
-0.33028000593185425 0.29545000195503235 0.14839999377727509
-0.3327000141143799 0.29760000109672546 0.14475999772548676
-0.3339900076389313 0.29864999651908875 0.14298999309539795
-0.33528000116348267 0.2998200058937073 0.14127999544143677
-0.3364900052547455 0.300819993019104 0.13940000534057617
-0.3375999927520752 0.30167001485824585 0.13740000128746033
-0.3389100134372711 0.302729994058609 0.1356399953365326
-0.3402999937534332 0.30390000343322754 0.13402000069618225
-0.3417600095272064 0.3050999939441681 0.1324699968099594
-0.34303000569343567 0.3061400055885315 0.13064000010490417
-0.3441300094127655 0.3069800138473511 0.1286199986934662
-0.34521999955177307 0.3080100119113922 0.12669000029563904
-0.34630000591278076 0.3090200126171112 0.12475000321865082
-0.34731000661849976 0.3100000023841858 0.12275999784469604
-0.34821999073028564 0.3107700049877167 0.120619997382164
-0.3490700125694275 0.3115699887275696 0.11846999824047089
-0.3345299959182739 0.295960009098053 0.1457500010728836
-0.33577001094818115 0.2969200015068054 0.14388999342918396
-0.33706000447273254 0.2980700135231018 0.1421699970960617
-0.33840999007225037 0.2993299961090088 0.14053000509738922
-0.33945998549461365 0.3000499904155731 0.13840000331401825
-0.34066998958587646 0.3009200096130371 0.13646000623703003
-0.3419699966907501 0.30195000767707825 0.13468000292778015
-0.34338000416755676 0.30305999517440796 0.13301999866962433
-0.34463000297546387 0.30406999588012695 0.13116000592708588
-0.34575000405311584 0.30491000413894653 0.1291400045156479
-0.3467400074005127 0.3058300018310547 0.12711000442504883
-0.3477100133895874 0.30671998858451843 0.12504999339580536
-0.348690003156662 0.30764999985694885 0.1230200007557869
-0.34988999366760254 0.3086700141429901 0.1211400032043457
-0.3375700116157532 0.2953200042247772 0.14497999846935272
-0.33882999420166016 0.2963699996471405 0.14316000044345856
-0.3400700092315674 0.2973800003528595 0.14131000638008118
-0.3412899971008301 0.2984200119972229 0.13944000005722046
-0.34251001477241516 0.2992999851703644 0.1375100016593933
-0.34376001358032227 0.30017998814582825 0.13560999929904938
-0.3451099991798401 0.30118000507354736 0.13381999731063843
-0.3462899923324585 0.3020699918270111 0.131850004196167
-0.3473699986934662 0.302839994430542 0.12976999580860138
-0.34825998544692993 0.30364999175071716 0.12762999534606934
-0.34907999634742737 0.3044300079345703 0.12546999752521515
-0.35008999705314636 0.30535998940467834 0.12345000356435776
-0.34060999751091003 0.2947399914264679 0.14425000548362732
-0.34182998538017273 0.29569000005722046 0.14234000444412231
-0.34299999475479126 0.29660001397132874 0.14037999510765076
-0.34424999356269836 0.29750001430511475 0.13846999406814575
-0.34547001123428345 0.2983199954032898 0.13650000095367432
-0.3467499911785126 0.2991800010204315 0.1345899999141693
-0.3478200137615204 0.2999500036239624 0.13249999284744263
-0.3488599956035614 0.300680011510849 0.130390003323555
-0.3496600091457367 0.3014200031757355 0.12817999720573425
-0.3505200147628784 0.3022100031375885 0.12602999806404114
-0.3435499966144562 0.29387998580932617 0.1432500034570694
-0.344760000705719 0.29482999444007874 0.14132000505924225
-0.34599000215530396 0.2956700026988983 0.13933999836444855
-0.34711000323295593 0.29631999135017395 0.1372399926185608
-0.3483000099658966 0.2970600128173828 0.13521000742912292
-0.3492799997329712 0.29774999618530273 0.13304999470710754
-0.3503200113773346 0.29848000407218933 0.1309400051832199
-0.3511599898338318 0.29923999309539795 0.12873999774456024
-0.3463999927043915 0.292959988117218 0.14226000010967255
-0.3475799858570099 0.29368001222610474 0.14020000398159027
-0.348580002784729 0.2942099869251251 0.13797999918460846
-0.349590003490448 0.2947799861431122 0.1358100026845932
-0.350600004196167 0.29548999667167664 0.13366000354290009
-0.35163000226020813 0.2961899936199188 0.13152000308036804
-0.34992000460624695 0.29203999042510986 0.13882000744342804
-0.35100001096725464 0.29267001152038574 0.13666999340057373
-0.3518899977207184 0.2932699918746948 0.1344199925661087
-0.35242998600006104 0.29054000973701477 0.13742999732494354
-0.3283100128173828 0.3181599974632263 0.13247999548912048
-0.32973000407218933 0.31944000720977783 0.1310099959373474
-0.33114001154899597 0.32067999243736267 0.12950000166893005
-0.33246999979019165 0.3218100070953369 0.1278200000524521
POLYGONS 237 948
3 0 1 2
3 1 3 2
3 2 3 4
3 3 5 4
3 4 5 6
3 5 7 6
3 6 7 8
3 7 9 8
3 8 9 10
3 11 12 13
3 11 0 12
3 0 14 12
3 0 2 14
3 2 15 14
3 2 4 15
3 4 16 15
3 4 6 16
3 6 8 16
3 16 8 17
3 8 10 17
3 17 10 18
3 10 19 18
3 10 20 19
3 20 21 19
3 22 23 24
3 22 13 23
3 13 25 23
3 13 12 25
3 12 26 25
3 12 14 26
3 14 27 26
3 14 15 27
3 15 28 27
3 15 16 28
3 16 29 28
3 16 17 29
3 17 18 29
3 29 18 30
3 18 31 30
3 18 19 31
3 19 32 31
3 19 21 32
3 21 33 32
3 34 35 36
3 34 37 35
3 37 38 35
3 37 24 38
3 24 39 38
3 24 23 39
3 23 40 39
3 23 25 40
3 25 41 40
3 25 26 41
3 26 42 41
3 26 27 42
3 27 43 42
3 27 28 43
3 28 44 43
3 28 29 44
3 29 45 44
3 29 30 45
3 30 46 45
3 30 31 46
3 31 47 46
3 31 32 47
3 32 48 47
3 32 33 48
3 33 49 48
3 50 51 52
3 50 36 51
3 36 53 51
3 36 35 53
3 35 54 53
3 35 38 54
3 38 55 54
3 38 39 55
3 39 56 55
3 39 40 56
3 40 57 56
3 40 41 57
3 41 58 57
3 41 42 58
3 42 59 58
3 42 43 59
3 43 60 59
3 43 44 60
3 44 61 60
3 44 45 61
3 45 62 61
3 45 46 62
3 46 63 62
3 46 47 63
3 47 64 63
3 47 48 64
3 48 65 64
3 48 49 65
3 49 66 65
3 67 68 69
3 67 52 68
3 52 70 68
3 52 51 70
3 51 71 70
3 51 53 71
3 53 72 71
3 53 54 72
3 54 73 72
3 54 55 73
3 55 74 73
3 55 56 74
3 56 75 74
3 56 57 75
3 57 76 75
3 57 58 76
3 58 77 76
3 58 59 77
3 59 78 77
3 59 60 78
3 60 79 78
3 60 61 79
3 61 80 79
3 61 62 80
3 62 81 80
3 62 63 81
3 63 82 81
3 63 64 82
3 64 83 82
3 64 65 83
3 65 84 83
3 65 66 84
3 68 70 85
3 70 86 85
3 70 71 86
3 71 87 86
3 71 72 87
3 72 88 87
3 72 73 88
3 73 89 88
3 73 74 89
3 74 90 89
3 74 75 90
3 75 91 90
3 75 76 91
3 76 92 91
3 76 77 92
3 77 93 92
3 77 78 93
3 78 94 93
3 78 79 94
3 79 95 94
3 79 80 95
3 80 96 95
3 80 81 96
3 81 97 96
3 81 82 97
3 82 98 97
3 82 83 98
3 85 86 99
3 86 100 99
3 86 87 100
3 87 101 100
3 87 88 101
3 88 102 101
3 88 89 102
3 89 103 102
3 89 90 103
3 90 104 103
3 90 91 104
3 91 105 104
3 91 92 105
3 92 106 105
3 92 93 106
3 93 107 106
3 93 94 107
3 94 108 107
3 94 95 108
3 95 109 108
3 95 96 109
3 96 110 109
3 96 97 110
3 99 100 111
3 100 112 111
3 100 101 112
3 101 113 112
3 101 102 113
3 102 114 113
3 102 103 114
3 103 115 114
3 103 104 115
3 104 116 115
3 104 105 116
3 105 117 116
3 105 106 117
3 106 118 117
3 106 107 118
3 107 119 118
3 107 108 119
3 108 120 119
3 108 109 120
3 111 112 121
3 112 122 121
3 112 113 122
3 113 123 122
3 113 114 123
3 114 124 123
3 114 115 124
3 115 125 124
3 115 116 125
3 116 126 125
3 116 117 126
3 117 127 126
3 117 118 127
3 118 128 127
3 118 119 128
3 121 122 129
3 122 130 129
3 122 123 130
3 123 131 130
3 123 124 131
3 124 132 131
3 124 125 132
3 125 133 132
3 125 126 133
3 126 134 133
3 126 127 134
3 130 131 135
3 131 136 135
3 131 132 136
3 132 137 136
3 132 133 137
3 135 136 138
3 1 139 3
3 139 140 3
3 3 140 5
3 140 141 5
3 5 141 7
3 141 142 7
3 7 142 9

CELL_DATA 237
SCALARS longitude float 1
LOOKUP_TABLE default
136.4600067138672
136.35400390625
136.46800231933594
136.36199951171875
136.4770050048828
136.3730010986328
136.48699951171875
136.38499450683594
136.5
136.78599548339844
136.67599487304688
136.79200744628906
136.6840057373047
136.8000030517578
136.6909942626953
136.8070068359375
136.69900512695312
136.70599365234375
136.82000732421875
136.7169952392578
136.83200073242188
136.83599853515625
136.7239990234375
136.83200073242188
137.11599731445312
137.00599670410156
137.11900329589844
137.00999450683594
137.12399291992188
137.01699829101562
137.13299560546875
137.0240020751953
137.14100646972656
137.0330047607422
137.14999389648438
137.04200744628906
137.0489959716797
137.1649932861328
137.16799926757812
137.05599975585938
137.16400146484375
137.052001953125
137.16000366210938
137.4459991455078
137.33700561523438
137.44900512695312
137.33700561523438
137.447998046875
137.33700561523438
137.4499969482422
137.34100341796875
137.45700073242188
137.3489990234375
137.46499633789062
137.3560028076172
137.47300720214844
137.36599731445312
137.48399353027344
137.37600708007812
137.49400329589844
137.38699340820312
137.50100708007812
137.38800048828125
137.49600219726562
137.38400268554688
137.49099731445312
137.37899780273438
137.48800659179688
137.76699829101562
137.66000366210938
137.77099609375
137.66700744628906
137.7760009765625
137.66799926757812
137.7760009765625
137.66799926757812
137.77999877929688
137.6719970703125
137.78700256347656
137.67999267578125
137.7949981689453
137.68800354003906
137.80299377441406
137.69700622558594
137.81199645996094
137.70599365234375
137.822998046875
137.71800231933594
137.8300018310547
137.72000122070312
137.8249969482422
137.71400451660156
137.81900024414062
137.70799255371094
137.8159942626953
137.70799255371094
137.8159942626953
138.08200073242188
137.97799682617188
138.08299255371094
137.97999572753906
138.08700561523438
137.98599243164062
138.0919952392578
137.98699951171875
138.093994140625
137.99099731445312
138.10299682617188
138.0
138.11300659179688
138.00799560546875
138.12100219726562
138.01499938964844
138.12899780273438
138.0240020751953
138.13800048828125
138.0330047607422
138.1479949951172
138.0449981689453
138.156005859375
138.04600524902344
138.1510009765625
138.04100036621094
138.14500427246094
138.03500366210938
138.14199829101562
138.03399658203125
138.14300537109375
138.0330047607422
138.29200744628906
138.4010009765625
138.3000030517578
138.4080047607422
138.302001953125
138.40499877929688
138.302001953125
138.41200256347656
138.3159942626953
138.42999267578125
138.3300018310547
138.4429931640625
138.33900451660156
138.4530029296875
138.3489990234375
138.46400451660156
138.35800170898438
138.4739990234375
138.3699951171875
138.48199462890625
138.37100219726562
138.4770050048828
138.36700439453125
138.47300720214844
138.36099243164062
138.468994140625
138.36099243164062
138.61099243164062
138.718994140625
138.61700439453125
138.72300720214844
138.61700439453125
138.7239990234375
138.6219940185547
138.73699951171875
138.64100646972656
138.75599670410156
138.6580047607422
138.77200317382812
138.67100524902344
138.78700256347656
138.68299865722656
138.7989959716797
138.6959991455078
138.80799865722656
138.697998046875
138.8040008544922
138.6929931640625
138.7989959716797
138.68899536132812
138.9239959716797
139.031005859375
138.9320068359375
139.0399932861328
138.93800354003906
139.0500030517578
138.9510040283203
139.06900024414062
138.9709930419922
139.09100341796875
138.99099731445312
139.10899353027344
139.00599670410156
139.12399291992188
139.02099609375
139.13299560546875
139.0229949951172
139.1280059814453
139.0189971923828
139.24200439453125
139.35299682617188
139.25100708007812
139.36599731445312
139.26699829101562
139.38800048828125
139.2899932861328
139.41400146484375
139.31399536132812
139.43499755859375
139.33099365234375
139.44900512695312
139.3459930419922
139.45799255371094
139.34800720214844
139.5659942626953
139.6820068359375
139.58399963378906
139.70799255371094
139.61099243164062
139.73699951171875
139.63800048828125
139.75900268554688
139.656005859375
139.7729949951172
139.67100524902344
139.92999267578125
140.05499267578125
139.95799255371094
140.07699584960938
139.9759979248047
140.2760009765625
136.1280059814453
136.01800537109375
136.13699340820312
136.0279998779297
136.1490020751953
136.04100036621094
136.16200256347656
SCALARS latitude float 1
LOOKUP_TABLE default
16.464000701904297
16.304000854492188
16.226999282836914
16.073999404907227
15.99899959564209
15.847999572753906
15.767000198364258
15.607000350952148
15.517000198364258
16.80299949645996
16.714000701904297
16.55900001525879
16.472000122070312
16.32200050354004
16.23699951171875
16.08799934387207
16.003999710083008
15.847000122070312
15.769000053405762
15.598999977111816
15.513999938964844
15.340999603271484
15.255999565124512
15.07800006866455
17.090999603271484
16.993999481201172
16.839000701904297
16.740999221801758
16.590999603271484
16.499000549316406
16.351999282836914
16.261999130249023
16.11199951171875
16.023000717163086
15.86299991607666
15.77400016784668
15.604000091552734
15.520999908447266
15.345999717712402
15.255999565124512
15.079000473022461
14.986000061035156
14.803999900817871
17.64699935913086
17.542999267578125
17.39299964904785
17.291000366210938
17.141000747680664
17.038999557495117
16.88800048828125
16.78499984741211
16.634000778198242
16.538000106811523
16.391000747680664
16.297000885009766
16.145999908447266
16.049999237060547
15.892000198364258
15.793999671936035
15.630999565124512
15.534000396728516
15.368000030517578
15.270000457763672
15.095999717712402
14.994999885559082
14.815999984741211
14.718000411987305
14.538999557495117
18.0
17.878000259399414
17.73200035095215
17.61199951171875
17.4689998626709
17.354000091552734
17.209999084472656
17.099000930786133
16.947999954223633
16.839000701904297
16.68899917602539
16.586999893188477
16.441999435424805
16.341999053955078
16.198999404907227
16.097000122070312
15.946999549865723
15.838000297546387
15.682000160217285
15.574000358581543
15.416000366210938
15.307000160217285
15.142000198364258
15.029000282287598
14.859999656677246
14.748000144958496
14.583000183105469
14.472999572753906
14.309000015258789
18.384000778198242
18.25200080871582
18.107999801635742
17.979999542236328
17.84000015258789
17.71299934387207
17.575000762939453
17.451000213623047
17.30900001525879
17.183000564575195
17.03499984741211
16.91200065612793
16.764999389648438
16.652000427246094
16.51099967956543
16.40399932861328
16.264999389648438
16.15999984741211
16.014999389648438
15.902999877929688
15.746000289916992
15.633999824523926
15.475000381469727
15.364999771118164
15.204000473022461
15.09000015258789
14.930000305175781
14.812000274658203
14.652000427246094
14.53499984741211
14.37399959564209
14.258000373840332
18.091999053955078
17.945999145507812
17.82200050354004
17.67799949645996
17.558000564575195
17.41699981689453
17.292999267578125
17.14299964904785
17.01099967956543
16.860000610351562
16.73699951171875
16.593000411987305
16.479000091552734
16.33799934387207
16.231000900268555
16.08300018310547
15.972000122070312
15.812999725341797
15.699000358581543
15.53499984741211
15.423999786376953
15.260000228881836
15.151000022888184
14.986000061035156
14.878000259399414
14.71500015258789
14.605999946594238
17.92799949645996
17.784000396728516
17.658000946044922
17.514999389648438
17.393999099731445
17.24799919128418
17.1200008392334
16.968000411987305
16.839000701904297
16.69300079345703
16.569000244140625
16.427000045776367
16.309999465942383
16.163999557495117
16.04400062561035
15.887999534606934
15.767999649047852
15.605999946594238
15.48799991607666
15.324000358581543
15.208000183105469
15.043999671936035
14.930999755859375
17.770999908447266
17.62700080871582
17.496999740600586
17.35099983215332
17.222999572753906
17.075000762939453
16.947999954223633
16.798999786376953
16.67300033569336
16.524999618530273
16.40399932861328
16.25200080871582
16.128999710083008
15.970000267028809
15.847999572753906
15.684000015258789
15.562000274658203
15.397000312805176
15.277000427246094
17.606000900268555
17.454999923706055
17.327999114990234
17.176000595092773
17.049999237060547
16.895000457763672
16.770999908447266
16.61400032043457
16.493999481201172
16.33300018310547
16.211999893188477
16.047000885009766
15.927000045776367
15.760000228881836
15.638999938964844
17.430999755859375
17.27899932861328
17.149999618530273
16.992000579833984
16.863000869750977
16.702999114990234
16.577999114990234
16.416000366210938
16.291000366210938
16.12700080871582
16.003999710083008
16.96500015258789
16.805999755859375
16.673999786376953
16.514999389648438
16.381999969482422
16.777999877929688
16.229000091552734
16.07699966430664
15.99899959564209
15.847999572753906
15.770999908447266
15.611000061035156
15.527000427246094
