# vtk DataFile Version 3.0
SHAPE_sfm_50k_v20200323
ASCII
DATASET POLYDATA
POINTS 586 float
0.44084998965263367 0.18562999367713928 -0.08632999658584595
0.4400300085544586 0.18856999278068542 -0.08876000344753265
0.44064000248908997 0.18852999806404114 -0.08597999811172485
0.4396800100803375 0.1856199949979782 -0.08888000249862671
0.4384300112724304 0.1855199933052063 -0.09137000143527985
0.4386399984359741 0.18846000730991364 -0.09128999710083008
0.44472000002861023 0.18922999501228333 -0.07875999808311462
0.4431700110435486 0.18895000219345093 -0.0810299962759018
0.444350004196167 0.19220000505447388 -0.07852999866008759
0.4425700008869171 0.19181999564170837 -0.08066000044345856
0.4414199888706207 0.1915300041437149 -0.0831800028681755
0.4418799877166748 0.18863999843597412 -0.08347000181674957
0.44036999344825745 0.19144000113010406 -0.08575999736785889
0.43959999084472656 0.19148999452590942 -0.08848000317811966
0.43817999958992004 0.1913599967956543 -0.0909700021147728
0.43643999099731445 0.18844999372959137 -0.09312000125646591
0.43595001101493835 0.19132000207901 -0.09277000278234482
0.44975000619888306 0.19519999623298645 -0.05779999867081642
0.450080007314682 0.19302000105381012 -0.06001000106334686
0.4488599896430969 0.19575999677181244 -0.060440000146627426
0.449319988489151 0.19327999651432037 -0.06268999725580215
0.44808998703956604 0.19598999619483948 -0.06312000006437302
0.4485900104045868 0.1931300014257431 -0.06537999957799911
0.4474300146102905 0.19585999846458435 -0.06582000106573105
0.44808998703956604 0.19249999523162842 -0.068060003221035
0.4468500018119812 0.19518999755382538 -0.0684799998998642
0.4474700093269348 0.1922300010919571 -0.07077000290155411
0.44624999165534973 0.19492000341415405 -0.07117000222206116
0.44710999727249146 0.19265000522136688 -0.07355999946594238
0.4450500011444092 0.1948699951171875 -0.07368999719619751
0.44631001353263855 0.19283999502658844 -0.0764399990439415
0.4438000023365021 0.19471000134944916 -0.07618000358343124
0.4424700140953064 0.1945199966430664 -0.07859999686479568
0.4412899911403656 0.1944199949502945 -0.08115000277757645
0.44025999307632446 0.1941699981689453 -0.08375000208616257
0.43939000368118286 0.19413000345230103 -0.08640000224113464
0.4384300112724304 0.19413000345230103 -0.08902999758720398
0.4367400109767914 0.193900004029274 -0.091279998421669
0.43533000349998474 0.1940300017595291 -0.0936800017952919
0.4506399929523468 0.19612999260425568 -0.054269999265670776
0.4510599970817566 0.19453999400138855 -0.05542000010609627
0.4494599997997284 0.19678999483585358 -0.05668000131845474
0.4485499858856201 0.19760000705718994 -0.059209998697042465
0.4477500021457672 0.198170006275177 -0.061879999935626984
0.44679999351501465 0.19832000136375427 -0.06451000273227692
0.4459399878978729 0.1981000006198883 -0.06712999939918518
0.44530999660491943 0.19740000367164612 -0.06976000219583511
0.4445500075817108 0.19705000519752502 -0.07238999754190445
0.443340003490448 0.19697999954223633 -0.07487999647855759
0.4421600103378296 0.1968500018119812 -0.07739999890327454
0.4409100115299225 0.19670000672340393 -0.07986000180244446
0.43990999460220337 0.19664999842643738 -0.08247999846935272
0.4390200078487396 0.19643999636173248 -0.08511999994516373
0.43814998865127563 0.1964000016450882 -0.08776000142097473
0.4368799924850464 0.1962900012731552 -0.0902400016784668
0.4355199933052063 0.19616000354290009 -0.09266000241041183
0.4517599940299988 0.1969199925661087 -0.04761999845504761
0.4524500072002411 0.19479000568389893 -0.04918999969959259
0.45094001293182373 0.197270005941391 -0.050220001488924026
0.4514400064945221 0.19537000358104706 -0.05172999948263168
0.450190007686615 0.19795000553131104 -0.05280999839305878
0.4491499960422516 0.19856999814510345 -0.05527999997138977
0.448199987411499 0.19934000074863434 -0.05776999890804291
0.4473699927330017 0.20016999542713165 -0.060309998691082
0.4465700089931488 0.2007399946451187 -0.062950000166893
0.44562000036239624 0.2008800059556961 -0.06556999683380127
0.4446299970149994 0.20058999955654144 -0.06814000010490417
0.44387999176979065 0.1998399943113327 -0.07071000337600708
0.4431400001049042 0.19947999715805054 -0.07334999740123749
0.44196999073028564 0.1994200050830841 -0.07586000114679337
0.4408099949359894 0.19929000735282898 -0.07838000357151031
0.4396600127220154 0.19916999340057373 -0.08088000118732452
0.43865999579429626 0.19912999868392944 -0.08348999917507172
0.4377399981021881 0.19889000058174133 -0.08609999716281891
0.4369100034236908 0.19886000454425812 -0.08876000344753265
0.4357999861240387 0.19878999888896942 -0.09132999926805496
0.43393000960350037 0.19850000739097595 -0.09344000369310379
0.453900009393692 0.1982100009918213 -0.03136000037193298
0.45247000455856323 0.20016999542713165 -0.03466000035405159
0.4518899917602539 0.20051999390125275 -0.031980000436306
0.4540500044822693 0.19755999743938446 -0.034060001373291016
0.4540799856185913 0.19734999537467957 -0.03681999817490578
0.45267000794410706 0.2000499963760376 -0.03742000088095665
0.4535900056362152 0.1970600038766861 -0.03953000158071518
0.4519999921321869 0.19966000318527222 -0.04008999839425087
0.4527300000190735 0.19682000577449799 -0.042169999331235886
0.45113998651504517 0.1994200050830841 -0.042729999870061874
0.4522700011730194 0.19675999879837036 -0.0449099987745285
0.45096999406814575 0.19949999451637268 -0.04552000015974045
0.450219988822937 0.1995300054550171 -0.048190001398324966
0.44960999488830566 0.19995999336242676 -0.05082999914884567
0.44863998889923096 0.20052999258041382 -0.053360000252723694
0.44773998856544495 0.20121000707149506 -0.05587000027298927
0.44690999388694763 0.2020300030708313 -0.05837000161409378
0.4461599886417389 0.20288999378681183 -0.0608999989926815
0.445360004901886 0.2034599930047989 -0.06351999938488007
0.44457000494003296 0.2036300003528595 -0.06617999821901321
0.44359999895095825 0.20332999527454376 -0.06876000016927719
0.44262999296188354 0.20250000059604645 -0.07122000306844711
0.4415000081062317 0.20196999609470367 -0.07368999719619751
0.44053998589515686 0.20198999345302582 -0.07626999914646149
0.4394400119781494 0.20187999308109283 -0.07880999892950058
0.43821999430656433 0.2017199993133545 -0.08128000050783157
0.4371100068092346 0.20161999762058258 -0.08382999897003174
0.4362800121307373 0.20140999555587769 -0.08647000044584274
0.4355500042438507 0.2014400064945221 -0.0891600027680397
0.4342600107192993 0.2012999951839447 -0.09160999953746796
0.43268001079559326 0.20111000537872314 -0.09392999857664108
0.45107001066207886 0.2029000073671341 -0.035259999334812164
0.45065000653266907 0.20332999527454376 -0.03260999917984009
0.4508799910545349 0.20253999531269073 -0.037950001657009125
0.4500400125980377 0.20206999778747559 -0.040550000965595245
0.4494200050830841 0.2019599974155426 -0.043299999088048935
0.44927000999450684 0.20205999910831451 -0.046069998294115067
0.4487900137901306 0.20221999287605286 -0.0487699992954731
0.44811001420021057 0.2025900036096573 -0.05139999836683273
0.44721999764442444 0.20319999754428864 -0.053939998149871826
0.4465000033378601 0.2039400041103363 -0.05649000033736229
0.4458000063896179 0.20478999614715576 -0.05902000144124031
0.4451200067996979 0.20566999912261963 -0.06154999881982803
0.4446299970149994 0.20631000399589539 -0.064240001142025
0.4435400068759918 0.20638999342918396 -0.06678999960422516
0.4426499903202057 0.20611000061035156 -0.06938999891281128
0.4418500065803528 0.20532000064849854 -0.07192999869585037
0.4404500126838684 0.20469999313354492 -0.0742499977350235
0.4393100142478943 0.20464999973773956 -0.0767500028014183
0.4378199875354767 0.20434999465942383 -0.0790800005197525
0.43658000230789185 0.20418000221252441 -0.08154000341892242
0.4355199933052063 0.20408999919891357 -0.0841199979186058
0.4347600042819977 0.2039099931716919 -0.08677999675273895
0.4339999854564667 0.2039099931716919 -0.0894400030374527
0.4326399862766266 0.20374999940395355 -0.09185999631881714
0.4317300021648407 0.20381000638008118 -0.09450999647378922
0.4505600035190582 0.20593999326229095 -0.03581000119447708
0.45058000087738037 0.20649999380111694 -0.032990001142024994
0.4496000111103058 0.20534999668598175 -0.03836999833583832
0.4486500024795532 0.20484000444412231 -0.04095999896526337
0.4481000006198883 0.20476999878883362 -0.043719999492168427
0.4481399953365326 0.2049199938774109 -0.046509999781847
0.4474799931049347 0.20498999953269958 -0.04918000102043152
0.44679999351501465 0.20535999536514282 -0.051830001175403595
0.4462200105190277 0.2060600072145462 -0.05443999916315079
0.44543999433517456 0.20677000284194946 -0.05697999894618988
0.44481998682022095 0.20764000713825226 -0.05951999872922897
0.4445900022983551 0.20860999822616577 -0.06210999935865402
0.4437499940395355 0.2091600000858307 -0.064690001308918
0.44290000200271606 0.20934000611305237 -0.06735000014305115
0.4415999948978424 0.20893000066280365 -0.06976000219583511
0.440420001745224 0.20798000693321228 -0.07207000255584717
0.4391799867153168 0.20738999545574188 -0.0744599997997284
0.43786999583244324 0.20724999904632568 -0.07688000053167343
0.4364599883556366 0.20698000490665436 -0.07925000041723251
0.4353199899196625 0.20683999359607697 -0.0817599967122078
0.43424999713897705 0.20674000680446625 -0.08431000262498856
0.43338000774383545 0.2065100073814392 -0.08692999929189682
0.43268999457359314 0.2065100073814392 -0.08961000293493271
0.43174999952316284 0.20653000473976135 -0.09220000356435776
0.4310300052165985 0.206619992852211 -0.09487999975681305
0.44964998960494995 0.2089100033044815 -0.03635000064969063
0.44933998584747314 0.20937000215053558 -0.03351999819278717
0.44832998514175415 0.20814000070095062 -0.03878999873995781
0.447519987821579 0.20771999657154083 -0.041430000215768814
0.4471200108528137 0.2076999992132187 -0.044179998338222504
0.44683998823165894 0.2076999992132187 -0.04692000150680542
0.4462999999523163 0.20781999826431274 -0.049619998782873154
0.44574999809265137 0.2082200050354004 -0.05229000002145767
0.44523000717163086 0.20892000198364258 -0.054910000413656235
0.44481000304222107 0.20972000062465668 -0.05748999863862991
0.4445900022983551 0.2106499969959259 -0.06007000058889389
0.444130003452301 0.21164000034332275 -0.06266999989748001
0.4425399899482727 0.21195000410079956 -0.06503999978303909
0.4410400092601776 0.21178999543190002 -0.06735000014305115
0.43970000743865967 0.21129000186920166 -0.06970000267028809
0.4386399984359741 0.21038000285625458 -0.07208000123500824
0.43748000264167786 0.2098200023174286 -0.07451000064611435
0.43632999062538147 0.2097799926996231 -0.07699999958276749
0.43529000878334045 0.2096800059080124 -0.07955999672412872
0.4341000020503998 0.20951999723911285 -0.08202999830245972
0.43310999870300293 0.20945000648498535 -0.08461999893188477
0.43233999609947205 0.20924000442028046 -0.08726999908685684
0.4317300021648407 0.2092600017786026 -0.08995000272989273
0.4312399923801422 0.20940999686717987 -0.09266000241041183
0.4302999973297119 0.20940999686717987 -0.09527000039815903
0.4474700093269348 0.21180999279022217 -0.034279998391866684
0.44784000515937805 0.21140000224113464 -0.036959998309612274
0.44714000821113586 0.21089999377727509 -0.039570000022649765
0.4464699923992157 0.21051999926567078 -0.04224000126123428
0.4461899995803833 0.210549995303154 -0.04498999938368797
0.44567999243736267 0.2104800045490265 -0.047690000385046005
0.4452199935913086 0.2106200009584427 -0.05040000006556511
0.44475001096725464 0.21101999282836914 -0.05307000130414963
0.4444099962711334 0.2117599993944168 -0.055709999054670334
0.44415000081062317 0.21258999407291412 -0.058309998363256454
0.4437299966812134 0.21355000138282776 -0.06094000115990639
0.4421499967575073 0.21400000154972076 -0.06327000260353088
0.44025999307632446 0.21393999457359314 -0.06537000089883804
0.4387199878692627 0.2137099951505661 -0.06765999644994736
0.43755999207496643 0.21333999931812286 -0.07011000066995621
0.4366700053215027 0.2125599980354309 -0.07260999828577042
0.435589998960495 0.21206000447273254 -0.07507999986410141
0.43459999561309814 0.21209999918937683 -0.0776199996471405
0.43369001150131226 0.2120800018310547 -0.08021999895572662
0.43276000022888184 0.2120400071144104 -0.08279000222682953
0.4319800138473511 0.21205000579357147 -0.08545000106096268
0.4311400055885315 0.2117999941110611 -0.08807999640703201
0.4304800033569336 0.21178999543190002 -0.09074000269174576
0.42969998717308044 0.21180999279022217 -0.0933699980378151
0.428849995136261 0.21182000637054443 -0.0960099995136261
0.4466100037097931 0.21470999717712402 -0.0350399985909462
0.44631001353263855 0.21401000022888184 -0.0376800000667572
0.4456300139427185 0.21353000402450562 -0.04029000177979469
0.4450399875640869 0.21318000555038452 -0.04301000013947487
0.44503000378608704 0.21331000328063965 -0.04579000174999237
0.4447700083255768 0.21332000195980072 -0.04851999878883362
0.44409000873565674 0.21336999535560608 -0.05119000002741814
0.4435800015926361 0.2137400060892105 -0.05386999994516373
0.4432699978351593 0.21447999775409698 -0.0565200001001358
0.4425800144672394 0.21511000394821167 -0.05911000072956085
0.44130998849868774 0.2154799997806549 -0.06153000146150589
0.4396199882030487 0.21570000052452087 -0.06369999796152115
0.4379200041294098 0.21580000221729279 -0.06592000275850296
0.43643999099731445 0.2155900001525879 -0.06825000047683716
0.43533000349998474 0.21525999903678894 -0.07073000073432922
0.4345400035381317 0.21456000208854675 -0.07327999919652939
0.43362998962402344 0.2141599953174591 -0.0758500024676323
0.4327700138092041 0.21428999304771423 -0.07845000177621841
0.4320000112056732 0.21435000002384186 -0.08109000325202942
0.4312399923801422 0.21438999474048615 -0.08371999859809875
0.43035998940467834 0.21435000002384186 -0.08634000271558762
0.4295400083065033 0.2140900045633316 -0.08896999806165695
0.42890000343322754 0.21410000324249268 -0.09165000170469284
0.42802000045776367 0.21403999626636505 -0.09424000233411789
0.44543999433517456 0.2179100066423416 -0.03308999910950661
0.4457699954509735 0.2176000028848648 -0.03578000143170357
0.44530001282691956 0.21687999367713928 -0.03838000074028969
0.4447399973869324 0.21645000576972961 -0.041030000895261765
0.4441699981689453 0.2161100059747696 -0.043719999492168427
0.4438000023365021 0.21607999503612518 -0.046470001339912415
0.44359999895095825 0.21610000729560852 -0.04921000078320503
0.4429999887943268 0.2161799967288971 -0.05189000070095062
0.44255998730659485 0.2165600061416626 -0.054579999297857285
0.44172000885009766 0.21703000366687775 -0.05714999884366989
0.44051000475883484 0.21729999780654907 -0.05959999933838844
0.43907999992370605 0.2175000011920929 -0.06193000078201294
0.43744000792503357 0.21776999533176422 -0.06412000209093094
0.4358200132846832 0.21792000532150269 -0.06638000160455704
0.4343099892139435 0.21769000589847565 -0.06868000328540802
0.4331600069999695 0.21730999648571014 -0.07117000222206116
0.4325299859046936 0.21671999990940094 -0.0737999975681305
0.43178001046180725 0.21642999351024628 -0.0764399990439415
0.43101999163627625 0.21660999953746796 -0.0790800005197525
0.43027999997138977 0.21667000651359558 -0.08173000067472458
0.4295800030231476 0.21673999726772308 -0.08438999950885773
0.4286800026893616 0.21668000519275665 -0.08698999881744385
0.42781999707221985 0.21637000143527985 -0.08958999812602997
0.42691001296043396 0.2161799967288971 -0.09218999743461609
0.42610999941825867 0.21615000069141388 -0.0948299989104271
0.44495001435279846 0.2205899953842163 -0.0357699990272522
0.44477999210357666 0.2199299931526184 -0.038430001586675644
0.4441800117492676 0.21949000656604767 -0.04106999933719635
0.4436500072479248 0.2191700041294098 -0.04374999925494194
0.4431700110435486 0.2191299945116043 -0.046459998935461044
0.4425800144672394 0.2190299928188324 -0.049150001257658005
0.44220998883247375 0.2191700041294098 -0.05186999961733818
0.44152000546455383 0.21943999826908112 -0.054499998688697815
0.44032999873161316 0.21974000334739685 -0.05694999918341637
0.4388599991798401 0.2198300063610077 -0.05926999822258949
0.43744999170303345 0.2200399935245514 -0.0616299994289875
0.43584001064300537 0.22032000124454498 -0.06383000314235687
0.43417999148368835 0.22043000161647797 -0.0660099983215332
0.432779997587204 0.22026999294757843 -0.06836999952793121
0.4317300021648407 0.21995000541210175 -0.0709099993109703
0.4310699999332428 0.21931999921798706 -0.07349999994039536
0.4303100109100342 0.21901999413967133 -0.07613000273704529
0.4295499920845032 0.21918000280857086 -0.07879000157117844
0.4289099872112274 0.21929000318050385 -0.08145999908447266
0.4280500113964081 0.21924999356269836 -0.08405999839305878
0.42708998918533325 0.2191299945116043 -0.08662000298500061
0.42618000507354736 0.21875 -0.08918000012636185
0.4250499904155731 0.2183700054883957 -0.09166999906301498
0.4242500066757202 0.21833999454975128 -0.09432999789714813
0.4439600110054016 0.22283999621868134 -0.03773000091314316
0.44370999932289124 0.22335000336170197 -0.03505999967455864
0.44369998574256897 0.22247999906539917 -0.04044000059366226
0.4431900084018707 0.22216999530792236 -0.04311000183224678
0.4427100121974945 0.22213000059127808 -0.045820001512765884
0.4422299861907959 0.22205999493598938 -0.048510000109672546
0.44190001487731934 0.22222000360488892 -0.051249999552965164
0.44093000888824463 0.22240999341011047 -0.05384000018239021
0.4392800033092499 0.2224700003862381 -0.056060001254081726
0.4377799928188324 0.22253000736236572 -0.05835000053048134
0.4363499879837036 0.2227099984884262 -0.060679998248815536
0.43474000692367554 0.22297999262809753 -0.06287000328302383
0.4331200122833252 0.22311000525951385 -0.06505999714136124
0.43178001046180725 0.2229599952697754 -0.06745000183582306
0.43081000447273254 0.22266000509262085 -0.07000000029802322
0.43018001317977905 0.2220499962568283 -0.07259000092744827
0.4295099973678589 0.2217700034379959 -0.07524000108242035
0.428710013628006 0.22189000248908997 -0.07786999642848969
0.42838001251220703 0.22210000455379486 -0.0806099995970726
0.4274500012397766 0.22203999757766724 -0.08320999890565872
0.4259899854660034 0.22161999344825745 -0.08550000190734863
0.42493000626564026 0.22112999856472015 -0.08797000348567963
0.42379000782966614 0.2207300066947937 -0.09043999761343002
0.42289999127388 0.22060999274253845 -0.09305000305175781
0.4221700131893158 0.2205899953842163 -0.09570000320672989
0.44266000390052795 0.22553999722003937 -0.0369499996304512
0.44269999861717224 0.22530999779701233 -0.03967000171542168
0.4424799978733063 0.22508999705314636 -0.04238000139594078
0.4418399930000305 0.22498999536037445 -0.04504000023007393
0.4411900043487549 0.22484000027179718 -0.047680001705884933
0.44056999683380127 0.22488999366760254 -0.05034000054001808
0.43970999121665955 0.2251099944114685 -0.05293000116944313
0.4381600022315979 0.22517000138759613 -0.0551999993622303
0.43658000230789185 0.22516000270843506 -0.057420000433921814
0.4351699948310852 0.2253500074148178 -0.05976000055670738
0.43369999527931213 0.2257000058889389 -0.06202999874949455
0.4320400059223175 0.2258100062608719 -0.06419000029563904
0.4306800067424774 0.2256300002336502 -0.06656000018119812
0.4298099875450134 0.22537000477313995 -0.06916999816894531
0.42941001057624817 0.2248300015926361 -0.07181999832391739
0.428739994764328 0.22452999651432037 -0.07444000244140625
0.4278700053691864 0.22460000216960907 -0.0770300030708313
0.4273099899291992 0.22471000254154205 -0.07970000058412552
0.4265199899673462 0.22472000122070312 -0.0823500007390976
0.4249599874019623 0.2242099940776825 -0.08455999940633774
0.42381998896598816 0.22366000711917877 -0.0869700014591217
0.422650009393692 0.2232300043106079 -0.08940999954938889
0.42173001170158386 0.22306999564170837 -0.09199000149965286
0.42085000872612 0.22292999923229218 -0.09457000344991684
0.4411599934101105 0.2279299944639206 -0.03903000056743622
0.44086000323295593 0.22798000276088715 -0.036320000886917114
0.44113001227378845 0.22782999277114868 -0.041749998927116394
0.4402500092983246 0.22754999995231628 -0.04433999955654144
0.43961000442504883 0.22741000354290009 -0.04698000103235245
0.43880999088287354 0.22732000052928925 -0.04958000034093857
0.43779999017715454 0.22741000354290009 -0.052080001682043076
0.43654999136924744 0.2276799976825714 -0.05448000133037567
0.4351600110530853 0.22777000069618225 -0.05680999904870987
0.4338200092315674 0.2280000001192093 -0.05917000025510788
0.4324199855327606 0.22838999330997467 -0.06145999953150749
0.4310399889945984 0.22864000499248505 -0.06379000097513199
0.42976999282836914 0.22851000726222992 -0.06620000302791595
0.42890000343322754 0.2282399982213974 -0.06880000233650208
0.428739994764328 0.22773000597953796 -0.07148999720811844
0.42785000801086426 0.2273399978876114 -0.07401999831199646
0.4268699884414673 0.22734999656677246 -0.07654999941587448
0.4260199964046478 0.22731000185012817 -0.07914000004529953
0.424919992685318 0.22711999714374542 -0.08161000162363052
0.42364001274108887 0.22678999602794647 -0.0839800015091896
0.4225099980831146 0.2262199968099594 -0.08639000356197357
0.4214699864387512 0.22585999965667725 -0.08888000249862671
0.4203999936580658 0.22559000551700592 -0.09137000143527985
0.4192200005054474 0.2252199947834015 -0.09379000216722488
0.41791999340057373 0.2247599959373474 -0.09611999988555908
0.43911999464035034 0.23011000454425812 -0.038189999759197235
0.4388599991798401 0.2301899939775467 -0.03550000116229057
0.4391700029373169 0.23010000586509705 -0.04089000076055527
0.43869999051094055 0.23011000454425812 -0.043549999594688416
0.4380500018596649 0.22995999455451965 -0.04617999866604805
0.4373700022697449 0.2299399971961975 -0.04879999905824661
0.43636998534202576 0.23002000153064728 -0.05130999907851219
0.4351100027561188 0.2302599996328354 -0.053700000047683716
0.43369999527931213 0.23033000528812408 -0.05603000149130821
0.4324699938297272 0.23061999678611755 -0.05843000113964081
0.4313499927520752 0.2311599999666214 -0.06084999814629555
0.4302999973297119 0.2315399944782257 -0.06330999732017517
0.4293299913406372 0.23148000240325928 -0.06584999710321426
0.428739994764328 0.23124000430107117 -0.06851000338792801
0.4282799959182739 0.23066000640392303 -0.07113000005483627
0.4271300137042999 0.2301899939775467 -0.07353000342845917
0.4259200096130371 0.23010000586509705 -0.07596000283956528
0.4249800145626068 0.2300100028514862 -0.07851000130176544
0.4239400029182434 0.2298399955034256 -0.08101999759674072
0.4225499927997589 0.22944000363349915 -0.0833199992775917
0.42127999663352966 0.22877000272274017 -0.08562999963760376
0.4200800061225891 0.22829000651836395 -0.08801999688148499
0.41905999183654785 0.22803999483585358 -0.09053000062704086
0.4177800118923187 0.22759999334812164 -0.0928800031542778
0.41651999950408936 0.22719000279903412 -0.09525000303983688
0.43720000982284546 0.2323099970817566 -0.037129998207092285
0.4367699921131134 0.23225000500679016 -0.03446999937295914
0.4373700022697449 0.2323800027370453 -0.039810001850128174
0.4371899962425232 0.23260000348091125 -0.042500000447034836
0.4366300106048584 0.23251000046730042 -0.045159999281167984
0.4360800087451935 0.23257000744342804 -0.04780000075697899
0.43490999937057495 0.23251000046730042 -0.05023999884724617
0.43366000056266785 0.23273999989032745 -0.052629999816417694
0.43244999647140503 0.23294000327587128 -0.05505000054836273
0.431410014629364 0.23332999646663666 -0.0575300008058548
0.43035998940467834 0.23388999700546265 -0.05996000021696091
0.42949000000953674 0.23432999849319458 -0.06247999891638756
0.42893001437187195 0.23436999320983887 -0.06513000279664993
0.4285300076007843 0.23416000604629517 -0.0678199976682663
0.42827001214027405 0.2336599975824356 -0.07056999951601028
0.42671000957489014 0.2330400049686432 -0.07276000082492828
0.4253399968147278 0.23287999629974365 -0.07508999854326248
0.42445001006126404 0.23280000686645508 -0.07766000181436539
0.4232200086116791 0.23253999650478363 -0.08005999773740768
0.42173001170158386 0.23208999633789062 -0.08229000121355057
0.42041999101638794 0.23138000071048737 -0.08455000072717667
0.41912001371383667 0.23083999752998352 -0.08687999844551086
0.4181700050830841 0.23060999810695648 -0.08941999822854996
0.4169999957084656 0.2302200049161911 -0.09183000028133392
0.4153299927711487 0.22946999967098236 -0.09382999688386917
0.4138199985027313 0.22898000478744507 -0.0960099995136261
0.43549999594688416 0.23469999432563782 -0.03613999858498573
0.43560999631881714 0.2347400039434433 -0.03881999850273132
0.4353800117969513 0.23491999506950378 -0.04148999974131584
0.4351600110530853 0.2350499927997589 -0.04416999965906143
0.43452998995780945 0.2350499927997589 -0.04678000137209892
0.433569997549057 0.23510999977588654 -0.04927999898791313
0.43241000175476074 0.23537999391555786 -0.05170999839901924
0.4314599931240082 0.23569999635219574 -0.05420999974012375
0.4304499924182892 0.23608000576496124 -0.056689999997615814
0.4293999969959259 0.2366500049829483 -0.059119999408721924
0.4288800060749054 0.23720000684261322 -0.061719998717308044
0.42813000082969666 0.23715999722480774 -0.0643099993467331
0.42765000462532043 0.23691000044345856 -0.06699000298976898
0.4271000027656555 0.23632000386714935 -0.06958000361919403
0.42607998847961426 0.23586000502109528 -0.07201000303030014
0.4249800145626068 0.2357800006866455 -0.0744599997997284
0.42416998744010925 0.2357099950313568 -0.07706999778747559
0.422789990901947 0.23538999259471893 -0.07941000163555145
0.4212999939918518 0.23492999374866486 -0.0816200003027916
0.41978999972343445 0.23413999378681183 -0.08370999991893768
0.41846999526023865 0.2335900068283081 -0.08602999895811081
0.41791000962257385 0.23345999419689178 -0.08872999995946884
0.4167200028896332 0.23307999968528748 -0.09119000285863876
0.41464999318122864 0.23210999369621277 -0.09273000061511993
0.4130200147628784 0.23151999711990356 -0.09478999674320221
0.43424999713897705 0.2373100072145462 -0.0377499982714653
0.4338900148868561 0.2371399998664856 -0.03508999943733215
0.4341599941253662 0.23757000267505646 -0.04042999818921089
0.4338499903678894 0.23763999342918396 -0.04311000183224678
0.43356001377105713 0.23781000077724457 -0.04580000042915344
0.4324199855327606 0.23777000606060028 -0.048250000923871994
0.4314500093460083 0.23812000453472137 -0.05073999986052513
0.4304499924182892 0.2383899986743927 -0.053210001438856125
0.4294300079345703 0.23875999450683594 -0.05567999929189682
0.42893001437187195 0.23951999843120575 -0.05823000147938728
0.428629994392395 0.24021999537944794 -0.060910001397132874
0.4272499978542328 0.23985999822616577 -0.06328999996185303
0.42645999789237976 0.23940999805927277 -0.06582000106573105
0.42603999376296997 0.23887999355793 -0.06842999905347824
0.42544999718666077 0.2386299967765808 -0.0710500031709671
0.42423999309539795 0.23848000168800354 -0.07345999777317047
0.42313000559806824 0.23827999830245972 -0.07591000199317932
0.4222800135612488 0.2381799966096878 -0.07847999781370163
0.4211300015449524 0.237869992852211 -0.0809599980711937
0.41951000690460205 0.23698000609874725 -0.08296000212430954
0.41811999678611755 0.23637999594211578 -0.08515000343322754
0.41718000173568726 0.23612000048160553 -0.08767999708652496
0.41596999764442444 0.23574000597000122 -0.09012000262737274
0.4140999913215637 0.23487000167369843 -0.0919400006532669
0.4123699963092804 0.2342199981212616 -0.09387999773025513
0.41067999601364136 0.2334499955177307 -0.09583999961614609
0.43276000022888184 0.23997999727725983 -0.03726999834179878
0.4323900043964386 0.2398100048303604 -0.034630000591278076
0.43285998702049255 0.240339994430542 -0.03993000090122223
0.4326600134372711 0.24045999348163605 -0.04259999841451645
0.4322899878025055 0.24059000611305237 -0.04529000073671341
0.4309999942779541 0.2404399961233139 -0.047690000385046005
0.4300900101661682 0.24079999327659607 -0.05019000172615051
0.42917999625205994 0.24110999703407288 -0.05268000066280365
0.42831000685691833 0.24153999984264374 -0.05517999827861786
0.42789000272750854 0.2423499971628189 -0.057739999145269394
0.426690012216568 0.24256999790668488 -0.06015000119805336
0.4255400002002716 0.24223999679088593 -0.06253000348806381
0.4248200058937073 0.24180999398231506 -0.06508000195026398
0.4244700074195862 0.24131999909877777 -0.06768999993801117
0.4239799976348877 0.24115000665187836 -0.0703200027346611
0.4230000078678131 0.24111999571323395 -0.07282000035047531
0.4218499958515167 0.24087999761104584 -0.07523000240325928
0.420740008354187 0.24060000479221344 -0.07765000313520432
0.4198000133037567 0.24045999348163605 -0.08020000159740448
0.41843000054359436 0.23966999351978302 -0.08239000290632248
0.41705000400543213 0.2390500009059906 -0.08460000157356262
0.4156999886035919 0.23851999640464783 -0.08683999627828598
0.4144099950790405 0.2380400002002716 -0.08913999795913696
0.41319000720977783 0.2376299947500229 -0.09151999652385712
0.4113599956035614 0.23691000044345856 -0.09337999671697617
0.4095500111579895 0.23608000576496124 -0.09520000219345093
0.4316900074481964 0.24289999902248383 -0.0372299998998642
0.4313499927520752 0.2430499941110611 -0.03988000005483627
0.4309999942779541 0.2430800050497055 -0.04252000153064728
0.43039000034332275 0.2430499941110611 -0.045099999755620956
0.4294799864292145 0.24311000108718872 -0.047600001096725464
0.42858999967575073 0.24345999956130981 -0.0500900000333786
0.4279100000858307 0.24387000501155853 -0.052629999816417694
0.42715999484062195 0.24435000121593475 -0.05513999983668327
0.4261699914932251 0.2448599934577942 -0.05756000056862831
0.42482998967170715 0.24493999779224396 -0.059870000928640366
0.423770010471344 0.24467000365257263 -0.0622900016605854
0.4231700003147125 0.24431000649929047 -0.06486999988555908
0.4228000044822693 0.2437800019979477 -0.06745000183582306
0.42221999168395996 0.24354000389575958 -0.07002999633550644
0.42120999097824097 0.2434699982404709 -0.07249999791383743
0.42002999782562256 0.24318000674247742 -0.07486999779939651
0.4189099967479706 0.24289000034332275 -0.07726000249385834
0.417930006980896 0.24269999563694 -0.0797400027513504
0.41670000553131104 0.24202999472618103 -0.0820000022649765
0.4155200123786926 0.24153000116348267 -0.08433999866247177
0.4141800105571747 0.24098999798297882 -0.08658000081777573
0.4130200147628784 0.24059000611305237 -0.08894000202417374
0.4117499887943268 0.2401600033044815 -0.091279998421669
0.41005000472068787 0.23950999975204468 -0.09324999898672104
0.40836000442504883 0.23874999582767487 -0.09516000002622604
0.43042001128196716 0.2457199990749359 -0.03703000023961067
0.4299600124359131 0.24580000340938568 -0.039639998227357864
0.4295400083065033 0.24580000340938568 -0.04225999861955643
0.4290100038051605 0.24581000208854675 -0.044849999248981476
0.42816999554634094 0.24589000642299652 -0.047370001673698425
0.42746999859809875 0.24630999565124512 -0.049890000373125076
0.426829993724823 0.24671000242233276 -0.05243000015616417
0.4258800148963928 0.24708999693393707 -0.05488999933004379
0.42467001080513 0.2474599927663803 -0.05722000077366829
0.4235599935054779 0.2476699948310852 -0.05959999933838844
0.4226599931716919 0.24748000502586365 -0.06207000091671944
0.4219599962234497 0.24705000221729279 -0.06458999961614609
0.4214099943637848 0.24640999734401703 -0.06710000336170197
0.42059001326560974 0.24598999321460724 -0.06958000361919403
0.41940000653266907 0.2457599937915802 -0.07193999737501144
0.4182800054550171 0.24550999701023102 -0.07433000206947327
0.4172399938106537 0.24527999758720398 -0.07676000148057938
0.4161800146102905 0.24501000344753265 -0.07917000353336334
0.41508999466896057 0.2444400042295456 -0.08150999993085861
0.4138700067996979 0.24390000104904175 -0.08380000293254852
0.41266000270843506 0.24345000088214874 -0.08611000329256058
0.41154998540878296 0.24307000637054443 -0.0885000005364418
0.4101699888706207 0.24255000054836273 -0.09070999920368195
0.40863001346588135 0.24202999472618103 -0.09279999881982803
0.4071899950504303 0.24142000079154968 -0.094930000603199
0.42903000116348267 0.24848000705242157 -0.03678999841213226
0.4284600019454956 0.2485000044107437 -0.03937000036239624
0.4280700087547302 0.2485000044107437 -0.04197999835014343
0.4275999963283539 0.248539999127388 -0.04456999897956848
0.42699000239372253 0.24872000515460968 -0.047129999846220016
0.4263800084590912 0.2491600066423416 -0.04966000095009804
0.42590999603271484 0.24961000680923462 -0.052239999175071716
0.4247699975967407 0.24988999962806702 -0.05463000014424324
0.4234299957752228 0.2502000033855438 -0.05688000097870827
0.42236998677253723 0.25042998790740967 -0.05928000062704086
0.4214099943637848 0.25018998980522156 -0.06171000003814697
0.4206799864768982 0.24973000586032867 -0.06419999897480011
0.4199399948120117 0.24897000193595886 -0.06661999970674515
0.419050008058548 0.24848000705242157 -0.06904000043869019
0.417930006980896 0.24829000234603882 -0.07141999900341034
0.41686999797821045 0.24807000160217285 -0.0738300010561943
0.41578999161720276 0.24778999388217926 -0.07621999830007553
0.41464999318122864 0.24747000634670258 -0.07857000082731247
0.41370999813079834 0.24696999788284302 -0.08098000288009644
0.4126499891281128 0.24652999639511108 -0.08336000144481659
0.4117099940776825 0.24617999792099 -0.08579999953508377
0.41040998697280884 0.2456900030374527 -0.0880500003695488
0.4088999927043915 0.24511000514030457 -0.09013000130653381
0.4074699878692627 0.24466000497341156 -0.09229999780654907
0.40630999207496643 0.24417999386787415 -0.0946199968457222
0.4047600030899048 0.24368000030517578 -0.09669999778270721
0.42743998765945435 0.2511500120162964 -0.03680000081658363
0.4271799921989441 0.2513200044631958 -0.039400000125169754
0.42680999636650085 0.2513299882411957 -0.041999999433755875
0.4262300133705139 0.25130999088287354 -0.04456000030040741
0.425680011510849 0.2515000104904175 -0.047120001167058945
0.4251900017261505 0.25196999311447144 -0.04966000095009804
0.424699991941452 0.25242000818252563 -0.05222000181674957
0.4234899878501892 0.2526499927043915 -0.05455999821424484
0.4221000075340271 0.2529299855232239 -0.056779999285936356
0.42100998759269714 0.2531299889087677 -0.05914999917149544
0.42030999064445496 0.2529900074005127 -0.06167000159621239
0.4195300042629242 0.25249001383781433 -0.06413000077009201
0.4186500012874603 0.25165998935699463 -0.06645999848842621
0.41767001152038574 0.2511099874973297 -0.06881999969482422
0.41659998893737793 0.2509300112724304 -0.07120999693870544
0.41547998785972595 0.2506600022315979 -0.07355999946594238
0.4263699948787689 0.2540600001811981 -0.03675999864935875
0.42614999413490295 0.2542499899864197 -0.03937000036239624
0.4257600009441376 0.2542400062084198 -0.04196999967098236
0.42528000473976135 0.2542499899864197 -0.044530000537633896
0.42458999156951904 0.2543700039386749 -0.04704999923706055
0.423880010843277 0.25473999977111816 -0.049539998173713684
0.42320001125335693 0.2550700008869171 -0.05203999951481819
0.4220699965953827 0.25532999634742737 -0.05437999963760376
0.42465001344680786 0.2571200132369995 -0.041689999401569366
0.4249500036239624 0.2570900022983551 -0.039090000092983246
0.42410001158714294 0.2570900022983551 -0.04424000158905983
POLYGONS 1072 4288
3 0 1 2
3 0 3 1
3 3 4 1
3 1 4 5
3 6 7 8
3 8 7 9
3 7 10 9
3 7 11 10
3 11 12 10
3 11 2 12
3 2 13 12
3 2 1 13
3 1 5 13
3 13 5 14
3 5 15 14
3 14 15 16
3 17 18 19
3 18 20 19
3 19 20 21
3 20 22 21
3 21 22 23
3 22 24 23
3 23 24 25
3 24 26 25
3 25 26 27
3 26 28 27
3 27 28 29
3 28 30 29
3 29 30 31
3 30 8 31
3 31 8 32
3 8 9 32
3 32 9 33
3 9 10 33
3 33 10 34
3 10 12 34
3 34 12 35
3 12 13 35
3 35 13 36
3 13 14 36
3 36 14 37
3 14 16 37
3 37 16 38
3 39 40 41
3 40 17 41
3 41 17 42
3 17 19 42
3 42 19 43
3 19 21 43
3 43 21 44
3 21 23 44
3 44 23 45
3 23 25 45
3 45 25 46
3 25 27 46
3 46 27 47
3 27 29 47
3 47 29 48
3 29 31 48
3 48 31 49
3 31 32 49
3 49 32 50
3 32 33 50
3 50 33 51
3 33 34 51
3 51 34 52
3 34 35 52
3 52 35 53
3 35 36 53
3 53 36 54
3 36 37 54
3 54 37 55
3 37 38 55
3 56 57 58
3 57 59 58
3 58 59 60
3 59 39 60
3 60 39 61
3 39 41 61
3 61 41 62
3 41 42 62
3 62 42 63
3 42 43 63
3 63 43 64
3 43 44 64
3 64 44 65
3 44 45 65
3 65 45 66
3 45 46 66
3 66 46 67
3 46 47 67
3 67 47 68
3 47 48 68
3 68 48 69
3 48 49 69
3 69 49 70
3 49 50 70
3 70 50 71
3 50 51 71
3 71 51 72
3 51 52 72
3 72 52 73
3 52 53 73
3 73 53 74
3 53 54 74
3 74 54 75
3 54 55 75
3 75 55 76
3 77 78 79
3 77 80 78
3 80 81 78
3 78 81 82
3 81 83 82
3 82 83 84
3 83 85 84
3 84 85 86
3 85 87 86
3 86 87 88
3 87 56 88
3 88 56 89
3 56 58 89
3 89 58 90
3 58 60 90
3 90 60 91
3 60 61 91
3 91 61 92
3 61 62 92
3 92 62 93
3 62 63 93
3 93 63 94
3 63 64 94
3 94 64 95
3 64 65 95
3 95 65 96
3 65 66 96
3 96 66 97
3 66 67 97
3 97 67 98
3 67 68 98
3 98 68 99
3 68 69 99
3 99 69 100
3 69 70 100
3 100 70 101
3 70 71 101
3 101 71 102
3 71 72 102
3 102 72 103
3 72 73 103
3 103 73 104
3 73 74 104
3 104 74 105
3 74 75 105
3 105 75 106
3 75 76 106
3 106 76 107
3 79 108 109
3 79 78 108
3 78 82 108
3 108 82 110
3 82 84 110
3 110 84 111
3 84 86 111
3 111 86 112
3 86 88 112
3 112 88 113
3 88 89 113
3 113 89 114
3 89 90 114
3 114 90 115
3 90 91 115
3 115 91 116
3 91 92 116
3 116 92 117
3 92 93 117
3 117 93 118
3 93 94 118
3 118 94 119
3 94 95 119
3 119 95 120
3 95 96 120
3 120 96 121
3 96 97 121
3 121 97 122
3 97 98 122
3 122 98 123
3 98 99 123
3 123 99 124
3 99 100 124
3 124 100 125
3 100 101 125
3 125 101 126
3 101 102 126
3 126 102 127
3 102 103 127
3 127 103 128
3 103 104 128
3 128 104 129
3 104 105 129
3 129 105 130
3 105 106 130
3 130 106 131
3 106 107 131
3 131 107 132
3 109 133 134
3 109 108 133
3 108 110 133
3 133 110 135
3 110 111 135
3 135 111 136
3 111 112 136
3 136 112 137
3 112 113 137
3 137 113 138
3 113 114 138
3 138 114 139
3 114 115 139
3 139 115 140
3 115 116 140
3 140 116 141
3 116 117 141
3 141 117 142
3 117 118 142
3 142 118 143
3 118 119 143
3 143 119 144
3 119 120 144
3 144 120 145
3 120 121 145
3 145 121 146
3 121 122 146
3 146 122 147
3 122 148 147
3 122 123 148
3 123 124 148
3 148 124 149
3 124 125 149
3 149 125 150
3 125 126 150
3 150 126 151
3 126 127 151
3 151 127 152
3 127 128 152
3 152 128 153
3 128 129 153
3 153 129 154
3 129 130 154
3 154 130 155
3 130 131 155
3 155 131 156
3 131 132 156
3 156 132 157
3 134 158 159
3 134 133 158
3 133 135 158
3 158 135 160
3 135 136 160
3 160 136 161
3 136 137 161
3 161 137 162
3 137 138 162
3 162 138 163
3 138 139 163
3 163 139 164
3 139 140 164
3 164 140 165
3 140 141 165
3 165 141 166
3 141 142 166
3 166 142 167
3 142 143 167
3 167 143 168
3 143 144 168
3 168 144 169
3 144 145 169
3 169 145 170
3 145 146 170
3 170 146 171
3 146 147 171
3 171 147 172
3 147 173 172
3 147 148 173
3 148 149 173
3 173 149 174
3 149 150 174
3 174 150 175
3 150 151 175
3 175 151 176
3 151 152 176
3 176 152 177
3 152 153 177
3 177 153 178
3 153 154 178
3 178 154 179
3 154 155 179
3 179 155 180
3 155 156 180
3 180 156 181
3 156 157 181
3 181 157 182
3 159 158 183
3 183 158 184
3 158 160 184
3 184 160 185
3 160 161 185
3 185 161 186
3 161 162 186
3 186 162 187
3 162 163 187
3 187 163 188
3 163 164 188
3 188 164 189
3 164 165 189
3 189 165 190
3 165 166 190
3 190 166 191
3 166 167 191
3 191 167 192
3 167 168 192
3 192 168 193
3 168 169 193
3 193 169 194
3 169 170 194
3 194 170 195
3 170 171 195
3 195 171 196
3 171 172 196
3 196 172 197
3 172 173 197
3 197 173 198
3 173 174 198
3 198 174 199
3 174 175 199
3 199 175 200
3 175 176 200
3 200 176 201
3 176 177 201
3 201 177 202
3 177 178 202
3 202 178 203
3 178 179 203
3 203 179 204
3 179 180 204
3 204 180 205
3 180 181 205
3 205 181 206
3 181 182 206
3 206 182 207
3 183 184 208
3 208 184 209
3 184 185 209
3 209 185 210
3 185 186 210
3 210 186 211
3 186 187 211
3 211 187 212
3 187 188 212
3 212 188 213
3 188 189 213
3 213 189 214
3 189 190 214
3 214 190 215
3 190 191 215
3 215 191 216
3 191 192 216
3 216 192 217
3 192 193 217
3 217 193 218
3 193 194 218
3 218 194 219
3 194 195 219
3 219 195 220
3 195 196 220
3 220 196 221
3 196 197 221
3 221 197 222
3 197 198 222
3 222 198 223
3 198 199 223
3 223 199 224
3 199 200 224
3 224 200 225
3 200 201 225
3 225 201 226
3 201 202 226
3 226 202 227
3 202 203 227
3 227 203 228
3 203 204 228
3 228 204 229
3 204 205 229
3 229 205 230
3 205 206 230
3 230 206 231
3 206 207 231
3 232 208 233
3 208 209 233
3 233 209 234
3 209 210 234
3 234 210 235
3 210 211 235
3 235 211 236
3 211 212 236
3 236 212 237
3 212 213 237
3 237 213 238
3 213 214 238
3 238 214 239
3 214 215 239
3 239 215 240
3 215 216 240
3 240 216 241
3 216 217 241
3 241 217 242
3 217 218 242
3 242 218 243
3 218 219 243
3 243 219 244
3 219 220 244
3 244 220 245
3 220 221 245
3 245 221 246
3 221 222 246
3 246 222 247
3 222 223 247
3 247 223 248
3 223 224 248
3 248 224 249
3 224 225 249
3 249 225 250
3 225 226 250
3 250 226 251
3 226 227 251
3 251 227 252
3 227 228 252
3 252 228 253
3 228 229 253
3 253 229 254
3 229 230 254
3 254 230 255
3 230 231 255
3 255 231 256
3 232 233 257
3 233 258 257
3 233 234 258
3 234 259 258
3 234 235 259
3 235 260 259
3 235 236 260
3 236 237 260
3 260 237 261
3 237 238 261
3 261 238 262
3 238 239 262
3 262 239 263
3 239 240 263
3 263 240 264
3 240 241 264
3 264 241 265
3 241 242 265
3 265 242 266
3 242 243 266
3 266 243 267
3 243 244 267
3 267 244 268
3 244 245 268
3 268 245 269
3 245 246 269
3 269 246 270
3 246 271 270
3 246 247 271
3 247 272 271
3 247 248 272
3 248 273 272
3 248 249 273
3 249 250 273
3 273 250 274
3 250 251 274
3 274 251 275
3 251 252 275
3 275 252 276
3 252 253 276
3 276 253 277
3 253 278 277
3 253 254 278
3 254 279 278
3 254 255 279
3 255 280 279
3 255 256 280
3 257 281 282
3 257 258 281
3 258 283 281
3 258 259 283
3 259 284 283
3 259 260 284
3 260 285 284
3 260 261 285
3 261 286 285
3 261 262 286
3 262 287 286
3 262 263 287
3 263 288 287
3 263 264 288
3 264 265 288
3 288 265 289
3 265 290 289
3 265 266 290
3 266 291 290
3 266 267 291
3 267 268 291
3 291 268 292
3 268 269 292
3 292 269 293
3 269 294 293
3 269 270 294
3 270 295 294
3 270 271 295
3 271 296 295
3 271 272 296
3 272 297 296
3 272 273 297
3 273 298 297
3 273 274 298
3 274 299 298
3 274 275 299
3 275 300 299
3 275 276 300
3 276 301 300
3 276 277 301
3 277 302 301
3 277 278 302
3 278 303 302
3 278 279 303
3 279 304 303
3 279 280 304
3 280 305 304
3 282 281 306
3 281 307 306
3 281 283 307
3 283 308 307
3 283 284 308
3 284 309 308
3 284 285 309
3 285 310 309
3 285 286 310
3 286 311 310
3 286 287 311
3 287 312 311
3 287 288 312
3 288 289 312
3 312 289 313
3 289 314 313
3 289 290 314
3 290 291 314
3 314 291 315
3 291 292 315
3 315 292 316
3 292 293 316
3 316 293 317
3 293 318 317
3 293 294 318
3 294 319 318
3 294 295 319
3 295 320 319
3 295 296 320
3 296 321 320
3 296 297 321
3 297 322 321
3 297 298 322
3 298 323 322
3 298 299 323
3 299 324 323
3 299 300 324
3 300 325 324
3 300 301 325
3 301 326 325
3 301 302 326
3 302 327 326
3 302 303 327
3 303 328 327
3 303 304 328
3 304 329 328
3 304 305 329
3 306 330 331
3 306 307 330
3 307 332 330
3 307 308 332
3 308 333 332
3 308 309 333
3 309 334 333
3 309 310 334
3 310 335 334
3 310 311 335
3 311 336 335
3 311 312 336
3 312 313 336
3 336 313 337
3 313 314 337
3 337 314 338
3 314 315 338
3 338 315 339
3 315 316 339
3 339 316 340
3 316 317 340
3 340 317 341
3 317 318 341
3 341 318 342
3 318 343 342
3 318 319 343
3 319 344 343
3 319 320 344
3 320 345 344
3 320 321 345
3 321 346 345
3 321 322 346
3 322 347 346
3 322 323 347
3 323 348 347
3 323 324 348
3 324 349 348
3 324 325 349
3 325 350 349
3 325 326 350
3 326 351 350
3 326 327 351
3 327 352 351
3 327 328 352
3 328 353 352
3 328 329 353
3 329 354 353
3 331 355 356
3 331 330 355
3 330 357 355
3 330 332 357
3 332 358 357
3 332 333 358
3 333 359 358
3 333 334 359
3 334 360 359
3 334 335 360
3 335 361 360
3 335 336 361
3 336 337 361
3 361 337 362
3 337 338 362
3 362 338 363
3 338 339 363
3 363 339 364
3 339 340 364
3 364 340 365
3 340 341 365
3 365 341 366
3 341 367 366
3 341 342 367
3 342 368 367
3 342 343 368
3 343 369 368
3 343 344 369
3 344 370 369
3 344 345 370
3 345 371 370
3 345 346 371
3 346 372 371
3 346 347 372
3 347 373 372
3 347 348 373
3 348 374 373
3 348 349 374
3 349 375 374
3 349 350 375
3 350 376 375
3 350 351 376
3 351 377 376
3 351 352 377
3 352 378 377
3 352 353 378
3 353 379 378
3 353 354 379
3 356 380 381
3 356 355 380
3 355 382 380
3 355 357 382
3 357 383 382
3 357 358 383
3 358 384 383
3 358 359 384
3 359 385 384
3 359 360 385
3 360 386 385
3 360 361 386
3 361 387 386
3 361 362 387
3 362 388 387
3 362 363 388
3 363 389 388
3 363 364 389
3 364 365 389
3 389 365 390
3 365 391 390
3 365 366 391
3 366 392 391
3 366 367 392
3 367 393 392
3 367 368 393
3 368 394 393
3 368 369 394
3 369 395 394
3 369 370 395
3 370 396 395
3 370 371 396
3 371 397 396
3 371 372 397
3 372 398 397
3 372 373 398
3 373 399 398
3 373 374 399
3 374 400 399
3 374 375 400
3 375 401 400
3 375 376 401
3 376 402 401
3 376 377 402
3 377 403 402
3 377 378 403
3 378 404 403
3 378 379 404
3 379 405 404
3 381 380 406
3 380 407 406
3 380 382 407
3 382 408 407
3 382 383 408
3 383 409 408
3 383 384 409
3 384 410 409
3 384 385 410
3 385 411 410
3 385 386 411
3 386 412 411
3 386 387 412
3 387 413 412
3 387 388 413
3 388 389 413
3 413 389 414
3 389 390 414
3 414 390 415
3 390 416 415
3 390 391 416
3 391 417 416
3 391 392 417
3 392 418 417
3 392 393 418
3 393 419 418
3 393 394 419
3 394 420 419
3 394 395 420
3 395 421 420
3 395 396 421
3 396 422 421
3 396 397 422
3 397 423 422
3 397 398 423
3 398 424 423
3 398 399 424
3 399 425 424
3 399 400 425
3 400 426 425
3 400 401 426
3 401 427 426
3 401 402 427
3 402 428 427
3 402 403 428
3 403 429 428
3 403 404 429
3 404 430 429
3 404 405 430
3 406 431 432
3 406 407 431
3 407 433 431
3 407 408 433
3 408 434 433
3 408 409 434
3 409 435 434
3 409 410 435
3 410 436 435
3 410 411 436
3 411 437 436
3 411 412 437
3 412 438 437
3 412 413 438
3 413 439 438
3 413 414 439
3 414 415 439
3 439 415 440
3 415 441 440
3 415 416 441
3 416 442 441
3 416 417 442
3 417 443 442
3 417 418 443
3 418 444 443
3 418 419 444
3 419 445 444
3 419 420 445
3 420 446 445
3 420 421 446
3 421 447 446
3 421 422 447
3 422 448 447
3 422 423 448
3 423 449 448
3 423 424 449
3 424 450 449
3 424 425 450
3 425 451 450
3 425 426 451
3 426 452 451
3 426 427 452
3 427 453 452
3 427 428 453
3 428 454 453
3 428 429 454
3 429 455 454
3 429 430 455
3 430 456 455
3 432 457 458
3 432 431 457
3 431 459 457
3 431 433 459
3 433 460 459
3 433 434 460
3 434 461 460
3 434 435 461
3 435 436 461
3 461 436 462
3 436 437 462
3 462 437 463
3 437 438 463
3 463 438 464
3 438 439 464
3 464 439 465
3 439 440 465
3 465 440 466
3 440 441 466
3 466 441 467
3 441 468 467
3 441 442 468
3 442 469 468
3 442 443 469
3 443 470 469
3 443 444 470
3 444 471 470
3 444 445 471
3 445 472 471
3 445 446 472
3 446 473 472
3 446 447 473
3 447 474 473
3 447 448 474
3 448 475 474
3 448 449 475
3 449 476 475
3 449 450 476
3 450 477 476
3 450 451 477
3 451 478 477
3 451 452 478
3 452 479 478
3 452 453 479
3 453 480 479
3 453 454 480
3 454 481 480
3 454 455 481
3 455 482 481
3 455 456 482
3 458 457 483
3 457 459 483
3 483 459 484
3 459 460 484
3 484 460 485
3 460 461 485
3 485 461 486
3 461 462 486
3 486 462 487
3 462 463 487
3 487 463 488
3 463 464 488
3 488 464 489
3 464 465 489
3 489 465 490
3 465 466 490
3 490 466 491
3 466 467 491
3 491 467 492
3 467 468 492
3 492 468 493
3 468 494 493
3 468 469 494
3 469 495 494
3 469 470 495
3 470 496 495
3 470 471 496
3 471 472 496
3 496 472 497
3 472 473 497
3 497 473 498
3 473 474 498
3 498 474 499
3 474 475 499
3 499 475 500
3 475 501 500
3 475 476 501
3 476 502 501
3 476 477 502
3 477 478 502
3 502 478 503
3 478 479 503
3 503 479 504
3 479 480 504
3 504 480 505
3 480 481 505
3 505 481 506
3 481 482 506
3 506 482 507
3 483 484 508
3 508 484 509
3 484 510 509
3 484 485 510
3 485 486 510
3 510 486 511
3 486 487 511
3 511 487 512
3 487 488 512
3 512 488 513
3 488 489 513
3 513 489 514
3 489 490 514
3 514 490 515
3 490 491 515
3 515 491 516
3 491 492 516
3 516 492 517
3 492 493 517
3 517 493 518
3 493 519 518
3 493 494 519
3 494 520 519
3 494 495 520
3 495 521 520
3 495 496 521
3 496 497 521
3 521 497 522
3 497 523 522
3 497 498 523
3 498 524 523
3 498 499 524
3 499 525 524
3 499 500 525
3 500 526 525
3 500 501 526
3 501 527 526
3 501 502 527
3 502 528 527
3 502 503 528
3 503 529 528
3 503 504 529
3 504 530 529
3 504 505 530
3 505 531 530
3 505 506 531
3 506 532 531
3 506 507 532
3 508 509 533
3 533 509 534
3 509 535 534
3 509 510 535
3 510 511 535
3 535 511 536
3 511 512 536
3 536 512 537
3 512 513 537
3 537 513 538
3 513 514 538
3 538 514 539
3 514 515 539
3 539 515 540
3 515 516 540
3 540 516 541
3 516 517 541
3 541 517 542
3 517 543 542
3 517 518 543
3 518 544 543
3 518 519 544
3 519 545 544
3 519 520 545
3 520 546 545
3 520 521 546
3 521 547 546
3 521 522 547
3 522 548 547
3 522 523 548
3 523 549 548
3 523 524 549
3 524 550 549
3 524 525 550
3 525 551 550
3 525 526 551
3 526 552 551
3 526 527 552
3 527 553 552
3 527 528 553
3 528 554 553
3 528 529 554
3 529 555 554
3 529 530 555
3 530 556 555
3 530 531 556
3 531 557 556
3 531 532 557
3 532 558 557
3 533 534 559
3 559 534 560
3 534 535 560
3 560 535 561
3 535 536 561
3 561 536 562
3 536 537 562
3 562 537 563
3 537 538 563
3 563 538 564
3 538 539 564
3 564 539 565
3 539 540 565
3 565 540 566
3 540 541 566
3 566 541 567
3 541 542 567
3 567 542 568
3 542 543 568
3 568 543 569
3 543 570 569
3 543 544 570
3 544 571 570
3 544 545 571
3 545 572 571
3 545 546 572
3 546 547 572
3 572 547 573
3 547 548 573
3 573 548 574
3 548 549 574
3 559 560 575
3 575 560 576
3 560 561 576
3 576 561 577
3 561 562 577
3 577 562 578
3 562 563 578
3 578 563 579
3 563 564 579
3 579 564 580
3 564 565 580
3 580 565 581
3 565 566 581
3 581 566 582
3 566 567 582
3 576 583 584
3 576 577 583
3 577 585 583
3 577 578 585
3 578 579 585

CELL_DATA 1072
SCALARS longitude float 1
LOOKUP_TABLE default
23.065000534057617
22.972999572753906
23.006999969482422
23.128000259399414
23.17799949645996
23.30500030517578
23.32699966430664
23.222000122070312
23.356000900268555
23.259000778198242
23.39900016784668
23.299999237060547
23.32900047302246
23.459999084472656
23.39900016784668
23.547000885009766
23.413000106811523
23.350000381469727
23.488000869750977
23.398000717163086
23.520000457763672
23.393999099731445
23.4950008392334
23.36400032043457
23.479999542236328
23.385000228881836
23.517000198364258
23.441999435424805
23.56800079345703
23.48200035095215
23.60300064086914
23.51799964904785
23.64699935913086
23.55500030517578
23.677000045776367
23.583999633789062
23.711000442504883
23.624000549316406
23.753000259399414
23.67099952697754
23.80500030517578
23.742000579833984
23.88599967956543
23.499000549316406
23.479000091552734
23.62700080871582
23.600000381469727
23.73699951171875
23.687000274658203
23.81100082397461
23.732999801635742
23.843000411987305
23.729999542236328
23.819000244140625
23.700000762939453
23.80299949645996
23.715999603271484
23.836000442504883
23.763999938964844
23.881000518798828
23.805999755859375
23.923999786376953
23.850000381469727
23.968000411987305
23.886999130249023
23.996999740600586
23.913999557495117
24.02899932861328
23.954999923706055
24.073999404907227
24.006000518798828
24.12700080871582
24.06999969482422
23.490999221801758
23.44099998474121
23.58799934387207
23.552000045776367
23.70199966430664
23.672000885009766
23.823999404907227
23.798999786376953
23.952999114990234
23.917999267578125
24.06100082397461
24.003999710083008
24.135000228881836
24.051000595092773
24.16699981689453
24.047000885009766
24.142000198364258
24.017000198364258
24.125999450683594
24.031999588012695
24.159000396728516
24.079999923706055
24.20400047302246
24.12299919128418
24.246999740600586
24.16699981689453
24.291000366210938
24.202999114990234
24.319000244140625
24.22800064086914
24.35099983215332
24.270000457763672
24.395999908447266
24.320999145507812
24.450000762939453
23.79400062561035
23.6560001373291
23.62299919128418
23.73200035095215
23.604999542236328
23.7189998626709
23.604000091552734
23.725000381469727
23.618000030517578
23.740999221801758
23.642000198364258
23.773000717163086
23.694000244140625
23.834999084472656
23.780000686645508
23.93199920654297
23.889999389648438
24.04400062561035
24.009000778198242
24.16699981689453
24.13599967956543
24.295000076293945
24.2549991607666
24.40399932861328
24.340999603271484
24.47599983215332
24.38599967956543
24.506000518798828
24.381999969482422
24.48200035095215
24.351999282836914
24.466999053955078
24.368000030517578
24.5
24.415000915527344
24.545000076293945
24.45800018310547
24.58799934387207
24.500999450683594
24.631999969482422
24.538000106811523
24.659000396728516
24.562999725341797
24.69099998474121
24.604000091552734
24.73699951171875
24.656999588012695
24.79400062561035
24.143999099731445
24.003999710083008
23.975000381469727
24.083999633789062
23.954999923706055
24.06800079345703
23.952999114990234
24.075000762939453
23.969999313354492
24.091999053955078
23.993999481201172
24.125
24.045000076293945
24.187000274658203
24.128999710083008
24.281999588012695
24.23900032043457
24.393999099731445
24.357999801635742
24.516000747680664
24.483999252319336
24.642000198364258
24.601999282836914
24.74799919128418
24.684999465942383
24.81800079345703
24.729999542236328
24.849000930786133
24.72599983215332
24.825000762939453
24.69700050354004
24.81100082397461
24.714000701904297
24.84600067138672
24.76099967956543
24.891000747680664
24.804000854492188
24.93400001525879
24.847999572753906
24.97800064086914
24.884000778198242
25.0049991607666
24.909000396728516
25.038000106811523
24.95199966430664
25.084999084472656
25.006000518798828
25.138999938964844
24.489999771118164
24.356000900268555
24.325000762939453
24.43400001525879
24.305999755859375
24.42300033569336
24.305999755859375
24.43199920654297
24.323999404907227
24.448999404907227
24.347999572753906
24.479999542236328
24.39900016784668
24.54199981689453
24.482999801635742
24.63599967956543
24.59000015258789
24.7450008392334
24.707000732421875
24.864999771118164
24.832000732421875
24.98699951171875
24.94300079345703
25.08799934387207
25.027000427246094
25.163000106811523
25.072999954223633
25.19499969482422
25.18899917602539
25.055999755859375
25.042999267578125
25.160999298095703
25.06100082397461
25.19499969482422
25.108999252319336
25.239999771118164
25.152000427246094
25.284000396728516
25.195999145507812
25.32699966430664
25.231000900268555
25.354999542236328
25.256999969482422
25.38599967956543
25.298999786376953
25.43199920654297
25.35099983215332
25.48200035095215
24.841999053955078
24.70199966430664
24.677000045776367
24.791000366210938
24.663999557495117
24.7810001373291
24.666000366210938
24.791000366210938
24.683000564575195
24.805999755859375
24.704999923706055
24.836999893188477
24.7549991607666
24.89699935913086
24.836999893188477
24.988000869750977
24.941999435424805
25.0939998626709
25.055999755859375
25.20599937438965
25.17099952697754
25.322999954223633
25.284000396728516
25.43600082397461
25.375999450683594
25.51300048828125
25.42300033569336
25.545000076293945
25.535999298095703
25.406999588012695
25.39299964904785
25.507999420166016
25.40999984741211
25.542999267578125
25.458999633789062
25.59000015258789
25.50200080871582
25.632999420166016
25.54599952697754
25.677000045776367
25.582000732421875
25.70400047302246
25.606000900268555
25.732999801635742
25.645999908447266
25.774999618530273
25.691999435424805
25.820999145507812
25.077999114990234
25.17300033569336
25.0310001373291
25.142000198364258
25.01799964904785
25.131999969482422
25.020000457763672
25.141000747680664
25.035999298095703
25.156999588012695
25.059999465942383
25.18899917602539
25.107999801635742
25.246000289916992
25.18600082397461
25.33300018310547
25.285999298095703
25.433000564575195
25.391000747680664
25.542999267578125
25.510000228881836
25.667999267578125
25.631999969482422
25.777999877929688
25.719999313354492
25.84600067138672
25.76300048828125
25.87700080871582
25.760000228881836
25.85700035095215
25.733999252319336
25.84600067138672
25.753000259399414
25.882999420166016
25.804000854492188
25.930999755859375
25.847999572753906
25.97599983215332
25.892000198364258
26.018999099731445
25.927000045776367
26.045000076293945
25.948999404907227
26.072999954223633
25.986000061035156
26.113000869750977
26.030000686645508
26.159000396728516
25.424999237060547
25.520999908447266
25.3799991607666
25.490999221801758
25.365999221801758
25.481000900268555
25.367000579833984
25.48900032043457
25.384000778198242
25.503999710083008
25.406999588012695
25.53499984741211
25.45400047302246
25.590999603271484
25.52899932861328
25.674999237060547
25.625
25.773000717163086
25.732999801635742
25.881999969482422
25.850000381469727
25.9950008392334
25.958999633789062
26.094999313354492
26.041000366210938
26.163999557495117
26.083999633789062
26.19700050354004
26.086000442504883
26.18199920654297
26.06399917602539
26.17300033569336
26.084999084472656
26.21299934387207
26.138999938964844
26.263999938964844
26.18400001525879
26.30900001525879
26.22800064086914
26.351999282836914
26.261999130249023
26.37700080871582
26.284000396728516
26.4060001373291
26.320999145507812
26.44499969482422
26.364999771118164
25.92099952697754
25.770999908447266
25.868999481201172
25.729999542236328
25.840999603271484
25.715999603271484
25.83099937438965
25.716999053955078
25.83799934387207
25.731000900268555
25.851999282836914
25.753000259399414
25.882999420166016
25.801000595092773
25.937999725341797
25.874000549316406
26.020000457763672
25.9689998626709
26.114999771118164
26.06800079345703
26.211000442504883
26.170000076293945
26.316999435424805
26.277999877929688
26.422000885009766
26.36199951171875
26.492000579833984
26.406999588012695
26.524999618530273
26.410999298095703
26.51099967956543
26.392000198364258
26.506000518798828
26.416000366210938
26.548999786376953
26.47100067138672
26.600000381469727
26.517000198364258
26.645000457763672
26.56100082397461
26.687999725341797
26.594999313354492
26.711999893188477
26.615999221801758
26.73699951171875
26.650999069213867
26.77400016784668
26.152999877929688
26.233999252319336
26.099000930786133
26.191999435424805
26.07200050354004
26.179000854492188
26.062000274658203
26.06599998474121
26.187000274658203
26.082000732421875
26.204999923706055
26.104999542236328
26.236000061035156
26.149999618530273
26.288999557495117
26.222999572753906
26.371999740600586
26.315000534057617
26.461000442504883
26.405000686645508
26.554000854492188
26.506999969482422
26.66200065612793
26.615999221801758
26.767000198364258
26.701000213623047
26.83799934387207
26.86400032043457
26.753000259399414
26.868000030517578
26.739999771118164
26.85099983215332
26.73699951171875
26.760000228881836
26.89699935913086
26.81399917602539
26.94700050354004
26.860000610351562
26.990999221801758
26.902999877929688
27.033000946044922
27.048999786376953
26.937999725341797
27.062999725341797
26.958999633789062
27.0939998626709
26.9950008392334
26.58099937438965
26.44499969482422
26.531999588012695
26.41200065612793
26.517000198364258
26.40399932861328
26.520000457763672
26.415000915527344
26.540000915527344
26.434999465942383
26.562999725341797
26.464000701904297
26.608999252319336
26.520000457763672
26.57200050354004
26.715999603271484
26.774999618530273
26.69099998474121
26.86400032043457
26.783000946044922
26.85300064086914
27.003000259399414
26.961999893188477
27.107999801635742
27.15999984741211
27.066999435424805
27.20599937438965
27.10099983215332
27.209999084472656
27.08799934387207
27.191999435424805
27.08300018310547
27.215999603271484
27.124000549316406
27.26799964904785
27.17300033569336
27.31100082397461
27.216999053955078
27.351999282836914
27.256000518798828
27.3799991607666
27.274999618530273
27.392000198364258
27.29199981689453
27.417999267578125
27.323999404907227
27.45599937438965
26.791000366210938
26.875999450683594
26.753000259399414
26.854999542236328
26.73900032043457
26.857999801635742
26.75200080871582
26.878000259399414
26.770999908447266
26.902999877929688
26.801000595092773
26.950000762939453
26.857999801635742
26.91200065612793
27.055999755859375
27.113000869750977
27.02899932861328
27.089000701904297
27.232999801635742
27.190000534057617
27.340999603271484
27.299999237060547
27.44700050354004
27.499000549316406
27.405000686645508
27.542999267578125
27.437000274658203
27.54599952697754
27.42300033569336
27.525999069213867
27.41699981689453
27.548999786376953
27.457000732421875
27.600000381469727
27.503000259399414
27.642000198364258
27.54599952697754
27.683000564575195
27.583999633789062
27.70800018310547
27.600000381469727
27.718000411987305
27.614999771118164
27.743000030517578
27.645999908447266
27.77899932861328
27.683000564575195
27.222000122070312
27.099000930786133
27.20400047302246
27.083999633789062
27.202999114990234
27.0939998626709
27.224000930786133
27.11400032043457
27.246999740600586
27.143999099731445
27.29199981689453
27.200000762939453
27.253000259399414
27.39699935913086
27.340999603271484
27.485000610351562
27.429000854492188
27.57699966430664
27.531999588012695
27.68600082397461
27.64299964904785
27.792999267578125
27.729000091552734
27.86400032043457
27.889999389648438
27.780000686645508
27.888999938964844
27.76099967956543
27.864999771118164
27.753999710083008
27.88800048828125
27.79199981689453
27.940000534057617
27.839000701904297
27.98200035095215
27.881999969482422
28.023000717163086
27.920000076293945
28.04800033569336
27.93400001525879
28.058000564575195
27.950000762939453
28.082000732421875
27.979000091552734
28.113000869750977
28.01099967956543
28.14299964904785
27.55900001525879
27.44099998474121
27.54400062561035
27.43000030517578
27.54800033569336
27.441999435424805
27.56999969482422
27.461000442504883
27.5939998626709
27.489999771118164
27.63800048828125
27.542999267578125
27.59600067138672
27.742000579833984
27.687000274658203
27.82900047302246
27.774999618530273
27.922000885009766
27.878999710083008
28.033000946044922
27.990999221801758
28.13800048828125
28.187000274658203
28.091999053955078
28.224000930786133
28.1200008392334
28.222000122070312
28.100000381469727
28.201000213623047
28.0939998626709
28.22800064086914
28.135000228881836
28.2810001373291
28.18199920654297
28.323999404907227
28.224000930786133
28.363000869750977
28.26300048828125
28.388999938964844
28.277000427246094
28.39699935913086
28.291000366210938
28.420000076293945
28.319000244140625
28.451000213623047
28.347999572753906
28.479000091552734
28.375999450683594
27.88800048828125
27.773000717163086
27.874000549316406
27.76300048828125
27.882999420166016
27.781999588012695
27.909000396728516
27.804000854492188
27.934999465942383
27.833999633789062
27.97800064086914
27.885000228881836
28.048999786376953
27.968000411987305
28.138999938964844
28.055999755859375
28.229000091552734
28.14900016784668
28.22100067138672
28.371999740600586
28.441999435424805
28.363000869750977
28.51799964904785
28.42300033569336
28.54599952697754
28.441999435424805
28.53700065612793
28.42099952697754
28.520999908447266
28.422000885009766
28.554000854492188
28.466999053955078
28.607999801635742
28.516000747680664
28.650999069213867
28.558000564575195
28.691999435424805
28.597000122070312
28.718000411987305
28.610000610351562
28.725000381469727
28.62299919128418
28.746999740600586
28.649999618530273
28.777000427246094
28.679000854492188
28.801000595092773
28.70400047302246
28.82900047302246
28.101999282836914
28.20800018310547
28.094999313354492
28.216999053955078
28.115999221801758
28.246999740600586
28.142000198364258
28.27400016784668
28.17300033569336
28.316999435424805
28.224000930786133
28.386999130249023
28.304000854492188
28.476999282836914
28.39299964904785
28.45400047302246
28.599000930786133
28.558000564575195
28.708999633789062
28.775999069213867
28.69499969482422
28.849000930786133
28.750999450683594
28.874000549316406
28.763999938964844
28.864999771118164
28.742000579833984
28.847000122070312
28.740999221801758
28.875999450683594
28.788000106811523
28.92799949645996
28.834999084472656
28.97100067138672
28.878999710083008
29.01300048828125
28.91900062561035
29.041000366210938
28.93400001525879
29.048999786376953
28.94700050354004
29.06800079345703
28.969999313354492
29.094999313354492
28.999000549316406
29.1200008392334
29.020999908447266
29.143999099731445
29.049999237060547
28.545000076293945
28.43199920654297
28.554000854492188
28.45199966430664
28.58300018310547
28.479000091552734
28.611000061035156
28.510000228881836
28.652999877929688
28.56100082397461
28.722999572753906
28.642000198364258
28.81100082397461
28.729000091552734
28.899999618530273
28.820999145507812
28.892000198364258
29.038000106811523
29.10300064086914
29.024999618530273
29.174999237060547
29.079999923706055
29.201000213623047
29.093000411987305
29.19099998474121
29.073999404907227
29.173999786376953
29.06999969482422
29.198999404907227
29.110000610351562
29.25
29.1560001373291
29.290000915527344
29.19700050354004
29.329999923706055
29.23699951171875
29.356000900268555
29.253000259399414
29.364999771118164
29.267000198364258
29.386999130249023
29.290000915527344
29.413000106811523
29.316999435424805
29.440000534057617
29.34000015258789
29.46500015258789
29.368999481201172
29.4950008392334
28.893999099731445
28.774999618530273
28.902000427246094
28.795000076293945
28.930999755859375
28.820999145507812
28.95800018310547
28.851999282836914
28.882999420166016
29.018999099731445
28.95199966430664
29.097999572753906
29.038999557495117
29.183000564575195
29.125999450683594
29.27400016784668
29.225000381469727
29.375999450683594
29.325000762939453
29.47100067138672
29.511999130249023
29.409000396728516
29.535999298095703
29.42300033569336
29.525999069213867
29.402999877929688
29.509000778198242
29.39900016784668
29.534000396728516
29.437999725341797
29.583999633789062
29.485000610351562
29.625
29.52400016784668
29.663999557495117
29.562000274658203
29.68899917602539
29.575000762939453
29.69499969482422
29.58799934387207
29.715999603271484
29.61199951171875
29.743000030517578
29.641000747680664
29.773000717163086
29.66900062561035
29.801000595092773
29.697999954223633
29.832000732421875
29.724000930786133
29.1299991607666
29.138999938964844
29.268999099731445
29.167999267578125
29.295000076293945
29.19499969482422
29.325000762939453
29.236000061035156
29.374000549316406
29.304000854492188
29.45199966430664
29.389999389648438
29.53499984741211
29.47599983215332
29.624000549316406
29.572999954223633
29.72599983215332
29.674999237060547
29.820999145507812
29.7450008392334
29.87299919128418
29.882999420166016
29.766000747680664
29.871999740600586
29.7450008392334
29.854000091552734
29.742000579833984
29.763999938964844
29.89699935913086
29.812999725341797
29.941999435424805
29.85300064086914
29.979000091552734
29.891000747680664
30.01799964904785
30.031999588012695
29.91900062561035
30.040000915527344
29.930999755859375
29.94499969482422
30.069000244140625
29.97100067138672
30.09600067138672
30.0
30.125999450683594
30.031999588012695
30.160999298095703
30.062999725341797
30.187999725341797
29.4950008392334
29.625999450683594
29.645000457763672
29.534000396728516
29.552000045776367
29.68199920654297
29.593000411987305
29.731000900268555
29.65999984741211
29.805999755859375
29.743000030517578
29.88599967956543
29.826000213623047
29.974000930786133
29.923999786376953
30.07699966430664
30.024999618530273
30.17099952697754
30.0939998626709
30.222999572753906
30.232999801635742
30.115999221801758
30.22100067138672
30.0939998626709
30.20199966430664
30.089000701904297
30.108999252319336
30.239999771118164
30.270000457763672
30.16900062561035
30.309999465942383
30.20800018310547
30.347000122070312
30.2450008392334
30.374000549316406
30.261999130249023
30.384000778198242
30.275999069213867
30.4060001373291
30.299999237060547
30.433000564575195
30.32699966430664
30.461999893188477
30.35700035095215
30.496000289916992
30.39299964904785
30.530000686645508
30.422000885009766
29.851999282836914
29.98200035095215
30.000999450683594
29.889999389648438
29.909000396728516
30.038000106811523
29.948999404907227
30.084999084472656
30.01300048828125
30.156999588012695
30.093000411987305
30.233999252319336
30.173999786376953
30.320999145507812
30.273000717163086
30.424999237060547
30.375
30.520000457763672
30.55900001525879
30.454999923706055
30.58099937438965
30.464000701904297
30.56800079345703
30.441999435424805
30.54800033569336
30.434999465942383
30.566999435424805
30.468000411987305
30.613000869750977
30.511999130249023
30.652999877929688
30.551000595092773
30.69099998474121
30.58799934387207
30.716999053955078
30.604999542236328
30.72800064086914
30.6200008392334
30.74799919128418
30.642000198364258
30.77400016784668
30.67099952697754
30.804000854492188
30.701000213623047
30.84000015258789
30.73900032043457
30.875
30.768999099731445
30.9060001373291
30.208999633789062
30.34000015258789
30.23900032043457
30.365999221801758
30.264999389648438
30.393999099731445
30.304000854492188
30.440000534057617
30.365999221801758
30.509000778198242
30.441999435424805
30.58300018310547
30.52199935913086
30.67099952697754
30.621999740600586
30.775999069213867
30.725000381469727
30.871000289916992
30.792999267578125
30.91900062561035
30.92799949645996
30.81100082397461
30.916000366210938
30.788999557495117
30.895999908447266
30.7810001373291
30.798999786376953
30.93000030517578
30.8439998626709
30.974000930786133
30.884000778198242
30.565000534057617
30.69300079345703
30.5939998626709
30.7189998626709
30.6200008392334
30.746999740600586
30.658000946044922
30.791000366210938
30.718000411987305
30.861000061035156
30.79400062561035
30.93600082397461
30.874000549316406
31.023000717163086
30.974000930786133
31.062999725341797
30.952999114990234
31.086999893188477
30.979999542236328
31.007999420166016
SCALARS latitude float 1
LOOKUP_TABLE default
-10.302000045776367
-10.428000450134277
-10.638999938964844
-10.730999946594238
-9.33899974822998
-9.418000221252441
-9.616000175476074
-9.737000465393066
-9.930000305175781
-10.050999641418457
-10.25100040435791
-10.37600040435791
-10.595000267028809
-10.684000015258789
-10.892999649047852
-10.960000038146973
-6.914999961853027
-7.109000205993652
-7.230999946594238
-7.427000045776367
-7.551000118255615
-7.748000144958496
-7.870999813079834
-8.069000244140625
-8.192000389099121
-8.392000198364258
-8.51099967956543
-8.717000007629395
-8.831000328063965
-9.027000427246094
-9.128000259399414
-9.314000129699707
-9.427000045776367
-9.618000030517578
-9.744000434875488
-9.935999870300293
-10.0649995803833
-10.258999824523926
-10.390000343322754
-10.581999778747559
-10.70199966430664
-10.871000289916992
-10.987000465393066
-6.442999839782715
-6.583000183105469
-6.734000205993652
-6.882999897003174
-7.041999816894531
-7.197999954223633
-7.357999801635742
-7.515999794006348
-7.675000190734863
-7.834000110626221
-7.992000102996826
-8.152999877929688
-8.310999870300293
-8.468999862670898
-8.621999740600586
-8.777000427246094
-8.930999755859375
-9.085000038146973
-9.23799991607666
-9.394000053405762
-9.553000450134277
-9.713000297546387
-9.87399959564209
-10.03499984741211
-10.196999549865723
-10.357999801635742
-10.515999794006348
-10.668000221252441
-10.821000099182129
-10.970999717712402
-5.683000087738037
-5.843999862670898
-5.986000061035156
-6.144999980926514
-6.283999919891357
-6.438000202178955
-6.576000213623047
-6.730999946594238
-6.873000144958496
-7.034999847412109
-7.181000232696533
-7.348999977111816
-7.494999885559082
-7.664000034332275
-7.809000015258789
-7.979000091552734
-8.121999740600586
-8.293999671936035
-8.437999725341797
-8.607999801635742
-8.75
-8.916999816894531
-9.0600004196167
-9.22700023651123
-9.369000434875488
-9.538999557495117
-9.685999870300293
-9.859999656677246
-10.006999969482422
-10.182000160217285
-10.329000473022461
-10.50100040435791
-10.647000312805176
-10.814000129699707
-10.951000213623047
-3.7769999504089355
-3.8550000190734863
-4.065000057220459
-4.195000171661377
-4.381999969482422
-4.511000156402588
-4.697000026702881
-4.823999881744385
-5.01200008392334
-5.14300012588501
-5.331999778747559
-5.460999965667725
-5.644999980926514
-5.770999908447266
-5.951000213623047
-6.074999809265137
-6.25
-6.370999813079834
-6.544000148773193
-6.665999889373779
-6.840000152587891
-6.961999893188477
-7.140999794006348
-7.267000198364258
-7.453000068664551
-7.579999923706055
-7.767000198364258
-7.89300012588501
-8.079000473022461
-8.20300006866455
-8.390999794006348
-8.512999534606934
-8.70199966430664
-8.821999549865723
-9.012999534606934
-9.133999824523926
-9.324000358581543
-9.444000244140625
-9.63599967956543
-9.758000373840332
-9.954999923706055
-10.07800006866455
-10.277000427246094
-10.401000022888184
-10.598999977111816
-10.718000411987305
-10.902999877929688
-11.017000198364258
-3.8510000705718994
-3.928999900817871
-4.136000156402588
-4.263999938964844
-4.451000213623047
-4.576000213623047
-4.763000011444092
-4.890999794006348
-5.083000183105469
-5.2129998207092285
-5.4019999504089355
-5.53000020980835
-5.715000152587891
-5.841000080108643
-6.020999908447266
-6.14300012588501
-6.318999767303467
-6.441999912261963
-6.614999771118164
-6.736999988555908
-6.909999847412109
-7.0329999923706055
-7.210000038146973
-7.3379998207092285
-7.521999835968018
-7.64900016784668
-7.834000110626221
-7.960999965667725
-8.144000053405762
-8.270000457763672
-8.451000213623047
-8.572999954223633
-8.755000114440918
-8.878000259399414
-9.065999984741211
-9.182999610900879
-9.371999740600586
-9.487000465393066
-9.682000160217285
-9.800999641418457
-10.0
-10.121999740600586
-10.322999954223633
-10.444999694824219
-10.642000198364258
-10.758000373840332
-10.947999954223633
-11.069000244140625
-3.9059998989105225
-3.994999885559082
-4.201000213623047
-4.321000099182129
-4.508999824523926
-4.627999782562256
-4.822999954223633
-4.947000026702881
-5.144999980926514
-5.269000053405762
-5.464000225067139
-5.585000038146973
-5.7769999504089355
-5.896999835968018
-6.083000183105469
-6.201000213623047
-6.383999824523926
-6.500999927520752
-6.681000232696533
-6.796999931335449
-6.97599983215332
-7.0920000076293945
-7.276000022888184
-7.395999908447266
-7.584000110626221
-7.704999923706055
-7.896999835968018
-8.013999938964844
-8.210000038146973
-8.300999641418457
-8.501999855041504
-8.607999801635742
-8.802000045776367
-8.91100025177002
-9.104000091552734
-9.210000038146973
-9.404999732971191
-9.515999794006348
-9.717000007629395
-9.829999923706055
-10.03600025177002
-10.149999618530273
-10.357999801635742
-10.472000122070312
-10.675000190734863
-10.788000106811523
-10.991999626159668
-11.109999656677246
-3.9570000171661377
-4.045000076293945
-4.255000114440918
-4.373000144958496
-4.558000087738037
-4.677999973297119
-4.873000144958496
-4.997000217437744
-5.195000171661377
-5.316999912261963
-5.51200008392334
-5.633999824523926
-5.826000213623047
-5.946000099182129
-6.135000228881836
-6.252999782562256
-6.435999870300293
-6.552000045776367
-6.732999801635742
-6.8480000495910645
-7.0279998779296875
-7.14300012588501
-7.326000213623047
-7.440999984741211
-7.630000114440918
-7.738999843597412
-7.931000232696533
-8.031999588012695
-8.227999687194824
-8.324000358581543
-8.520000457763672
-8.625
-8.821000099182129
-8.928000450134277
-9.12399959564209
-9.234999656677246
-9.432000160217285
-9.545999526977539
-9.743000030517578
-9.859000205993652
-10.060999870300293
-10.178999900817871
-10.383000373840332
-10.50100040435791
-10.70300006866455
-10.821000099182129
-11.02400016784668
-11.142000198364258
-4.007999897003174
-4.140999794006348
-4.315999984741211
-4.443999767303467
-4.620999813079834
-4.75600004196167
-4.936999797821045
-5.073999881744385
-5.256999969482422
-5.392000198364258
-5.573999881744385
-5.708000183105469
-5.888000011444092
-6.020999908447266
-6.197000026702881
-6.327000141143799
-6.498000144958496
-6.625999927520752
-6.794000148773193
-6.922999858856201
-7.0920000076293945
-7.2179999351501465
-7.382999897003174
-7.499000072479248
-7.664999961853027
-7.7789998054504395
-7.953999996185303
-8.072999954223633
-8.251999855041504
-8.37600040435791
-8.553999900817871
-8.680999755859375
-8.859000205993652
-8.98799991607666
-9.168999671936035
-9.300999641418457
-9.480999946594238
-9.61299991607666
-9.793999671936035
-9.930999755859375
-10.11400032043457
-10.253000259399414
-10.435999870300293
-10.572999954223633
-10.755999565124512
-10.892999649047852
-11.076000213623047
-11.213000297546387
-4.091000080108643
-4.2220001220703125
-4.39900016784668
-4.53000020980835
-4.709000110626221
-4.84499979019165
-5.0279998779296875
-5.164000034332275
-5.3460001945495605
-5.48199987411499
-5.6620001792907715
-5.796999931335449
-5.97599983215332
-6.109000205993652
-6.283999919891357
-6.415999889373779
-6.585999965667725
-6.7170000076293945
-6.886000156402588
-7.014999866485596
-7.177999973297119
-7.296999931335449
-7.452000141143799
-7.568999767303467
-7.730000019073486
-7.855000019073486
-8.02299976348877
-8.154000282287598
-8.32800006866455
-8.463000297546387
-8.63700008392334
-8.77400016784668
-8.946999549865723
-9.086000442504883
-9.260000228881836
-9.402000427246094
-9.576000213623047
-9.718000411987305
-9.892999649047852
-10.036999702453613
-10.213000297546387
-10.357999801635742
-10.534000396728516
-10.678999900817871
-10.854000091552734
-10.998000144958496
-11.17300033569336
-3.996000051498413
-4.175000190734863
-4.302999973297119
-4.48199987411499
-4.611000061035156
-4.795000076293945
-4.927000045776367
-5.11299991607666
-5.245999813079834
-5.432000160217285
-5.564000129699707
-5.748000144958496
-5.879000186920166
-6.061999797821045
-6.190999984741211
-6.370999813079834
-6.497000217437744
-6.673999786376953
-6.796999931335449
-6.96999979019165
-7.0879998207092285
-7.251999855041504
-7.36299991607666
-7.526000022888184
-7.640999794006348
-7.809000015258789
-7.927999973297119
-8.104999542236328
-8.229000091552734
-8.413000106811523
-8.541999816894531
-8.727999687194824
-8.859999656677246
-9.045000076293945
-9.177000045776367
-9.361000061035156
-9.494000434875488
-9.678000450134277
-9.812999725341797
-9.996999740600586
-10.130999565124512
-10.315999984741211
-10.451000213623047
-10.63700008392334
-10.770999908447266
-10.956000328063965
-11.09000015258789
-4.020999908447266
-4.224999904632568
-4.328000068664551
-4.5329999923706055
-4.63700008392334
-4.843999862670898
-4.951000213623047
-5.163000106811523
-5.265999794006348
-5.480999946594238
-5.583000183105469
-5.796000003814697
-5.8979997634887695
-6.110000133514404
-6.209000110626221
-6.416999816894531
-6.511000156402588
-6.714000225067139
-6.802000045776367
-7.001999855041504
-7.086999893188477
-7.283999919891357
-7.364999771118164
-7.559999942779541
-7.640999794006348
-7.841000080108643
-7.927000045776367
-8.128999710083008
-8.241999626159668
-8.440999984741211
-8.555999755859375
-8.758000373840332
-8.87600040435791
-9.088000297546387
-9.182999610900879
-9.406000137329102
-9.501999855041504
-9.725000381469727
-9.819999694824219
-10.041999816894531
-10.13599967956543
-10.347000122070312
-10.46500015258789
-10.663000106811523
-10.782999992370605
-10.982000350952148
-11.104999542236328
-4.166999816894531
-4.296999931335449
-4.4770002365112305
-4.607999801635742
-4.789000034332275
-4.920000076293945
-5.103000164031982
-5.236000061035156
-5.418000221252441
-5.550000190734863
-5.732999801635742
-5.866000175476074
-6.046000003814697
-6.176000118255615
-6.376999855041504
-6.439000129699707
-6.624000072479248
-6.754000186920166
-6.9070000648498535
-7.039999961853027
-7.2270002365112305
-7.28000020980835
-7.499000072479248
-7.552999973297119
-7.743000030517578
-7.879000186920166
-8.043000221252441
-8.1850004196167
-8.355999946594238
-8.498000144958496
-8.67199993133545
-8.815999984741211
-8.989999771118164
-9.133999824523926
-9.309000015258789
-9.454000473022461
-9.628000259399414
-9.770999908447266
-9.937000274658203
-10.079999923706055
-10.244000434875488
-10.394000053405762
-10.555999755859375
-10.708000183105469
-10.871999740600586
-11.027000427246094
-11.194000244140625
-4.210999965667725
-4.388000011444092
-4.521999835968018
-4.701000213623047
-4.835999965667725
-5.013000011444092
-5.1479997634887695
-5.324999809265137
-5.460999965667725
-5.63700008392334
-5.775000095367432
-5.947000026702881
-6.084000110626221
-6.2769999504089355
-6.335000038146973
-6.51800012588501
-6.645999908447266
-6.835000038146973
-6.89300012588501
-7.114999771118164
-7.171999931335449
-7.389999866485596
-7.446000099182129
-7.633999824523926
-7.76800012588501
-7.935999870300293
-8.076000213623047
-8.25100040435791
-8.390000343322754
-8.567000389099121
-8.706000328063965
-8.883000373840332
-9.02299976348877
-9.197999954223633
-9.340999603271484
-9.517000198364258
-9.65999984741211
-9.824999809265137
-9.958999633789062
-10.121000289916992
-10.262999534606934
-10.428999900817871
-10.572999954223633
-10.741999626159668
-10.890000343322754
-11.060999870300293
-11.210000038146973
-4.310999870300293
-4.438000202178955
-4.622000217437744
-4.750999927520752
-4.933000087738037
-5.060999870300293
-5.242000102996826
-5.370999813079834
-5.550000190734863
-5.679999828338623
-5.855000019073486
-5.984000205993652
-6.177999973297119
-6.244999885559082
-6.458000183105469
-6.526000022888184
-6.738999843597412
-6.810999870300293
-7.021999835968018
-7.0929999351501465
-7.297999858856201
-7.370999813079834
-7.580999851226807
-7.663000106811523
-7.867000102996826
-7.988999843597412
-8.182999610900879
-8.305999755859375
-8.496999740600586
-8.619999885559082
-8.807999610900879
-8.932000160217285
-9.119999885559082
-9.246000289916992
-9.432000160217285
-9.5600004196167
-9.739999771118164
-9.86299991607666
-10.038000106811523
-10.161999702453613
-10.345000267028809
-10.470000267028809
-10.654999732971191
-10.782999992370605
-10.968000411987305
-11.097999572753906
-11.277000427246094
-4.229000091552734
-4.361999988555908
-4.538000106811523
-4.671999931335449
-4.8480000495910645
-4.980999946594238
-5.156000137329102
-5.289000034332275
-5.465000152587891
-5.5970001220703125
-5.769000053405762
-5.8979997634887695
-6.0929999351501465
-6.158999919891357
-6.379000186920166
-6.443999767303467
-6.664000034332275
-6.730999946594238
-6.948999881744385
-7.015999794006348
-7.232999801635742
-7.306000232696533
-7.506999969482422
-7.626999855041504
-7.813000202178955
-7.936999797821045
-8.128000259399414
-8.251999855041504
-8.437999725341797
-8.5600004196167
-8.739999771118164
-8.866000175476074
-9.04699993133545
-9.177000045776367
-9.357999801635742
-9.486000061035156
-9.66100025177002
-9.78600025177002
-9.956999778747559
-10.086000442504883
-10.258999824523926
-10.392999649047852
-10.567999839782715
-10.704999923706055
-10.876999855041504
-11.01200008392334
-11.182000160217285
-11.317000389099121
-4.124000072479248
-4.263999938964844
-4.429999828338623
-4.572000026702881
-4.738999843597412
-4.88100004196167
-5.047999858856201
-5.190999984741211
-5.357999801635742
-5.499000072479248
-5.659999847412109
-5.797999858856201
-5.953000068664551
-6.089000225067139
-6.241000175476074
-6.375999927520752
-6.531000137329102
-6.665999889373779
-6.859000205993652
-6.919000148773193
-7.114999771118164
-7.249000072479248
-7.416999816894531
-7.553999900817871
-7.728000164031982
-7.867000102996826
-8.04800033569336
-8.1850004196167
-8.354000091552734
-8.482000350952148
-8.644000053405762
-8.779000282287598
-8.944999694824219
-9.086000442504883
-9.251999855041504
-9.392999649047852
-9.550000190734863
-9.6899995803833
-9.840999603271484
-9.984000205993652
-10.13700008392334
-10.282999992370605
-10.442999839782715
-10.593999862670898
-10.753999710083008
-10.901000022888184
-11.04800033569336
-11.194999694824219
-11.336999893188477
-4.151000022888184
-4.317999839782715
-4.456999778747559
-4.625
-4.764999866485596
-4.934000015258789
-5.074999809265137
-5.243000030517578
-5.382999897003174
-5.546000003814697
-5.682000160217285
-5.840000152587891
-5.9720001220703125
-6.13100004196167
-6.263000011444092
-6.459000110626221
-6.5229997634887695
-6.751999855041504
-6.814000129699707
-7.011000156402588
-7.144999980926514
-7.314000129699707
-7.451000213623047
-7.625999927520752
-7.765999794006348
-7.940999984741211
-8.083000183105469
-8.25100040435791
-8.383999824523926
-8.543999671936035
-8.675000190734863
-8.845999717712402
-8.979999542236328
-9.152000427246094
-9.281999588012695
-9.444999694824219
-9.572999954223633
-9.727999687194824
-9.857000350952148
-10.015999794006348
-10.152999877929688
-10.322999954223633
-10.465999603271484
-10.640000343322754
-10.777000427246094
-10.92199993133545
-11.045999526977539
-11.182999610900879
-11.32699966430664
-4.199999809265137
-4.3420000076293945
-4.50600004196167
-4.650000095367432
-4.815000057220459
-4.959000110626221
-5.125
-5.26800012588501
-5.427999973297119
-5.565999984741211
-5.7230000495910645
-5.860000133514404
-6.014999866485596
-6.1529998779296875
-6.309999942779541
-6.447999954223633
-6.64300012588501
-6.699999809265137
-6.901000022888184
-7.039999961853027
-7.201000213623047
-7.341000080108643
-7.504000186920166
-7.651000022888184
-7.814000129699707
-7.9629998207092285
-8.125
-8.270000457763672
-8.427000045776367
-8.567999839782715
-8.72599983215332
-8.873000144958496
-9.03499984741211
-9.180000305175781
-9.33899974822998
-9.475000381469727
-9.625
-9.75100040435791
-9.899999618530273
-10.03600025177002
-10.197999954223633
-10.347999572753906
-10.512999534606934
-10.661999702453613
-10.805999755859375
-10.928000450134277
-11.057000160217285
-11.187000274658203
-11.329000473022461
-4.124000072479248
-4.243000030517578
-4.427000045776367
-4.547999858856201
-4.732999801635742
-4.85699987411499
-5.043000221252441
-5.168000221252441
-5.36899995803833
-5.445000171661377
-5.660999774932861
-5.736999988555908
-5.954999923706055
-6.031000137329102
-6.248000144958496
-6.324999809265137
-6.543000221252441
-6.619999885559082
-6.841000080108643
-6.916999816894531
-7.110000133514404
-7.235000133514404
-7.4070000648498535
-7.535999774932861
-7.714000225067139
-7.843999862670898
-8.02400016784668
-8.154999732971191
-8.331999778747559
-8.458999633789062
-8.630999565124512
-8.756999969482422
-8.930000305175781
-9.0600004196167
-9.236000061035156
-9.369999885559082
-9.536999702453613
-9.656000137329102
-9.815999984741211
-9.9350004196167
-10.10099983215332
-10.229000091552734
-10.399999618530273
-10.53499984741211
-10.70300006866455
-10.824000358581543
-10.97599983215332
-11.085000038146973
-11.237000465393066
-11.35099983215332
-4.203999996185303
-4.406000137329102
-4.505000114440918
-4.711999893188477
-4.811999797821045
-5.019999980926514
-5.118000030517578
-5.321000099182129
-5.414000034332275
-5.613999843597412
-5.709000110626221
-5.9079999923706055
-6.002999782562256
-6.203000068664551
-6.297999858856201
-6.498000144958496
-6.590000152587891
-6.788000106811523
-6.875999927520752
-7.074999809265137
-7.164000034332275
-7.364999771118164
-7.473999977111816
-7.671999931335449
-7.7820000648498535
-7.979000091552734
-8.090999603271484
-8.295000076293945
-8.38599967956543
-8.595000267028809
-8.682999610900879
-8.890999794006348
-8.979000091552734
-9.192999839782715
-9.281999588012695
-9.479000091552734
-9.588000297546387
-9.769000053405762
-9.876999855041504
-10.067999839782715
-10.154999732971191
-10.359000205993652
-10.449000358581543
-10.657999992370605
-10.75
-10.946000099182129
-11.026000022888184
-11.208000183105469
-11.289999961853027
-4.392000198364258
-4.485000133514404
-4.686999797821045
-4.798999786376953
-5.001999855041504
-5.0920000076293945
-5.302000045776367
-5.390999794006348
-5.5970001220703125
-5.685999870300293
-5.892000198364258
-5.980999946594238
-6.188000202178955
-6.275000095367432
-6.478000164031982
-6.559999942779541
-6.760000228881836
-6.8420000076293945
-7.046999931335449
-7.133999824523926
-7.334000110626221
-7.447000026702881
-7.638000011444092
-7.751999855041504
-7.940999984741211
-8.057000160217285
-8.260000228881836
-8.34000015258789
-8.53600025177002
-8.652999877929688
-8.831000328063965
-8.949000358581543
-9.128999710083008
-9.248000144958496
-9.428000450134277
-9.543000221252441
-9.718999862670898
-9.835000038146973
-10.01200008392334
-10.128000259399414
-10.307000160217285
-10.423999786376953
-10.602999687194824
-10.720000267028809
-10.890999794006348
-11.001999855041504
-11.168000221252441
-11.27400016784668
-4.363999843597412
-4.454999923706055
-4.656000137329102
-4.76800012588501
-4.9710001945495605
-5.059999942779541
-5.270999908447266
-5.359000205993652
-5.567999839782715
-5.65500020980835
-5.861999988555908
-5.951000213623047
-6.1570000648498535
-6.242000102996826
-6.441999912261963
-6.520999908447266
-6.7210001945495605
-6.802000045776367
-6.994999885559082
-7.107999801635742
-7.291999816894531
-7.4079999923706055
-7.591000080108643
-7.706999778747559
-7.888000011444092
-8.005999565124512
-8.184000015258789
-8.300999641418457
-8.47700023651123
-8.595000267028809
-8.772000312805176
-8.890999794006348
-9.067000389099121
-9.187999725341797
-9.36400032043457
-9.484999656677246
-9.66100025177002
-9.779000282287598
-9.958000183105469
-10.074999809265137
-10.253000259399414
-10.369999885559082
-10.541999816894531
-10.657999992370605
-10.824999809265137
-10.940999984741211
-11.111000061035156
-11.227999687194824
-11.39799976348877
-4.34499979019165
-4.445000171661377
-4.645999908447266
-4.747000217437744
-4.947999954223633
-5.046999931335449
-5.248000144958496
-5.3460001945495605
-5.545000076293945
-5.640999794006348
-5.840000152587891
-5.936999797821045
-6.132999897003174
-6.223999977111816
-6.4120001792907715
-6.497000217437744
-6.688000202178955
-6.7769999504089355
-6.974999904632568
-7.068999767303467
-7.26800012588501
-7.372000217437744
-7.561999797821045
-7.664999961853027
-7.8520002365112305
-7.958000183105469
-8.154000282287598
-8.241999626159668
-8.446999549865723
-8.53499984741211
-8.741000175476074
-4.3420000076293945
-4.439000129699707
-4.64300012588501
-4.739999771118164
-4.942999839782715
-5.039999961853027
-5.242000102996826
-5.335999965667725
-5.5370001792907715
-5.629000186920166
-5.830999851226807
-5.921999931335449
-6.119999885559082
-6.204999923706055
-6.394999980926514
-4.611999988555908
-4.724999904632568
-4.9120001792907715
-5.02400016784668
-5.2210001945495605
